G04 #@! TF.GenerationSoftware,KiCad,Pcbnew,7.0.8*
G04 #@! TF.CreationDate,2023-10-15T17:46:01+09:00*
G04 #@! TF.ProjectId,pangaea-pcb-thumb-k2-4keys,70616e67-6165-4612-9d70-63622d746875,1*
G04 #@! TF.SameCoordinates,Original*
G04 #@! TF.FileFunction,Soldermask,Bot*
G04 #@! TF.FilePolarity,Negative*
%FSLAX46Y46*%
G04 Gerber Fmt 4.6, Leading zero omitted, Abs format (unit mm)*
G04 Created by KiCad (PCBNEW 7.0.8) date 2023-10-15 17:46:01*
%MOMM*%
%LPD*%
G01*
G04 APERTURE LIST*
G04 APERTURE END LIST*
G36*
X22550950Y-138934323D02*
G01*
X22601840Y-138934323D01*
X22645783Y-138943663D01*
X22684583Y-138947485D01*
X22733331Y-138962272D01*
X22788947Y-138974094D01*
X22824530Y-138989937D01*
X22856122Y-138999520D01*
X22906327Y-139026355D01*
X22963696Y-139051898D01*
X22990370Y-139071278D01*
X23014205Y-139084018D01*
X23062815Y-139123911D01*
X23118451Y-139164333D01*
X23136517Y-139184397D01*
X23152770Y-139197736D01*
X23196447Y-139250957D01*
X23246447Y-139306487D01*
X23256950Y-139324679D01*
X23266488Y-139336301D01*
X23301782Y-139402332D01*
X23342090Y-139472147D01*
X23346725Y-139486412D01*
X23350986Y-139494384D01*
X23374474Y-139571814D01*
X23401201Y-139654072D01*
X23402142Y-139663025D01*
X23403021Y-139665923D01*
X23411578Y-139752803D01*
X23421196Y-139844311D01*
X23411577Y-139935826D01*
X23403021Y-140022698D01*
X23402142Y-140025595D01*
X23401201Y-140034550D01*
X23374469Y-140116821D01*
X23350986Y-140194237D01*
X23346726Y-140202206D01*
X23342090Y-140216475D01*
X23301775Y-140286301D01*
X23266488Y-140352320D01*
X23256952Y-140363939D01*
X23246447Y-140382135D01*
X23196438Y-140437675D01*
X23152770Y-140490885D01*
X23136520Y-140504220D01*
X23118451Y-140524289D01*
X23062804Y-140564717D01*
X23014205Y-140604603D01*
X22990376Y-140617339D01*
X22963696Y-140636724D01*
X22906316Y-140662271D01*
X22856122Y-140689101D01*
X22824537Y-140698681D01*
X22788947Y-140714528D01*
X22733320Y-140726351D01*
X22684583Y-140741136D01*
X22645792Y-140744956D01*
X22601840Y-140754299D01*
X22550940Y-140754299D01*
X22506196Y-140758706D01*
X22461452Y-140754299D01*
X22410552Y-140754299D01*
X22366600Y-140744956D01*
X22327808Y-140741136D01*
X22279067Y-140726351D01*
X22223445Y-140714528D01*
X22187856Y-140698682D01*
X22156269Y-140689101D01*
X22106069Y-140662268D01*
X22048696Y-140636724D01*
X22022018Y-140617341D01*
X21998186Y-140604603D01*
X21949578Y-140564711D01*
X21893941Y-140524289D01*
X21875874Y-140504223D01*
X21859621Y-140490885D01*
X21815942Y-140437662D01*
X21765945Y-140382135D01*
X21755442Y-140363943D01*
X21745903Y-140352320D01*
X21710602Y-140286278D01*
X21670302Y-140216475D01*
X21665667Y-140202211D01*
X21661405Y-140194237D01*
X21637907Y-140116774D01*
X21611191Y-140034550D01*
X21610250Y-140025600D01*
X21609370Y-140022698D01*
X21600798Y-139935675D01*
X21591196Y-139844311D01*
X21600797Y-139752954D01*
X21609370Y-139665923D01*
X21610250Y-139663020D01*
X21611191Y-139654072D01*
X21637902Y-139571861D01*
X21661405Y-139494384D01*
X21665668Y-139486407D01*
X21670302Y-139472147D01*
X21710595Y-139402355D01*
X21745903Y-139336301D01*
X21755444Y-139324675D01*
X21765945Y-139306487D01*
X21815932Y-139250969D01*
X21859621Y-139197736D01*
X21875877Y-139184394D01*
X21893941Y-139164333D01*
X21949567Y-139123918D01*
X21998186Y-139084018D01*
X22022023Y-139071276D01*
X22048696Y-139051898D01*
X22106058Y-139026358D01*
X22156269Y-138999520D01*
X22187863Y-138989936D01*
X22223445Y-138974094D01*
X22279056Y-138962273D01*
X22327808Y-138947485D01*
X22366609Y-138943663D01*
X22410552Y-138934323D01*
X22461442Y-138934323D01*
X22506196Y-138929915D01*
X22550950Y-138934323D01*
G37*
G36*
X38727125Y-132262429D02*
G01*
X38761882Y-132261315D01*
X38871590Y-132271898D01*
X38988377Y-132279553D01*
X39023629Y-132286565D01*
X39055203Y-132289611D01*
X39165492Y-132314783D01*
X39283451Y-132338247D01*
X39314558Y-132348806D01*
X39342505Y-132355185D01*
X39451338Y-132395236D01*
X39568339Y-132434953D01*
X39595040Y-132448120D01*
X39619065Y-132456962D01*
X39724345Y-132511887D01*
X39838167Y-132568018D01*
X39860357Y-132582845D01*
X39880334Y-132593267D01*
X39979944Y-132662750D01*
X40088318Y-132735163D01*
X40106060Y-132750722D01*
X40122034Y-132761865D01*
X40213867Y-132845266D01*
X40314513Y-132933530D01*
X40328045Y-132948961D01*
X40340184Y-132959985D01*
X40422164Y-133056282D01*
X40512880Y-133159725D01*
X40522562Y-133174216D01*
X40531211Y-133184375D01*
X40601429Y-133292248D01*
X40680025Y-133409876D01*
X40686365Y-133422733D01*
X40691977Y-133431354D01*
X40748567Y-133548866D01*
X40813090Y-133679704D01*
X40816707Y-133690359D01*
X40819836Y-133696857D01*
X40861096Y-133821125D01*
X40909796Y-133964592D01*
X40911388Y-133972600D01*
X40912695Y-133976534D01*
X40937206Y-134102394D01*
X40968490Y-134259666D01*
X40968821Y-134264729D01*
X40969029Y-134265793D01*
X40975604Y-134368216D01*
X40988167Y-134559876D01*
X40988167Y-136359876D01*
X40988041Y-136361796D01*
X40983441Y-136505226D01*
X40973676Y-136580960D01*
X40968490Y-136660086D01*
X40954232Y-136731763D01*
X40945500Y-136799491D01*
X40925872Y-136874339D01*
X40909796Y-136955160D01*
X40887299Y-137021432D01*
X40870750Y-137084543D01*
X40840581Y-137159061D01*
X40813090Y-137240048D01*
X40783508Y-137300032D01*
X40760162Y-137357700D01*
X40719220Y-137430395D01*
X40680025Y-137509876D01*
X40644594Y-137562901D01*
X40615554Y-137614466D01*
X40563852Y-137683741D01*
X40512880Y-137760027D01*
X40472864Y-137805655D01*
X40439298Y-137850632D01*
X40377087Y-137914869D01*
X40314513Y-137986222D01*
X40271199Y-138024206D01*
X40234284Y-138062325D01*
X40162025Y-138119949D01*
X40088318Y-138184589D01*
X40043001Y-138214868D01*
X40003885Y-138246063D01*
X39922274Y-138295535D01*
X39838167Y-138351734D01*
X39792059Y-138374471D01*
X39751891Y-138398822D01*
X39661919Y-138438649D01*
X39568339Y-138484799D01*
X39522578Y-138500332D01*
X39482417Y-138518111D01*
X39385236Y-138546953D01*
X39283451Y-138581505D01*
X39239091Y-138590328D01*
X39199905Y-138601959D01*
X39096909Y-138618610D01*
X38988377Y-138640199D01*
X38946330Y-138642954D01*
X38908995Y-138648991D01*
X38801789Y-138652428D01*
X38688167Y-138659876D01*
X38649197Y-138657321D01*
X38614451Y-138658436D01*
X38504772Y-138647855D01*
X38387957Y-138640199D01*
X38352695Y-138633185D01*
X38321130Y-138630140D01*
X38210868Y-138604973D01*
X38092883Y-138581505D01*
X38061769Y-138570943D01*
X38033828Y-138564566D01*
X37925018Y-138524522D01*
X37807995Y-138484799D01*
X37781288Y-138471628D01*
X37757268Y-138462789D01*
X37652005Y-138407873D01*
X37538167Y-138351734D01*
X37515973Y-138336904D01*
X37495999Y-138326484D01*
X37396399Y-138257008D01*
X37288016Y-138184589D01*
X37270271Y-138169027D01*
X37254299Y-138157886D01*
X37162469Y-138074487D01*
X37061821Y-137986222D01*
X37048287Y-137970790D01*
X37036149Y-137959766D01*
X36954164Y-137863463D01*
X36863454Y-137760027D01*
X36853771Y-137745536D01*
X36845122Y-137735376D01*
X36774891Y-137627483D01*
X36696309Y-137509876D01*
X36689969Y-137497020D01*
X36684356Y-137488397D01*
X36627744Y-137370840D01*
X36563244Y-137240048D01*
X36559628Y-137229395D01*
X36556497Y-137222894D01*
X36515207Y-137098536D01*
X36466538Y-136955160D01*
X36464946Y-136947156D01*
X36463638Y-136943217D01*
X36439088Y-136817163D01*
X36407844Y-136660086D01*
X36407512Y-136655028D01*
X36407304Y-136653958D01*
X36400700Y-136551095D01*
X36388167Y-136359876D01*
X36388167Y-134559876D01*
X36388292Y-134557956D01*
X36392892Y-134414525D01*
X36402658Y-134338774D01*
X36407844Y-134259666D01*
X36422098Y-134188004D01*
X36430833Y-134120260D01*
X36450465Y-134045392D01*
X36466538Y-133964592D01*
X36489028Y-133898336D01*
X36505583Y-133835208D01*
X36535760Y-133760669D01*
X36563244Y-133679704D01*
X36592817Y-133619735D01*
X36616171Y-133562051D01*
X36657124Y-133489333D01*
X36696309Y-133409876D01*
X36731729Y-133356865D01*
X36760779Y-133305285D01*
X36812496Y-133235988D01*
X36863454Y-133159725D01*
X36903457Y-133114109D01*
X36937035Y-133069119D01*
X36999265Y-133004861D01*
X37061821Y-132933530D01*
X37105120Y-132895557D01*
X37142049Y-132857426D01*
X37214331Y-132799782D01*
X37288016Y-132735163D01*
X37333318Y-132704893D01*
X37372448Y-132673688D01*
X37454085Y-132624199D01*
X37538167Y-132568018D01*
X37584260Y-132545287D01*
X37624442Y-132520929D01*
X37714442Y-132481088D01*
X37807995Y-132434953D01*
X37853741Y-132419424D01*
X37893916Y-132401640D01*
X37991127Y-132372788D01*
X38092883Y-132338247D01*
X38137229Y-132329425D01*
X38176428Y-132317792D01*
X38279455Y-132301135D01*
X38387957Y-132279553D01*
X38429991Y-132276797D01*
X38467338Y-132270760D01*
X38574575Y-132267321D01*
X38688167Y-132259876D01*
X38727125Y-132262429D01*
G37*
G36*
X23414138Y-133784484D02*
G01*
X23486825Y-133784484D01*
X23553089Y-133793591D01*
X23617584Y-133797819D01*
X23693022Y-133812824D01*
X23770774Y-133823511D01*
X23829574Y-133839986D01*
X23886966Y-133851402D01*
X23965672Y-133878119D01*
X24046763Y-133900840D01*
X24097403Y-133922836D01*
X24147050Y-133939689D01*
X24227207Y-133979217D01*
X24309653Y-134015029D01*
X24351804Y-134040661D01*
X24393377Y-134061163D01*
X24472946Y-134114329D01*
X24554545Y-134163951D01*
X24588260Y-134191380D01*
X24621752Y-134213759D01*
X24698525Y-134281087D01*
X24776878Y-134344832D01*
X24802522Y-134372290D01*
X24828250Y-134394853D01*
X24899935Y-134476594D01*
X24972510Y-134554303D01*
X24990769Y-134580170D01*
X25009344Y-134601351D01*
X25073580Y-134697487D01*
X25137797Y-134788462D01*
X25149641Y-134811321D01*
X25161938Y-134829724D01*
X25216363Y-134940088D01*
X25269660Y-135042946D01*
X25276298Y-135061625D01*
X25283415Y-135076056D01*
X25325740Y-135200741D01*
X25365642Y-135313015D01*
X25368467Y-135326610D01*
X25371701Y-135336137D01*
X25399759Y-135477200D01*
X25423956Y-135593638D01*
X25424498Y-135601570D01*
X25425284Y-135605519D01*
X25437101Y-135785817D01*
X25443516Y-135879588D01*
X25437101Y-135973366D01*
X25425284Y-136153656D01*
X25424498Y-136157603D01*
X25423956Y-136165538D01*
X25399755Y-136281998D01*
X25371701Y-136423038D01*
X25368467Y-136432562D01*
X25365642Y-136446161D01*
X25325732Y-136558455D01*
X25283414Y-136683122D01*
X25276298Y-136697550D01*
X25269660Y-136716230D01*
X25216369Y-136819076D01*
X25161940Y-136929449D01*
X25149642Y-136947854D01*
X25137797Y-136970714D01*
X25073573Y-137061698D01*
X25009344Y-137157824D01*
X24990772Y-137179000D01*
X24972510Y-137204873D01*
X24899920Y-137282597D01*
X24828250Y-137364322D01*
X24802527Y-137386879D01*
X24776878Y-137414344D01*
X24698510Y-137478100D01*
X24621752Y-137545416D01*
X24588267Y-137567789D01*
X24554545Y-137595225D01*
X24472930Y-137644856D01*
X24393377Y-137698012D01*
X24351813Y-137718508D01*
X24309653Y-137744147D01*
X24227190Y-137779965D01*
X24147050Y-137819486D01*
X24097413Y-137836335D01*
X24046763Y-137858336D01*
X23965655Y-137881061D01*
X23886966Y-137907773D01*
X23829586Y-137919186D01*
X23770774Y-137935665D01*
X23693006Y-137946353D01*
X23617584Y-137961356D01*
X23553103Y-137965582D01*
X23486825Y-137974692D01*
X23414123Y-137974692D01*
X23343516Y-137979320D01*
X23272909Y-137974692D01*
X23200207Y-137974692D01*
X23133929Y-137965582D01*
X23069447Y-137961356D01*
X22994022Y-137946353D01*
X22916258Y-137935665D01*
X22857447Y-137919187D01*
X22800065Y-137907773D01*
X22721370Y-137881059D01*
X22640269Y-137858336D01*
X22589621Y-137836336D01*
X22539981Y-137819486D01*
X22459833Y-137779962D01*
X22377379Y-137744147D01*
X22335222Y-137718511D01*
X22293654Y-137698012D01*
X22214087Y-137644847D01*
X22132487Y-137595225D01*
X22098772Y-137567796D01*
X22030732Y-137522333D01*
X21920058Y-137553286D01*
X21899459Y-137597461D01*
X21893443Y-137622047D01*
X21878479Y-137642454D01*
X21874433Y-137651133D01*
X21865750Y-137659815D01*
X21847300Y-137684979D01*
X21830224Y-137695340D01*
X21823811Y-137701754D01*
X21794576Y-137716972D01*
X21780586Y-137725462D01*
X19713262Y-138477906D01*
X19697094Y-138480394D01*
X19664910Y-138487530D01*
X19655874Y-138486739D01*
X19636134Y-138489778D01*
X19605820Y-138482359D01*
X19593593Y-138481290D01*
X19584918Y-138477244D01*
X19560335Y-138471229D01*
X19539925Y-138456264D01*
X19531248Y-138452218D01*
X19522566Y-138443536D01*
X19497403Y-138425086D01*
X19487042Y-138408012D01*
X19480627Y-138401597D01*
X19465402Y-138372351D01*
X19456920Y-138358372D01*
X18772879Y-136478987D01*
X18770392Y-136462829D01*
X18763255Y-136430635D01*
X18764045Y-136421595D01*
X18761008Y-136401858D01*
X18768424Y-136371550D01*
X18769495Y-136359318D01*
X18773541Y-136350639D01*
X18779557Y-136326059D01*
X18794517Y-136305654D01*
X18798567Y-136296971D01*
X18807254Y-136288283D01*
X18825700Y-136263127D01*
X18842770Y-136252768D01*
X18849188Y-136246351D01*
X18878440Y-136231123D01*
X18892414Y-136222644D01*
X19814152Y-135887159D01*
X20952041Y-135473001D01*
X20952044Y-135473000D01*
X20959738Y-135470200D01*
X20975887Y-135467714D01*
X21008089Y-135460575D01*
X21017129Y-135461365D01*
X21036866Y-135458328D01*
X21067173Y-135465744D01*
X21079406Y-135466815D01*
X21088084Y-135470861D01*
X21112665Y-135476877D01*
X21133070Y-135491838D01*
X21182267Y-135514779D01*
X21290728Y-135459814D01*
X21315331Y-135336135D01*
X21318565Y-135326605D01*
X21321390Y-135313015D01*
X21361272Y-135200794D01*
X21403616Y-135076056D01*
X21410736Y-135061617D01*
X21417372Y-135042946D01*
X21470647Y-134940128D01*
X21525093Y-134829724D01*
X21537393Y-134811314D01*
X21549235Y-134788462D01*
X21613432Y-134697514D01*
X21677687Y-134601351D01*
X21696266Y-134580164D01*
X21714522Y-134554303D01*
X21787080Y-134476611D01*
X21858781Y-134394853D01*
X21884514Y-134372285D01*
X21910154Y-134344832D01*
X21988492Y-134281099D01*
X22065279Y-134213759D01*
X22098775Y-134191377D01*
X22132487Y-134163951D01*
X22214081Y-134114332D01*
X22293652Y-134061165D01*
X22335223Y-134040664D01*
X22377379Y-134015029D01*
X22459827Y-133979216D01*
X22539984Y-133939688D01*
X22589632Y-133922834D01*
X22640269Y-133900840D01*
X22721354Y-133878120D01*
X22800065Y-133851402D01*
X22857460Y-133839985D01*
X22916258Y-133823511D01*
X22994006Y-133812825D01*
X23069447Y-133797819D01*
X23133942Y-133793591D01*
X23200207Y-133784484D01*
X23272893Y-133784484D01*
X23343516Y-133779855D01*
X23414138Y-133784484D01*
G37*
G36*
X32528693Y-133624641D02*
G01*
X32540926Y-133625712D01*
X32549604Y-133629758D01*
X32574185Y-133635774D01*
X32594592Y-133650737D01*
X32603271Y-133654784D01*
X32611953Y-133663466D01*
X32637117Y-133681917D01*
X32647477Y-133698990D01*
X32653892Y-133705405D01*
X32669113Y-133734646D01*
X32677600Y-133748631D01*
X33361641Y-135628016D01*
X33364129Y-135644184D01*
X33371264Y-135676367D01*
X33370473Y-135685402D01*
X33373512Y-135705145D01*
X33366093Y-135735459D01*
X33365024Y-135747684D01*
X33360979Y-135756357D01*
X33354963Y-135780944D01*
X33339998Y-135801353D01*
X33335952Y-135810031D01*
X33327270Y-135818712D01*
X33308820Y-135843876D01*
X33291744Y-135854237D01*
X33285331Y-135860651D01*
X33256096Y-135875869D01*
X33242106Y-135884359D01*
X31174782Y-136636803D01*
X31158614Y-136639291D01*
X31126430Y-136646427D01*
X31117394Y-136645636D01*
X31097654Y-136648675D01*
X31067340Y-136641256D01*
X31055113Y-136640187D01*
X31046438Y-136636141D01*
X31021855Y-136630126D01*
X31001445Y-136615161D01*
X30957092Y-136594479D01*
X30848630Y-136649446D01*
X30822609Y-136780261D01*
X30819375Y-136789785D01*
X30816550Y-136803384D01*
X30776640Y-136915678D01*
X30734322Y-137040345D01*
X30727206Y-137054773D01*
X30720568Y-137073453D01*
X30667277Y-137176299D01*
X30612848Y-137286672D01*
X30600550Y-137305077D01*
X30588705Y-137327937D01*
X30524481Y-137418921D01*
X30460252Y-137515047D01*
X30441680Y-137536223D01*
X30423418Y-137562096D01*
X30350828Y-137639820D01*
X30279158Y-137721545D01*
X30253435Y-137744102D01*
X30227786Y-137771567D01*
X30149418Y-137835323D01*
X30072660Y-137902639D01*
X30039175Y-137925012D01*
X30005453Y-137952448D01*
X29923838Y-138002079D01*
X29844285Y-138055235D01*
X29802721Y-138075731D01*
X29760561Y-138101370D01*
X29678098Y-138137188D01*
X29597958Y-138176709D01*
X29548321Y-138193558D01*
X29497671Y-138215559D01*
X29416563Y-138238284D01*
X29337874Y-138264996D01*
X29280494Y-138276409D01*
X29221682Y-138292888D01*
X29143914Y-138303576D01*
X29068492Y-138318579D01*
X29004011Y-138322805D01*
X28937733Y-138331915D01*
X28865031Y-138331915D01*
X28794424Y-138336543D01*
X28723817Y-138331915D01*
X28651115Y-138331915D01*
X28584837Y-138322805D01*
X28520355Y-138318579D01*
X28444930Y-138303576D01*
X28367166Y-138292888D01*
X28308355Y-138276410D01*
X28250973Y-138264996D01*
X28172278Y-138238282D01*
X28091177Y-138215559D01*
X28040529Y-138193559D01*
X27990889Y-138176709D01*
X27910741Y-138137185D01*
X27828287Y-138101370D01*
X27786130Y-138075734D01*
X27744562Y-138055235D01*
X27664998Y-138002072D01*
X27583395Y-137952448D01*
X27549676Y-137925016D01*
X27516187Y-137902639D01*
X27439415Y-137835312D01*
X27361062Y-137771567D01*
X27335416Y-137744107D01*
X27309689Y-137721545D01*
X27238002Y-137639802D01*
X27165430Y-137562096D01*
X27147171Y-137536229D01*
X27128595Y-137515047D01*
X27064348Y-137418895D01*
X27000143Y-137327937D01*
X26988301Y-137305083D01*
X26975999Y-137286672D01*
X26921550Y-137176259D01*
X26868280Y-137073453D01*
X26861644Y-137054781D01*
X26854525Y-137040345D01*
X26812184Y-136915615D01*
X26772298Y-136803384D01*
X26769473Y-136789793D01*
X26766238Y-136780261D01*
X26738161Y-136639108D01*
X26713984Y-136522761D01*
X26713441Y-136514834D01*
X26712655Y-136510879D01*
X26700814Y-136330239D01*
X26694424Y-136236811D01*
X26700814Y-136143389D01*
X26712655Y-135962742D01*
X26713441Y-135958785D01*
X26713984Y-135950861D01*
X26738156Y-135834535D01*
X26766238Y-135693360D01*
X26769474Y-135683825D01*
X26772298Y-135670238D01*
X26812177Y-135558027D01*
X26854524Y-135433279D01*
X26861644Y-135418840D01*
X26868280Y-135400169D01*
X26921555Y-135297351D01*
X26976001Y-135186947D01*
X26988301Y-135168537D01*
X27000143Y-135145685D01*
X27064340Y-135054737D01*
X27128595Y-134958574D01*
X27147174Y-134937387D01*
X27165430Y-134911526D01*
X27237988Y-134833834D01*
X27309689Y-134752076D01*
X27335422Y-134729508D01*
X27361062Y-134702055D01*
X27439400Y-134638322D01*
X27516187Y-134570982D01*
X27549683Y-134548600D01*
X27583395Y-134521174D01*
X27664989Y-134471555D01*
X27744560Y-134418388D01*
X27786131Y-134397887D01*
X27828287Y-134372252D01*
X27910735Y-134336439D01*
X27990892Y-134296911D01*
X28040540Y-134280057D01*
X28091177Y-134258063D01*
X28172262Y-134235343D01*
X28250973Y-134208625D01*
X28308368Y-134197208D01*
X28367166Y-134180734D01*
X28444914Y-134170048D01*
X28520355Y-134155042D01*
X28584850Y-134150814D01*
X28651115Y-134141707D01*
X28723801Y-134141707D01*
X28794424Y-134137078D01*
X28865046Y-134141707D01*
X28937733Y-134141707D01*
X29003997Y-134150814D01*
X29068492Y-134155042D01*
X29143930Y-134170047D01*
X29221682Y-134180734D01*
X29280482Y-134197209D01*
X29337874Y-134208625D01*
X29416580Y-134235342D01*
X29497671Y-134258063D01*
X29548311Y-134280059D01*
X29597958Y-134296912D01*
X29678115Y-134336440D01*
X29760561Y-134372252D01*
X29802712Y-134397884D01*
X29844285Y-134418386D01*
X29923852Y-134471551D01*
X30005453Y-134521174D01*
X30039170Y-134548605D01*
X30101258Y-134590091D01*
X30211932Y-134559138D01*
X30235062Y-134509533D01*
X30241077Y-134484956D01*
X30256037Y-134464551D01*
X30260087Y-134455868D01*
X30268774Y-134447180D01*
X30287220Y-134422024D01*
X30304290Y-134411665D01*
X30310708Y-134405248D01*
X30339960Y-134390020D01*
X30353934Y-134381541D01*
X30809095Y-134215876D01*
X32413561Y-133631898D01*
X32413564Y-133631897D01*
X32421258Y-133629097D01*
X32437407Y-133626611D01*
X32469609Y-133619472D01*
X32478649Y-133620262D01*
X32498386Y-133617225D01*
X32528693Y-133624641D01*
G37*
G36*
X82324969Y-126033235D02*
G01*
X82397656Y-126033235D01*
X82463920Y-126042342D01*
X82528415Y-126046570D01*
X82603853Y-126061575D01*
X82681605Y-126072262D01*
X82740405Y-126088737D01*
X82797797Y-126100153D01*
X82876503Y-126126870D01*
X82957594Y-126149591D01*
X83008234Y-126171587D01*
X83057881Y-126188440D01*
X83138038Y-126227968D01*
X83220484Y-126263780D01*
X83262635Y-126289412D01*
X83304208Y-126309914D01*
X83383777Y-126363080D01*
X83465376Y-126412702D01*
X83499091Y-126440131D01*
X83532583Y-126462510D01*
X83609356Y-126529838D01*
X83687709Y-126593583D01*
X83713353Y-126621041D01*
X83739081Y-126643604D01*
X83810766Y-126725345D01*
X83883341Y-126803054D01*
X83901600Y-126828921D01*
X83920175Y-126850102D01*
X83984411Y-126946238D01*
X84048628Y-127037213D01*
X84060472Y-127060072D01*
X84072769Y-127078475D01*
X84127194Y-127188839D01*
X84180491Y-127291697D01*
X84187129Y-127310376D01*
X84194246Y-127324807D01*
X84236571Y-127449492D01*
X84276473Y-127561766D01*
X84279298Y-127575361D01*
X84282532Y-127584888D01*
X84310590Y-127725951D01*
X84334787Y-127842389D01*
X84335329Y-127850321D01*
X84336115Y-127854270D01*
X84347932Y-128034568D01*
X84354347Y-128128339D01*
X84347932Y-128222117D01*
X84336115Y-128402407D01*
X84335329Y-128406354D01*
X84334787Y-128414289D01*
X84310586Y-128530749D01*
X84282532Y-128671789D01*
X84279298Y-128681313D01*
X84276473Y-128694912D01*
X84236563Y-128807206D01*
X84194245Y-128931873D01*
X84187129Y-128946301D01*
X84180491Y-128964981D01*
X84127200Y-129067827D01*
X84072771Y-129178200D01*
X84060473Y-129196605D01*
X84048628Y-129219465D01*
X83984404Y-129310449D01*
X83920175Y-129406575D01*
X83901603Y-129427751D01*
X83883341Y-129453624D01*
X83810751Y-129531348D01*
X83739081Y-129613073D01*
X83713358Y-129635630D01*
X83687709Y-129663095D01*
X83609341Y-129726851D01*
X83532583Y-129794167D01*
X83499098Y-129816540D01*
X83465376Y-129843976D01*
X83383761Y-129893607D01*
X83304208Y-129946763D01*
X83262644Y-129967259D01*
X83220484Y-129992898D01*
X83138021Y-130028716D01*
X83057881Y-130068237D01*
X83008244Y-130085086D01*
X82957594Y-130107087D01*
X82876486Y-130129812D01*
X82797797Y-130156524D01*
X82740417Y-130167937D01*
X82681605Y-130184416D01*
X82603837Y-130195104D01*
X82528415Y-130210107D01*
X82463934Y-130214333D01*
X82397656Y-130223443D01*
X82324954Y-130223443D01*
X82254347Y-130228071D01*
X82183740Y-130223443D01*
X82111038Y-130223443D01*
X82044760Y-130214333D01*
X81980278Y-130210107D01*
X81904853Y-130195104D01*
X81827089Y-130184416D01*
X81768278Y-130167938D01*
X81710896Y-130156524D01*
X81632201Y-130129810D01*
X81551100Y-130107087D01*
X81500452Y-130085087D01*
X81450812Y-130068237D01*
X81370664Y-130028713D01*
X81288210Y-129992898D01*
X81246053Y-129967262D01*
X81204485Y-129946763D01*
X81124921Y-129893600D01*
X81043318Y-129843976D01*
X81009599Y-129816544D01*
X80976110Y-129794167D01*
X80899338Y-129726840D01*
X80820985Y-129663095D01*
X80795339Y-129635635D01*
X80769612Y-129613073D01*
X80697925Y-129531330D01*
X80625353Y-129453624D01*
X80607094Y-129427757D01*
X80588518Y-129406575D01*
X80524271Y-129310423D01*
X80460066Y-129219465D01*
X80448224Y-129196611D01*
X80435922Y-129178200D01*
X80381472Y-129067785D01*
X80328203Y-128964981D01*
X80321567Y-128946309D01*
X80296070Y-128894606D01*
X80184747Y-128866075D01*
X80144821Y-128894030D01*
X80127317Y-128912316D01*
X80104147Y-128922510D01*
X80096310Y-128927999D01*
X80084458Y-128931174D01*
X80055891Y-128943745D01*
X80035919Y-128944180D01*
X80027159Y-128946528D01*
X79994235Y-128945090D01*
X79977873Y-128945447D01*
X78752540Y-128729387D01*
X78662096Y-128866194D01*
X78701454Y-128926658D01*
X78780026Y-129044250D01*
X78786364Y-129057103D01*
X78791976Y-129065724D01*
X78848566Y-129183236D01*
X78913091Y-129314078D01*
X78916708Y-129324733D01*
X78919837Y-129331231D01*
X78961090Y-129455478D01*
X79009797Y-129598966D01*
X79011389Y-129606974D01*
X79012696Y-129610908D01*
X79037207Y-129736768D01*
X79068491Y-129894040D01*
X79068822Y-129899103D01*
X79069030Y-129900167D01*
X79075605Y-130002590D01*
X79088168Y-130194250D01*
X79088168Y-131994250D01*
X79088042Y-131996170D01*
X79083442Y-132139600D01*
X79073677Y-132215334D01*
X79068491Y-132294460D01*
X79054233Y-132366137D01*
X79045501Y-132433865D01*
X79025873Y-132508713D01*
X79009797Y-132589534D01*
X78987300Y-132655806D01*
X78970751Y-132718917D01*
X78940582Y-132793435D01*
X78913091Y-132874422D01*
X78883509Y-132934406D01*
X78860163Y-132992074D01*
X78819221Y-133064769D01*
X78780026Y-133144250D01*
X78744595Y-133197275D01*
X78715555Y-133248840D01*
X78663853Y-133318115D01*
X78612881Y-133394401D01*
X78572865Y-133440029D01*
X78539299Y-133485006D01*
X78477088Y-133549243D01*
X78414514Y-133620596D01*
X78371200Y-133658580D01*
X78334285Y-133696699D01*
X78262026Y-133754323D01*
X78188319Y-133818963D01*
X78143002Y-133849242D01*
X78103886Y-133880437D01*
X78022275Y-133929909D01*
X77938168Y-133986108D01*
X77892060Y-134008845D01*
X77851892Y-134033196D01*
X77761920Y-134073023D01*
X77668340Y-134119173D01*
X77622579Y-134134706D01*
X77582418Y-134152485D01*
X77485237Y-134181327D01*
X77383452Y-134215879D01*
X77339092Y-134224702D01*
X77299906Y-134236333D01*
X77196910Y-134252984D01*
X77088378Y-134274573D01*
X77046331Y-134277328D01*
X77008996Y-134283365D01*
X76901790Y-134286802D01*
X76788168Y-134294250D01*
X76749198Y-134291695D01*
X76714452Y-134292810D01*
X76604773Y-134282229D01*
X76487958Y-134274573D01*
X76452696Y-134267559D01*
X76421131Y-134264514D01*
X76310869Y-134239347D01*
X76192884Y-134215879D01*
X76161770Y-134205317D01*
X76133829Y-134198940D01*
X76025019Y-134158896D01*
X75907996Y-134119173D01*
X75881289Y-134106002D01*
X75857269Y-134097163D01*
X75752006Y-134042247D01*
X75638168Y-133986108D01*
X75615974Y-133971278D01*
X75596000Y-133960858D01*
X75496400Y-133891382D01*
X75388017Y-133818963D01*
X75370272Y-133803401D01*
X75354300Y-133792260D01*
X75262470Y-133708861D01*
X75161822Y-133620596D01*
X75148288Y-133605164D01*
X75136150Y-133594140D01*
X75054165Y-133497837D01*
X74963455Y-133394401D01*
X74953772Y-133379910D01*
X74945123Y-133369750D01*
X74874892Y-133261857D01*
X74796310Y-133144250D01*
X74789970Y-133131394D01*
X74784357Y-133122771D01*
X74727745Y-133005214D01*
X74663245Y-132874422D01*
X74659629Y-132863769D01*
X74656498Y-132857268D01*
X74615208Y-132732910D01*
X74566539Y-132589534D01*
X74564947Y-132581530D01*
X74563639Y-132577591D01*
X74539089Y-132451537D01*
X74507845Y-132294460D01*
X74507513Y-132289402D01*
X74507305Y-132288332D01*
X74500701Y-132185469D01*
X74488168Y-131994250D01*
X74488168Y-130194250D01*
X74488293Y-130192330D01*
X74492893Y-130048899D01*
X74502659Y-129973148D01*
X74507845Y-129894040D01*
X74522099Y-129822378D01*
X74530834Y-129754634D01*
X74550466Y-129679766D01*
X74566539Y-129598966D01*
X74589029Y-129532710D01*
X74605584Y-129469582D01*
X74635761Y-129395043D01*
X74663245Y-129314078D01*
X74692818Y-129254109D01*
X74716172Y-129196425D01*
X74757125Y-129123707D01*
X74796310Y-129044250D01*
X74831730Y-128991239D01*
X74860780Y-128939659D01*
X74912497Y-128870362D01*
X74963455Y-128794099D01*
X75003458Y-128748483D01*
X75037036Y-128703493D01*
X75099266Y-128639235D01*
X75161822Y-128567904D01*
X75205121Y-128529931D01*
X75242050Y-128491800D01*
X75314332Y-128434156D01*
X75388017Y-128369537D01*
X75433319Y-128339267D01*
X75472449Y-128308062D01*
X75554086Y-128258573D01*
X75638168Y-128202392D01*
X75684261Y-128179661D01*
X75724443Y-128155303D01*
X75814443Y-128115462D01*
X75907996Y-128069327D01*
X75953742Y-128053798D01*
X75993917Y-128036014D01*
X76091128Y-128007162D01*
X76192884Y-127972621D01*
X76237230Y-127963799D01*
X76276429Y-127952166D01*
X76379456Y-127935509D01*
X76487958Y-127913927D01*
X76529992Y-127911171D01*
X76567339Y-127905134D01*
X76674576Y-127901695D01*
X76788168Y-127894250D01*
X76827126Y-127896803D01*
X76861883Y-127895689D01*
X76971591Y-127906272D01*
X77088378Y-127913927D01*
X77123630Y-127920939D01*
X77155204Y-127923985D01*
X77265493Y-127949157D01*
X77383452Y-127972621D01*
X77414559Y-127983180D01*
X77442506Y-127989559D01*
X77551352Y-128029615D01*
X77609413Y-128049324D01*
X77708951Y-127992092D01*
X77994937Y-126370182D01*
X77994938Y-126370177D01*
X77996360Y-126362115D01*
X78002282Y-126346884D01*
X78012201Y-126315428D01*
X78017406Y-126307994D01*
X78024643Y-126289384D01*
X78046213Y-126266852D01*
X78053262Y-126256785D01*
X78061113Y-126251287D01*
X78078607Y-126233014D01*
X78101761Y-126222825D01*
X78109610Y-126217330D01*
X78121476Y-126214150D01*
X78150033Y-126201585D01*
X78169999Y-126201149D01*
X78178764Y-126198801D01*
X78211703Y-126200239D01*
X78228051Y-126199883D01*
X79224251Y-126375540D01*
X80386560Y-126580486D01*
X80386562Y-126580486D01*
X80394628Y-126581909D01*
X80409863Y-126587833D01*
X80441314Y-126597750D01*
X80448746Y-126602954D01*
X80467359Y-126610192D01*
X80489895Y-126631765D01*
X80499957Y-126638811D01*
X80505451Y-126646657D01*
X80523729Y-126664155D01*
X80533920Y-126687317D01*
X80565054Y-126731781D01*
X80685761Y-126738372D01*
X80697905Y-126725369D01*
X80769612Y-126643604D01*
X80795345Y-126621036D01*
X80820985Y-126593583D01*
X80899323Y-126529850D01*
X80976110Y-126462510D01*
X81009606Y-126440128D01*
X81043318Y-126412702D01*
X81124912Y-126363083D01*
X81204483Y-126309916D01*
X81246054Y-126289415D01*
X81288210Y-126263780D01*
X81370658Y-126227967D01*
X81450815Y-126188439D01*
X81500463Y-126171585D01*
X81551100Y-126149591D01*
X81632185Y-126126871D01*
X81710896Y-126100153D01*
X81768291Y-126088736D01*
X81827089Y-126072262D01*
X81904837Y-126061576D01*
X81980278Y-126046570D01*
X82044773Y-126042342D01*
X82111038Y-126033235D01*
X82183724Y-126033235D01*
X82254347Y-126028606D01*
X82324969Y-126033235D01*
G37*
G36*
X62333793Y-125158515D02*
G01*
X62406480Y-125158515D01*
X62472744Y-125167622D01*
X62537239Y-125171850D01*
X62612677Y-125186855D01*
X62690429Y-125197542D01*
X62749229Y-125214017D01*
X62806621Y-125225433D01*
X62885327Y-125252150D01*
X62966418Y-125274871D01*
X63017058Y-125296867D01*
X63066705Y-125313720D01*
X63146862Y-125353248D01*
X63229308Y-125389060D01*
X63271459Y-125414692D01*
X63313032Y-125435194D01*
X63392601Y-125488360D01*
X63474200Y-125537982D01*
X63507915Y-125565411D01*
X63541407Y-125587790D01*
X63618180Y-125655118D01*
X63696533Y-125718863D01*
X63722177Y-125746321D01*
X63747905Y-125768884D01*
X63819590Y-125850625D01*
X63892165Y-125928334D01*
X63910424Y-125954201D01*
X63928999Y-125975382D01*
X63993235Y-126071518D01*
X64057452Y-126162493D01*
X64069296Y-126185352D01*
X64081593Y-126203755D01*
X64136018Y-126314119D01*
X64189315Y-126416977D01*
X64195953Y-126435656D01*
X64203070Y-126450087D01*
X64245395Y-126574772D01*
X64285297Y-126687046D01*
X64288122Y-126700641D01*
X64291356Y-126710168D01*
X64319414Y-126851231D01*
X64343611Y-126967669D01*
X64344153Y-126975601D01*
X64344939Y-126979550D01*
X64356756Y-127159848D01*
X64363171Y-127253619D01*
X64356756Y-127347397D01*
X64344939Y-127527687D01*
X64344153Y-127531634D01*
X64343611Y-127539569D01*
X64319410Y-127656029D01*
X64291356Y-127797069D01*
X64288122Y-127806593D01*
X64285297Y-127820192D01*
X64245387Y-127932486D01*
X64203069Y-128057153D01*
X64195953Y-128071581D01*
X64189315Y-128090261D01*
X64136024Y-128193107D01*
X64081595Y-128303480D01*
X64069297Y-128321885D01*
X64057452Y-128344745D01*
X63993228Y-128435729D01*
X63928999Y-128531855D01*
X63910427Y-128553031D01*
X63892165Y-128578904D01*
X63819575Y-128656628D01*
X63747905Y-128738353D01*
X63722182Y-128760910D01*
X63696533Y-128788375D01*
X63618165Y-128852131D01*
X63541407Y-128919447D01*
X63507922Y-128941820D01*
X63474200Y-128969256D01*
X63392585Y-129018887D01*
X63313032Y-129072043D01*
X63271468Y-129092539D01*
X63229308Y-129118178D01*
X63146845Y-129153996D01*
X63066705Y-129193517D01*
X63017068Y-129210366D01*
X62966418Y-129232367D01*
X62885310Y-129255092D01*
X62806621Y-129281804D01*
X62749241Y-129293217D01*
X62690429Y-129309696D01*
X62612661Y-129320384D01*
X62537239Y-129335387D01*
X62472758Y-129339613D01*
X62406480Y-129348723D01*
X62333778Y-129348723D01*
X62263171Y-129353351D01*
X62192564Y-129348723D01*
X62119862Y-129348723D01*
X62053584Y-129339613D01*
X61989102Y-129335387D01*
X61913677Y-129320384D01*
X61835913Y-129309696D01*
X61777102Y-129293218D01*
X61719720Y-129281804D01*
X61641025Y-129255090D01*
X61559924Y-129232367D01*
X61509276Y-129210367D01*
X61459636Y-129193517D01*
X61379488Y-129153993D01*
X61297034Y-129118178D01*
X61254877Y-129092542D01*
X61213309Y-129072043D01*
X61133745Y-129018880D01*
X61052142Y-128969256D01*
X61018423Y-128941824D01*
X60984934Y-128919447D01*
X60908162Y-128852120D01*
X60829809Y-128788375D01*
X60804163Y-128760915D01*
X60778436Y-128738353D01*
X60706746Y-128656607D01*
X60634177Y-128578904D01*
X60615919Y-128553039D01*
X60597338Y-128531851D01*
X60533077Y-128435678D01*
X60470692Y-128347298D01*
X60356587Y-128336061D01*
X60318654Y-128373994D01*
X60304592Y-128395040D01*
X60283549Y-128409100D01*
X60276780Y-128415870D01*
X60265654Y-128421057D01*
X60239708Y-128438395D01*
X60220115Y-128442292D01*
X60211898Y-128446124D01*
X60179226Y-128450425D01*
X60163171Y-128453619D01*
X59461007Y-128453619D01*
X59393949Y-128598770D01*
X59472176Y-128690660D01*
X59562887Y-128794096D01*
X59572569Y-128808587D01*
X59581218Y-128818746D01*
X59651436Y-128926619D01*
X59730032Y-129044247D01*
X59736372Y-129057104D01*
X59741984Y-129065725D01*
X59798574Y-129183237D01*
X59863097Y-129314075D01*
X59866714Y-129324730D01*
X59869843Y-129331228D01*
X59911097Y-129455478D01*
X59959803Y-129598963D01*
X59961395Y-129606971D01*
X59962702Y-129610905D01*
X59987213Y-129736765D01*
X60018497Y-129894037D01*
X60018828Y-129899100D01*
X60019036Y-129900164D01*
X60025611Y-130002587D01*
X60038174Y-130194247D01*
X60038174Y-131994247D01*
X60038048Y-131996167D01*
X60033448Y-132139597D01*
X60023683Y-132215331D01*
X60018497Y-132294457D01*
X60004239Y-132366134D01*
X59995507Y-132433862D01*
X59975879Y-132508710D01*
X59959803Y-132589531D01*
X59937306Y-132655803D01*
X59920757Y-132718914D01*
X59890588Y-132793432D01*
X59863097Y-132874419D01*
X59833515Y-132934403D01*
X59810169Y-132992071D01*
X59769227Y-133064766D01*
X59730032Y-133144247D01*
X59694601Y-133197272D01*
X59665561Y-133248837D01*
X59613859Y-133318112D01*
X59562887Y-133394398D01*
X59522871Y-133440026D01*
X59489305Y-133485003D01*
X59427094Y-133549240D01*
X59364520Y-133620593D01*
X59321206Y-133658577D01*
X59284291Y-133696696D01*
X59212032Y-133754320D01*
X59138325Y-133818960D01*
X59093008Y-133849239D01*
X59053892Y-133880434D01*
X58972281Y-133929906D01*
X58888174Y-133986105D01*
X58842066Y-134008842D01*
X58801898Y-134033193D01*
X58711926Y-134073020D01*
X58618346Y-134119170D01*
X58572585Y-134134703D01*
X58532424Y-134152482D01*
X58435243Y-134181324D01*
X58333458Y-134215876D01*
X58289098Y-134224699D01*
X58249912Y-134236330D01*
X58146916Y-134252981D01*
X58038384Y-134274570D01*
X57996337Y-134277325D01*
X57959002Y-134283362D01*
X57851796Y-134286799D01*
X57738174Y-134294247D01*
X57699204Y-134291692D01*
X57664458Y-134292807D01*
X57554779Y-134282226D01*
X57437964Y-134274570D01*
X57402702Y-134267556D01*
X57371137Y-134264511D01*
X57260875Y-134239344D01*
X57142890Y-134215876D01*
X57111776Y-134205314D01*
X57083835Y-134198937D01*
X56975025Y-134158893D01*
X56858002Y-134119170D01*
X56831295Y-134105999D01*
X56807275Y-134097160D01*
X56702012Y-134042244D01*
X56588174Y-133986105D01*
X56565980Y-133971275D01*
X56546006Y-133960855D01*
X56446406Y-133891379D01*
X56338023Y-133818960D01*
X56320278Y-133803398D01*
X56304306Y-133792257D01*
X56212476Y-133708858D01*
X56111828Y-133620593D01*
X56098294Y-133605161D01*
X56086156Y-133594137D01*
X56004171Y-133497834D01*
X55913461Y-133394398D01*
X55903778Y-133379907D01*
X55895129Y-133369747D01*
X55824898Y-133261854D01*
X55746316Y-133144247D01*
X55739976Y-133131391D01*
X55734363Y-133122768D01*
X55677751Y-133005211D01*
X55613251Y-132874419D01*
X55609635Y-132863766D01*
X55606504Y-132857265D01*
X55565214Y-132732907D01*
X55516545Y-132589531D01*
X55514953Y-132581527D01*
X55513645Y-132577588D01*
X55489095Y-132451534D01*
X55457851Y-132294457D01*
X55457519Y-132289399D01*
X55457311Y-132288329D01*
X55450707Y-132185466D01*
X55438174Y-131994247D01*
X55438174Y-130194247D01*
X55438299Y-130192327D01*
X55442899Y-130048896D01*
X55452665Y-129973145D01*
X55457851Y-129894037D01*
X55472105Y-129822375D01*
X55480840Y-129754631D01*
X55500472Y-129679763D01*
X55516545Y-129598963D01*
X55539035Y-129532707D01*
X55555590Y-129469579D01*
X55585767Y-129395040D01*
X55613251Y-129314075D01*
X55642824Y-129254106D01*
X55666178Y-129196422D01*
X55707131Y-129123704D01*
X55746316Y-129044247D01*
X55781736Y-128991236D01*
X55810786Y-128939656D01*
X55862503Y-128870359D01*
X55913461Y-128794096D01*
X55953464Y-128748480D01*
X55987042Y-128703490D01*
X56049272Y-128639232D01*
X56111828Y-128567901D01*
X56155127Y-128529928D01*
X56192056Y-128491797D01*
X56264338Y-128434153D01*
X56338023Y-128369534D01*
X56383325Y-128339264D01*
X56422455Y-128308059D01*
X56504092Y-128258570D01*
X56588174Y-128202389D01*
X56634267Y-128179658D01*
X56674449Y-128155300D01*
X56764449Y-128115459D01*
X56858002Y-128069324D01*
X56903748Y-128053795D01*
X56943923Y-128036011D01*
X57041134Y-128007159D01*
X57142890Y-127972618D01*
X57187236Y-127963796D01*
X57226435Y-127952163D01*
X57329460Y-127935506D01*
X57437964Y-127913924D01*
X57479999Y-127911168D01*
X57517346Y-127905131D01*
X57624583Y-127901692D01*
X57695119Y-127897068D01*
X57763171Y-127826799D01*
X57763171Y-126261815D01*
X57763171Y-126253619D01*
X57766361Y-126237577D01*
X57770665Y-126204891D01*
X57774498Y-126196668D01*
X57778395Y-126177082D01*
X57795728Y-126151140D01*
X57800919Y-126140010D01*
X57807691Y-126133237D01*
X57821750Y-126112198D01*
X57842789Y-126098139D01*
X57849562Y-126091367D01*
X57860692Y-126086176D01*
X57886634Y-126068843D01*
X57906220Y-126064946D01*
X57914443Y-126061113D01*
X57947131Y-126056809D01*
X57963171Y-126053619D01*
X60163171Y-126053619D01*
X60179214Y-126056810D01*
X60211898Y-126061113D01*
X60220119Y-126064946D01*
X60239708Y-126068843D01*
X60265651Y-126086178D01*
X60276779Y-126091367D01*
X60283549Y-126098137D01*
X60304592Y-126112198D01*
X60318651Y-126133238D01*
X60356590Y-126171177D01*
X60470693Y-126159938D01*
X60533086Y-126071546D01*
X60597342Y-125975382D01*
X60615921Y-125954195D01*
X60634177Y-125928334D01*
X60706735Y-125850642D01*
X60778436Y-125768884D01*
X60804169Y-125746316D01*
X60829809Y-125718863D01*
X60908147Y-125655130D01*
X60984934Y-125587790D01*
X61018430Y-125565408D01*
X61052142Y-125537982D01*
X61133736Y-125488363D01*
X61213307Y-125435196D01*
X61254878Y-125414695D01*
X61297034Y-125389060D01*
X61379482Y-125353247D01*
X61459639Y-125313719D01*
X61509287Y-125296865D01*
X61559924Y-125274871D01*
X61641009Y-125252151D01*
X61719720Y-125225433D01*
X61777115Y-125214016D01*
X61835913Y-125197542D01*
X61913661Y-125186856D01*
X61989102Y-125171850D01*
X62053597Y-125167622D01*
X62119862Y-125158515D01*
X62192548Y-125158515D01*
X62263171Y-125153886D01*
X62333793Y-125158515D01*
G37*
G36*
X22398167Y-127513798D02*
G01*
X22470854Y-127513798D01*
X22537118Y-127522905D01*
X22601613Y-127527133D01*
X22677051Y-127542138D01*
X22754803Y-127552825D01*
X22813603Y-127569300D01*
X22870995Y-127580716D01*
X22949701Y-127607433D01*
X23030792Y-127630154D01*
X23081432Y-127652150D01*
X23131079Y-127669003D01*
X23211236Y-127708531D01*
X23293682Y-127744343D01*
X23335833Y-127769975D01*
X23377406Y-127790477D01*
X23456975Y-127843643D01*
X23538574Y-127893265D01*
X23572289Y-127920694D01*
X23605781Y-127943073D01*
X23682554Y-128010401D01*
X23760907Y-128074146D01*
X23786551Y-128101604D01*
X23812279Y-128124167D01*
X23883964Y-128205908D01*
X23956539Y-128283617D01*
X23974798Y-128309484D01*
X23993373Y-128330665D01*
X24057609Y-128426801D01*
X24121826Y-128517776D01*
X24133670Y-128540635D01*
X24145967Y-128559038D01*
X24200392Y-128669402D01*
X24253689Y-128772260D01*
X24260327Y-128790939D01*
X24267444Y-128805370D01*
X24309769Y-128930055D01*
X24349671Y-129042329D01*
X24352496Y-129055924D01*
X24355730Y-129065451D01*
X24383786Y-129206502D01*
X24386321Y-129218703D01*
X24542136Y-129255862D01*
X24594620Y-129188870D01*
X24595598Y-129187253D01*
X24792952Y-128935350D01*
X25019230Y-128709072D01*
X25271133Y-128511718D01*
X25544989Y-128346167D01*
X25836802Y-128214832D01*
X26142318Y-128119629D01*
X26457083Y-128061946D01*
X26776505Y-128042625D01*
X27095927Y-128061946D01*
X27410692Y-128119629D01*
X27716208Y-128214832D01*
X28008021Y-128346167D01*
X28281877Y-128511718D01*
X28533780Y-128709072D01*
X28760058Y-128935350D01*
X28957412Y-129187253D01*
X29122963Y-129461109D01*
X29254298Y-129752922D01*
X29349501Y-130058438D01*
X29407184Y-130373203D01*
X29426505Y-130692625D01*
X29407184Y-131012047D01*
X29349501Y-131326812D01*
X29254298Y-131632328D01*
X29122963Y-131924141D01*
X28957412Y-132197997D01*
X28760058Y-132449900D01*
X28533780Y-132676178D01*
X28281877Y-132873532D01*
X28008021Y-133039083D01*
X27716208Y-133170418D01*
X27410692Y-133265621D01*
X27095927Y-133323304D01*
X26776505Y-133342625D01*
X26457083Y-133323304D01*
X26142318Y-133265621D01*
X25836802Y-133170418D01*
X25544989Y-133039083D01*
X25271133Y-132873532D01*
X25019230Y-132676178D01*
X24792952Y-132449900D01*
X24595598Y-132197997D01*
X24430047Y-131924141D01*
X24298712Y-131632328D01*
X24203509Y-131326812D01*
X24145826Y-131012047D01*
X24145711Y-131010157D01*
X24133177Y-130941757D01*
X23982058Y-130900039D01*
X23974806Y-130908307D01*
X23956539Y-130934187D01*
X23883941Y-131011920D01*
X23812278Y-131093637D01*
X23786556Y-131116194D01*
X23760907Y-131143658D01*
X23682539Y-131207414D01*
X23605781Y-131274730D01*
X23572296Y-131297103D01*
X23538574Y-131324539D01*
X23456959Y-131374170D01*
X23377406Y-131427326D01*
X23335842Y-131447822D01*
X23293682Y-131473461D01*
X23211219Y-131509279D01*
X23131077Y-131548801D01*
X23081441Y-131565649D01*
X23030792Y-131587650D01*
X22949676Y-131610377D01*
X22848966Y-131644564D01*
X22811396Y-131766723D01*
X22824695Y-131784334D01*
X22875909Y-131846738D01*
X22885812Y-131865265D01*
X22895139Y-131877616D01*
X22932242Y-131952129D01*
X22972940Y-132028269D01*
X22977281Y-132042579D01*
X22981462Y-132050976D01*
X23006161Y-132137784D01*
X23032691Y-132225242D01*
X23033562Y-132234090D01*
X23034460Y-132237245D01*
X23043799Y-132338031D01*
X23052866Y-132430087D01*
X23043798Y-132522150D01*
X23034460Y-132622928D01*
X23033562Y-132626081D01*
X23032691Y-132634932D01*
X23006156Y-132722404D01*
X22981462Y-132809197D01*
X22977281Y-132817591D01*
X22972940Y-132831905D01*
X22932230Y-132908066D01*
X22895139Y-132982556D01*
X22885815Y-132994902D01*
X22875909Y-133013436D01*
X22824695Y-133075839D01*
X22778430Y-133137106D01*
X22762490Y-133151636D01*
X22745328Y-133172549D01*
X22687401Y-133220087D01*
X22635308Y-133267577D01*
X22611800Y-133282132D01*
X22586215Y-133303130D01*
X22525323Y-133335677D01*
X22470652Y-133369529D01*
X22439187Y-133381718D01*
X22404684Y-133400161D01*
X22344297Y-133418479D01*
X22290067Y-133439488D01*
X22250909Y-133446807D01*
X22207711Y-133459912D01*
X22150851Y-133465512D01*
X22138366Y-133467846D01*
X22116763Y-133476215D01*
X22071523Y-133504226D01*
X22040402Y-133516282D01*
X22006187Y-133534571D01*
X21946310Y-133552734D01*
X21892660Y-133573519D01*
X21853919Y-133580760D01*
X21811090Y-133593753D01*
X21754714Y-133599305D01*
X21704105Y-133608766D01*
X21658658Y-133608766D01*
X21608196Y-133613736D01*
X21557734Y-133608766D01*
X21512287Y-133608766D01*
X21461676Y-133599305D01*
X21405302Y-133593753D01*
X21362474Y-133580761D01*
X21323731Y-133573519D01*
X21270074Y-133552732D01*
X21210205Y-133534571D01*
X21175995Y-133516285D01*
X21144864Y-133504225D01*
X21090767Y-133470729D01*
X21030403Y-133438464D01*
X21005041Y-133417650D01*
X20981781Y-133403248D01*
X20930238Y-133356261D01*
X20872805Y-133309127D01*
X20855787Y-133288391D01*
X20840023Y-133274020D01*
X20794259Y-133213419D01*
X20743468Y-133151529D01*
X20733644Y-133133150D01*
X20724425Y-133120942D01*
X20687753Y-133047296D01*
X20647361Y-132971727D01*
X20643052Y-132957522D01*
X20638923Y-132949230D01*
X20614526Y-132863487D01*
X20588179Y-132776630D01*
X20587313Y-132767843D01*
X20586430Y-132764738D01*
X20577240Y-132665567D01*
X20568196Y-132573736D01*
X20577239Y-132481912D01*
X20586430Y-132382733D01*
X20587313Y-132379626D01*
X20588179Y-132370842D01*
X20614522Y-132283999D01*
X20638923Y-132198241D01*
X20643052Y-132189947D01*
X20647361Y-132175745D01*
X20687746Y-132100189D01*
X20724425Y-132026529D01*
X20733646Y-132014317D01*
X20743468Y-131995943D01*
X20794250Y-131934064D01*
X20840023Y-131873451D01*
X20855790Y-131859076D01*
X20872805Y-131838345D01*
X20930227Y-131791219D01*
X20981781Y-131744223D01*
X21005046Y-131729817D01*
X21030403Y-131709008D01*
X21090753Y-131676749D01*
X21144862Y-131643247D01*
X21176001Y-131631183D01*
X21210205Y-131612901D01*
X21270063Y-131594743D01*
X21280012Y-131590889D01*
X21296636Y-131439991D01*
X21198107Y-131374155D01*
X21116516Y-131324539D01*
X21082801Y-131297109D01*
X21020709Y-131255621D01*
X20910034Y-131286575D01*
X20892885Y-131323351D01*
X20886868Y-131347941D01*
X20871901Y-131368352D01*
X20867856Y-131377029D01*
X20859175Y-131385709D01*
X20840725Y-131410873D01*
X20823649Y-131421234D01*
X20817236Y-131427648D01*
X20788001Y-131442866D01*
X20774011Y-131451356D01*
X18706687Y-132203800D01*
X18690519Y-132206288D01*
X18658335Y-132213424D01*
X18649299Y-132212633D01*
X18629559Y-132215672D01*
X18599245Y-132208253D01*
X18587018Y-132207184D01*
X18578343Y-132203138D01*
X18553760Y-132197123D01*
X18533350Y-132182158D01*
X18524673Y-132178112D01*
X18515991Y-132169430D01*
X18490828Y-132150980D01*
X18480467Y-132133906D01*
X18474052Y-132127491D01*
X18458827Y-132098245D01*
X18450345Y-132084266D01*
X17766304Y-130204881D01*
X17763817Y-130188723D01*
X17756680Y-130156529D01*
X17757470Y-130147489D01*
X17754433Y-130127752D01*
X17761849Y-130097444D01*
X17762920Y-130085212D01*
X17766966Y-130076533D01*
X17772982Y-130051953D01*
X17787942Y-130031548D01*
X17791992Y-130022865D01*
X17800679Y-130014177D01*
X17819125Y-129989021D01*
X17836195Y-129978662D01*
X17842613Y-129972245D01*
X17871865Y-129957017D01*
X17885839Y-129948538D01*
X18314130Y-129792653D01*
X19945466Y-129198895D01*
X19945469Y-129198894D01*
X19953163Y-129196094D01*
X19969312Y-129193608D01*
X20001514Y-129186469D01*
X20010554Y-129187259D01*
X20030291Y-129184222D01*
X20060594Y-129191637D01*
X20072830Y-129192708D01*
X20081511Y-129196756D01*
X20106090Y-129202771D01*
X20126495Y-129217732D01*
X20167716Y-129236954D01*
X20276177Y-129181989D01*
X20299360Y-129065449D01*
X20302594Y-129055919D01*
X20305419Y-129042329D01*
X20345301Y-128930108D01*
X20387645Y-128805370D01*
X20394765Y-128790931D01*
X20401401Y-128772260D01*
X20454676Y-128669442D01*
X20509122Y-128559038D01*
X20521422Y-128540628D01*
X20533264Y-128517776D01*
X20597461Y-128426828D01*
X20661716Y-128330665D01*
X20680295Y-128309478D01*
X20698551Y-128283617D01*
X20771109Y-128205925D01*
X20842810Y-128124167D01*
X20868543Y-128101599D01*
X20894183Y-128074146D01*
X20972521Y-128010413D01*
X21049308Y-127943073D01*
X21082804Y-127920691D01*
X21116516Y-127893265D01*
X21198110Y-127843646D01*
X21277681Y-127790479D01*
X21319252Y-127769978D01*
X21361408Y-127744343D01*
X21443856Y-127708530D01*
X21524013Y-127669002D01*
X21573661Y-127652148D01*
X21624298Y-127630154D01*
X21705383Y-127607434D01*
X21784094Y-127580716D01*
X21841489Y-127569299D01*
X21900287Y-127552825D01*
X21978035Y-127542139D01*
X22053476Y-127527133D01*
X22117971Y-127522905D01*
X22184236Y-127513798D01*
X22256922Y-127513798D01*
X22327545Y-127509169D01*
X22398167Y-127513798D01*
G37*
G36*
X86866982Y-129068053D02*
G01*
X86939669Y-129068053D01*
X87005933Y-129077160D01*
X87070428Y-129081388D01*
X87145866Y-129096393D01*
X87223618Y-129107080D01*
X87282418Y-129123555D01*
X87339810Y-129134971D01*
X87418516Y-129161688D01*
X87499607Y-129184409D01*
X87550247Y-129206405D01*
X87599894Y-129223258D01*
X87680051Y-129262786D01*
X87762497Y-129298598D01*
X87804648Y-129324230D01*
X87846221Y-129344732D01*
X87925790Y-129397898D01*
X88007389Y-129447520D01*
X88041104Y-129474949D01*
X88074596Y-129497328D01*
X88151369Y-129564656D01*
X88229722Y-129628401D01*
X88255366Y-129655859D01*
X88281094Y-129678422D01*
X88352779Y-129760163D01*
X88425354Y-129837872D01*
X88443613Y-129863739D01*
X88462188Y-129884920D01*
X88526424Y-129981056D01*
X88590641Y-130072031D01*
X88602485Y-130094890D01*
X88614782Y-130113293D01*
X88669215Y-130223673D01*
X88722504Y-130326515D01*
X88729140Y-130345188D01*
X88751472Y-130390472D01*
X88862793Y-130419003D01*
X88907630Y-130387607D01*
X88925126Y-130369332D01*
X88948283Y-130359142D01*
X88956130Y-130353648D01*
X88967994Y-130350469D01*
X88996552Y-130337903D01*
X89016518Y-130337467D01*
X89025283Y-130335119D01*
X89058222Y-130336557D01*
X89074570Y-130336201D01*
X89960112Y-130492346D01*
X91233079Y-130716804D01*
X91233081Y-130716804D01*
X91241147Y-130718227D01*
X91256382Y-130724151D01*
X91287833Y-130734068D01*
X91295265Y-130739272D01*
X91313878Y-130746510D01*
X91336414Y-130768083D01*
X91346476Y-130775129D01*
X91351970Y-130782975D01*
X91370248Y-130800473D01*
X91380439Y-130823633D01*
X91385931Y-130831477D01*
X91389108Y-130843336D01*
X91401677Y-130871900D01*
X91402112Y-130891870D01*
X91404460Y-130900631D01*
X91403022Y-130933554D01*
X91403379Y-130949918D01*
X91056083Y-132919533D01*
X91050153Y-132934781D01*
X91040241Y-132966219D01*
X91035039Y-132973648D01*
X91027800Y-132992264D01*
X91006223Y-133014802D01*
X90999180Y-133024862D01*
X90991334Y-133030355D01*
X90973836Y-133048634D01*
X90950674Y-133058825D01*
X90942832Y-133064317D01*
X90930974Y-133067494D01*
X90902410Y-133080063D01*
X90882438Y-133080498D01*
X90873678Y-133082846D01*
X90840754Y-133081408D01*
X90824392Y-133081765D01*
X88657815Y-132699739D01*
X88642570Y-132693810D01*
X88611128Y-132683897D01*
X88603697Y-132678694D01*
X88585084Y-132671456D01*
X88562545Y-132649879D01*
X88552487Y-132642837D01*
X88546994Y-132634993D01*
X88528714Y-132617493D01*
X88518520Y-132594326D01*
X88490452Y-132554240D01*
X88370041Y-132547666D01*
X88352775Y-132566154D01*
X88281094Y-132647892D01*
X88255367Y-132670453D01*
X88229722Y-132697913D01*
X88151360Y-132761665D01*
X88074596Y-132828985D01*
X88041111Y-132851358D01*
X88007389Y-132878794D01*
X87925774Y-132928425D01*
X87846221Y-132981581D01*
X87804657Y-133002077D01*
X87762497Y-133027716D01*
X87680034Y-133063534D01*
X87599894Y-133103055D01*
X87550257Y-133119904D01*
X87499607Y-133141905D01*
X87418499Y-133164630D01*
X87339810Y-133191342D01*
X87282430Y-133202755D01*
X87223618Y-133219234D01*
X87145850Y-133229922D01*
X87070428Y-133244925D01*
X87005947Y-133249151D01*
X86939669Y-133258261D01*
X86866967Y-133258261D01*
X86796360Y-133262889D01*
X86725753Y-133258261D01*
X86653051Y-133258261D01*
X86586773Y-133249151D01*
X86522291Y-133244925D01*
X86446866Y-133229922D01*
X86369102Y-133219234D01*
X86310291Y-133202756D01*
X86252909Y-133191342D01*
X86174214Y-133164628D01*
X86093113Y-133141905D01*
X86042465Y-133119905D01*
X85992825Y-133103055D01*
X85912677Y-133063531D01*
X85830223Y-133027716D01*
X85788066Y-133002080D01*
X85746498Y-132981581D01*
X85666934Y-132928418D01*
X85585331Y-132878794D01*
X85551612Y-132851362D01*
X85518123Y-132828985D01*
X85441351Y-132761658D01*
X85362998Y-132697913D01*
X85337352Y-132670453D01*
X85311625Y-132647891D01*
X85239938Y-132566148D01*
X85167366Y-132488442D01*
X85149107Y-132462575D01*
X85130531Y-132441393D01*
X85066284Y-132345241D01*
X85002079Y-132254283D01*
X84990237Y-132231429D01*
X84977935Y-132213018D01*
X84923486Y-132102605D01*
X84870216Y-131999799D01*
X84863580Y-131981127D01*
X84856461Y-131966691D01*
X84814120Y-131841961D01*
X84774234Y-131729730D01*
X84771409Y-131716139D01*
X84768174Y-131706607D01*
X84740097Y-131565454D01*
X84715920Y-131449107D01*
X84715377Y-131441180D01*
X84714591Y-131437225D01*
X84702750Y-131256585D01*
X84696360Y-131163157D01*
X84702750Y-131069735D01*
X84714591Y-130889088D01*
X84715377Y-130885131D01*
X84715920Y-130877207D01*
X84740092Y-130760881D01*
X84768174Y-130619706D01*
X84771410Y-130610171D01*
X84774234Y-130596584D01*
X84814113Y-130484373D01*
X84856460Y-130359625D01*
X84863580Y-130345186D01*
X84870216Y-130326515D01*
X84923491Y-130223697D01*
X84977937Y-130113293D01*
X84990237Y-130094883D01*
X85002079Y-130072031D01*
X85066276Y-129981083D01*
X85130531Y-129884920D01*
X85149110Y-129863733D01*
X85167366Y-129837872D01*
X85239924Y-129760180D01*
X85311625Y-129678422D01*
X85337358Y-129655854D01*
X85362998Y-129628401D01*
X85441336Y-129564668D01*
X85518123Y-129497328D01*
X85551619Y-129474946D01*
X85585331Y-129447520D01*
X85666925Y-129397901D01*
X85746496Y-129344734D01*
X85788067Y-129324233D01*
X85830223Y-129298598D01*
X85912671Y-129262785D01*
X85992828Y-129223257D01*
X86042476Y-129206403D01*
X86093113Y-129184409D01*
X86174198Y-129161689D01*
X86252909Y-129134971D01*
X86310304Y-129123554D01*
X86369102Y-129107080D01*
X86446850Y-129096394D01*
X86522291Y-129081388D01*
X86586786Y-129077160D01*
X86653051Y-129068053D01*
X86725737Y-129068053D01*
X86796360Y-129063424D01*
X86866982Y-129068053D01*
G37*
G36*
X47797582Y-129065509D02*
G01*
X47870269Y-129065509D01*
X47936533Y-129074616D01*
X48001028Y-129078844D01*
X48076466Y-129093849D01*
X48154218Y-129104536D01*
X48213018Y-129121011D01*
X48270410Y-129132427D01*
X48349116Y-129159144D01*
X48430207Y-129181865D01*
X48480847Y-129203861D01*
X48530494Y-129220714D01*
X48610651Y-129260242D01*
X48693097Y-129296054D01*
X48735248Y-129321686D01*
X48776821Y-129342188D01*
X48856390Y-129395354D01*
X48937989Y-129444976D01*
X48971704Y-129472405D01*
X49005196Y-129494784D01*
X49081970Y-129562113D01*
X49160322Y-129625857D01*
X49185965Y-129653314D01*
X49211693Y-129675877D01*
X49283364Y-129757603D01*
X49290448Y-129765188D01*
X49411450Y-129758583D01*
X49445652Y-129709737D01*
X49455842Y-129686580D01*
X49474119Y-129669083D01*
X49479614Y-129661236D01*
X49489676Y-129654190D01*
X49512212Y-129632617D01*
X49530822Y-129625379D01*
X49538256Y-129620175D01*
X49569709Y-129610257D01*
X49584943Y-129604334D01*
X49910639Y-129546905D01*
X51743451Y-129223730D01*
X51743456Y-129223729D01*
X51751520Y-129222308D01*
X51767858Y-129222664D01*
X51800806Y-129221226D01*
X51809570Y-129223574D01*
X51829538Y-129224010D01*
X51858096Y-129236576D01*
X51869960Y-129239755D01*
X51877806Y-129245249D01*
X51900964Y-129255439D01*
X51918459Y-129273714D01*
X51926308Y-129279210D01*
X51933354Y-129289273D01*
X51954928Y-129311809D01*
X51962166Y-129330422D01*
X51967369Y-129337853D01*
X51977281Y-129369292D01*
X51983211Y-129384540D01*
X52330507Y-131354155D01*
X52330150Y-131370508D01*
X52331588Y-131403441D01*
X52329240Y-131412201D01*
X52328805Y-131432173D01*
X52316235Y-131460738D01*
X52313059Y-131472595D01*
X52307568Y-131480436D01*
X52297376Y-131503600D01*
X52279096Y-131521099D01*
X52273604Y-131528943D01*
X52263545Y-131535985D01*
X52241006Y-131557563D01*
X52222390Y-131564802D01*
X52214961Y-131570004D01*
X52183526Y-131579915D01*
X52168275Y-131585846D01*
X50001698Y-131967872D01*
X49985343Y-131967515D01*
X49952411Y-131968953D01*
X49943650Y-131966605D01*
X49923680Y-131966170D01*
X49895114Y-131953600D01*
X49883259Y-131950424D01*
X49875417Y-131944933D01*
X49852254Y-131934741D01*
X49834755Y-131916461D01*
X49799722Y-131891932D01*
X49688400Y-131920463D01*
X49659743Y-131978573D01*
X49653104Y-131997255D01*
X49599810Y-132100107D01*
X49545384Y-132210474D01*
X49533086Y-132228879D01*
X49521241Y-132251739D01*
X49457017Y-132342723D01*
X49392788Y-132438849D01*
X49374216Y-132460025D01*
X49355954Y-132485898D01*
X49283364Y-132563622D01*
X49211694Y-132645347D01*
X49185971Y-132667904D01*
X49160322Y-132695369D01*
X49081954Y-132759125D01*
X49005196Y-132826441D01*
X48971711Y-132848814D01*
X48937989Y-132876250D01*
X48856374Y-132925881D01*
X48776821Y-132979037D01*
X48735257Y-132999533D01*
X48693097Y-133025172D01*
X48610634Y-133060990D01*
X48530494Y-133100511D01*
X48480857Y-133117360D01*
X48430207Y-133139361D01*
X48349099Y-133162086D01*
X48270410Y-133188798D01*
X48213030Y-133200211D01*
X48154218Y-133216690D01*
X48076450Y-133227378D01*
X48001028Y-133242381D01*
X47936547Y-133246607D01*
X47870269Y-133255717D01*
X47797567Y-133255717D01*
X47726960Y-133260345D01*
X47656353Y-133255717D01*
X47583651Y-133255717D01*
X47517373Y-133246607D01*
X47452891Y-133242381D01*
X47377466Y-133227378D01*
X47299702Y-133216690D01*
X47240891Y-133200212D01*
X47183509Y-133188798D01*
X47104814Y-133162084D01*
X47023713Y-133139361D01*
X46973065Y-133117361D01*
X46923425Y-133100511D01*
X46843277Y-133060987D01*
X46760823Y-133025172D01*
X46718666Y-132999536D01*
X46677098Y-132979037D01*
X46597534Y-132925874D01*
X46515931Y-132876250D01*
X46482212Y-132848818D01*
X46448723Y-132826441D01*
X46371951Y-132759114D01*
X46293598Y-132695369D01*
X46267952Y-132667909D01*
X46242225Y-132645347D01*
X46170538Y-132563604D01*
X46097966Y-132485898D01*
X46079707Y-132460031D01*
X46061131Y-132438849D01*
X45996884Y-132342697D01*
X45932679Y-132251739D01*
X45920837Y-132228885D01*
X45908535Y-132210474D01*
X45854086Y-132100061D01*
X45800816Y-131997255D01*
X45794180Y-131978583D01*
X45787061Y-131964147D01*
X45744720Y-131839417D01*
X45704834Y-131727186D01*
X45702009Y-131713595D01*
X45698774Y-131704063D01*
X45670697Y-131562910D01*
X45646520Y-131446563D01*
X45645977Y-131438636D01*
X45645191Y-131434681D01*
X45633350Y-131254041D01*
X45626960Y-131160613D01*
X45633350Y-131067191D01*
X45645191Y-130886544D01*
X45645977Y-130882587D01*
X45646520Y-130874663D01*
X45670692Y-130758337D01*
X45698774Y-130617162D01*
X45702010Y-130607627D01*
X45704834Y-130594040D01*
X45744713Y-130481829D01*
X45787060Y-130357081D01*
X45794180Y-130342642D01*
X45800816Y-130323971D01*
X45854091Y-130221153D01*
X45908537Y-130110749D01*
X45920837Y-130092339D01*
X45932679Y-130069487D01*
X45996876Y-129978539D01*
X46061131Y-129882376D01*
X46079710Y-129861189D01*
X46097966Y-129835328D01*
X46170524Y-129757636D01*
X46242225Y-129675878D01*
X46267958Y-129653310D01*
X46293598Y-129625857D01*
X46371936Y-129562124D01*
X46448723Y-129494784D01*
X46482219Y-129472402D01*
X46515931Y-129444976D01*
X46597525Y-129395357D01*
X46677096Y-129342190D01*
X46718667Y-129321689D01*
X46760823Y-129296054D01*
X46843271Y-129260241D01*
X46923428Y-129220713D01*
X46973076Y-129203859D01*
X47023713Y-129181865D01*
X47104798Y-129159145D01*
X47183509Y-129132427D01*
X47240904Y-129121010D01*
X47299702Y-129104536D01*
X47377450Y-129093850D01*
X47452891Y-129078844D01*
X47517386Y-129074616D01*
X47583651Y-129065509D01*
X47656337Y-129065509D01*
X47726960Y-129060880D01*
X47797582Y-129065509D01*
G37*
G36*
X42491517Y-127767173D02*
G01*
X42564204Y-127767173D01*
X42630468Y-127776280D01*
X42694963Y-127780508D01*
X42770401Y-127795513D01*
X42848153Y-127806200D01*
X42906953Y-127822675D01*
X42964345Y-127834091D01*
X43043051Y-127860808D01*
X43124142Y-127883529D01*
X43174782Y-127905525D01*
X43224429Y-127922378D01*
X43304586Y-127961906D01*
X43387032Y-127997718D01*
X43429183Y-128023350D01*
X43470756Y-128043852D01*
X43550325Y-128097018D01*
X43631924Y-128146640D01*
X43665639Y-128174069D01*
X43699131Y-128196448D01*
X43775904Y-128263776D01*
X43854257Y-128327521D01*
X43879901Y-128354979D01*
X43905629Y-128377542D01*
X43977314Y-128459283D01*
X44049889Y-128536992D01*
X44068148Y-128562859D01*
X44086723Y-128584040D01*
X44150959Y-128680176D01*
X44215176Y-128771151D01*
X44227020Y-128794010D01*
X44239317Y-128812413D01*
X44293742Y-128922777D01*
X44347039Y-129025635D01*
X44353677Y-129044314D01*
X44360794Y-129058745D01*
X44403119Y-129183430D01*
X44443021Y-129295704D01*
X44445846Y-129309299D01*
X44449080Y-129318826D01*
X44477138Y-129459889D01*
X44501335Y-129576327D01*
X44501877Y-129584259D01*
X44502663Y-129588208D01*
X44514480Y-129768506D01*
X44520895Y-129862277D01*
X44514480Y-129956055D01*
X44502663Y-130136345D01*
X44501877Y-130140292D01*
X44501335Y-130148227D01*
X44477134Y-130264687D01*
X44449080Y-130405727D01*
X44445846Y-130415251D01*
X44443021Y-130428850D01*
X44403111Y-130541144D01*
X44360793Y-130665811D01*
X44353677Y-130680239D01*
X44347039Y-130698919D01*
X44293748Y-130801765D01*
X44239319Y-130912138D01*
X44227021Y-130930543D01*
X44215176Y-130953403D01*
X44150952Y-131044387D01*
X44086723Y-131140513D01*
X44068151Y-131161689D01*
X44049889Y-131187562D01*
X43977299Y-131265286D01*
X43905629Y-131347011D01*
X43879906Y-131369568D01*
X43854257Y-131397033D01*
X43775889Y-131460789D01*
X43699131Y-131528105D01*
X43665646Y-131550478D01*
X43631924Y-131577914D01*
X43550309Y-131627545D01*
X43470756Y-131680701D01*
X43429192Y-131701197D01*
X43387032Y-131726836D01*
X43304569Y-131762654D01*
X43224429Y-131802175D01*
X43174792Y-131819024D01*
X43124142Y-131841025D01*
X43043034Y-131863750D01*
X42964345Y-131890462D01*
X42906965Y-131901875D01*
X42848153Y-131918354D01*
X42770385Y-131929042D01*
X42694963Y-131944045D01*
X42630482Y-131948271D01*
X42564204Y-131957381D01*
X42491502Y-131957381D01*
X42420895Y-131962009D01*
X42350288Y-131957381D01*
X42277586Y-131957381D01*
X42211308Y-131948271D01*
X42146826Y-131944045D01*
X42071401Y-131929042D01*
X41993637Y-131918354D01*
X41934826Y-131901876D01*
X41877444Y-131890462D01*
X41798749Y-131863748D01*
X41717648Y-131841025D01*
X41667000Y-131819025D01*
X41617360Y-131802175D01*
X41537212Y-131762651D01*
X41454758Y-131726836D01*
X41412601Y-131701200D01*
X41371033Y-131680701D01*
X41291469Y-131627538D01*
X41209866Y-131577914D01*
X41176147Y-131550482D01*
X41142658Y-131528105D01*
X41065884Y-131460776D01*
X40987533Y-131397033D01*
X40961890Y-131369576D01*
X40936156Y-131347008D01*
X40864464Y-131265258D01*
X40852308Y-131252242D01*
X40731601Y-131258834D01*
X40700473Y-131303289D01*
X40690278Y-131326461D01*
X40671993Y-131343964D01*
X40666504Y-131351805D01*
X40656449Y-131358845D01*
X40633908Y-131380424D01*
X40615292Y-131387663D01*
X40607863Y-131392865D01*
X40576428Y-131402776D01*
X40561177Y-131408707D01*
X38394600Y-131790733D01*
X38378245Y-131790376D01*
X38345313Y-131791814D01*
X38336552Y-131789466D01*
X38316582Y-131789031D01*
X38288019Y-131776462D01*
X38276159Y-131773285D01*
X38268314Y-131767792D01*
X38245156Y-131757602D01*
X38227659Y-131739325D01*
X38219811Y-131733830D01*
X38212764Y-131723766D01*
X38191192Y-131701232D01*
X38183954Y-131682619D01*
X38178750Y-131675187D01*
X38168834Y-131643738D01*
X38162909Y-131628501D01*
X38013102Y-130778904D01*
X37817035Y-129666954D01*
X37817034Y-129666949D01*
X37815613Y-129658886D01*
X37815969Y-129642547D01*
X37814531Y-129609599D01*
X37816879Y-129600834D01*
X37817315Y-129580868D01*
X37829880Y-129552310D01*
X37833060Y-129540445D01*
X37838554Y-129532597D01*
X37848744Y-129509441D01*
X37867018Y-129491946D01*
X37872515Y-129484097D01*
X37882580Y-129477049D01*
X37905114Y-129455478D01*
X37923724Y-129448241D01*
X37931158Y-129443036D01*
X37962611Y-129433118D01*
X37977845Y-129427195D01*
X38178954Y-129391733D01*
X40136353Y-129046591D01*
X40136358Y-129046590D01*
X40144422Y-129045169D01*
X40160760Y-129045525D01*
X40193708Y-129044087D01*
X40202472Y-129046435D01*
X40222440Y-129046871D01*
X40251000Y-129059438D01*
X40262860Y-129062616D01*
X40270703Y-129068108D01*
X40293866Y-129078300D01*
X40311364Y-129096578D01*
X40351297Y-129124539D01*
X40462618Y-129096008D01*
X40488117Y-129044301D01*
X40494751Y-129025635D01*
X40548018Y-128922832D01*
X40602472Y-128812413D01*
X40614772Y-128794003D01*
X40626614Y-128771151D01*
X40690811Y-128680203D01*
X40755066Y-128584040D01*
X40773645Y-128562853D01*
X40791901Y-128536992D01*
X40864459Y-128459300D01*
X40936160Y-128377542D01*
X40961893Y-128354974D01*
X40987533Y-128327521D01*
X41065871Y-128263788D01*
X41142658Y-128196448D01*
X41176154Y-128174066D01*
X41209866Y-128146640D01*
X41291460Y-128097021D01*
X41371031Y-128043854D01*
X41412602Y-128023353D01*
X41454758Y-127997718D01*
X41537206Y-127961905D01*
X41617363Y-127922377D01*
X41667011Y-127905523D01*
X41717648Y-127883529D01*
X41798733Y-127860809D01*
X41877444Y-127834091D01*
X41934839Y-127822674D01*
X41993637Y-127806200D01*
X42071385Y-127795514D01*
X42146826Y-127780508D01*
X42211321Y-127776280D01*
X42277586Y-127767173D01*
X42350272Y-127767173D01*
X42420895Y-127762544D01*
X42491517Y-127767173D01*
G37*
G36*
X67333793Y-127358515D02*
G01*
X67406480Y-127358515D01*
X67472744Y-127367622D01*
X67537239Y-127371850D01*
X67612677Y-127386855D01*
X67690429Y-127397542D01*
X67749229Y-127414017D01*
X67806621Y-127425433D01*
X67885327Y-127452150D01*
X67966418Y-127474871D01*
X68017058Y-127496867D01*
X68066705Y-127513720D01*
X68146862Y-127553248D01*
X68229308Y-127589060D01*
X68271459Y-127614692D01*
X68313032Y-127635194D01*
X68392601Y-127688360D01*
X68474200Y-127737982D01*
X68507915Y-127765411D01*
X68541407Y-127787790D01*
X68618180Y-127855118D01*
X68696533Y-127918863D01*
X68722177Y-127946321D01*
X68747905Y-127968884D01*
X68819583Y-128050618D01*
X68892165Y-128128334D01*
X68910428Y-128154206D01*
X68928998Y-128175382D01*
X68993225Y-128271504D01*
X69051400Y-128353919D01*
X69165745Y-128365182D01*
X69207694Y-128323232D01*
X69221750Y-128302198D01*
X69242786Y-128288141D01*
X69249560Y-128281368D01*
X69260692Y-128276176D01*
X69286634Y-128258843D01*
X69306220Y-128254946D01*
X69314443Y-128251113D01*
X69347131Y-128246809D01*
X69363171Y-128243619D01*
X71563171Y-128243619D01*
X71579214Y-128246810D01*
X71611898Y-128251113D01*
X71620119Y-128254946D01*
X71639708Y-128258843D01*
X71665651Y-128276178D01*
X71676779Y-128281367D01*
X71683549Y-128288137D01*
X71704592Y-128302198D01*
X71718652Y-128323240D01*
X71725422Y-128330010D01*
X71730609Y-128341135D01*
X71747947Y-128367082D01*
X71751843Y-128386672D01*
X71755676Y-128394891D01*
X71759977Y-128427564D01*
X71763171Y-128443619D01*
X71763171Y-130443619D01*
X71759976Y-130459677D01*
X71755676Y-130492346D01*
X71751844Y-130500563D01*
X71747947Y-130520156D01*
X71730608Y-130546104D01*
X71725422Y-130557227D01*
X71718654Y-130563994D01*
X71704592Y-130585040D01*
X71683546Y-130599102D01*
X71676779Y-130605870D01*
X71665656Y-130611056D01*
X71639708Y-130628395D01*
X71620115Y-130632292D01*
X71611898Y-130636124D01*
X71579227Y-130640425D01*
X71563171Y-130643619D01*
X69363171Y-130643619D01*
X69347114Y-130640425D01*
X69314443Y-130636124D01*
X69306224Y-130632291D01*
X69286634Y-130628395D01*
X69260687Y-130611057D01*
X69249562Y-130605870D01*
X69242792Y-130599100D01*
X69221750Y-130585040D01*
X69207690Y-130563999D01*
X69173757Y-130530066D01*
X69059212Y-130541348D01*
X69057452Y-130544745D01*
X68993223Y-130635736D01*
X68929001Y-130731852D01*
X68910430Y-130753027D01*
X68892165Y-130778904D01*
X68819571Y-130856632D01*
X68747905Y-130938353D01*
X68722182Y-130960910D01*
X68696533Y-130988375D01*
X68618165Y-131052131D01*
X68541407Y-131119447D01*
X68507922Y-131141820D01*
X68474200Y-131169256D01*
X68392585Y-131218887D01*
X68313032Y-131272043D01*
X68271468Y-131292539D01*
X68229308Y-131318178D01*
X68146845Y-131353996D01*
X68066705Y-131393517D01*
X68017068Y-131410366D01*
X67966418Y-131432367D01*
X67885310Y-131455092D01*
X67806621Y-131481804D01*
X67749241Y-131493217D01*
X67690429Y-131509696D01*
X67612661Y-131520384D01*
X67537239Y-131535387D01*
X67472758Y-131539613D01*
X67406480Y-131548723D01*
X67333778Y-131548723D01*
X67263171Y-131553351D01*
X67192564Y-131548723D01*
X67119862Y-131548723D01*
X67053584Y-131539613D01*
X66989102Y-131535387D01*
X66913677Y-131520384D01*
X66835913Y-131509696D01*
X66777102Y-131493218D01*
X66719720Y-131481804D01*
X66641025Y-131455090D01*
X66559924Y-131432367D01*
X66509276Y-131410367D01*
X66459636Y-131393517D01*
X66379488Y-131353993D01*
X66297034Y-131318178D01*
X66254877Y-131292542D01*
X66213309Y-131272043D01*
X66133745Y-131218880D01*
X66052142Y-131169256D01*
X66018423Y-131141824D01*
X65984934Y-131119447D01*
X65908162Y-131052120D01*
X65829809Y-130988375D01*
X65804163Y-130960915D01*
X65778436Y-130938353D01*
X65706749Y-130856610D01*
X65634177Y-130778904D01*
X65615918Y-130753037D01*
X65597342Y-130731855D01*
X65533095Y-130635703D01*
X65468890Y-130544745D01*
X65457048Y-130521891D01*
X65444746Y-130503480D01*
X65390297Y-130393067D01*
X65337027Y-130290261D01*
X65330391Y-130271589D01*
X65323272Y-130257153D01*
X65280931Y-130132423D01*
X65241045Y-130020192D01*
X65238220Y-130006601D01*
X65234985Y-129997069D01*
X65206908Y-129855916D01*
X65182731Y-129739569D01*
X65182188Y-129731642D01*
X65181402Y-129727687D01*
X65169561Y-129547047D01*
X65163171Y-129453619D01*
X65169561Y-129360197D01*
X65181402Y-129179550D01*
X65182188Y-129175593D01*
X65182731Y-129167669D01*
X65206903Y-129051343D01*
X65234985Y-128910168D01*
X65238221Y-128900633D01*
X65241045Y-128887046D01*
X65280924Y-128774835D01*
X65323271Y-128650087D01*
X65330391Y-128635648D01*
X65337027Y-128616977D01*
X65390302Y-128514159D01*
X65444748Y-128403755D01*
X65457048Y-128385345D01*
X65468890Y-128362493D01*
X65533087Y-128271545D01*
X65597342Y-128175382D01*
X65615921Y-128154195D01*
X65634177Y-128128334D01*
X65706735Y-128050642D01*
X65778436Y-127968884D01*
X65804169Y-127946316D01*
X65829809Y-127918863D01*
X65908147Y-127855130D01*
X65984934Y-127787790D01*
X66018430Y-127765408D01*
X66052142Y-127737982D01*
X66133736Y-127688363D01*
X66213307Y-127635196D01*
X66254878Y-127614695D01*
X66297034Y-127589060D01*
X66379482Y-127553247D01*
X66459639Y-127513719D01*
X66509287Y-127496865D01*
X66559924Y-127474871D01*
X66641009Y-127452151D01*
X66719720Y-127425433D01*
X66777115Y-127414016D01*
X66835913Y-127397542D01*
X66913661Y-127386856D01*
X66989102Y-127371850D01*
X67053597Y-127367622D01*
X67119862Y-127358515D01*
X67192548Y-127358515D01*
X67263171Y-127353886D01*
X67333793Y-127358515D01*
G37*
G36*
X31995276Y-127776484D02*
G01*
X32040723Y-127776484D01*
X32091335Y-127785944D01*
X32147708Y-127791497D01*
X32190530Y-127804487D01*
X32229278Y-127811730D01*
X32282942Y-127832519D01*
X32342805Y-127850679D01*
X32377010Y-127868962D01*
X32408145Y-127881024D01*
X32462246Y-127914522D01*
X32522607Y-127946786D01*
X32547966Y-127967598D01*
X32571228Y-127982001D01*
X32622772Y-128028989D01*
X32680205Y-128076123D01*
X32697222Y-128096858D01*
X32712986Y-128111229D01*
X32758746Y-128171826D01*
X32809542Y-128233721D01*
X32819366Y-128252100D01*
X32828584Y-128264307D01*
X32865248Y-128337940D01*
X32905649Y-128413523D01*
X32909958Y-128427730D01*
X32914086Y-128436019D01*
X32938471Y-128521724D01*
X32964831Y-128608620D01*
X32965696Y-128617410D01*
X32966579Y-128620511D01*
X32975753Y-128719518D01*
X32984814Y-128811514D01*
X32975752Y-128903516D01*
X32966579Y-129002516D01*
X32965696Y-129005616D01*
X32964831Y-129014408D01*
X32938466Y-129101318D01*
X32914086Y-129187008D01*
X32909959Y-129195295D01*
X32905649Y-129209505D01*
X32865241Y-129285101D01*
X32828584Y-129358720D01*
X32819367Y-129370924D01*
X32809542Y-129389307D01*
X32758737Y-129451212D01*
X32712986Y-129511798D01*
X32697225Y-129526165D01*
X32680205Y-129546905D01*
X32622761Y-129594047D01*
X32571228Y-129641026D01*
X32547971Y-129655425D01*
X32522607Y-129676242D01*
X32462235Y-129708511D01*
X32408145Y-129742003D01*
X32377016Y-129754062D01*
X32342805Y-129772349D01*
X32282930Y-129790511D01*
X32229278Y-129811297D01*
X32190541Y-129818537D01*
X32147708Y-129831531D01*
X32122656Y-129833998D01*
X32072592Y-129860758D01*
X32017927Y-129894606D01*
X31986466Y-129906793D01*
X31951962Y-129925237D01*
X31891569Y-129943556D01*
X31837346Y-129964563D01*
X31798193Y-129971882D01*
X31754989Y-129984988D01*
X31698129Y-129990588D01*
X31646974Y-130000151D01*
X31601033Y-130000151D01*
X31550144Y-130005163D01*
X31499255Y-130000151D01*
X31453314Y-130000151D01*
X31402158Y-129990587D01*
X31345299Y-129984988D01*
X31302096Y-129971882D01*
X31262941Y-129964563D01*
X31208713Y-129943555D01*
X31148326Y-129925237D01*
X31113824Y-129906795D01*
X31082357Y-129894605D01*
X31027679Y-129860749D01*
X30966795Y-129828206D01*
X30941212Y-129807210D01*
X30917701Y-129792653D01*
X30865598Y-129745155D01*
X30807682Y-129697625D01*
X30790522Y-129676716D01*
X30774579Y-129662182D01*
X30728302Y-129600900D01*
X30677101Y-129538512D01*
X30667197Y-129519983D01*
X30657870Y-129507632D01*
X30620764Y-129433114D01*
X30580070Y-129356981D01*
X30575729Y-129342672D01*
X30571547Y-129334273D01*
X30546837Y-129247427D01*
X30520319Y-129160008D01*
X30519447Y-129151163D01*
X30518549Y-129148004D01*
X30509194Y-129047054D01*
X30500144Y-128955163D01*
X30509193Y-128863279D01*
X30518549Y-128762321D01*
X30519448Y-128759161D01*
X30520319Y-128750318D01*
X30546832Y-128662913D01*
X30571547Y-128576052D01*
X30575730Y-128567650D01*
X30580070Y-128553345D01*
X30620757Y-128477224D01*
X30657870Y-128402693D01*
X30667198Y-128390339D01*
X30677101Y-128371814D01*
X30728292Y-128309437D01*
X30774579Y-128248143D01*
X30790525Y-128233605D01*
X30807682Y-128212701D01*
X30865587Y-128165179D01*
X30917701Y-128117672D01*
X30941217Y-128103111D01*
X30966795Y-128082120D01*
X31027667Y-128049582D01*
X31082357Y-128015720D01*
X31113831Y-128003527D01*
X31148326Y-127985089D01*
X31208704Y-127966773D01*
X31262942Y-127945762D01*
X31302103Y-127938441D01*
X31345299Y-127925338D01*
X31402146Y-127919739D01*
X31414643Y-127917403D01*
X31436244Y-127909035D01*
X31481485Y-127881023D01*
X31512619Y-127868961D01*
X31546823Y-127850679D01*
X31606681Y-127832521D01*
X31660349Y-127811730D01*
X31699098Y-127804486D01*
X31741920Y-127791497D01*
X31798291Y-127785944D01*
X31848905Y-127776484D01*
X31894352Y-127776484D01*
X31944814Y-127771514D01*
X31995276Y-127776484D01*
G37*
G36*
X84580455Y-120094676D02*
G01*
X84653142Y-120094676D01*
X84719406Y-120103783D01*
X84783901Y-120108011D01*
X84859339Y-120123016D01*
X84937091Y-120133703D01*
X84995891Y-120150178D01*
X85053283Y-120161594D01*
X85131989Y-120188311D01*
X85213080Y-120211032D01*
X85263720Y-120233028D01*
X85313367Y-120249881D01*
X85393524Y-120289409D01*
X85475970Y-120325221D01*
X85518121Y-120350853D01*
X85559694Y-120371355D01*
X85639263Y-120424521D01*
X85720862Y-120474143D01*
X85754577Y-120501572D01*
X85788069Y-120523951D01*
X85864842Y-120591279D01*
X85943195Y-120655024D01*
X85968839Y-120682482D01*
X85994567Y-120705045D01*
X86066252Y-120786786D01*
X86138827Y-120864495D01*
X86157086Y-120890362D01*
X86175661Y-120911543D01*
X86239897Y-121007679D01*
X86304114Y-121098654D01*
X86315958Y-121121513D01*
X86328255Y-121139916D01*
X86382680Y-121250280D01*
X86435977Y-121353138D01*
X86442615Y-121371817D01*
X86449732Y-121386248D01*
X86492057Y-121510933D01*
X86531959Y-121623207D01*
X86534784Y-121636802D01*
X86538018Y-121646329D01*
X86566076Y-121787392D01*
X86590273Y-121903830D01*
X86590815Y-121911762D01*
X86591601Y-121915711D01*
X86603418Y-122096009D01*
X86609833Y-122189780D01*
X86603418Y-122283558D01*
X86591601Y-122463848D01*
X86590815Y-122467795D01*
X86590273Y-122475730D01*
X86566070Y-122592200D01*
X86538018Y-122733229D01*
X86534785Y-122742752D01*
X86531959Y-122756353D01*
X86492032Y-122868695D01*
X86485261Y-122888644D01*
X86606363Y-122998683D01*
X86881181Y-122874998D01*
X87186697Y-122779795D01*
X87501462Y-122722112D01*
X87820884Y-122702791D01*
X88140306Y-122722112D01*
X88455071Y-122779795D01*
X88760587Y-122874998D01*
X89052400Y-123006333D01*
X89326256Y-123171884D01*
X89578159Y-123369238D01*
X89804437Y-123595516D01*
X90001791Y-123847419D01*
X90167342Y-124121275D01*
X90298677Y-124413088D01*
X90393880Y-124718604D01*
X90451563Y-125033369D01*
X90470884Y-125352791D01*
X90451563Y-125672213D01*
X90393880Y-125986978D01*
X90298677Y-126292494D01*
X90167342Y-126584307D01*
X90001791Y-126858163D01*
X89804437Y-127110066D01*
X89578159Y-127336344D01*
X89326256Y-127533698D01*
X89052400Y-127699249D01*
X88760587Y-127830584D01*
X88455071Y-127925787D01*
X88140306Y-127983470D01*
X87820884Y-128002791D01*
X87501462Y-127983470D01*
X87186697Y-127925787D01*
X86881181Y-127830584D01*
X86589368Y-127699249D01*
X86315512Y-127533698D01*
X86063609Y-127336344D01*
X85837331Y-127110066D01*
X85639977Y-126858163D01*
X85474426Y-126584307D01*
X85343091Y-126292494D01*
X85247888Y-125986978D01*
X85190205Y-125672213D01*
X85170884Y-125352791D01*
X85190205Y-125033369D01*
X85247888Y-124718604D01*
X85343091Y-124413088D01*
X85414830Y-124253689D01*
X85304791Y-124132588D01*
X85263741Y-124146522D01*
X85213080Y-124168528D01*
X85131962Y-124191256D01*
X85053282Y-124217965D01*
X84995905Y-124229377D01*
X84937091Y-124245857D01*
X84859322Y-124256545D01*
X84783901Y-124271548D01*
X84719420Y-124275774D01*
X84653142Y-124284884D01*
X84580440Y-124284884D01*
X84509833Y-124289512D01*
X84439226Y-124284884D01*
X84366524Y-124284884D01*
X84300246Y-124275774D01*
X84235764Y-124271548D01*
X84160340Y-124256545D01*
X84082575Y-124245857D01*
X84023762Y-124229378D01*
X83944635Y-124213639D01*
X83851486Y-124297575D01*
X83858994Y-124378602D01*
X83868061Y-124470658D01*
X83858993Y-124562721D01*
X83849655Y-124663499D01*
X83848757Y-124666652D01*
X83847886Y-124675503D01*
X83821351Y-124762975D01*
X83796657Y-124849768D01*
X83792476Y-124858162D01*
X83788135Y-124872476D01*
X83747425Y-124948637D01*
X83710334Y-125023127D01*
X83701010Y-125035473D01*
X83691104Y-125054007D01*
X83639890Y-125116410D01*
X83593625Y-125177677D01*
X83577685Y-125192207D01*
X83560523Y-125213120D01*
X83502596Y-125260658D01*
X83450503Y-125308148D01*
X83426995Y-125322703D01*
X83401410Y-125343701D01*
X83340518Y-125376248D01*
X83285847Y-125410100D01*
X83254382Y-125422289D01*
X83219879Y-125440732D01*
X83159487Y-125459051D01*
X83105263Y-125480058D01*
X83066110Y-125487377D01*
X83022906Y-125500483D01*
X82966046Y-125506083D01*
X82914891Y-125515646D01*
X82868950Y-125515646D01*
X82818061Y-125520658D01*
X82767172Y-125515646D01*
X82721231Y-125515646D01*
X82670075Y-125506082D01*
X82613216Y-125500483D01*
X82570013Y-125487377D01*
X82530858Y-125480058D01*
X82476627Y-125459049D01*
X82416243Y-125440732D01*
X82409657Y-125437212D01*
X82404441Y-125437726D01*
X82353979Y-125432756D01*
X82308532Y-125432756D01*
X82257921Y-125423295D01*
X82201547Y-125417743D01*
X82158719Y-125404751D01*
X82119976Y-125397509D01*
X82066319Y-125376722D01*
X82006450Y-125358561D01*
X81972240Y-125340275D01*
X81941109Y-125328215D01*
X81887012Y-125294719D01*
X81826648Y-125262454D01*
X81801286Y-125241640D01*
X81778026Y-125227238D01*
X81726483Y-125180251D01*
X81669050Y-125133117D01*
X81652032Y-125112381D01*
X81636268Y-125098010D01*
X81590504Y-125037409D01*
X81539713Y-124975519D01*
X81529889Y-124957140D01*
X81520670Y-124944932D01*
X81483998Y-124871286D01*
X81443606Y-124795717D01*
X81439297Y-124781512D01*
X81435168Y-124773220D01*
X81410771Y-124687477D01*
X81384424Y-124600620D01*
X81383558Y-124591833D01*
X81382675Y-124588728D01*
X81373485Y-124489557D01*
X81364441Y-124397726D01*
X81373484Y-124305902D01*
X81382675Y-124206723D01*
X81383558Y-124203616D01*
X81384424Y-124194832D01*
X81410767Y-124107989D01*
X81435168Y-124022231D01*
X81439297Y-124013937D01*
X81443606Y-123999735D01*
X81483991Y-123924179D01*
X81520670Y-123850519D01*
X81529891Y-123838307D01*
X81539713Y-123819933D01*
X81590495Y-123758054D01*
X81636268Y-123697441D01*
X81652035Y-123683066D01*
X81669050Y-123662335D01*
X81726472Y-123615209D01*
X81778026Y-123568213D01*
X81801291Y-123553807D01*
X81826648Y-123532998D01*
X81887000Y-123500738D01*
X81941109Y-123467236D01*
X81972247Y-123455172D01*
X82006450Y-123436891D01*
X82066307Y-123418733D01*
X82119976Y-123397942D01*
X82158725Y-123390698D01*
X82201547Y-123377709D01*
X82257918Y-123372156D01*
X82308532Y-123362696D01*
X82353979Y-123362696D01*
X82404441Y-123357726D01*
X82454903Y-123362696D01*
X82500350Y-123362696D01*
X82550966Y-123372157D01*
X82607335Y-123377709D01*
X82611024Y-123378828D01*
X82701319Y-123259737D01*
X82636967Y-123129245D01*
X82583689Y-123026422D01*
X82577052Y-123007749D01*
X82554720Y-122962463D01*
X82443397Y-122933932D01*
X82410154Y-122957209D01*
X82392651Y-122975493D01*
X82369486Y-122985685D01*
X82361646Y-122991176D01*
X82349790Y-122994352D01*
X82321225Y-123006922D01*
X82301253Y-123007357D01*
X82292493Y-123009705D01*
X82259569Y-123008267D01*
X82243207Y-123008624D01*
X80076630Y-122626598D01*
X80061385Y-122620669D01*
X80029943Y-122610756D01*
X80022512Y-122605553D01*
X80003899Y-122598315D01*
X79981361Y-122576740D01*
X79971300Y-122569695D01*
X79965805Y-122561848D01*
X79947529Y-122544352D01*
X79937338Y-122521192D01*
X79931845Y-122513347D01*
X79928666Y-122501484D01*
X79916100Y-122472925D01*
X79915664Y-122452957D01*
X79913316Y-122444193D01*
X79914754Y-122411254D01*
X79914398Y-122394907D01*
X80022388Y-121782467D01*
X80260271Y-120433359D01*
X80260272Y-120433354D01*
X80261694Y-120425292D01*
X80267616Y-120410061D01*
X80277535Y-120378605D01*
X80282740Y-120371171D01*
X80289977Y-120352561D01*
X80311547Y-120330029D01*
X80318596Y-120319962D01*
X80326447Y-120314464D01*
X80343941Y-120296191D01*
X80367095Y-120286002D01*
X80374944Y-120280507D01*
X80386810Y-120277327D01*
X80415367Y-120264762D01*
X80435333Y-120264326D01*
X80444098Y-120261978D01*
X80477037Y-120263416D01*
X80493385Y-120263060D01*
X81536821Y-120447046D01*
X82651894Y-120643663D01*
X82651896Y-120643663D01*
X82659962Y-120645086D01*
X82675197Y-120651010D01*
X82706648Y-120660927D01*
X82714080Y-120666131D01*
X82732693Y-120673369D01*
X82755231Y-120694944D01*
X82765290Y-120701988D01*
X82770782Y-120709831D01*
X82789063Y-120727332D01*
X82799255Y-120750496D01*
X82825340Y-120787749D01*
X82946343Y-120794356D01*
X82953395Y-120786806D01*
X83025098Y-120705045D01*
X83050831Y-120682477D01*
X83076471Y-120655024D01*
X83154809Y-120591291D01*
X83231596Y-120523951D01*
X83265092Y-120501569D01*
X83298804Y-120474143D01*
X83380398Y-120424524D01*
X83459969Y-120371357D01*
X83501540Y-120350856D01*
X83543696Y-120325221D01*
X83626144Y-120289408D01*
X83706301Y-120249880D01*
X83755949Y-120233026D01*
X83806586Y-120211032D01*
X83887671Y-120188312D01*
X83966382Y-120161594D01*
X84023777Y-120150177D01*
X84082575Y-120133703D01*
X84160323Y-120123017D01*
X84235764Y-120108011D01*
X84300259Y-120103783D01*
X84366524Y-120094676D01*
X84439210Y-120094676D01*
X84509833Y-120090047D01*
X84580455Y-120094676D01*
G37*
G36*
X42579874Y-121415331D02*
G01*
X42652561Y-121415331D01*
X42718825Y-121424438D01*
X42783320Y-121428666D01*
X42858758Y-121443671D01*
X42936510Y-121454358D01*
X42995310Y-121470833D01*
X43052702Y-121482249D01*
X43131408Y-121508966D01*
X43212499Y-121531687D01*
X43263139Y-121553683D01*
X43312786Y-121570536D01*
X43392943Y-121610064D01*
X43475389Y-121645876D01*
X43517540Y-121671508D01*
X43559113Y-121692010D01*
X43638682Y-121745176D01*
X43720281Y-121794798D01*
X43753996Y-121822227D01*
X43787488Y-121844606D01*
X43864261Y-121911934D01*
X43942614Y-121975679D01*
X43968258Y-122003137D01*
X43993986Y-122025700D01*
X44065671Y-122107441D01*
X44138246Y-122185150D01*
X44156505Y-122211017D01*
X44175080Y-122232198D01*
X44239316Y-122328334D01*
X44303533Y-122419309D01*
X44315377Y-122442168D01*
X44327674Y-122460571D01*
X44382099Y-122570935D01*
X44435396Y-122673793D01*
X44442034Y-122692472D01*
X44449151Y-122706903D01*
X44491476Y-122831588D01*
X44531378Y-122943862D01*
X44534203Y-122957457D01*
X44537437Y-122966984D01*
X44565498Y-123108058D01*
X44589692Y-123224485D01*
X44590234Y-123232416D01*
X44591020Y-123236365D01*
X44602811Y-123416286D01*
X44608302Y-123496557D01*
X44758693Y-123553161D01*
X44945161Y-123366694D01*
X45197064Y-123169340D01*
X45470920Y-123003789D01*
X45762733Y-122872454D01*
X46068249Y-122777251D01*
X46383014Y-122719568D01*
X46702436Y-122700247D01*
X47021858Y-122719568D01*
X47336623Y-122777251D01*
X47642139Y-122872454D01*
X47933952Y-123003789D01*
X48207808Y-123169340D01*
X48459711Y-123366694D01*
X48685989Y-123592972D01*
X48883343Y-123844875D01*
X49048894Y-124118731D01*
X49180229Y-124410544D01*
X49275432Y-124716060D01*
X49333115Y-125030825D01*
X49352436Y-125350247D01*
X49333115Y-125669669D01*
X49275432Y-125984434D01*
X49180229Y-126289950D01*
X49048894Y-126581763D01*
X48883343Y-126855619D01*
X48685989Y-127107522D01*
X48459711Y-127333800D01*
X48207808Y-127531154D01*
X47933952Y-127696705D01*
X47642139Y-127828040D01*
X47336623Y-127923243D01*
X47021858Y-127980926D01*
X46702436Y-128000247D01*
X46383014Y-127980926D01*
X46068249Y-127923243D01*
X45762733Y-127828040D01*
X45470920Y-127696705D01*
X45197064Y-127531154D01*
X44945161Y-127333800D01*
X44718883Y-127107522D01*
X44521529Y-126855619D01*
X44355978Y-126581763D01*
X44224643Y-126289950D01*
X44129440Y-125984434D01*
X44071757Y-125669669D01*
X44052436Y-125350247D01*
X44065348Y-125136777D01*
X43918492Y-125064815D01*
X43864246Y-125108947D01*
X43787488Y-125176263D01*
X43754003Y-125198636D01*
X43720281Y-125226072D01*
X43638666Y-125275703D01*
X43559113Y-125328859D01*
X43517549Y-125349355D01*
X43475389Y-125374994D01*
X43392926Y-125410812D01*
X43312786Y-125450333D01*
X43263149Y-125467182D01*
X43212499Y-125489183D01*
X43131391Y-125511908D01*
X43052702Y-125538620D01*
X42995321Y-125550033D01*
X42936510Y-125566512D01*
X42858744Y-125577200D01*
X42783321Y-125592203D01*
X42718843Y-125596428D01*
X42674362Y-125602542D01*
X42609528Y-125715341D01*
X42628978Y-125754402D01*
X42669687Y-125830562D01*
X42674028Y-125844872D01*
X42678210Y-125853271D01*
X42702911Y-125940089D01*
X42729438Y-126027535D01*
X42730309Y-126036383D01*
X42731207Y-126039538D01*
X42740546Y-126140324D01*
X42749613Y-126232380D01*
X42740545Y-126324443D01*
X42731207Y-126425221D01*
X42730309Y-126428374D01*
X42729438Y-126437225D01*
X42702903Y-126524697D01*
X42678209Y-126611490D01*
X42674028Y-126619884D01*
X42669687Y-126634198D01*
X42628977Y-126710359D01*
X42591886Y-126784849D01*
X42582562Y-126797195D01*
X42572656Y-126815729D01*
X42521442Y-126878132D01*
X42475177Y-126939399D01*
X42459237Y-126953929D01*
X42442075Y-126974842D01*
X42384148Y-127022380D01*
X42332055Y-127069870D01*
X42308547Y-127084425D01*
X42282962Y-127105423D01*
X42222070Y-127137970D01*
X42167399Y-127171822D01*
X42135934Y-127184011D01*
X42101431Y-127202454D01*
X42041039Y-127220773D01*
X41986815Y-127241780D01*
X41947662Y-127249099D01*
X41904458Y-127262205D01*
X41847598Y-127267805D01*
X41796443Y-127277368D01*
X41750502Y-127277368D01*
X41699613Y-127282380D01*
X41652056Y-127277696D01*
X41636041Y-127280690D01*
X41624115Y-127284307D01*
X41570457Y-127305095D01*
X41531716Y-127312336D01*
X41488887Y-127325329D01*
X41432511Y-127330881D01*
X41381902Y-127340342D01*
X41336455Y-127340342D01*
X41285993Y-127345312D01*
X41235531Y-127340342D01*
X41190084Y-127340342D01*
X41139473Y-127330881D01*
X41083099Y-127325329D01*
X41040271Y-127312337D01*
X41001528Y-127305095D01*
X40947871Y-127284308D01*
X40888002Y-127266147D01*
X40853792Y-127247861D01*
X40822661Y-127235801D01*
X40768564Y-127202305D01*
X40708200Y-127170040D01*
X40682838Y-127149226D01*
X40659578Y-127134824D01*
X40608035Y-127087837D01*
X40550602Y-127040703D01*
X40533584Y-127019967D01*
X40517820Y-127005596D01*
X40472056Y-126944995D01*
X40421265Y-126883105D01*
X40411441Y-126864726D01*
X40402222Y-126852518D01*
X40365550Y-126778872D01*
X40325158Y-126703303D01*
X40320849Y-126689098D01*
X40316720Y-126680806D01*
X40292323Y-126595063D01*
X40265976Y-126508206D01*
X40265110Y-126499419D01*
X40264227Y-126496314D01*
X40255037Y-126397143D01*
X40245993Y-126305312D01*
X40255036Y-126213488D01*
X40264227Y-126114309D01*
X40265110Y-126111202D01*
X40265976Y-126102418D01*
X40292319Y-126015575D01*
X40316720Y-125929817D01*
X40320849Y-125921523D01*
X40325158Y-125907321D01*
X40365543Y-125831765D01*
X40402222Y-125758105D01*
X40411443Y-125745893D01*
X40421265Y-125727519D01*
X40472047Y-125665640D01*
X40517820Y-125605027D01*
X40533587Y-125590652D01*
X40550602Y-125569921D01*
X40608024Y-125522795D01*
X40659578Y-125475799D01*
X40682843Y-125461393D01*
X40708200Y-125440584D01*
X40768552Y-125408324D01*
X40822661Y-125374822D01*
X40853798Y-125362759D01*
X40888002Y-125344477D01*
X40947868Y-125326316D01*
X41001528Y-125305529D01*
X41040272Y-125298286D01*
X41083099Y-125285295D01*
X41136344Y-125280050D01*
X41177632Y-125129448D01*
X41154231Y-125108926D01*
X41075890Y-125045191D01*
X41050251Y-125017739D01*
X41024521Y-124995174D01*
X40952843Y-124913439D01*
X40945761Y-124905857D01*
X40824759Y-124912465D01*
X40798675Y-124949715D01*
X40788482Y-124972883D01*
X40770199Y-124990385D01*
X40764709Y-124998226D01*
X40754654Y-125005266D01*
X40732112Y-125026846D01*
X40713496Y-125034085D01*
X40706067Y-125039287D01*
X40674632Y-125049198D01*
X40659381Y-125055129D01*
X38492804Y-125437155D01*
X38476449Y-125436798D01*
X38443517Y-125438236D01*
X38434756Y-125435888D01*
X38414786Y-125435453D01*
X38386223Y-125422884D01*
X38374363Y-125419707D01*
X38366518Y-125414214D01*
X38343360Y-125404024D01*
X38325863Y-125385747D01*
X38318015Y-125380252D01*
X38310968Y-125370188D01*
X38289396Y-125347654D01*
X38282158Y-125329041D01*
X38276954Y-125321609D01*
X38267038Y-125290160D01*
X38261113Y-125274923D01*
X38152854Y-124660955D01*
X37915239Y-123313376D01*
X37915238Y-123313371D01*
X37913817Y-123305308D01*
X37914173Y-123288969D01*
X37912735Y-123256021D01*
X37915083Y-123247256D01*
X37915519Y-123227290D01*
X37928084Y-123198732D01*
X37931264Y-123186867D01*
X37936758Y-123179019D01*
X37946948Y-123155863D01*
X37965222Y-123138368D01*
X37970719Y-123130519D01*
X37980784Y-123123471D01*
X38003318Y-123101900D01*
X38021928Y-123094663D01*
X38029362Y-123089458D01*
X38060815Y-123079540D01*
X38076049Y-123073617D01*
X38438512Y-123009705D01*
X40234557Y-122693013D01*
X40234562Y-122693012D01*
X40242626Y-122691591D01*
X40258964Y-122691947D01*
X40291912Y-122690509D01*
X40300676Y-122692857D01*
X40320644Y-122693293D01*
X40349203Y-122705859D01*
X40361065Y-122709038D01*
X40368909Y-122714530D01*
X40392070Y-122724722D01*
X40409569Y-122743001D01*
X40442817Y-122766282D01*
X40554139Y-122737751D01*
X40576473Y-122692461D01*
X40583108Y-122673793D01*
X40636379Y-122570983D01*
X40690829Y-122460571D01*
X40703129Y-122442161D01*
X40714971Y-122419309D01*
X40779168Y-122328361D01*
X40843423Y-122232198D01*
X40862002Y-122211011D01*
X40880258Y-122185150D01*
X40952816Y-122107458D01*
X41024517Y-122025700D01*
X41050250Y-122003132D01*
X41075890Y-121975679D01*
X41154228Y-121911946D01*
X41231015Y-121844606D01*
X41264511Y-121822224D01*
X41298223Y-121794798D01*
X41379817Y-121745179D01*
X41459388Y-121692012D01*
X41500959Y-121671511D01*
X41543115Y-121645876D01*
X41625563Y-121610063D01*
X41705720Y-121570535D01*
X41755368Y-121553681D01*
X41806005Y-121531687D01*
X41887090Y-121508967D01*
X41965801Y-121482249D01*
X42023196Y-121470832D01*
X42081994Y-121454358D01*
X42159742Y-121443672D01*
X42235183Y-121428666D01*
X42299678Y-121424438D01*
X42365943Y-121415331D01*
X42438629Y-121415331D01*
X42509252Y-121410702D01*
X42579874Y-121415331D01*
G37*
G36*
X92874596Y-125189936D02*
G01*
X92920537Y-125189936D01*
X92971695Y-125199499D01*
X93028552Y-125205099D01*
X93071749Y-125218202D01*
X93110909Y-125225523D01*
X93165143Y-125246533D01*
X93225525Y-125264850D01*
X93232110Y-125268369D01*
X93237327Y-125267856D01*
X93287789Y-125272826D01*
X93333236Y-125272826D01*
X93383848Y-125282286D01*
X93440221Y-125287839D01*
X93483043Y-125300829D01*
X93521791Y-125308072D01*
X93575455Y-125328861D01*
X93635318Y-125347021D01*
X93669523Y-125365304D01*
X93700658Y-125377366D01*
X93754759Y-125410864D01*
X93815120Y-125443128D01*
X93840479Y-125463940D01*
X93863741Y-125478343D01*
X93915285Y-125525331D01*
X93972718Y-125572465D01*
X93989735Y-125593200D01*
X94005499Y-125607571D01*
X94051259Y-125668168D01*
X94102055Y-125730063D01*
X94111879Y-125748442D01*
X94121097Y-125760649D01*
X94157761Y-125834282D01*
X94198162Y-125909865D01*
X94202471Y-125924072D01*
X94206599Y-125932361D01*
X94230984Y-126018066D01*
X94257344Y-126104962D01*
X94258209Y-126113752D01*
X94259092Y-126116853D01*
X94268266Y-126215860D01*
X94277327Y-126307856D01*
X94268265Y-126399858D01*
X94259092Y-126498858D01*
X94258209Y-126501958D01*
X94257344Y-126510750D01*
X94230979Y-126597660D01*
X94206599Y-126683350D01*
X94202472Y-126691637D01*
X94198162Y-126705847D01*
X94157754Y-126781443D01*
X94121097Y-126855062D01*
X94111880Y-126867266D01*
X94102055Y-126885649D01*
X94051250Y-126947554D01*
X94005499Y-127008140D01*
X93989738Y-127022507D01*
X93972718Y-127043247D01*
X93915274Y-127090389D01*
X93863741Y-127137368D01*
X93840484Y-127151767D01*
X93815120Y-127172584D01*
X93754748Y-127204853D01*
X93700658Y-127238345D01*
X93669529Y-127250404D01*
X93635318Y-127268691D01*
X93575443Y-127286853D01*
X93521791Y-127307639D01*
X93483050Y-127314880D01*
X93440221Y-127327873D01*
X93383845Y-127333425D01*
X93333236Y-127342886D01*
X93287789Y-127342886D01*
X93237327Y-127347856D01*
X93186865Y-127342886D01*
X93141418Y-127342886D01*
X93090807Y-127333425D01*
X93034433Y-127327873D01*
X92991605Y-127314881D01*
X92952862Y-127307639D01*
X92899203Y-127286851D01*
X92887278Y-127283234D01*
X92871263Y-127280240D01*
X92823707Y-127284924D01*
X92772818Y-127279912D01*
X92726877Y-127279912D01*
X92675721Y-127270348D01*
X92618862Y-127264749D01*
X92575659Y-127251643D01*
X92536504Y-127244324D01*
X92482276Y-127223316D01*
X92421889Y-127204998D01*
X92387387Y-127186556D01*
X92355920Y-127174366D01*
X92301242Y-127140510D01*
X92240358Y-127107967D01*
X92214775Y-127086971D01*
X92191264Y-127072414D01*
X92139161Y-127024916D01*
X92081245Y-126977386D01*
X92064085Y-126956477D01*
X92048142Y-126941943D01*
X92001865Y-126880661D01*
X91950664Y-126818273D01*
X91940760Y-126799744D01*
X91931433Y-126787393D01*
X91894327Y-126712875D01*
X91853633Y-126636742D01*
X91849292Y-126622433D01*
X91845110Y-126614034D01*
X91820400Y-126527188D01*
X91793882Y-126439769D01*
X91793010Y-126430924D01*
X91792112Y-126427765D01*
X91782757Y-126326815D01*
X91773707Y-126234924D01*
X91782756Y-126143040D01*
X91792112Y-126042082D01*
X91793011Y-126038922D01*
X91793882Y-126030079D01*
X91820395Y-125942674D01*
X91845110Y-125855813D01*
X91849293Y-125847411D01*
X91853633Y-125833106D01*
X91894320Y-125756985D01*
X91931433Y-125682454D01*
X91940761Y-125670100D01*
X91950664Y-125651575D01*
X92001855Y-125589198D01*
X92048142Y-125527904D01*
X92064088Y-125513366D01*
X92081245Y-125492462D01*
X92139150Y-125444940D01*
X92191264Y-125397433D01*
X92214780Y-125382872D01*
X92240358Y-125361881D01*
X92301230Y-125329343D01*
X92355920Y-125295481D01*
X92387394Y-125283287D01*
X92421889Y-125264850D01*
X92482264Y-125246535D01*
X92536504Y-125225523D01*
X92575666Y-125218202D01*
X92618862Y-125205099D01*
X92675718Y-125199499D01*
X92726877Y-125189936D01*
X92772818Y-125189936D01*
X92823707Y-125184924D01*
X92874596Y-125189936D01*
G37*
G36*
X17673502Y-125506294D02*
G01*
X17724392Y-125506294D01*
X17768335Y-125515634D01*
X17807135Y-125519456D01*
X17855883Y-125534243D01*
X17911499Y-125546065D01*
X17947082Y-125561908D01*
X17978674Y-125571491D01*
X18028879Y-125598326D01*
X18086248Y-125623869D01*
X18112922Y-125643249D01*
X18136757Y-125655989D01*
X18185367Y-125695882D01*
X18241003Y-125736304D01*
X18259069Y-125756368D01*
X18275322Y-125769707D01*
X18318999Y-125822928D01*
X18368999Y-125878458D01*
X18379502Y-125896650D01*
X18389040Y-125908272D01*
X18424334Y-125974303D01*
X18464642Y-126044118D01*
X18469277Y-126058383D01*
X18473538Y-126066355D01*
X18497026Y-126143785D01*
X18523753Y-126226043D01*
X18524694Y-126234996D01*
X18525573Y-126237894D01*
X18534130Y-126324774D01*
X18543748Y-126416282D01*
X18534129Y-126507797D01*
X18525573Y-126594669D01*
X18524694Y-126597566D01*
X18523753Y-126606521D01*
X18497021Y-126688792D01*
X18473538Y-126766208D01*
X18469278Y-126774177D01*
X18464642Y-126788446D01*
X18424327Y-126858272D01*
X18389040Y-126924291D01*
X18379504Y-126935910D01*
X18368999Y-126954106D01*
X18318990Y-127009646D01*
X18275322Y-127062856D01*
X18259072Y-127076191D01*
X18241003Y-127096260D01*
X18185356Y-127136688D01*
X18136757Y-127176574D01*
X18112928Y-127189310D01*
X18086248Y-127208695D01*
X18028868Y-127234242D01*
X17978674Y-127261072D01*
X17947089Y-127270652D01*
X17911499Y-127286499D01*
X17855872Y-127298322D01*
X17807135Y-127313107D01*
X17768344Y-127316927D01*
X17724392Y-127326270D01*
X17673492Y-127326270D01*
X17628748Y-127330677D01*
X17584004Y-127326270D01*
X17533104Y-127326270D01*
X17489152Y-127316927D01*
X17450360Y-127313107D01*
X17401619Y-127298322D01*
X17345997Y-127286499D01*
X17310408Y-127270653D01*
X17278821Y-127261072D01*
X17228621Y-127234239D01*
X17171248Y-127208695D01*
X17144570Y-127189312D01*
X17120738Y-127176574D01*
X17072130Y-127136682D01*
X17016493Y-127096260D01*
X16998426Y-127076194D01*
X16982173Y-127062856D01*
X16938494Y-127009633D01*
X16888497Y-126954106D01*
X16877994Y-126935914D01*
X16868455Y-126924291D01*
X16833154Y-126858249D01*
X16792854Y-126788446D01*
X16788219Y-126774182D01*
X16783957Y-126766208D01*
X16760459Y-126688745D01*
X16733743Y-126606521D01*
X16732802Y-126597571D01*
X16731922Y-126594669D01*
X16723350Y-126507646D01*
X16713748Y-126416282D01*
X16723349Y-126324925D01*
X16731922Y-126237894D01*
X16732802Y-126234991D01*
X16733743Y-126226043D01*
X16760454Y-126143832D01*
X16783957Y-126066355D01*
X16788220Y-126058378D01*
X16792854Y-126044118D01*
X16833147Y-125974326D01*
X16868455Y-125908272D01*
X16877996Y-125896646D01*
X16888497Y-125878458D01*
X16938484Y-125822940D01*
X16982173Y-125769707D01*
X16998429Y-125756365D01*
X17016493Y-125736304D01*
X17072119Y-125695889D01*
X17120738Y-125655989D01*
X17144575Y-125643247D01*
X17171248Y-125623869D01*
X17228610Y-125598329D01*
X17278821Y-125571491D01*
X17310415Y-125561907D01*
X17345997Y-125546065D01*
X17401608Y-125534244D01*
X17450360Y-125519456D01*
X17489161Y-125515634D01*
X17533104Y-125506294D01*
X17583994Y-125506294D01*
X17628748Y-125501886D01*
X17673502Y-125506294D01*
G37*
G36*
X31089699Y-120623422D02*
G01*
X31140589Y-120623422D01*
X31184532Y-120632762D01*
X31223332Y-120636584D01*
X31272080Y-120651371D01*
X31327696Y-120663193D01*
X31363279Y-120679036D01*
X31394871Y-120688619D01*
X31445076Y-120715454D01*
X31502445Y-120740997D01*
X31529119Y-120760377D01*
X31552954Y-120773117D01*
X31601564Y-120813010D01*
X31657200Y-120853432D01*
X31675266Y-120873496D01*
X31691519Y-120886835D01*
X31735196Y-120940056D01*
X31785196Y-120995586D01*
X31795699Y-121013778D01*
X31805237Y-121025400D01*
X31840531Y-121091431D01*
X31880839Y-121161246D01*
X31885474Y-121175511D01*
X31889735Y-121183483D01*
X31913223Y-121260913D01*
X31939950Y-121343171D01*
X31940891Y-121352124D01*
X31941770Y-121355022D01*
X31950327Y-121441902D01*
X31959945Y-121533410D01*
X31950326Y-121624925D01*
X31941770Y-121711797D01*
X31940891Y-121714694D01*
X31939950Y-121723649D01*
X31913218Y-121805920D01*
X31889735Y-121883336D01*
X31885475Y-121891305D01*
X31880839Y-121905574D01*
X31840524Y-121975400D01*
X31805237Y-122041419D01*
X31795701Y-122053038D01*
X31785196Y-122071234D01*
X31735187Y-122126774D01*
X31691519Y-122179984D01*
X31675269Y-122193319D01*
X31657200Y-122213388D01*
X31601553Y-122253816D01*
X31552954Y-122293702D01*
X31529125Y-122306438D01*
X31502445Y-122325823D01*
X31445060Y-122351372D01*
X31394870Y-122378200D01*
X31363289Y-122387779D01*
X31327696Y-122403627D01*
X31284574Y-122412792D01*
X31239600Y-122519713D01*
X31266383Y-122571166D01*
X31274871Y-122585153D01*
X31958912Y-124464538D01*
X31961400Y-124480706D01*
X31968535Y-124512889D01*
X31967744Y-124521924D01*
X31970783Y-124541667D01*
X31963364Y-124571981D01*
X31962295Y-124584206D01*
X31958250Y-124592879D01*
X31952234Y-124617466D01*
X31937269Y-124637875D01*
X31933223Y-124646553D01*
X31924541Y-124655234D01*
X31906091Y-124680398D01*
X31889015Y-124690759D01*
X31882602Y-124697173D01*
X31853367Y-124712391D01*
X31839377Y-124720881D01*
X29772053Y-125473325D01*
X29755885Y-125475813D01*
X29723701Y-125482949D01*
X29714665Y-125482158D01*
X29694925Y-125485197D01*
X29664611Y-125477778D01*
X29652384Y-125476709D01*
X29643709Y-125472663D01*
X29619126Y-125466648D01*
X29598716Y-125451683D01*
X29581429Y-125443622D01*
X29472966Y-125498589D01*
X29454047Y-125593704D01*
X29450814Y-125603227D01*
X29447988Y-125616828D01*
X29408075Y-125729132D01*
X29365760Y-125853789D01*
X29358644Y-125868217D01*
X29352006Y-125886897D01*
X29298715Y-125989743D01*
X29244286Y-126100116D01*
X29231988Y-126118521D01*
X29220143Y-126141381D01*
X29155919Y-126232365D01*
X29091690Y-126328491D01*
X29073118Y-126349667D01*
X29054856Y-126375540D01*
X28982266Y-126453264D01*
X28910596Y-126534989D01*
X28884873Y-126557546D01*
X28859224Y-126585011D01*
X28780856Y-126648767D01*
X28704098Y-126716083D01*
X28670613Y-126738456D01*
X28636891Y-126765892D01*
X28555276Y-126815523D01*
X28475723Y-126868679D01*
X28434159Y-126889175D01*
X28391999Y-126914814D01*
X28309536Y-126950632D01*
X28229396Y-126990153D01*
X28179759Y-127007002D01*
X28129109Y-127029003D01*
X28048001Y-127051728D01*
X27969312Y-127078440D01*
X27911932Y-127089853D01*
X27853120Y-127106332D01*
X27775352Y-127117020D01*
X27699930Y-127132023D01*
X27635449Y-127136249D01*
X27569171Y-127145359D01*
X27496469Y-127145359D01*
X27425862Y-127149987D01*
X27355255Y-127145359D01*
X27282553Y-127145359D01*
X27216275Y-127136249D01*
X27151793Y-127132023D01*
X27076368Y-127117020D01*
X26998604Y-127106332D01*
X26939793Y-127089854D01*
X26882411Y-127078440D01*
X26803716Y-127051726D01*
X26722615Y-127029003D01*
X26671967Y-127007003D01*
X26622327Y-126990153D01*
X26542179Y-126950629D01*
X26459725Y-126914814D01*
X26417568Y-126889178D01*
X26376000Y-126868679D01*
X26296436Y-126815516D01*
X26214833Y-126765892D01*
X26181114Y-126738460D01*
X26147625Y-126716083D01*
X26070853Y-126648756D01*
X25992500Y-126585011D01*
X25966854Y-126557551D01*
X25941127Y-126534989D01*
X25869440Y-126453246D01*
X25796868Y-126375540D01*
X25778609Y-126349673D01*
X25760033Y-126328491D01*
X25695786Y-126232339D01*
X25631581Y-126141381D01*
X25619739Y-126118527D01*
X25607437Y-126100116D01*
X25552988Y-125989703D01*
X25499718Y-125886897D01*
X25493082Y-125868225D01*
X25485963Y-125853789D01*
X25443622Y-125729059D01*
X25403736Y-125616828D01*
X25400911Y-125603237D01*
X25397676Y-125593705D01*
X25369599Y-125452552D01*
X25345422Y-125336205D01*
X25344879Y-125328278D01*
X25344093Y-125324323D01*
X25332252Y-125143683D01*
X25325862Y-125050255D01*
X25332252Y-124956833D01*
X25344093Y-124776186D01*
X25344879Y-124772229D01*
X25345422Y-124764305D01*
X25369594Y-124647979D01*
X25397676Y-124506804D01*
X25400912Y-124497269D01*
X25403736Y-124483682D01*
X25443615Y-124371471D01*
X25485962Y-124246723D01*
X25493082Y-124232284D01*
X25499718Y-124213613D01*
X25552993Y-124110795D01*
X25607439Y-124000391D01*
X25619739Y-123981981D01*
X25631581Y-123959129D01*
X25695778Y-123868181D01*
X25760033Y-123772018D01*
X25778612Y-123750831D01*
X25796868Y-123724970D01*
X25869426Y-123647278D01*
X25941127Y-123565520D01*
X25966860Y-123542952D01*
X25992500Y-123515499D01*
X26070838Y-123451766D01*
X26147625Y-123384426D01*
X26181121Y-123362044D01*
X26214833Y-123334618D01*
X26296427Y-123284999D01*
X26375998Y-123231832D01*
X26417569Y-123211331D01*
X26459725Y-123185696D01*
X26542173Y-123149883D01*
X26622330Y-123110355D01*
X26671978Y-123093501D01*
X26722615Y-123071507D01*
X26803700Y-123048787D01*
X26882411Y-123022069D01*
X26939806Y-123010652D01*
X26998604Y-122994178D01*
X27076352Y-122983492D01*
X27151793Y-122968486D01*
X27216288Y-122964258D01*
X27282553Y-122955151D01*
X27355239Y-122955151D01*
X27425862Y-122950522D01*
X27496484Y-122955151D01*
X27569171Y-122955151D01*
X27635435Y-122964258D01*
X27699930Y-122968486D01*
X27775368Y-122983491D01*
X27853120Y-122994178D01*
X27911920Y-123010653D01*
X27969312Y-123022069D01*
X28048018Y-123048786D01*
X28129109Y-123071507D01*
X28179749Y-123093503D01*
X28229396Y-123110356D01*
X28309553Y-123149884D01*
X28391999Y-123185696D01*
X28434150Y-123211328D01*
X28475723Y-123231830D01*
X28555288Y-123284994D01*
X28636891Y-123334618D01*
X28670610Y-123362051D01*
X28714850Y-123391611D01*
X28825523Y-123360659D01*
X28832334Y-123346051D01*
X28838348Y-123321478D01*
X28853307Y-123301076D01*
X28857357Y-123292391D01*
X28866045Y-123283702D01*
X28884491Y-123258546D01*
X28901561Y-123248187D01*
X28907979Y-123241770D01*
X28937231Y-123226542D01*
X28951205Y-123218063D01*
X29238899Y-123113351D01*
X30736508Y-122568265D01*
X30747996Y-122406515D01*
X30644838Y-122351376D01*
X30587445Y-122325823D01*
X30560762Y-122306436D01*
X30536931Y-122293699D01*
X30488325Y-122253809D01*
X30432690Y-122213388D01*
X30414623Y-122193322D01*
X30398370Y-122179984D01*
X30354691Y-122126761D01*
X30304694Y-122071234D01*
X30294191Y-122053042D01*
X30284652Y-122041419D01*
X30249351Y-121975377D01*
X30209051Y-121905574D01*
X30204416Y-121891310D01*
X30200154Y-121883336D01*
X30176656Y-121805873D01*
X30149940Y-121723649D01*
X30148999Y-121714699D01*
X30148119Y-121711797D01*
X30139547Y-121624774D01*
X30129945Y-121533410D01*
X30139546Y-121442053D01*
X30148119Y-121355022D01*
X30148999Y-121352119D01*
X30149940Y-121343171D01*
X30176651Y-121260960D01*
X30200154Y-121183483D01*
X30204417Y-121175506D01*
X30209051Y-121161246D01*
X30249344Y-121091454D01*
X30284652Y-121025400D01*
X30294193Y-121013774D01*
X30304694Y-120995586D01*
X30354681Y-120940068D01*
X30398370Y-120886835D01*
X30414626Y-120873493D01*
X30432690Y-120853432D01*
X30488316Y-120813017D01*
X30536935Y-120773117D01*
X30560772Y-120760375D01*
X30587445Y-120740997D01*
X30644807Y-120715457D01*
X30695018Y-120688619D01*
X30726612Y-120679035D01*
X30762194Y-120663193D01*
X30817805Y-120651372D01*
X30866557Y-120636584D01*
X30905358Y-120632762D01*
X30949301Y-120623422D01*
X31000191Y-120623422D01*
X31044945Y-120619014D01*
X31089699Y-120623422D01*
G37*
G36*
X63523793Y-118918515D02*
G01*
X63596480Y-118918515D01*
X63662744Y-118927622D01*
X63727239Y-118931850D01*
X63802677Y-118946855D01*
X63880429Y-118957542D01*
X63939229Y-118974017D01*
X63996621Y-118985433D01*
X64075327Y-119012150D01*
X64156418Y-119034871D01*
X64207058Y-119056867D01*
X64256705Y-119073720D01*
X64336862Y-119113248D01*
X64419308Y-119149060D01*
X64461459Y-119174692D01*
X64503032Y-119195194D01*
X64582601Y-119248360D01*
X64664200Y-119297982D01*
X64697915Y-119325411D01*
X64731407Y-119347790D01*
X64808180Y-119415118D01*
X64886533Y-119478863D01*
X64912177Y-119506321D01*
X64937905Y-119528884D01*
X65009590Y-119610625D01*
X65082165Y-119688334D01*
X65100424Y-119714201D01*
X65118999Y-119735382D01*
X65183235Y-119831518D01*
X65247452Y-119922493D01*
X65259296Y-119945352D01*
X65271593Y-119963755D01*
X65326018Y-120074119D01*
X65379315Y-120176977D01*
X65385953Y-120195656D01*
X65393070Y-120210087D01*
X65435395Y-120334772D01*
X65475297Y-120447046D01*
X65478122Y-120460641D01*
X65481356Y-120470168D01*
X65509414Y-120611231D01*
X65533611Y-120727669D01*
X65534153Y-120735601D01*
X65534939Y-120739550D01*
X65546757Y-120919863D01*
X65553171Y-121013619D01*
X65546752Y-121107458D01*
X65529968Y-121363520D01*
X65673074Y-121439089D01*
X65757799Y-121372712D01*
X66031655Y-121207161D01*
X66323468Y-121075826D01*
X66628984Y-120980623D01*
X66943749Y-120922940D01*
X67263171Y-120903619D01*
X67582593Y-120922940D01*
X67897358Y-120980623D01*
X68202874Y-121075826D01*
X68494687Y-121207161D01*
X68768543Y-121372712D01*
X69020446Y-121570066D01*
X69246724Y-121796344D01*
X69444078Y-122048247D01*
X69609629Y-122322103D01*
X69740964Y-122613916D01*
X69836167Y-122919432D01*
X69893850Y-123234197D01*
X69913171Y-123553619D01*
X69893850Y-123873041D01*
X69836167Y-124187806D01*
X69740964Y-124493322D01*
X69609629Y-124785135D01*
X69444078Y-125058991D01*
X69246724Y-125310894D01*
X69020446Y-125537172D01*
X68768543Y-125734526D01*
X68494687Y-125900077D01*
X68202874Y-126031412D01*
X67897358Y-126126615D01*
X67582593Y-126184298D01*
X67263171Y-126203619D01*
X66943749Y-126184298D01*
X66628984Y-126126615D01*
X66323468Y-126031412D01*
X66031655Y-125900077D01*
X65757799Y-125734526D01*
X65505896Y-125537172D01*
X65279618Y-125310894D01*
X65082264Y-125058991D01*
X64916713Y-124785135D01*
X64785378Y-124493322D01*
X64690175Y-124187806D01*
X64632492Y-123873041D01*
X64613171Y-123553619D01*
X64632492Y-123234197D01*
X64690175Y-122919432D01*
X64690735Y-122917633D01*
X64695688Y-122890608D01*
X64572685Y-122797693D01*
X64461476Y-122852534D01*
X64419308Y-122878178D01*
X64336833Y-122914001D01*
X64256702Y-122953518D01*
X64207069Y-122970366D01*
X64156418Y-122992367D01*
X64075310Y-123015092D01*
X63996621Y-123041804D01*
X63939241Y-123053217D01*
X63880429Y-123069696D01*
X63802661Y-123080384D01*
X63727239Y-123095387D01*
X63662758Y-123099613D01*
X63596480Y-123108723D01*
X63523778Y-123108723D01*
X63453171Y-123113351D01*
X63382568Y-123108723D01*
X63309862Y-123108723D01*
X63250369Y-123100546D01*
X63169281Y-123200919D01*
X63186456Y-123261286D01*
X63212996Y-123348774D01*
X63213867Y-123357625D01*
X63214765Y-123360779D01*
X63224103Y-123461548D01*
X63233171Y-123553619D01*
X63224103Y-123645682D01*
X63214765Y-123746460D01*
X63213867Y-123749613D01*
X63212996Y-123758464D01*
X63186461Y-123845936D01*
X63161767Y-123932729D01*
X63157586Y-123941123D01*
X63153245Y-123955437D01*
X63112535Y-124031598D01*
X63075444Y-124106088D01*
X63066120Y-124118434D01*
X63056214Y-124136968D01*
X63005000Y-124199371D01*
X62958735Y-124260638D01*
X62942795Y-124275168D01*
X62925633Y-124296081D01*
X62867706Y-124343619D01*
X62815613Y-124391109D01*
X62792105Y-124405664D01*
X62766520Y-124426662D01*
X62705628Y-124459209D01*
X62650957Y-124493061D01*
X62619492Y-124505250D01*
X62584989Y-124523693D01*
X62524597Y-124542012D01*
X62470373Y-124563019D01*
X62431220Y-124570338D01*
X62388016Y-124583444D01*
X62331156Y-124589044D01*
X62280001Y-124598607D01*
X62234060Y-124598607D01*
X62183171Y-124603619D01*
X62132282Y-124598607D01*
X62086341Y-124598607D01*
X62035181Y-124589043D01*
X61978326Y-124583444D01*
X61950912Y-124575128D01*
X61909688Y-124579188D01*
X61859079Y-124588649D01*
X61813633Y-124588649D01*
X61763171Y-124593619D01*
X61712709Y-124588649D01*
X61667262Y-124588649D01*
X61616651Y-124579188D01*
X61560277Y-124573636D01*
X61517449Y-124560644D01*
X61478706Y-124553402D01*
X61425049Y-124532615D01*
X61365180Y-124514454D01*
X61330970Y-124496168D01*
X61299839Y-124484108D01*
X61245742Y-124450612D01*
X61185378Y-124418347D01*
X61160016Y-124397533D01*
X61136756Y-124383131D01*
X61085213Y-124336144D01*
X61027780Y-124289010D01*
X61010762Y-124268274D01*
X60994998Y-124253903D01*
X60949234Y-124193302D01*
X60898443Y-124131412D01*
X60888619Y-124113033D01*
X60879400Y-124100825D01*
X60842728Y-124027179D01*
X60802336Y-123951610D01*
X60798027Y-123937405D01*
X60793898Y-123929113D01*
X60769501Y-123843370D01*
X60743154Y-123756513D01*
X60742288Y-123747726D01*
X60741405Y-123744621D01*
X60732215Y-123645450D01*
X60723171Y-123553619D01*
X60732214Y-123461795D01*
X60741405Y-123362616D01*
X60742288Y-123359509D01*
X60743154Y-123350725D01*
X60769497Y-123263882D01*
X60793898Y-123178124D01*
X60798027Y-123169830D01*
X60802336Y-123155628D01*
X60842721Y-123080072D01*
X60879400Y-123006412D01*
X60888621Y-122994200D01*
X60898443Y-122975826D01*
X60949225Y-122913947D01*
X60994998Y-122853334D01*
X61010765Y-122838959D01*
X61027780Y-122818228D01*
X61085202Y-122771102D01*
X61136756Y-122724106D01*
X61160021Y-122709700D01*
X61185378Y-122688891D01*
X61245730Y-122656631D01*
X61299839Y-122623129D01*
X61330977Y-122611065D01*
X61365180Y-122592784D01*
X61425037Y-122574626D01*
X61478706Y-122553835D01*
X61517455Y-122546591D01*
X61560277Y-122533602D01*
X61616648Y-122528049D01*
X61667262Y-122518589D01*
X61712709Y-122518589D01*
X61763171Y-122513619D01*
X61791870Y-122516445D01*
X61856588Y-122373608D01*
X61824177Y-122338904D01*
X61805917Y-122313035D01*
X61787342Y-122291855D01*
X61723098Y-122195707D01*
X61664940Y-122113316D01*
X61550593Y-122102055D01*
X61518656Y-122133991D01*
X61504592Y-122155040D01*
X61483543Y-122169104D01*
X61476778Y-122175870D01*
X61465658Y-122181055D01*
X61439708Y-122198395D01*
X61420115Y-122202292D01*
X61411898Y-122206124D01*
X61379227Y-122210425D01*
X61363171Y-122213619D01*
X59163171Y-122213619D01*
X59147114Y-122210425D01*
X59114443Y-122206124D01*
X59106224Y-122202291D01*
X59086634Y-122198395D01*
X59060687Y-122181057D01*
X59049562Y-122175870D01*
X59042792Y-122169100D01*
X59021750Y-122155040D01*
X59007689Y-122133997D01*
X59000919Y-122127227D01*
X58995730Y-122116099D01*
X58978395Y-122090156D01*
X58974498Y-122070567D01*
X58970665Y-122062346D01*
X58966361Y-122029660D01*
X58963171Y-122013619D01*
X58963171Y-121186936D01*
X58781699Y-121135213D01*
X58715410Y-121242052D01*
X58706282Y-121265767D01*
X58684846Y-121291313D01*
X58671925Y-121312139D01*
X58653660Y-121328479D01*
X58632223Y-121354028D01*
X58610451Y-121367136D01*
X58597953Y-121378319D01*
X58568959Y-121392120D01*
X58533518Y-121413460D01*
X58514881Y-121417861D01*
X58506284Y-121421954D01*
X58453886Y-121432267D01*
X58435298Y-121436658D01*
X58136440Y-121462805D01*
X58117413Y-121461711D01*
X58063980Y-121460652D01*
X58054794Y-121458112D01*
X58035683Y-121457014D01*
X57997092Y-121442159D01*
X57966125Y-121433598D01*
X57951867Y-121424751D01*
X57928158Y-121415625D01*
X57902610Y-121394188D01*
X57881786Y-121381267D01*
X57865446Y-121363004D01*
X57839897Y-121341566D01*
X57833367Y-121330722D01*
X57714633Y-121341113D01*
X57710088Y-121352923D01*
X57688642Y-121378480D01*
X57675728Y-121399297D01*
X57657468Y-121415633D01*
X57636029Y-121441184D01*
X57614257Y-121454293D01*
X57601759Y-121465475D01*
X57572765Y-121479276D01*
X57537324Y-121500616D01*
X57518687Y-121505017D01*
X57510090Y-121509110D01*
X57457692Y-121519423D01*
X57439104Y-121523814D01*
X57140246Y-121549961D01*
X57121219Y-121548867D01*
X57067786Y-121547808D01*
X57058600Y-121545268D01*
X57039489Y-121544170D01*
X57000898Y-121529315D01*
X56969931Y-121520754D01*
X56955672Y-121511907D01*
X56931964Y-121502781D01*
X56906418Y-121481345D01*
X56885591Y-121468423D01*
X56869248Y-121450156D01*
X56843703Y-121428722D01*
X56837173Y-121417877D01*
X56718438Y-121428268D01*
X56713893Y-121440078D01*
X56692447Y-121465635D01*
X56679533Y-121486452D01*
X56661273Y-121502788D01*
X56639834Y-121528339D01*
X56618062Y-121541448D01*
X56605564Y-121552630D01*
X56576570Y-121566431D01*
X56541129Y-121587771D01*
X56522492Y-121592172D01*
X56513895Y-121596265D01*
X56461497Y-121606578D01*
X56442909Y-121610969D01*
X56144051Y-121637116D01*
X56125024Y-121636022D01*
X56071591Y-121634963D01*
X56062405Y-121632423D01*
X56043294Y-121631325D01*
X56004703Y-121616470D01*
X55973736Y-121607909D01*
X55959478Y-121599062D01*
X55935769Y-121589936D01*
X55910221Y-121568499D01*
X55889397Y-121555578D01*
X55873057Y-121537315D01*
X55847508Y-121515877D01*
X55840979Y-121505034D01*
X55722244Y-121515423D01*
X55717698Y-121527234D01*
X55696259Y-121552783D01*
X55683340Y-121573606D01*
X55665078Y-121589944D01*
X55643639Y-121615495D01*
X55621867Y-121628604D01*
X55609369Y-121639786D01*
X55580375Y-121653587D01*
X55544934Y-121674927D01*
X55526297Y-121679328D01*
X55517700Y-121683421D01*
X55465302Y-121693734D01*
X55446714Y-121698125D01*
X55147856Y-121724272D01*
X55128829Y-121723178D01*
X55075396Y-121722119D01*
X55066210Y-121719579D01*
X55047099Y-121718481D01*
X55008508Y-121703626D01*
X54977541Y-121695065D01*
X54963283Y-121686218D01*
X54939574Y-121677092D01*
X54914026Y-121655655D01*
X54893202Y-121642734D01*
X54876862Y-121624471D01*
X54851313Y-121603033D01*
X54838206Y-121581264D01*
X54827021Y-121568763D01*
X54813212Y-121539755D01*
X54791882Y-121504328D01*
X54787482Y-121485700D01*
X54783386Y-121477095D01*
X54773066Y-121424665D01*
X54768683Y-121406108D01*
X54766945Y-121386248D01*
X54655963Y-120117729D01*
X54655963Y-120117720D01*
X54655380Y-120111055D01*
X54656472Y-120092046D01*
X54657533Y-120038596D01*
X54660072Y-120029410D01*
X54661171Y-120010299D01*
X54676024Y-119971710D01*
X54684587Y-119940740D01*
X54693435Y-119926479D01*
X54702560Y-119902774D01*
X54723990Y-119877233D01*
X54736916Y-119856402D01*
X54755185Y-119840056D01*
X54776619Y-119814513D01*
X54798384Y-119801407D01*
X54810888Y-119790221D01*
X54839894Y-119776413D01*
X54875324Y-119755081D01*
X54893954Y-119750680D01*
X54902557Y-119746586D01*
X54954985Y-119736266D01*
X54973544Y-119731883D01*
X54980222Y-119731298D01*
X54980226Y-119731298D01*
X55265729Y-119706319D01*
X55265736Y-119706319D01*
X55272402Y-119705736D01*
X55291402Y-119706828D01*
X55344861Y-119707888D01*
X55354051Y-119710428D01*
X55373159Y-119711527D01*
X55411742Y-119726378D01*
X55442716Y-119734942D01*
X55456977Y-119743790D01*
X55480684Y-119752916D01*
X55506226Y-119774348D01*
X55527055Y-119787272D01*
X55543396Y-119805537D01*
X55568945Y-119826975D01*
X55575471Y-119837814D01*
X55694208Y-119827429D01*
X55698755Y-119815618D01*
X55720178Y-119790086D01*
X55733110Y-119769246D01*
X55751382Y-119752897D01*
X55772814Y-119727357D01*
X55794578Y-119714251D01*
X55807083Y-119703065D01*
X55836089Y-119689257D01*
X55871519Y-119667925D01*
X55890149Y-119663524D01*
X55898752Y-119659430D01*
X55951180Y-119649110D01*
X55969739Y-119644727D01*
X55976417Y-119644142D01*
X55976421Y-119644142D01*
X56261924Y-119619163D01*
X56261931Y-119619163D01*
X56268597Y-119618580D01*
X56287597Y-119619672D01*
X56341056Y-119620732D01*
X56350246Y-119623272D01*
X56369354Y-119624371D01*
X56407937Y-119639222D01*
X56438911Y-119647786D01*
X56453171Y-119656634D01*
X56476879Y-119665760D01*
X56502425Y-119687195D01*
X56523250Y-119700117D01*
X56539591Y-119718381D01*
X56565140Y-119739819D01*
X56571667Y-119750660D01*
X56690403Y-119740273D01*
X56694950Y-119728463D01*
X56716379Y-119702923D01*
X56729306Y-119682091D01*
X56747575Y-119665745D01*
X56769009Y-119640202D01*
X56790774Y-119627096D01*
X56803278Y-119615910D01*
X56832284Y-119602102D01*
X56867714Y-119580770D01*
X56886344Y-119576369D01*
X56894947Y-119572275D01*
X56947375Y-119561955D01*
X56965934Y-119557572D01*
X56972612Y-119556987D01*
X56972616Y-119556987D01*
X57258119Y-119532008D01*
X57258126Y-119532008D01*
X57264792Y-119531425D01*
X57283792Y-119532517D01*
X57337251Y-119533577D01*
X57346441Y-119536117D01*
X57365549Y-119537216D01*
X57404132Y-119552067D01*
X57435106Y-119560631D01*
X57449367Y-119569479D01*
X57473074Y-119578605D01*
X57498616Y-119600037D01*
X57519445Y-119612961D01*
X57535786Y-119631226D01*
X57561335Y-119652664D01*
X57567862Y-119663504D01*
X57686597Y-119653117D01*
X57691144Y-119641307D01*
X57712573Y-119615767D01*
X57725500Y-119594935D01*
X57743769Y-119578589D01*
X57765203Y-119553046D01*
X57786968Y-119539940D01*
X57799472Y-119528754D01*
X57828478Y-119514946D01*
X57863908Y-119493614D01*
X57882538Y-119489213D01*
X57891141Y-119485119D01*
X57943569Y-119474799D01*
X57962128Y-119470416D01*
X57968806Y-119469831D01*
X57968810Y-119469831D01*
X58254313Y-119444852D01*
X58254320Y-119444852D01*
X58260986Y-119444269D01*
X58279986Y-119445361D01*
X58333445Y-119446421D01*
X58342635Y-119448961D01*
X58361743Y-119450060D01*
X58400326Y-119464911D01*
X58431300Y-119473475D01*
X58445560Y-119482323D01*
X58469268Y-119491449D01*
X58494814Y-119512884D01*
X58515639Y-119525806D01*
X58531978Y-119544068D01*
X58557529Y-119565508D01*
X58570636Y-119587276D01*
X58581820Y-119599777D01*
X58595626Y-119628781D01*
X58616960Y-119664213D01*
X58621360Y-119682842D01*
X58625455Y-119691445D01*
X58635771Y-119743855D01*
X58640159Y-119762433D01*
X58724078Y-120721632D01*
X58963171Y-120711193D01*
X58963171Y-120021815D01*
X58963171Y-120013619D01*
X58966361Y-119997577D01*
X58970665Y-119964891D01*
X58974498Y-119956668D01*
X58978395Y-119937082D01*
X58995728Y-119911140D01*
X59000919Y-119900010D01*
X59007691Y-119893237D01*
X59021750Y-119872198D01*
X59042789Y-119858139D01*
X59049562Y-119851367D01*
X59060692Y-119846176D01*
X59086634Y-119828843D01*
X59106220Y-119824946D01*
X59114443Y-119821113D01*
X59147131Y-119816809D01*
X59163171Y-119813619D01*
X61363171Y-119813619D01*
X61379214Y-119816810D01*
X61411898Y-119821113D01*
X61420119Y-119824946D01*
X61439708Y-119828843D01*
X61465651Y-119846178D01*
X61476779Y-119851367D01*
X61483549Y-119858137D01*
X61504592Y-119872198D01*
X61518652Y-119893240D01*
X61550594Y-119925182D01*
X61664941Y-119913919D01*
X61723079Y-119831557D01*
X61787342Y-119735382D01*
X61805921Y-119714195D01*
X61824177Y-119688334D01*
X61896735Y-119610642D01*
X61968436Y-119528884D01*
X61994169Y-119506316D01*
X62019809Y-119478863D01*
X62098147Y-119415130D01*
X62174934Y-119347790D01*
X62208430Y-119325408D01*
X62242142Y-119297982D01*
X62323736Y-119248363D01*
X62403307Y-119195196D01*
X62444878Y-119174695D01*
X62487034Y-119149060D01*
X62569482Y-119113247D01*
X62649639Y-119073719D01*
X62699287Y-119056865D01*
X62749924Y-119034871D01*
X62831009Y-119012151D01*
X62909720Y-118985433D01*
X62967115Y-118974016D01*
X63025913Y-118957542D01*
X63103661Y-118946856D01*
X63179102Y-118931850D01*
X63243597Y-118927622D01*
X63309862Y-118918515D01*
X63382548Y-118918515D01*
X63453171Y-118913886D01*
X63523793Y-118918515D01*
G37*
G36*
X52169341Y-123360152D02*
G01*
X52214788Y-123360152D01*
X52265400Y-123369612D01*
X52321773Y-123375165D01*
X52364595Y-123388155D01*
X52403343Y-123395398D01*
X52457007Y-123416187D01*
X52516870Y-123434347D01*
X52551075Y-123452630D01*
X52582210Y-123464692D01*
X52636311Y-123498190D01*
X52696672Y-123530454D01*
X52722031Y-123551266D01*
X52745293Y-123565669D01*
X52796837Y-123612657D01*
X52854270Y-123659791D01*
X52871287Y-123680526D01*
X52887051Y-123694897D01*
X52932811Y-123755494D01*
X52983607Y-123817389D01*
X52993431Y-123835768D01*
X53002649Y-123847975D01*
X53039313Y-123921608D01*
X53079714Y-123997191D01*
X53084023Y-124011398D01*
X53088151Y-124019687D01*
X53112536Y-124105392D01*
X53138896Y-124192288D01*
X53139761Y-124201078D01*
X53140644Y-124204179D01*
X53149818Y-124303186D01*
X53158879Y-124395182D01*
X53149817Y-124487184D01*
X53140644Y-124586184D01*
X53139761Y-124589284D01*
X53138896Y-124598076D01*
X53112531Y-124684986D01*
X53088151Y-124770676D01*
X53084024Y-124778963D01*
X53079714Y-124793173D01*
X53039306Y-124868769D01*
X53002649Y-124942388D01*
X52993432Y-124954592D01*
X52983607Y-124972975D01*
X52932802Y-125034880D01*
X52887051Y-125095466D01*
X52871290Y-125109833D01*
X52854270Y-125130573D01*
X52796826Y-125177715D01*
X52745293Y-125224694D01*
X52722036Y-125239093D01*
X52696672Y-125259910D01*
X52636300Y-125292179D01*
X52582210Y-125325671D01*
X52551081Y-125337730D01*
X52516870Y-125356017D01*
X52456995Y-125374179D01*
X52403343Y-125394965D01*
X52364602Y-125402206D01*
X52321773Y-125415199D01*
X52265397Y-125420751D01*
X52214788Y-125430212D01*
X52169341Y-125430212D01*
X52118879Y-125435182D01*
X52113662Y-125434668D01*
X52107077Y-125438188D01*
X52046689Y-125456506D01*
X51992461Y-125477514D01*
X51953308Y-125484833D01*
X51910104Y-125497939D01*
X51853244Y-125503539D01*
X51802089Y-125513102D01*
X51756148Y-125513102D01*
X51705259Y-125518114D01*
X51654370Y-125513102D01*
X51608429Y-125513102D01*
X51557273Y-125503538D01*
X51500414Y-125497939D01*
X51457211Y-125484833D01*
X51418056Y-125477514D01*
X51363828Y-125456506D01*
X51303441Y-125438188D01*
X51268939Y-125419746D01*
X51237472Y-125407556D01*
X51182794Y-125373700D01*
X51121910Y-125341157D01*
X51096327Y-125320161D01*
X51072816Y-125305604D01*
X51020713Y-125258106D01*
X50962797Y-125210576D01*
X50945637Y-125189667D01*
X50929694Y-125175133D01*
X50883417Y-125113851D01*
X50832216Y-125051463D01*
X50822312Y-125032934D01*
X50812985Y-125020583D01*
X50775879Y-124946065D01*
X50735185Y-124869932D01*
X50730844Y-124855623D01*
X50726662Y-124847224D01*
X50701952Y-124760378D01*
X50675434Y-124672959D01*
X50674562Y-124664114D01*
X50673664Y-124660955D01*
X50664309Y-124560005D01*
X50655259Y-124468114D01*
X50664308Y-124376230D01*
X50673664Y-124275272D01*
X50674563Y-124272112D01*
X50675434Y-124263269D01*
X50701947Y-124175864D01*
X50726662Y-124089003D01*
X50730845Y-124080601D01*
X50735185Y-124066296D01*
X50775872Y-123990175D01*
X50812985Y-123915644D01*
X50822313Y-123903290D01*
X50832216Y-123884765D01*
X50883407Y-123822388D01*
X50929694Y-123761094D01*
X50945640Y-123746556D01*
X50962797Y-123725652D01*
X51020702Y-123678130D01*
X51072816Y-123630623D01*
X51096332Y-123616062D01*
X51121910Y-123595071D01*
X51182782Y-123562533D01*
X51237472Y-123528671D01*
X51268946Y-123516477D01*
X51303441Y-123498040D01*
X51363816Y-123479725D01*
X51418056Y-123458713D01*
X51457218Y-123451392D01*
X51500414Y-123438289D01*
X51557270Y-123432689D01*
X51608429Y-123423126D01*
X51654370Y-123423126D01*
X51705259Y-123418114D01*
X51752815Y-123422797D01*
X51768830Y-123419803D01*
X51780754Y-123416186D01*
X51834414Y-123395398D01*
X51873163Y-123388154D01*
X51915985Y-123375165D01*
X51972356Y-123369612D01*
X52022970Y-123360152D01*
X52068417Y-123360152D01*
X52118879Y-123355182D01*
X52169341Y-123360152D01*
G37*
G36*
X22723799Y-122547557D02*
G01*
X22736034Y-122548628D01*
X22744713Y-122552675D01*
X22769294Y-122558690D01*
X22789700Y-122573652D01*
X22798381Y-122577700D01*
X22807066Y-122586385D01*
X22832226Y-122604833D01*
X22842586Y-122621906D01*
X22849001Y-122628321D01*
X22864222Y-122657562D01*
X22872709Y-122671547D01*
X23283133Y-123799178D01*
X23285619Y-123815331D01*
X23292757Y-123847529D01*
X23291966Y-123856568D01*
X23295004Y-123876307D01*
X23287586Y-123906617D01*
X23286517Y-123918846D01*
X23282471Y-123927520D01*
X23276456Y-123952106D01*
X23261491Y-123972515D01*
X23257445Y-123981193D01*
X23248763Y-123989874D01*
X23230313Y-124015038D01*
X23213237Y-124025399D01*
X23206824Y-124031813D01*
X23177589Y-124047031D01*
X23163599Y-124055521D01*
X22035968Y-124465945D01*
X22019807Y-124468432D01*
X21987618Y-124475568D01*
X21978581Y-124474777D01*
X21958839Y-124477816D01*
X21932762Y-124471435D01*
X21883632Y-124489317D01*
X21867759Y-124510967D01*
X21850680Y-124521330D01*
X21844269Y-124527742D01*
X21815038Y-124542958D01*
X21801045Y-124551450D01*
X20673414Y-124961874D01*
X20657256Y-124964360D01*
X20625062Y-124971498D01*
X20616022Y-124970707D01*
X20596285Y-124973745D01*
X20565974Y-124966328D01*
X20553745Y-124965258D01*
X20545069Y-124961212D01*
X20520486Y-124955197D01*
X20500077Y-124940233D01*
X20491398Y-124936186D01*
X20482713Y-124927501D01*
X20457554Y-124909054D01*
X20447193Y-124891980D01*
X20440778Y-124885565D01*
X20425553Y-124856319D01*
X20417071Y-124842340D01*
X20218249Y-124296081D01*
X20009447Y-123722404D01*
X20009445Y-123722398D01*
X20006647Y-123714709D01*
X20004162Y-123698566D01*
X19997022Y-123666357D01*
X19997813Y-123657313D01*
X19994776Y-123637580D01*
X20002191Y-123607275D01*
X20003262Y-123595040D01*
X20007309Y-123586359D01*
X20013324Y-123561781D01*
X20028284Y-123541376D01*
X20032334Y-123532693D01*
X20041021Y-123524005D01*
X20059467Y-123498849D01*
X20076537Y-123488490D01*
X20082955Y-123482073D01*
X20112207Y-123466845D01*
X20126181Y-123458366D01*
X20237210Y-123417954D01*
X21246116Y-123050742D01*
X21246123Y-123050740D01*
X21253812Y-123047942D01*
X21269951Y-123045458D01*
X21302163Y-123038317D01*
X21311207Y-123039108D01*
X21330941Y-123036071D01*
X21357013Y-123042450D01*
X21406148Y-123024568D01*
X21422021Y-123002920D01*
X21439089Y-122992562D01*
X21445508Y-122986144D01*
X21474764Y-122970914D01*
X21488735Y-122962437D01*
X21607739Y-122919123D01*
X22608670Y-122554813D01*
X22608677Y-122554811D01*
X22616366Y-122552013D01*
X22632505Y-122549529D01*
X22664717Y-122542388D01*
X22673760Y-122543179D01*
X22693495Y-122540142D01*
X22723799Y-122547557D01*
G37*
G36*
X72394060Y-122508631D02*
G01*
X72440002Y-122508631D01*
X72491165Y-122518194D01*
X72548016Y-122523794D01*
X72575429Y-122532109D01*
X72616640Y-122528050D01*
X72667260Y-122518589D01*
X72712709Y-122518589D01*
X72763171Y-122513619D01*
X72813633Y-122518589D01*
X72859080Y-122518589D01*
X72909692Y-122528049D01*
X72966065Y-122533602D01*
X73008887Y-122546592D01*
X73047635Y-122553835D01*
X73101299Y-122574624D01*
X73161162Y-122592784D01*
X73195367Y-122611067D01*
X73226502Y-122623129D01*
X73280603Y-122656627D01*
X73340964Y-122688891D01*
X73366323Y-122709703D01*
X73389585Y-122724106D01*
X73441129Y-122771094D01*
X73498562Y-122818228D01*
X73515579Y-122838963D01*
X73531343Y-122853334D01*
X73577103Y-122913931D01*
X73627899Y-122975826D01*
X73637723Y-122994205D01*
X73646941Y-123006412D01*
X73683605Y-123080045D01*
X73724006Y-123155628D01*
X73728315Y-123169835D01*
X73732443Y-123178124D01*
X73756828Y-123263829D01*
X73783188Y-123350725D01*
X73784053Y-123359515D01*
X73784936Y-123362616D01*
X73794110Y-123461623D01*
X73803171Y-123553619D01*
X73794109Y-123645621D01*
X73784936Y-123744621D01*
X73784053Y-123747721D01*
X73783188Y-123756513D01*
X73756823Y-123843423D01*
X73732443Y-123929113D01*
X73728316Y-123937400D01*
X73724006Y-123951610D01*
X73683598Y-124027206D01*
X73646941Y-124100825D01*
X73637724Y-124113029D01*
X73627899Y-124131412D01*
X73577094Y-124193317D01*
X73531343Y-124253903D01*
X73515582Y-124268270D01*
X73498562Y-124289010D01*
X73441118Y-124336152D01*
X73389585Y-124383131D01*
X73366328Y-124397530D01*
X73340964Y-124418347D01*
X73280592Y-124450616D01*
X73226502Y-124484108D01*
X73195373Y-124496167D01*
X73161162Y-124514454D01*
X73101287Y-124532616D01*
X73047635Y-124553402D01*
X73008894Y-124560643D01*
X72966065Y-124573636D01*
X72909689Y-124579188D01*
X72859080Y-124588649D01*
X72813633Y-124588649D01*
X72763171Y-124593619D01*
X72712709Y-124588649D01*
X72667263Y-124588649D01*
X72616651Y-124579188D01*
X72575429Y-124575128D01*
X72548016Y-124583444D01*
X72491159Y-124589043D01*
X72440001Y-124598607D01*
X72394060Y-124598607D01*
X72343171Y-124603619D01*
X72292282Y-124598607D01*
X72246341Y-124598607D01*
X72195185Y-124589043D01*
X72138326Y-124583444D01*
X72095123Y-124570338D01*
X72055968Y-124563019D01*
X72001740Y-124542011D01*
X71941353Y-124523693D01*
X71906851Y-124505251D01*
X71875384Y-124493061D01*
X71820706Y-124459205D01*
X71759822Y-124426662D01*
X71734239Y-124405666D01*
X71710728Y-124391109D01*
X71658625Y-124343611D01*
X71600709Y-124296081D01*
X71583549Y-124275172D01*
X71567606Y-124260638D01*
X71521329Y-124199356D01*
X71470128Y-124136968D01*
X71460224Y-124118439D01*
X71450897Y-124106088D01*
X71413791Y-124031570D01*
X71373097Y-123955437D01*
X71368756Y-123941128D01*
X71364574Y-123932729D01*
X71339864Y-123845883D01*
X71313346Y-123758464D01*
X71312474Y-123749619D01*
X71311576Y-123746460D01*
X71302221Y-123645510D01*
X71293171Y-123553619D01*
X71302220Y-123461735D01*
X71311576Y-123360777D01*
X71312475Y-123357617D01*
X71313346Y-123348774D01*
X71339859Y-123261369D01*
X71364574Y-123174508D01*
X71368757Y-123166106D01*
X71373097Y-123151801D01*
X71413784Y-123075680D01*
X71450897Y-123001149D01*
X71460225Y-122988795D01*
X71470128Y-122970270D01*
X71521319Y-122907893D01*
X71567606Y-122846599D01*
X71583552Y-122832061D01*
X71600709Y-122811157D01*
X71658614Y-122763635D01*
X71710728Y-122716128D01*
X71734244Y-122701567D01*
X71759822Y-122680576D01*
X71820694Y-122648038D01*
X71875384Y-122614176D01*
X71906858Y-122601982D01*
X71941353Y-122583545D01*
X72001728Y-122565230D01*
X72055968Y-122544218D01*
X72095130Y-122536897D01*
X72138326Y-122523794D01*
X72195182Y-122518194D01*
X72246341Y-122508631D01*
X72292282Y-122508631D01*
X72343171Y-122503619D01*
X72394060Y-122508631D01*
G37*
G36*
X26975631Y-121038147D02*
G01*
X27014214Y-121038147D01*
X27057738Y-121047398D01*
X27108678Y-121053138D01*
X27145720Y-121066099D01*
X27177657Y-121072888D01*
X27223684Y-121093380D01*
X27277768Y-121112305D01*
X27305916Y-121129992D01*
X27330318Y-121140856D01*
X27375814Y-121173911D01*
X27429453Y-121207615D01*
X27448718Y-121226880D01*
X27465504Y-121239076D01*
X27507003Y-121285165D01*
X27556126Y-121334288D01*
X27567424Y-121352269D01*
X27577317Y-121363256D01*
X27611163Y-121421880D01*
X27651436Y-121485973D01*
X27656463Y-121500341D01*
X27660868Y-121507970D01*
X27683424Y-121577390D01*
X27710603Y-121655063D01*
X27711633Y-121664208D01*
X27712506Y-121666894D01*
X27720413Y-121742129D01*
X27730661Y-121833080D01*
X27720412Y-121924038D01*
X27712506Y-121999265D01*
X27711633Y-122001949D01*
X27710603Y-122011097D01*
X27683419Y-122088782D01*
X27660868Y-122158189D01*
X27656464Y-122165815D01*
X27651436Y-122180187D01*
X27611156Y-122244290D01*
X27577317Y-122302903D01*
X27567426Y-122313887D01*
X27556126Y-122331872D01*
X27506994Y-122381003D01*
X27465504Y-122427083D01*
X27448721Y-122439276D01*
X27429453Y-122458545D01*
X27375804Y-122492254D01*
X27330318Y-122525303D01*
X27305922Y-122536164D01*
X27277768Y-122553855D01*
X27223673Y-122572783D01*
X27177657Y-122593271D01*
X27145726Y-122600058D01*
X27108678Y-122613022D01*
X27057735Y-122618761D01*
X27014214Y-122628013D01*
X26975631Y-122628013D01*
X26930661Y-122633080D01*
X26885691Y-122628013D01*
X26847109Y-122628013D01*
X26803589Y-122618762D01*
X26752644Y-122613022D01*
X26715593Y-122600057D01*
X26626917Y-122581208D01*
X26536389Y-122648196D01*
X26533904Y-122676591D01*
X26536944Y-122696337D01*
X26529525Y-122726653D01*
X26528456Y-122738879D01*
X26524411Y-122747552D01*
X26518396Y-122772136D01*
X26503431Y-122792545D01*
X26499385Y-122801223D01*
X26490703Y-122809904D01*
X26472253Y-122835068D01*
X26455177Y-122845429D01*
X26448764Y-122851843D01*
X26419529Y-122867061D01*
X26405539Y-122875551D01*
X25277908Y-123285975D01*
X25261750Y-123288461D01*
X25229556Y-123295599D01*
X25220516Y-123294808D01*
X25200779Y-123297846D01*
X25170468Y-123290429D01*
X25158239Y-123289359D01*
X25149563Y-123285313D01*
X25124980Y-123279298D01*
X25104571Y-123264334D01*
X25095892Y-123260287D01*
X25087207Y-123251602D01*
X25062048Y-123233155D01*
X25051687Y-123216081D01*
X25045272Y-123209666D01*
X25030047Y-123180420D01*
X25021565Y-123166441D01*
X24857665Y-122716128D01*
X24613941Y-122046505D01*
X24613939Y-122046499D01*
X24611141Y-122038810D01*
X24608656Y-122022667D01*
X24601516Y-121990458D01*
X24602307Y-121981414D01*
X24599270Y-121961681D01*
X24606685Y-121931376D01*
X24607756Y-121919141D01*
X24611803Y-121910460D01*
X24617818Y-121885882D01*
X24632778Y-121865477D01*
X24636828Y-121856794D01*
X24645515Y-121848106D01*
X24663961Y-121822950D01*
X24681031Y-121812591D01*
X24687449Y-121806174D01*
X24716701Y-121790946D01*
X24730675Y-121782467D01*
X24892169Y-121723688D01*
X25850610Y-121374843D01*
X25850617Y-121374841D01*
X25858306Y-121372043D01*
X25874445Y-121369559D01*
X25906657Y-121362418D01*
X25915700Y-121363209D01*
X25935435Y-121360172D01*
X25965739Y-121367587D01*
X25977974Y-121368658D01*
X25986653Y-121372705D01*
X26011234Y-121378720D01*
X26031639Y-121393681D01*
X26040319Y-121397729D01*
X26049003Y-121406413D01*
X26074166Y-121424863D01*
X26084525Y-121441934D01*
X26110590Y-121467999D01*
X26231152Y-121452127D01*
X26250137Y-121421913D01*
X26284003Y-121363256D01*
X26293902Y-121352262D01*
X26305196Y-121334288D01*
X26354304Y-121285179D01*
X26395817Y-121239076D01*
X26412606Y-121226877D01*
X26431869Y-121207615D01*
X26485506Y-121173912D01*
X26531007Y-121140854D01*
X26555409Y-121129989D01*
X26583554Y-121112305D01*
X26637623Y-121093385D01*
X26683659Y-121072889D01*
X26715603Y-121066099D01*
X26752644Y-121053138D01*
X26803583Y-121047398D01*
X26847108Y-121038147D01*
X26885691Y-121038147D01*
X26930661Y-121033080D01*
X26975631Y-121038147D01*
G37*
G36*
X91275050Y-118695930D02*
G01*
X91347737Y-118695930D01*
X91414001Y-118705037D01*
X91478496Y-118709265D01*
X91553934Y-118724270D01*
X91631686Y-118734957D01*
X91690486Y-118751432D01*
X91747878Y-118762848D01*
X91826584Y-118789565D01*
X91907675Y-118812286D01*
X91958315Y-118834282D01*
X92007962Y-118851135D01*
X92088119Y-118890663D01*
X92170565Y-118926475D01*
X92212716Y-118952107D01*
X92254289Y-118972609D01*
X92333858Y-119025775D01*
X92415457Y-119075397D01*
X92449172Y-119102826D01*
X92482664Y-119125205D01*
X92559437Y-119192533D01*
X92637790Y-119256278D01*
X92663434Y-119283736D01*
X92689162Y-119306299D01*
X92760847Y-119388040D01*
X92833422Y-119465749D01*
X92851681Y-119491616D01*
X92870256Y-119512797D01*
X92934492Y-119608933D01*
X92998709Y-119699908D01*
X93010553Y-119722767D01*
X93022852Y-119741173D01*
X93077281Y-119851546D01*
X93130572Y-119954392D01*
X93137210Y-119973070D01*
X93150046Y-119999099D01*
X93261367Y-120027631D01*
X93274572Y-120018384D01*
X93292066Y-120000111D01*
X93315222Y-119989921D01*
X93323070Y-119984427D01*
X93334934Y-119981248D01*
X93363492Y-119968682D01*
X93383458Y-119968246D01*
X93392223Y-119965898D01*
X93425162Y-119967336D01*
X93441510Y-119966980D01*
X94290580Y-120116694D01*
X95600019Y-120347583D01*
X95600021Y-120347583D01*
X95608087Y-120349006D01*
X95623322Y-120354930D01*
X95654773Y-120364847D01*
X95662205Y-120370051D01*
X95680818Y-120377289D01*
X95703354Y-120398862D01*
X95713416Y-120405908D01*
X95718910Y-120413754D01*
X95737188Y-120431252D01*
X95747379Y-120454412D01*
X95752871Y-120462256D01*
X95756048Y-120474115D01*
X95768617Y-120502679D01*
X95769052Y-120522649D01*
X95771400Y-120531410D01*
X95769962Y-120564333D01*
X95770319Y-120580697D01*
X95423023Y-122550312D01*
X95417093Y-122565560D01*
X95407181Y-122596998D01*
X95401979Y-122604427D01*
X95394740Y-122623043D01*
X95373163Y-122645581D01*
X95366120Y-122655641D01*
X95358274Y-122661134D01*
X95340776Y-122679413D01*
X95317614Y-122689604D01*
X95309772Y-122695096D01*
X95297914Y-122698273D01*
X95269350Y-122710842D01*
X95249378Y-122711277D01*
X95240618Y-122713625D01*
X95207694Y-122712187D01*
X95191332Y-122712544D01*
X93024755Y-122330518D01*
X93009510Y-122324589D01*
X92978068Y-122314676D01*
X92970637Y-122309473D01*
X92952024Y-122302235D01*
X92929485Y-122280658D01*
X92919427Y-122273616D01*
X92913934Y-122265772D01*
X92895654Y-122248272D01*
X92885461Y-122225108D01*
X92874520Y-122209482D01*
X92753104Y-122202854D01*
X92689164Y-122275767D01*
X92663436Y-122298329D01*
X92637790Y-122325790D01*
X92559426Y-122389543D01*
X92482664Y-122456862D01*
X92449179Y-122479235D01*
X92415457Y-122506671D01*
X92333842Y-122556302D01*
X92254289Y-122609458D01*
X92212725Y-122629954D01*
X92170565Y-122655593D01*
X92088102Y-122691411D01*
X92007962Y-122730932D01*
X91958325Y-122747781D01*
X91907675Y-122769782D01*
X91826567Y-122792507D01*
X91747878Y-122819219D01*
X91690498Y-122830632D01*
X91631686Y-122847111D01*
X91553918Y-122857799D01*
X91478496Y-122872802D01*
X91414015Y-122877028D01*
X91347737Y-122886138D01*
X91275035Y-122886138D01*
X91204428Y-122890766D01*
X91133821Y-122886138D01*
X91061119Y-122886138D01*
X90994841Y-122877028D01*
X90930359Y-122872802D01*
X90854934Y-122857799D01*
X90777170Y-122847111D01*
X90718359Y-122830633D01*
X90660977Y-122819219D01*
X90582282Y-122792505D01*
X90501181Y-122769782D01*
X90450533Y-122747782D01*
X90400893Y-122730932D01*
X90320745Y-122691408D01*
X90238291Y-122655593D01*
X90196134Y-122629957D01*
X90154566Y-122609458D01*
X90075002Y-122556295D01*
X89993399Y-122506671D01*
X89959680Y-122479239D01*
X89926191Y-122456862D01*
X89849419Y-122389535D01*
X89771066Y-122325790D01*
X89745420Y-122298330D01*
X89719693Y-122275768D01*
X89648006Y-122194025D01*
X89575434Y-122116319D01*
X89557175Y-122090452D01*
X89538599Y-122069270D01*
X89474352Y-121973118D01*
X89410147Y-121882160D01*
X89398305Y-121859306D01*
X89386003Y-121840895D01*
X89331554Y-121730482D01*
X89278284Y-121627676D01*
X89271648Y-121609004D01*
X89264529Y-121594568D01*
X89222188Y-121469838D01*
X89182302Y-121357607D01*
X89179477Y-121344016D01*
X89176242Y-121334484D01*
X89148165Y-121193331D01*
X89123988Y-121076984D01*
X89123445Y-121069057D01*
X89122659Y-121065102D01*
X89110818Y-120884462D01*
X89104428Y-120791034D01*
X89110818Y-120697612D01*
X89122659Y-120516965D01*
X89123445Y-120513008D01*
X89123988Y-120505084D01*
X89148160Y-120388758D01*
X89176242Y-120247583D01*
X89179478Y-120238048D01*
X89182302Y-120224461D01*
X89222181Y-120112250D01*
X89264528Y-119987502D01*
X89271648Y-119973063D01*
X89278284Y-119954392D01*
X89331559Y-119851574D01*
X89386005Y-119741170D01*
X89398305Y-119722760D01*
X89410147Y-119699908D01*
X89474344Y-119608960D01*
X89538599Y-119512797D01*
X89557178Y-119491610D01*
X89575434Y-119465749D01*
X89647992Y-119388057D01*
X89719693Y-119306299D01*
X89745426Y-119283731D01*
X89771066Y-119256278D01*
X89849404Y-119192545D01*
X89926191Y-119125205D01*
X89959687Y-119102823D01*
X89993399Y-119075397D01*
X90074993Y-119025778D01*
X90154564Y-118972611D01*
X90196135Y-118952110D01*
X90238291Y-118926475D01*
X90320739Y-118890662D01*
X90400896Y-118851134D01*
X90450544Y-118834280D01*
X90501181Y-118812286D01*
X90582266Y-118789566D01*
X90660977Y-118762848D01*
X90718372Y-118751431D01*
X90777170Y-118734957D01*
X90854918Y-118724271D01*
X90930359Y-118709265D01*
X90994854Y-118705037D01*
X91061119Y-118695930D01*
X91133805Y-118695930D01*
X91204428Y-118691301D01*
X91275050Y-118695930D01*
G37*
G36*
X48392337Y-117811253D02*
G01*
X48465024Y-117811253D01*
X48531288Y-117820360D01*
X48595783Y-117824588D01*
X48671221Y-117839593D01*
X48748973Y-117850280D01*
X48807773Y-117866755D01*
X48865165Y-117878171D01*
X48943871Y-117904888D01*
X49024962Y-117927609D01*
X49075602Y-117949605D01*
X49125249Y-117966458D01*
X49205406Y-118005986D01*
X49287852Y-118041798D01*
X49330003Y-118067430D01*
X49371576Y-118087932D01*
X49451145Y-118141098D01*
X49532744Y-118190720D01*
X49566459Y-118218149D01*
X49599951Y-118240528D01*
X49676725Y-118307857D01*
X49755077Y-118371601D01*
X49780720Y-118399058D01*
X49806448Y-118421621D01*
X49870391Y-118494535D01*
X49991804Y-118487908D01*
X50002751Y-118472272D01*
X50012940Y-118449119D01*
X50031213Y-118431625D01*
X50036710Y-118423776D01*
X50046775Y-118416728D01*
X50069310Y-118395156D01*
X50087920Y-118387918D01*
X50095354Y-118382714D01*
X50126807Y-118372796D01*
X50142041Y-118366873D01*
X50358990Y-118328619D01*
X52300549Y-117986269D01*
X52300554Y-117986268D01*
X52308618Y-117984847D01*
X52324956Y-117985203D01*
X52357904Y-117983765D01*
X52366668Y-117986113D01*
X52386636Y-117986549D01*
X52415194Y-117999115D01*
X52427058Y-118002294D01*
X52434904Y-118007788D01*
X52458062Y-118017978D01*
X52475557Y-118036253D01*
X52483406Y-118041749D01*
X52490452Y-118051812D01*
X52512026Y-118074348D01*
X52519264Y-118092961D01*
X52524467Y-118100392D01*
X52534379Y-118131831D01*
X52540309Y-118147079D01*
X52887605Y-120116694D01*
X52887248Y-120133047D01*
X52888686Y-120165980D01*
X52886338Y-120174740D01*
X52885903Y-120194712D01*
X52873333Y-120223277D01*
X52870157Y-120235134D01*
X52864666Y-120242975D01*
X52854474Y-120266139D01*
X52836194Y-120283638D01*
X52830702Y-120291482D01*
X52820643Y-120298524D01*
X52798104Y-120320102D01*
X52779488Y-120327341D01*
X52772059Y-120332543D01*
X52740624Y-120342454D01*
X52725373Y-120348385D01*
X50558796Y-120730411D01*
X50542441Y-120730054D01*
X50509509Y-120731492D01*
X50500748Y-120729144D01*
X50480778Y-120728709D01*
X50452212Y-120716139D01*
X50440357Y-120712963D01*
X50432516Y-120707472D01*
X50409352Y-120697280D01*
X50391848Y-120678995D01*
X50378657Y-120669759D01*
X50267333Y-120698290D01*
X50254499Y-120724313D01*
X50247859Y-120742999D01*
X50194559Y-120845861D01*
X50140139Y-120956218D01*
X50127841Y-120974623D01*
X50115996Y-120997483D01*
X50051772Y-121088467D01*
X49987543Y-121184593D01*
X49968971Y-121205769D01*
X49950709Y-121231642D01*
X49878119Y-121309366D01*
X49806449Y-121391091D01*
X49780726Y-121413648D01*
X49755077Y-121441113D01*
X49676709Y-121504869D01*
X49599951Y-121572185D01*
X49566466Y-121594558D01*
X49532744Y-121621994D01*
X49451129Y-121671625D01*
X49371576Y-121724781D01*
X49330012Y-121745277D01*
X49287852Y-121770916D01*
X49205389Y-121806734D01*
X49125249Y-121846255D01*
X49075612Y-121863104D01*
X49024962Y-121885105D01*
X48943854Y-121907830D01*
X48865165Y-121934542D01*
X48807785Y-121945955D01*
X48748973Y-121962434D01*
X48671205Y-121973122D01*
X48595783Y-121988125D01*
X48531302Y-121992351D01*
X48465024Y-122001461D01*
X48392322Y-122001461D01*
X48321715Y-122006089D01*
X48251108Y-122001461D01*
X48178406Y-122001461D01*
X48112128Y-121992351D01*
X48047646Y-121988125D01*
X47972221Y-121973122D01*
X47894457Y-121962434D01*
X47835646Y-121945956D01*
X47778264Y-121934542D01*
X47699569Y-121907828D01*
X47618468Y-121885105D01*
X47567820Y-121863105D01*
X47518180Y-121846255D01*
X47438032Y-121806731D01*
X47355578Y-121770916D01*
X47313421Y-121745280D01*
X47271853Y-121724781D01*
X47192289Y-121671618D01*
X47110686Y-121621994D01*
X47076967Y-121594562D01*
X47043478Y-121572185D01*
X46966706Y-121504858D01*
X46888353Y-121441113D01*
X46862707Y-121413653D01*
X46836980Y-121391091D01*
X46765293Y-121309348D01*
X46692721Y-121231642D01*
X46674462Y-121205775D01*
X46655886Y-121184593D01*
X46591639Y-121088441D01*
X46527434Y-120997483D01*
X46515592Y-120974629D01*
X46503290Y-120956218D01*
X46448841Y-120845805D01*
X46395571Y-120742999D01*
X46388935Y-120724327D01*
X46381816Y-120709891D01*
X46339475Y-120585161D01*
X46299589Y-120472930D01*
X46296764Y-120459339D01*
X46293529Y-120449807D01*
X46265452Y-120308654D01*
X46241275Y-120192307D01*
X46240732Y-120184380D01*
X46239946Y-120180425D01*
X46228105Y-119999785D01*
X46221715Y-119906357D01*
X46228105Y-119812935D01*
X46239946Y-119632288D01*
X46240732Y-119628331D01*
X46241275Y-119620407D01*
X46265447Y-119504081D01*
X46293529Y-119362906D01*
X46296765Y-119353371D01*
X46299589Y-119339784D01*
X46339468Y-119227573D01*
X46381815Y-119102825D01*
X46388935Y-119088386D01*
X46395571Y-119069715D01*
X46448846Y-118966897D01*
X46503292Y-118856493D01*
X46515592Y-118838083D01*
X46527434Y-118815231D01*
X46591631Y-118724283D01*
X46655886Y-118628120D01*
X46674465Y-118606933D01*
X46692721Y-118581072D01*
X46765279Y-118503380D01*
X46836980Y-118421622D01*
X46862713Y-118399054D01*
X46888353Y-118371601D01*
X46966691Y-118307868D01*
X47043478Y-118240528D01*
X47076974Y-118218146D01*
X47110686Y-118190720D01*
X47192280Y-118141101D01*
X47271851Y-118087934D01*
X47313422Y-118067433D01*
X47355578Y-118041798D01*
X47438026Y-118005985D01*
X47518183Y-117966457D01*
X47567831Y-117949603D01*
X47618468Y-117927609D01*
X47699553Y-117904889D01*
X47778264Y-117878171D01*
X47835659Y-117866754D01*
X47894457Y-117850280D01*
X47972205Y-117839594D01*
X48047646Y-117824588D01*
X48112141Y-117820360D01*
X48178406Y-117811253D01*
X48251092Y-117811253D01*
X48321715Y-117806624D01*
X48392337Y-117811253D01*
G37*
G36*
X76319045Y-119448966D02*
G01*
X76557527Y-119469830D01*
X76557535Y-119469831D01*
X76564203Y-119470415D01*
X76582741Y-119474793D01*
X76635185Y-119485117D01*
X76643786Y-119489211D01*
X76662423Y-119493613D01*
X76697858Y-119514949D01*
X76726858Y-119528753D01*
X76739359Y-119539937D01*
X76761128Y-119553045D01*
X76782564Y-119578591D01*
X76800829Y-119594933D01*
X76813748Y-119615756D01*
X76835187Y-119641306D01*
X76839732Y-119653114D01*
X76958467Y-119663505D01*
X76964996Y-119652663D01*
X76990535Y-119631233D01*
X77006884Y-119612961D01*
X77027715Y-119600035D01*
X77053257Y-119578604D01*
X77076961Y-119569479D01*
X77091224Y-119560630D01*
X77122201Y-119552065D01*
X77160782Y-119537215D01*
X77179887Y-119536116D01*
X77189078Y-119533576D01*
X77242521Y-119532517D01*
X77261539Y-119531424D01*
X77315239Y-119536122D01*
X77553721Y-119556986D01*
X77553729Y-119556987D01*
X77560397Y-119557571D01*
X77578935Y-119561949D01*
X77631379Y-119572273D01*
X77639980Y-119576367D01*
X77658617Y-119580769D01*
X77694052Y-119602105D01*
X77723052Y-119615909D01*
X77735553Y-119627093D01*
X77757322Y-119640201D01*
X77778758Y-119665747D01*
X77797023Y-119682089D01*
X77809941Y-119702911D01*
X77831381Y-119728462D01*
X77835926Y-119740270D01*
X77954661Y-119750661D01*
X77961191Y-119739818D01*
X77986729Y-119718388D01*
X78003078Y-119700117D01*
X78023909Y-119687191D01*
X78049452Y-119665759D01*
X78073156Y-119656634D01*
X78087419Y-119647785D01*
X78118396Y-119639220D01*
X78156977Y-119624370D01*
X78176082Y-119623271D01*
X78185273Y-119620731D01*
X78238716Y-119619672D01*
X78257734Y-119618579D01*
X78311434Y-119623277D01*
X78549916Y-119644141D01*
X78549924Y-119644142D01*
X78556592Y-119644726D01*
X78575130Y-119649104D01*
X78627574Y-119659428D01*
X78636175Y-119663522D01*
X78654812Y-119667924D01*
X78690247Y-119689260D01*
X78719247Y-119703064D01*
X78731748Y-119714248D01*
X78753517Y-119727356D01*
X78774953Y-119752903D01*
X78793219Y-119769245D01*
X78806143Y-119790074D01*
X78827576Y-119815617D01*
X78832121Y-119827426D01*
X78950858Y-119837815D01*
X78957386Y-119826974D01*
X78982925Y-119805544D01*
X78999274Y-119787272D01*
X79020105Y-119774346D01*
X79045647Y-119752915D01*
X79069351Y-119743790D01*
X79083614Y-119734941D01*
X79114591Y-119726376D01*
X79153172Y-119711526D01*
X79172277Y-119710427D01*
X79181468Y-119707887D01*
X79234911Y-119706828D01*
X79253929Y-119705735D01*
X79307629Y-119710433D01*
X79546111Y-119731297D01*
X79546119Y-119731298D01*
X79552787Y-119731882D01*
X79571325Y-119736260D01*
X79623769Y-119746584D01*
X79632370Y-119750678D01*
X79651007Y-119755080D01*
X79686442Y-119776416D01*
X79715442Y-119790220D01*
X79727943Y-119801404D01*
X79749712Y-119814512D01*
X79771148Y-119840059D01*
X79789414Y-119856401D01*
X79802336Y-119877228D01*
X79823771Y-119902773D01*
X79832897Y-119926482D01*
X79841743Y-119940739D01*
X79850302Y-119971700D01*
X79865160Y-120010298D01*
X79866258Y-120029413D01*
X79868797Y-120038595D01*
X79869855Y-120092000D01*
X79870951Y-120111054D01*
X79757648Y-121406107D01*
X79753259Y-121424686D01*
X79742944Y-121477094D01*
X79738849Y-121485695D01*
X79734449Y-121504327D01*
X79713113Y-121539762D01*
X79699309Y-121568762D01*
X79688126Y-121581260D01*
X79675018Y-121603032D01*
X79649464Y-121624474D01*
X79633128Y-121642733D01*
X79612307Y-121655651D01*
X79586757Y-121677091D01*
X79563045Y-121686218D01*
X79548789Y-121695064D01*
X79517824Y-121703624D01*
X79479232Y-121718480D01*
X79460120Y-121719578D01*
X79450935Y-121722118D01*
X79397519Y-121723176D01*
X79378475Y-121724271D01*
X79087896Y-121698848D01*
X79086292Y-121698708D01*
X79086291Y-121698707D01*
X79079617Y-121698124D01*
X79061058Y-121693740D01*
X79008634Y-121683421D01*
X79000035Y-121679328D01*
X78981397Y-121674926D01*
X78945957Y-121653587D01*
X78916961Y-121639785D01*
X78904460Y-121628601D01*
X78882692Y-121615494D01*
X78861254Y-121589945D01*
X78842988Y-121573603D01*
X78830061Y-121552770D01*
X78808633Y-121527233D01*
X78804085Y-121515420D01*
X78685350Y-121505035D01*
X78678823Y-121515876D01*
X78653265Y-121537321D01*
X78636931Y-121555579D01*
X78616109Y-121568497D01*
X78590562Y-121589935D01*
X78566850Y-121599062D01*
X78552594Y-121607908D01*
X78521629Y-121616468D01*
X78483037Y-121631324D01*
X78463925Y-121632422D01*
X78454740Y-121634962D01*
X78401324Y-121636020D01*
X78382280Y-121637115D01*
X78091701Y-121611692D01*
X78090097Y-121611552D01*
X78090096Y-121611551D01*
X78083422Y-121610968D01*
X78064863Y-121606584D01*
X78012439Y-121596265D01*
X78003840Y-121592172D01*
X77985202Y-121587770D01*
X77949762Y-121566431D01*
X77920766Y-121552629D01*
X77908265Y-121541445D01*
X77886497Y-121528338D01*
X77865060Y-121502790D01*
X77846795Y-121486449D01*
X77833873Y-121465623D01*
X77812438Y-121440077D01*
X77807891Y-121428265D01*
X77689156Y-121417878D01*
X77682628Y-121428721D01*
X77657073Y-121450163D01*
X77640738Y-121468423D01*
X77619914Y-121481343D01*
X77594367Y-121502780D01*
X77570655Y-121511906D01*
X77556399Y-121520753D01*
X77525434Y-121529313D01*
X77486842Y-121544169D01*
X77467730Y-121545267D01*
X77458545Y-121547807D01*
X77405129Y-121548865D01*
X77386085Y-121549960D01*
X77095506Y-121524537D01*
X77093902Y-121524397D01*
X77093901Y-121524396D01*
X77087227Y-121523813D01*
X77068668Y-121519429D01*
X77016244Y-121509110D01*
X77007645Y-121505017D01*
X76989007Y-121500615D01*
X76953567Y-121479276D01*
X76924571Y-121465474D01*
X76912070Y-121454290D01*
X76890302Y-121441183D01*
X76868865Y-121415635D01*
X76850600Y-121399294D01*
X76837678Y-121378468D01*
X76816243Y-121352922D01*
X76811696Y-121341110D01*
X76692961Y-121330723D01*
X76686434Y-121341565D01*
X76660876Y-121363009D01*
X76644542Y-121381268D01*
X76623720Y-121394186D01*
X76598173Y-121415624D01*
X76574461Y-121424751D01*
X76560205Y-121433597D01*
X76529240Y-121442157D01*
X76490648Y-121457013D01*
X76471536Y-121458111D01*
X76462351Y-121460651D01*
X76408935Y-121461709D01*
X76389891Y-121462804D01*
X76099312Y-121437381D01*
X76097708Y-121437241D01*
X76097707Y-121437240D01*
X76091033Y-121436657D01*
X76072474Y-121432273D01*
X76020050Y-121421954D01*
X76011451Y-121417861D01*
X75992813Y-121413459D01*
X75957373Y-121392120D01*
X75928377Y-121378318D01*
X75915876Y-121367134D01*
X75894108Y-121354027D01*
X75872671Y-121328479D01*
X75854405Y-121312137D01*
X75841481Y-121291309D01*
X75820049Y-121265766D01*
X75810923Y-121242057D01*
X75802076Y-121227799D01*
X75793514Y-121196832D01*
X75778660Y-121158241D01*
X75777561Y-121139128D01*
X75775022Y-121129943D01*
X75773962Y-121076512D01*
X75772869Y-121057485D01*
X75776707Y-121013618D01*
X75885587Y-119769113D01*
X75885587Y-119769108D01*
X75886172Y-119762432D01*
X75890553Y-119743883D01*
X75900875Y-119691444D01*
X75904971Y-119682837D01*
X75909371Y-119664212D01*
X75930699Y-119628788D01*
X75944510Y-119599776D01*
X75955697Y-119587272D01*
X75968802Y-119565507D01*
X75994348Y-119544071D01*
X76010691Y-119525805D01*
X76031519Y-119512881D01*
X76057063Y-119491448D01*
X76080767Y-119482323D01*
X76095030Y-119473474D01*
X76126007Y-119464909D01*
X76164588Y-119450059D01*
X76183693Y-119448960D01*
X76192884Y-119446420D01*
X76246327Y-119445361D01*
X76265345Y-119444268D01*
X76319045Y-119448966D01*
G37*
G36*
X75092576Y-115727913D02*
G01*
X75092578Y-115727913D01*
X75774381Y-115787562D01*
X75774385Y-115787562D01*
X75782547Y-115788277D01*
X75865132Y-115803370D01*
X75883913Y-115811844D01*
X75896766Y-115814694D01*
X75939307Y-115836839D01*
X75987291Y-115858491D01*
X75996483Y-115866603D01*
X76000622Y-115868758D01*
X76044891Y-115909324D01*
X76087775Y-115947169D01*
X76117596Y-115995969D01*
X76149859Y-116046611D01*
X76151262Y-116051061D01*
X76157657Y-116061526D01*
X76170651Y-116112559D01*
X76185068Y-116158282D01*
X76185641Y-116171426D01*
X76190728Y-116191401D01*
X76191251Y-116275352D01*
X76043017Y-117969680D01*
X76027923Y-118052264D01*
X76019448Y-118071045D01*
X76016599Y-118083899D01*
X75994455Y-118126435D01*
X75972803Y-118174423D01*
X75964687Y-118183618D01*
X75962535Y-118187754D01*
X75921969Y-118232023D01*
X75884124Y-118274908D01*
X75835333Y-118304723D01*
X75784682Y-118336992D01*
X75780233Y-118338394D01*
X75769768Y-118344790D01*
X75718733Y-118357784D01*
X75673010Y-118372201D01*
X75659863Y-118372774D01*
X75639893Y-118377860D01*
X75555942Y-118378383D01*
X74857809Y-118317305D01*
X74775224Y-118302212D01*
X74756438Y-118293735D01*
X74743589Y-118290887D01*
X74701055Y-118268745D01*
X74653065Y-118247091D01*
X74643870Y-118238976D01*
X74639733Y-118236823D01*
X74595452Y-118196247D01*
X74552581Y-118158413D01*
X74522778Y-118109643D01*
X74443211Y-117984747D01*
X74263171Y-118037223D01*
X74263171Y-119473619D01*
X74259976Y-119489677D01*
X74255676Y-119522346D01*
X74251844Y-119530563D01*
X74247947Y-119550156D01*
X74230608Y-119576104D01*
X74225422Y-119587227D01*
X74218654Y-119593994D01*
X74204592Y-119615040D01*
X74183546Y-119629102D01*
X74176779Y-119635870D01*
X74165656Y-119641056D01*
X74139708Y-119658395D01*
X74120115Y-119662292D01*
X74111898Y-119666124D01*
X74079227Y-119670425D01*
X74063171Y-119673619D01*
X71863171Y-119673619D01*
X71847114Y-119670425D01*
X71814443Y-119666124D01*
X71806224Y-119662291D01*
X71786634Y-119658395D01*
X71760687Y-119641057D01*
X71749562Y-119635870D01*
X71742791Y-119629100D01*
X71721750Y-119615040D01*
X71707691Y-119593999D01*
X71693730Y-119580039D01*
X71578655Y-119591373D01*
X71533219Y-119655741D01*
X71468998Y-119751855D01*
X71450431Y-119773025D01*
X71432165Y-119798904D01*
X71359569Y-119876634D01*
X71287905Y-119958353D01*
X71262182Y-119980910D01*
X71236533Y-120008375D01*
X71158165Y-120072131D01*
X71081407Y-120139447D01*
X71047922Y-120161820D01*
X71014200Y-120189256D01*
X70932585Y-120238887D01*
X70853032Y-120292043D01*
X70811468Y-120312539D01*
X70769308Y-120338178D01*
X70686845Y-120373996D01*
X70606705Y-120413517D01*
X70557068Y-120430366D01*
X70506418Y-120452367D01*
X70425310Y-120475092D01*
X70346621Y-120501804D01*
X70289241Y-120513217D01*
X70230429Y-120529696D01*
X70152661Y-120540384D01*
X70077239Y-120555387D01*
X70012758Y-120559613D01*
X69946480Y-120568723D01*
X69873778Y-120568723D01*
X69803171Y-120573351D01*
X69732564Y-120568723D01*
X69659862Y-120568723D01*
X69593584Y-120559613D01*
X69529102Y-120555387D01*
X69453677Y-120540384D01*
X69375913Y-120529696D01*
X69317102Y-120513218D01*
X69259720Y-120501804D01*
X69181025Y-120475090D01*
X69099924Y-120452367D01*
X69049276Y-120430367D01*
X68999636Y-120413517D01*
X68919488Y-120373993D01*
X68837034Y-120338178D01*
X68794877Y-120312542D01*
X68753309Y-120292043D01*
X68673745Y-120238880D01*
X68592142Y-120189256D01*
X68558423Y-120161824D01*
X68524934Y-120139447D01*
X68448162Y-120072120D01*
X68369809Y-120008375D01*
X68344163Y-119980915D01*
X68318436Y-119958353D01*
X68246749Y-119876610D01*
X68174177Y-119798904D01*
X68155918Y-119773037D01*
X68137342Y-119751855D01*
X68073095Y-119655703D01*
X68008890Y-119564745D01*
X67997048Y-119541891D01*
X67984746Y-119523480D01*
X67930297Y-119413067D01*
X67877027Y-119310261D01*
X67870391Y-119291589D01*
X67863272Y-119277153D01*
X67820931Y-119152423D01*
X67781045Y-119040192D01*
X67778220Y-119026601D01*
X67774985Y-119017069D01*
X67746908Y-118875916D01*
X67722731Y-118759569D01*
X67722188Y-118751642D01*
X67721402Y-118747687D01*
X67709561Y-118567047D01*
X67703171Y-118473619D01*
X67709561Y-118380197D01*
X67721402Y-118199550D01*
X67722188Y-118195593D01*
X67722731Y-118187669D01*
X67746905Y-118071335D01*
X67774985Y-117930168D01*
X67778221Y-117920633D01*
X67781045Y-117907046D01*
X67820924Y-117794835D01*
X67863271Y-117670087D01*
X67870391Y-117655648D01*
X67877027Y-117636977D01*
X67930302Y-117534159D01*
X67984748Y-117423755D01*
X67997048Y-117405345D01*
X68008890Y-117382493D01*
X68073087Y-117291545D01*
X68137342Y-117195382D01*
X68155921Y-117174195D01*
X68174177Y-117148334D01*
X68246735Y-117070642D01*
X68318436Y-116988884D01*
X68344169Y-116966316D01*
X68369809Y-116938863D01*
X68448147Y-116875130D01*
X68524934Y-116807790D01*
X68558430Y-116785408D01*
X68592142Y-116757982D01*
X68673736Y-116708363D01*
X68753307Y-116655196D01*
X68794878Y-116634695D01*
X68837034Y-116609060D01*
X68919482Y-116573247D01*
X68999639Y-116533719D01*
X69049287Y-116516865D01*
X69099924Y-116494871D01*
X69181009Y-116472151D01*
X69259720Y-116445433D01*
X69317115Y-116434016D01*
X69375913Y-116417542D01*
X69453661Y-116406856D01*
X69529102Y-116391850D01*
X69593597Y-116387622D01*
X69659862Y-116378515D01*
X69732548Y-116378515D01*
X69803171Y-116373886D01*
X69873793Y-116378515D01*
X69946480Y-116378515D01*
X70012744Y-116387622D01*
X70077239Y-116391850D01*
X70152677Y-116406855D01*
X70230429Y-116417542D01*
X70289229Y-116434017D01*
X70346621Y-116445433D01*
X70425327Y-116472150D01*
X70506418Y-116494871D01*
X70557058Y-116516867D01*
X70606705Y-116533720D01*
X70686862Y-116573248D01*
X70769308Y-116609060D01*
X70811459Y-116634692D01*
X70853032Y-116655194D01*
X70932601Y-116708360D01*
X71014200Y-116757982D01*
X71047915Y-116785411D01*
X71081407Y-116807790D01*
X71158180Y-116875118D01*
X71236533Y-116938863D01*
X71262177Y-116966321D01*
X71287905Y-116988884D01*
X71359590Y-117070625D01*
X71432165Y-117148334D01*
X71450424Y-117174201D01*
X71468999Y-117195382D01*
X71533239Y-117291524D01*
X71578655Y-117355863D01*
X71693729Y-117367198D01*
X71707695Y-117353231D01*
X71721750Y-117332198D01*
X71742783Y-117318143D01*
X71749559Y-117311368D01*
X71760694Y-117306175D01*
X71786634Y-117288843D01*
X71806220Y-117284947D01*
X71814443Y-117281113D01*
X71847131Y-117276809D01*
X71863171Y-117273619D01*
X74063171Y-117273619D01*
X74079214Y-117276810D01*
X74111898Y-117281113D01*
X74120119Y-117284946D01*
X74139708Y-117288843D01*
X74165651Y-117306178D01*
X74176779Y-117311367D01*
X74183549Y-117318137D01*
X74204592Y-117332198D01*
X74218652Y-117353240D01*
X74225422Y-117360010D01*
X74230610Y-117371136D01*
X74247947Y-117397082D01*
X74251843Y-117416671D01*
X74291790Y-117502338D01*
X74480705Y-117469028D01*
X74559584Y-116567443D01*
X74596624Y-116144067D01*
X74596625Y-116144062D01*
X74597339Y-116135902D01*
X74612433Y-116053318D01*
X74620905Y-116034541D01*
X74623756Y-116021682D01*
X74645910Y-115979124D01*
X74667553Y-115931159D01*
X74675664Y-115921967D01*
X74677820Y-115917827D01*
X74718436Y-115873501D01*
X74756232Y-115830674D01*
X74804959Y-115800896D01*
X74855673Y-115768589D01*
X74860126Y-115767184D01*
X74870588Y-115760792D01*
X74921601Y-115747802D01*
X74967345Y-115733380D01*
X74980497Y-115732805D01*
X75000463Y-115727722D01*
X75084414Y-115727199D01*
X75092576Y-115727913D01*
G37*
G36*
X38727130Y-113212429D02*
G01*
X38761887Y-113211315D01*
X38871595Y-113221898D01*
X38988382Y-113229553D01*
X39023634Y-113236565D01*
X39055208Y-113239611D01*
X39165497Y-113264783D01*
X39283456Y-113288247D01*
X39314563Y-113298806D01*
X39342510Y-113305185D01*
X39451343Y-113345236D01*
X39568344Y-113384953D01*
X39595045Y-113398120D01*
X39619070Y-113406962D01*
X39724350Y-113461887D01*
X39838172Y-113518018D01*
X39860362Y-113532845D01*
X39880339Y-113543267D01*
X39979949Y-113612750D01*
X40088323Y-113685163D01*
X40106065Y-113700722D01*
X40122039Y-113711865D01*
X40213872Y-113795266D01*
X40314518Y-113883530D01*
X40328050Y-113898961D01*
X40340189Y-113909985D01*
X40422169Y-114006282D01*
X40512885Y-114109725D01*
X40522567Y-114124216D01*
X40531216Y-114134375D01*
X40601434Y-114242248D01*
X40680030Y-114359876D01*
X40686370Y-114372733D01*
X40691982Y-114381354D01*
X40748572Y-114498866D01*
X40813095Y-114629704D01*
X40816712Y-114640359D01*
X40819841Y-114646857D01*
X40861101Y-114771125D01*
X40909801Y-114914592D01*
X40911393Y-114922600D01*
X40912700Y-114926534D01*
X40937211Y-115052394D01*
X40968495Y-115209666D01*
X40968826Y-115214729D01*
X40969034Y-115215793D01*
X40975609Y-115318216D01*
X40988172Y-115509876D01*
X40988172Y-117309876D01*
X40988046Y-117311796D01*
X40983446Y-117455226D01*
X40973681Y-117530960D01*
X40968495Y-117610086D01*
X40954237Y-117681763D01*
X40945505Y-117749491D01*
X40925877Y-117824339D01*
X40909801Y-117905160D01*
X40887304Y-117971432D01*
X40870755Y-118034543D01*
X40840586Y-118109061D01*
X40813095Y-118190048D01*
X40783513Y-118250032D01*
X40760167Y-118307700D01*
X40719225Y-118380395D01*
X40680030Y-118459876D01*
X40644599Y-118512901D01*
X40615559Y-118564466D01*
X40563857Y-118633741D01*
X40512885Y-118710027D01*
X40472869Y-118755655D01*
X40439303Y-118800632D01*
X40377092Y-118864869D01*
X40314518Y-118936222D01*
X40271204Y-118974206D01*
X40234289Y-119012325D01*
X40162030Y-119069949D01*
X40088323Y-119134589D01*
X40043006Y-119164868D01*
X40003890Y-119196063D01*
X39922279Y-119245535D01*
X39838172Y-119301734D01*
X39792064Y-119324471D01*
X39751896Y-119348822D01*
X39661924Y-119388649D01*
X39568344Y-119434799D01*
X39522583Y-119450332D01*
X39482422Y-119468111D01*
X39385241Y-119496953D01*
X39283456Y-119531505D01*
X39239096Y-119540328D01*
X39199910Y-119551959D01*
X39096914Y-119568610D01*
X38988382Y-119590199D01*
X38946335Y-119592954D01*
X38909000Y-119598991D01*
X38801794Y-119602428D01*
X38688172Y-119609876D01*
X38649202Y-119607321D01*
X38614456Y-119608436D01*
X38504777Y-119597855D01*
X38387962Y-119590199D01*
X38352700Y-119583185D01*
X38321135Y-119580140D01*
X38210873Y-119554973D01*
X38092888Y-119531505D01*
X38061774Y-119520943D01*
X38033833Y-119514566D01*
X37925023Y-119474522D01*
X37808000Y-119434799D01*
X37781293Y-119421628D01*
X37757273Y-119412789D01*
X37652010Y-119357873D01*
X37538172Y-119301734D01*
X37515978Y-119286904D01*
X37496004Y-119276484D01*
X37396404Y-119207008D01*
X37288021Y-119134589D01*
X37270276Y-119119027D01*
X37254304Y-119107886D01*
X37162474Y-119024487D01*
X37061826Y-118936222D01*
X37048292Y-118920790D01*
X37036154Y-118909766D01*
X36954169Y-118813463D01*
X36863459Y-118710027D01*
X36853776Y-118695536D01*
X36845127Y-118685376D01*
X36774896Y-118577483D01*
X36696314Y-118459876D01*
X36689974Y-118447020D01*
X36684361Y-118438397D01*
X36627749Y-118320840D01*
X36563249Y-118190048D01*
X36559633Y-118179395D01*
X36556502Y-118172894D01*
X36515212Y-118048536D01*
X36466543Y-117905160D01*
X36464951Y-117897156D01*
X36463643Y-117893217D01*
X36439093Y-117767163D01*
X36407849Y-117610086D01*
X36407517Y-117605028D01*
X36407309Y-117603958D01*
X36400705Y-117501095D01*
X36388172Y-117309876D01*
X36388172Y-115509876D01*
X36388297Y-115507956D01*
X36392897Y-115364525D01*
X36402663Y-115288774D01*
X36407849Y-115209666D01*
X36422103Y-115138004D01*
X36430838Y-115070260D01*
X36450470Y-114995392D01*
X36466543Y-114914592D01*
X36489033Y-114848336D01*
X36505588Y-114785208D01*
X36535765Y-114710669D01*
X36563249Y-114629704D01*
X36592822Y-114569735D01*
X36616176Y-114512051D01*
X36657129Y-114439333D01*
X36696314Y-114359876D01*
X36731734Y-114306865D01*
X36760784Y-114255285D01*
X36812501Y-114185988D01*
X36863459Y-114109725D01*
X36903462Y-114064109D01*
X36937040Y-114019119D01*
X36999270Y-113954861D01*
X37061826Y-113883530D01*
X37105125Y-113845557D01*
X37142054Y-113807426D01*
X37214336Y-113749782D01*
X37288021Y-113685163D01*
X37333323Y-113654893D01*
X37372453Y-113623688D01*
X37454090Y-113574199D01*
X37538172Y-113518018D01*
X37584265Y-113495287D01*
X37624447Y-113470929D01*
X37714447Y-113431088D01*
X37808000Y-113384953D01*
X37853746Y-113369424D01*
X37893921Y-113351640D01*
X37991132Y-113322788D01*
X38092888Y-113288247D01*
X38137234Y-113279425D01*
X38176433Y-113267792D01*
X38279460Y-113251135D01*
X38387962Y-113229553D01*
X38429996Y-113226797D01*
X38467343Y-113220760D01*
X38574580Y-113217321D01*
X38688172Y-113209876D01*
X38727130Y-113212429D01*
G37*
G36*
X95877128Y-113212420D02*
G01*
X95911885Y-113211306D01*
X96021593Y-113221889D01*
X96138380Y-113229544D01*
X96173632Y-113236556D01*
X96205206Y-113239602D01*
X96315495Y-113264774D01*
X96433454Y-113288238D01*
X96464561Y-113298797D01*
X96492508Y-113305176D01*
X96601341Y-113345227D01*
X96718342Y-113384944D01*
X96745043Y-113398111D01*
X96769068Y-113406953D01*
X96874348Y-113461878D01*
X96988170Y-113518009D01*
X97010360Y-113532836D01*
X97030337Y-113543258D01*
X97129947Y-113612741D01*
X97238321Y-113685154D01*
X97256063Y-113700713D01*
X97272037Y-113711856D01*
X97363870Y-113795257D01*
X97464516Y-113883521D01*
X97478048Y-113898952D01*
X97490187Y-113909976D01*
X97572167Y-114006273D01*
X97662883Y-114109716D01*
X97672565Y-114124207D01*
X97681214Y-114134366D01*
X97751432Y-114242239D01*
X97830028Y-114359867D01*
X97836368Y-114372724D01*
X97841980Y-114381345D01*
X97898570Y-114498857D01*
X97963093Y-114629695D01*
X97966710Y-114640350D01*
X97969839Y-114646848D01*
X98011099Y-114771116D01*
X98059799Y-114914583D01*
X98061391Y-114922591D01*
X98062698Y-114926525D01*
X98087209Y-115052385D01*
X98118493Y-115209657D01*
X98118824Y-115214720D01*
X98119032Y-115215784D01*
X98125607Y-115318207D01*
X98138170Y-115509867D01*
X98138170Y-117309867D01*
X98138044Y-117311787D01*
X98133444Y-117455217D01*
X98123679Y-117530951D01*
X98118493Y-117610077D01*
X98104235Y-117681754D01*
X98095503Y-117749482D01*
X98075875Y-117824330D01*
X98059799Y-117905151D01*
X98037302Y-117971423D01*
X98020753Y-118034534D01*
X97990584Y-118109052D01*
X97963093Y-118190039D01*
X97933511Y-118250023D01*
X97910165Y-118307691D01*
X97869223Y-118380386D01*
X97830028Y-118459867D01*
X97794597Y-118512892D01*
X97765557Y-118564457D01*
X97713855Y-118633732D01*
X97662883Y-118710018D01*
X97622867Y-118755646D01*
X97589301Y-118800623D01*
X97527090Y-118864860D01*
X97464516Y-118936213D01*
X97421202Y-118974197D01*
X97384287Y-119012316D01*
X97312028Y-119069940D01*
X97238321Y-119134580D01*
X97193004Y-119164859D01*
X97153888Y-119196054D01*
X97072277Y-119245526D01*
X96988170Y-119301725D01*
X96942062Y-119324462D01*
X96901894Y-119348813D01*
X96811922Y-119388640D01*
X96718342Y-119434790D01*
X96672581Y-119450323D01*
X96632420Y-119468102D01*
X96535239Y-119496944D01*
X96433454Y-119531496D01*
X96389094Y-119540319D01*
X96349908Y-119551950D01*
X96246912Y-119568601D01*
X96138380Y-119590190D01*
X96096333Y-119592945D01*
X96058998Y-119598982D01*
X95951792Y-119602419D01*
X95838170Y-119609867D01*
X95799200Y-119607312D01*
X95764454Y-119608427D01*
X95654775Y-119597846D01*
X95537960Y-119590190D01*
X95502698Y-119583176D01*
X95471133Y-119580131D01*
X95360871Y-119554964D01*
X95242886Y-119531496D01*
X95211772Y-119520934D01*
X95183831Y-119514557D01*
X95075021Y-119474513D01*
X94957998Y-119434790D01*
X94931291Y-119421619D01*
X94907271Y-119412780D01*
X94802008Y-119357864D01*
X94688170Y-119301725D01*
X94665976Y-119286895D01*
X94646002Y-119276475D01*
X94546402Y-119206999D01*
X94438019Y-119134580D01*
X94420274Y-119119018D01*
X94404302Y-119107877D01*
X94312472Y-119024478D01*
X94211824Y-118936213D01*
X94198290Y-118920781D01*
X94186152Y-118909757D01*
X94104167Y-118813454D01*
X94013457Y-118710018D01*
X94003774Y-118695527D01*
X93995125Y-118685367D01*
X93924894Y-118577474D01*
X93846312Y-118459867D01*
X93839972Y-118447011D01*
X93834359Y-118438388D01*
X93777747Y-118320831D01*
X93713247Y-118190039D01*
X93709631Y-118179386D01*
X93706500Y-118172885D01*
X93665210Y-118048527D01*
X93616541Y-117905151D01*
X93614949Y-117897147D01*
X93613641Y-117893208D01*
X93589091Y-117767154D01*
X93557847Y-117610077D01*
X93557515Y-117605019D01*
X93557307Y-117603949D01*
X93550689Y-117500869D01*
X93538170Y-117309867D01*
X93538170Y-115509867D01*
X93538295Y-115507947D01*
X93542895Y-115364516D01*
X93552661Y-115288765D01*
X93557847Y-115209657D01*
X93572101Y-115137995D01*
X93580836Y-115070251D01*
X93600468Y-114995383D01*
X93616541Y-114914583D01*
X93639031Y-114848327D01*
X93655586Y-114785199D01*
X93685763Y-114710660D01*
X93713247Y-114629695D01*
X93742820Y-114569726D01*
X93766174Y-114512042D01*
X93807127Y-114439324D01*
X93846312Y-114359867D01*
X93881732Y-114306856D01*
X93910782Y-114255276D01*
X93962499Y-114185979D01*
X94013457Y-114109716D01*
X94053460Y-114064100D01*
X94087038Y-114019110D01*
X94149268Y-113954852D01*
X94211824Y-113883521D01*
X94255123Y-113845548D01*
X94292052Y-113807417D01*
X94364334Y-113749773D01*
X94438019Y-113685154D01*
X94483321Y-113654884D01*
X94522451Y-113623679D01*
X94604088Y-113574190D01*
X94688170Y-113518009D01*
X94734263Y-113495278D01*
X94774445Y-113470920D01*
X94864445Y-113431079D01*
X94957998Y-113384944D01*
X95003744Y-113369415D01*
X95043919Y-113351631D01*
X95141130Y-113322779D01*
X95242886Y-113288238D01*
X95287232Y-113279416D01*
X95326431Y-113267783D01*
X95429458Y-113251126D01*
X95537960Y-113229544D01*
X95579994Y-113226788D01*
X95617341Y-113220751D01*
X95724578Y-113217312D01*
X95838170Y-113209867D01*
X95877128Y-113212420D01*
G37*
G36*
X53947177Y-116215795D02*
G01*
X53967142Y-116220878D01*
X53980294Y-116221453D01*
X54026033Y-116235874D01*
X54077052Y-116248865D01*
X54087514Y-116255258D01*
X54091966Y-116256662D01*
X54142655Y-116288954D01*
X54191408Y-116318747D01*
X54229229Y-116361603D01*
X54269819Y-116405900D01*
X54271973Y-116410037D01*
X54280087Y-116419232D01*
X54301736Y-116467211D01*
X54323883Y-116509755D01*
X54326732Y-116522610D01*
X54335207Y-116541391D01*
X54350301Y-116623975D01*
X54498535Y-118318303D01*
X54498012Y-118402254D01*
X54492925Y-118422227D01*
X54492352Y-118435372D01*
X54477937Y-118481090D01*
X54464941Y-118532129D01*
X54458545Y-118542594D01*
X54457143Y-118547043D01*
X54424895Y-118597661D01*
X54395059Y-118646486D01*
X54352146Y-118684356D01*
X54307906Y-118724896D01*
X54303770Y-118727048D01*
X54294575Y-118735164D01*
X54246577Y-118756821D01*
X54204050Y-118778960D01*
X54191202Y-118781808D01*
X54172416Y-118790285D01*
X54089831Y-118805378D01*
X53477929Y-118858911D01*
X53399861Y-118865742D01*
X53399859Y-118865741D01*
X53391698Y-118866456D01*
X53307747Y-118865933D01*
X53287777Y-118860848D01*
X53274629Y-118860274D01*
X53228901Y-118845856D01*
X53177872Y-118832863D01*
X53167407Y-118826468D01*
X53162957Y-118825065D01*
X53112282Y-118792781D01*
X53063516Y-118762981D01*
X53025696Y-118720126D01*
X52985104Y-118675827D01*
X52982949Y-118671688D01*
X52974837Y-118662496D01*
X52953190Y-118614522D01*
X52931040Y-118571972D01*
X52928189Y-118559114D01*
X52919717Y-118540337D01*
X52904623Y-118457753D01*
X52809937Y-117375479D01*
X52757103Y-116771588D01*
X52757103Y-116771586D01*
X52756389Y-116763425D01*
X52756912Y-116679474D01*
X52761996Y-116659505D01*
X52762571Y-116646355D01*
X52776992Y-116600615D01*
X52789983Y-116549599D01*
X52796375Y-116539137D01*
X52797780Y-116534684D01*
X52830067Y-116484003D01*
X52859865Y-116435242D01*
X52902721Y-116397421D01*
X52947017Y-116356831D01*
X52951157Y-116354675D01*
X52960349Y-116346564D01*
X53008324Y-116324916D01*
X53050873Y-116302767D01*
X53063727Y-116299917D01*
X53082508Y-116291443D01*
X53165093Y-116276350D01*
X53251324Y-116268805D01*
X53855062Y-116215985D01*
X53855071Y-116215985D01*
X53863226Y-116215272D01*
X53947177Y-116215795D01*
G37*
G36*
X80671267Y-116215985D02*
G01*
X80671269Y-116215985D01*
X81353072Y-116275634D01*
X81353076Y-116275634D01*
X81361238Y-116276349D01*
X81443823Y-116291442D01*
X81462604Y-116299916D01*
X81475457Y-116302766D01*
X81517998Y-116324911D01*
X81565982Y-116346563D01*
X81575174Y-116354675D01*
X81579313Y-116356830D01*
X81623582Y-116397396D01*
X81666466Y-116435241D01*
X81696287Y-116484041D01*
X81728550Y-116534683D01*
X81729953Y-116539133D01*
X81736348Y-116549598D01*
X81749342Y-116600631D01*
X81763759Y-116646354D01*
X81764332Y-116659498D01*
X81769419Y-116679473D01*
X81769942Y-116763424D01*
X81621708Y-118457752D01*
X81606614Y-118540336D01*
X81598139Y-118559117D01*
X81595290Y-118571971D01*
X81573146Y-118614507D01*
X81551494Y-118662495D01*
X81543378Y-118671690D01*
X81541226Y-118675826D01*
X81500660Y-118720095D01*
X81462815Y-118762980D01*
X81414024Y-118792795D01*
X81363373Y-118825064D01*
X81358924Y-118826466D01*
X81348459Y-118832862D01*
X81297424Y-118845856D01*
X81251701Y-118860273D01*
X81238554Y-118860846D01*
X81218584Y-118865932D01*
X81134633Y-118866455D01*
X80436500Y-118805377D01*
X80353915Y-118790284D01*
X80335129Y-118781807D01*
X80322280Y-118778959D01*
X80279746Y-118756817D01*
X80231756Y-118735163D01*
X80222561Y-118727048D01*
X80218424Y-118724895D01*
X80174157Y-118684331D01*
X80131272Y-118646485D01*
X80101459Y-118597698D01*
X80069187Y-118547042D01*
X80067783Y-118542590D01*
X80061390Y-118532128D01*
X80048397Y-118481106D01*
X80033978Y-118435371D01*
X80033404Y-118422222D01*
X80028319Y-118402253D01*
X80027796Y-118318302D01*
X80110665Y-117371097D01*
X80175315Y-116632139D01*
X80175316Y-116632134D01*
X80176030Y-116623974D01*
X80191124Y-116541390D01*
X80199596Y-116522613D01*
X80202447Y-116509754D01*
X80224601Y-116467196D01*
X80246244Y-116419231D01*
X80254355Y-116410039D01*
X80256511Y-116405899D01*
X80297127Y-116361573D01*
X80334923Y-116318746D01*
X80383650Y-116288968D01*
X80434364Y-116256661D01*
X80438817Y-116255256D01*
X80449279Y-116248864D01*
X80500292Y-116235874D01*
X80546036Y-116221452D01*
X80559188Y-116220877D01*
X80579154Y-116215794D01*
X80663105Y-116215271D01*
X80671267Y-116215985D01*
G37*
G36*
X44066414Y-116551262D02*
G01*
X44086382Y-116551698D01*
X44114941Y-116564264D01*
X44126804Y-116567443D01*
X44134649Y-116572936D01*
X44157809Y-116583127D01*
X44175305Y-116601403D01*
X44183152Y-116606898D01*
X44190197Y-116616959D01*
X44211772Y-116639497D01*
X44219010Y-116658110D01*
X44224213Y-116665541D01*
X44234125Y-116696980D01*
X44240055Y-116712228D01*
X44448433Y-117893997D01*
X44448076Y-117910350D01*
X44449514Y-117943283D01*
X44447166Y-117952043D01*
X44446731Y-117972015D01*
X44434161Y-118000580D01*
X44430985Y-118012437D01*
X44425494Y-118020278D01*
X44415302Y-118043442D01*
X44397022Y-118060941D01*
X44391530Y-118068785D01*
X44381471Y-118075827D01*
X44358932Y-118097405D01*
X44340316Y-118104644D01*
X44332887Y-118109846D01*
X44301452Y-118119757D01*
X44286201Y-118125688D01*
X43104432Y-118334066D01*
X43088077Y-118333709D01*
X43055145Y-118335147D01*
X43046384Y-118332799D01*
X43026414Y-118332364D01*
X43001840Y-118321551D01*
X42950352Y-118330631D01*
X42930960Y-118349195D01*
X42912342Y-118356434D01*
X42904913Y-118361637D01*
X42873478Y-118371547D01*
X42858229Y-118377478D01*
X41676460Y-118585856D01*
X41660105Y-118585499D01*
X41627173Y-118586937D01*
X41618412Y-118584589D01*
X41598442Y-118584154D01*
X41569878Y-118571585D01*
X41558019Y-118568408D01*
X41550175Y-118562916D01*
X41527015Y-118552725D01*
X41509517Y-118534447D01*
X41501671Y-118528953D01*
X41494625Y-118518891D01*
X41473052Y-118496355D01*
X41465814Y-118477742D01*
X41460610Y-118470310D01*
X41450694Y-118438861D01*
X41444769Y-118423624D01*
X41357308Y-117927609D01*
X41237813Y-117249922D01*
X41237812Y-117249918D01*
X41236391Y-117241855D01*
X41236747Y-117225515D01*
X41235309Y-117192566D01*
X41237657Y-117183801D01*
X41238093Y-117163837D01*
X41250658Y-117135279D01*
X41253838Y-117123414D01*
X41259332Y-117115566D01*
X41269522Y-117092410D01*
X41287796Y-117074915D01*
X41293293Y-117067066D01*
X41303358Y-117060018D01*
X41325892Y-117038447D01*
X41344502Y-117031210D01*
X41351936Y-117026005D01*
X41383389Y-117016087D01*
X41398623Y-117010164D01*
X41540390Y-116985166D01*
X42572324Y-116803208D01*
X42572328Y-116803207D01*
X42580392Y-116801786D01*
X42596730Y-116802142D01*
X42629679Y-116800704D01*
X42638443Y-116803052D01*
X42658410Y-116803488D01*
X42682981Y-116814299D01*
X42734472Y-116805220D01*
X42753864Y-116786657D01*
X42772474Y-116779420D01*
X42779909Y-116774214D01*
X42811365Y-116764296D01*
X42826595Y-116758374D01*
X43073840Y-116714778D01*
X44000296Y-116551418D01*
X44000300Y-116551417D01*
X44008364Y-116549996D01*
X44024702Y-116550352D01*
X44057650Y-116548914D01*
X44066414Y-116551262D01*
G37*
G36*
X90498613Y-116552902D02*
G01*
X90514961Y-116552546D01*
X91097106Y-116655194D01*
X91688662Y-116759501D01*
X91688664Y-116759501D01*
X91696730Y-116760924D01*
X91711965Y-116766848D01*
X91743416Y-116776765D01*
X91750848Y-116781969D01*
X91769461Y-116789207D01*
X91791997Y-116810780D01*
X91802059Y-116817826D01*
X91807553Y-116825672D01*
X91825831Y-116843170D01*
X91836023Y-116866332D01*
X91841514Y-116874175D01*
X91844691Y-116886032D01*
X91857260Y-116914597D01*
X91857695Y-116934567D01*
X91866047Y-116965736D01*
X91970070Y-117015354D01*
X92019645Y-116993281D01*
X92047792Y-116975596D01*
X92101868Y-116956673D01*
X92147901Y-116936179D01*
X92179842Y-116929389D01*
X92216882Y-116916429D01*
X92267820Y-116910689D01*
X92311346Y-116901438D01*
X92349929Y-116901438D01*
X92394899Y-116896371D01*
X92439869Y-116901438D01*
X92478452Y-116901438D01*
X92521976Y-116910689D01*
X92572916Y-116916429D01*
X92609958Y-116929390D01*
X92641895Y-116936179D01*
X92687922Y-116956671D01*
X92742006Y-116975596D01*
X92770154Y-116993283D01*
X92794556Y-117004147D01*
X92840052Y-117037202D01*
X92893691Y-117070906D01*
X92912956Y-117090171D01*
X92929742Y-117102367D01*
X92971241Y-117148456D01*
X93020364Y-117197579D01*
X93031662Y-117215560D01*
X93041555Y-117226547D01*
X93075401Y-117285171D01*
X93115674Y-117349264D01*
X93120701Y-117363632D01*
X93125106Y-117371261D01*
X93147662Y-117440681D01*
X93174841Y-117518354D01*
X93175871Y-117527499D01*
X93176744Y-117530185D01*
X93184651Y-117605420D01*
X93194899Y-117696371D01*
X93184650Y-117787329D01*
X93176744Y-117862556D01*
X93175871Y-117865240D01*
X93174841Y-117874388D01*
X93147657Y-117952073D01*
X93125106Y-118021480D01*
X93120702Y-118029106D01*
X93115674Y-118043478D01*
X93075394Y-118107581D01*
X93041555Y-118166194D01*
X93031664Y-118177178D01*
X93020364Y-118195163D01*
X92971232Y-118244294D01*
X92929742Y-118290374D01*
X92912959Y-118302567D01*
X92893691Y-118321836D01*
X92840042Y-118355545D01*
X92794556Y-118388594D01*
X92770160Y-118399455D01*
X92742006Y-118417146D01*
X92687911Y-118436074D01*
X92641895Y-118456562D01*
X92609964Y-118463349D01*
X92572916Y-118476313D01*
X92521973Y-118482052D01*
X92478452Y-118491304D01*
X92439869Y-118491304D01*
X92394899Y-118496371D01*
X92349929Y-118491304D01*
X92311346Y-118491304D01*
X92267823Y-118482052D01*
X92216882Y-118476313D01*
X92179835Y-118463349D01*
X92147902Y-118456562D01*
X92101881Y-118436072D01*
X92047792Y-118417146D01*
X92019640Y-118399457D01*
X91995241Y-118388594D01*
X91949744Y-118355538D01*
X91896107Y-118321836D01*
X91876843Y-118302572D01*
X91860055Y-118290375D01*
X91818554Y-118244283D01*
X91769434Y-118195163D01*
X91767126Y-118191490D01*
X91650456Y-118198627D01*
X91629541Y-118228496D01*
X91622301Y-118247115D01*
X91600716Y-118269661D01*
X91593679Y-118279713D01*
X91585840Y-118285201D01*
X91568338Y-118303485D01*
X91545173Y-118313677D01*
X91537333Y-118319168D01*
X91525476Y-118322344D01*
X91496911Y-118334914D01*
X91476939Y-118335349D01*
X91468179Y-118337697D01*
X91435255Y-118336259D01*
X91418893Y-118336616D01*
X90237124Y-118128238D01*
X90221879Y-118122309D01*
X90190437Y-118112396D01*
X90183006Y-118107193D01*
X90164393Y-118099955D01*
X90141855Y-118078380D01*
X90131794Y-118071335D01*
X90126299Y-118063488D01*
X90108023Y-118045992D01*
X90097832Y-118022832D01*
X90092339Y-118014987D01*
X90089160Y-118003124D01*
X90076594Y-117974565D01*
X90076158Y-117954597D01*
X90073810Y-117945833D01*
X90075248Y-117912894D01*
X90074892Y-117896547D01*
X90147328Y-117485740D01*
X90281847Y-116722845D01*
X90281848Y-116722840D01*
X90283270Y-116714778D01*
X90289192Y-116699547D01*
X90299111Y-116668091D01*
X90304316Y-116660657D01*
X90311553Y-116642047D01*
X90333124Y-116619513D01*
X90340172Y-116609448D01*
X90348021Y-116603951D01*
X90365516Y-116585677D01*
X90388672Y-116575487D01*
X90396520Y-116569993D01*
X90408385Y-116566813D01*
X90436943Y-116554248D01*
X90456909Y-116553812D01*
X90465674Y-116551464D01*
X90498613Y-116552902D01*
G37*
G36*
X59525868Y-115727723D02*
G01*
X59545833Y-115732806D01*
X59558985Y-115733381D01*
X59604724Y-115747802D01*
X59655743Y-115760793D01*
X59666205Y-115767186D01*
X59670657Y-115768590D01*
X59721346Y-115800882D01*
X59770099Y-115830675D01*
X59807920Y-115873531D01*
X59848510Y-115917828D01*
X59850664Y-115921965D01*
X59858778Y-115931160D01*
X59880427Y-115979139D01*
X59902574Y-116021683D01*
X59905423Y-116034538D01*
X59913898Y-116053319D01*
X59928992Y-116135903D01*
X60077226Y-117830231D01*
X60076703Y-117914182D01*
X60071616Y-117934155D01*
X60071043Y-117947300D01*
X60056628Y-117993018D01*
X60043632Y-118044057D01*
X60037236Y-118054522D01*
X60035834Y-118058971D01*
X60003586Y-118109589D01*
X59973750Y-118158414D01*
X59930837Y-118196284D01*
X59886597Y-118236824D01*
X59882461Y-118238976D01*
X59873266Y-118247092D01*
X59825268Y-118268749D01*
X59782741Y-118290888D01*
X59769893Y-118293736D01*
X59751107Y-118302213D01*
X59668522Y-118317306D01*
X59056620Y-118370839D01*
X58978552Y-118377670D01*
X58978550Y-118377669D01*
X58970389Y-118378384D01*
X58886438Y-118377861D01*
X58866468Y-118372776D01*
X58853320Y-118372202D01*
X58807592Y-118357784D01*
X58756563Y-118344791D01*
X58746098Y-118338396D01*
X58741648Y-118336993D01*
X58690973Y-118304709D01*
X58642207Y-118274909D01*
X58604387Y-118232054D01*
X58563795Y-118187755D01*
X58561640Y-118183616D01*
X58553528Y-118174424D01*
X58531881Y-118126450D01*
X58509731Y-118083900D01*
X58506880Y-118071042D01*
X58498408Y-118052265D01*
X58483314Y-117969681D01*
X58378948Y-116776765D01*
X58335794Y-116283516D01*
X58335794Y-116283514D01*
X58335080Y-116275353D01*
X58335603Y-116191402D01*
X58340687Y-116171433D01*
X58341262Y-116158283D01*
X58355683Y-116112543D01*
X58368674Y-116061527D01*
X58375066Y-116051065D01*
X58376471Y-116046612D01*
X58408758Y-115995931D01*
X58438556Y-115947170D01*
X58481412Y-115909349D01*
X58525708Y-115868759D01*
X58529848Y-115866603D01*
X58539040Y-115858492D01*
X58587015Y-115836844D01*
X58629564Y-115814695D01*
X58642418Y-115811845D01*
X58661199Y-115803371D01*
X58743784Y-115788278D01*
X58830015Y-115780733D01*
X59433753Y-115727913D01*
X59433762Y-115727913D01*
X59441917Y-115727200D01*
X59525868Y-115727723D01*
G37*
G36*
X85673055Y-115702026D02*
G01*
X85689403Y-115701670D01*
X86225633Y-115796222D01*
X86863104Y-115908625D01*
X86863106Y-115908625D01*
X86871172Y-115910048D01*
X86886403Y-115915970D01*
X86917857Y-115925888D01*
X86925290Y-115931093D01*
X86943903Y-115938331D01*
X86963294Y-115956894D01*
X87014785Y-115965973D01*
X87039357Y-115955162D01*
X87059320Y-115954726D01*
X87068085Y-115952378D01*
X87101026Y-115953816D01*
X87117375Y-115953460D01*
X87683697Y-116053318D01*
X88291076Y-116160415D01*
X88291078Y-116160415D01*
X88299144Y-116161838D01*
X88314379Y-116167762D01*
X88345830Y-116177679D01*
X88353262Y-116182883D01*
X88371875Y-116190121D01*
X88394411Y-116211694D01*
X88404473Y-116218740D01*
X88409967Y-116226586D01*
X88428245Y-116244084D01*
X88438436Y-116267244D01*
X88443928Y-116275088D01*
X88447105Y-116286947D01*
X88459674Y-116315511D01*
X88460109Y-116335481D01*
X88462457Y-116344242D01*
X88461019Y-116377165D01*
X88461376Y-116393529D01*
X88252998Y-117575298D01*
X88247068Y-117590546D01*
X88237156Y-117621984D01*
X88231954Y-117629413D01*
X88224715Y-117648029D01*
X88203137Y-117670568D01*
X88196095Y-117680627D01*
X88188251Y-117686119D01*
X88170752Y-117704399D01*
X88147588Y-117714591D01*
X88139747Y-117720082D01*
X88127890Y-117723258D01*
X88099325Y-117735828D01*
X88079353Y-117736263D01*
X88070593Y-117738611D01*
X88037669Y-117737173D01*
X88021307Y-117737530D01*
X86839538Y-117529152D01*
X86824293Y-117523224D01*
X86792854Y-117513311D01*
X86785424Y-117508108D01*
X86766807Y-117500869D01*
X86747414Y-117482304D01*
X86695925Y-117473225D01*
X86671353Y-117484038D01*
X86651383Y-117484473D01*
X86642623Y-117486821D01*
X86609697Y-117485383D01*
X86593335Y-117485740D01*
X85411566Y-117277362D01*
X85396321Y-117271433D01*
X85364879Y-117261520D01*
X85357448Y-117256317D01*
X85338835Y-117249079D01*
X85316297Y-117227504D01*
X85306236Y-117220459D01*
X85300741Y-117212612D01*
X85282465Y-117195116D01*
X85272274Y-117171956D01*
X85266781Y-117164111D01*
X85263602Y-117152248D01*
X85251036Y-117123689D01*
X85250600Y-117103721D01*
X85248252Y-117094957D01*
X85249690Y-117062018D01*
X85249334Y-117045671D01*
X85320504Y-116642047D01*
X85456289Y-115871969D01*
X85456290Y-115871964D01*
X85457712Y-115863902D01*
X85463634Y-115848671D01*
X85473553Y-115817215D01*
X85478758Y-115809781D01*
X85485995Y-115791171D01*
X85507566Y-115768637D01*
X85514614Y-115758572D01*
X85522463Y-115753075D01*
X85539958Y-115734801D01*
X85563114Y-115724611D01*
X85570962Y-115719117D01*
X85582827Y-115715937D01*
X85611385Y-115703372D01*
X85631351Y-115702936D01*
X85640116Y-115700588D01*
X85673055Y-115702026D01*
G37*
G36*
X48426926Y-115796222D02*
G01*
X48465509Y-115796222D01*
X48509033Y-115805473D01*
X48559973Y-115811213D01*
X48597015Y-115824174D01*
X48628952Y-115830963D01*
X48674979Y-115851455D01*
X48729063Y-115870380D01*
X48757211Y-115888067D01*
X48781613Y-115898931D01*
X48827109Y-115931986D01*
X48880748Y-115965690D01*
X48900013Y-115984955D01*
X48916799Y-115997151D01*
X48958298Y-116043240D01*
X49007421Y-116092363D01*
X49018719Y-116110344D01*
X49028612Y-116121331D01*
X49062458Y-116179955D01*
X49102731Y-116244048D01*
X49107758Y-116258416D01*
X49112163Y-116266045D01*
X49134719Y-116335465D01*
X49161898Y-116413138D01*
X49162928Y-116422283D01*
X49163801Y-116424969D01*
X49171708Y-116500204D01*
X49181956Y-116591155D01*
X49171707Y-116682113D01*
X49163801Y-116757340D01*
X49162928Y-116760024D01*
X49161898Y-116769172D01*
X49134714Y-116846857D01*
X49112163Y-116916264D01*
X49107759Y-116923890D01*
X49102731Y-116938262D01*
X49062451Y-117002365D01*
X49028612Y-117060978D01*
X49018721Y-117071962D01*
X49007421Y-117089947D01*
X48958289Y-117139078D01*
X48916799Y-117185158D01*
X48900016Y-117197351D01*
X48880748Y-117216620D01*
X48827099Y-117250329D01*
X48781613Y-117283378D01*
X48757217Y-117294239D01*
X48729063Y-117311930D01*
X48674968Y-117330858D01*
X48628952Y-117351346D01*
X48597021Y-117358133D01*
X48559973Y-117371097D01*
X48509030Y-117376836D01*
X48465509Y-117386088D01*
X48426926Y-117386088D01*
X48381956Y-117391155D01*
X48336986Y-117386088D01*
X48298403Y-117386088D01*
X48254882Y-117376837D01*
X48203939Y-117371097D01*
X48166888Y-117358132D01*
X48134957Y-117351345D01*
X48088941Y-117330857D01*
X48034849Y-117311930D01*
X48006694Y-117294239D01*
X47957128Y-117272171D01*
X47853104Y-117321789D01*
X47844752Y-117352957D01*
X47844317Y-117372929D01*
X47831747Y-117401494D01*
X47828571Y-117413351D01*
X47823080Y-117421192D01*
X47812888Y-117444356D01*
X47794608Y-117461855D01*
X47789116Y-117469699D01*
X47779057Y-117476741D01*
X47756518Y-117498319D01*
X47737902Y-117505558D01*
X47730473Y-117510760D01*
X47699038Y-117520671D01*
X47683787Y-117526602D01*
X46502018Y-117734980D01*
X46485663Y-117734623D01*
X46452731Y-117736061D01*
X46443970Y-117733713D01*
X46424000Y-117733278D01*
X46395436Y-117720709D01*
X46383577Y-117717532D01*
X46375733Y-117712040D01*
X46352573Y-117701849D01*
X46335075Y-117683571D01*
X46327229Y-117678077D01*
X46320183Y-117668015D01*
X46298610Y-117645479D01*
X46291372Y-117626866D01*
X46286168Y-117619434D01*
X46276252Y-117587985D01*
X46270327Y-117572748D01*
X46181839Y-117070906D01*
X46063371Y-116399046D01*
X46063370Y-116399042D01*
X46061949Y-116390979D01*
X46062305Y-116374639D01*
X46060867Y-116341692D01*
X46063215Y-116332927D01*
X46063651Y-116312961D01*
X46076216Y-116284403D01*
X46079396Y-116272538D01*
X46084890Y-116264690D01*
X46095080Y-116241534D01*
X46113354Y-116224039D01*
X46118851Y-116216190D01*
X46128916Y-116209142D01*
X46151450Y-116187571D01*
X46170060Y-116180334D01*
X46177494Y-116175129D01*
X46208947Y-116165211D01*
X46224181Y-116159288D01*
X46365948Y-116134290D01*
X47397882Y-115952332D01*
X47397886Y-115952331D01*
X47405950Y-115950910D01*
X47422288Y-115951266D01*
X47455236Y-115949828D01*
X47464000Y-115952176D01*
X47483968Y-115952612D01*
X47512527Y-115965178D01*
X47524390Y-115968357D01*
X47532235Y-115973850D01*
X47555395Y-115984041D01*
X47572891Y-116002317D01*
X47580738Y-116007812D01*
X47587783Y-116017874D01*
X47609358Y-116040411D01*
X47616595Y-116059022D01*
X47637514Y-116088898D01*
X47754184Y-116096034D01*
X47756491Y-116092363D01*
X47805597Y-116043256D01*
X47847111Y-115997151D01*
X47863903Y-115984950D01*
X47883164Y-115965690D01*
X47936798Y-115931989D01*
X47982302Y-115898929D01*
X48006704Y-115888064D01*
X48034849Y-115870380D01*
X48088918Y-115851460D01*
X48134954Y-115830964D01*
X48166898Y-115824174D01*
X48203939Y-115811213D01*
X48254878Y-115805473D01*
X48298403Y-115796222D01*
X48336986Y-115796222D01*
X48381956Y-115791155D01*
X48426926Y-115796222D01*
G37*
G36*
X64704213Y-114422437D02*
G01*
X64736897Y-114426740D01*
X64745118Y-114430573D01*
X64764707Y-114434470D01*
X64787027Y-114449384D01*
X64839313Y-114449384D01*
X64861633Y-114434470D01*
X64881219Y-114430573D01*
X64889442Y-114426740D01*
X64922130Y-114422436D01*
X64938170Y-114419246D01*
X66138170Y-114419246D01*
X66154213Y-114422437D01*
X66186897Y-114426740D01*
X66195118Y-114430573D01*
X66214707Y-114434470D01*
X66240650Y-114451805D01*
X66251778Y-114456994D01*
X66258548Y-114463764D01*
X66279591Y-114477825D01*
X66293651Y-114498867D01*
X66300421Y-114505637D01*
X66305608Y-114516762D01*
X66322946Y-114542709D01*
X66326842Y-114562299D01*
X66330675Y-114570518D01*
X66334976Y-114603191D01*
X66338170Y-114619246D01*
X66338170Y-115819246D01*
X66334975Y-115835304D01*
X66330675Y-115867973D01*
X66326843Y-115876190D01*
X66322946Y-115895783D01*
X66305607Y-115921731D01*
X66300421Y-115932854D01*
X66293653Y-115939621D01*
X66279591Y-115960667D01*
X66258545Y-115974729D01*
X66251778Y-115981497D01*
X66240655Y-115986683D01*
X66214707Y-116004022D01*
X66195114Y-116007919D01*
X66186897Y-116011751D01*
X66154226Y-116016052D01*
X66138170Y-116019246D01*
X64938170Y-116019246D01*
X64922118Y-116016053D01*
X64889443Y-116011752D01*
X64881222Y-116007918D01*
X64861633Y-116004022D01*
X64839312Y-115989107D01*
X64787028Y-115989107D01*
X64764707Y-116004022D01*
X64745116Y-116007918D01*
X64736896Y-116011752D01*
X64704220Y-116016053D01*
X64688170Y-116019246D01*
X63488170Y-116019246D01*
X63472113Y-116016052D01*
X63439442Y-116011751D01*
X63431223Y-116007918D01*
X63411633Y-116004022D01*
X63385686Y-115986684D01*
X63374561Y-115981497D01*
X63367791Y-115974727D01*
X63346749Y-115960667D01*
X63332688Y-115939624D01*
X63325918Y-115932854D01*
X63320729Y-115921726D01*
X63303394Y-115895783D01*
X63299497Y-115876194D01*
X63295664Y-115867973D01*
X63291360Y-115835287D01*
X63288170Y-115819246D01*
X63288170Y-114619246D01*
X63291360Y-114603204D01*
X63295664Y-114570518D01*
X63299497Y-114562295D01*
X63303394Y-114542709D01*
X63320727Y-114516767D01*
X63325918Y-114505637D01*
X63332690Y-114498864D01*
X63346749Y-114477825D01*
X63367788Y-114463766D01*
X63374561Y-114456994D01*
X63385691Y-114451803D01*
X63411633Y-114434470D01*
X63431219Y-114430573D01*
X63439442Y-114426740D01*
X63472130Y-114422436D01*
X63488170Y-114419246D01*
X64688170Y-114419246D01*
X64704213Y-114422437D01*
G37*
G36*
X69604213Y-114422437D02*
G01*
X69636897Y-114426740D01*
X69645118Y-114430573D01*
X69664707Y-114434470D01*
X69690650Y-114451805D01*
X69701778Y-114456994D01*
X69708548Y-114463764D01*
X69729591Y-114477825D01*
X69743651Y-114498867D01*
X69750421Y-114505637D01*
X69755608Y-114516762D01*
X69772946Y-114542709D01*
X69776842Y-114562300D01*
X69791603Y-114593954D01*
X69905755Y-114623476D01*
X69920119Y-114613039D01*
X69939378Y-114593781D01*
X69993009Y-114560082D01*
X70038517Y-114527019D01*
X70062921Y-114516153D01*
X70091063Y-114498471D01*
X70145130Y-114479551D01*
X70191168Y-114459055D01*
X70223112Y-114452265D01*
X70260153Y-114439304D01*
X70311092Y-114433564D01*
X70354617Y-114424313D01*
X70393200Y-114424313D01*
X70438170Y-114419246D01*
X70483140Y-114424313D01*
X70521723Y-114424313D01*
X70565247Y-114433564D01*
X70616187Y-114439304D01*
X70653229Y-114452265D01*
X70685166Y-114459054D01*
X70731193Y-114479546D01*
X70785277Y-114498471D01*
X70813425Y-114516158D01*
X70837827Y-114527022D01*
X70883323Y-114560077D01*
X70936962Y-114593781D01*
X70956227Y-114613046D01*
X70973013Y-114625242D01*
X71014512Y-114671331D01*
X71063635Y-114720454D01*
X71074933Y-114738435D01*
X71084826Y-114749422D01*
X71118672Y-114808046D01*
X71158945Y-114872139D01*
X71163972Y-114886507D01*
X71168377Y-114894136D01*
X71190933Y-114963556D01*
X71218112Y-115041229D01*
X71219142Y-115050374D01*
X71220015Y-115053060D01*
X71227922Y-115128295D01*
X71238170Y-115219246D01*
X71227921Y-115310204D01*
X71220015Y-115385431D01*
X71219142Y-115388115D01*
X71218112Y-115397263D01*
X71190928Y-115474948D01*
X71168377Y-115544355D01*
X71163973Y-115551981D01*
X71158945Y-115566353D01*
X71118665Y-115630456D01*
X71084826Y-115689069D01*
X71074935Y-115700053D01*
X71063635Y-115718038D01*
X71014503Y-115767169D01*
X70973013Y-115813249D01*
X70956230Y-115825442D01*
X70936962Y-115844711D01*
X70883313Y-115878420D01*
X70837827Y-115911469D01*
X70813431Y-115922330D01*
X70785277Y-115940021D01*
X70731182Y-115958949D01*
X70685166Y-115979437D01*
X70653235Y-115986224D01*
X70616187Y-115999188D01*
X70565244Y-116004927D01*
X70521723Y-116014179D01*
X70483140Y-116014179D01*
X70438170Y-116019246D01*
X70393200Y-116014179D01*
X70354617Y-116014179D01*
X70311094Y-116004927D01*
X70260153Y-115999188D01*
X70223106Y-115986224D01*
X70191173Y-115979437D01*
X70145152Y-115958947D01*
X70091063Y-115940021D01*
X70062911Y-115922332D01*
X70038512Y-115911469D01*
X69993021Y-115878417D01*
X69939378Y-115844711D01*
X69920110Y-115825443D01*
X69905756Y-115815014D01*
X69791603Y-115844537D01*
X69776843Y-115876190D01*
X69772946Y-115895783D01*
X69755607Y-115921731D01*
X69750421Y-115932854D01*
X69743653Y-115939621D01*
X69729591Y-115960667D01*
X69708545Y-115974729D01*
X69701778Y-115981497D01*
X69690655Y-115986683D01*
X69664707Y-116004022D01*
X69645114Y-116007919D01*
X69636897Y-116011751D01*
X69604226Y-116016052D01*
X69588170Y-116019246D01*
X68388170Y-116019246D01*
X68372113Y-116016052D01*
X68339442Y-116011751D01*
X68331223Y-116007918D01*
X68311633Y-116004022D01*
X68285686Y-115986684D01*
X68274561Y-115981497D01*
X68267791Y-115974727D01*
X68246749Y-115960667D01*
X68232688Y-115939624D01*
X68225918Y-115932854D01*
X68220729Y-115921726D01*
X68203394Y-115895783D01*
X68199497Y-115876194D01*
X68195664Y-115867973D01*
X68191360Y-115835287D01*
X68188170Y-115819246D01*
X68188170Y-114619246D01*
X68191360Y-114603204D01*
X68195664Y-114570518D01*
X68199497Y-114562295D01*
X68203394Y-114542709D01*
X68220727Y-114516767D01*
X68225918Y-114505637D01*
X68232690Y-114498864D01*
X68246749Y-114477825D01*
X68267788Y-114463766D01*
X68274561Y-114456994D01*
X68285691Y-114451803D01*
X68311633Y-114434470D01*
X68331219Y-114430573D01*
X68339442Y-114426740D01*
X68372130Y-114422436D01*
X68388170Y-114419246D01*
X69588170Y-114419246D01*
X69604213Y-114422437D01*
G37*
M02*
