G04 #@! TF.GenerationSoftware,KiCad,Pcbnew,7.0.8*
G04 #@! TF.CreationDate,2023-10-15T17:46:01+09:00*
G04 #@! TF.ProjectId,pangaea-pcb-thumb-k2-4keys,70616e67-6165-4612-9d70-63622d746875,1*
G04 #@! TF.SameCoordinates,Original*
G04 #@! TF.FileFunction,Legend,Bot*
G04 #@! TF.FilePolarity,Positive*
%FSLAX46Y46*%
G04 Gerber Fmt 4.6, Leading zero omitted, Abs format (unit mm)*
G04 Created by KiCad (PCBNEW 7.0.8) date 2023-10-15 17:46:01*
%MOMM*%
%LPD*%
G01*
G04 APERTURE LIST*
G04 Aperture macros list*
%AMRoundRect*
0 Rectangle with rounded corners*
0 $1 Rounding radius*
0 $2 $3 $4 $5 $6 $7 $8 $9 X,Y pos of 4 corners*
0 Add a 4 corners polygon primitive as box body*
4,1,4,$2,$3,$4,$5,$6,$7,$8,$9,$2,$3,0*
0 Add four circle primitives for the rounded corners*
1,1,$1+$1,$2,$3*
1,1,$1+$1,$4,$5*
1,1,$1+$1,$6,$7*
1,1,$1+$1,$8,$9*
0 Add four rect primitives between the rounded corners*
20,1,$1+$1,$2,$3,$4,$5,0*
20,1,$1+$1,$4,$5,$6,$7,0*
20,1,$1+$1,$6,$7,$8,$9,0*
20,1,$1+$1,$8,$9,$2,$3,0*%
%AMHorizOval*
0 Thick line with rounded ends*
0 $1 width*
0 $2 $3 position (X,Y) of the first rounded end (center of the circle)*
0 $4 $5 position (X,Y) of the second rounded end (center of the circle)*
0 Add line between two ends*
20,1,$1,$2,$3,$4,$5,0*
0 Add two circle primitives to create the rounded ends*
1,1,$1,$2,$3*
1,1,$1,$4,$5*%
G04 Aperture macros list end*
%ADD10C,0.150000*%
%ADD11C,0.250000*%
%ADD12C,0.200000*%
%ADD13C,0.120000*%
%ADD14O,4.600000X6.400000*%
%ADD15C,2.080000*%
%ADD16C,2.100000*%
%ADD17C,5.300000*%
%ADD18HorizOval,0.900000X-0.328892X-0.119707X0.328892X0.119707X0*%
%ADD19RoundRect,0.200000X-0.691642X-1.315915X1.375682X-0.563470X0.691642X1.315915X-1.375682X0.563470X0*%
%ADD20C,4.200000*%
%ADD21HorizOval,0.900000X-0.344683X0.060777X0.344683X-0.060777X0*%
%ADD22RoundRect,0.200000X-1.256937X-0.793795X0.909640X-1.175821X1.256937X0.793795X-0.909640X1.175821X0*%
%ADD23RoundRect,0.200000X-0.486696X-0.695074X0.695074X-0.486696X0.486696X0.695074X-0.695074X0.486696X0*%
%ADD24C,1.600000*%
%ADD25RoundRect,0.200000X-0.600000X-0.600000X0.600000X-0.600000X0.600000X0.600000X-0.600000X0.600000X0*%
%ADD26C,1.830000*%
%ADD27HorizOval,0.900000X-0.344683X-0.060777X0.344683X0.060777X0*%
%ADD28RoundRect,0.200000X-0.909640X-1.175821X1.256937X-0.793795X0.909640X1.175821X-1.256937X0.793795X0*%
%ADD29RoundRect,0.200000X-0.695074X-0.486696X0.486696X-0.695074X0.695074X0.486696X-0.486696X0.695074X0*%
%ADD30O,1.600000X0.900000*%
%ADD31RoundRect,0.200000X-1.100000X-1.000000X1.100000X-1.000000X1.100000X1.000000X-1.100000X1.000000X0*%
%ADD32RoundRect,0.200000X-0.358603X-0.769028X0.769028X-0.358603X0.358603X0.769028X-0.769028X0.358603X0*%
%ADD33RoundRect,0.350000X0.092778X0.660600X-0.206080X0.634453X-0.092778X-0.660600X0.206080X-0.634453X0*%
%ADD34RoundRect,0.449600X0.274949X0.877703X-0.423184X0.816625X-0.274949X-0.877703X0.423184X-0.816625X0*%
%ADD35RoundRect,0.350000X0.206080X0.634453X-0.092778X0.660600X-0.206080X-0.634453X0.092778X-0.660600X0*%
%ADD36RoundRect,0.449600X0.423184X0.816625X-0.274949X0.877703X-0.423184X-0.816625X0.274949X-0.877703X0*%
G04 APERTURE END LIST*
D10*
X36463366Y-117659257D02*
G75*
G03*
X35819512Y-118578755I130634J-776643D01*
G01*
X38851756Y-135766924D02*
X35819511Y-118578755D01*
X58521462Y-121839589D02*
X58122984Y-121874452D01*
X58383232Y-122554357D02*
X58322223Y-121857020D01*
X57951548Y-122592124D02*
X57890539Y-121894788D01*
X57652690Y-122618271D02*
X57620733Y-122253000D01*
X57620733Y-122253000D02*
X57648129Y-122183681D01*
X57648129Y-122183681D02*
X57711636Y-122144664D01*
X57711636Y-122144664D02*
X57811256Y-122135949D01*
X57811256Y-122135949D02*
X57880574Y-122163345D01*
X57880574Y-122163345D02*
X57916686Y-122193646D01*
X56981094Y-122208579D02*
X57021767Y-122673470D01*
X57279952Y-122182432D02*
X57311910Y-122547703D01*
X57311910Y-122547703D02*
X57284513Y-122617021D01*
X57284513Y-122617021D02*
X57221006Y-122656038D01*
X57221006Y-122656038D02*
X57121386Y-122664754D01*
X57121386Y-122664754D02*
X57052068Y-122637358D01*
X57052068Y-122637358D02*
X57015956Y-122607057D01*
X56689702Y-122702521D02*
X56649029Y-122237631D01*
X56654840Y-122304044D02*
X56618728Y-122273742D01*
X56618728Y-122273742D02*
X56549410Y-122246346D01*
X56549410Y-122246346D02*
X56449791Y-122255062D01*
X56449791Y-122255062D02*
X56386283Y-122294079D01*
X56386283Y-122294079D02*
X56358887Y-122363397D01*
X56358887Y-122363397D02*
X56390844Y-122728668D01*
X56358887Y-122363397D02*
X56319870Y-122299889D01*
X56319870Y-122299889D02*
X56250552Y-122272493D01*
X56250552Y-122272493D02*
X56150932Y-122281208D01*
X56150932Y-122281208D02*
X56087424Y-122320225D01*
X56087424Y-122320225D02*
X56060028Y-122389543D01*
X56060028Y-122389543D02*
X56091985Y-122754815D01*
X55759921Y-122783867D02*
X55698912Y-122086530D01*
X55722153Y-122352182D02*
X55652835Y-122324786D01*
X55652835Y-122324786D02*
X55520009Y-122336407D01*
X55520009Y-122336407D02*
X55456501Y-122375424D01*
X55456501Y-122375424D02*
X55426200Y-122411536D01*
X55426200Y-122411536D02*
X55398804Y-122480854D01*
X55398804Y-122480854D02*
X55416235Y-122680093D01*
X55416235Y-122680093D02*
X55455252Y-122743600D01*
X55455252Y-122743600D02*
X55491364Y-122773902D01*
X55491364Y-122773902D02*
X55560682Y-122801298D01*
X55560682Y-122801298D02*
X55693508Y-122789677D01*
X55693508Y-122789677D02*
X55757016Y-122750660D01*
D11*
X92331672Y-132863515D02*
X92492917Y-131949051D01*
X92944848Y-132594476D02*
X91234315Y-132670021D01*
X91922739Y-131974232D02*
X91761494Y-132888697D01*
X91309562Y-132243271D02*
X93020096Y-132167726D01*
X91832910Y-130701198D02*
X91703915Y-131432770D01*
X91768412Y-131066984D02*
X93048662Y-131292727D01*
X93048662Y-131292727D02*
X92844270Y-131382406D01*
X92844270Y-131382406D02*
X92700842Y-131482836D01*
X92700842Y-131482836D02*
X92618379Y-131594014D01*
X93317404Y-129768620D02*
X93209907Y-130378263D01*
X93209907Y-130378263D02*
X92589515Y-130331730D01*
X92589515Y-130331730D02*
X92661229Y-130281516D01*
X92661229Y-130281516D02*
X92743692Y-130170337D01*
X92743692Y-130170337D02*
X92797440Y-129865515D01*
X92797440Y-129865515D02*
X92757975Y-129732837D01*
X92757975Y-129732837D02*
X92707761Y-129661123D01*
X92707761Y-129661123D02*
X92596582Y-129578660D01*
X92596582Y-129578660D02*
X92291760Y-129524911D01*
X92291760Y-129524911D02*
X92159082Y-129564376D01*
X92159082Y-129564376D02*
X92087368Y-129614591D01*
X92087368Y-129614591D02*
X92004905Y-129725770D01*
X92004905Y-129725770D02*
X91951156Y-130030591D01*
X91951156Y-130030591D02*
X91990621Y-130163270D01*
X91990621Y-130163270D02*
X92040836Y-130234983D01*
X93292222Y-129198442D02*
X93363936Y-129148227D01*
X93363936Y-129148227D02*
X93446399Y-129037048D01*
X93446399Y-129037048D02*
X93500148Y-128732227D01*
X93500148Y-128732227D02*
X93460683Y-128599549D01*
X93460683Y-128599549D02*
X93410468Y-128527835D01*
X93410468Y-128527835D02*
X93299289Y-128445371D01*
X93299289Y-128445371D02*
X93177361Y-128423872D01*
X93177361Y-128423872D02*
X92983718Y-128452587D01*
X92983718Y-128452587D02*
X92123151Y-129055163D01*
X92123151Y-129055163D02*
X92262896Y-128262627D01*
X94030067Y-133338466D02*
X95310317Y-133564209D01*
X95310317Y-133564209D02*
X94471100Y-132976214D01*
X94471100Y-132976214D02*
X95460812Y-132710708D01*
X95460812Y-132710708D02*
X94180562Y-132484966D01*
X94384806Y-131326645D02*
X95055413Y-131444891D01*
X95055413Y-131444891D02*
X95166592Y-131527354D01*
X95166592Y-131527354D02*
X95206057Y-131660033D01*
X95206057Y-131660033D02*
X95163058Y-131903890D01*
X95163058Y-131903890D02*
X95080594Y-132015069D01*
X94445770Y-131337394D02*
X94363306Y-131448573D01*
X94363306Y-131448573D02*
X94309558Y-131753395D01*
X94309558Y-131753395D02*
X94349023Y-131886073D01*
X94349023Y-131886073D02*
X94460202Y-131968536D01*
X94460202Y-131968536D02*
X94582130Y-131990036D01*
X94582130Y-131990036D02*
X94714809Y-131950571D01*
X94714809Y-131950571D02*
X94797272Y-131839392D01*
X94797272Y-131839392D02*
X94851021Y-131534570D01*
X94851021Y-131534570D02*
X94933484Y-131423391D01*
X94492302Y-130717002D02*
X95345802Y-130867497D01*
X95101945Y-130824499D02*
X95234623Y-130785034D01*
X95234623Y-130785034D02*
X95306337Y-130734819D01*
X95306337Y-130734819D02*
X95388801Y-130623640D01*
X95388801Y-130623640D02*
X95410300Y-130501712D01*
X96062793Y-129296709D02*
X96213288Y-128443209D01*
X96213288Y-128443209D02*
X94836291Y-128766145D01*
X95090749Y-127679538D02*
X95029784Y-127668788D01*
X95029784Y-127668788D02*
X94897106Y-127708253D01*
X94897106Y-127708253D02*
X94825392Y-127758468D01*
X96446097Y-126409888D02*
X96517811Y-126359674D01*
X96517811Y-126359674D02*
X96600275Y-126248495D01*
X96600275Y-126248495D02*
X96654023Y-125943673D01*
X96654023Y-125943673D02*
X96614558Y-125810995D01*
X96614558Y-125810995D02*
X96564344Y-125739281D01*
X96564344Y-125739281D02*
X96453165Y-125656817D01*
X96453165Y-125656817D02*
X96331236Y-125635318D01*
X96331236Y-125635318D02*
X96137594Y-125664034D01*
X96137594Y-125664034D02*
X95277026Y-126266609D01*
X95277026Y-126266609D02*
X95416772Y-125474073D01*
X96836767Y-124907281D02*
X96858267Y-124785352D01*
X96858267Y-124785352D02*
X96818802Y-124652674D01*
X96818802Y-124652674D02*
X96768587Y-124580960D01*
X96768587Y-124580960D02*
X96657408Y-124498496D01*
X96657408Y-124498496D02*
X96424300Y-124394533D01*
X96424300Y-124394533D02*
X96119479Y-124340785D01*
X96119479Y-124340785D02*
X95864872Y-124358751D01*
X95864872Y-124358751D02*
X95732194Y-124398216D01*
X95732194Y-124398216D02*
X95660480Y-124448430D01*
X95660480Y-124448430D02*
X95578016Y-124559609D01*
X95578016Y-124559609D02*
X95556517Y-124681538D01*
X95556517Y-124681538D02*
X95595982Y-124814216D01*
X95595982Y-124814216D02*
X95646197Y-124885930D01*
X95646197Y-124885930D02*
X95757376Y-124968394D01*
X95757376Y-124968394D02*
X95990483Y-125072357D01*
X95990483Y-125072357D02*
X96295305Y-125126105D01*
X96295305Y-125126105D02*
X96549911Y-125108139D01*
X96549911Y-125108139D02*
X96682590Y-125068674D01*
X96682590Y-125068674D02*
X96754304Y-125018459D01*
X96754304Y-125018459D02*
X96836767Y-124907281D01*
X96876083Y-123971317D02*
X96947797Y-123921102D01*
X96947797Y-123921102D02*
X97030261Y-123809924D01*
X97030261Y-123809924D02*
X97084009Y-123505102D01*
X97084009Y-123505102D02*
X97044544Y-123372424D01*
X97044544Y-123372424D02*
X96994329Y-123300710D01*
X96994329Y-123300710D02*
X96883151Y-123218246D01*
X96883151Y-123218246D02*
X96761222Y-123196747D01*
X96761222Y-123196747D02*
X96567579Y-123225462D01*
X96567579Y-123225462D02*
X95707012Y-123828038D01*
X95707012Y-123828038D02*
X95846758Y-123035502D01*
X97202255Y-122834495D02*
X97342001Y-122041959D01*
X97342001Y-122041959D02*
X96779039Y-122382712D01*
X96779039Y-122382712D02*
X96811288Y-122199819D01*
X96811288Y-122199819D02*
X96771823Y-122067141D01*
X96771823Y-122067141D02*
X96721608Y-121995427D01*
X96721608Y-121995427D02*
X96610429Y-121912964D01*
X96610429Y-121912964D02*
X96305608Y-121859215D01*
X96305608Y-121859215D02*
X96172929Y-121898680D01*
X96172929Y-121898680D02*
X96101216Y-121948895D01*
X96101216Y-121948895D02*
X96018752Y-122060074D01*
X96018752Y-122060074D02*
X95954254Y-122425860D01*
X95954254Y-122425860D02*
X95993719Y-122558538D01*
X95993719Y-122558538D02*
X96043934Y-122630252D01*
D10*
X79225894Y-122121391D02*
X78827416Y-122086528D01*
X78965646Y-122801296D02*
X79026655Y-122103959D01*
X78533962Y-122763528D02*
X78594971Y-122066192D01*
X78235103Y-122737382D02*
X78267061Y-122372110D01*
X78267061Y-122372110D02*
X78306077Y-122308602D01*
X78306077Y-122308602D02*
X78375396Y-122281206D01*
X78375396Y-122281206D02*
X78475015Y-122289922D01*
X78475015Y-122289922D02*
X78538523Y-122328939D01*
X78538523Y-122328939D02*
X78568824Y-122365050D01*
X77644853Y-122217292D02*
X77604180Y-122682183D01*
X77943712Y-122243439D02*
X77911754Y-122608710D01*
X77911754Y-122608710D02*
X77872738Y-122672218D01*
X77872738Y-122672218D02*
X77803419Y-122699614D01*
X77803419Y-122699614D02*
X77703800Y-122690899D01*
X77703800Y-122690899D02*
X77640292Y-122651882D01*
X77640292Y-122651882D02*
X77609991Y-122615770D01*
X77272116Y-122653131D02*
X77312789Y-122188240D01*
X77306978Y-122254653D02*
X77276677Y-122218542D01*
X77276677Y-122218542D02*
X77213169Y-122179525D01*
X77213169Y-122179525D02*
X77113550Y-122170809D01*
X77113550Y-122170809D02*
X77044231Y-122198205D01*
X77044231Y-122198205D02*
X77005215Y-122261713D01*
X77005215Y-122261713D02*
X76973257Y-122626984D01*
X77005215Y-122261713D02*
X76977818Y-122192395D01*
X76977818Y-122192395D02*
X76914311Y-122153378D01*
X76914311Y-122153378D02*
X76814691Y-122144662D01*
X76814691Y-122144662D02*
X76745373Y-122172058D01*
X76745373Y-122172058D02*
X76706356Y-122235566D01*
X76706356Y-122235566D02*
X76674399Y-122600838D01*
X76342334Y-122571786D02*
X76403344Y-121874449D01*
X76380102Y-122140101D02*
X76316594Y-122101085D01*
X76316594Y-122101085D02*
X76183768Y-122089464D01*
X76183768Y-122089464D02*
X76114450Y-122116860D01*
X76114450Y-122116860D02*
X76078338Y-122147161D01*
X76078338Y-122147161D02*
X76039322Y-122210669D01*
X76039322Y-122210669D02*
X76021890Y-122409908D01*
X76021890Y-122409908D02*
X76049286Y-122479226D01*
X76049286Y-122479226D02*
X76079588Y-122515338D01*
X76079588Y-122515338D02*
X76143096Y-122554355D01*
X76143096Y-122554355D02*
X76275922Y-122565975D01*
X76275922Y-122565975D02*
X76345240Y-122538579D01*
X20395577Y-134504942D02*
X21968870Y-138827528D01*
X19385582Y-128221439D02*
X20734852Y-131928526D01*
X20737930Y-131936983D02*
X24130220Y-130702291D01*
X25548252Y-137551344D02*
X22000913Y-138842470D01*
X24827074Y-132865404D02*
X20387027Y-134481449D01*
X27130753Y-138332187D02*
X28265501Y-138876933D01*
X30896640Y-137919276D02*
X28265501Y-138876933D01*
X30137028Y-133273930D02*
X27740812Y-134146082D01*
X30169071Y-133288872D02*
X31434545Y-136765735D01*
X31434545Y-136765735D02*
X30896640Y-137919276D01*
X28959925Y-122657260D02*
X20855076Y-125607183D01*
X30329373Y-126419789D02*
X25255033Y-128266698D01*
X30329373Y-126419789D02*
X28959925Y-122657260D01*
X20855076Y-125607184D02*
G75*
G03*
X19385583Y-128221439I650419J-2085740D01*
G01*
X27130752Y-138332187D02*
G75*
G03*
X25548252Y-137551345I-1198965J-435877D01*
G01*
X25255033Y-128266697D02*
G75*
G03*
X24130221Y-130702291I567738J-1739723D01*
G01*
X24827073Y-132865404D02*
G75*
G03*
X27740812Y-134146082I2113505J853608D01*
G01*
X80388680Y-125463890D02*
X79589898Y-129994006D01*
X82655750Y-119517220D02*
X81970708Y-123402286D01*
X81969145Y-123411149D02*
X85524301Y-124038019D01*
X83327827Y-130678489D02*
X79610177Y-130022967D01*
X85046238Y-126259758D02*
X80393021Y-125439270D01*
X84307891Y-132145970D02*
X85018238Y-133185107D01*
X87775700Y-133671322D02*
X85018238Y-133185107D01*
X89440529Y-129268528D02*
X86929270Y-128825725D01*
X89460808Y-129297490D02*
X88818310Y-132941278D01*
X88818310Y-132941278D02*
X87775700Y-133671322D01*
X93729463Y-119485670D02*
X85235497Y-117987955D01*
X93034176Y-123428841D02*
X87716214Y-122491140D01*
X93034176Y-123428841D02*
X93729463Y-119485670D01*
X85235497Y-117987955D02*
G75*
G03*
X82655750Y-119517220I-479593J-2131511D01*
G01*
X84307891Y-132145970D02*
G75*
G03*
X83327827Y-130678489I-1256271J222004D01*
G01*
X87716214Y-122491140D02*
G75*
G03*
X85524301Y-124038019I-378187J-1790512D01*
G01*
X85046240Y-126259758D02*
G75*
G03*
X86929270Y-128825724I2257152J-317505D01*
G01*
D12*
X44278082Y-117314779D02*
X44473506Y-117280320D01*
X44370131Y-116694050D02*
X44576881Y-117866590D01*
X44576881Y-117866590D02*
X46140267Y-117590923D01*
X44967728Y-117797673D02*
X44760977Y-116625134D01*
X45933517Y-116418383D02*
X44370131Y-116694050D01*
X46036892Y-117004653D02*
X46232315Y-116970195D01*
X46140267Y-117590923D02*
X45933517Y-116418383D01*
X66270988Y-115219246D02*
X66469426Y-115219246D01*
X66469426Y-114623932D02*
X66469426Y-115814560D01*
X66469426Y-115814560D02*
X68056930Y-115814560D01*
X66866302Y-115814560D02*
X66866302Y-114623932D01*
X68056930Y-114623932D02*
X66469426Y-114623932D01*
X68056930Y-115219246D02*
X68255368Y-115219246D01*
X68056930Y-115814560D02*
X68056930Y-114623932D01*
D10*
X39756447Y-127996610D02*
X40555228Y-132526725D01*
X39852915Y-121633183D02*
X40537957Y-125518250D01*
X40539520Y-125527113D02*
X44094676Y-124900243D01*
X44301839Y-131891482D02*
X40584190Y-132547004D01*
X44405322Y-127151502D02*
X39752106Y-127971989D01*
X45724706Y-132935261D02*
X46747620Y-133668778D01*
X49505082Y-133182563D02*
X46747620Y-133668778D01*
X49563666Y-128475885D02*
X47052406Y-128918688D01*
X49592627Y-128496164D02*
X50235126Y-132139953D01*
X50235126Y-132139953D02*
X49505082Y-133182563D01*
X50248011Y-117816104D02*
X41754044Y-119313819D01*
X50943298Y-121759274D02*
X45625336Y-122696974D01*
X50943298Y-121759274D02*
X50248011Y-117816104D01*
X41754044Y-119313819D02*
G75*
G03*
X39852915Y-121633183I278353J-2166997D01*
G01*
X45724706Y-132935261D02*
G75*
G03*
X44301839Y-131891483I-1256438J-221055D01*
G01*
X45625336Y-122696975D02*
G75*
G03*
X44094677Y-124900243I257011J-1811877D01*
G01*
X44405323Y-127151502D02*
G75*
G03*
X47052406Y-128918688I2229623J473635D01*
G01*
D12*
X88291025Y-116972747D02*
X88486449Y-117007206D01*
X88589824Y-116420936D02*
X88383074Y-117593476D01*
X88383074Y-117593476D02*
X89946460Y-117869143D01*
X88773920Y-117662392D02*
X88980671Y-116489853D01*
X90153210Y-116696603D02*
X88589824Y-116420936D01*
X90049835Y-117282873D02*
X90245258Y-117317331D01*
X89946460Y-117869143D02*
X90153210Y-116696603D01*
D10*
X59963171Y-124953619D02*
X59963171Y-129553619D01*
X61163171Y-118703619D02*
X61163171Y-122648619D01*
X61163171Y-122657619D02*
X64773171Y-122657619D01*
X63763171Y-129578619D02*
X59988171Y-129578619D01*
X64688171Y-124928619D02*
X59963171Y-124928619D01*
X64983171Y-130853619D02*
X65863171Y-131753619D01*
X68663171Y-131753619D02*
X65863171Y-131753619D01*
X69538171Y-127128619D02*
X66988171Y-127128619D01*
X69563171Y-127153619D02*
X69563171Y-130853619D01*
X69563171Y-130853619D02*
X68663171Y-131753619D01*
X72063171Y-116749619D02*
X63438171Y-116749619D01*
X72063171Y-120753619D02*
X66663171Y-120753619D01*
X72063171Y-120753619D02*
X72063171Y-116749619D01*
X63438171Y-116749619D02*
G75*
G03*
X61163171Y-118703619I-102171J-2182411D01*
G01*
X64983171Y-130853619D02*
G75*
G03*
X63763171Y-129578619I-1275736J482D01*
G01*
X66663171Y-120753619D02*
G75*
G03*
X64773171Y-122657619I-61523J-1828981D01*
G01*
X64688172Y-124928619D02*
G75*
G03*
X66988171Y-127128619I2277996J79269D01*
G01*
D12*
X23014791Y-123258340D02*
X23201262Y-123190470D01*
X22997652Y-122631058D02*
X23404871Y-123749883D01*
X23404871Y-123749883D02*
X24896637Y-123206924D01*
X23777812Y-123614143D02*
X23370594Y-122495319D01*
X24489418Y-122088100D02*
X22997652Y-122631058D01*
X24693027Y-122647512D02*
X24879498Y-122579642D01*
X24896637Y-123206924D02*
X24489418Y-122088100D01*
D13*
X59742449Y-119625842D02*
X58696445Y-119717355D01*
X59742449Y-119625842D02*
X53214055Y-116372449D01*
X59642220Y-118480218D02*
X59742449Y-119625842D01*
X58696445Y-119717355D02*
X58782729Y-120703588D01*
X58244838Y-115932312D02*
X54379603Y-116270476D01*
X53546118Y-120167950D02*
X59410386Y-115830340D01*
X53546118Y-120167950D02*
X54592123Y-120076437D01*
X53445889Y-119022327D02*
X53546118Y-120167950D01*
X80980213Y-120167949D02*
X79934208Y-120076436D01*
X81080442Y-119022326D02*
X80980213Y-120167949D01*
X79934208Y-120076436D02*
X79847924Y-121062669D01*
X80146728Y-116270475D02*
X76281493Y-115932311D01*
X74783882Y-119625841D02*
X75829886Y-119717354D01*
X74884111Y-118480217D02*
X74783882Y-119625841D01*
%LPC*%
D14*
X38688167Y-135459876D03*
D15*
X21608196Y-132573736D03*
D16*
X22002866Y-132430087D03*
D17*
X26776505Y-130692625D03*
D18*
X29610958Y-123861200D03*
D16*
X31550144Y-128955163D03*
D15*
X31944814Y-128811514D03*
D19*
X20336500Y-136974053D03*
X19329925Y-130699947D03*
D20*
X23343516Y-135879588D03*
X22327545Y-129608902D03*
X28794424Y-136236811D03*
X27425862Y-125050255D03*
D19*
X31798020Y-135132950D03*
X30395291Y-123969472D03*
D15*
X82404441Y-124397726D03*
D16*
X82818061Y-124470658D03*
D17*
X87820884Y-125352791D03*
D21*
X93691305Y-120853830D03*
D16*
X92823707Y-126234924D03*
D15*
X93237327Y-126307856D03*
D22*
X79102962Y-127572665D03*
X81368296Y-121635842D03*
D20*
X82254347Y-128128339D03*
X84509833Y-122189780D03*
X86796360Y-131163157D03*
X91204428Y-120791034D03*
D22*
X89949481Y-131708983D03*
X94316421Y-121339762D03*
D14*
X76788168Y-131094250D03*
D23*
X42128426Y-117693821D03*
X43556398Y-117442031D03*
X46953984Y-116842945D03*
D24*
X48381956Y-116591155D03*
D14*
X38688172Y-116409876D03*
D25*
X64088170Y-115219246D03*
X65538170Y-115219246D03*
X68988170Y-115219246D03*
D24*
X70438170Y-115219246D03*
D26*
X31044945Y-121533410D03*
D14*
X95838170Y-116409867D03*
D15*
X41285993Y-126305312D03*
D16*
X41699613Y-126232380D03*
D17*
X46702436Y-125350247D03*
D27*
X50680092Y-119114804D03*
D16*
X51705259Y-124468114D03*
D15*
X52118879Y-124395182D03*
D28*
X39269511Y-130417951D03*
X39367715Y-124064373D03*
D20*
X42420895Y-129862277D03*
X42509252Y-123510435D03*
X47726960Y-131160613D03*
X48321715Y-119906357D03*
D28*
X50876609Y-130595090D03*
X51433707Y-119357629D03*
D29*
X86141369Y-116593705D03*
X87569341Y-116845495D03*
X90966927Y-117444581D03*
D24*
X92394899Y-117696371D03*
D14*
X57738174Y-131094247D03*
D15*
X61763171Y-123553619D03*
D16*
X62183171Y-123553619D03*
D17*
X67263171Y-123553619D03*
D30*
X72263171Y-118103619D03*
D16*
X72343171Y-123553619D03*
D15*
X72763171Y-123553619D03*
D31*
X59063171Y-127253619D03*
X60263171Y-121013619D03*
D20*
X62263171Y-127253619D03*
X63453171Y-121013619D03*
X67263171Y-129453619D03*
X69803171Y-118473619D03*
D31*
X70463171Y-129443619D03*
X72963171Y-118473619D03*
D32*
X20963613Y-124004908D03*
X22326167Y-123508979D03*
X25568107Y-122329009D03*
D24*
X26930661Y-121833080D03*
D26*
X17628748Y-126416282D03*
X22506196Y-139844311D03*
D33*
X58198713Y-120453537D03*
X57202519Y-120540693D03*
X56206324Y-120627848D03*
X55210129Y-120715004D03*
D34*
X59206153Y-117052792D03*
X53627462Y-117540864D03*
D35*
X79316202Y-120715003D03*
X78320007Y-120627847D03*
X77323812Y-120540692D03*
X76327618Y-120453536D03*
D36*
X80898869Y-117540863D03*
X75320178Y-117052791D03*
%LPD*%
M02*
