G04 #@! TF.GenerationSoftware,KiCad,Pcbnew,7.0.8*
G04 #@! TF.CreationDate,2023-10-15T17:46:01+09:00*
G04 #@! TF.ProjectId,pangaea-pcb-thumb-k2-4keys,70616e67-6165-4612-9d70-63622d746875,1*
G04 #@! TF.SameCoordinates,Original*
G04 #@! TF.FileFunction,Profile,NP*
%FSLAX46Y46*%
G04 Gerber Fmt 4.6, Leading zero omitted, Abs format (unit mm)*
G04 Created by KiCad (PCBNEW 7.0.8) date 2023-10-15 17:46:01*
%MOMM*%
%LPD*%
G01*
G04 APERTURE LIST*
G04 #@! TA.AperFunction,Profile*
%ADD10C,0.150000*%
G04 #@! TD*
G04 APERTURE END LIST*
D10*
X37235269Y-126622621D02*
G75*
G03*
X36263186Y-126061341I-766669J-205379D01*
G01*
X36194973Y-120731125D02*
G75*
G03*
X35222911Y-120169831I-766673J-205375D01*
G01*
X20794087Y-142104847D02*
G75*
G03*
X21811510Y-142579226I745913J271547D01*
G01*
X34063804Y-120480419D02*
G75*
G03*
X33502537Y-121452560I205396J-766681D01*
G01*
X36108653Y-126102789D02*
G75*
G03*
X35547374Y-127074890I205447J-766711D01*
G01*
X95550000Y-136390000D02*
X98860000Y-117630000D01*
X15297676Y-124686971D02*
G75*
G03*
X14823282Y-125704327I263534J-742169D01*
G01*
X36039161Y-124027521D02*
G75*
G03*
X36600433Y-123055382I-205461J766721D01*
G01*
X33502536Y-121452560D02*
X34313601Y-123668134D01*
X34313602Y-123668142D02*
G75*
G03*
X35285747Y-124229397I766698J205442D01*
G01*
X98859999Y-117630002D02*
G75*
G03*
X15297689Y-124686973I-31147069J-129447788D01*
G01*
X36600433Y-123055382D02*
X36195055Y-120731104D01*
X95550000Y-136389998D02*
G75*
G03*
X21811511Y-142579225I-27784190J-111334022D01*
G01*
X36108644Y-126102753D02*
X36263186Y-126061340D01*
X35285747Y-124229397D02*
X36039169Y-124027524D01*
X37685761Y-129245395D02*
X37235336Y-126622606D01*
X20794153Y-142104823D02*
X14823282Y-125704327D01*
X36468692Y-129571503D02*
G75*
G03*
X37685769Y-129245401I608538J163053D01*
G01*
X36468690Y-129571503D02*
X35547374Y-127074890D01*
X34063810Y-120480422D02*
X35222911Y-120169830D01*
M02*
