%TF.GenerationSoftware,KiCad,Pcbnew,(6.0.11-0)*%
%TF.CreationDate,2023-02-05T15:27:35+09:00*%
%TF.ProjectId,pangaea-pcb-thumb-k2-4keys,70616e67-6165-4612-9d70-63622d746875,1*%
%TF.SameCoordinates,Original*%
%TF.FileFunction,Drillmap*%
%TF.FilePolarity,Positive*%
%FSLAX45Y45*%
G04 Gerber Fmt 4.5, Leading zero omitted, Abs format (unit mm)*
G04 Created by KiCad (PCBNEW (6.0.11-0)) date 2023-02-05 15:27:35*
%MOMM*%
%LPD*%
G01*
G04 APERTURE LIST*
%ADD10C,0.150000*%
%ADD11C,0.200000*%
%ADD12C,0.040000*%
%ADD13C,0.075000*%
%ADD14C,0.100000*%
%ADD15C,0.128000*%
%ADD16C,0.300000*%
G04 APERTURE END LIST*
D10*
X3723527Y-12662262D02*
G75*
G03*
X3626319Y-12606134I-76667J-20538D01*
G01*
X3619497Y-12073112D02*
G75*
G03*
X3522291Y-12016983I-76667J-20538D01*
G01*
X2079409Y-14210485D02*
G75*
G03*
X2181151Y-14257923I74591J27155D01*
G01*
X3406380Y-12048042D02*
G75*
G03*
X3350254Y-12145256I20540J-76668D01*
G01*
X3610865Y-12610279D02*
G75*
G03*
X3554737Y-12707489I20545J-76671D01*
G01*
X9555000Y-13639000D02*
X9886000Y-11763000D01*
X1529768Y-12468697D02*
G75*
G03*
X1482328Y-12570433I26353J-74217D01*
G01*
X3603916Y-12402752D02*
G75*
G03*
X3660043Y-12305538I-20546J76672D01*
G01*
X3350254Y-12145256D02*
X3431360Y-12366813D01*
X3431360Y-12366814D02*
G75*
G03*
X3528575Y-12422940I76670J20544D01*
G01*
X9886000Y-11763000D02*
G75*
G03*
X1529769Y-12468697I-3114707J-12944779D01*
G01*
X3660043Y-12305538D02*
X3619505Y-12073110D01*
X9555000Y-13639000D02*
G75*
G03*
X2181151Y-14257922I-2778419J-11133402D01*
G01*
X3610864Y-12610275D02*
X3626319Y-12606134D01*
X3528575Y-12422940D02*
X3603917Y-12402752D01*
X3768576Y-12924539D02*
X3723534Y-12662261D01*
X2079415Y-14210482D02*
X1482328Y-12570433D01*
X3646869Y-12957150D02*
G75*
G03*
X3768577Y-12924540I60854J16305D01*
G01*
X3646869Y-12957150D02*
X3554737Y-12707489D01*
X3406381Y-12048042D02*
X3522291Y-12016983D01*
D11*
D12*
X5355949Y-11946581D02*
X5395949Y-11986581D01*
X5395949Y-11946581D02*
X5355949Y-11986581D01*
X5723943Y-12303197D02*
X5763943Y-12343197D01*
X5763943Y-12303197D02*
X5723943Y-12343197D01*
X7633401Y-12701556D02*
X7673401Y-12741556D01*
X7673401Y-12701556D02*
X7633401Y-12741556D01*
X7698521Y-12192494D02*
X7738521Y-12232494D01*
X7738521Y-12192494D02*
X7698521Y-12232494D01*
X7816371Y-11519358D02*
X7856371Y-11559358D01*
X7856371Y-11519358D02*
X7816371Y-11559358D01*
D13*
X2133861Y-12400491D02*
G75*
G03*
X2133861Y-12400491I-37500J0D01*
G01*
X2730566Y-12183308D02*
G75*
G03*
X2730566Y-12183308I-37500J0D01*
G01*
X4250343Y-11769382D02*
G75*
G03*
X4250343Y-11769382I-37500J0D01*
G01*
X4875696Y-11659115D02*
G75*
G03*
X4875696Y-11659115I-37500J0D01*
G01*
X6446317Y-11521925D02*
G75*
G03*
X6446317Y-11521925I-37500J0D01*
G01*
X7081317Y-11521925D02*
G75*
G03*
X7081317Y-11521925I-37500J0D01*
G01*
X8651637Y-11659370D02*
G75*
G03*
X8651637Y-11659370I-37500J0D01*
G01*
X9276990Y-11769637D02*
G75*
G03*
X9276990Y-11769637I-37500J0D01*
G01*
D14*
X5362746Y-11704086D02*
X5362746Y-11804086D01*
X5312746Y-11754086D02*
X5412746Y-11754086D01*
X5920615Y-11655279D02*
X5920615Y-11755279D01*
X5870615Y-11705279D02*
X5970615Y-11705279D01*
X7532018Y-11655279D02*
X7532018Y-11755279D01*
X7482018Y-11705279D02*
X7582018Y-11705279D01*
X8089887Y-11704086D02*
X8089887Y-11804086D01*
X8039887Y-11754086D02*
X8139887Y-11754086D01*
D15*
X1808130Y-12686883D02*
X1808130Y-12596373D01*
X1717619Y-12596373D01*
X1717619Y-12686883D01*
X1808130Y-12686883D01*
X2295875Y-14029686D02*
X2295875Y-13939176D01*
X2205364Y-13939176D01*
X2205364Y-14029686D01*
X2295875Y-14029686D01*
X3149750Y-12198596D02*
X3149750Y-12108086D01*
X3059239Y-12108086D01*
X3059239Y-12198596D01*
X3149750Y-12198596D01*
D16*
X2232755Y-13110890D02*
X2382755Y-12960890D01*
X2232755Y-12810890D01*
X2082754Y-12960890D01*
X2232755Y-13110890D01*
X2334352Y-13737959D02*
X2484352Y-13587959D01*
X2334352Y-13437959D01*
X2184352Y-13587959D01*
X2334352Y-13737959D01*
X2742586Y-12655025D02*
X2892586Y-12505025D01*
X2742586Y-12355025D01*
X2592586Y-12505025D01*
X2742586Y-12655025D01*
X2879442Y-13773681D02*
X3029442Y-13623681D01*
X2879442Y-13473681D01*
X2729442Y-13623681D01*
X2879442Y-13773681D01*
X4242090Y-13136228D02*
X4392090Y-12986228D01*
X4242090Y-12836228D01*
X4092089Y-12986228D01*
X4242090Y-13136228D01*
X4250925Y-12501043D02*
X4400925Y-12351043D01*
X4250925Y-12201043D01*
X4100925Y-12351043D01*
X4250925Y-12501043D01*
X4772696Y-13266061D02*
X4922696Y-13116061D01*
X4772696Y-12966061D01*
X4622696Y-13116061D01*
X4772696Y-13266061D01*
X4832172Y-12140636D02*
X4982172Y-11990636D01*
X4832172Y-11840636D01*
X4682172Y-11990636D01*
X4832172Y-12140636D01*
X6226317Y-12875362D02*
X6376317Y-12725362D01*
X6226317Y-12575362D01*
X6076317Y-12725362D01*
X6226317Y-12875362D01*
X6345317Y-12251362D02*
X6495317Y-12101362D01*
X6345317Y-11951362D01*
X6195317Y-12101362D01*
X6345317Y-12251362D01*
X6726317Y-13095362D02*
X6876317Y-12945362D01*
X6726317Y-12795362D01*
X6576317Y-12945362D01*
X6726317Y-13095362D01*
X6980317Y-11997362D02*
X7130317Y-11847362D01*
X6980317Y-11697362D01*
X6830317Y-11847362D01*
X6980317Y-11997362D01*
X8225435Y-12962834D02*
X8375435Y-12812834D01*
X8225435Y-12662834D01*
X8075435Y-12812834D01*
X8225435Y-12962834D01*
X8450983Y-12368978D02*
X8600983Y-12218978D01*
X8450983Y-12068978D01*
X8300983Y-12218978D01*
X8450983Y-12368978D01*
X8679636Y-13266316D02*
X8829636Y-13116316D01*
X8679636Y-12966316D01*
X8529636Y-13116316D01*
X8679636Y-13266316D01*
X9120443Y-12229103D02*
X9270443Y-12079103D01*
X9120443Y-11929103D01*
X8970443Y-12079103D01*
X9120443Y-12229103D01*
D11*
X1727483Y-14580686D02*
X1727483Y-14380686D01*
X1775102Y-14380686D01*
X1803674Y-14390210D01*
X1822721Y-14409258D01*
X1832245Y-14428305D01*
X1841769Y-14466401D01*
X1841769Y-14494972D01*
X1832245Y-14533067D01*
X1822721Y-14552115D01*
X1803674Y-14571163D01*
X1775102Y-14580686D01*
X1727483Y-14580686D01*
X1927483Y-14580686D02*
X1927483Y-14447353D01*
X1927483Y-14485448D02*
X1937007Y-14466401D01*
X1946531Y-14456877D01*
X1965578Y-14447353D01*
X1984626Y-14447353D01*
X2051293Y-14580686D02*
X2051293Y-14447353D01*
X2051293Y-14380686D02*
X2041769Y-14390210D01*
X2051293Y-14399734D01*
X2060816Y-14390210D01*
X2051293Y-14380686D01*
X2051293Y-14399734D01*
X2175102Y-14580686D02*
X2156055Y-14571163D01*
X2146531Y-14552115D01*
X2146531Y-14380686D01*
X2279864Y-14580686D02*
X2260816Y-14571163D01*
X2251293Y-14552115D01*
X2251293Y-14380686D01*
X2508436Y-14580686D02*
X2508436Y-14380686D01*
X2575102Y-14523544D01*
X2641769Y-14380686D01*
X2641769Y-14580686D01*
X2822721Y-14580686D02*
X2822721Y-14475924D01*
X2813197Y-14456877D01*
X2794150Y-14447353D01*
X2756055Y-14447353D01*
X2737007Y-14456877D01*
X2822721Y-14571163D02*
X2803674Y-14580686D01*
X2756055Y-14580686D01*
X2737007Y-14571163D01*
X2727483Y-14552115D01*
X2727483Y-14533067D01*
X2737007Y-14514020D01*
X2756055Y-14504496D01*
X2803674Y-14504496D01*
X2822721Y-14494972D01*
X2917959Y-14447353D02*
X2917959Y-14647353D01*
X2917959Y-14456877D02*
X2937007Y-14447353D01*
X2975102Y-14447353D01*
X2994150Y-14456877D01*
X3003674Y-14466401D01*
X3013197Y-14485448D01*
X3013197Y-14542591D01*
X3003674Y-14561639D01*
X2994150Y-14571163D01*
X2975102Y-14580686D01*
X2937007Y-14580686D01*
X2917959Y-14571163D01*
X3098912Y-14561639D02*
X3108435Y-14571163D01*
X3098912Y-14580686D01*
X3089388Y-14571163D01*
X3098912Y-14561639D01*
X3098912Y-14580686D01*
X3098912Y-14456877D02*
X3108435Y-14466401D01*
X3098912Y-14475924D01*
X3089388Y-14466401D01*
X3098912Y-14456877D01*
X3098912Y-14475924D01*
D12*
X1429864Y-14890210D02*
X1469864Y-14930210D01*
X1469864Y-14890210D02*
X1429864Y-14930210D01*
D11*
X1765578Y-14800686D02*
X1784626Y-14800686D01*
X1803674Y-14810210D01*
X1813197Y-14819734D01*
X1822721Y-14838782D01*
X1832245Y-14876877D01*
X1832245Y-14924496D01*
X1822721Y-14962591D01*
X1813197Y-14981639D01*
X1803674Y-14991163D01*
X1784626Y-15000686D01*
X1765578Y-15000686D01*
X1746531Y-14991163D01*
X1737007Y-14981639D01*
X1727483Y-14962591D01*
X1717959Y-14924496D01*
X1717959Y-14876877D01*
X1727483Y-14838782D01*
X1737007Y-14819734D01*
X1746531Y-14810210D01*
X1765578Y-14800686D01*
X1917959Y-14981639D02*
X1927483Y-14991163D01*
X1917959Y-15000686D01*
X1908435Y-14991163D01*
X1917959Y-14981639D01*
X1917959Y-15000686D01*
X2098912Y-14867353D02*
X2098912Y-15000686D01*
X2051293Y-14791163D02*
X2003674Y-14934020D01*
X2127483Y-14934020D01*
X2241769Y-14800686D02*
X2260816Y-14800686D01*
X2279864Y-14810210D01*
X2289388Y-14819734D01*
X2298912Y-14838782D01*
X2308436Y-14876877D01*
X2308436Y-14924496D01*
X2298912Y-14962591D01*
X2289388Y-14981639D01*
X2279864Y-14991163D01*
X2260816Y-15000686D01*
X2241769Y-15000686D01*
X2222721Y-14991163D01*
X2213197Y-14981639D01*
X2203674Y-14962591D01*
X2194150Y-14924496D01*
X2194150Y-14876877D01*
X2203674Y-14838782D01*
X2213197Y-14819734D01*
X2222721Y-14810210D01*
X2241769Y-14800686D01*
X2432245Y-14800686D02*
X2451293Y-14800686D01*
X2470340Y-14810210D01*
X2479864Y-14819734D01*
X2489388Y-14838782D01*
X2498912Y-14876877D01*
X2498912Y-14924496D01*
X2489388Y-14962591D01*
X2479864Y-14981639D01*
X2470340Y-14991163D01*
X2451293Y-15000686D01*
X2432245Y-15000686D01*
X2413197Y-14991163D01*
X2403674Y-14981639D01*
X2394150Y-14962591D01*
X2384626Y-14924496D01*
X2384626Y-14876877D01*
X2394150Y-14838782D01*
X2403674Y-14819734D01*
X2413197Y-14810210D01*
X2432245Y-14800686D01*
X2584626Y-15000686D02*
X2584626Y-14867353D01*
X2584626Y-14886401D02*
X2594150Y-14876877D01*
X2613197Y-14867353D01*
X2641769Y-14867353D01*
X2660816Y-14876877D01*
X2670340Y-14895924D01*
X2670340Y-15000686D01*
X2670340Y-14895924D02*
X2679864Y-14876877D01*
X2698912Y-14867353D01*
X2727483Y-14867353D01*
X2746531Y-14876877D01*
X2756055Y-14895924D01*
X2756055Y-15000686D01*
X2851293Y-15000686D02*
X2851293Y-14867353D01*
X2851293Y-14886401D02*
X2860816Y-14876877D01*
X2879864Y-14867353D01*
X2908435Y-14867353D01*
X2927483Y-14876877D01*
X2937007Y-14895924D01*
X2937007Y-15000686D01*
X2937007Y-14895924D02*
X2946531Y-14876877D01*
X2965578Y-14867353D01*
X2994150Y-14867353D01*
X3013197Y-14876877D01*
X3022721Y-14895924D01*
X3022721Y-15000686D01*
X3413197Y-14791163D02*
X3241769Y-15048305D01*
X3670340Y-14800686D02*
X3689388Y-14800686D01*
X3708435Y-14810210D01*
X3717959Y-14819734D01*
X3727483Y-14838782D01*
X3737007Y-14876877D01*
X3737007Y-14924496D01*
X3727483Y-14962591D01*
X3717959Y-14981639D01*
X3708435Y-14991163D01*
X3689388Y-15000686D01*
X3670340Y-15000686D01*
X3651293Y-14991163D01*
X3641769Y-14981639D01*
X3632245Y-14962591D01*
X3622721Y-14924496D01*
X3622721Y-14876877D01*
X3632245Y-14838782D01*
X3641769Y-14819734D01*
X3651293Y-14810210D01*
X3670340Y-14800686D01*
X3822721Y-14981639D02*
X3832245Y-14991163D01*
X3822721Y-15000686D01*
X3813197Y-14991163D01*
X3822721Y-14981639D01*
X3822721Y-15000686D01*
X3956054Y-14800686D02*
X3975102Y-14800686D01*
X3994150Y-14810210D01*
X4003674Y-14819734D01*
X4013197Y-14838782D01*
X4022721Y-14876877D01*
X4022721Y-14924496D01*
X4013197Y-14962591D01*
X4003674Y-14981639D01*
X3994150Y-14991163D01*
X3975102Y-15000686D01*
X3956054Y-15000686D01*
X3937007Y-14991163D01*
X3927483Y-14981639D01*
X3917959Y-14962591D01*
X3908435Y-14924496D01*
X3908435Y-14876877D01*
X3917959Y-14838782D01*
X3927483Y-14819734D01*
X3937007Y-14810210D01*
X3956054Y-14800686D01*
X4213197Y-15000686D02*
X4098912Y-15000686D01*
X4156054Y-15000686D02*
X4156054Y-14800686D01*
X4137007Y-14829258D01*
X4117959Y-14848305D01*
X4098912Y-14857829D01*
X4394150Y-14800686D02*
X4298912Y-14800686D01*
X4289388Y-14895924D01*
X4298912Y-14886401D01*
X4317959Y-14876877D01*
X4365578Y-14876877D01*
X4384626Y-14886401D01*
X4394150Y-14895924D01*
X4403674Y-14914972D01*
X4403674Y-14962591D01*
X4394150Y-14981639D01*
X4384626Y-14991163D01*
X4365578Y-15000686D01*
X4317959Y-15000686D01*
X4298912Y-14991163D01*
X4289388Y-14981639D01*
X4470340Y-14800686D02*
X4603674Y-14800686D01*
X4517959Y-15000686D01*
X4670340Y-14800686D02*
X4670340Y-14838782D01*
X4746531Y-14800686D02*
X4746531Y-14838782D01*
X5041769Y-15076877D02*
X5032245Y-15067353D01*
X5013197Y-15038782D01*
X5003674Y-15019734D01*
X4994150Y-14991163D01*
X4984626Y-14943544D01*
X4984626Y-14905448D01*
X4994150Y-14857829D01*
X5003674Y-14829258D01*
X5013197Y-14810210D01*
X5032245Y-14781639D01*
X5041769Y-14772115D01*
X5213197Y-14800686D02*
X5117959Y-14800686D01*
X5108436Y-14895924D01*
X5117959Y-14886401D01*
X5137007Y-14876877D01*
X5184626Y-14876877D01*
X5203674Y-14886401D01*
X5213197Y-14895924D01*
X5222721Y-14914972D01*
X5222721Y-14962591D01*
X5213197Y-14981639D01*
X5203674Y-14991163D01*
X5184626Y-15000686D01*
X5137007Y-15000686D01*
X5117959Y-14991163D01*
X5108436Y-14981639D01*
X5460816Y-15000686D02*
X5460816Y-14800686D01*
X5546531Y-15000686D02*
X5546531Y-14895924D01*
X5537007Y-14876877D01*
X5517959Y-14867353D01*
X5489388Y-14867353D01*
X5470340Y-14876877D01*
X5460816Y-14886401D01*
X5670340Y-15000686D02*
X5651293Y-14991163D01*
X5641769Y-14981639D01*
X5632245Y-14962591D01*
X5632245Y-14905448D01*
X5641769Y-14886401D01*
X5651293Y-14876877D01*
X5670340Y-14867353D01*
X5698912Y-14867353D01*
X5717959Y-14876877D01*
X5727483Y-14886401D01*
X5737007Y-14905448D01*
X5737007Y-14962591D01*
X5727483Y-14981639D01*
X5717959Y-14991163D01*
X5698912Y-15000686D01*
X5670340Y-15000686D01*
X5851293Y-15000686D02*
X5832245Y-14991163D01*
X5822721Y-14972115D01*
X5822721Y-14800686D01*
X6003674Y-14991163D02*
X5984626Y-15000686D01*
X5946531Y-15000686D01*
X5927483Y-14991163D01*
X5917959Y-14972115D01*
X5917959Y-14895924D01*
X5927483Y-14876877D01*
X5946531Y-14867353D01*
X5984626Y-14867353D01*
X6003674Y-14876877D01*
X6013197Y-14895924D01*
X6013197Y-14914972D01*
X5917959Y-14934020D01*
X6089388Y-14991163D02*
X6108435Y-15000686D01*
X6146531Y-15000686D01*
X6165578Y-14991163D01*
X6175102Y-14972115D01*
X6175102Y-14962591D01*
X6165578Y-14943544D01*
X6146531Y-14934020D01*
X6117959Y-14934020D01*
X6098912Y-14924496D01*
X6089388Y-14905448D01*
X6089388Y-14895924D01*
X6098912Y-14876877D01*
X6117959Y-14867353D01*
X6146531Y-14867353D01*
X6165578Y-14876877D01*
X6241769Y-15076877D02*
X6251293Y-15067353D01*
X6270340Y-15038782D01*
X6279864Y-15019734D01*
X6289388Y-14991163D01*
X6298912Y-14943544D01*
X6298912Y-14905448D01*
X6289388Y-14857829D01*
X6279864Y-14829258D01*
X6270340Y-14810210D01*
X6251293Y-14781639D01*
X6241769Y-14772115D01*
D13*
X1469864Y-15174210D02*
G75*
G03*
X1469864Y-15174210I-37500J0D01*
G01*
D11*
X1765578Y-15064686D02*
X1784626Y-15064686D01*
X1803674Y-15074210D01*
X1813197Y-15083734D01*
X1822721Y-15102782D01*
X1832245Y-15140877D01*
X1832245Y-15188496D01*
X1822721Y-15226591D01*
X1813197Y-15245639D01*
X1803674Y-15255163D01*
X1784626Y-15264686D01*
X1765578Y-15264686D01*
X1746531Y-15255163D01*
X1737007Y-15245639D01*
X1727483Y-15226591D01*
X1717959Y-15188496D01*
X1717959Y-15140877D01*
X1727483Y-15102782D01*
X1737007Y-15083734D01*
X1746531Y-15074210D01*
X1765578Y-15064686D01*
X1917959Y-15245639D02*
X1927483Y-15255163D01*
X1917959Y-15264686D01*
X1908435Y-15255163D01*
X1917959Y-15245639D01*
X1917959Y-15264686D01*
X1994150Y-15064686D02*
X2127483Y-15064686D01*
X2041769Y-15264686D01*
X2298912Y-15064686D02*
X2203674Y-15064686D01*
X2194150Y-15159924D01*
X2203674Y-15150401D01*
X2222721Y-15140877D01*
X2270340Y-15140877D01*
X2289388Y-15150401D01*
X2298912Y-15159924D01*
X2308436Y-15178972D01*
X2308436Y-15226591D01*
X2298912Y-15245639D01*
X2289388Y-15255163D01*
X2270340Y-15264686D01*
X2222721Y-15264686D01*
X2203674Y-15255163D01*
X2194150Y-15245639D01*
X2432245Y-15064686D02*
X2451293Y-15064686D01*
X2470340Y-15074210D01*
X2479864Y-15083734D01*
X2489388Y-15102782D01*
X2498912Y-15140877D01*
X2498912Y-15188496D01*
X2489388Y-15226591D01*
X2479864Y-15245639D01*
X2470340Y-15255163D01*
X2451293Y-15264686D01*
X2432245Y-15264686D01*
X2413197Y-15255163D01*
X2403674Y-15245639D01*
X2394150Y-15226591D01*
X2384626Y-15188496D01*
X2384626Y-15140877D01*
X2394150Y-15102782D01*
X2403674Y-15083734D01*
X2413197Y-15074210D01*
X2432245Y-15064686D01*
X2584626Y-15264686D02*
X2584626Y-15131353D01*
X2584626Y-15150401D02*
X2594150Y-15140877D01*
X2613197Y-15131353D01*
X2641769Y-15131353D01*
X2660816Y-15140877D01*
X2670340Y-15159924D01*
X2670340Y-15264686D01*
X2670340Y-15159924D02*
X2679864Y-15140877D01*
X2698912Y-15131353D01*
X2727483Y-15131353D01*
X2746531Y-15140877D01*
X2756055Y-15159924D01*
X2756055Y-15264686D01*
X2851293Y-15264686D02*
X2851293Y-15131353D01*
X2851293Y-15150401D02*
X2860816Y-15140877D01*
X2879864Y-15131353D01*
X2908435Y-15131353D01*
X2927483Y-15140877D01*
X2937007Y-15159924D01*
X2937007Y-15264686D01*
X2937007Y-15159924D02*
X2946531Y-15140877D01*
X2965578Y-15131353D01*
X2994150Y-15131353D01*
X3013197Y-15140877D01*
X3022721Y-15159924D01*
X3022721Y-15264686D01*
X3413197Y-15055163D02*
X3241769Y-15312305D01*
X3670340Y-15064686D02*
X3689388Y-15064686D01*
X3708435Y-15074210D01*
X3717959Y-15083734D01*
X3727483Y-15102782D01*
X3737007Y-15140877D01*
X3737007Y-15188496D01*
X3727483Y-15226591D01*
X3717959Y-15245639D01*
X3708435Y-15255163D01*
X3689388Y-15264686D01*
X3670340Y-15264686D01*
X3651293Y-15255163D01*
X3641769Y-15245639D01*
X3632245Y-15226591D01*
X3622721Y-15188496D01*
X3622721Y-15140877D01*
X3632245Y-15102782D01*
X3641769Y-15083734D01*
X3651293Y-15074210D01*
X3670340Y-15064686D01*
X3822721Y-15245639D02*
X3832245Y-15255163D01*
X3822721Y-15264686D01*
X3813197Y-15255163D01*
X3822721Y-15245639D01*
X3822721Y-15264686D01*
X3956054Y-15064686D02*
X3975102Y-15064686D01*
X3994150Y-15074210D01*
X4003674Y-15083734D01*
X4013197Y-15102782D01*
X4022721Y-15140877D01*
X4022721Y-15188496D01*
X4013197Y-15226591D01*
X4003674Y-15245639D01*
X3994150Y-15255163D01*
X3975102Y-15264686D01*
X3956054Y-15264686D01*
X3937007Y-15255163D01*
X3927483Y-15245639D01*
X3917959Y-15226591D01*
X3908435Y-15188496D01*
X3908435Y-15140877D01*
X3917959Y-15102782D01*
X3927483Y-15083734D01*
X3937007Y-15074210D01*
X3956054Y-15064686D01*
X4098912Y-15083734D02*
X4108435Y-15074210D01*
X4127483Y-15064686D01*
X4175102Y-15064686D01*
X4194150Y-15074210D01*
X4203674Y-15083734D01*
X4213197Y-15102782D01*
X4213197Y-15121829D01*
X4203674Y-15150401D01*
X4089388Y-15264686D01*
X4213197Y-15264686D01*
X4308436Y-15264686D02*
X4346531Y-15264686D01*
X4365578Y-15255163D01*
X4375102Y-15245639D01*
X4394150Y-15217067D01*
X4403674Y-15178972D01*
X4403674Y-15102782D01*
X4394150Y-15083734D01*
X4384626Y-15074210D01*
X4365578Y-15064686D01*
X4327483Y-15064686D01*
X4308436Y-15074210D01*
X4298912Y-15083734D01*
X4289388Y-15102782D01*
X4289388Y-15150401D01*
X4298912Y-15169448D01*
X4308436Y-15178972D01*
X4327483Y-15188496D01*
X4365578Y-15188496D01*
X4384626Y-15178972D01*
X4394150Y-15169448D01*
X4403674Y-15150401D01*
X4584626Y-15064686D02*
X4489388Y-15064686D01*
X4479864Y-15159924D01*
X4489388Y-15150401D01*
X4508436Y-15140877D01*
X4556055Y-15140877D01*
X4575102Y-15150401D01*
X4584626Y-15159924D01*
X4594150Y-15178972D01*
X4594150Y-15226591D01*
X4584626Y-15245639D01*
X4575102Y-15255163D01*
X4556055Y-15264686D01*
X4508436Y-15264686D01*
X4489388Y-15255163D01*
X4479864Y-15245639D01*
X4670340Y-15064686D02*
X4670340Y-15102782D01*
X4746531Y-15064686D02*
X4746531Y-15102782D01*
X5041769Y-15340877D02*
X5032245Y-15331353D01*
X5013197Y-15302782D01*
X5003674Y-15283734D01*
X4994150Y-15255163D01*
X4984626Y-15207544D01*
X4984626Y-15169448D01*
X4994150Y-15121829D01*
X5003674Y-15093258D01*
X5013197Y-15074210D01*
X5032245Y-15045639D01*
X5041769Y-15036115D01*
X5146531Y-15150401D02*
X5127483Y-15140877D01*
X5117959Y-15131353D01*
X5108436Y-15112305D01*
X5108436Y-15102782D01*
X5117959Y-15083734D01*
X5127483Y-15074210D01*
X5146531Y-15064686D01*
X5184626Y-15064686D01*
X5203674Y-15074210D01*
X5213197Y-15083734D01*
X5222721Y-15102782D01*
X5222721Y-15112305D01*
X5213197Y-15131353D01*
X5203674Y-15140877D01*
X5184626Y-15150401D01*
X5146531Y-15150401D01*
X5127483Y-15159924D01*
X5117959Y-15169448D01*
X5108436Y-15188496D01*
X5108436Y-15226591D01*
X5117959Y-15245639D01*
X5127483Y-15255163D01*
X5146531Y-15264686D01*
X5184626Y-15264686D01*
X5203674Y-15255163D01*
X5213197Y-15245639D01*
X5222721Y-15226591D01*
X5222721Y-15188496D01*
X5213197Y-15169448D01*
X5203674Y-15159924D01*
X5184626Y-15150401D01*
X5460816Y-15264686D02*
X5460816Y-15064686D01*
X5546531Y-15264686D02*
X5546531Y-15159924D01*
X5537007Y-15140877D01*
X5517959Y-15131353D01*
X5489388Y-15131353D01*
X5470340Y-15140877D01*
X5460816Y-15150401D01*
X5670340Y-15264686D02*
X5651293Y-15255163D01*
X5641769Y-15245639D01*
X5632245Y-15226591D01*
X5632245Y-15169448D01*
X5641769Y-15150401D01*
X5651293Y-15140877D01*
X5670340Y-15131353D01*
X5698912Y-15131353D01*
X5717959Y-15140877D01*
X5727483Y-15150401D01*
X5737007Y-15169448D01*
X5737007Y-15226591D01*
X5727483Y-15245639D01*
X5717959Y-15255163D01*
X5698912Y-15264686D01*
X5670340Y-15264686D01*
X5851293Y-15264686D02*
X5832245Y-15255163D01*
X5822721Y-15236115D01*
X5822721Y-15064686D01*
X6003674Y-15255163D02*
X5984626Y-15264686D01*
X5946531Y-15264686D01*
X5927483Y-15255163D01*
X5917959Y-15236115D01*
X5917959Y-15159924D01*
X5927483Y-15140877D01*
X5946531Y-15131353D01*
X5984626Y-15131353D01*
X6003674Y-15140877D01*
X6013197Y-15159924D01*
X6013197Y-15178972D01*
X5917959Y-15198020D01*
X6089388Y-15255163D02*
X6108435Y-15264686D01*
X6146531Y-15264686D01*
X6165578Y-15255163D01*
X6175102Y-15236115D01*
X6175102Y-15226591D01*
X6165578Y-15207544D01*
X6146531Y-15198020D01*
X6117959Y-15198020D01*
X6098912Y-15188496D01*
X6089388Y-15169448D01*
X6089388Y-15159924D01*
X6098912Y-15140877D01*
X6117959Y-15131353D01*
X6146531Y-15131353D01*
X6165578Y-15140877D01*
X6241769Y-15340877D02*
X6251293Y-15331353D01*
X6270340Y-15302782D01*
X6279864Y-15283734D01*
X6289388Y-15255163D01*
X6298912Y-15207544D01*
X6298912Y-15169448D01*
X6289388Y-15121829D01*
X6279864Y-15093258D01*
X6270340Y-15074210D01*
X6251293Y-15045639D01*
X6241769Y-15036115D01*
D14*
X1419864Y-15388210D02*
X1419864Y-15488210D01*
X1369864Y-15438210D02*
X1469864Y-15438210D01*
D11*
X1832245Y-15528686D02*
X1717959Y-15528686D01*
X1775102Y-15528686D02*
X1775102Y-15328686D01*
X1756054Y-15357258D01*
X1737007Y-15376305D01*
X1717959Y-15385829D01*
X1917959Y-15509639D02*
X1927483Y-15519163D01*
X1917959Y-15528686D01*
X1908435Y-15519163D01*
X1917959Y-15509639D01*
X1917959Y-15528686D01*
X2051293Y-15328686D02*
X2070340Y-15328686D01*
X2089388Y-15338210D01*
X2098912Y-15347734D01*
X2108436Y-15366782D01*
X2117959Y-15404877D01*
X2117959Y-15452496D01*
X2108436Y-15490591D01*
X2098912Y-15509639D01*
X2089388Y-15519163D01*
X2070340Y-15528686D01*
X2051293Y-15528686D01*
X2032245Y-15519163D01*
X2022721Y-15509639D01*
X2013197Y-15490591D01*
X2003674Y-15452496D01*
X2003674Y-15404877D01*
X2013197Y-15366782D01*
X2022721Y-15347734D01*
X2032245Y-15338210D01*
X2051293Y-15328686D01*
X2241769Y-15328686D02*
X2260816Y-15328686D01*
X2279864Y-15338210D01*
X2289388Y-15347734D01*
X2298912Y-15366782D01*
X2308436Y-15404877D01*
X2308436Y-15452496D01*
X2298912Y-15490591D01*
X2289388Y-15509639D01*
X2279864Y-15519163D01*
X2260816Y-15528686D01*
X2241769Y-15528686D01*
X2222721Y-15519163D01*
X2213197Y-15509639D01*
X2203674Y-15490591D01*
X2194150Y-15452496D01*
X2194150Y-15404877D01*
X2203674Y-15366782D01*
X2213197Y-15347734D01*
X2222721Y-15338210D01*
X2241769Y-15328686D01*
X2432245Y-15328686D02*
X2451293Y-15328686D01*
X2470340Y-15338210D01*
X2479864Y-15347734D01*
X2489388Y-15366782D01*
X2498912Y-15404877D01*
X2498912Y-15452496D01*
X2489388Y-15490591D01*
X2479864Y-15509639D01*
X2470340Y-15519163D01*
X2451293Y-15528686D01*
X2432245Y-15528686D01*
X2413197Y-15519163D01*
X2403674Y-15509639D01*
X2394150Y-15490591D01*
X2384626Y-15452496D01*
X2384626Y-15404877D01*
X2394150Y-15366782D01*
X2403674Y-15347734D01*
X2413197Y-15338210D01*
X2432245Y-15328686D01*
X2584626Y-15528686D02*
X2584626Y-15395353D01*
X2584626Y-15414401D02*
X2594150Y-15404877D01*
X2613197Y-15395353D01*
X2641769Y-15395353D01*
X2660816Y-15404877D01*
X2670340Y-15423924D01*
X2670340Y-15528686D01*
X2670340Y-15423924D02*
X2679864Y-15404877D01*
X2698912Y-15395353D01*
X2727483Y-15395353D01*
X2746531Y-15404877D01*
X2756055Y-15423924D01*
X2756055Y-15528686D01*
X2851293Y-15528686D02*
X2851293Y-15395353D01*
X2851293Y-15414401D02*
X2860816Y-15404877D01*
X2879864Y-15395353D01*
X2908435Y-15395353D01*
X2927483Y-15404877D01*
X2937007Y-15423924D01*
X2937007Y-15528686D01*
X2937007Y-15423924D02*
X2946531Y-15404877D01*
X2965578Y-15395353D01*
X2994150Y-15395353D01*
X3013197Y-15404877D01*
X3022721Y-15423924D01*
X3022721Y-15528686D01*
X3413197Y-15319163D02*
X3241769Y-15576305D01*
X3670340Y-15328686D02*
X3689388Y-15328686D01*
X3708435Y-15338210D01*
X3717959Y-15347734D01*
X3727483Y-15366782D01*
X3737007Y-15404877D01*
X3737007Y-15452496D01*
X3727483Y-15490591D01*
X3717959Y-15509639D01*
X3708435Y-15519163D01*
X3689388Y-15528686D01*
X3670340Y-15528686D01*
X3651293Y-15519163D01*
X3641769Y-15509639D01*
X3632245Y-15490591D01*
X3622721Y-15452496D01*
X3622721Y-15404877D01*
X3632245Y-15366782D01*
X3641769Y-15347734D01*
X3651293Y-15338210D01*
X3670340Y-15328686D01*
X3822721Y-15509639D02*
X3832245Y-15519163D01*
X3822721Y-15528686D01*
X3813197Y-15519163D01*
X3822721Y-15509639D01*
X3822721Y-15528686D01*
X3956054Y-15328686D02*
X3975102Y-15328686D01*
X3994150Y-15338210D01*
X4003674Y-15347734D01*
X4013197Y-15366782D01*
X4022721Y-15404877D01*
X4022721Y-15452496D01*
X4013197Y-15490591D01*
X4003674Y-15509639D01*
X3994150Y-15519163D01*
X3975102Y-15528686D01*
X3956054Y-15528686D01*
X3937007Y-15519163D01*
X3927483Y-15509639D01*
X3917959Y-15490591D01*
X3908435Y-15452496D01*
X3908435Y-15404877D01*
X3917959Y-15366782D01*
X3927483Y-15347734D01*
X3937007Y-15338210D01*
X3956054Y-15328686D01*
X4089388Y-15328686D02*
X4213197Y-15328686D01*
X4146531Y-15404877D01*
X4175102Y-15404877D01*
X4194150Y-15414401D01*
X4203674Y-15423924D01*
X4213197Y-15442972D01*
X4213197Y-15490591D01*
X4203674Y-15509639D01*
X4194150Y-15519163D01*
X4175102Y-15528686D01*
X4117959Y-15528686D01*
X4098912Y-15519163D01*
X4089388Y-15509639D01*
X4308436Y-15528686D02*
X4346531Y-15528686D01*
X4365578Y-15519163D01*
X4375102Y-15509639D01*
X4394150Y-15481067D01*
X4403674Y-15442972D01*
X4403674Y-15366782D01*
X4394150Y-15347734D01*
X4384626Y-15338210D01*
X4365578Y-15328686D01*
X4327483Y-15328686D01*
X4308436Y-15338210D01*
X4298912Y-15347734D01*
X4289388Y-15366782D01*
X4289388Y-15414401D01*
X4298912Y-15433448D01*
X4308436Y-15442972D01*
X4327483Y-15452496D01*
X4365578Y-15452496D01*
X4384626Y-15442972D01*
X4394150Y-15433448D01*
X4403674Y-15414401D01*
X4575102Y-15395353D02*
X4575102Y-15528686D01*
X4527483Y-15319163D02*
X4479864Y-15462020D01*
X4603674Y-15462020D01*
X4670340Y-15328686D02*
X4670340Y-15366782D01*
X4746531Y-15328686D02*
X4746531Y-15366782D01*
X5041769Y-15604877D02*
X5032245Y-15595353D01*
X5013197Y-15566782D01*
X5003674Y-15547734D01*
X4994150Y-15519163D01*
X4984626Y-15471544D01*
X4984626Y-15433448D01*
X4994150Y-15385829D01*
X5003674Y-15357258D01*
X5013197Y-15338210D01*
X5032245Y-15309639D01*
X5041769Y-15300115D01*
X5203674Y-15395353D02*
X5203674Y-15528686D01*
X5156055Y-15319163D02*
X5108436Y-15462020D01*
X5232245Y-15462020D01*
X5460816Y-15528686D02*
X5460816Y-15328686D01*
X5546531Y-15528686D02*
X5546531Y-15423924D01*
X5537007Y-15404877D01*
X5517959Y-15395353D01*
X5489388Y-15395353D01*
X5470340Y-15404877D01*
X5460816Y-15414401D01*
X5670340Y-15528686D02*
X5651293Y-15519163D01*
X5641769Y-15509639D01*
X5632245Y-15490591D01*
X5632245Y-15433448D01*
X5641769Y-15414401D01*
X5651293Y-15404877D01*
X5670340Y-15395353D01*
X5698912Y-15395353D01*
X5717959Y-15404877D01*
X5727483Y-15414401D01*
X5737007Y-15433448D01*
X5737007Y-15490591D01*
X5727483Y-15509639D01*
X5717959Y-15519163D01*
X5698912Y-15528686D01*
X5670340Y-15528686D01*
X5851293Y-15528686D02*
X5832245Y-15519163D01*
X5822721Y-15500115D01*
X5822721Y-15328686D01*
X6003674Y-15519163D02*
X5984626Y-15528686D01*
X5946531Y-15528686D01*
X5927483Y-15519163D01*
X5917959Y-15500115D01*
X5917959Y-15423924D01*
X5927483Y-15404877D01*
X5946531Y-15395353D01*
X5984626Y-15395353D01*
X6003674Y-15404877D01*
X6013197Y-15423924D01*
X6013197Y-15442972D01*
X5917959Y-15462020D01*
X6089388Y-15519163D02*
X6108435Y-15528686D01*
X6146531Y-15528686D01*
X6165578Y-15519163D01*
X6175102Y-15500115D01*
X6175102Y-15490591D01*
X6165578Y-15471544D01*
X6146531Y-15462020D01*
X6117959Y-15462020D01*
X6098912Y-15452496D01*
X6089388Y-15433448D01*
X6089388Y-15423924D01*
X6098912Y-15404877D01*
X6117959Y-15395353D01*
X6146531Y-15395353D01*
X6165578Y-15404877D01*
X6241769Y-15604877D02*
X6251293Y-15595353D01*
X6270340Y-15566782D01*
X6279864Y-15547734D01*
X6289388Y-15519163D01*
X6298912Y-15471544D01*
X6298912Y-15433448D01*
X6289388Y-15385829D01*
X6279864Y-15357258D01*
X6270340Y-15338210D01*
X6251293Y-15309639D01*
X6241769Y-15300115D01*
D15*
X1451119Y-15747466D02*
X1451119Y-15656955D01*
X1360609Y-15656955D01*
X1360609Y-15747466D01*
X1451119Y-15747466D01*
D11*
X1832245Y-15792686D02*
X1717959Y-15792686D01*
X1775102Y-15792686D02*
X1775102Y-15592686D01*
X1756054Y-15621258D01*
X1737007Y-15640305D01*
X1717959Y-15649829D01*
X1917959Y-15773639D02*
X1927483Y-15783163D01*
X1917959Y-15792686D01*
X1908435Y-15783163D01*
X1917959Y-15773639D01*
X1917959Y-15792686D01*
X2003674Y-15611734D02*
X2013197Y-15602210D01*
X2032245Y-15592686D01*
X2079864Y-15592686D01*
X2098912Y-15602210D01*
X2108436Y-15611734D01*
X2117959Y-15630782D01*
X2117959Y-15649829D01*
X2108436Y-15678401D01*
X1994150Y-15792686D01*
X2117959Y-15792686D01*
X2232245Y-15678401D02*
X2213197Y-15668877D01*
X2203674Y-15659353D01*
X2194150Y-15640305D01*
X2194150Y-15630782D01*
X2203674Y-15611734D01*
X2213197Y-15602210D01*
X2232245Y-15592686D01*
X2270340Y-15592686D01*
X2289388Y-15602210D01*
X2298912Y-15611734D01*
X2308436Y-15630782D01*
X2308436Y-15640305D01*
X2298912Y-15659353D01*
X2289388Y-15668877D01*
X2270340Y-15678401D01*
X2232245Y-15678401D01*
X2213197Y-15687924D01*
X2203674Y-15697448D01*
X2194150Y-15716496D01*
X2194150Y-15754591D01*
X2203674Y-15773639D01*
X2213197Y-15783163D01*
X2232245Y-15792686D01*
X2270340Y-15792686D01*
X2289388Y-15783163D01*
X2298912Y-15773639D01*
X2308436Y-15754591D01*
X2308436Y-15716496D01*
X2298912Y-15697448D01*
X2289388Y-15687924D01*
X2270340Y-15678401D01*
X2432245Y-15592686D02*
X2451293Y-15592686D01*
X2470340Y-15602210D01*
X2479864Y-15611734D01*
X2489388Y-15630782D01*
X2498912Y-15668877D01*
X2498912Y-15716496D01*
X2489388Y-15754591D01*
X2479864Y-15773639D01*
X2470340Y-15783163D01*
X2451293Y-15792686D01*
X2432245Y-15792686D01*
X2413197Y-15783163D01*
X2403674Y-15773639D01*
X2394150Y-15754591D01*
X2384626Y-15716496D01*
X2384626Y-15668877D01*
X2394150Y-15630782D01*
X2403674Y-15611734D01*
X2413197Y-15602210D01*
X2432245Y-15592686D01*
X2584626Y-15792686D02*
X2584626Y-15659353D01*
X2584626Y-15678401D02*
X2594150Y-15668877D01*
X2613197Y-15659353D01*
X2641769Y-15659353D01*
X2660816Y-15668877D01*
X2670340Y-15687924D01*
X2670340Y-15792686D01*
X2670340Y-15687924D02*
X2679864Y-15668877D01*
X2698912Y-15659353D01*
X2727483Y-15659353D01*
X2746531Y-15668877D01*
X2756055Y-15687924D01*
X2756055Y-15792686D01*
X2851293Y-15792686D02*
X2851293Y-15659353D01*
X2851293Y-15678401D02*
X2860816Y-15668877D01*
X2879864Y-15659353D01*
X2908435Y-15659353D01*
X2927483Y-15668877D01*
X2937007Y-15687924D01*
X2937007Y-15792686D01*
X2937007Y-15687924D02*
X2946531Y-15668877D01*
X2965578Y-15659353D01*
X2994150Y-15659353D01*
X3013197Y-15668877D01*
X3022721Y-15687924D01*
X3022721Y-15792686D01*
X3413197Y-15583163D02*
X3241769Y-15840305D01*
X3670340Y-15592686D02*
X3689388Y-15592686D01*
X3708435Y-15602210D01*
X3717959Y-15611734D01*
X3727483Y-15630782D01*
X3737007Y-15668877D01*
X3737007Y-15716496D01*
X3727483Y-15754591D01*
X3717959Y-15773639D01*
X3708435Y-15783163D01*
X3689388Y-15792686D01*
X3670340Y-15792686D01*
X3651293Y-15783163D01*
X3641769Y-15773639D01*
X3632245Y-15754591D01*
X3622721Y-15716496D01*
X3622721Y-15668877D01*
X3632245Y-15630782D01*
X3641769Y-15611734D01*
X3651293Y-15602210D01*
X3670340Y-15592686D01*
X3822721Y-15773639D02*
X3832245Y-15783163D01*
X3822721Y-15792686D01*
X3813197Y-15783163D01*
X3822721Y-15773639D01*
X3822721Y-15792686D01*
X3956054Y-15592686D02*
X3975102Y-15592686D01*
X3994150Y-15602210D01*
X4003674Y-15611734D01*
X4013197Y-15630782D01*
X4022721Y-15668877D01*
X4022721Y-15716496D01*
X4013197Y-15754591D01*
X4003674Y-15773639D01*
X3994150Y-15783163D01*
X3975102Y-15792686D01*
X3956054Y-15792686D01*
X3937007Y-15783163D01*
X3927483Y-15773639D01*
X3917959Y-15754591D01*
X3908435Y-15716496D01*
X3908435Y-15668877D01*
X3917959Y-15630782D01*
X3927483Y-15611734D01*
X3937007Y-15602210D01*
X3956054Y-15592686D01*
X4203674Y-15592686D02*
X4108435Y-15592686D01*
X4098912Y-15687924D01*
X4108435Y-15678401D01*
X4127483Y-15668877D01*
X4175102Y-15668877D01*
X4194150Y-15678401D01*
X4203674Y-15687924D01*
X4213197Y-15706972D01*
X4213197Y-15754591D01*
X4203674Y-15773639D01*
X4194150Y-15783163D01*
X4175102Y-15792686D01*
X4127483Y-15792686D01*
X4108435Y-15783163D01*
X4098912Y-15773639D01*
X4337007Y-15592686D02*
X4356055Y-15592686D01*
X4375102Y-15602210D01*
X4384626Y-15611734D01*
X4394150Y-15630782D01*
X4403674Y-15668877D01*
X4403674Y-15716496D01*
X4394150Y-15754591D01*
X4384626Y-15773639D01*
X4375102Y-15783163D01*
X4356055Y-15792686D01*
X4337007Y-15792686D01*
X4317959Y-15783163D01*
X4308436Y-15773639D01*
X4298912Y-15754591D01*
X4289388Y-15716496D01*
X4289388Y-15668877D01*
X4298912Y-15630782D01*
X4308436Y-15611734D01*
X4317959Y-15602210D01*
X4337007Y-15592686D01*
X4575102Y-15659353D02*
X4575102Y-15792686D01*
X4527483Y-15583163D02*
X4479864Y-15726020D01*
X4603674Y-15726020D01*
X4670340Y-15592686D02*
X4670340Y-15630782D01*
X4746531Y-15592686D02*
X4746531Y-15630782D01*
X5041769Y-15868877D02*
X5032245Y-15859353D01*
X5013197Y-15830782D01*
X5003674Y-15811734D01*
X4994150Y-15783163D01*
X4984626Y-15735544D01*
X4984626Y-15697448D01*
X4994150Y-15649829D01*
X5003674Y-15621258D01*
X5013197Y-15602210D01*
X5032245Y-15573639D01*
X5041769Y-15564115D01*
X5098912Y-15592686D02*
X5222721Y-15592686D01*
X5156055Y-15668877D01*
X5184626Y-15668877D01*
X5203674Y-15678401D01*
X5213197Y-15687924D01*
X5222721Y-15706972D01*
X5222721Y-15754591D01*
X5213197Y-15773639D01*
X5203674Y-15783163D01*
X5184626Y-15792686D01*
X5127483Y-15792686D01*
X5108436Y-15783163D01*
X5098912Y-15773639D01*
X5460816Y-15792686D02*
X5460816Y-15592686D01*
X5546531Y-15792686D02*
X5546531Y-15687924D01*
X5537007Y-15668877D01*
X5517959Y-15659353D01*
X5489388Y-15659353D01*
X5470340Y-15668877D01*
X5460816Y-15678401D01*
X5670340Y-15792686D02*
X5651293Y-15783163D01*
X5641769Y-15773639D01*
X5632245Y-15754591D01*
X5632245Y-15697448D01*
X5641769Y-15678401D01*
X5651293Y-15668877D01*
X5670340Y-15659353D01*
X5698912Y-15659353D01*
X5717959Y-15668877D01*
X5727483Y-15678401D01*
X5737007Y-15697448D01*
X5737007Y-15754591D01*
X5727483Y-15773639D01*
X5717959Y-15783163D01*
X5698912Y-15792686D01*
X5670340Y-15792686D01*
X5851293Y-15792686D02*
X5832245Y-15783163D01*
X5822721Y-15764115D01*
X5822721Y-15592686D01*
X6003674Y-15783163D02*
X5984626Y-15792686D01*
X5946531Y-15792686D01*
X5927483Y-15783163D01*
X5917959Y-15764115D01*
X5917959Y-15687924D01*
X5927483Y-15668877D01*
X5946531Y-15659353D01*
X5984626Y-15659353D01*
X6003674Y-15668877D01*
X6013197Y-15687924D01*
X6013197Y-15706972D01*
X5917959Y-15726020D01*
X6089388Y-15783163D02*
X6108435Y-15792686D01*
X6146531Y-15792686D01*
X6165578Y-15783163D01*
X6175102Y-15764115D01*
X6175102Y-15754591D01*
X6165578Y-15735544D01*
X6146531Y-15726020D01*
X6117959Y-15726020D01*
X6098912Y-15716496D01*
X6089388Y-15697448D01*
X6089388Y-15687924D01*
X6098912Y-15668877D01*
X6117959Y-15659353D01*
X6146531Y-15659353D01*
X6165578Y-15668877D01*
X6241769Y-15868877D02*
X6251293Y-15859353D01*
X6270340Y-15830782D01*
X6279864Y-15811734D01*
X6289388Y-15783163D01*
X6298912Y-15735544D01*
X6298912Y-15697448D01*
X6289388Y-15649829D01*
X6279864Y-15621258D01*
X6270340Y-15602210D01*
X6251293Y-15573639D01*
X6241769Y-15564115D01*
X1369864Y-16066210D02*
X1469864Y-15966210D01*
X1369864Y-15866210D01*
X1269864Y-15966210D01*
X1369864Y-16066210D01*
X1708435Y-15856686D02*
X1832245Y-15856686D01*
X1765578Y-15932877D01*
X1794150Y-15932877D01*
X1813197Y-15942401D01*
X1822721Y-15951924D01*
X1832245Y-15970972D01*
X1832245Y-16018591D01*
X1822721Y-16037639D01*
X1813197Y-16047163D01*
X1794150Y-16056686D01*
X1737007Y-16056686D01*
X1717959Y-16047163D01*
X1708435Y-16037639D01*
X1917959Y-16037639D02*
X1927483Y-16047163D01*
X1917959Y-16056686D01*
X1908435Y-16047163D01*
X1917959Y-16037639D01*
X1917959Y-16056686D01*
X2051293Y-15856686D02*
X2070340Y-15856686D01*
X2089388Y-15866210D01*
X2098912Y-15875734D01*
X2108436Y-15894782D01*
X2117959Y-15932877D01*
X2117959Y-15980496D01*
X2108436Y-16018591D01*
X2098912Y-16037639D01*
X2089388Y-16047163D01*
X2070340Y-16056686D01*
X2051293Y-16056686D01*
X2032245Y-16047163D01*
X2022721Y-16037639D01*
X2013197Y-16018591D01*
X2003674Y-15980496D01*
X2003674Y-15932877D01*
X2013197Y-15894782D01*
X2022721Y-15875734D01*
X2032245Y-15866210D01*
X2051293Y-15856686D01*
X2241769Y-15856686D02*
X2260816Y-15856686D01*
X2279864Y-15866210D01*
X2289388Y-15875734D01*
X2298912Y-15894782D01*
X2308436Y-15932877D01*
X2308436Y-15980496D01*
X2298912Y-16018591D01*
X2289388Y-16037639D01*
X2279864Y-16047163D01*
X2260816Y-16056686D01*
X2241769Y-16056686D01*
X2222721Y-16047163D01*
X2213197Y-16037639D01*
X2203674Y-16018591D01*
X2194150Y-15980496D01*
X2194150Y-15932877D01*
X2203674Y-15894782D01*
X2213197Y-15875734D01*
X2222721Y-15866210D01*
X2241769Y-15856686D01*
X2432245Y-15856686D02*
X2451293Y-15856686D01*
X2470340Y-15866210D01*
X2479864Y-15875734D01*
X2489388Y-15894782D01*
X2498912Y-15932877D01*
X2498912Y-15980496D01*
X2489388Y-16018591D01*
X2479864Y-16037639D01*
X2470340Y-16047163D01*
X2451293Y-16056686D01*
X2432245Y-16056686D01*
X2413197Y-16047163D01*
X2403674Y-16037639D01*
X2394150Y-16018591D01*
X2384626Y-15980496D01*
X2384626Y-15932877D01*
X2394150Y-15894782D01*
X2403674Y-15875734D01*
X2413197Y-15866210D01*
X2432245Y-15856686D01*
X2584626Y-16056686D02*
X2584626Y-15923353D01*
X2584626Y-15942401D02*
X2594150Y-15932877D01*
X2613197Y-15923353D01*
X2641769Y-15923353D01*
X2660816Y-15932877D01*
X2670340Y-15951924D01*
X2670340Y-16056686D01*
X2670340Y-15951924D02*
X2679864Y-15932877D01*
X2698912Y-15923353D01*
X2727483Y-15923353D01*
X2746531Y-15932877D01*
X2756055Y-15951924D01*
X2756055Y-16056686D01*
X2851293Y-16056686D02*
X2851293Y-15923353D01*
X2851293Y-15942401D02*
X2860816Y-15932877D01*
X2879864Y-15923353D01*
X2908435Y-15923353D01*
X2927483Y-15932877D01*
X2937007Y-15951924D01*
X2937007Y-16056686D01*
X2937007Y-15951924D02*
X2946531Y-15932877D01*
X2965578Y-15923353D01*
X2994150Y-15923353D01*
X3013197Y-15932877D01*
X3022721Y-15951924D01*
X3022721Y-16056686D01*
X3413197Y-15847163D02*
X3241769Y-16104305D01*
X3670340Y-15856686D02*
X3689388Y-15856686D01*
X3708435Y-15866210D01*
X3717959Y-15875734D01*
X3727483Y-15894782D01*
X3737007Y-15932877D01*
X3737007Y-15980496D01*
X3727483Y-16018591D01*
X3717959Y-16037639D01*
X3708435Y-16047163D01*
X3689388Y-16056686D01*
X3670340Y-16056686D01*
X3651293Y-16047163D01*
X3641769Y-16037639D01*
X3632245Y-16018591D01*
X3622721Y-15980496D01*
X3622721Y-15932877D01*
X3632245Y-15894782D01*
X3641769Y-15875734D01*
X3651293Y-15866210D01*
X3670340Y-15856686D01*
X3822721Y-16037639D02*
X3832245Y-16047163D01*
X3822721Y-16056686D01*
X3813197Y-16047163D01*
X3822721Y-16037639D01*
X3822721Y-16056686D01*
X4022721Y-16056686D02*
X3908435Y-16056686D01*
X3965578Y-16056686D02*
X3965578Y-15856686D01*
X3946531Y-15885258D01*
X3927483Y-15904305D01*
X3908435Y-15913829D01*
X4213197Y-16056686D02*
X4098912Y-16056686D01*
X4156054Y-16056686D02*
X4156054Y-15856686D01*
X4137007Y-15885258D01*
X4117959Y-15904305D01*
X4098912Y-15913829D01*
X4327483Y-15942401D02*
X4308436Y-15932877D01*
X4298912Y-15923353D01*
X4289388Y-15904305D01*
X4289388Y-15894782D01*
X4298912Y-15875734D01*
X4308436Y-15866210D01*
X4327483Y-15856686D01*
X4365578Y-15856686D01*
X4384626Y-15866210D01*
X4394150Y-15875734D01*
X4403674Y-15894782D01*
X4403674Y-15904305D01*
X4394150Y-15923353D01*
X4384626Y-15932877D01*
X4365578Y-15942401D01*
X4327483Y-15942401D01*
X4308436Y-15951924D01*
X4298912Y-15961448D01*
X4289388Y-15980496D01*
X4289388Y-16018591D01*
X4298912Y-16037639D01*
X4308436Y-16047163D01*
X4327483Y-16056686D01*
X4365578Y-16056686D01*
X4384626Y-16047163D01*
X4394150Y-16037639D01*
X4403674Y-16018591D01*
X4403674Y-15980496D01*
X4394150Y-15961448D01*
X4384626Y-15951924D01*
X4365578Y-15942401D01*
X4594150Y-16056686D02*
X4479864Y-16056686D01*
X4537007Y-16056686D02*
X4537007Y-15856686D01*
X4517959Y-15885258D01*
X4498912Y-15904305D01*
X4479864Y-15913829D01*
X4670340Y-15856686D02*
X4670340Y-15894782D01*
X4746531Y-15856686D02*
X4746531Y-15894782D01*
X5041769Y-16132877D02*
X5032245Y-16123353D01*
X5013197Y-16094782D01*
X5003674Y-16075734D01*
X4994150Y-16047163D01*
X4984626Y-15999544D01*
X4984626Y-15961448D01*
X4994150Y-15913829D01*
X5003674Y-15885258D01*
X5013197Y-15866210D01*
X5032245Y-15837639D01*
X5041769Y-15828115D01*
X5222721Y-16056686D02*
X5108436Y-16056686D01*
X5165578Y-16056686D02*
X5165578Y-15856686D01*
X5146531Y-15885258D01*
X5127483Y-15904305D01*
X5108436Y-15913829D01*
X5394150Y-15856686D02*
X5356055Y-15856686D01*
X5337007Y-15866210D01*
X5327483Y-15875734D01*
X5308436Y-15904305D01*
X5298912Y-15942401D01*
X5298912Y-16018591D01*
X5308436Y-16037639D01*
X5317959Y-16047163D01*
X5337007Y-16056686D01*
X5375102Y-16056686D01*
X5394150Y-16047163D01*
X5403674Y-16037639D01*
X5413197Y-16018591D01*
X5413197Y-15970972D01*
X5403674Y-15951924D01*
X5394150Y-15942401D01*
X5375102Y-15932877D01*
X5337007Y-15932877D01*
X5317959Y-15942401D01*
X5308436Y-15951924D01*
X5298912Y-15970972D01*
X5651293Y-16056686D02*
X5651293Y-15856686D01*
X5737007Y-16056686D02*
X5737007Y-15951924D01*
X5727483Y-15932877D01*
X5708435Y-15923353D01*
X5679864Y-15923353D01*
X5660816Y-15932877D01*
X5651293Y-15942401D01*
X5860816Y-16056686D02*
X5841769Y-16047163D01*
X5832245Y-16037639D01*
X5822721Y-16018591D01*
X5822721Y-15961448D01*
X5832245Y-15942401D01*
X5841769Y-15932877D01*
X5860816Y-15923353D01*
X5889388Y-15923353D01*
X5908435Y-15932877D01*
X5917959Y-15942401D01*
X5927483Y-15961448D01*
X5927483Y-16018591D01*
X5917959Y-16037639D01*
X5908435Y-16047163D01*
X5889388Y-16056686D01*
X5860816Y-16056686D01*
X6041769Y-16056686D02*
X6022721Y-16047163D01*
X6013197Y-16028115D01*
X6013197Y-15856686D01*
X6194150Y-16047163D02*
X6175102Y-16056686D01*
X6137007Y-16056686D01*
X6117959Y-16047163D01*
X6108435Y-16028115D01*
X6108435Y-15951924D01*
X6117959Y-15932877D01*
X6137007Y-15923353D01*
X6175102Y-15923353D01*
X6194150Y-15932877D01*
X6203674Y-15951924D01*
X6203674Y-15970972D01*
X6108435Y-15990020D01*
X6279864Y-16047163D02*
X6298912Y-16056686D01*
X6337007Y-16056686D01*
X6356054Y-16047163D01*
X6365578Y-16028115D01*
X6365578Y-16018591D01*
X6356054Y-15999544D01*
X6337007Y-15990020D01*
X6308435Y-15990020D01*
X6289388Y-15980496D01*
X6279864Y-15961448D01*
X6279864Y-15951924D01*
X6289388Y-15932877D01*
X6308435Y-15923353D01*
X6337007Y-15923353D01*
X6356054Y-15932877D01*
X6432245Y-16132877D02*
X6441769Y-16123353D01*
X6460816Y-16094782D01*
X6470340Y-16075734D01*
X6479864Y-16047163D01*
X6489388Y-15999544D01*
X6489388Y-15961448D01*
X6479864Y-15913829D01*
X6470340Y-15885258D01*
X6460816Y-15866210D01*
X6441769Y-15837639D01*
X6432245Y-15828115D01*
M02*
