M48
; DRILL file {KiCad (6.0.11-0)} date Sunday, 05 February 2023 at 15:27:35
; FORMAT={-:-/ absolute / inch / decimal}
; #@! TF.CreationDate,2023-02-05T15:27:35+09:00
; #@! TF.GenerationSoftware,Kicad,Pcbnew,(6.0.11-0)
; #@! TF.FileFunction,NonPlated,1,2,NPTH
FMAT,2
INCH
; #@! TA.AperFunction,NonPlated,NPTH,ComponentDrill
T1C0.0197
; #@! TA.AperFunction,NonPlated,NPTH,ComponentDrill
T2C0.0661
; #@! TA.AperFunction,NonPlated,NPTH,ComponentDrill
T3C0.0669
; #@! TA.AperFunction,NonPlated,NPTH,ComponentDrill
T4C0.1654
; #@! TA.AperFunction,NonPlated,NPTH,ComponentDrill
T5C0.1929
%
G90
G05
T2
X0.8507Y-5.2194
X1.2577Y-5.0713
X1.6254Y-4.9727
X2.0519Y-4.8974
X2.4316Y-4.8643
X2.8647Y-4.8643
X3.2443Y-4.8975
X3.6708Y-4.9728
T3
X0.8663Y-5.2138
X1.2421Y-5.077
X1.6417Y-4.9698
X2.0356Y-4.9003
X2.4482Y-4.8643
X2.8482Y-4.8643
X3.2606Y-4.9004
X3.6545Y-4.9699
T5
X1.0542Y-5.1454
X1.8387Y-4.935
X2.6482Y-4.8643
X3.4575Y-4.9351
T1
G00X1.1787Y-4.8717
M15
G01X1.1528Y-4.8811
M16
G05
G00X2.0088Y-4.6872
M15
G01X1.9817Y-4.692
M16
G05
G00X2.8588Y-4.6497
M15
G01X2.8312Y-4.6497
M16
G05
G00X3.7022Y-4.7604
M15
G01X3.6751Y-4.7556
M16
G05
T4
G00X1.5232Y-5.3685
M15
G01X1.5232Y-5.2976
M16
G05
G00X1.5232Y-4.6185
M15
G01X1.5232Y-4.5476
M16
G05
G00X2.2732Y-5.1966
M15
G01X2.2732Y-5.1258
M16
G05
G00X3.0232Y-5.1966
M15
G01X3.0232Y-5.1258
M16
G05
G00X3.7732Y-4.6185
M15
G01X3.7732Y-4.5476
M16
G05
G00X3.7732Y-5.3685
M15
G01X3.7732Y-5.2976
M16
G05
T0
M30
