%TF.GenerationSoftware,KiCad,Pcbnew,(6.0.11-0)*%
%TF.CreationDate,2023-02-05T15:27:35+09:00*%
%TF.ProjectId,pangaea-pcb-thumb-k2-4keys,70616e67-6165-4612-9d70-63622d746875,1*%
%TF.SameCoordinates,Original*%
%TF.FileFunction,Drillmap*%
%TF.FilePolarity,Positive*%
%FSLAX45Y45*%
G04 Gerber Fmt 4.5, Leading zero omitted, Abs format (unit mm)*
G04 Created by KiCad (PCBNEW (6.0.11-0)) date 2023-02-05 15:27:35*
%MOMM*%
%LPD*%
G01*
G04 APERTURE LIST*
%ADD10C,0.150000*%
%ADD11C,0.200000*%
%ADD12C,0.050000*%
%ADD13C,0.168000*%
%ADD14C,0.170000*%
%ADD15C,0.420000*%
%ADD16C,0.490000*%
G04 APERTURE END LIST*
D10*
X3723527Y-12662262D02*
G75*
G03*
X3626319Y-12606134I-76667J-20538D01*
G01*
X3619497Y-12073112D02*
G75*
G03*
X3522291Y-12016983I-76667J-20538D01*
G01*
X2079409Y-14210485D02*
G75*
G03*
X2181151Y-14257923I74591J27155D01*
G01*
X3406380Y-12048042D02*
G75*
G03*
X3350254Y-12145256I20540J-76668D01*
G01*
X3610865Y-12610279D02*
G75*
G03*
X3554737Y-12707489I20545J-76671D01*
G01*
X9555000Y-13639000D02*
X9886000Y-11763000D01*
X1529768Y-12468697D02*
G75*
G03*
X1482328Y-12570433I26353J-74217D01*
G01*
X3603916Y-12402752D02*
G75*
G03*
X3660043Y-12305538I-20546J76672D01*
G01*
X3350254Y-12145256D02*
X3431360Y-12366813D01*
X3431360Y-12366814D02*
G75*
G03*
X3528575Y-12422940I76670J20544D01*
G01*
X9886000Y-11763000D02*
G75*
G03*
X1529769Y-12468697I-3114707J-12944779D01*
G01*
X3660043Y-12305538D02*
X3619505Y-12073110D01*
X9555000Y-13639000D02*
G75*
G03*
X2181151Y-14257922I-2778419J-11133402D01*
G01*
X3610864Y-12610275D02*
X3626319Y-12606134D01*
X3528575Y-12422940D02*
X3603917Y-12402752D01*
X3768576Y-12924539D02*
X3723534Y-12662261D01*
X2079415Y-14210482D02*
X1482328Y-12570433D01*
X3646869Y-12957150D02*
G75*
G03*
X3768577Y-12924540I60854J16305D01*
G01*
X3646869Y-12957150D02*
X3554737Y-12707489D01*
X3406381Y-12048042D02*
X3522291Y-12016983D01*
D11*
D12*
X2936096Y-12361120D02*
X2986096Y-12411120D01*
X2986096Y-12361120D02*
X2936096Y-12411120D01*
D11*
X2985434Y-12350657D02*
X2919656Y-12374598D01*
X3002535Y-12397642D02*
X2936757Y-12421583D01*
X2919656Y-12374598D02*
G75*
G03*
X2936757Y-12421583I8551J-23492D01*
G01*
X3002535Y-12397642D02*
G75*
G03*
X2985434Y-12350657I-8551J23492D01*
G01*
D12*
X5043009Y-11886480D02*
X5093009Y-11936480D01*
X5093009Y-11886480D02*
X5043009Y-11936480D01*
D11*
X5098136Y-11880782D02*
X5029200Y-11892938D01*
X5106819Y-11930023D02*
X5037882Y-11942178D01*
X5029200Y-11892938D02*
G75*
G03*
X5037882Y-11942178I4341J-24620D01*
G01*
X5106819Y-11930023D02*
G75*
G03*
X5098136Y-11880782I-4341J24620D01*
G01*
D12*
X7201317Y-11785362D02*
X7251317Y-11835362D01*
X7251317Y-11785362D02*
X7201317Y-11835362D01*
D11*
X7261317Y-11785362D02*
X7191317Y-11785362D01*
X7261317Y-11835362D02*
X7191317Y-11835362D01*
X7191317Y-11785362D02*
G75*
G03*
X7191317Y-11835362I0J-25000D01*
G01*
X7261317Y-11835362D02*
G75*
G03*
X7261317Y-11785362I0J25000D01*
G01*
D12*
X9344131Y-12060383D02*
X9394131Y-12110383D01*
X9394131Y-12060383D02*
X9344131Y-12110383D01*
D11*
X9407940Y-12066840D02*
X9339003Y-12054685D01*
X9399258Y-12116081D02*
X9330321Y-12103925D01*
X9339003Y-12054685D02*
G75*
G03*
X9330321Y-12103925I-4341J-24620D01*
G01*
X9399258Y-12116081D02*
G75*
G03*
X9407940Y-12066840I4341J24620D01*
G01*
D13*
X2244820Y-13257374D02*
G75*
G03*
X2244820Y-13257374I-84000J0D01*
G01*
X3278481Y-12881151D02*
G75*
G03*
X3278481Y-12881151I-84000J0D01*
G01*
X4212599Y-12630531D02*
G75*
G03*
X4212599Y-12630531I-84000J0D01*
G01*
X5295888Y-12439518D02*
G75*
G03*
X5295888Y-12439518I-84000J0D01*
G01*
X6260317Y-12355362D02*
G75*
G03*
X6260317Y-12355362I-84000J0D01*
G01*
X7360317Y-12355362D02*
G75*
G03*
X7360317Y-12355362I-84000J0D01*
G01*
X8324444Y-12439773D02*
G75*
G03*
X8324444Y-12439773I-84000J0D01*
G01*
X9407733Y-12630786D02*
G75*
G03*
X9407733Y-12630786I-84000J0D01*
G01*
D14*
X2200287Y-13158009D02*
X2200287Y-13328009D01*
X2115287Y-13243009D02*
X2285287Y-13243009D01*
X3155014Y-12810516D02*
X3155014Y-12980516D01*
X3070014Y-12895516D02*
X3240014Y-12895516D01*
X4169961Y-12538238D02*
X4169961Y-12708238D01*
X4084961Y-12623238D02*
X4254961Y-12623238D01*
X5170526Y-12361811D02*
X5170526Y-12531811D01*
X5085526Y-12446811D02*
X5255526Y-12446811D01*
X6218317Y-12270362D02*
X6218317Y-12440362D01*
X6133317Y-12355362D02*
X6303317Y-12355362D01*
X7234317Y-12270362D02*
X7234317Y-12440362D01*
X7149317Y-12355362D02*
X7319317Y-12355362D01*
X8281806Y-12362066D02*
X8281806Y-12532066D01*
X8196806Y-12447066D02*
X8366806Y-12447066D01*
X9282371Y-12538492D02*
X9282371Y-12708492D01*
X9197371Y-12623492D02*
X9367371Y-12623492D01*
D15*
X4017310Y-13694481D02*
X4017310Y-13397494D01*
X3720323Y-13397494D01*
X3720323Y-13694481D01*
X4017310Y-13694481D01*
D11*
X4078817Y-13635988D02*
X4078817Y-13455988D01*
X3658817Y-13635988D02*
X3658817Y-13455988D01*
X4078817Y-13455988D02*
G75*
G03*
X3658817Y-13455988I-210000J0D01*
G01*
X3658817Y-13635988D02*
G75*
G03*
X4078817Y-13635988I210000J0D01*
G01*
D15*
X4017311Y-11789481D02*
X4017311Y-11492494D01*
X3720323Y-11492494D01*
X3720323Y-11789481D01*
X4017311Y-11789481D01*
D11*
X4078817Y-11730988D02*
X4078817Y-11550988D01*
X3658817Y-11730988D02*
X3658817Y-11550988D01*
X4078817Y-11550988D02*
G75*
G03*
X3658817Y-11550988I-210000J0D01*
G01*
X3658817Y-11730988D02*
G75*
G03*
X4078817Y-11730988I210000J0D01*
G01*
D15*
X5922311Y-13257918D02*
X5922311Y-12960931D01*
X5625324Y-12960931D01*
X5625324Y-13257918D01*
X5922311Y-13257918D01*
D11*
X5983817Y-13199425D02*
X5983817Y-13019425D01*
X5563817Y-13199425D02*
X5563817Y-13019425D01*
X5983817Y-13019425D02*
G75*
G03*
X5563817Y-13019425I-210000J0D01*
G01*
X5563817Y-13199425D02*
G75*
G03*
X5983817Y-13199425I210000J0D01*
G01*
D15*
X7827311Y-13257919D02*
X7827311Y-12960931D01*
X7530323Y-12960931D01*
X7530323Y-13257919D01*
X7827311Y-13257919D01*
D11*
X7888817Y-13199425D02*
X7888817Y-13019425D01*
X7468817Y-13199425D02*
X7468817Y-13019425D01*
X7888817Y-13019425D02*
G75*
G03*
X7468817Y-13019425I-210000J0D01*
G01*
X7468817Y-13199425D02*
G75*
G03*
X7888817Y-13199425I210000J0D01*
G01*
D15*
X9732311Y-11789480D02*
X9732311Y-11492493D01*
X9435323Y-11492493D01*
X9435323Y-11789480D01*
X9732311Y-11789480D01*
D11*
X9793817Y-11730987D02*
X9793817Y-11550987D01*
X9373817Y-11730987D02*
X9373817Y-11550987D01*
X9793817Y-11550987D02*
G75*
G03*
X9373817Y-11550987I-210000J0D01*
G01*
X9373817Y-11730987D02*
G75*
G03*
X9793817Y-11730987I210000J0D01*
G01*
D15*
X9732311Y-13694481D02*
X9732311Y-13397493D01*
X9435324Y-13397493D01*
X9435324Y-13694481D01*
X9732311Y-13694481D01*
D11*
X9793817Y-13635987D02*
X9793817Y-13455987D01*
X9373817Y-13635987D02*
X9373817Y-13455987D01*
X9793817Y-13455987D02*
G75*
G03*
X9373817Y-13455987I-210000J0D01*
G01*
X9373817Y-13635987D02*
G75*
G03*
X9793817Y-13635987I210000J0D01*
G01*
D16*
X2677651Y-13314262D02*
X2922650Y-13069262D01*
X2677651Y-12824262D01*
X2432651Y-13069262D01*
X2677651Y-13314262D01*
X4670244Y-12780025D02*
X4915244Y-12535025D01*
X4670244Y-12290025D01*
X4425244Y-12535025D01*
X4670244Y-12780025D01*
X6726317Y-12600362D02*
X6971317Y-12355362D01*
X6726317Y-12110362D01*
X6481317Y-12355362D01*
X6726317Y-12600362D01*
X8782088Y-12780279D02*
X9027088Y-12535279D01*
X8782088Y-12290279D01*
X8537088Y-12535279D01*
X8782088Y-12780279D01*
D11*
X1727483Y-14580686D02*
X1727483Y-14380686D01*
X1775102Y-14380686D01*
X1803674Y-14390210D01*
X1822721Y-14409258D01*
X1832245Y-14428305D01*
X1841769Y-14466401D01*
X1841769Y-14494972D01*
X1832245Y-14533067D01*
X1822721Y-14552115D01*
X1803674Y-14571163D01*
X1775102Y-14580686D01*
X1727483Y-14580686D01*
X1927483Y-14580686D02*
X1927483Y-14447353D01*
X1927483Y-14485448D02*
X1937007Y-14466401D01*
X1946531Y-14456877D01*
X1965578Y-14447353D01*
X1984626Y-14447353D01*
X2051293Y-14580686D02*
X2051293Y-14447353D01*
X2051293Y-14380686D02*
X2041769Y-14390210D01*
X2051293Y-14399734D01*
X2060816Y-14390210D01*
X2051293Y-14380686D01*
X2051293Y-14399734D01*
X2175102Y-14580686D02*
X2156055Y-14571163D01*
X2146531Y-14552115D01*
X2146531Y-14380686D01*
X2279864Y-14580686D02*
X2260816Y-14571163D01*
X2251293Y-14552115D01*
X2251293Y-14380686D01*
X2508436Y-14580686D02*
X2508436Y-14380686D01*
X2575102Y-14523544D01*
X2641769Y-14380686D01*
X2641769Y-14580686D01*
X2822721Y-14580686D02*
X2822721Y-14475924D01*
X2813197Y-14456877D01*
X2794150Y-14447353D01*
X2756055Y-14447353D01*
X2737007Y-14456877D01*
X2822721Y-14571163D02*
X2803674Y-14580686D01*
X2756055Y-14580686D01*
X2737007Y-14571163D01*
X2727483Y-14552115D01*
X2727483Y-14533067D01*
X2737007Y-14514020D01*
X2756055Y-14504496D01*
X2803674Y-14504496D01*
X2822721Y-14494972D01*
X2917959Y-14447353D02*
X2917959Y-14647353D01*
X2917959Y-14456877D02*
X2937007Y-14447353D01*
X2975102Y-14447353D01*
X2994150Y-14456877D01*
X3003674Y-14466401D01*
X3013197Y-14485448D01*
X3013197Y-14542591D01*
X3003674Y-14561639D01*
X2994150Y-14571163D01*
X2975102Y-14580686D01*
X2937007Y-14580686D01*
X2917959Y-14571163D01*
X3098912Y-14561639D02*
X3108435Y-14571163D01*
X3098912Y-14580686D01*
X3089388Y-14571163D01*
X3098912Y-14561639D01*
X3098912Y-14580686D01*
X3098912Y-14456877D02*
X3108435Y-14466401D01*
X3098912Y-14475924D01*
X3089388Y-14466401D01*
X3098912Y-14456877D01*
X3098912Y-14475924D01*
D12*
X1419864Y-14885210D02*
X1469864Y-14935210D01*
X1469864Y-14885210D02*
X1419864Y-14935210D01*
D11*
X1765578Y-14800686D02*
X1784626Y-14800686D01*
X1803674Y-14810210D01*
X1813197Y-14819734D01*
X1822721Y-14838782D01*
X1832245Y-14876877D01*
X1832245Y-14924496D01*
X1822721Y-14962591D01*
X1813197Y-14981639D01*
X1803674Y-14991163D01*
X1784626Y-15000686D01*
X1765578Y-15000686D01*
X1746531Y-14991163D01*
X1737007Y-14981639D01*
X1727483Y-14962591D01*
X1717959Y-14924496D01*
X1717959Y-14876877D01*
X1727483Y-14838782D01*
X1737007Y-14819734D01*
X1746531Y-14810210D01*
X1765578Y-14800686D01*
X1917959Y-14981639D02*
X1927483Y-14991163D01*
X1917959Y-15000686D01*
X1908435Y-14991163D01*
X1917959Y-14981639D01*
X1917959Y-15000686D01*
X2108436Y-14800686D02*
X2013197Y-14800686D01*
X2003674Y-14895924D01*
X2013197Y-14886401D01*
X2032245Y-14876877D01*
X2079864Y-14876877D01*
X2098912Y-14886401D01*
X2108436Y-14895924D01*
X2117959Y-14914972D01*
X2117959Y-14962591D01*
X2108436Y-14981639D01*
X2098912Y-14991163D01*
X2079864Y-15000686D01*
X2032245Y-15000686D01*
X2013197Y-14991163D01*
X2003674Y-14981639D01*
X2241769Y-14800686D02*
X2260816Y-14800686D01*
X2279864Y-14810210D01*
X2289388Y-14819734D01*
X2298912Y-14838782D01*
X2308436Y-14876877D01*
X2308436Y-14924496D01*
X2298912Y-14962591D01*
X2289388Y-14981639D01*
X2279864Y-14991163D01*
X2260816Y-15000686D01*
X2241769Y-15000686D01*
X2222721Y-14991163D01*
X2213197Y-14981639D01*
X2203674Y-14962591D01*
X2194150Y-14924496D01*
X2194150Y-14876877D01*
X2203674Y-14838782D01*
X2213197Y-14819734D01*
X2222721Y-14810210D01*
X2241769Y-14800686D01*
X2432245Y-14800686D02*
X2451293Y-14800686D01*
X2470340Y-14810210D01*
X2479864Y-14819734D01*
X2489388Y-14838782D01*
X2498912Y-14876877D01*
X2498912Y-14924496D01*
X2489388Y-14962591D01*
X2479864Y-14981639D01*
X2470340Y-14991163D01*
X2451293Y-15000686D01*
X2432245Y-15000686D01*
X2413197Y-14991163D01*
X2403674Y-14981639D01*
X2394150Y-14962591D01*
X2384626Y-14924496D01*
X2384626Y-14876877D01*
X2394150Y-14838782D01*
X2403674Y-14819734D01*
X2413197Y-14810210D01*
X2432245Y-14800686D01*
X2584626Y-15000686D02*
X2584626Y-14867353D01*
X2584626Y-14886401D02*
X2594150Y-14876877D01*
X2613197Y-14867353D01*
X2641769Y-14867353D01*
X2660816Y-14876877D01*
X2670340Y-14895924D01*
X2670340Y-15000686D01*
X2670340Y-14895924D02*
X2679864Y-14876877D01*
X2698912Y-14867353D01*
X2727483Y-14867353D01*
X2746531Y-14876877D01*
X2756055Y-14895924D01*
X2756055Y-15000686D01*
X2851293Y-15000686D02*
X2851293Y-14867353D01*
X2851293Y-14886401D02*
X2860816Y-14876877D01*
X2879864Y-14867353D01*
X2908435Y-14867353D01*
X2927483Y-14876877D01*
X2937007Y-14895924D01*
X2937007Y-15000686D01*
X2937007Y-14895924D02*
X2946531Y-14876877D01*
X2965578Y-14867353D01*
X2994150Y-14867353D01*
X3013197Y-14876877D01*
X3022721Y-14895924D01*
X3022721Y-15000686D01*
X3413197Y-14791163D02*
X3241769Y-15048305D01*
X3670340Y-14800686D02*
X3689388Y-14800686D01*
X3708435Y-14810210D01*
X3717959Y-14819734D01*
X3727483Y-14838782D01*
X3737007Y-14876877D01*
X3737007Y-14924496D01*
X3727483Y-14962591D01*
X3717959Y-14981639D01*
X3708435Y-14991163D01*
X3689388Y-15000686D01*
X3670340Y-15000686D01*
X3651293Y-14991163D01*
X3641769Y-14981639D01*
X3632245Y-14962591D01*
X3622721Y-14924496D01*
X3622721Y-14876877D01*
X3632245Y-14838782D01*
X3641769Y-14819734D01*
X3651293Y-14810210D01*
X3670340Y-14800686D01*
X3822721Y-14981639D02*
X3832245Y-14991163D01*
X3822721Y-15000686D01*
X3813197Y-14991163D01*
X3822721Y-14981639D01*
X3822721Y-15000686D01*
X3956054Y-14800686D02*
X3975102Y-14800686D01*
X3994150Y-14810210D01*
X4003674Y-14819734D01*
X4013197Y-14838782D01*
X4022721Y-14876877D01*
X4022721Y-14924496D01*
X4013197Y-14962591D01*
X4003674Y-14981639D01*
X3994150Y-14991163D01*
X3975102Y-15000686D01*
X3956054Y-15000686D01*
X3937007Y-14991163D01*
X3927483Y-14981639D01*
X3917959Y-14962591D01*
X3908435Y-14924496D01*
X3908435Y-14876877D01*
X3917959Y-14838782D01*
X3927483Y-14819734D01*
X3937007Y-14810210D01*
X3956054Y-14800686D01*
X4213197Y-15000686D02*
X4098912Y-15000686D01*
X4156054Y-15000686D02*
X4156054Y-14800686D01*
X4137007Y-14829258D01*
X4117959Y-14848305D01*
X4098912Y-14857829D01*
X4308436Y-15000686D02*
X4346531Y-15000686D01*
X4365578Y-14991163D01*
X4375102Y-14981639D01*
X4394150Y-14953067D01*
X4403674Y-14914972D01*
X4403674Y-14838782D01*
X4394150Y-14819734D01*
X4384626Y-14810210D01*
X4365578Y-14800686D01*
X4327483Y-14800686D01*
X4308436Y-14810210D01*
X4298912Y-14819734D01*
X4289388Y-14838782D01*
X4289388Y-14886401D01*
X4298912Y-14905448D01*
X4308436Y-14914972D01*
X4327483Y-14924496D01*
X4365578Y-14924496D01*
X4384626Y-14914972D01*
X4394150Y-14905448D01*
X4403674Y-14886401D01*
X4470340Y-14800686D02*
X4603674Y-14800686D01*
X4517959Y-15000686D01*
X4670340Y-14800686D02*
X4670340Y-14838782D01*
X4746531Y-14800686D02*
X4746531Y-14838782D01*
X5041769Y-15076877D02*
X5032245Y-15067353D01*
X5013197Y-15038782D01*
X5003674Y-15019734D01*
X4994150Y-14991163D01*
X4984626Y-14943544D01*
X4984626Y-14905448D01*
X4994150Y-14857829D01*
X5003674Y-14829258D01*
X5013197Y-14810210D01*
X5032245Y-14781639D01*
X5041769Y-14772115D01*
X5156055Y-14800686D02*
X5175102Y-14800686D01*
X5194150Y-14810210D01*
X5203674Y-14819734D01*
X5213197Y-14838782D01*
X5222721Y-14876877D01*
X5222721Y-14924496D01*
X5213197Y-14962591D01*
X5203674Y-14981639D01*
X5194150Y-14991163D01*
X5175102Y-15000686D01*
X5156055Y-15000686D01*
X5137007Y-14991163D01*
X5127483Y-14981639D01*
X5117959Y-14962591D01*
X5108436Y-14924496D01*
X5108436Y-14876877D01*
X5117959Y-14838782D01*
X5127483Y-14819734D01*
X5137007Y-14810210D01*
X5156055Y-14800686D01*
X5460816Y-15000686D02*
X5460816Y-14800686D01*
X5546531Y-15000686D02*
X5546531Y-14895924D01*
X5537007Y-14876877D01*
X5517959Y-14867353D01*
X5489388Y-14867353D01*
X5470340Y-14876877D01*
X5460816Y-14886401D01*
X5670340Y-15000686D02*
X5651293Y-14991163D01*
X5641769Y-14981639D01*
X5632245Y-14962591D01*
X5632245Y-14905448D01*
X5641769Y-14886401D01*
X5651293Y-14876877D01*
X5670340Y-14867353D01*
X5698912Y-14867353D01*
X5717959Y-14876877D01*
X5727483Y-14886401D01*
X5737007Y-14905448D01*
X5737007Y-14962591D01*
X5727483Y-14981639D01*
X5717959Y-14991163D01*
X5698912Y-15000686D01*
X5670340Y-15000686D01*
X5851293Y-15000686D02*
X5832245Y-14991163D01*
X5822721Y-14972115D01*
X5822721Y-14800686D01*
X6003674Y-14991163D02*
X5984626Y-15000686D01*
X5946531Y-15000686D01*
X5927483Y-14991163D01*
X5917959Y-14972115D01*
X5917959Y-14895924D01*
X5927483Y-14876877D01*
X5946531Y-14867353D01*
X5984626Y-14867353D01*
X6003674Y-14876877D01*
X6013197Y-14895924D01*
X6013197Y-14914972D01*
X5917959Y-14934020D01*
X6089388Y-14991163D02*
X6108435Y-15000686D01*
X6146531Y-15000686D01*
X6165578Y-14991163D01*
X6175102Y-14972115D01*
X6175102Y-14962591D01*
X6165578Y-14943544D01*
X6146531Y-14934020D01*
X6117959Y-14934020D01*
X6098912Y-14924496D01*
X6089388Y-14905448D01*
X6089388Y-14895924D01*
X6098912Y-14876877D01*
X6117959Y-14867353D01*
X6146531Y-14867353D01*
X6165578Y-14876877D01*
X6413197Y-14924496D02*
X6565578Y-14924496D01*
X6489388Y-15000686D02*
X6489388Y-14848305D01*
X6898912Y-14867353D02*
X6898912Y-15000686D01*
X6851293Y-14791163D02*
X6803674Y-14934020D01*
X6927483Y-14934020D01*
X7146531Y-14991163D02*
X7165578Y-15000686D01*
X7203674Y-15000686D01*
X7222721Y-14991163D01*
X7232245Y-14972115D01*
X7232245Y-14962591D01*
X7222721Y-14943544D01*
X7203674Y-14934020D01*
X7175102Y-14934020D01*
X7156054Y-14924496D01*
X7146531Y-14905448D01*
X7146531Y-14895924D01*
X7156054Y-14876877D01*
X7175102Y-14867353D01*
X7203674Y-14867353D01*
X7222721Y-14876877D01*
X7346531Y-15000686D02*
X7327483Y-14991163D01*
X7317959Y-14972115D01*
X7317959Y-14800686D01*
X7451293Y-15000686D02*
X7432245Y-14991163D01*
X7422721Y-14981639D01*
X7413197Y-14962591D01*
X7413197Y-14905448D01*
X7422721Y-14886401D01*
X7432245Y-14876877D01*
X7451293Y-14867353D01*
X7479864Y-14867353D01*
X7498912Y-14876877D01*
X7508435Y-14886401D01*
X7517959Y-14905448D01*
X7517959Y-14962591D01*
X7508435Y-14981639D01*
X7498912Y-14991163D01*
X7479864Y-15000686D01*
X7451293Y-15000686D01*
X7575102Y-14867353D02*
X7651293Y-14867353D01*
X7603674Y-14800686D02*
X7603674Y-14972115D01*
X7613197Y-14991163D01*
X7632245Y-15000686D01*
X7651293Y-15000686D01*
X7708435Y-14991163D02*
X7727483Y-15000686D01*
X7765578Y-15000686D01*
X7784626Y-14991163D01*
X7794150Y-14972115D01*
X7794150Y-14962591D01*
X7784626Y-14943544D01*
X7765578Y-14934020D01*
X7737007Y-14934020D01*
X7717959Y-14924496D01*
X7708435Y-14905448D01*
X7708435Y-14895924D01*
X7717959Y-14876877D01*
X7737007Y-14867353D01*
X7765578Y-14867353D01*
X7784626Y-14876877D01*
X7860816Y-15076877D02*
X7870340Y-15067353D01*
X7889388Y-15038782D01*
X7898912Y-15019734D01*
X7908435Y-14991163D01*
X7917959Y-14943544D01*
X7917959Y-14905448D01*
X7908435Y-14857829D01*
X7898912Y-14829258D01*
X7889388Y-14810210D01*
X7870340Y-14781639D01*
X7860816Y-14772115D01*
X8222721Y-15076877D02*
X8213197Y-15067353D01*
X8194150Y-15038782D01*
X8184626Y-15019734D01*
X8175102Y-14991163D01*
X8165578Y-14943544D01*
X8165578Y-14905448D01*
X8175102Y-14857829D01*
X8184626Y-14829258D01*
X8194150Y-14810210D01*
X8213197Y-14781639D01*
X8222721Y-14772115D01*
X8298912Y-14867353D02*
X8298912Y-15000686D01*
X8298912Y-14886401D02*
X8308435Y-14876877D01*
X8327483Y-14867353D01*
X8356054Y-14867353D01*
X8375102Y-14876877D01*
X8384626Y-14895924D01*
X8384626Y-15000686D01*
X8508436Y-15000686D02*
X8489388Y-14991163D01*
X8479864Y-14981639D01*
X8470340Y-14962591D01*
X8470340Y-14905448D01*
X8479864Y-14886401D01*
X8489388Y-14876877D01*
X8508436Y-14867353D01*
X8537007Y-14867353D01*
X8556055Y-14876877D01*
X8565578Y-14886401D01*
X8575102Y-14905448D01*
X8575102Y-14962591D01*
X8565578Y-14981639D01*
X8556055Y-14991163D01*
X8537007Y-15000686D01*
X8508436Y-15000686D01*
X8632245Y-14867353D02*
X8708436Y-14867353D01*
X8660816Y-14800686D02*
X8660816Y-14972115D01*
X8670340Y-14991163D01*
X8689388Y-15000686D01*
X8708436Y-15000686D01*
X8927483Y-14867353D02*
X8927483Y-15067353D01*
X8927483Y-14876877D02*
X8946531Y-14867353D01*
X8984626Y-14867353D01*
X9003674Y-14876877D01*
X9013197Y-14886401D01*
X9022721Y-14905448D01*
X9022721Y-14962591D01*
X9013197Y-14981639D01*
X9003674Y-14991163D01*
X8984626Y-15000686D01*
X8946531Y-15000686D01*
X8927483Y-14991163D01*
X9137007Y-15000686D02*
X9117959Y-14991163D01*
X9108436Y-14972115D01*
X9108436Y-14800686D01*
X9298912Y-15000686D02*
X9298912Y-14895924D01*
X9289388Y-14876877D01*
X9270340Y-14867353D01*
X9232245Y-14867353D01*
X9213197Y-14876877D01*
X9298912Y-14991163D02*
X9279864Y-15000686D01*
X9232245Y-15000686D01*
X9213197Y-14991163D01*
X9203674Y-14972115D01*
X9203674Y-14953067D01*
X9213197Y-14934020D01*
X9232245Y-14924496D01*
X9279864Y-14924496D01*
X9298912Y-14914972D01*
X9365578Y-14867353D02*
X9441769Y-14867353D01*
X9394150Y-14800686D02*
X9394150Y-14972115D01*
X9403674Y-14991163D01*
X9422721Y-15000686D01*
X9441769Y-15000686D01*
X9584626Y-14991163D02*
X9565578Y-15000686D01*
X9527483Y-15000686D01*
X9508436Y-14991163D01*
X9498912Y-14972115D01*
X9498912Y-14895924D01*
X9508436Y-14876877D01*
X9527483Y-14867353D01*
X9565578Y-14867353D01*
X9584626Y-14876877D01*
X9594150Y-14895924D01*
X9594150Y-14914972D01*
X9498912Y-14934020D01*
X9765578Y-15000686D02*
X9765578Y-14800686D01*
X9765578Y-14991163D02*
X9746531Y-15000686D01*
X9708436Y-15000686D01*
X9689388Y-14991163D01*
X9679864Y-14981639D01*
X9670340Y-14962591D01*
X9670340Y-14905448D01*
X9679864Y-14886401D01*
X9689388Y-14876877D01*
X9708436Y-14867353D01*
X9746531Y-14867353D01*
X9765578Y-14876877D01*
X9841769Y-15076877D02*
X9851293Y-15067353D01*
X9870340Y-15038782D01*
X9879864Y-15019734D01*
X9889388Y-14991163D01*
X9898912Y-14943544D01*
X9898912Y-14905448D01*
X9889388Y-14857829D01*
X9879864Y-14829258D01*
X9870340Y-14810210D01*
X9851293Y-14781639D01*
X9841769Y-14772115D01*
D13*
X1469864Y-15174210D02*
G75*
G03*
X1469864Y-15174210I-84000J0D01*
G01*
D11*
X1832245Y-15264686D02*
X1717959Y-15264686D01*
X1775102Y-15264686D02*
X1775102Y-15064686D01*
X1756054Y-15093258D01*
X1737007Y-15112305D01*
X1717959Y-15121829D01*
X1917959Y-15245639D02*
X1927483Y-15255163D01*
X1917959Y-15264686D01*
X1908435Y-15255163D01*
X1917959Y-15245639D01*
X1917959Y-15264686D01*
X2098912Y-15064686D02*
X2060816Y-15064686D01*
X2041769Y-15074210D01*
X2032245Y-15083734D01*
X2013197Y-15112305D01*
X2003674Y-15150401D01*
X2003674Y-15226591D01*
X2013197Y-15245639D01*
X2022721Y-15255163D01*
X2041769Y-15264686D01*
X2079864Y-15264686D01*
X2098912Y-15255163D01*
X2108436Y-15245639D01*
X2117959Y-15226591D01*
X2117959Y-15178972D01*
X2108436Y-15159924D01*
X2098912Y-15150401D01*
X2079864Y-15140877D01*
X2041769Y-15140877D01*
X2022721Y-15150401D01*
X2013197Y-15159924D01*
X2003674Y-15178972D01*
X2232245Y-15150401D02*
X2213197Y-15140877D01*
X2203674Y-15131353D01*
X2194150Y-15112305D01*
X2194150Y-15102782D01*
X2203674Y-15083734D01*
X2213197Y-15074210D01*
X2232245Y-15064686D01*
X2270340Y-15064686D01*
X2289388Y-15074210D01*
X2298912Y-15083734D01*
X2308436Y-15102782D01*
X2308436Y-15112305D01*
X2298912Y-15131353D01*
X2289388Y-15140877D01*
X2270340Y-15150401D01*
X2232245Y-15150401D01*
X2213197Y-15159924D01*
X2203674Y-15169448D01*
X2194150Y-15188496D01*
X2194150Y-15226591D01*
X2203674Y-15245639D01*
X2213197Y-15255163D01*
X2232245Y-15264686D01*
X2270340Y-15264686D01*
X2289388Y-15255163D01*
X2298912Y-15245639D01*
X2308436Y-15226591D01*
X2308436Y-15188496D01*
X2298912Y-15169448D01*
X2289388Y-15159924D01*
X2270340Y-15150401D01*
X2432245Y-15064686D02*
X2451293Y-15064686D01*
X2470340Y-15074210D01*
X2479864Y-15083734D01*
X2489388Y-15102782D01*
X2498912Y-15140877D01*
X2498912Y-15188496D01*
X2489388Y-15226591D01*
X2479864Y-15245639D01*
X2470340Y-15255163D01*
X2451293Y-15264686D01*
X2432245Y-15264686D01*
X2413197Y-15255163D01*
X2403674Y-15245639D01*
X2394150Y-15226591D01*
X2384626Y-15188496D01*
X2384626Y-15140877D01*
X2394150Y-15102782D01*
X2403674Y-15083734D01*
X2413197Y-15074210D01*
X2432245Y-15064686D01*
X2584626Y-15264686D02*
X2584626Y-15131353D01*
X2584626Y-15150401D02*
X2594150Y-15140877D01*
X2613197Y-15131353D01*
X2641769Y-15131353D01*
X2660816Y-15140877D01*
X2670340Y-15159924D01*
X2670340Y-15264686D01*
X2670340Y-15159924D02*
X2679864Y-15140877D01*
X2698912Y-15131353D01*
X2727483Y-15131353D01*
X2746531Y-15140877D01*
X2756055Y-15159924D01*
X2756055Y-15264686D01*
X2851293Y-15264686D02*
X2851293Y-15131353D01*
X2851293Y-15150401D02*
X2860816Y-15140877D01*
X2879864Y-15131353D01*
X2908435Y-15131353D01*
X2927483Y-15140877D01*
X2937007Y-15159924D01*
X2937007Y-15264686D01*
X2937007Y-15159924D02*
X2946531Y-15140877D01*
X2965578Y-15131353D01*
X2994150Y-15131353D01*
X3013197Y-15140877D01*
X3022721Y-15159924D01*
X3022721Y-15264686D01*
X3413197Y-15055163D02*
X3241769Y-15312305D01*
X3670340Y-15064686D02*
X3689388Y-15064686D01*
X3708435Y-15074210D01*
X3717959Y-15083734D01*
X3727483Y-15102782D01*
X3737007Y-15140877D01*
X3737007Y-15188496D01*
X3727483Y-15226591D01*
X3717959Y-15245639D01*
X3708435Y-15255163D01*
X3689388Y-15264686D01*
X3670340Y-15264686D01*
X3651293Y-15255163D01*
X3641769Y-15245639D01*
X3632245Y-15226591D01*
X3622721Y-15188496D01*
X3622721Y-15140877D01*
X3632245Y-15102782D01*
X3641769Y-15083734D01*
X3651293Y-15074210D01*
X3670340Y-15064686D01*
X3822721Y-15245639D02*
X3832245Y-15255163D01*
X3822721Y-15264686D01*
X3813197Y-15255163D01*
X3822721Y-15245639D01*
X3822721Y-15264686D01*
X3956054Y-15064686D02*
X3975102Y-15064686D01*
X3994150Y-15074210D01*
X4003674Y-15083734D01*
X4013197Y-15102782D01*
X4022721Y-15140877D01*
X4022721Y-15188496D01*
X4013197Y-15226591D01*
X4003674Y-15245639D01*
X3994150Y-15255163D01*
X3975102Y-15264686D01*
X3956054Y-15264686D01*
X3937007Y-15255163D01*
X3927483Y-15245639D01*
X3917959Y-15226591D01*
X3908435Y-15188496D01*
X3908435Y-15140877D01*
X3917959Y-15102782D01*
X3927483Y-15083734D01*
X3937007Y-15074210D01*
X3956054Y-15064686D01*
X4194150Y-15064686D02*
X4156054Y-15064686D01*
X4137007Y-15074210D01*
X4127483Y-15083734D01*
X4108435Y-15112305D01*
X4098912Y-15150401D01*
X4098912Y-15226591D01*
X4108435Y-15245639D01*
X4117959Y-15255163D01*
X4137007Y-15264686D01*
X4175102Y-15264686D01*
X4194150Y-15255163D01*
X4203674Y-15245639D01*
X4213197Y-15226591D01*
X4213197Y-15178972D01*
X4203674Y-15159924D01*
X4194150Y-15150401D01*
X4175102Y-15140877D01*
X4137007Y-15140877D01*
X4117959Y-15150401D01*
X4108435Y-15159924D01*
X4098912Y-15178972D01*
X4384626Y-15064686D02*
X4346531Y-15064686D01*
X4327483Y-15074210D01*
X4317959Y-15083734D01*
X4298912Y-15112305D01*
X4289388Y-15150401D01*
X4289388Y-15226591D01*
X4298912Y-15245639D01*
X4308436Y-15255163D01*
X4327483Y-15264686D01*
X4365578Y-15264686D01*
X4384626Y-15255163D01*
X4394150Y-15245639D01*
X4403674Y-15226591D01*
X4403674Y-15178972D01*
X4394150Y-15159924D01*
X4384626Y-15150401D01*
X4365578Y-15140877D01*
X4327483Y-15140877D01*
X4308436Y-15150401D01*
X4298912Y-15159924D01*
X4289388Y-15178972D01*
X4594150Y-15264686D02*
X4479864Y-15264686D01*
X4537007Y-15264686D02*
X4537007Y-15064686D01*
X4517959Y-15093258D01*
X4498912Y-15112305D01*
X4479864Y-15121829D01*
X4670340Y-15064686D02*
X4670340Y-15102782D01*
X4746531Y-15064686D02*
X4746531Y-15102782D01*
X5041769Y-15340877D02*
X5032245Y-15331353D01*
X5013197Y-15302782D01*
X5003674Y-15283734D01*
X4994150Y-15255163D01*
X4984626Y-15207544D01*
X4984626Y-15169448D01*
X4994150Y-15121829D01*
X5003674Y-15093258D01*
X5013197Y-15074210D01*
X5032245Y-15045639D01*
X5041769Y-15036115D01*
X5146531Y-15150401D02*
X5127483Y-15140877D01*
X5117959Y-15131353D01*
X5108436Y-15112305D01*
X5108436Y-15102782D01*
X5117959Y-15083734D01*
X5127483Y-15074210D01*
X5146531Y-15064686D01*
X5184626Y-15064686D01*
X5203674Y-15074210D01*
X5213197Y-15083734D01*
X5222721Y-15102782D01*
X5222721Y-15112305D01*
X5213197Y-15131353D01*
X5203674Y-15140877D01*
X5184626Y-15150401D01*
X5146531Y-15150401D01*
X5127483Y-15159924D01*
X5117959Y-15169448D01*
X5108436Y-15188496D01*
X5108436Y-15226591D01*
X5117959Y-15245639D01*
X5127483Y-15255163D01*
X5146531Y-15264686D01*
X5184626Y-15264686D01*
X5203674Y-15255163D01*
X5213197Y-15245639D01*
X5222721Y-15226591D01*
X5222721Y-15188496D01*
X5213197Y-15169448D01*
X5203674Y-15159924D01*
X5184626Y-15150401D01*
X5460816Y-15264686D02*
X5460816Y-15064686D01*
X5546531Y-15264686D02*
X5546531Y-15159924D01*
X5537007Y-15140877D01*
X5517959Y-15131353D01*
X5489388Y-15131353D01*
X5470340Y-15140877D01*
X5460816Y-15150401D01*
X5670340Y-15264686D02*
X5651293Y-15255163D01*
X5641769Y-15245639D01*
X5632245Y-15226591D01*
X5632245Y-15169448D01*
X5641769Y-15150401D01*
X5651293Y-15140877D01*
X5670340Y-15131353D01*
X5698912Y-15131353D01*
X5717959Y-15140877D01*
X5727483Y-15150401D01*
X5737007Y-15169448D01*
X5737007Y-15226591D01*
X5727483Y-15245639D01*
X5717959Y-15255163D01*
X5698912Y-15264686D01*
X5670340Y-15264686D01*
X5851293Y-15264686D02*
X5832245Y-15255163D01*
X5822721Y-15236115D01*
X5822721Y-15064686D01*
X6003674Y-15255163D02*
X5984626Y-15264686D01*
X5946531Y-15264686D01*
X5927483Y-15255163D01*
X5917959Y-15236115D01*
X5917959Y-15159924D01*
X5927483Y-15140877D01*
X5946531Y-15131353D01*
X5984626Y-15131353D01*
X6003674Y-15140877D01*
X6013197Y-15159924D01*
X6013197Y-15178972D01*
X5917959Y-15198020D01*
X6089388Y-15255163D02*
X6108435Y-15264686D01*
X6146531Y-15264686D01*
X6165578Y-15255163D01*
X6175102Y-15236115D01*
X6175102Y-15226591D01*
X6165578Y-15207544D01*
X6146531Y-15198020D01*
X6117959Y-15198020D01*
X6098912Y-15188496D01*
X6089388Y-15169448D01*
X6089388Y-15159924D01*
X6098912Y-15140877D01*
X6117959Y-15131353D01*
X6146531Y-15131353D01*
X6165578Y-15140877D01*
X6241769Y-15340877D02*
X6251293Y-15331353D01*
X6270340Y-15302782D01*
X6279864Y-15283734D01*
X6289388Y-15255163D01*
X6298912Y-15207544D01*
X6298912Y-15169448D01*
X6289388Y-15121829D01*
X6279864Y-15093258D01*
X6270340Y-15074210D01*
X6251293Y-15045639D01*
X6241769Y-15036115D01*
X6603674Y-15340877D02*
X6594150Y-15331353D01*
X6575102Y-15302782D01*
X6565578Y-15283734D01*
X6556054Y-15255163D01*
X6546531Y-15207544D01*
X6546531Y-15169448D01*
X6556054Y-15121829D01*
X6565578Y-15093258D01*
X6575102Y-15074210D01*
X6594150Y-15045639D01*
X6603674Y-15036115D01*
X6679864Y-15131353D02*
X6679864Y-15264686D01*
X6679864Y-15150401D02*
X6689388Y-15140877D01*
X6708435Y-15131353D01*
X6737007Y-15131353D01*
X6756054Y-15140877D01*
X6765578Y-15159924D01*
X6765578Y-15264686D01*
X6889388Y-15264686D02*
X6870340Y-15255163D01*
X6860816Y-15245639D01*
X6851293Y-15226591D01*
X6851293Y-15169448D01*
X6860816Y-15150401D01*
X6870340Y-15140877D01*
X6889388Y-15131353D01*
X6917959Y-15131353D01*
X6937007Y-15140877D01*
X6946531Y-15150401D01*
X6956054Y-15169448D01*
X6956054Y-15226591D01*
X6946531Y-15245639D01*
X6937007Y-15255163D01*
X6917959Y-15264686D01*
X6889388Y-15264686D01*
X7013197Y-15131353D02*
X7089388Y-15131353D01*
X7041769Y-15064686D02*
X7041769Y-15236115D01*
X7051293Y-15255163D01*
X7070340Y-15264686D01*
X7089388Y-15264686D01*
X7308435Y-15131353D02*
X7308435Y-15331353D01*
X7308435Y-15140877D02*
X7327483Y-15131353D01*
X7365578Y-15131353D01*
X7384626Y-15140877D01*
X7394150Y-15150401D01*
X7403674Y-15169448D01*
X7403674Y-15226591D01*
X7394150Y-15245639D01*
X7384626Y-15255163D01*
X7365578Y-15264686D01*
X7327483Y-15264686D01*
X7308435Y-15255163D01*
X7517959Y-15264686D02*
X7498912Y-15255163D01*
X7489388Y-15236115D01*
X7489388Y-15064686D01*
X7679864Y-15264686D02*
X7679864Y-15159924D01*
X7670340Y-15140877D01*
X7651293Y-15131353D01*
X7613197Y-15131353D01*
X7594150Y-15140877D01*
X7679864Y-15255163D02*
X7660816Y-15264686D01*
X7613197Y-15264686D01*
X7594150Y-15255163D01*
X7584626Y-15236115D01*
X7584626Y-15217067D01*
X7594150Y-15198020D01*
X7613197Y-15188496D01*
X7660816Y-15188496D01*
X7679864Y-15178972D01*
X7746531Y-15131353D02*
X7822721Y-15131353D01*
X7775102Y-15064686D02*
X7775102Y-15236115D01*
X7784626Y-15255163D01*
X7803674Y-15264686D01*
X7822721Y-15264686D01*
X7965578Y-15255163D02*
X7946531Y-15264686D01*
X7908435Y-15264686D01*
X7889388Y-15255163D01*
X7879864Y-15236115D01*
X7879864Y-15159924D01*
X7889388Y-15140877D01*
X7908435Y-15131353D01*
X7946531Y-15131353D01*
X7965578Y-15140877D01*
X7975102Y-15159924D01*
X7975102Y-15178972D01*
X7879864Y-15198020D01*
X8146531Y-15264686D02*
X8146531Y-15064686D01*
X8146531Y-15255163D02*
X8127483Y-15264686D01*
X8089388Y-15264686D01*
X8070340Y-15255163D01*
X8060816Y-15245639D01*
X8051293Y-15226591D01*
X8051293Y-15169448D01*
X8060816Y-15150401D01*
X8070340Y-15140877D01*
X8089388Y-15131353D01*
X8127483Y-15131353D01*
X8146531Y-15140877D01*
X8222721Y-15340877D02*
X8232245Y-15331353D01*
X8251293Y-15302782D01*
X8260816Y-15283734D01*
X8270340Y-15255163D01*
X8279864Y-15207544D01*
X8279864Y-15169448D01*
X8270340Y-15121829D01*
X8260816Y-15093258D01*
X8251293Y-15074210D01*
X8232245Y-15045639D01*
X8222721Y-15036115D01*
D14*
X1384864Y-15377210D02*
X1384864Y-15547210D01*
X1299864Y-15462210D02*
X1469864Y-15462210D01*
D11*
X1832245Y-15552686D02*
X1717959Y-15552686D01*
X1775102Y-15552686D02*
X1775102Y-15352686D01*
X1756054Y-15381258D01*
X1737007Y-15400305D01*
X1717959Y-15409829D01*
X1917959Y-15533639D02*
X1927483Y-15543163D01*
X1917959Y-15552686D01*
X1908435Y-15543163D01*
X1917959Y-15533639D01*
X1917959Y-15552686D01*
X1994150Y-15352686D02*
X2127483Y-15352686D01*
X2041769Y-15552686D01*
X2241769Y-15352686D02*
X2260816Y-15352686D01*
X2279864Y-15362210D01*
X2289388Y-15371734D01*
X2298912Y-15390782D01*
X2308436Y-15428877D01*
X2308436Y-15476496D01*
X2298912Y-15514591D01*
X2289388Y-15533639D01*
X2279864Y-15543163D01*
X2260816Y-15552686D01*
X2241769Y-15552686D01*
X2222721Y-15543163D01*
X2213197Y-15533639D01*
X2203674Y-15514591D01*
X2194150Y-15476496D01*
X2194150Y-15428877D01*
X2203674Y-15390782D01*
X2213197Y-15371734D01*
X2222721Y-15362210D01*
X2241769Y-15352686D01*
X2432245Y-15352686D02*
X2451293Y-15352686D01*
X2470340Y-15362210D01*
X2479864Y-15371734D01*
X2489388Y-15390782D01*
X2498912Y-15428877D01*
X2498912Y-15476496D01*
X2489388Y-15514591D01*
X2479864Y-15533639D01*
X2470340Y-15543163D01*
X2451293Y-15552686D01*
X2432245Y-15552686D01*
X2413197Y-15543163D01*
X2403674Y-15533639D01*
X2394150Y-15514591D01*
X2384626Y-15476496D01*
X2384626Y-15428877D01*
X2394150Y-15390782D01*
X2403674Y-15371734D01*
X2413197Y-15362210D01*
X2432245Y-15352686D01*
X2584626Y-15552686D02*
X2584626Y-15419353D01*
X2584626Y-15438401D02*
X2594150Y-15428877D01*
X2613197Y-15419353D01*
X2641769Y-15419353D01*
X2660816Y-15428877D01*
X2670340Y-15447924D01*
X2670340Y-15552686D01*
X2670340Y-15447924D02*
X2679864Y-15428877D01*
X2698912Y-15419353D01*
X2727483Y-15419353D01*
X2746531Y-15428877D01*
X2756055Y-15447924D01*
X2756055Y-15552686D01*
X2851293Y-15552686D02*
X2851293Y-15419353D01*
X2851293Y-15438401D02*
X2860816Y-15428877D01*
X2879864Y-15419353D01*
X2908435Y-15419353D01*
X2927483Y-15428877D01*
X2937007Y-15447924D01*
X2937007Y-15552686D01*
X2937007Y-15447924D02*
X2946531Y-15428877D01*
X2965578Y-15419353D01*
X2994150Y-15419353D01*
X3013197Y-15428877D01*
X3022721Y-15447924D01*
X3022721Y-15552686D01*
X3413197Y-15343163D02*
X3241769Y-15600305D01*
X3670340Y-15352686D02*
X3689388Y-15352686D01*
X3708435Y-15362210D01*
X3717959Y-15371734D01*
X3727483Y-15390782D01*
X3737007Y-15428877D01*
X3737007Y-15476496D01*
X3727483Y-15514591D01*
X3717959Y-15533639D01*
X3708435Y-15543163D01*
X3689388Y-15552686D01*
X3670340Y-15552686D01*
X3651293Y-15543163D01*
X3641769Y-15533639D01*
X3632245Y-15514591D01*
X3622721Y-15476496D01*
X3622721Y-15428877D01*
X3632245Y-15390782D01*
X3641769Y-15371734D01*
X3651293Y-15362210D01*
X3670340Y-15352686D01*
X3822721Y-15533639D02*
X3832245Y-15543163D01*
X3822721Y-15552686D01*
X3813197Y-15543163D01*
X3822721Y-15533639D01*
X3822721Y-15552686D01*
X3956054Y-15352686D02*
X3975102Y-15352686D01*
X3994150Y-15362210D01*
X4003674Y-15371734D01*
X4013197Y-15390782D01*
X4022721Y-15428877D01*
X4022721Y-15476496D01*
X4013197Y-15514591D01*
X4003674Y-15533639D01*
X3994150Y-15543163D01*
X3975102Y-15552686D01*
X3956054Y-15552686D01*
X3937007Y-15543163D01*
X3927483Y-15533639D01*
X3917959Y-15514591D01*
X3908435Y-15476496D01*
X3908435Y-15428877D01*
X3917959Y-15390782D01*
X3927483Y-15371734D01*
X3937007Y-15362210D01*
X3956054Y-15352686D01*
X4194150Y-15352686D02*
X4156054Y-15352686D01*
X4137007Y-15362210D01*
X4127483Y-15371734D01*
X4108435Y-15400305D01*
X4098912Y-15438401D01*
X4098912Y-15514591D01*
X4108435Y-15533639D01*
X4117959Y-15543163D01*
X4137007Y-15552686D01*
X4175102Y-15552686D01*
X4194150Y-15543163D01*
X4203674Y-15533639D01*
X4213197Y-15514591D01*
X4213197Y-15466972D01*
X4203674Y-15447924D01*
X4194150Y-15438401D01*
X4175102Y-15428877D01*
X4137007Y-15428877D01*
X4117959Y-15438401D01*
X4108435Y-15447924D01*
X4098912Y-15466972D01*
X4384626Y-15352686D02*
X4346531Y-15352686D01*
X4327483Y-15362210D01*
X4317959Y-15371734D01*
X4298912Y-15400305D01*
X4289388Y-15438401D01*
X4289388Y-15514591D01*
X4298912Y-15533639D01*
X4308436Y-15543163D01*
X4327483Y-15552686D01*
X4365578Y-15552686D01*
X4384626Y-15543163D01*
X4394150Y-15533639D01*
X4403674Y-15514591D01*
X4403674Y-15466972D01*
X4394150Y-15447924D01*
X4384626Y-15438401D01*
X4365578Y-15428877D01*
X4327483Y-15428877D01*
X4308436Y-15438401D01*
X4298912Y-15447924D01*
X4289388Y-15466972D01*
X4498912Y-15552686D02*
X4537007Y-15552686D01*
X4556055Y-15543163D01*
X4565578Y-15533639D01*
X4584626Y-15505067D01*
X4594150Y-15466972D01*
X4594150Y-15390782D01*
X4584626Y-15371734D01*
X4575102Y-15362210D01*
X4556055Y-15352686D01*
X4517959Y-15352686D01*
X4498912Y-15362210D01*
X4489388Y-15371734D01*
X4479864Y-15390782D01*
X4479864Y-15438401D01*
X4489388Y-15457448D01*
X4498912Y-15466972D01*
X4517959Y-15476496D01*
X4556055Y-15476496D01*
X4575102Y-15466972D01*
X4584626Y-15457448D01*
X4594150Y-15438401D01*
X4670340Y-15352686D02*
X4670340Y-15390782D01*
X4746531Y-15352686D02*
X4746531Y-15390782D01*
X5041769Y-15628877D02*
X5032245Y-15619353D01*
X5013197Y-15590782D01*
X5003674Y-15571734D01*
X4994150Y-15543163D01*
X4984626Y-15495544D01*
X4984626Y-15457448D01*
X4994150Y-15409829D01*
X5003674Y-15381258D01*
X5013197Y-15362210D01*
X5032245Y-15333639D01*
X5041769Y-15324115D01*
X5146531Y-15438401D02*
X5127483Y-15428877D01*
X5117959Y-15419353D01*
X5108436Y-15400305D01*
X5108436Y-15390782D01*
X5117959Y-15371734D01*
X5127483Y-15362210D01*
X5146531Y-15352686D01*
X5184626Y-15352686D01*
X5203674Y-15362210D01*
X5213197Y-15371734D01*
X5222721Y-15390782D01*
X5222721Y-15400305D01*
X5213197Y-15419353D01*
X5203674Y-15428877D01*
X5184626Y-15438401D01*
X5146531Y-15438401D01*
X5127483Y-15447924D01*
X5117959Y-15457448D01*
X5108436Y-15476496D01*
X5108436Y-15514591D01*
X5117959Y-15533639D01*
X5127483Y-15543163D01*
X5146531Y-15552686D01*
X5184626Y-15552686D01*
X5203674Y-15543163D01*
X5213197Y-15533639D01*
X5222721Y-15514591D01*
X5222721Y-15476496D01*
X5213197Y-15457448D01*
X5203674Y-15447924D01*
X5184626Y-15438401D01*
X5460816Y-15552686D02*
X5460816Y-15352686D01*
X5546531Y-15552686D02*
X5546531Y-15447924D01*
X5537007Y-15428877D01*
X5517959Y-15419353D01*
X5489388Y-15419353D01*
X5470340Y-15428877D01*
X5460816Y-15438401D01*
X5670340Y-15552686D02*
X5651293Y-15543163D01*
X5641769Y-15533639D01*
X5632245Y-15514591D01*
X5632245Y-15457448D01*
X5641769Y-15438401D01*
X5651293Y-15428877D01*
X5670340Y-15419353D01*
X5698912Y-15419353D01*
X5717959Y-15428877D01*
X5727483Y-15438401D01*
X5737007Y-15457448D01*
X5737007Y-15514591D01*
X5727483Y-15533639D01*
X5717959Y-15543163D01*
X5698912Y-15552686D01*
X5670340Y-15552686D01*
X5851293Y-15552686D02*
X5832245Y-15543163D01*
X5822721Y-15524115D01*
X5822721Y-15352686D01*
X6003674Y-15543163D02*
X5984626Y-15552686D01*
X5946531Y-15552686D01*
X5927483Y-15543163D01*
X5917959Y-15524115D01*
X5917959Y-15447924D01*
X5927483Y-15428877D01*
X5946531Y-15419353D01*
X5984626Y-15419353D01*
X6003674Y-15428877D01*
X6013197Y-15447924D01*
X6013197Y-15466972D01*
X5917959Y-15486020D01*
X6089388Y-15543163D02*
X6108435Y-15552686D01*
X6146531Y-15552686D01*
X6165578Y-15543163D01*
X6175102Y-15524115D01*
X6175102Y-15514591D01*
X6165578Y-15495544D01*
X6146531Y-15486020D01*
X6117959Y-15486020D01*
X6098912Y-15476496D01*
X6089388Y-15457448D01*
X6089388Y-15447924D01*
X6098912Y-15428877D01*
X6117959Y-15419353D01*
X6146531Y-15419353D01*
X6165578Y-15428877D01*
X6241769Y-15628877D02*
X6251293Y-15619353D01*
X6270340Y-15590782D01*
X6279864Y-15571734D01*
X6289388Y-15543163D01*
X6298912Y-15495544D01*
X6298912Y-15457448D01*
X6289388Y-15409829D01*
X6279864Y-15381258D01*
X6270340Y-15362210D01*
X6251293Y-15333639D01*
X6241769Y-15324115D01*
X6603674Y-15628877D02*
X6594150Y-15619353D01*
X6575102Y-15590782D01*
X6565578Y-15571734D01*
X6556054Y-15543163D01*
X6546531Y-15495544D01*
X6546531Y-15457448D01*
X6556054Y-15409829D01*
X6565578Y-15381258D01*
X6575102Y-15362210D01*
X6594150Y-15333639D01*
X6603674Y-15324115D01*
X6679864Y-15419353D02*
X6679864Y-15552686D01*
X6679864Y-15438401D02*
X6689388Y-15428877D01*
X6708435Y-15419353D01*
X6737007Y-15419353D01*
X6756054Y-15428877D01*
X6765578Y-15447924D01*
X6765578Y-15552686D01*
X6889388Y-15552686D02*
X6870340Y-15543163D01*
X6860816Y-15533639D01*
X6851293Y-15514591D01*
X6851293Y-15457448D01*
X6860816Y-15438401D01*
X6870340Y-15428877D01*
X6889388Y-15419353D01*
X6917959Y-15419353D01*
X6937007Y-15428877D01*
X6946531Y-15438401D01*
X6956054Y-15457448D01*
X6956054Y-15514591D01*
X6946531Y-15533639D01*
X6937007Y-15543163D01*
X6917959Y-15552686D01*
X6889388Y-15552686D01*
X7013197Y-15419353D02*
X7089388Y-15419353D01*
X7041769Y-15352686D02*
X7041769Y-15524115D01*
X7051293Y-15543163D01*
X7070340Y-15552686D01*
X7089388Y-15552686D01*
X7308435Y-15419353D02*
X7308435Y-15619353D01*
X7308435Y-15428877D02*
X7327483Y-15419353D01*
X7365578Y-15419353D01*
X7384626Y-15428877D01*
X7394150Y-15438401D01*
X7403674Y-15457448D01*
X7403674Y-15514591D01*
X7394150Y-15533639D01*
X7384626Y-15543163D01*
X7365578Y-15552686D01*
X7327483Y-15552686D01*
X7308435Y-15543163D01*
X7517959Y-15552686D02*
X7498912Y-15543163D01*
X7489388Y-15524115D01*
X7489388Y-15352686D01*
X7679864Y-15552686D02*
X7679864Y-15447924D01*
X7670340Y-15428877D01*
X7651293Y-15419353D01*
X7613197Y-15419353D01*
X7594150Y-15428877D01*
X7679864Y-15543163D02*
X7660816Y-15552686D01*
X7613197Y-15552686D01*
X7594150Y-15543163D01*
X7584626Y-15524115D01*
X7584626Y-15505067D01*
X7594150Y-15486020D01*
X7613197Y-15476496D01*
X7660816Y-15476496D01*
X7679864Y-15466972D01*
X7746531Y-15419353D02*
X7822721Y-15419353D01*
X7775102Y-15352686D02*
X7775102Y-15524115D01*
X7784626Y-15543163D01*
X7803674Y-15552686D01*
X7822721Y-15552686D01*
X7965578Y-15543163D02*
X7946531Y-15552686D01*
X7908435Y-15552686D01*
X7889388Y-15543163D01*
X7879864Y-15524115D01*
X7879864Y-15447924D01*
X7889388Y-15428877D01*
X7908435Y-15419353D01*
X7946531Y-15419353D01*
X7965578Y-15428877D01*
X7975102Y-15447924D01*
X7975102Y-15466972D01*
X7879864Y-15486020D01*
X8146531Y-15552686D02*
X8146531Y-15352686D01*
X8146531Y-15543163D02*
X8127483Y-15552686D01*
X8089388Y-15552686D01*
X8070340Y-15543163D01*
X8060816Y-15533639D01*
X8051293Y-15514591D01*
X8051293Y-15457448D01*
X8060816Y-15438401D01*
X8070340Y-15428877D01*
X8089388Y-15419353D01*
X8127483Y-15419353D01*
X8146531Y-15428877D01*
X8222721Y-15628877D02*
X8232245Y-15619353D01*
X8251293Y-15590782D01*
X8260816Y-15571734D01*
X8270340Y-15543163D01*
X8279864Y-15495544D01*
X8279864Y-15457448D01*
X8270340Y-15409829D01*
X8260816Y-15381258D01*
X8251293Y-15362210D01*
X8232245Y-15333639D01*
X8222721Y-15324115D01*
X1440575Y-15822922D02*
X1440575Y-15681499D01*
X1299153Y-15681499D01*
X1299153Y-15822922D01*
X1440575Y-15822922D01*
X1813197Y-15709353D02*
X1813197Y-15842686D01*
X1765578Y-15633163D02*
X1717959Y-15776020D01*
X1841769Y-15776020D01*
X1917959Y-15823639D02*
X1927483Y-15833163D01*
X1917959Y-15842686D01*
X1908435Y-15833163D01*
X1917959Y-15823639D01*
X1917959Y-15842686D01*
X2003674Y-15661734D02*
X2013197Y-15652210D01*
X2032245Y-15642686D01*
X2079864Y-15642686D01*
X2098912Y-15652210D01*
X2108436Y-15661734D01*
X2117959Y-15680782D01*
X2117959Y-15699829D01*
X2108436Y-15728401D01*
X1994150Y-15842686D01*
X2117959Y-15842686D01*
X2241769Y-15642686D02*
X2260816Y-15642686D01*
X2279864Y-15652210D01*
X2289388Y-15661734D01*
X2298912Y-15680782D01*
X2308436Y-15718877D01*
X2308436Y-15766496D01*
X2298912Y-15804591D01*
X2289388Y-15823639D01*
X2279864Y-15833163D01*
X2260816Y-15842686D01*
X2241769Y-15842686D01*
X2222721Y-15833163D01*
X2213197Y-15823639D01*
X2203674Y-15804591D01*
X2194150Y-15766496D01*
X2194150Y-15718877D01*
X2203674Y-15680782D01*
X2213197Y-15661734D01*
X2222721Y-15652210D01*
X2241769Y-15642686D01*
X2432245Y-15642686D02*
X2451293Y-15642686D01*
X2470340Y-15652210D01*
X2479864Y-15661734D01*
X2489388Y-15680782D01*
X2498912Y-15718877D01*
X2498912Y-15766496D01*
X2489388Y-15804591D01*
X2479864Y-15823639D01*
X2470340Y-15833163D01*
X2451293Y-15842686D01*
X2432245Y-15842686D01*
X2413197Y-15833163D01*
X2403674Y-15823639D01*
X2394150Y-15804591D01*
X2384626Y-15766496D01*
X2384626Y-15718877D01*
X2394150Y-15680782D01*
X2403674Y-15661734D01*
X2413197Y-15652210D01*
X2432245Y-15642686D01*
X2584626Y-15842686D02*
X2584626Y-15709353D01*
X2584626Y-15728401D02*
X2594150Y-15718877D01*
X2613197Y-15709353D01*
X2641769Y-15709353D01*
X2660816Y-15718877D01*
X2670340Y-15737924D01*
X2670340Y-15842686D01*
X2670340Y-15737924D02*
X2679864Y-15718877D01*
X2698912Y-15709353D01*
X2727483Y-15709353D01*
X2746531Y-15718877D01*
X2756055Y-15737924D01*
X2756055Y-15842686D01*
X2851293Y-15842686D02*
X2851293Y-15709353D01*
X2851293Y-15728401D02*
X2860816Y-15718877D01*
X2879864Y-15709353D01*
X2908435Y-15709353D01*
X2927483Y-15718877D01*
X2937007Y-15737924D01*
X2937007Y-15842686D01*
X2937007Y-15737924D02*
X2946531Y-15718877D01*
X2965578Y-15709353D01*
X2994150Y-15709353D01*
X3013197Y-15718877D01*
X3022721Y-15737924D01*
X3022721Y-15842686D01*
X3413197Y-15633163D02*
X3241769Y-15890305D01*
X3670340Y-15642686D02*
X3689388Y-15642686D01*
X3708435Y-15652210D01*
X3717959Y-15661734D01*
X3727483Y-15680782D01*
X3737007Y-15718877D01*
X3737007Y-15766496D01*
X3727483Y-15804591D01*
X3717959Y-15823639D01*
X3708435Y-15833163D01*
X3689388Y-15842686D01*
X3670340Y-15842686D01*
X3651293Y-15833163D01*
X3641769Y-15823639D01*
X3632245Y-15804591D01*
X3622721Y-15766496D01*
X3622721Y-15718877D01*
X3632245Y-15680782D01*
X3641769Y-15661734D01*
X3651293Y-15652210D01*
X3670340Y-15642686D01*
X3822721Y-15823639D02*
X3832245Y-15833163D01*
X3822721Y-15842686D01*
X3813197Y-15833163D01*
X3822721Y-15823639D01*
X3822721Y-15842686D01*
X4022721Y-15842686D02*
X3908435Y-15842686D01*
X3965578Y-15842686D02*
X3965578Y-15642686D01*
X3946531Y-15671258D01*
X3927483Y-15690305D01*
X3908435Y-15699829D01*
X4194150Y-15642686D02*
X4156054Y-15642686D01*
X4137007Y-15652210D01*
X4127483Y-15661734D01*
X4108435Y-15690305D01*
X4098912Y-15728401D01*
X4098912Y-15804591D01*
X4108435Y-15823639D01*
X4117959Y-15833163D01*
X4137007Y-15842686D01*
X4175102Y-15842686D01*
X4194150Y-15833163D01*
X4203674Y-15823639D01*
X4213197Y-15804591D01*
X4213197Y-15756972D01*
X4203674Y-15737924D01*
X4194150Y-15728401D01*
X4175102Y-15718877D01*
X4137007Y-15718877D01*
X4117959Y-15728401D01*
X4108435Y-15737924D01*
X4098912Y-15756972D01*
X4394150Y-15642686D02*
X4298912Y-15642686D01*
X4289388Y-15737924D01*
X4298912Y-15728401D01*
X4317959Y-15718877D01*
X4365578Y-15718877D01*
X4384626Y-15728401D01*
X4394150Y-15737924D01*
X4403674Y-15756972D01*
X4403674Y-15804591D01*
X4394150Y-15823639D01*
X4384626Y-15833163D01*
X4365578Y-15842686D01*
X4317959Y-15842686D01*
X4298912Y-15833163D01*
X4289388Y-15823639D01*
X4575102Y-15709353D02*
X4575102Y-15842686D01*
X4527483Y-15633163D02*
X4479864Y-15776020D01*
X4603674Y-15776020D01*
X4670340Y-15642686D02*
X4670340Y-15680782D01*
X4746531Y-15642686D02*
X4746531Y-15680782D01*
X5041769Y-15918877D02*
X5032245Y-15909353D01*
X5013197Y-15880782D01*
X5003674Y-15861734D01*
X4994150Y-15833163D01*
X4984626Y-15785544D01*
X4984626Y-15747448D01*
X4994150Y-15699829D01*
X5003674Y-15671258D01*
X5013197Y-15652210D01*
X5032245Y-15623639D01*
X5041769Y-15614115D01*
X5156055Y-15642686D02*
X5175102Y-15642686D01*
X5194150Y-15652210D01*
X5203674Y-15661734D01*
X5213197Y-15680782D01*
X5222721Y-15718877D01*
X5222721Y-15766496D01*
X5213197Y-15804591D01*
X5203674Y-15823639D01*
X5194150Y-15833163D01*
X5175102Y-15842686D01*
X5156055Y-15842686D01*
X5137007Y-15833163D01*
X5127483Y-15823639D01*
X5117959Y-15804591D01*
X5108436Y-15766496D01*
X5108436Y-15718877D01*
X5117959Y-15680782D01*
X5127483Y-15661734D01*
X5137007Y-15652210D01*
X5156055Y-15642686D01*
X5460816Y-15842686D02*
X5460816Y-15642686D01*
X5546531Y-15842686D02*
X5546531Y-15737924D01*
X5537007Y-15718877D01*
X5517959Y-15709353D01*
X5489388Y-15709353D01*
X5470340Y-15718877D01*
X5460816Y-15728401D01*
X5670340Y-15842686D02*
X5651293Y-15833163D01*
X5641769Y-15823639D01*
X5632245Y-15804591D01*
X5632245Y-15747448D01*
X5641769Y-15728401D01*
X5651293Y-15718877D01*
X5670340Y-15709353D01*
X5698912Y-15709353D01*
X5717959Y-15718877D01*
X5727483Y-15728401D01*
X5737007Y-15747448D01*
X5737007Y-15804591D01*
X5727483Y-15823639D01*
X5717959Y-15833163D01*
X5698912Y-15842686D01*
X5670340Y-15842686D01*
X5851293Y-15842686D02*
X5832245Y-15833163D01*
X5822721Y-15814115D01*
X5822721Y-15642686D01*
X6003674Y-15833163D02*
X5984626Y-15842686D01*
X5946531Y-15842686D01*
X5927483Y-15833163D01*
X5917959Y-15814115D01*
X5917959Y-15737924D01*
X5927483Y-15718877D01*
X5946531Y-15709353D01*
X5984626Y-15709353D01*
X6003674Y-15718877D01*
X6013197Y-15737924D01*
X6013197Y-15756972D01*
X5917959Y-15776020D01*
X6089388Y-15833163D02*
X6108435Y-15842686D01*
X6146531Y-15842686D01*
X6165578Y-15833163D01*
X6175102Y-15814115D01*
X6175102Y-15804591D01*
X6165578Y-15785544D01*
X6146531Y-15776020D01*
X6117959Y-15776020D01*
X6098912Y-15766496D01*
X6089388Y-15747448D01*
X6089388Y-15737924D01*
X6098912Y-15718877D01*
X6117959Y-15709353D01*
X6146531Y-15709353D01*
X6165578Y-15718877D01*
X6413197Y-15766496D02*
X6565578Y-15766496D01*
X6489388Y-15842686D02*
X6489388Y-15690305D01*
X6898912Y-15642686D02*
X6860816Y-15642686D01*
X6841769Y-15652210D01*
X6832245Y-15661734D01*
X6813197Y-15690305D01*
X6803674Y-15728401D01*
X6803674Y-15804591D01*
X6813197Y-15823639D01*
X6822721Y-15833163D01*
X6841769Y-15842686D01*
X6879864Y-15842686D01*
X6898912Y-15833163D01*
X6908435Y-15823639D01*
X6917959Y-15804591D01*
X6917959Y-15756972D01*
X6908435Y-15737924D01*
X6898912Y-15728401D01*
X6879864Y-15718877D01*
X6841769Y-15718877D01*
X6822721Y-15728401D01*
X6813197Y-15737924D01*
X6803674Y-15756972D01*
X7146531Y-15833163D02*
X7165578Y-15842686D01*
X7203674Y-15842686D01*
X7222721Y-15833163D01*
X7232245Y-15814115D01*
X7232245Y-15804591D01*
X7222721Y-15785544D01*
X7203674Y-15776020D01*
X7175102Y-15776020D01*
X7156054Y-15766496D01*
X7146531Y-15747448D01*
X7146531Y-15737924D01*
X7156054Y-15718877D01*
X7175102Y-15709353D01*
X7203674Y-15709353D01*
X7222721Y-15718877D01*
X7346531Y-15842686D02*
X7327483Y-15833163D01*
X7317959Y-15814115D01*
X7317959Y-15642686D01*
X7451293Y-15842686D02*
X7432245Y-15833163D01*
X7422721Y-15823639D01*
X7413197Y-15804591D01*
X7413197Y-15747448D01*
X7422721Y-15728401D01*
X7432245Y-15718877D01*
X7451293Y-15709353D01*
X7479864Y-15709353D01*
X7498912Y-15718877D01*
X7508435Y-15728401D01*
X7517959Y-15747448D01*
X7517959Y-15804591D01*
X7508435Y-15823639D01*
X7498912Y-15833163D01*
X7479864Y-15842686D01*
X7451293Y-15842686D01*
X7575102Y-15709353D02*
X7651293Y-15709353D01*
X7603674Y-15642686D02*
X7603674Y-15814115D01*
X7613197Y-15833163D01*
X7632245Y-15842686D01*
X7651293Y-15842686D01*
X7708435Y-15833163D02*
X7727483Y-15842686D01*
X7765578Y-15842686D01*
X7784626Y-15833163D01*
X7794150Y-15814115D01*
X7794150Y-15804591D01*
X7784626Y-15785544D01*
X7765578Y-15776020D01*
X7737007Y-15776020D01*
X7717959Y-15766496D01*
X7708435Y-15747448D01*
X7708435Y-15737924D01*
X7717959Y-15718877D01*
X7737007Y-15709353D01*
X7765578Y-15709353D01*
X7784626Y-15718877D01*
X7860816Y-15918877D02*
X7870340Y-15909353D01*
X7889388Y-15880782D01*
X7898912Y-15861734D01*
X7908435Y-15833163D01*
X7917959Y-15785544D01*
X7917959Y-15747448D01*
X7908435Y-15699829D01*
X7898912Y-15671258D01*
X7889388Y-15652210D01*
X7870340Y-15623639D01*
X7860816Y-15614115D01*
X8222721Y-15918877D02*
X8213197Y-15909353D01*
X8194150Y-15880782D01*
X8184626Y-15861734D01*
X8175102Y-15833163D01*
X8165578Y-15785544D01*
X8165578Y-15747448D01*
X8175102Y-15699829D01*
X8184626Y-15671258D01*
X8194150Y-15652210D01*
X8213197Y-15623639D01*
X8222721Y-15614115D01*
X8298912Y-15709353D02*
X8298912Y-15842686D01*
X8298912Y-15728401D02*
X8308435Y-15718877D01*
X8327483Y-15709353D01*
X8356054Y-15709353D01*
X8375102Y-15718877D01*
X8384626Y-15737924D01*
X8384626Y-15842686D01*
X8508436Y-15842686D02*
X8489388Y-15833163D01*
X8479864Y-15823639D01*
X8470340Y-15804591D01*
X8470340Y-15747448D01*
X8479864Y-15728401D01*
X8489388Y-15718877D01*
X8508436Y-15709353D01*
X8537007Y-15709353D01*
X8556055Y-15718877D01*
X8565578Y-15728401D01*
X8575102Y-15747448D01*
X8575102Y-15804591D01*
X8565578Y-15823639D01*
X8556055Y-15833163D01*
X8537007Y-15842686D01*
X8508436Y-15842686D01*
X8632245Y-15709353D02*
X8708436Y-15709353D01*
X8660816Y-15642686D02*
X8660816Y-15814115D01*
X8670340Y-15833163D01*
X8689388Y-15842686D01*
X8708436Y-15842686D01*
X8927483Y-15709353D02*
X8927483Y-15909353D01*
X8927483Y-15718877D02*
X8946531Y-15709353D01*
X8984626Y-15709353D01*
X9003674Y-15718877D01*
X9013197Y-15728401D01*
X9022721Y-15747448D01*
X9022721Y-15804591D01*
X9013197Y-15823639D01*
X9003674Y-15833163D01*
X8984626Y-15842686D01*
X8946531Y-15842686D01*
X8927483Y-15833163D01*
X9137007Y-15842686D02*
X9117959Y-15833163D01*
X9108436Y-15814115D01*
X9108436Y-15642686D01*
X9298912Y-15842686D02*
X9298912Y-15737924D01*
X9289388Y-15718877D01*
X9270340Y-15709353D01*
X9232245Y-15709353D01*
X9213197Y-15718877D01*
X9298912Y-15833163D02*
X9279864Y-15842686D01*
X9232245Y-15842686D01*
X9213197Y-15833163D01*
X9203674Y-15814115D01*
X9203674Y-15795067D01*
X9213197Y-15776020D01*
X9232245Y-15766496D01*
X9279864Y-15766496D01*
X9298912Y-15756972D01*
X9365578Y-15709353D02*
X9441769Y-15709353D01*
X9394150Y-15642686D02*
X9394150Y-15814115D01*
X9403674Y-15833163D01*
X9422721Y-15842686D01*
X9441769Y-15842686D01*
X9584626Y-15833163D02*
X9565578Y-15842686D01*
X9527483Y-15842686D01*
X9508436Y-15833163D01*
X9498912Y-15814115D01*
X9498912Y-15737924D01*
X9508436Y-15718877D01*
X9527483Y-15709353D01*
X9565578Y-15709353D01*
X9584626Y-15718877D01*
X9594150Y-15737924D01*
X9594150Y-15756972D01*
X9498912Y-15776020D01*
X9765578Y-15842686D02*
X9765578Y-15642686D01*
X9765578Y-15833163D02*
X9746531Y-15842686D01*
X9708436Y-15842686D01*
X9689388Y-15833163D01*
X9679864Y-15823639D01*
X9670340Y-15804591D01*
X9670340Y-15747448D01*
X9679864Y-15728401D01*
X9689388Y-15718877D01*
X9708436Y-15709353D01*
X9746531Y-15709353D01*
X9765578Y-15718877D01*
X9841769Y-15918877D02*
X9851293Y-15909353D01*
X9870340Y-15880782D01*
X9879864Y-15861734D01*
X9889388Y-15833163D01*
X9898912Y-15785544D01*
X9898912Y-15747448D01*
X9889388Y-15699829D01*
X9879864Y-15671258D01*
X9870340Y-15652210D01*
X9851293Y-15623639D01*
X9841769Y-15614115D01*
X1369864Y-16172210D02*
X1469864Y-16072210D01*
X1369864Y-15972210D01*
X1269864Y-16072210D01*
X1369864Y-16172210D01*
X1813197Y-16029353D02*
X1813197Y-16162686D01*
X1765578Y-15953163D02*
X1717959Y-16096020D01*
X1841769Y-16096020D01*
X1917959Y-16143639D02*
X1927483Y-16153163D01*
X1917959Y-16162686D01*
X1908435Y-16153163D01*
X1917959Y-16143639D01*
X1917959Y-16162686D01*
X2022721Y-16162686D02*
X2060816Y-16162686D01*
X2079864Y-16153163D01*
X2089388Y-16143639D01*
X2108436Y-16115067D01*
X2117959Y-16076972D01*
X2117959Y-16000782D01*
X2108436Y-15981734D01*
X2098912Y-15972210D01*
X2079864Y-15962686D01*
X2041769Y-15962686D01*
X2022721Y-15972210D01*
X2013197Y-15981734D01*
X2003674Y-16000782D01*
X2003674Y-16048401D01*
X2013197Y-16067448D01*
X2022721Y-16076972D01*
X2041769Y-16086496D01*
X2079864Y-16086496D01*
X2098912Y-16076972D01*
X2108436Y-16067448D01*
X2117959Y-16048401D01*
X2241769Y-15962686D02*
X2260816Y-15962686D01*
X2279864Y-15972210D01*
X2289388Y-15981734D01*
X2298912Y-16000782D01*
X2308436Y-16038877D01*
X2308436Y-16086496D01*
X2298912Y-16124591D01*
X2289388Y-16143639D01*
X2279864Y-16153163D01*
X2260816Y-16162686D01*
X2241769Y-16162686D01*
X2222721Y-16153163D01*
X2213197Y-16143639D01*
X2203674Y-16124591D01*
X2194150Y-16086496D01*
X2194150Y-16038877D01*
X2203674Y-16000782D01*
X2213197Y-15981734D01*
X2222721Y-15972210D01*
X2241769Y-15962686D01*
X2432245Y-15962686D02*
X2451293Y-15962686D01*
X2470340Y-15972210D01*
X2479864Y-15981734D01*
X2489388Y-16000782D01*
X2498912Y-16038877D01*
X2498912Y-16086496D01*
X2489388Y-16124591D01*
X2479864Y-16143639D01*
X2470340Y-16153163D01*
X2451293Y-16162686D01*
X2432245Y-16162686D01*
X2413197Y-16153163D01*
X2403674Y-16143639D01*
X2394150Y-16124591D01*
X2384626Y-16086496D01*
X2384626Y-16038877D01*
X2394150Y-16000782D01*
X2403674Y-15981734D01*
X2413197Y-15972210D01*
X2432245Y-15962686D01*
X2584626Y-16162686D02*
X2584626Y-16029353D01*
X2584626Y-16048401D02*
X2594150Y-16038877D01*
X2613197Y-16029353D01*
X2641769Y-16029353D01*
X2660816Y-16038877D01*
X2670340Y-16057924D01*
X2670340Y-16162686D01*
X2670340Y-16057924D02*
X2679864Y-16038877D01*
X2698912Y-16029353D01*
X2727483Y-16029353D01*
X2746531Y-16038877D01*
X2756055Y-16057924D01*
X2756055Y-16162686D01*
X2851293Y-16162686D02*
X2851293Y-16029353D01*
X2851293Y-16048401D02*
X2860816Y-16038877D01*
X2879864Y-16029353D01*
X2908435Y-16029353D01*
X2927483Y-16038877D01*
X2937007Y-16057924D01*
X2937007Y-16162686D01*
X2937007Y-16057924D02*
X2946531Y-16038877D01*
X2965578Y-16029353D01*
X2994150Y-16029353D01*
X3013197Y-16038877D01*
X3022721Y-16057924D01*
X3022721Y-16162686D01*
X3413197Y-15953163D02*
X3241769Y-16210305D01*
X3670340Y-15962686D02*
X3689388Y-15962686D01*
X3708435Y-15972210D01*
X3717959Y-15981734D01*
X3727483Y-16000782D01*
X3737007Y-16038877D01*
X3737007Y-16086496D01*
X3727483Y-16124591D01*
X3717959Y-16143639D01*
X3708435Y-16153163D01*
X3689388Y-16162686D01*
X3670340Y-16162686D01*
X3651293Y-16153163D01*
X3641769Y-16143639D01*
X3632245Y-16124591D01*
X3622721Y-16086496D01*
X3622721Y-16038877D01*
X3632245Y-16000782D01*
X3641769Y-15981734D01*
X3651293Y-15972210D01*
X3670340Y-15962686D01*
X3822721Y-16143639D02*
X3832245Y-16153163D01*
X3822721Y-16162686D01*
X3813197Y-16153163D01*
X3822721Y-16143639D01*
X3822721Y-16162686D01*
X4022721Y-16162686D02*
X3908435Y-16162686D01*
X3965578Y-16162686D02*
X3965578Y-15962686D01*
X3946531Y-15991258D01*
X3927483Y-16010305D01*
X3908435Y-16019829D01*
X4117959Y-16162686D02*
X4156054Y-16162686D01*
X4175102Y-16153163D01*
X4184626Y-16143639D01*
X4203674Y-16115067D01*
X4213197Y-16076972D01*
X4213197Y-16000782D01*
X4203674Y-15981734D01*
X4194150Y-15972210D01*
X4175102Y-15962686D01*
X4137007Y-15962686D01*
X4117959Y-15972210D01*
X4108435Y-15981734D01*
X4098912Y-16000782D01*
X4098912Y-16048401D01*
X4108435Y-16067448D01*
X4117959Y-16076972D01*
X4137007Y-16086496D01*
X4175102Y-16086496D01*
X4194150Y-16076972D01*
X4203674Y-16067448D01*
X4213197Y-16048401D01*
X4289388Y-15981734D02*
X4298912Y-15972210D01*
X4317959Y-15962686D01*
X4365578Y-15962686D01*
X4384626Y-15972210D01*
X4394150Y-15981734D01*
X4403674Y-16000782D01*
X4403674Y-16019829D01*
X4394150Y-16048401D01*
X4279864Y-16162686D01*
X4403674Y-16162686D01*
X4498912Y-16162686D02*
X4537007Y-16162686D01*
X4556055Y-16153163D01*
X4565578Y-16143639D01*
X4584626Y-16115067D01*
X4594150Y-16076972D01*
X4594150Y-16000782D01*
X4584626Y-15981734D01*
X4575102Y-15972210D01*
X4556055Y-15962686D01*
X4517959Y-15962686D01*
X4498912Y-15972210D01*
X4489388Y-15981734D01*
X4479864Y-16000782D01*
X4479864Y-16048401D01*
X4489388Y-16067448D01*
X4498912Y-16076972D01*
X4517959Y-16086496D01*
X4556055Y-16086496D01*
X4575102Y-16076972D01*
X4584626Y-16067448D01*
X4594150Y-16048401D01*
X4670340Y-15962686D02*
X4670340Y-16000782D01*
X4746531Y-15962686D02*
X4746531Y-16000782D01*
X5041769Y-16238877D02*
X5032245Y-16229353D01*
X5013197Y-16200782D01*
X5003674Y-16181734D01*
X4994150Y-16153163D01*
X4984626Y-16105544D01*
X4984626Y-16067448D01*
X4994150Y-16019829D01*
X5003674Y-15991258D01*
X5013197Y-15972210D01*
X5032245Y-15943639D01*
X5041769Y-15934115D01*
X5203674Y-16029353D02*
X5203674Y-16162686D01*
X5156055Y-15953163D02*
X5108436Y-16096020D01*
X5232245Y-16096020D01*
X5460816Y-16162686D02*
X5460816Y-15962686D01*
X5546531Y-16162686D02*
X5546531Y-16057924D01*
X5537007Y-16038877D01*
X5517959Y-16029353D01*
X5489388Y-16029353D01*
X5470340Y-16038877D01*
X5460816Y-16048401D01*
X5670340Y-16162686D02*
X5651293Y-16153163D01*
X5641769Y-16143639D01*
X5632245Y-16124591D01*
X5632245Y-16067448D01*
X5641769Y-16048401D01*
X5651293Y-16038877D01*
X5670340Y-16029353D01*
X5698912Y-16029353D01*
X5717959Y-16038877D01*
X5727483Y-16048401D01*
X5737007Y-16067448D01*
X5737007Y-16124591D01*
X5727483Y-16143639D01*
X5717959Y-16153163D01*
X5698912Y-16162686D01*
X5670340Y-16162686D01*
X5851293Y-16162686D02*
X5832245Y-16153163D01*
X5822721Y-16134115D01*
X5822721Y-15962686D01*
X6003674Y-16153163D02*
X5984626Y-16162686D01*
X5946531Y-16162686D01*
X5927483Y-16153163D01*
X5917959Y-16134115D01*
X5917959Y-16057924D01*
X5927483Y-16038877D01*
X5946531Y-16029353D01*
X5984626Y-16029353D01*
X6003674Y-16038877D01*
X6013197Y-16057924D01*
X6013197Y-16076972D01*
X5917959Y-16096020D01*
X6089388Y-16153163D02*
X6108435Y-16162686D01*
X6146531Y-16162686D01*
X6165578Y-16153163D01*
X6175102Y-16134115D01*
X6175102Y-16124591D01*
X6165578Y-16105544D01*
X6146531Y-16096020D01*
X6117959Y-16096020D01*
X6098912Y-16086496D01*
X6089388Y-16067448D01*
X6089388Y-16057924D01*
X6098912Y-16038877D01*
X6117959Y-16029353D01*
X6146531Y-16029353D01*
X6165578Y-16038877D01*
X6241769Y-16238877D02*
X6251293Y-16229353D01*
X6270340Y-16200782D01*
X6279864Y-16181734D01*
X6289388Y-16153163D01*
X6298912Y-16105544D01*
X6298912Y-16067448D01*
X6289388Y-16019829D01*
X6279864Y-15991258D01*
X6270340Y-15972210D01*
X6251293Y-15943639D01*
X6241769Y-15934115D01*
X6603674Y-16238877D02*
X6594150Y-16229353D01*
X6575102Y-16200782D01*
X6565578Y-16181734D01*
X6556054Y-16153163D01*
X6546531Y-16105544D01*
X6546531Y-16067448D01*
X6556054Y-16019829D01*
X6565578Y-15991258D01*
X6575102Y-15972210D01*
X6594150Y-15943639D01*
X6603674Y-15934115D01*
X6679864Y-16029353D02*
X6679864Y-16162686D01*
X6679864Y-16048401D02*
X6689388Y-16038877D01*
X6708435Y-16029353D01*
X6737007Y-16029353D01*
X6756054Y-16038877D01*
X6765578Y-16057924D01*
X6765578Y-16162686D01*
X6889388Y-16162686D02*
X6870340Y-16153163D01*
X6860816Y-16143639D01*
X6851293Y-16124591D01*
X6851293Y-16067448D01*
X6860816Y-16048401D01*
X6870340Y-16038877D01*
X6889388Y-16029353D01*
X6917959Y-16029353D01*
X6937007Y-16038877D01*
X6946531Y-16048401D01*
X6956054Y-16067448D01*
X6956054Y-16124591D01*
X6946531Y-16143639D01*
X6937007Y-16153163D01*
X6917959Y-16162686D01*
X6889388Y-16162686D01*
X7013197Y-16029353D02*
X7089388Y-16029353D01*
X7041769Y-15962686D02*
X7041769Y-16134115D01*
X7051293Y-16153163D01*
X7070340Y-16162686D01*
X7089388Y-16162686D01*
X7308435Y-16029353D02*
X7308435Y-16229353D01*
X7308435Y-16038877D02*
X7327483Y-16029353D01*
X7365578Y-16029353D01*
X7384626Y-16038877D01*
X7394150Y-16048401D01*
X7403674Y-16067448D01*
X7403674Y-16124591D01*
X7394150Y-16143639D01*
X7384626Y-16153163D01*
X7365578Y-16162686D01*
X7327483Y-16162686D01*
X7308435Y-16153163D01*
X7517959Y-16162686D02*
X7498912Y-16153163D01*
X7489388Y-16134115D01*
X7489388Y-15962686D01*
X7679864Y-16162686D02*
X7679864Y-16057924D01*
X7670340Y-16038877D01*
X7651293Y-16029353D01*
X7613197Y-16029353D01*
X7594150Y-16038877D01*
X7679864Y-16153163D02*
X7660816Y-16162686D01*
X7613197Y-16162686D01*
X7594150Y-16153163D01*
X7584626Y-16134115D01*
X7584626Y-16115067D01*
X7594150Y-16096020D01*
X7613197Y-16086496D01*
X7660816Y-16086496D01*
X7679864Y-16076972D01*
X7746531Y-16029353D02*
X7822721Y-16029353D01*
X7775102Y-15962686D02*
X7775102Y-16134115D01*
X7784626Y-16153163D01*
X7803674Y-16162686D01*
X7822721Y-16162686D01*
X7965578Y-16153163D02*
X7946531Y-16162686D01*
X7908435Y-16162686D01*
X7889388Y-16153163D01*
X7879864Y-16134115D01*
X7879864Y-16057924D01*
X7889388Y-16038877D01*
X7908435Y-16029353D01*
X7946531Y-16029353D01*
X7965578Y-16038877D01*
X7975102Y-16057924D01*
X7975102Y-16076972D01*
X7879864Y-16096020D01*
X8146531Y-16162686D02*
X8146531Y-15962686D01*
X8146531Y-16153163D02*
X8127483Y-16162686D01*
X8089388Y-16162686D01*
X8070340Y-16153163D01*
X8060816Y-16143639D01*
X8051293Y-16124591D01*
X8051293Y-16067448D01*
X8060816Y-16048401D01*
X8070340Y-16038877D01*
X8089388Y-16029353D01*
X8127483Y-16029353D01*
X8146531Y-16038877D01*
X8222721Y-16238877D02*
X8232245Y-16229353D01*
X8251293Y-16200782D01*
X8260816Y-16181734D01*
X8270340Y-16153163D01*
X8279864Y-16105544D01*
X8279864Y-16067448D01*
X8270340Y-16019829D01*
X8260816Y-15991258D01*
X8251293Y-15972210D01*
X8232245Y-15943639D01*
X8222721Y-15934115D01*
M02*
