%TF.GenerationSoftware,KiCad,Pcbnew,(6.0.11-0)*%
%TF.CreationDate,2023-02-07T21:04:21+09:00*%
%TF.ProjectId,pangaea-bottom-thumb-k2_leftcut4keys,70616e67-6165-4612-9d62-6f74746f6d2d,1*%
%TF.SameCoordinates,Original*%
%TF.FileFunction,Drillmap*%
%TF.FilePolarity,Positive*%
%FSLAX45Y45*%
G04 Gerber Fmt 4.5, Leading zero omitted, Abs format (unit mm)*
G04 Created by KiCad (PCBNEW (6.0.11-0)) date 2023-02-07 21:04:21*
%MOMM*%
%LPD*%
G01*
G04 APERTURE LIST*
%ADD10C,0.150000*%
%ADD11C,0.200000*%
%ADD12C,0.128000*%
G04 APERTURE END LIST*
D10*
X10262563Y-3011154D02*
G75*
G03*
X5115546Y-3010870I-2574223J-12955286D01*
G01*
X10619290Y-4417782D02*
G75*
G03*
X10718766Y-4441106I50710J-7518D01*
G01*
X5023590Y-2946485D02*
G75*
G03*
X5115546Y-3010870I78170J13785D01*
G01*
X10886479Y-3768044D02*
G75*
G03*
X10983692Y-3711920I20542J76674D01*
G01*
X12935334Y-3922317D02*
X12333571Y-5574429D01*
X10741462Y-3032481D02*
G75*
G03*
X10797594Y-3129696I76678J-20539D01*
G01*
X10262563Y-3011153D02*
G75*
G03*
X10354515Y-2946768I13787J78163D01*
G01*
X12233606Y-5612252D02*
G75*
G03*
X12333571Y-5574429I31314J68252D01*
G01*
X10755004Y-3650644D02*
G75*
G03*
X10811136Y-3747859I76666J-20546D01*
G01*
X12233606Y-5612253D02*
G75*
G03*
X10665640Y-5059783I-4555166J-10426777D01*
G01*
X11064794Y-3490362D02*
G75*
G03*
X11008672Y-3393149I-76674J20542D01*
G01*
X10619289Y-4417781D02*
X10691519Y-4007368D01*
X5023593Y-2946485D02*
G75*
G03*
X4636641Y-3032199I-191987J-49579D01*
G01*
X10741461Y-3032481D02*
G75*
G03*
X10354515Y-2946768I-194901J36411D01*
G01*
X10811136Y-3747859D02*
X10886478Y-3768047D01*
X10718766Y-4441106D02*
X10860314Y-4052596D01*
X10892762Y-3362087D02*
G75*
G03*
X10795547Y-3418217I-20542J-76673D01*
G01*
X10366266Y-4983892D02*
G75*
G03*
X10665640Y-5059783I180304J82832D01*
G01*
X10860316Y-4052596D02*
G75*
G03*
X10804188Y-3955382I-76666J20546D01*
G01*
X10892761Y-3362091D02*
X11008672Y-3393149D01*
X10983692Y-3711920D02*
X11064799Y-3490363D01*
X10795547Y-3418217D02*
X10755009Y-3650645D01*
X10788733Y-3951241D02*
X10804188Y-3955382D01*
X4857578Y-4940956D02*
G75*
G03*
X4954796Y-4997082I76672J20546D01*
G01*
X10366266Y-4983892D02*
G75*
G03*
X4954796Y-4998153I-2676639J-11047180D01*
G01*
X4580514Y-3129410D02*
G75*
G03*
X4636641Y-3032199I-20544J76670D01*
G01*
X10788734Y-3951239D02*
G75*
G03*
X10691519Y-4007368I-20544J-76671D01*
G01*
X12894702Y-3827518D02*
G75*
G03*
X10797594Y-3129696I-5189942J-12096872D01*
G01*
X4857582Y-4942153D02*
X4528689Y-3166735D01*
X12935328Y-3922315D02*
G75*
G03*
X12894703Y-3827518I-75158J23895D01*
G01*
X4580515Y-3129413D02*
G75*
G03*
X4528689Y-3166735I19936J-82327D01*
G01*
D11*
D12*
X4756000Y-3473000D02*
X4884000Y-3601000D01*
X4884000Y-3473000D02*
X4756000Y-3601000D01*
X5079000Y-4683000D02*
X5207000Y-4811000D01*
X5207000Y-4683000D02*
X5079000Y-4811000D01*
X7105000Y-4404000D02*
X7233000Y-4532000D01*
X7233000Y-4404000D02*
X7105000Y-4532000D01*
X8198000Y-4428000D02*
X8326000Y-4556000D01*
X8326000Y-4428000D02*
X8198000Y-4556000D01*
X9045000Y-4505000D02*
X9173000Y-4633000D01*
X9173000Y-4505000D02*
X9045000Y-4633000D01*
X11247638Y-3444192D02*
X11375638Y-3572192D01*
X11375638Y-3444192D02*
X11247638Y-3572192D01*
X12101730Y-5275766D02*
X12229730Y-5403766D01*
X12229730Y-5275766D02*
X12101730Y-5403766D01*
X12590302Y-3933100D02*
X12718302Y-4061100D01*
X12718302Y-3933100D02*
X12590302Y-4061100D01*
D11*
X4778808Y-5937068D02*
X4778808Y-5737068D01*
X4826427Y-5737068D01*
X4854998Y-5746592D01*
X4874046Y-5765640D01*
X4883570Y-5784688D01*
X4893094Y-5822783D01*
X4893094Y-5851354D01*
X4883570Y-5889449D01*
X4874046Y-5908497D01*
X4854998Y-5927545D01*
X4826427Y-5937068D01*
X4778808Y-5937068D01*
X4978808Y-5937068D02*
X4978808Y-5803735D01*
X4978808Y-5841830D02*
X4988332Y-5822783D01*
X4997855Y-5813259D01*
X5016903Y-5803735D01*
X5035951Y-5803735D01*
X5102617Y-5937068D02*
X5102617Y-5803735D01*
X5102617Y-5737068D02*
X5093094Y-5746592D01*
X5102617Y-5756116D01*
X5112141Y-5746592D01*
X5102617Y-5737068D01*
X5102617Y-5756116D01*
X5226427Y-5937068D02*
X5207379Y-5927545D01*
X5197855Y-5908497D01*
X5197855Y-5737068D01*
X5331189Y-5937068D02*
X5312141Y-5927545D01*
X5302617Y-5908497D01*
X5302617Y-5737068D01*
X5559760Y-5937068D02*
X5559760Y-5737068D01*
X5626427Y-5879926D01*
X5693093Y-5737068D01*
X5693093Y-5937068D01*
X5874046Y-5937068D02*
X5874046Y-5832307D01*
X5864522Y-5813259D01*
X5845474Y-5803735D01*
X5807379Y-5803735D01*
X5788332Y-5813259D01*
X5874046Y-5927545D02*
X5854998Y-5937068D01*
X5807379Y-5937068D01*
X5788332Y-5927545D01*
X5778808Y-5908497D01*
X5778808Y-5889449D01*
X5788332Y-5870402D01*
X5807379Y-5860878D01*
X5854998Y-5860878D01*
X5874046Y-5851354D01*
X5969284Y-5803735D02*
X5969284Y-6003735D01*
X5969284Y-5813259D02*
X5988332Y-5803735D01*
X6026427Y-5803735D01*
X6045474Y-5813259D01*
X6054998Y-5822783D01*
X6064522Y-5841830D01*
X6064522Y-5898973D01*
X6054998Y-5918021D01*
X6045474Y-5927545D01*
X6026427Y-5937068D01*
X5988332Y-5937068D01*
X5969284Y-5927545D01*
X6150236Y-5918021D02*
X6159760Y-5927545D01*
X6150236Y-5937068D01*
X6140713Y-5927545D01*
X6150236Y-5918021D01*
X6150236Y-5937068D01*
X6150236Y-5813259D02*
X6159760Y-5822783D01*
X6150236Y-5832307D01*
X6140713Y-5822783D01*
X6150236Y-5813259D01*
X6150236Y-5832307D01*
D12*
X4393189Y-6202592D02*
X4521189Y-6330592D01*
X4521189Y-6202592D02*
X4393189Y-6330592D01*
D11*
X4883570Y-6357068D02*
X4769284Y-6357068D01*
X4826427Y-6357068D02*
X4826427Y-6157068D01*
X4807379Y-6185640D01*
X4788332Y-6204688D01*
X4769284Y-6214211D01*
X4969284Y-6338021D02*
X4978808Y-6347545D01*
X4969284Y-6357068D01*
X4959760Y-6347545D01*
X4969284Y-6338021D01*
X4969284Y-6357068D01*
X5054998Y-6176116D02*
X5064522Y-6166592D01*
X5083570Y-6157068D01*
X5131189Y-6157068D01*
X5150236Y-6166592D01*
X5159760Y-6176116D01*
X5169284Y-6195164D01*
X5169284Y-6214211D01*
X5159760Y-6242783D01*
X5045475Y-6357068D01*
X5169284Y-6357068D01*
X5283570Y-6242783D02*
X5264522Y-6233259D01*
X5254998Y-6223735D01*
X5245475Y-6204688D01*
X5245475Y-6195164D01*
X5254998Y-6176116D01*
X5264522Y-6166592D01*
X5283570Y-6157068D01*
X5321665Y-6157068D01*
X5340713Y-6166592D01*
X5350236Y-6176116D01*
X5359760Y-6195164D01*
X5359760Y-6204688D01*
X5350236Y-6223735D01*
X5340713Y-6233259D01*
X5321665Y-6242783D01*
X5283570Y-6242783D01*
X5264522Y-6252307D01*
X5254998Y-6261830D01*
X5245475Y-6280878D01*
X5245475Y-6318973D01*
X5254998Y-6338021D01*
X5264522Y-6347545D01*
X5283570Y-6357068D01*
X5321665Y-6357068D01*
X5340713Y-6347545D01*
X5350236Y-6338021D01*
X5359760Y-6318973D01*
X5359760Y-6280878D01*
X5350236Y-6261830D01*
X5340713Y-6252307D01*
X5321665Y-6242783D01*
X5483570Y-6157068D02*
X5502617Y-6157068D01*
X5521665Y-6166592D01*
X5531189Y-6176116D01*
X5540713Y-6195164D01*
X5550236Y-6233259D01*
X5550236Y-6280878D01*
X5540713Y-6318973D01*
X5531189Y-6338021D01*
X5521665Y-6347545D01*
X5502617Y-6357068D01*
X5483570Y-6357068D01*
X5464522Y-6347545D01*
X5454998Y-6338021D01*
X5445475Y-6318973D01*
X5435951Y-6280878D01*
X5435951Y-6233259D01*
X5445475Y-6195164D01*
X5454998Y-6176116D01*
X5464522Y-6166592D01*
X5483570Y-6157068D01*
X5635951Y-6357068D02*
X5635951Y-6223735D01*
X5635951Y-6242783D02*
X5645474Y-6233259D01*
X5664522Y-6223735D01*
X5693093Y-6223735D01*
X5712141Y-6233259D01*
X5721665Y-6252307D01*
X5721665Y-6357068D01*
X5721665Y-6252307D02*
X5731189Y-6233259D01*
X5750236Y-6223735D01*
X5778808Y-6223735D01*
X5797855Y-6233259D01*
X5807379Y-6252307D01*
X5807379Y-6357068D01*
X5902617Y-6357068D02*
X5902617Y-6223735D01*
X5902617Y-6242783D02*
X5912141Y-6233259D01*
X5931189Y-6223735D01*
X5959760Y-6223735D01*
X5978808Y-6233259D01*
X5988332Y-6252307D01*
X5988332Y-6357068D01*
X5988332Y-6252307D02*
X5997855Y-6233259D01*
X6016903Y-6223735D01*
X6045474Y-6223735D01*
X6064522Y-6233259D01*
X6074046Y-6252307D01*
X6074046Y-6357068D01*
X6464522Y-6147545D02*
X6293093Y-6404688D01*
X6721665Y-6157068D02*
X6740713Y-6157068D01*
X6759760Y-6166592D01*
X6769284Y-6176116D01*
X6778808Y-6195164D01*
X6788332Y-6233259D01*
X6788332Y-6280878D01*
X6778808Y-6318973D01*
X6769284Y-6338021D01*
X6759760Y-6347545D01*
X6740713Y-6357068D01*
X6721665Y-6357068D01*
X6702617Y-6347545D01*
X6693093Y-6338021D01*
X6683570Y-6318973D01*
X6674046Y-6280878D01*
X6674046Y-6233259D01*
X6683570Y-6195164D01*
X6693093Y-6176116D01*
X6702617Y-6166592D01*
X6721665Y-6157068D01*
X6874046Y-6338021D02*
X6883570Y-6347545D01*
X6874046Y-6357068D01*
X6864522Y-6347545D01*
X6874046Y-6338021D01*
X6874046Y-6357068D01*
X7007379Y-6157068D02*
X7026427Y-6157068D01*
X7045474Y-6166592D01*
X7054998Y-6176116D01*
X7064522Y-6195164D01*
X7074046Y-6233259D01*
X7074046Y-6280878D01*
X7064522Y-6318973D01*
X7054998Y-6338021D01*
X7045474Y-6347545D01*
X7026427Y-6357068D01*
X7007379Y-6357068D01*
X6988332Y-6347545D01*
X6978808Y-6338021D01*
X6969284Y-6318973D01*
X6959760Y-6280878D01*
X6959760Y-6233259D01*
X6969284Y-6195164D01*
X6978808Y-6176116D01*
X6988332Y-6166592D01*
X7007379Y-6157068D01*
X7254998Y-6157068D02*
X7159760Y-6157068D01*
X7150236Y-6252307D01*
X7159760Y-6242783D01*
X7178808Y-6233259D01*
X7226427Y-6233259D01*
X7245474Y-6242783D01*
X7254998Y-6252307D01*
X7264522Y-6271354D01*
X7264522Y-6318973D01*
X7254998Y-6338021D01*
X7245474Y-6347545D01*
X7226427Y-6357068D01*
X7178808Y-6357068D01*
X7159760Y-6347545D01*
X7150236Y-6338021D01*
X7388332Y-6157068D02*
X7407379Y-6157068D01*
X7426427Y-6166592D01*
X7435951Y-6176116D01*
X7445474Y-6195164D01*
X7454998Y-6233259D01*
X7454998Y-6280878D01*
X7445474Y-6318973D01*
X7435951Y-6338021D01*
X7426427Y-6347545D01*
X7407379Y-6357068D01*
X7388332Y-6357068D01*
X7369284Y-6347545D01*
X7359760Y-6338021D01*
X7350236Y-6318973D01*
X7340713Y-6280878D01*
X7340713Y-6233259D01*
X7350236Y-6195164D01*
X7359760Y-6176116D01*
X7369284Y-6166592D01*
X7388332Y-6157068D01*
X7626427Y-6223735D02*
X7626427Y-6357068D01*
X7578808Y-6147545D02*
X7531189Y-6290402D01*
X7654998Y-6290402D01*
X7721665Y-6157068D02*
X7721665Y-6195164D01*
X7797855Y-6157068D02*
X7797855Y-6195164D01*
X8093093Y-6433259D02*
X8083570Y-6423735D01*
X8064522Y-6395164D01*
X8054998Y-6376116D01*
X8045474Y-6347545D01*
X8035951Y-6299926D01*
X8035951Y-6261830D01*
X8045474Y-6214211D01*
X8054998Y-6185640D01*
X8064522Y-6166592D01*
X8083570Y-6138021D01*
X8093093Y-6128497D01*
X8197855Y-6242783D02*
X8178808Y-6233259D01*
X8169284Y-6223735D01*
X8159760Y-6204688D01*
X8159760Y-6195164D01*
X8169284Y-6176116D01*
X8178808Y-6166592D01*
X8197855Y-6157068D01*
X8235951Y-6157068D01*
X8254998Y-6166592D01*
X8264522Y-6176116D01*
X8274046Y-6195164D01*
X8274046Y-6204688D01*
X8264522Y-6223735D01*
X8254998Y-6233259D01*
X8235951Y-6242783D01*
X8197855Y-6242783D01*
X8178808Y-6252307D01*
X8169284Y-6261830D01*
X8159760Y-6280878D01*
X8159760Y-6318973D01*
X8169284Y-6338021D01*
X8178808Y-6347545D01*
X8197855Y-6357068D01*
X8235951Y-6357068D01*
X8254998Y-6347545D01*
X8264522Y-6338021D01*
X8274046Y-6318973D01*
X8274046Y-6280878D01*
X8264522Y-6261830D01*
X8254998Y-6252307D01*
X8235951Y-6242783D01*
X8512141Y-6357068D02*
X8512141Y-6157068D01*
X8597855Y-6357068D02*
X8597855Y-6252307D01*
X8588332Y-6233259D01*
X8569284Y-6223735D01*
X8540713Y-6223735D01*
X8521665Y-6233259D01*
X8512141Y-6242783D01*
X8721665Y-6357068D02*
X8702617Y-6347545D01*
X8693094Y-6338021D01*
X8683570Y-6318973D01*
X8683570Y-6261830D01*
X8693094Y-6242783D01*
X8702617Y-6233259D01*
X8721665Y-6223735D01*
X8750236Y-6223735D01*
X8769284Y-6233259D01*
X8778808Y-6242783D01*
X8788332Y-6261830D01*
X8788332Y-6318973D01*
X8778808Y-6338021D01*
X8769284Y-6347545D01*
X8750236Y-6357068D01*
X8721665Y-6357068D01*
X8902617Y-6357068D02*
X8883570Y-6347545D01*
X8874046Y-6328497D01*
X8874046Y-6157068D01*
X9054998Y-6347545D02*
X9035951Y-6357068D01*
X8997855Y-6357068D01*
X8978808Y-6347545D01*
X8969284Y-6328497D01*
X8969284Y-6252307D01*
X8978808Y-6233259D01*
X8997855Y-6223735D01*
X9035951Y-6223735D01*
X9054998Y-6233259D01*
X9064522Y-6252307D01*
X9064522Y-6271354D01*
X8969284Y-6290402D01*
X9140713Y-6347545D02*
X9159760Y-6357068D01*
X9197855Y-6357068D01*
X9216903Y-6347545D01*
X9226427Y-6328497D01*
X9226427Y-6318973D01*
X9216903Y-6299926D01*
X9197855Y-6290402D01*
X9169284Y-6290402D01*
X9150236Y-6280878D01*
X9140713Y-6261830D01*
X9140713Y-6252307D01*
X9150236Y-6233259D01*
X9169284Y-6223735D01*
X9197855Y-6223735D01*
X9216903Y-6233259D01*
X9293094Y-6433259D02*
X9302617Y-6423735D01*
X9321665Y-6395164D01*
X9331189Y-6376116D01*
X9340713Y-6347545D01*
X9350236Y-6299926D01*
X9350236Y-6261830D01*
X9340713Y-6214211D01*
X9331189Y-6185640D01*
X9321665Y-6166592D01*
X9302617Y-6138021D01*
X9293094Y-6128497D01*
M02*
