G04 #@! TF.GenerationSoftware,KiCad,Pcbnew,(6.0.11-0)*
G04 #@! TF.CreationDate,2023-02-07T21:04:24+09:00*
G04 #@! TF.ProjectId,pangaea-bottom-thumb-k2_leftcut4keys,70616e67-6165-4612-9d62-6f74746f6d2d,1*
G04 #@! TF.SameCoordinates,Original*
G04 #@! TF.FileFunction,Copper,L1,Top*
G04 #@! TF.FilePolarity,Positive*
%FSLAX46Y46*%
G04 Gerber Fmt 4.6, Leading zero omitted, Abs format (unit mm)*
G04 Created by KiCad (PCBNEW (6.0.11-0)) date 2023-02-07 21:04:24*
%MOMM*%
%LPD*%
G01*
G04 APERTURE LIST*
G04 #@! TA.AperFunction,ComponentPad*
%ADD10C,1.430000*%
G04 #@! TD*
G04 APERTURE END LIST*
D10*
X113116376Y-35081916D03*
X121657300Y-53397656D03*
X126543025Y-39970998D03*
X51430000Y-47470000D03*
X48200000Y-35370000D03*
X71690000Y-44680000D03*
X82620000Y-44920000D03*
X91090000Y-45690000D03*
G04 #@! TA.AperFunction,NonConductor*
G36*
X78060032Y-27888918D02*
G01*
X79043039Y-27897004D01*
X79045098Y-27897038D01*
X80709185Y-27937927D01*
X81195825Y-27949884D01*
X81197859Y-27949951D01*
X82666610Y-28010067D01*
X83347499Y-28037936D01*
X83349558Y-28038037D01*
X85497503Y-28161137D01*
X85499459Y-28161266D01*
X86616158Y-28243592D01*
X87645057Y-28319445D01*
X87647109Y-28319613D01*
X88567186Y-28402579D01*
X89789903Y-28512835D01*
X89791839Y-28513026D01*
X91931193Y-28741237D01*
X91933130Y-28741460D01*
X93035472Y-28877301D01*
X94068402Y-29004589D01*
X94070444Y-29004857D01*
X96201163Y-29302847D01*
X96203199Y-29303149D01*
X96897549Y-29411852D01*
X98328732Y-29635909D01*
X98330674Y-29636230D01*
X99388835Y-29819651D01*
X100450563Y-30003691D01*
X100452589Y-30004060D01*
X101574271Y-30217428D01*
X102531068Y-30399431D01*
X102553161Y-30405768D01*
X102566159Y-30410819D01*
X102569490Y-30410891D01*
X102572622Y-30412031D01*
X102577858Y-30412031D01*
X102588936Y-30413001D01*
X102651986Y-30418521D01*
X102763447Y-30428279D01*
X102768925Y-30427800D01*
X102768928Y-30427800D01*
X102940906Y-30412761D01*
X102954194Y-30411599D01*
X102959499Y-30410178D01*
X102959503Y-30410177D01*
X103094737Y-30373945D01*
X103139146Y-30362047D01*
X103312683Y-30281128D01*
X103318252Y-30277229D01*
X103465023Y-30174459D01*
X103465024Y-30174458D01*
X103469530Y-30171303D01*
X103487959Y-30152874D01*
X103550786Y-30090045D01*
X103604921Y-30035908D01*
X103625763Y-30006141D01*
X103629674Y-30000555D01*
X104185683Y-30000555D01*
X104213036Y-30226592D01*
X104279985Y-30444213D01*
X104282555Y-30449193D01*
X104282557Y-30449197D01*
X104375144Y-30628581D01*
X104384413Y-30646539D01*
X104523020Y-30827174D01*
X104527165Y-30830945D01*
X104527168Y-30830949D01*
X104639391Y-30933064D01*
X104691424Y-30980410D01*
X104696180Y-30983393D01*
X104696182Y-30983395D01*
X104879545Y-31098419D01*
X104879549Y-31098421D01*
X104884301Y-31101402D01*
X105095557Y-31186326D01*
X105318512Y-31232498D01*
X105323123Y-31232764D01*
X105323124Y-31232764D01*
X105374460Y-31235724D01*
X105374464Y-31235724D01*
X105376283Y-31235829D01*
X105523479Y-31235829D01*
X105526266Y-31235580D01*
X105526272Y-31235580D01*
X105597124Y-31229256D01*
X105692492Y-31220745D01*
X105825969Y-31184230D01*
X105906692Y-31162147D01*
X105906696Y-31162146D01*
X105912108Y-31160665D01*
X106117614Y-31062643D01*
X106302514Y-30929779D01*
X106408600Y-30820307D01*
X106457061Y-30770300D01*
X106457063Y-30770297D01*
X106460964Y-30766272D01*
X106557952Y-30621938D01*
X106584828Y-30581943D01*
X106584831Y-30581938D01*
X106587954Y-30577290D01*
X106679472Y-30368806D01*
X106714953Y-30221020D01*
X106731316Y-30152865D01*
X106731317Y-30152861D01*
X106732625Y-30147411D01*
X106738830Y-30039801D01*
X106745408Y-29925710D01*
X106745408Y-29925707D01*
X106745731Y-29920103D01*
X106718378Y-29694066D01*
X106651429Y-29476445D01*
X106613830Y-29403597D01*
X106549572Y-29279100D01*
X106549571Y-29279099D01*
X106547001Y-29274119D01*
X106408394Y-29093484D01*
X106404249Y-29089713D01*
X106404246Y-29089709D01*
X106244143Y-28944027D01*
X106239990Y-28940248D01*
X106235232Y-28937263D01*
X106051869Y-28822239D01*
X106051865Y-28822237D01*
X106047113Y-28819256D01*
X105835857Y-28734332D01*
X105612902Y-28688160D01*
X105608291Y-28687894D01*
X105608290Y-28687894D01*
X105556954Y-28684934D01*
X105556950Y-28684934D01*
X105555131Y-28684829D01*
X105407935Y-28684829D01*
X105405148Y-28685078D01*
X105405142Y-28685078D01*
X105334290Y-28691402D01*
X105238922Y-28699913D01*
X105117271Y-28733193D01*
X105024722Y-28758511D01*
X105024718Y-28758512D01*
X105019306Y-28759993D01*
X104813800Y-28858015D01*
X104628900Y-28990879D01*
X104470450Y-29154386D01*
X104467323Y-29159040D01*
X104346586Y-29338715D01*
X104346583Y-29338720D01*
X104343460Y-29343368D01*
X104251942Y-29551852D01*
X104231683Y-29636237D01*
X104201240Y-29763040D01*
X104198789Y-29773247D01*
X104197573Y-29794330D01*
X104190322Y-29920103D01*
X104185683Y-30000555D01*
X103629674Y-30000555D01*
X103711585Y-29883569D01*
X103711587Y-29883565D01*
X103714743Y-29879058D01*
X103795656Y-29705519D01*
X103836659Y-29552464D01*
X103840701Y-29543552D01*
X103841368Y-29534887D01*
X103843868Y-29525553D01*
X103845654Y-29520645D01*
X103845654Y-29517234D01*
X103847148Y-29509888D01*
X103849002Y-29504379D01*
X103903162Y-29343377D01*
X103911734Y-29317897D01*
X103918874Y-29300902D01*
X103957999Y-29224057D01*
X104022154Y-29098052D01*
X104031688Y-29082295D01*
X104163461Y-28896684D01*
X104175203Y-28882474D01*
X104245115Y-28809474D01*
X104332641Y-28718082D01*
X104346327Y-28705740D01*
X104348414Y-28704119D01*
X104526070Y-28566075D01*
X104541414Y-28555860D01*
X104739606Y-28443918D01*
X104756277Y-28436051D01*
X104968688Y-28354222D01*
X104986327Y-28348872D01*
X105208391Y-28298912D01*
X105226623Y-28296192D01*
X105453612Y-28279167D01*
X105472045Y-28279137D01*
X105699080Y-28295413D01*
X105717319Y-28298072D01*
X105809216Y-28318428D01*
X105939556Y-28347300D01*
X105957212Y-28352592D01*
X106169890Y-28433719D01*
X106186579Y-28441527D01*
X106313961Y-28512921D01*
X106385151Y-28552821D01*
X106400526Y-28562985D01*
X106558554Y-28684943D01*
X106580722Y-28702051D01*
X106594451Y-28714349D01*
X106620593Y-28741466D01*
X106752431Y-28878221D01*
X106764220Y-28892392D01*
X106896602Y-29077563D01*
X106906197Y-29093302D01*
X106907716Y-29096263D01*
X107010141Y-29295802D01*
X107017337Y-29312773D01*
X107090083Y-29526681D01*
X107090626Y-29528279D01*
X107095267Y-29546116D01*
X107096654Y-29553677D01*
X107136327Y-29770004D01*
X107138317Y-29788327D01*
X107141217Y-29871259D01*
X107146272Y-30015810D01*
X107145567Y-30034231D01*
X107123002Y-30235807D01*
X107121289Y-30242955D01*
X107119930Y-30245869D01*
X107119530Y-30250443D01*
X107117685Y-30260912D01*
X107114728Y-30268786D01*
X107114632Y-30278233D01*
X107114259Y-30280347D01*
X107114259Y-30280348D01*
X107088541Y-30426272D01*
X107087084Y-30434536D01*
X107087084Y-30440037D01*
X107087085Y-30449197D01*
X107087096Y-30626005D01*
X107088051Y-30631419D01*
X107118896Y-30806294D01*
X107120354Y-30814563D01*
X107185849Y-30994482D01*
X107281589Y-31160296D01*
X107285129Y-31164514D01*
X107285130Y-31164516D01*
X107344771Y-31235589D01*
X107404667Y-31306966D01*
X107408874Y-31310496D01*
X107547133Y-31426506D01*
X107547137Y-31426509D01*
X107551343Y-31430038D01*
X107556103Y-31432786D01*
X107712394Y-31523020D01*
X107712399Y-31523023D01*
X107717160Y-31525771D01*
X107722331Y-31527653D01*
X107722333Y-31527654D01*
X107881742Y-31585675D01*
X107881743Y-31585675D01*
X107892235Y-31589494D01*
X107896964Y-31591699D01*
X107900755Y-31592031D01*
X107904246Y-31593555D01*
X107918295Y-31594436D01*
X107940943Y-31597945D01*
X109583710Y-32008358D01*
X109851543Y-32075271D01*
X109853407Y-32075752D01*
X111791092Y-32591428D01*
X111792905Y-32591926D01*
X113722416Y-33137133D01*
X113724182Y-33137646D01*
X114568440Y-33390195D01*
X115645225Y-33712302D01*
X115647066Y-33712868D01*
X116402954Y-33951626D01*
X117559096Y-34316810D01*
X117560817Y-34317369D01*
X118417576Y-34602459D01*
X119463358Y-34950448D01*
X119465181Y-34951070D01*
X120622026Y-35355753D01*
X121357853Y-35613157D01*
X121359617Y-35613790D01*
X122463241Y-36018889D01*
X123241852Y-36304688D01*
X123243655Y-36305365D01*
X125115188Y-37024974D01*
X125116980Y-37025679D01*
X126977241Y-37773781D01*
X126979022Y-37774513D01*
X128785202Y-38533134D01*
X128794499Y-38538367D01*
X128794580Y-38538202D01*
X128804493Y-38543030D01*
X128813416Y-38549505D01*
X128820525Y-38551539D01*
X128826717Y-38555594D01*
X128832324Y-38556911D01*
X128841051Y-38561822D01*
X128900080Y-38599826D01*
X128923096Y-38618853D01*
X128982156Y-38680841D01*
X129000047Y-38704749D01*
X129042862Y-38778896D01*
X129054626Y-38806347D01*
X129078787Y-38888486D01*
X129083760Y-38917929D01*
X129086359Y-38971426D01*
X129087914Y-39003450D01*
X129085817Y-39033238D01*
X129085816Y-39033246D01*
X129072525Y-39102710D01*
X129068847Y-39117206D01*
X129067656Y-39120952D01*
X129062543Y-39130717D01*
X129061078Y-39141644D01*
X129058978Y-39148249D01*
X129055156Y-39163778D01*
X123071138Y-55592626D01*
X123066795Y-55601159D01*
X123067365Y-55601412D01*
X123062897Y-55611492D01*
X123056748Y-55620641D01*
X123054098Y-55631344D01*
X123053564Y-55632549D01*
X123045849Y-55647253D01*
X123007834Y-55709370D01*
X122986954Y-55735128D01*
X122925136Y-55793606D01*
X122898259Y-55813025D01*
X122823321Y-55853352D01*
X122792311Y-55865085D01*
X122709446Y-55884464D01*
X122676446Y-55887700D01*
X122626310Y-55885984D01*
X122591403Y-55884789D01*
X122558698Y-55879303D01*
X122491121Y-55858534D01*
X122477977Y-55852326D01*
X122477495Y-55853428D01*
X122471304Y-55850723D01*
X122463298Y-55845190D01*
X122460568Y-55844477D01*
X122458213Y-55842912D01*
X122453076Y-55841669D01*
X120753183Y-55115422D01*
X119752523Y-54707006D01*
X119037442Y-54415147D01*
X119037414Y-54415136D01*
X119036895Y-54414924D01*
X117946774Y-53990523D01*
X117309854Y-53742560D01*
X117309841Y-53742555D01*
X117309453Y-53742404D01*
X117309079Y-53742265D01*
X117309036Y-53742249D01*
X116341083Y-53383409D01*
X120636985Y-53383409D01*
X120653650Y-53581860D01*
X120655349Y-53587785D01*
X120699641Y-53742249D01*
X120708543Y-53773295D01*
X120799574Y-53950423D01*
X120803397Y-53955247D01*
X120803400Y-53955251D01*
X120827658Y-53985856D01*
X120923276Y-54106495D01*
X121074936Y-54235568D01*
X121248778Y-54332725D01*
X121438181Y-54394266D01*
X121635930Y-54417846D01*
X121642065Y-54417374D01*
X121642067Y-54417374D01*
X121828352Y-54403041D01*
X121828357Y-54403040D01*
X121834493Y-54402568D01*
X121840425Y-54400912D01*
X121840429Y-54400911D01*
X121930400Y-54375790D01*
X122026307Y-54349012D01*
X122204065Y-54259220D01*
X122230490Y-54238575D01*
X122356141Y-54140405D01*
X122360997Y-54136611D01*
X122491126Y-53985856D01*
X122589495Y-53812696D01*
X122652356Y-53623727D01*
X122677316Y-53426148D01*
X122677714Y-53397656D01*
X122658280Y-53199457D01*
X122600720Y-53008806D01*
X122593737Y-52995672D01*
X122510118Y-52838411D01*
X122507224Y-52832968D01*
X122381356Y-52678637D01*
X122324750Y-52631809D01*
X122232657Y-52555622D01*
X122232652Y-52555619D01*
X122227908Y-52551694D01*
X122222489Y-52548764D01*
X122222486Y-52548762D01*
X122058146Y-52459904D01*
X122058141Y-52459902D01*
X122052726Y-52456974D01*
X122029560Y-52449803D01*
X121868370Y-52399906D01*
X121868367Y-52399905D01*
X121862483Y-52398084D01*
X121856358Y-52397440D01*
X121856357Y-52397440D01*
X121670552Y-52377911D01*
X121670551Y-52377911D01*
X121664424Y-52377267D01*
X121542658Y-52388348D01*
X121472234Y-52394757D01*
X121472233Y-52394757D01*
X121466093Y-52395316D01*
X121275046Y-52451545D01*
X121098559Y-52543810D01*
X120943354Y-52668598D01*
X120815343Y-52821156D01*
X120812374Y-52826557D01*
X120812373Y-52826558D01*
X120722373Y-52990265D01*
X120722371Y-52990270D01*
X120719401Y-52995672D01*
X120717537Y-53001547D01*
X120717536Y-53001550D01*
X120700897Y-53054003D01*
X120659184Y-53185500D01*
X120636985Y-53383409D01*
X116341083Y-53383409D01*
X115571787Y-53098215D01*
X115571777Y-53098212D01*
X115571312Y-53098039D01*
X113822930Y-52482001D01*
X113822550Y-52481874D01*
X113822518Y-52481863D01*
X112122145Y-51913625D01*
X112064770Y-51894451D01*
X110297296Y-51335545D01*
X110296839Y-51335409D01*
X110296811Y-51335400D01*
X108703232Y-50859823D01*
X108520974Y-50805431D01*
X108520580Y-50805320D01*
X108520565Y-50805316D01*
X106746564Y-50307137D01*
X106741297Y-50305658D01*
X106736504Y-50303400D01*
X106717622Y-50301675D01*
X106713082Y-50301260D01*
X106695938Y-50298492D01*
X106683762Y-50295653D01*
X106683759Y-50295653D01*
X106673024Y-50293150D01*
X106662078Y-50294470D01*
X106657147Y-50294201D01*
X106646880Y-50294349D01*
X106641950Y-50294761D01*
X106630971Y-50293758D01*
X106620313Y-50296570D01*
X106620312Y-50296570D01*
X106617071Y-50297425D01*
X106608221Y-50299760D01*
X106591169Y-50303022D01*
X106567814Y-50305838D01*
X106557979Y-50310822D01*
X106553244Y-50312259D01*
X106543641Y-50315912D01*
X106539163Y-50317979D01*
X106528505Y-50320791D01*
X106510067Y-50333596D01*
X106509180Y-50334212D01*
X106494271Y-50343110D01*
X106473288Y-50353744D01*
X106465751Y-50361791D01*
X106456934Y-50368406D01*
X106456759Y-50368173D01*
X106447237Y-50376138D01*
X106289610Y-50478288D01*
X106274508Y-50486665D01*
X106081111Y-50577191D01*
X106065010Y-50583421D01*
X105861040Y-50646645D01*
X105844242Y-50650612D01*
X105743594Y-50667203D01*
X105633556Y-50685341D01*
X105616359Y-50686976D01*
X105527875Y-50689291D01*
X105402894Y-50692561D01*
X105385648Y-50691828D01*
X105173425Y-50668162D01*
X105156434Y-50665076D01*
X105083719Y-50646643D01*
X104949449Y-50612605D01*
X104933034Y-50607222D01*
X104735175Y-50526934D01*
X104719650Y-50519356D01*
X104534629Y-50412756D01*
X104520288Y-50403126D01*
X104389009Y-50301260D01*
X104351595Y-50272228D01*
X104338707Y-50260730D01*
X104314875Y-50236332D01*
X104189495Y-50107978D01*
X104178302Y-50094825D01*
X104094058Y-49980836D01*
X104051387Y-49923100D01*
X104042098Y-49908539D01*
X104001539Y-49834163D01*
X103952181Y-49743653D01*
X103947597Y-49732099D01*
X103947335Y-49732219D01*
X103942732Y-49722200D01*
X103939940Y-49711536D01*
X103927396Y-49693402D01*
X103918138Y-49677703D01*
X103913229Y-49667805D01*
X103913228Y-49667803D01*
X103908329Y-49657926D01*
X103900346Y-49650319D01*
X103898881Y-49648330D01*
X103887675Y-49635222D01*
X103885922Y-49633449D01*
X103879651Y-49624384D01*
X103861661Y-49611634D01*
X103847601Y-49600055D01*
X103831612Y-49584819D01*
X103821511Y-49580402D01*
X103819448Y-49579030D01*
X103804428Y-49570542D01*
X103802183Y-49569480D01*
X103793191Y-49563107D01*
X103771921Y-49557278D01*
X103754744Y-49551205D01*
X103744597Y-49546768D01*
X103744598Y-49546768D01*
X103734517Y-49542360D01*
X103733782Y-49542313D01*
X103726979Y-49540729D01*
X103726978Y-49540728D01*
X101758840Y-49082375D01*
X101758838Y-49082375D01*
X101758286Y-49082246D01*
X101757764Y-49082134D01*
X101757714Y-49082123D01*
X101610362Y-49050561D01*
X104185686Y-49050561D01*
X104213039Y-49276598D01*
X104279988Y-49494219D01*
X104282558Y-49499199D01*
X104282560Y-49499203D01*
X104380950Y-49689830D01*
X104384416Y-49696545D01*
X104523023Y-49877180D01*
X104527168Y-49880951D01*
X104527171Y-49880955D01*
X104673512Y-50014115D01*
X104691427Y-50030416D01*
X104696183Y-50033399D01*
X104696185Y-50033401D01*
X104879548Y-50148425D01*
X104879552Y-50148427D01*
X104884304Y-50151408D01*
X105095560Y-50236332D01*
X105318515Y-50282504D01*
X105323126Y-50282770D01*
X105323127Y-50282770D01*
X105374463Y-50285730D01*
X105374467Y-50285730D01*
X105376286Y-50285835D01*
X105523482Y-50285835D01*
X105526269Y-50285586D01*
X105526275Y-50285586D01*
X105597127Y-50279262D01*
X105692495Y-50270751D01*
X105825972Y-50234236D01*
X105906695Y-50212153D01*
X105906699Y-50212152D01*
X105912111Y-50210671D01*
X106117617Y-50112649D01*
X106302517Y-49979785D01*
X106406262Y-49872729D01*
X106457064Y-49820306D01*
X106457066Y-49820303D01*
X106460967Y-49816278D01*
X106518850Y-49730139D01*
X106584831Y-49631949D01*
X106584834Y-49631944D01*
X106587957Y-49627296D01*
X106679475Y-49418812D01*
X106732628Y-49197417D01*
X106739261Y-49082375D01*
X106745411Y-48975716D01*
X106745411Y-48975713D01*
X106745734Y-48970109D01*
X106718381Y-48744072D01*
X106651432Y-48526451D01*
X106632717Y-48490190D01*
X106549575Y-48329106D01*
X106549574Y-48329105D01*
X106547004Y-48324125D01*
X106408397Y-48143490D01*
X106404252Y-48139719D01*
X106404249Y-48139715D01*
X106244146Y-47994033D01*
X106239993Y-47990254D01*
X106235235Y-47987269D01*
X106051872Y-47872245D01*
X106051868Y-47872243D01*
X106047116Y-47869262D01*
X105835860Y-47784338D01*
X105612905Y-47738166D01*
X105608294Y-47737900D01*
X105608293Y-47737900D01*
X105556957Y-47734940D01*
X105556953Y-47734940D01*
X105555134Y-47734835D01*
X105407938Y-47734835D01*
X105405151Y-47735084D01*
X105405145Y-47735084D01*
X105334293Y-47741408D01*
X105238925Y-47749919D01*
X105117274Y-47783199D01*
X105024725Y-47808517D01*
X105024721Y-47808518D01*
X105019309Y-47809999D01*
X104813803Y-47908021D01*
X104628903Y-48040885D01*
X104624996Y-48044917D01*
X104495216Y-48178839D01*
X104470453Y-48204392D01*
X104427995Y-48267577D01*
X104346589Y-48388721D01*
X104346586Y-48388726D01*
X104343463Y-48393374D01*
X104251945Y-48601858D01*
X104238610Y-48657402D01*
X104209319Y-48779407D01*
X104198792Y-48823253D01*
X104198469Y-48828856D01*
X104190325Y-48970109D01*
X104185686Y-49050561D01*
X101610362Y-49050561D01*
X99774834Y-48657402D01*
X99774817Y-48657399D01*
X99774203Y-48657267D01*
X98842119Y-48474912D01*
X97783434Y-48267788D01*
X97783378Y-48267778D01*
X97782869Y-48267678D01*
X97782318Y-48267580D01*
X97782300Y-48267577D01*
X97060811Y-48139715D01*
X95784915Y-47913601D01*
X95784472Y-47913531D01*
X95784427Y-47913523D01*
X94189878Y-47660129D01*
X93780975Y-47595149D01*
X93780484Y-47595080D01*
X93780438Y-47595073D01*
X92250062Y-47379735D01*
X91771682Y-47312422D01*
X91771140Y-47312356D01*
X91771098Y-47312350D01*
X89758160Y-47065569D01*
X89758112Y-47065564D01*
X89757675Y-47065510D01*
X87739591Y-46854492D01*
X87739011Y-46854442D01*
X87738982Y-46854439D01*
X85718688Y-46679487D01*
X85718641Y-46679483D01*
X85718071Y-46679434D01*
X83693754Y-46540392D01*
X83693257Y-46540367D01*
X83693228Y-46540365D01*
X81667760Y-46437434D01*
X81667732Y-46437433D01*
X81667283Y-46437410D01*
X81666858Y-46437396D01*
X81666811Y-46437394D01*
X80651574Y-46403908D01*
X79639300Y-46370520D01*
X79638784Y-46370512D01*
X79638737Y-46370511D01*
X77611005Y-46339753D01*
X77610953Y-46339753D01*
X77610447Y-46339745D01*
X77609940Y-46339746D01*
X77609886Y-46339746D01*
X76612396Y-46342375D01*
X75581368Y-46345092D01*
X74100671Y-46375360D01*
X73553190Y-46386552D01*
X73553179Y-46386552D01*
X73552706Y-46386562D01*
X71525103Y-46464140D01*
X71524585Y-46464169D01*
X71524565Y-46464170D01*
X70459608Y-46523919D01*
X69499203Y-46577802D01*
X69498658Y-46577842D01*
X69498632Y-46577844D01*
X67476183Y-46727472D01*
X67476146Y-46727475D01*
X67475647Y-46727512D01*
X67475122Y-46727560D01*
X67475077Y-46727564D01*
X65455695Y-46913166D01*
X65455662Y-46913169D01*
X65455078Y-46913223D01*
X65454515Y-46913285D01*
X65454474Y-46913289D01*
X64431091Y-47025754D01*
X63438134Y-47134875D01*
X61425457Y-47392399D01*
X59417682Y-47685713D01*
X57415448Y-48014723D01*
X56543427Y-48174008D01*
X55419994Y-48379216D01*
X55419962Y-48379222D01*
X55419388Y-48379327D01*
X55418777Y-48379450D01*
X55418766Y-48379452D01*
X55210414Y-48421356D01*
X53430136Y-48779407D01*
X52544498Y-48973993D01*
X51448866Y-49214717D01*
X51448839Y-49214723D01*
X51448321Y-49214837D01*
X51447769Y-49214969D01*
X51447763Y-49214970D01*
X49549095Y-49667709D01*
X49530854Y-49670665D01*
X49479956Y-49675119D01*
X49479955Y-49675119D01*
X49468976Y-49676080D01*
X49458988Y-49680738D01*
X49452975Y-49682349D01*
X49439144Y-49685235D01*
X49374994Y-49694905D01*
X49346800Y-49695961D01*
X49298510Y-49692343D01*
X49264959Y-49689829D01*
X49237245Y-49684586D01*
X49158822Y-49660398D01*
X49132964Y-49649117D01*
X49061890Y-49608085D01*
X49039191Y-49591333D01*
X48979031Y-49535515D01*
X48960627Y-49514130D01*
X48950450Y-49499203D01*
X48914398Y-49446328D01*
X48901215Y-49421388D01*
X48877610Y-49361248D01*
X48873200Y-49347844D01*
X48871515Y-49341556D01*
X48870554Y-49330569D01*
X48865894Y-49320577D01*
X48863440Y-49311416D01*
X48857719Y-49293542D01*
X48855574Y-49281960D01*
X48517273Y-47455753D01*
X50409685Y-47455753D01*
X50426350Y-47654204D01*
X50428049Y-47660129D01*
X50463339Y-47783199D01*
X50481243Y-47845639D01*
X50484058Y-47851116D01*
X50484059Y-47851119D01*
X50556621Y-47992309D01*
X50572274Y-48022767D01*
X50576097Y-48027591D01*
X50576100Y-48027595D01*
X50671486Y-48147941D01*
X50695976Y-48178839D01*
X50700670Y-48182834D01*
X50800491Y-48267788D01*
X50847636Y-48307912D01*
X50853014Y-48310918D01*
X50853016Y-48310919D01*
X50883164Y-48327768D01*
X51021478Y-48405069D01*
X51210881Y-48466610D01*
X51408630Y-48490190D01*
X51414765Y-48489718D01*
X51414767Y-48489718D01*
X51601052Y-48475385D01*
X51601057Y-48475384D01*
X51607193Y-48474912D01*
X51613125Y-48473256D01*
X51613129Y-48473255D01*
X51703100Y-48448134D01*
X51799007Y-48421356D01*
X51976765Y-48331564D01*
X51986287Y-48324125D01*
X52128841Y-48212749D01*
X52133697Y-48208955D01*
X52263826Y-48058200D01*
X52362195Y-47885040D01*
X52425056Y-47696071D01*
X52450016Y-47498492D01*
X52450414Y-47470000D01*
X52430980Y-47271801D01*
X52373420Y-47081150D01*
X52366437Y-47068016D01*
X52301158Y-46945247D01*
X52279924Y-46905312D01*
X52154056Y-46750981D01*
X52073943Y-46684706D01*
X52005357Y-46627966D01*
X52005352Y-46627963D01*
X52000608Y-46624038D01*
X51995189Y-46621108D01*
X51995186Y-46621106D01*
X51830846Y-46532248D01*
X51830841Y-46532246D01*
X51825426Y-46529318D01*
X51802260Y-46522147D01*
X51641070Y-46472250D01*
X51641067Y-46472249D01*
X51635183Y-46470428D01*
X51629058Y-46469784D01*
X51629057Y-46469784D01*
X51443252Y-46450255D01*
X51443251Y-46450255D01*
X51437124Y-46449611D01*
X51315358Y-46460692D01*
X51244934Y-46467101D01*
X51244933Y-46467101D01*
X51238793Y-46467660D01*
X51047746Y-46523889D01*
X50871259Y-46616154D01*
X50716054Y-46740942D01*
X50588043Y-46893500D01*
X50585074Y-46898901D01*
X50585073Y-46898902D01*
X50495073Y-47062609D01*
X50495071Y-47062614D01*
X50492101Y-47068016D01*
X50490237Y-47073891D01*
X50490236Y-47073894D01*
X50467735Y-47144828D01*
X50431884Y-47257844D01*
X50409685Y-47455753D01*
X48517273Y-47455753D01*
X48003984Y-44684936D01*
X66085689Y-44684936D01*
X66113042Y-44910973D01*
X66179991Y-45128594D01*
X66182561Y-45133574D01*
X66182563Y-45133578D01*
X66272103Y-45307058D01*
X66284419Y-45330920D01*
X66423026Y-45511555D01*
X66427171Y-45515326D01*
X66427174Y-45515330D01*
X66551919Y-45628839D01*
X66591430Y-45664791D01*
X66596186Y-45667774D01*
X66596188Y-45667776D01*
X66779551Y-45782800D01*
X66779555Y-45782802D01*
X66784307Y-45785783D01*
X66995563Y-45870707D01*
X67218518Y-45916879D01*
X67223129Y-45917145D01*
X67223130Y-45917145D01*
X67274466Y-45920105D01*
X67274470Y-45920105D01*
X67276289Y-45920210D01*
X67423485Y-45920210D01*
X67426272Y-45919961D01*
X67426278Y-45919961D01*
X67497130Y-45913637D01*
X67592498Y-45905126D01*
X67726092Y-45868579D01*
X67806698Y-45846528D01*
X67806702Y-45846527D01*
X67812114Y-45845046D01*
X68017620Y-45747024D01*
X68202520Y-45614160D01*
X68321095Y-45491801D01*
X68357067Y-45454681D01*
X68357069Y-45454678D01*
X68360970Y-45450653D01*
X68438438Y-45335368D01*
X68484834Y-45266324D01*
X68484837Y-45266319D01*
X68487960Y-45261671D01*
X68579478Y-45053187D01*
X68613392Y-44911927D01*
X68631322Y-44837246D01*
X68631323Y-44837242D01*
X68632631Y-44831792D01*
X68640974Y-44687101D01*
X68642205Y-44665753D01*
X70669685Y-44665753D01*
X70674392Y-44721801D01*
X70684657Y-44844038D01*
X70686350Y-44864204D01*
X70688049Y-44870129D01*
X70738978Y-45047739D01*
X70741243Y-45055639D01*
X70744058Y-45061116D01*
X70744059Y-45061119D01*
X70790728Y-45151927D01*
X70832274Y-45232767D01*
X70836097Y-45237591D01*
X70836100Y-45237595D01*
X70913335Y-45335040D01*
X70955976Y-45388839D01*
X70960670Y-45392834D01*
X71100167Y-45511555D01*
X71107636Y-45517912D01*
X71281478Y-45615069D01*
X71470881Y-45676610D01*
X71668630Y-45700190D01*
X71674765Y-45699718D01*
X71674767Y-45699718D01*
X71861052Y-45685385D01*
X71861057Y-45685384D01*
X71867193Y-45684912D01*
X71873125Y-45683256D01*
X71873129Y-45683255D01*
X71976864Y-45654291D01*
X72059007Y-45631356D01*
X72236765Y-45541564D01*
X72263190Y-45520919D01*
X72388841Y-45422749D01*
X72393697Y-45418955D01*
X72523826Y-45268200D01*
X72622195Y-45095040D01*
X72685056Y-44906071D01*
X72685096Y-44905753D01*
X81599685Y-44905753D01*
X81604320Y-44960942D01*
X81615089Y-45089183D01*
X81616350Y-45104204D01*
X81618049Y-45110129D01*
X81667507Y-45282609D01*
X81671243Y-45295639D01*
X81674058Y-45301116D01*
X81674059Y-45301119D01*
X81736568Y-45422749D01*
X81762274Y-45472767D01*
X81766097Y-45477591D01*
X81766100Y-45477595D01*
X81816802Y-45541564D01*
X81885976Y-45628839D01*
X81890670Y-45632834D01*
X82027676Y-45749435D01*
X82037636Y-45757912D01*
X82211478Y-45855069D01*
X82400881Y-45916610D01*
X82598630Y-45940190D01*
X82604765Y-45939718D01*
X82604767Y-45939718D01*
X82791052Y-45925385D01*
X82791057Y-45925384D01*
X82797193Y-45924912D01*
X82803125Y-45923256D01*
X82803129Y-45923255D01*
X82893100Y-45898134D01*
X82989007Y-45871356D01*
X83166765Y-45781564D01*
X83193190Y-45760919D01*
X83318841Y-45662749D01*
X83323697Y-45658955D01*
X83453826Y-45508200D01*
X83552195Y-45335040D01*
X83615056Y-45146071D01*
X83640016Y-44948492D01*
X83640414Y-44920000D01*
X83626294Y-44775997D01*
X83621581Y-44727927D01*
X83621580Y-44727924D01*
X83620980Y-44721801D01*
X83609849Y-44684934D01*
X85135688Y-44684934D01*
X85163041Y-44910971D01*
X85229990Y-45128592D01*
X85232560Y-45133572D01*
X85232562Y-45133576D01*
X85322103Y-45307058D01*
X85334418Y-45330918D01*
X85473025Y-45511553D01*
X85477170Y-45515324D01*
X85477173Y-45515328D01*
X85604687Y-45631356D01*
X85641429Y-45664789D01*
X85646185Y-45667772D01*
X85646187Y-45667774D01*
X85829550Y-45782798D01*
X85829554Y-45782800D01*
X85834306Y-45785781D01*
X86045562Y-45870705D01*
X86268517Y-45916877D01*
X86273128Y-45917143D01*
X86273129Y-45917143D01*
X86324465Y-45920103D01*
X86324469Y-45920103D01*
X86326288Y-45920208D01*
X86473484Y-45920208D01*
X86476271Y-45919959D01*
X86476277Y-45919959D01*
X86547129Y-45913635D01*
X86642497Y-45905124D01*
X86777973Y-45868062D01*
X86856697Y-45846526D01*
X86856701Y-45846525D01*
X86862113Y-45845044D01*
X87067619Y-45747022D01*
X87166800Y-45675753D01*
X90069685Y-45675753D01*
X90071737Y-45700190D01*
X90084491Y-45852062D01*
X90086350Y-45874204D01*
X90088049Y-45880129D01*
X90098663Y-45917143D01*
X90141243Y-46065639D01*
X90232274Y-46242767D01*
X90236097Y-46247591D01*
X90236100Y-46247595D01*
X90346237Y-46386552D01*
X90355976Y-46398839D01*
X90360670Y-46402834D01*
X90440093Y-46470428D01*
X90507636Y-46527912D01*
X90513014Y-46530918D01*
X90513016Y-46530919D01*
X90543164Y-46547768D01*
X90681478Y-46625069D01*
X90870881Y-46686610D01*
X91068630Y-46710190D01*
X91074765Y-46709718D01*
X91074767Y-46709718D01*
X91261052Y-46695385D01*
X91261057Y-46695384D01*
X91267193Y-46694912D01*
X91273125Y-46693256D01*
X91273129Y-46693255D01*
X91363100Y-46668134D01*
X91459007Y-46641356D01*
X91636765Y-46551564D01*
X91651065Y-46540392D01*
X91788841Y-46432749D01*
X91793697Y-46428955D01*
X91923826Y-46278200D01*
X92022195Y-46105040D01*
X92085056Y-45916071D01*
X92110016Y-45718492D01*
X92110414Y-45690000D01*
X92096132Y-45544342D01*
X92091581Y-45497927D01*
X92091580Y-45497924D01*
X92090980Y-45491801D01*
X92045272Y-45340405D01*
X92035204Y-45307058D01*
X92035203Y-45307055D01*
X92033420Y-45301150D01*
X92026437Y-45288016D01*
X91942818Y-45130755D01*
X91939924Y-45125312D01*
X91814056Y-44970981D01*
X91752430Y-44920000D01*
X91665357Y-44847966D01*
X91665352Y-44847963D01*
X91660608Y-44844038D01*
X91655189Y-44841108D01*
X91655186Y-44841106D01*
X91490846Y-44752248D01*
X91490841Y-44752246D01*
X91485426Y-44749318D01*
X91377483Y-44715904D01*
X91301070Y-44692250D01*
X91301067Y-44692249D01*
X91295183Y-44690428D01*
X91289058Y-44689784D01*
X91289057Y-44689784D01*
X91103252Y-44670255D01*
X91103251Y-44670255D01*
X91097124Y-44669611D01*
X90990360Y-44679327D01*
X90904934Y-44687101D01*
X90904933Y-44687101D01*
X90898793Y-44687660D01*
X90707746Y-44743889D01*
X90531259Y-44836154D01*
X90376054Y-44960942D01*
X90248043Y-45113500D01*
X90245074Y-45118901D01*
X90245073Y-45118902D01*
X90155073Y-45282609D01*
X90155071Y-45282614D01*
X90152101Y-45288016D01*
X90150237Y-45293891D01*
X90150236Y-45293894D01*
X90120118Y-45388839D01*
X90091884Y-45477844D01*
X90069685Y-45675753D01*
X87166800Y-45675753D01*
X87252519Y-45614158D01*
X87345788Y-45517912D01*
X87407066Y-45454679D01*
X87407068Y-45454676D01*
X87410969Y-45450651D01*
X87485051Y-45340405D01*
X87534833Y-45266322D01*
X87534836Y-45266317D01*
X87537959Y-45261669D01*
X87629477Y-45053185D01*
X87663620Y-44910971D01*
X87681321Y-44837244D01*
X87681322Y-44837240D01*
X87682630Y-44831790D01*
X87687799Y-44742147D01*
X87695413Y-44610089D01*
X87695413Y-44610086D01*
X87695736Y-44604482D01*
X87668383Y-44378445D01*
X87646213Y-44306380D01*
X105884126Y-44306380D01*
X105913742Y-44477270D01*
X105916252Y-44483479D01*
X105916252Y-44483480D01*
X105918050Y-44487927D01*
X105978736Y-44638068D01*
X105982499Y-44643608D01*
X105982500Y-44643610D01*
X106050612Y-44743889D01*
X106076185Y-44781540D01*
X106081033Y-44786163D01*
X106081034Y-44786164D01*
X106103771Y-44807845D01*
X106201704Y-44901229D01*
X106207418Y-44904725D01*
X106207419Y-44904726D01*
X106219188Y-44911927D01*
X106349645Y-44991749D01*
X106513351Y-45049028D01*
X106519995Y-45049856D01*
X106519997Y-45049857D01*
X106610313Y-45061119D01*
X106685455Y-45070489D01*
X106692129Y-45069897D01*
X106851541Y-45055756D01*
X106851542Y-45055756D01*
X106858214Y-45055164D01*
X106875310Y-45049857D01*
X107017454Y-45005732D01*
X107017456Y-45005731D01*
X107023854Y-45003745D01*
X107029687Y-45000455D01*
X107029692Y-45000453D01*
X107121821Y-44948492D01*
X107174921Y-44918544D01*
X107179927Y-44914100D01*
X107179932Y-44914096D01*
X107299607Y-44807845D01*
X107299608Y-44807844D01*
X107304618Y-44803396D01*
X107407109Y-44663482D01*
X107447622Y-44572688D01*
X107449327Y-44569618D01*
X107449102Y-44569510D01*
X107450500Y-44566594D01*
X107451836Y-44563809D01*
X107452846Y-44561037D01*
X107453661Y-44559158D01*
X107471265Y-44519706D01*
X107471265Y-44519705D01*
X107476862Y-44507162D01*
X107477932Y-44505146D01*
X107479459Y-44494226D01*
X107480908Y-44489755D01*
X107485429Y-44471606D01*
X107492509Y-44452174D01*
X108879136Y-40646267D01*
X108883323Y-40636163D01*
X108897880Y-40604950D01*
X108898322Y-40599904D01*
X108911751Y-40523765D01*
X108929754Y-40421684D01*
X108930709Y-40416269D01*
X108930714Y-40224793D01*
X108897468Y-40036225D01*
X108895584Y-40031048D01*
X108868543Y-39956751D01*
X125522710Y-39956751D01*
X125539375Y-40155202D01*
X125541074Y-40161127D01*
X125592066Y-40338957D01*
X125594268Y-40346637D01*
X125597083Y-40352114D01*
X125597084Y-40352117D01*
X125682484Y-40518288D01*
X125685299Y-40523765D01*
X125689122Y-40528589D01*
X125689125Y-40528593D01*
X125745646Y-40599904D01*
X125809001Y-40679837D01*
X125960661Y-40808910D01*
X126134503Y-40906067D01*
X126323906Y-40967608D01*
X126521655Y-40991188D01*
X126527790Y-40990716D01*
X126527792Y-40990716D01*
X126714077Y-40976383D01*
X126714082Y-40976382D01*
X126720218Y-40975910D01*
X126726150Y-40974254D01*
X126726154Y-40974253D01*
X126816125Y-40949132D01*
X126912032Y-40922354D01*
X127089790Y-40832562D01*
X127116215Y-40811917D01*
X127241866Y-40713747D01*
X127246722Y-40709953D01*
X127376851Y-40559198D01*
X127475220Y-40386038D01*
X127538081Y-40197069D01*
X127563041Y-39999490D01*
X127563267Y-39983312D01*
X127563390Y-39974520D01*
X127563390Y-39974516D01*
X127563439Y-39970998D01*
X127551434Y-39848563D01*
X127544606Y-39778925D01*
X127544605Y-39778922D01*
X127544005Y-39772799D01*
X127486445Y-39582148D01*
X127479462Y-39569014D01*
X127395843Y-39411753D01*
X127392949Y-39406310D01*
X127267081Y-39251979D01*
X127187087Y-39185802D01*
X127118382Y-39128964D01*
X127118377Y-39128961D01*
X127113633Y-39125036D01*
X127108214Y-39122106D01*
X127108211Y-39122104D01*
X126943871Y-39033246D01*
X126943864Y-39033243D01*
X126938451Y-39030316D01*
X126851661Y-39003450D01*
X126754095Y-38973248D01*
X126754092Y-38973247D01*
X126748208Y-38971426D01*
X126742083Y-38970782D01*
X126742082Y-38970782D01*
X126556277Y-38951253D01*
X126556276Y-38951253D01*
X126550149Y-38950609D01*
X126428383Y-38961690D01*
X126357959Y-38968099D01*
X126357958Y-38968099D01*
X126351818Y-38968658D01*
X126160771Y-39024887D01*
X125984284Y-39117152D01*
X125979484Y-39121012D01*
X125979483Y-39121012D01*
X125945607Y-39148249D01*
X125829079Y-39241940D01*
X125701068Y-39394498D01*
X125698099Y-39399899D01*
X125698098Y-39399900D01*
X125608098Y-39563607D01*
X125608096Y-39563612D01*
X125605126Y-39569014D01*
X125603262Y-39574889D01*
X125603261Y-39574892D01*
X125565086Y-39695236D01*
X125544909Y-39758842D01*
X125522710Y-39956751D01*
X108868543Y-39956751D01*
X108833863Y-39861468D01*
X108833860Y-39861462D01*
X108831980Y-39856296D01*
X108827516Y-39848563D01*
X108738989Y-39695236D01*
X108736240Y-39690474D01*
X108613158Y-39543798D01*
X108466475Y-39420724D01*
X108441507Y-39406310D01*
X108335011Y-39344832D01*
X108300647Y-39324994D01*
X108237383Y-39301972D01*
X108180348Y-39281217D01*
X108177221Y-39279802D01*
X108176844Y-39279521D01*
X108175391Y-39278975D01*
X108175387Y-39278973D01*
X108173825Y-39278386D01*
X108173823Y-39278385D01*
X108170925Y-39277296D01*
X108167930Y-39276494D01*
X108165446Y-39275696D01*
X108160902Y-39274140D01*
X108125562Y-39261280D01*
X108120832Y-39259075D01*
X108105225Y-39257711D01*
X108083602Y-39253899D01*
X108001143Y-39231805D01*
X107980507Y-39224294D01*
X107966304Y-39217671D01*
X107961329Y-39217236D01*
X107777628Y-39184845D01*
X107772123Y-39184845D01*
X107681883Y-39184846D01*
X107586156Y-39184847D01*
X107580742Y-39185802D01*
X107580738Y-39185802D01*
X107403008Y-39217142D01*
X107403004Y-39217143D01*
X107397594Y-39218097D01*
X107288754Y-39257713D01*
X107224180Y-39281217D01*
X107217671Y-39283586D01*
X107051853Y-39379324D01*
X107047642Y-39382858D01*
X107047640Y-39382859D01*
X106998305Y-39424257D01*
X106905179Y-39502401D01*
X106782105Y-39649079D01*
X106686372Y-39814899D01*
X106678227Y-39837279D01*
X106638150Y-39947395D01*
X106635164Y-39954851D01*
X106634811Y-39955657D01*
X106630136Y-39963218D01*
X106628438Y-39969309D01*
X106627904Y-39972341D01*
X106627903Y-39972347D01*
X106627870Y-39972535D01*
X106626111Y-39980476D01*
X106622653Y-39989978D01*
X106620448Y-39994707D01*
X106619488Y-40005688D01*
X106617447Y-40029014D01*
X106616019Y-40039872D01*
X105902400Y-44094684D01*
X105897842Y-44112686D01*
X105894537Y-44122602D01*
X105894536Y-44122607D01*
X105891051Y-44133063D01*
X105891120Y-44135596D01*
X105890568Y-44149087D01*
X105890567Y-44149088D01*
X105884400Y-44299682D01*
X105884126Y-44306380D01*
X87646213Y-44306380D01*
X87601434Y-44160824D01*
X87581707Y-44122602D01*
X87499577Y-43963479D01*
X87499576Y-43963478D01*
X87497006Y-43958498D01*
X87358399Y-43777863D01*
X87354253Y-43774090D01*
X87354251Y-43774088D01*
X87194148Y-43628406D01*
X87189995Y-43624627D01*
X87185237Y-43621642D01*
X87001874Y-43506618D01*
X87001870Y-43506616D01*
X86997118Y-43503635D01*
X86785862Y-43418711D01*
X86562907Y-43372539D01*
X86558296Y-43372273D01*
X86558295Y-43372273D01*
X86506959Y-43369313D01*
X86506955Y-43369313D01*
X86505136Y-43369208D01*
X86357940Y-43369208D01*
X86355153Y-43369457D01*
X86355147Y-43369457D01*
X86284295Y-43375781D01*
X86188927Y-43384292D01*
X86067276Y-43417572D01*
X85974727Y-43442890D01*
X85974723Y-43442891D01*
X85969311Y-43444372D01*
X85763805Y-43542394D01*
X85578905Y-43675258D01*
X85522087Y-43733889D01*
X85425036Y-43834038D01*
X85420455Y-43838765D01*
X85379568Y-43899611D01*
X85296591Y-44023094D01*
X85296590Y-44023096D01*
X85293465Y-44027747D01*
X85201947Y-44236231D01*
X85183520Y-44312985D01*
X85165685Y-44387273D01*
X85148794Y-44457626D01*
X85148471Y-44463229D01*
X85136175Y-44676495D01*
X85135688Y-44684934D01*
X83609849Y-44684934D01*
X83575962Y-44572691D01*
X83565204Y-44537058D01*
X83565203Y-44537055D01*
X83563420Y-44531150D01*
X83557132Y-44519323D01*
X83472818Y-44360755D01*
X83469924Y-44355312D01*
X83344056Y-44200981D01*
X83249312Y-44122602D01*
X83195357Y-44077966D01*
X83195352Y-44077963D01*
X83190608Y-44074038D01*
X83185189Y-44071108D01*
X83185186Y-44071106D01*
X83020846Y-43982248D01*
X83020841Y-43982246D01*
X83015426Y-43979318D01*
X82964265Y-43963481D01*
X82831070Y-43922250D01*
X82831067Y-43922249D01*
X82825183Y-43920428D01*
X82819058Y-43919784D01*
X82819057Y-43919784D01*
X82633252Y-43900255D01*
X82633251Y-43900255D01*
X82627124Y-43899611D01*
X82505358Y-43910692D01*
X82434934Y-43917101D01*
X82434933Y-43917101D01*
X82428793Y-43917660D01*
X82237746Y-43973889D01*
X82061259Y-44066154D01*
X81906054Y-44190942D01*
X81778043Y-44343500D01*
X81775074Y-44348901D01*
X81775073Y-44348902D01*
X81685073Y-44512609D01*
X81685071Y-44512614D01*
X81682101Y-44518016D01*
X81680237Y-44523891D01*
X81680236Y-44523894D01*
X81637179Y-44659628D01*
X81621884Y-44707844D01*
X81599685Y-44905753D01*
X72685096Y-44905753D01*
X72710016Y-44708492D01*
X72710414Y-44680000D01*
X72699892Y-44572691D01*
X72691581Y-44487927D01*
X72691580Y-44487924D01*
X72690980Y-44481801D01*
X72645080Y-44329769D01*
X72635204Y-44297058D01*
X72635203Y-44297055D01*
X72633420Y-44291150D01*
X72626437Y-44278016D01*
X72550709Y-44135596D01*
X72539924Y-44115312D01*
X72414056Y-43960981D01*
X72339872Y-43899611D01*
X72265357Y-43837966D01*
X72265352Y-43837963D01*
X72260608Y-43834038D01*
X72255189Y-43831108D01*
X72255186Y-43831106D01*
X72090846Y-43742248D01*
X72090841Y-43742246D01*
X72085426Y-43739318D01*
X72062260Y-43732147D01*
X71901070Y-43682250D01*
X71901067Y-43682249D01*
X71895183Y-43680428D01*
X71889058Y-43679784D01*
X71889057Y-43679784D01*
X71703252Y-43660255D01*
X71703251Y-43660255D01*
X71697124Y-43659611D01*
X71575358Y-43670692D01*
X71504934Y-43677101D01*
X71504933Y-43677101D01*
X71498793Y-43677660D01*
X71307746Y-43733889D01*
X71131259Y-43826154D01*
X71126459Y-43830014D01*
X71126458Y-43830014D01*
X71109786Y-43843419D01*
X70976054Y-43950942D01*
X70848043Y-44103500D01*
X70845074Y-44108901D01*
X70845073Y-44108902D01*
X70755073Y-44272609D01*
X70755071Y-44272614D01*
X70752101Y-44278016D01*
X70750237Y-44283891D01*
X70750236Y-44283894D01*
X70704581Y-44427818D01*
X70691884Y-44467844D01*
X70669685Y-44665753D01*
X68642205Y-44665753D01*
X68645414Y-44610091D01*
X68645414Y-44610088D01*
X68645737Y-44604484D01*
X68618384Y-44378447D01*
X68551435Y-44160826D01*
X68537106Y-44133063D01*
X68449578Y-43963481D01*
X68449577Y-43963479D01*
X68447007Y-43958500D01*
X68308400Y-43777865D01*
X68304255Y-43774094D01*
X68304252Y-43774090D01*
X68144149Y-43628408D01*
X68139996Y-43624629D01*
X68135238Y-43621644D01*
X67951875Y-43506620D01*
X67951871Y-43506618D01*
X67947119Y-43503637D01*
X67735863Y-43418713D01*
X67512908Y-43372541D01*
X67508297Y-43372275D01*
X67508296Y-43372275D01*
X67456960Y-43369315D01*
X67456956Y-43369315D01*
X67455137Y-43369210D01*
X67307941Y-43369210D01*
X67305154Y-43369459D01*
X67305148Y-43369459D01*
X67234296Y-43375783D01*
X67138928Y-43384294D01*
X67017284Y-43417572D01*
X66924728Y-43442892D01*
X66924724Y-43442893D01*
X66919312Y-43444374D01*
X66713806Y-43542396D01*
X66528906Y-43675260D01*
X66525001Y-43679290D01*
X66524999Y-43679292D01*
X66375039Y-43834038D01*
X66370456Y-43838767D01*
X66367329Y-43843421D01*
X66246592Y-44023096D01*
X66246589Y-44023101D01*
X66243466Y-44027749D01*
X66151948Y-44236233D01*
X66137345Y-44297058D01*
X66100105Y-44452172D01*
X66098795Y-44457628D01*
X66097401Y-44481801D01*
X66086176Y-44676495D01*
X66085689Y-44684936D01*
X48003984Y-44684936D01*
X47164386Y-40152645D01*
X46544727Y-36807620D01*
X107222485Y-36807620D01*
X107255735Y-36996192D01*
X107257617Y-37001361D01*
X107257617Y-37001363D01*
X107309615Y-37144219D01*
X107321228Y-37176125D01*
X107416974Y-37341950D01*
X107540063Y-37488627D01*
X107686754Y-37611699D01*
X107852590Y-37707426D01*
X107972890Y-37751198D01*
X107976013Y-37752610D01*
X107976386Y-37752889D01*
X107977823Y-37753429D01*
X107977827Y-37753431D01*
X107979426Y-37754032D01*
X107979430Y-37754033D01*
X107982305Y-37755114D01*
X107985268Y-37755908D01*
X107987799Y-37756721D01*
X107992349Y-37758279D01*
X108017179Y-37767313D01*
X108017181Y-37767313D01*
X108027682Y-37771134D01*
X108032412Y-37773339D01*
X108047349Y-37774644D01*
X108048001Y-37774701D01*
X108069644Y-37778516D01*
X108750951Y-37961070D01*
X108771580Y-37968577D01*
X108774464Y-37969921D01*
X108785814Y-37975213D01*
X108791377Y-37975699D01*
X108802049Y-37977580D01*
X108802051Y-37977581D01*
X108856046Y-37987100D01*
X108974493Y-38007982D01*
X108980000Y-38007982D01*
X109070249Y-38007980D01*
X109165953Y-38007978D01*
X109171367Y-38007023D01*
X109171371Y-38007023D01*
X109349091Y-37975685D01*
X109349096Y-37975684D01*
X109354504Y-37974730D01*
X109534418Y-37909247D01*
X109570488Y-37888423D01*
X109695465Y-37816271D01*
X109695470Y-37816267D01*
X109700229Y-37813520D01*
X109846899Y-37690456D01*
X109915959Y-37608162D01*
X109966436Y-37548011D01*
X109969974Y-37543795D01*
X110065713Y-37377991D01*
X110129445Y-37202928D01*
X110131650Y-37198200D01*
X110132612Y-37187222D01*
X110132776Y-37186609D01*
X110136159Y-37175916D01*
X110902722Y-35081916D01*
X110907938Y-35067669D01*
X112096061Y-35067669D01*
X112097553Y-35085438D01*
X112104806Y-35171801D01*
X112112726Y-35266120D01*
X112114425Y-35272045D01*
X112149673Y-35394968D01*
X112167619Y-35457555D01*
X112170434Y-35463032D01*
X112170435Y-35463035D01*
X112235660Y-35589949D01*
X112258650Y-35634683D01*
X112262473Y-35639507D01*
X112262476Y-35639511D01*
X112341898Y-35739715D01*
X112382352Y-35790755D01*
X112534012Y-35919828D01*
X112707854Y-36016985D01*
X112897257Y-36078526D01*
X113095006Y-36102106D01*
X113101141Y-36101634D01*
X113101143Y-36101634D01*
X113287428Y-36087301D01*
X113287433Y-36087300D01*
X113293569Y-36086828D01*
X113299501Y-36085172D01*
X113299505Y-36085171D01*
X113389476Y-36060050D01*
X113485383Y-36033272D01*
X113663141Y-35943480D01*
X113689566Y-35922835D01*
X113815217Y-35824665D01*
X113820073Y-35820871D01*
X113950202Y-35670116D01*
X114048571Y-35496956D01*
X114111432Y-35307987D01*
X114136392Y-35110408D01*
X114136790Y-35081916D01*
X114117356Y-34883717D01*
X114079136Y-34757124D01*
X114061580Y-34698974D01*
X114061579Y-34698971D01*
X114059796Y-34693066D01*
X114052813Y-34679932D01*
X113998955Y-34578642D01*
X113966300Y-34517228D01*
X113840432Y-34362897D01*
X113783826Y-34316069D01*
X113691733Y-34239882D01*
X113691728Y-34239879D01*
X113686984Y-34235954D01*
X113681565Y-34233024D01*
X113681562Y-34233022D01*
X113517222Y-34144164D01*
X113517217Y-34144162D01*
X113511802Y-34141234D01*
X113373667Y-34098474D01*
X113327446Y-34084166D01*
X113327443Y-34084165D01*
X113321559Y-34082344D01*
X113315434Y-34081700D01*
X113315433Y-34081700D01*
X113129628Y-34062171D01*
X113129627Y-34062171D01*
X113123500Y-34061527D01*
X113001734Y-34072608D01*
X112931310Y-34079017D01*
X112931309Y-34079017D01*
X112925169Y-34079576D01*
X112734122Y-34135805D01*
X112557635Y-34228070D01*
X112552835Y-34231930D01*
X112552834Y-34231930D01*
X112516503Y-34261141D01*
X112402430Y-34352858D01*
X112274419Y-34505416D01*
X112271450Y-34510817D01*
X112271449Y-34510818D01*
X112181449Y-34674525D01*
X112181447Y-34674530D01*
X112178477Y-34679932D01*
X112176613Y-34685807D01*
X112176612Y-34685810D01*
X112166833Y-34716637D01*
X112118260Y-34869760D01*
X112096061Y-35067669D01*
X110907938Y-35067669D01*
X110923899Y-35024069D01*
X110928023Y-35014138D01*
X110938071Y-34992589D01*
X110938072Y-34992587D01*
X110942729Y-34982598D01*
X110943234Y-34976823D01*
X110963145Y-34863890D01*
X110974525Y-34799341D01*
X110974525Y-34799338D01*
X110975481Y-34793917D01*
X110975479Y-34602459D01*
X110961410Y-34522671D01*
X110943189Y-34419329D01*
X110943188Y-34419326D01*
X110942233Y-34413909D01*
X110876754Y-34233997D01*
X110781030Y-34068186D01*
X110777494Y-34063971D01*
X110661508Y-33925731D01*
X110661504Y-33925727D01*
X110657970Y-33921515D01*
X110642705Y-33908704D01*
X110515531Y-33801979D01*
X110511313Y-33798439D01*
X110345513Y-33702697D01*
X110340344Y-33700815D01*
X110225194Y-33658891D01*
X110222085Y-33657485D01*
X110221691Y-33657191D01*
X110220175Y-33656621D01*
X110220172Y-33656620D01*
X110218654Y-33656050D01*
X110215772Y-33654967D01*
X110212798Y-33654170D01*
X110210258Y-33653355D01*
X110205681Y-33651788D01*
X110170453Y-33638962D01*
X110165725Y-33636757D01*
X110150080Y-33635387D01*
X110128478Y-33631577D01*
X109041426Y-33340303D01*
X109020789Y-33332792D01*
X109016558Y-33330819D01*
X109006575Y-33326164D01*
X109001836Y-33325749D01*
X108817903Y-33293323D01*
X108812406Y-33293323D01*
X108722193Y-33293326D01*
X108626431Y-33293329D01*
X108621018Y-33294284D01*
X108621014Y-33294284D01*
X108443289Y-33325627D01*
X108443287Y-33325627D01*
X108437869Y-33326583D01*
X108432701Y-33328464D01*
X108432698Y-33328465D01*
X108296852Y-33377913D01*
X108257946Y-33392075D01*
X108253190Y-33394821D01*
X108253188Y-33394822D01*
X108096893Y-33485064D01*
X108096890Y-33485066D01*
X108092129Y-33487815D01*
X107945457Y-33610895D01*
X107822384Y-33757574D01*
X107726652Y-33923395D01*
X107724769Y-33928569D01*
X107678402Y-34055970D01*
X107675490Y-34063257D01*
X107674914Y-34064578D01*
X107670247Y-34072151D01*
X107668558Y-34078245D01*
X107668030Y-34081272D01*
X107667956Y-34081696D01*
X107666285Y-34089264D01*
X107662933Y-34098474D01*
X107660728Y-34103203D01*
X107657877Y-34135805D01*
X107657699Y-34137835D01*
X107656305Y-34148499D01*
X107443872Y-35366495D01*
X107262577Y-36405963D01*
X107260159Y-36416921D01*
X107260013Y-36417468D01*
X107255352Y-36427462D01*
X107254946Y-36432106D01*
X107252973Y-36443290D01*
X107252973Y-36443291D01*
X107238619Y-36524678D01*
X107222488Y-36616138D01*
X107222485Y-36807620D01*
X46544727Y-36807620D01*
X46275771Y-35355753D01*
X47179685Y-35355753D01*
X47181177Y-35373522D01*
X47191543Y-35496956D01*
X47196350Y-35554204D01*
X47198049Y-35560129D01*
X47213439Y-35613799D01*
X47251243Y-35745639D01*
X47254058Y-35751116D01*
X47254059Y-35751119D01*
X47338711Y-35915835D01*
X47342274Y-35922767D01*
X47346097Y-35927591D01*
X47346100Y-35927595D01*
X47370358Y-35958200D01*
X47465976Y-36078839D01*
X47470670Y-36082834D01*
X47493315Y-36102106D01*
X47617636Y-36207912D01*
X47791478Y-36305069D01*
X47980881Y-36366610D01*
X48178630Y-36390190D01*
X48184765Y-36389718D01*
X48184767Y-36389718D01*
X48371052Y-36375385D01*
X48371057Y-36375384D01*
X48377193Y-36374912D01*
X48383125Y-36373256D01*
X48383129Y-36373255D01*
X48473100Y-36348134D01*
X48569007Y-36321356D01*
X48746765Y-36231564D01*
X48773190Y-36210919D01*
X48898841Y-36112749D01*
X48903697Y-36108955D01*
X49033826Y-35958200D01*
X49132195Y-35785040D01*
X49195056Y-35596071D01*
X49220016Y-35398492D01*
X49220414Y-35370000D01*
X49200980Y-35171801D01*
X49162416Y-35044069D01*
X49145204Y-34987058D01*
X49145203Y-34987055D01*
X49143420Y-34981150D01*
X49136437Y-34968016D01*
X49052818Y-34810755D01*
X49049924Y-34805312D01*
X48924056Y-34650981D01*
X48858850Y-34597038D01*
X48775357Y-34527966D01*
X48775352Y-34527963D01*
X48770608Y-34524038D01*
X48765189Y-34521108D01*
X48765186Y-34521106D01*
X48600846Y-34432248D01*
X48600841Y-34432246D01*
X48595426Y-34429318D01*
X48545648Y-34413909D01*
X48411070Y-34372250D01*
X48411067Y-34372249D01*
X48405183Y-34370428D01*
X48399058Y-34369784D01*
X48399057Y-34369784D01*
X48213252Y-34350255D01*
X48213251Y-34350255D01*
X48207124Y-34349611D01*
X48104261Y-34358972D01*
X48014934Y-34367101D01*
X48014933Y-34367101D01*
X48008793Y-34367660D01*
X47817746Y-34423889D01*
X47641259Y-34516154D01*
X47486054Y-34640942D01*
X47358043Y-34793500D01*
X47355074Y-34798901D01*
X47355073Y-34798902D01*
X47265073Y-34962609D01*
X47265071Y-34962614D01*
X47262101Y-34968016D01*
X47260237Y-34973891D01*
X47260236Y-34973894D01*
X47215820Y-35113911D01*
X47201884Y-35157844D01*
X47179685Y-35355753D01*
X46275771Y-35355753D01*
X45619538Y-31813299D01*
X45626797Y-31742674D01*
X45660274Y-31695685D01*
X45675922Y-31681939D01*
X45695655Y-31667728D01*
X45703021Y-31663437D01*
X45765685Y-31626933D01*
X45787768Y-31616783D01*
X45843541Y-31597416D01*
X45855505Y-31595104D01*
X45855234Y-31593983D01*
X45862749Y-31592163D01*
X45867028Y-31591462D01*
X45867724Y-31591276D01*
X45876957Y-31590693D01*
X45880387Y-31589193D01*
X45884119Y-31588867D01*
X45889117Y-31586536D01*
X46063912Y-31522917D01*
X46068671Y-31520169D01*
X46068674Y-31520168D01*
X46224961Y-31429936D01*
X46229726Y-31427185D01*
X46376398Y-31304115D01*
X46499471Y-31157446D01*
X46502218Y-31152688D01*
X46502221Y-31152684D01*
X46592456Y-30996398D01*
X46595206Y-30991635D01*
X46600668Y-30976631D01*
X46658811Y-30816894D01*
X46660695Y-30811718D01*
X46667998Y-30770309D01*
X46692992Y-30628581D01*
X46692992Y-30628576D01*
X46693947Y-30623163D01*
X46693952Y-30431698D01*
X46680762Y-30356882D01*
X46666884Y-30278156D01*
X46666883Y-30278154D01*
X46666521Y-30276100D01*
X46666436Y-30266381D01*
X46663354Y-30258138D01*
X46662534Y-30253484D01*
X46662161Y-30251367D01*
X46662160Y-30251365D01*
X46661606Y-30248221D01*
X46661151Y-30243023D01*
X46659750Y-30240018D01*
X46658109Y-30233133D01*
X46635871Y-30031999D01*
X46635190Y-30013595D01*
X46635662Y-30000564D01*
X47035686Y-30000564D01*
X47063039Y-30226601D01*
X47129988Y-30444222D01*
X47132556Y-30449197D01*
X47132560Y-30449206D01*
X47226607Y-30631419D01*
X47234416Y-30646548D01*
X47373023Y-30827183D01*
X47377168Y-30830954D01*
X47377171Y-30830958D01*
X47522822Y-30963490D01*
X47541427Y-30980419D01*
X47546183Y-30983402D01*
X47546185Y-30983404D01*
X47729548Y-31098428D01*
X47729552Y-31098430D01*
X47734304Y-31101411D01*
X47945560Y-31186335D01*
X48168515Y-31232507D01*
X48173126Y-31232773D01*
X48173127Y-31232773D01*
X48224463Y-31235733D01*
X48224467Y-31235733D01*
X48226286Y-31235838D01*
X48373482Y-31235838D01*
X48376269Y-31235589D01*
X48376275Y-31235589D01*
X48447127Y-31229265D01*
X48542495Y-31220754D01*
X48676005Y-31184230D01*
X48756695Y-31162156D01*
X48756699Y-31162155D01*
X48762111Y-31160674D01*
X48967617Y-31062652D01*
X49152517Y-30929788D01*
X49259171Y-30819730D01*
X49307064Y-30770309D01*
X49307066Y-30770306D01*
X49310967Y-30766281D01*
X49401590Y-30631419D01*
X49434831Y-30581952D01*
X49434836Y-30581943D01*
X49437957Y-30577299D01*
X49529475Y-30368815D01*
X49564958Y-30221020D01*
X49581319Y-30152874D01*
X49581320Y-30152870D01*
X49582628Y-30147420D01*
X49588996Y-30036975D01*
X49595411Y-29925719D01*
X49595411Y-29925710D01*
X49595734Y-29920112D01*
X49568381Y-29694075D01*
X49501432Y-29476454D01*
X49476563Y-29428270D01*
X49399575Y-29279109D01*
X49399574Y-29279108D01*
X49397004Y-29274128D01*
X49258397Y-29093493D01*
X49254252Y-29089722D01*
X49254249Y-29089718D01*
X49094146Y-28944036D01*
X49089993Y-28940257D01*
X49085235Y-28937272D01*
X48901872Y-28822248D01*
X48901868Y-28822246D01*
X48897116Y-28819265D01*
X48685860Y-28734341D01*
X48462905Y-28688169D01*
X48458294Y-28687903D01*
X48458293Y-28687903D01*
X48406957Y-28684943D01*
X48406953Y-28684943D01*
X48405134Y-28684838D01*
X48257938Y-28684838D01*
X48255151Y-28685087D01*
X48255145Y-28685087D01*
X48184293Y-28691411D01*
X48088925Y-28699922D01*
X47967274Y-28733202D01*
X47874725Y-28758520D01*
X47874721Y-28758521D01*
X47869309Y-28760002D01*
X47663803Y-28858024D01*
X47478903Y-28990888D01*
X47467335Y-29002825D01*
X47363080Y-29110408D01*
X47320453Y-29154395D01*
X47317326Y-29159049D01*
X47196589Y-29338724D01*
X47196586Y-29338729D01*
X47193463Y-29343377D01*
X47101945Y-29551861D01*
X47081768Y-29635902D01*
X47050104Y-29767793D01*
X47048792Y-29773256D01*
X47046981Y-29804669D01*
X47040325Y-29920112D01*
X47035686Y-30000564D01*
X46635662Y-30000564D01*
X46640240Y-29874067D01*
X46643416Y-29786306D01*
X46645426Y-29768002D01*
X46656956Y-29705519D01*
X46686695Y-29544352D01*
X46691350Y-29526536D01*
X46691686Y-29525553D01*
X46726383Y-29423846D01*
X46764782Y-29311286D01*
X46771986Y-29294338D01*
X46876011Y-29092087D01*
X46885609Y-29076369D01*
X46914261Y-29036350D01*
X47017999Y-28891452D01*
X47029785Y-28877301D01*
X47050727Y-28855602D01*
X47167763Y-28734332D01*
X47187722Y-28713651D01*
X47201446Y-28701369D01*
X47381550Y-28562492D01*
X47396916Y-28552343D01*
X47595338Y-28441204D01*
X47612021Y-28433402D01*
X47756744Y-28378219D01*
X47824529Y-28352373D01*
X47842169Y-28347087D01*
X48064224Y-28297899D01*
X48082435Y-28295243D01*
X48216952Y-28285582D01*
X48309280Y-28278951D01*
X48327696Y-28278977D01*
X48554498Y-28295926D01*
X48572715Y-28298637D01*
X48794621Y-28348466D01*
X48812240Y-28353801D01*
X49019203Y-28433402D01*
X49024515Y-28435445D01*
X49041173Y-28443294D01*
X49234550Y-28552343D01*
X49239272Y-28555006D01*
X49254607Y-28565198D01*
X49434321Y-28704606D01*
X49447999Y-28716918D01*
X49602772Y-28878221D01*
X49605462Y-28881024D01*
X49617205Y-28895206D01*
X49651945Y-28944027D01*
X49749068Y-29080517D01*
X49758620Y-29096263D01*
X49862055Y-29298804D01*
X49869210Y-29315773D01*
X49934000Y-29507508D01*
X49935436Y-29514514D01*
X49935436Y-29517836D01*
X49937072Y-29522331D01*
X49937801Y-29525052D01*
X49937801Y-29525053D01*
X49938747Y-29528583D01*
X49939822Y-29532595D01*
X49940492Y-29541140D01*
X49944430Y-29549790D01*
X49944942Y-29551701D01*
X49944942Y-29551702D01*
X49945720Y-29554605D01*
X49985409Y-29702710D01*
X49987732Y-29707691D01*
X49987734Y-29707697D01*
X50035925Y-29811037D01*
X50066332Y-29876242D01*
X50176160Y-30033084D01*
X50311554Y-30168473D01*
X50468402Y-30278293D01*
X50479471Y-30283454D01*
X50636948Y-30356882D01*
X50636950Y-30356883D01*
X50641937Y-30359208D01*
X50826886Y-30408760D01*
X50832366Y-30409239D01*
X50832370Y-30409240D01*
X51012151Y-30424964D01*
X51012153Y-30424964D01*
X51017630Y-30425443D01*
X51203230Y-30409200D01*
X51208453Y-30409200D01*
X51211573Y-30408064D01*
X51214893Y-30407993D01*
X51223725Y-30404561D01*
X51223733Y-30404560D01*
X51227919Y-30402933D01*
X51250017Y-30396597D01*
X53328552Y-30001453D01*
X53330578Y-30001085D01*
X53366006Y-29994948D01*
X55450424Y-29633872D01*
X55452396Y-29633547D01*
X57578046Y-29301007D01*
X57580046Y-29300712D01*
X59697205Y-29004857D01*
X59710680Y-29002974D01*
X59712721Y-29002705D01*
X60074941Y-28958109D01*
X61848069Y-28739805D01*
X61850067Y-28739576D01*
X63989451Y-28511600D01*
X63991416Y-28511407D01*
X65263169Y-28396871D01*
X66134159Y-28318428D01*
X66136211Y-28318260D01*
X68281837Y-28160317D01*
X68283892Y-28160183D01*
X70431745Y-28037326D01*
X70433801Y-28037225D01*
X72583439Y-27949477D01*
X72585497Y-27949410D01*
X74736216Y-27896801D01*
X74738274Y-27896767D01*
X75213402Y-27892911D01*
X76889679Y-27879307D01*
X76891638Y-27879307D01*
X78060032Y-27888918D01*
G37*
G04 #@! TD.AperFunction*
M02*
