%TF.GenerationSoftware,KiCad,Pcbnew,(6.0.11-0)*%
%TF.CreationDate,2023-02-05T15:28:06+09:00*%
%TF.ProjectId,pangaea-top-thumb-k2-4keys,70616e67-6165-4612-9d74-6f702d746875,1*%
%TF.SameCoordinates,Original*%
%TF.FileFunction,Drillmap*%
%TF.FilePolarity,Positive*%
%FSLAX45Y45*%
G04 Gerber Fmt 4.5, Leading zero omitted, Abs format (unit mm)*
G04 Created by KiCad (PCBNEW (6.0.11-0)) date 2023-02-05 15:28:06*
%MOMM*%
%LPD*%
G01*
G04 APERTURE LIST*
%ADD10C,0.150000*%
%ADD11C,0.200000*%
G04 APERTURE END LIST*
D10*
X7451055Y-5744792D02*
X7335144Y-5775850D01*
X7652299Y-6390068D02*
G75*
G03*
X7555083Y-6333942I-76669J-20542D01*
G01*
X5458524Y-6206686D02*
G75*
G03*
X5411081Y-6308414I26346J-74214D01*
G01*
X7546509Y-5512373D02*
G75*
G03*
X7602635Y-5415158I-20549J76673D01*
G01*
X7678511Y-7442713D02*
G75*
G03*
X7977881Y-7366827I119069J158723D01*
G01*
X7546508Y-5512371D02*
G75*
G03*
X5458521Y-6206678I3112912J-12848209D01*
G01*
X13228557Y-5394113D02*
G75*
G03*
X8081540Y-5393829I-2574222J-12954653D01*
G01*
X7678507Y-7442718D02*
G75*
G03*
X6109904Y-7995904I2977443J-10943322D01*
G01*
X13228557Y-5394110D02*
G75*
G03*
X13320509Y-5329727I13783J78170D01*
G01*
X6008175Y-7948461D02*
G75*
G03*
X6109904Y-7995904I74585J27141D01*
G01*
X7532681Y-6130560D02*
X7457339Y-6150748D01*
X7548269Y-5800918D02*
G75*
G03*
X7451055Y-5744792I-76669J-20542D01*
G01*
X13707454Y-5415439D02*
G75*
G03*
X13763588Y-5512655I76676J-20541D01*
G01*
X13799384Y-5585384D02*
X13490000Y-7342000D01*
X13707454Y-5415440D02*
G75*
G03*
X13320509Y-5329727I-194894J36440D01*
G01*
X7532680Y-6130558D02*
G75*
G03*
X7588807Y-6033346I-20540J76668D01*
G01*
X7360124Y-6094621D02*
X7279018Y-5873064D01*
X7548269Y-5800918D02*
X7588807Y-6033346D01*
X7989588Y-5329443D02*
G75*
G03*
X7602635Y-5415158I-191992J-49559D01*
G01*
X7724527Y-6800483D02*
X7652297Y-6390069D01*
X7625050Y-6823807D02*
X7483502Y-6435297D01*
X7335143Y-5775848D02*
G75*
G03*
X7279017Y-5873064I20547J-76672D01*
G01*
X13414560Y-7386736D02*
G75*
G03*
X7977881Y-7366826I-2758680J-11005704D01*
G01*
X7539628Y-6338080D02*
G75*
G03*
X7483502Y-6435297I20542J-76670D01*
G01*
X7625056Y-6823806D02*
G75*
G03*
X7724527Y-6800483I48764J15806D01*
G01*
X7989591Y-5329443D02*
G75*
G03*
X8081540Y-5393829I78169J13783D01*
G01*
X6008168Y-7948463D02*
X5411081Y-6308414D01*
X7555083Y-6333942D02*
X7539628Y-6338083D01*
X13414559Y-7386740D02*
G75*
G03*
X13490000Y-7342000I19591J52940D01*
G01*
X7360120Y-6094623D02*
G75*
G03*
X7457338Y-6150748I76670J20543D01*
G01*
X13799380Y-5585383D02*
G75*
G03*
X13763588Y-5512655I-52380J19393D01*
G01*
D11*
X5656238Y-8318666D02*
X5656238Y-8118666D01*
X5703857Y-8118666D01*
X5732428Y-8128189D01*
X5751476Y-8147237D01*
X5760999Y-8166285D01*
X5770523Y-8204380D01*
X5770523Y-8232951D01*
X5760999Y-8271047D01*
X5751476Y-8290094D01*
X5732428Y-8309142D01*
X5703857Y-8318666D01*
X5656238Y-8318666D01*
X5856238Y-8318666D02*
X5856238Y-8185332D01*
X5856238Y-8223427D02*
X5865761Y-8204380D01*
X5875285Y-8194856D01*
X5894333Y-8185332D01*
X5913380Y-8185332D01*
X5980047Y-8318666D02*
X5980047Y-8185332D01*
X5980047Y-8118666D02*
X5970523Y-8128189D01*
X5980047Y-8137713D01*
X5989571Y-8128189D01*
X5980047Y-8118666D01*
X5980047Y-8137713D01*
X6103857Y-8318666D02*
X6084809Y-8309142D01*
X6075285Y-8290094D01*
X6075285Y-8118666D01*
X6208619Y-8318666D02*
X6189571Y-8309142D01*
X6180047Y-8290094D01*
X6180047Y-8118666D01*
X6437190Y-8318666D02*
X6437190Y-8118666D01*
X6503857Y-8261523D01*
X6570523Y-8118666D01*
X6570523Y-8318666D01*
X6751476Y-8318666D02*
X6751476Y-8213904D01*
X6741952Y-8194856D01*
X6722904Y-8185332D01*
X6684809Y-8185332D01*
X6665761Y-8194856D01*
X6751476Y-8309142D02*
X6732428Y-8318666D01*
X6684809Y-8318666D01*
X6665761Y-8309142D01*
X6656238Y-8290094D01*
X6656238Y-8271047D01*
X6665761Y-8251999D01*
X6684809Y-8242475D01*
X6732428Y-8242475D01*
X6751476Y-8232951D01*
X6846714Y-8185332D02*
X6846714Y-8385332D01*
X6846714Y-8194856D02*
X6865761Y-8185332D01*
X6903857Y-8185332D01*
X6922904Y-8194856D01*
X6932428Y-8204380D01*
X6941952Y-8223427D01*
X6941952Y-8280570D01*
X6932428Y-8299618D01*
X6922904Y-8309142D01*
X6903857Y-8318666D01*
X6865761Y-8318666D01*
X6846714Y-8309142D01*
X7027666Y-8299618D02*
X7037190Y-8309142D01*
X7027666Y-8318666D01*
X7018142Y-8309142D01*
X7027666Y-8299618D01*
X7027666Y-8318666D01*
X7027666Y-8194856D02*
X7037190Y-8204380D01*
X7027666Y-8213904D01*
X7018142Y-8204380D01*
X7027666Y-8194856D01*
X7027666Y-8213904D01*
M02*
