%TF.GenerationSoftware,KiCad,Pcbnew,(6.0.11-0)*%
%TF.CreationDate,2023-02-05T15:28:06+09:00*%
%TF.ProjectId,pangaea-top-thumb-k2-4keys,70616e67-6165-4612-9d74-6f702d746875,1*%
%TF.SameCoordinates,Original*%
%TF.FileFunction,Drillmap*%
%TF.FilePolarity,Positive*%
%FSLAX45Y45*%
G04 Gerber Fmt 4.5, Leading zero omitted, Abs format (unit mm)*
G04 Created by KiCad (PCBNEW (6.0.11-0)) date 2023-02-05 15:28:06*
%MOMM*%
%LPD*%
G01*
G04 APERTURE LIST*
%ADD10C,0.150000*%
%ADD11C,0.200000*%
%ADD12C,0.195000*%
G04 APERTURE END LIST*
D10*
X7451055Y-5744792D02*
X7335144Y-5775850D01*
X7652299Y-6390068D02*
G75*
G03*
X7555083Y-6333942I-76669J-20542D01*
G01*
X5458524Y-6206686D02*
G75*
G03*
X5411081Y-6308414I26346J-74214D01*
G01*
X7546509Y-5512373D02*
G75*
G03*
X7602635Y-5415158I-20549J76673D01*
G01*
X7678511Y-7442713D02*
G75*
G03*
X7977881Y-7366827I119069J158723D01*
G01*
X7546508Y-5512371D02*
G75*
G03*
X5458521Y-6206678I3112912J-12848209D01*
G01*
X13228557Y-5394113D02*
G75*
G03*
X8081540Y-5393829I-2574222J-12954653D01*
G01*
X7678507Y-7442718D02*
G75*
G03*
X6109904Y-7995904I2977443J-10943322D01*
G01*
X13228557Y-5394110D02*
G75*
G03*
X13320509Y-5329727I13783J78170D01*
G01*
X6008175Y-7948461D02*
G75*
G03*
X6109904Y-7995904I74585J27141D01*
G01*
X7532681Y-6130560D02*
X7457339Y-6150748D01*
X7548269Y-5800918D02*
G75*
G03*
X7451055Y-5744792I-76669J-20542D01*
G01*
X13707454Y-5415439D02*
G75*
G03*
X13763588Y-5512655I76676J-20541D01*
G01*
X13799384Y-5585384D02*
X13490000Y-7342000D01*
X13707454Y-5415440D02*
G75*
G03*
X13320509Y-5329727I-194894J36440D01*
G01*
X7532680Y-6130558D02*
G75*
G03*
X7588807Y-6033346I-20540J76668D01*
G01*
X7360124Y-6094621D02*
X7279018Y-5873064D01*
X7548269Y-5800918D02*
X7588807Y-6033346D01*
X7989588Y-5329443D02*
G75*
G03*
X7602635Y-5415158I-191992J-49559D01*
G01*
X7724527Y-6800483D02*
X7652297Y-6390069D01*
X7625050Y-6823807D02*
X7483502Y-6435297D01*
X7335143Y-5775848D02*
G75*
G03*
X7279017Y-5873064I20547J-76672D01*
G01*
X13414560Y-7386736D02*
G75*
G03*
X7977881Y-7366826I-2758680J-11005704D01*
G01*
X7539628Y-6338080D02*
G75*
G03*
X7483502Y-6435297I20542J-76670D01*
G01*
X7625056Y-6823806D02*
G75*
G03*
X7724527Y-6800483I48764J15806D01*
G01*
X7989591Y-5329443D02*
G75*
G03*
X8081540Y-5393829I78169J13783D01*
G01*
X6008168Y-7948463D02*
X5411081Y-6308414D01*
X7555083Y-6333942D02*
X7539628Y-6338083D01*
X13414559Y-7386740D02*
G75*
G03*
X13490000Y-7342000I19591J52940D01*
G01*
X7360120Y-6094623D02*
G75*
G03*
X7457338Y-6150748I76670J20543D01*
G01*
X13799380Y-5585383D02*
G75*
G03*
X13763588Y-5512655I-52380J19393D01*
G01*
D11*
D12*
X7700069Y-7186469D02*
X7895069Y-7381469D01*
X7895069Y-7186469D02*
X7700069Y-7381469D01*
X7700069Y-5281469D02*
X7895069Y-5476469D01*
X7895069Y-5281469D02*
X7700069Y-5476469D01*
X9605070Y-6749906D02*
X9800070Y-6944906D01*
X9800070Y-6749906D02*
X9605070Y-6944906D01*
X9605070Y-6749906D02*
X9800070Y-6944906D01*
X9800070Y-6749906D02*
X9605070Y-6944906D01*
X11510070Y-6749906D02*
X11705070Y-6944906D01*
X11705070Y-6749906D02*
X11510070Y-6944906D01*
X11510070Y-6749906D02*
X11705070Y-6944906D01*
X11705070Y-6749906D02*
X11510070Y-6944906D01*
X13415065Y-5281492D02*
X13610065Y-5476492D01*
X13610065Y-5281492D02*
X13415065Y-5476492D01*
D11*
X5656238Y-8318666D02*
X5656238Y-8118666D01*
X5703857Y-8118666D01*
X5732428Y-8128189D01*
X5751476Y-8147237D01*
X5760999Y-8166285D01*
X5770523Y-8204380D01*
X5770523Y-8232951D01*
X5760999Y-8271047D01*
X5751476Y-8290094D01*
X5732428Y-8309142D01*
X5703857Y-8318666D01*
X5656238Y-8318666D01*
X5856238Y-8318666D02*
X5856238Y-8185332D01*
X5856238Y-8223427D02*
X5865761Y-8204380D01*
X5875285Y-8194856D01*
X5894333Y-8185332D01*
X5913380Y-8185332D01*
X5980047Y-8318666D02*
X5980047Y-8185332D01*
X5980047Y-8118666D02*
X5970523Y-8128189D01*
X5980047Y-8137713D01*
X5989571Y-8128189D01*
X5980047Y-8118666D01*
X5980047Y-8137713D01*
X6103857Y-8318666D02*
X6084809Y-8309142D01*
X6075285Y-8290094D01*
X6075285Y-8118666D01*
X6208619Y-8318666D02*
X6189571Y-8309142D01*
X6180047Y-8290094D01*
X6180047Y-8118666D01*
X6437190Y-8318666D02*
X6437190Y-8118666D01*
X6503857Y-8261523D01*
X6570523Y-8118666D01*
X6570523Y-8318666D01*
X6751476Y-8318666D02*
X6751476Y-8213904D01*
X6741952Y-8194856D01*
X6722904Y-8185332D01*
X6684809Y-8185332D01*
X6665761Y-8194856D01*
X6751476Y-8309142D02*
X6732428Y-8318666D01*
X6684809Y-8318666D01*
X6665761Y-8309142D01*
X6656238Y-8290094D01*
X6656238Y-8271047D01*
X6665761Y-8251999D01*
X6684809Y-8242475D01*
X6732428Y-8242475D01*
X6751476Y-8232951D01*
X6846714Y-8185332D02*
X6846714Y-8385332D01*
X6846714Y-8194856D02*
X6865761Y-8185332D01*
X6903857Y-8185332D01*
X6922904Y-8194856D01*
X6932428Y-8204380D01*
X6941952Y-8223427D01*
X6941952Y-8280570D01*
X6932428Y-8299618D01*
X6922904Y-8309142D01*
X6903857Y-8318666D01*
X6865761Y-8318666D01*
X6846714Y-8309142D01*
X7027666Y-8299618D02*
X7037190Y-8309142D01*
X7027666Y-8318666D01*
X7018142Y-8309142D01*
X7027666Y-8299618D01*
X7027666Y-8318666D01*
X7027666Y-8194856D02*
X7037190Y-8204380D01*
X7027666Y-8213904D01*
X7018142Y-8204380D01*
X7027666Y-8194856D01*
X7027666Y-8213904D01*
D12*
X5203619Y-8550690D02*
X5398619Y-8745690D01*
X5398619Y-8550690D02*
X5203619Y-8745690D01*
D11*
X5760999Y-8738666D02*
X5646714Y-8738666D01*
X5703857Y-8738666D02*
X5703857Y-8538666D01*
X5684809Y-8567237D01*
X5665761Y-8586285D01*
X5646714Y-8595809D01*
X5846714Y-8719618D02*
X5856238Y-8729142D01*
X5846714Y-8738666D01*
X5837190Y-8729142D01*
X5846714Y-8719618D01*
X5846714Y-8738666D01*
X5951476Y-8738666D02*
X5989571Y-8738666D01*
X6008619Y-8729142D01*
X6018142Y-8719618D01*
X6037190Y-8691047D01*
X6046714Y-8652951D01*
X6046714Y-8576761D01*
X6037190Y-8557713D01*
X6027666Y-8548190D01*
X6008619Y-8538666D01*
X5970523Y-8538666D01*
X5951476Y-8548190D01*
X5941952Y-8557713D01*
X5932428Y-8576761D01*
X5932428Y-8624380D01*
X5941952Y-8643428D01*
X5951476Y-8652951D01*
X5970523Y-8662475D01*
X6008619Y-8662475D01*
X6027666Y-8652951D01*
X6037190Y-8643428D01*
X6046714Y-8624380D01*
X6227666Y-8538666D02*
X6132428Y-8538666D01*
X6122904Y-8633904D01*
X6132428Y-8624380D01*
X6151476Y-8614856D01*
X6199095Y-8614856D01*
X6218142Y-8624380D01*
X6227666Y-8633904D01*
X6237190Y-8652951D01*
X6237190Y-8700570D01*
X6227666Y-8719618D01*
X6218142Y-8729142D01*
X6199095Y-8738666D01*
X6151476Y-8738666D01*
X6132428Y-8729142D01*
X6122904Y-8719618D01*
X6360999Y-8538666D02*
X6380047Y-8538666D01*
X6399095Y-8548190D01*
X6408619Y-8557713D01*
X6418142Y-8576761D01*
X6427666Y-8614856D01*
X6427666Y-8662475D01*
X6418142Y-8700570D01*
X6408619Y-8719618D01*
X6399095Y-8729142D01*
X6380047Y-8738666D01*
X6360999Y-8738666D01*
X6341952Y-8729142D01*
X6332428Y-8719618D01*
X6322904Y-8700570D01*
X6313380Y-8662475D01*
X6313380Y-8614856D01*
X6322904Y-8576761D01*
X6332428Y-8557713D01*
X6341952Y-8548190D01*
X6360999Y-8538666D01*
X6513380Y-8738666D02*
X6513380Y-8605332D01*
X6513380Y-8624380D02*
X6522904Y-8614856D01*
X6541952Y-8605332D01*
X6570523Y-8605332D01*
X6589571Y-8614856D01*
X6599095Y-8633904D01*
X6599095Y-8738666D01*
X6599095Y-8633904D02*
X6608619Y-8614856D01*
X6627666Y-8605332D01*
X6656238Y-8605332D01*
X6675285Y-8614856D01*
X6684809Y-8633904D01*
X6684809Y-8738666D01*
X6780047Y-8738666D02*
X6780047Y-8605332D01*
X6780047Y-8624380D02*
X6789571Y-8614856D01*
X6808619Y-8605332D01*
X6837190Y-8605332D01*
X6856238Y-8614856D01*
X6865761Y-8633904D01*
X6865761Y-8738666D01*
X6865761Y-8633904D02*
X6875285Y-8614856D01*
X6894333Y-8605332D01*
X6922904Y-8605332D01*
X6941952Y-8614856D01*
X6951476Y-8633904D01*
X6951476Y-8738666D01*
X7341952Y-8529142D02*
X7170523Y-8786285D01*
X7599095Y-8538666D02*
X7618142Y-8538666D01*
X7637190Y-8548190D01*
X7646714Y-8557713D01*
X7656238Y-8576761D01*
X7665761Y-8614856D01*
X7665761Y-8662475D01*
X7656238Y-8700570D01*
X7646714Y-8719618D01*
X7637190Y-8729142D01*
X7618142Y-8738666D01*
X7599095Y-8738666D01*
X7580047Y-8729142D01*
X7570523Y-8719618D01*
X7560999Y-8700570D01*
X7551476Y-8662475D01*
X7551476Y-8614856D01*
X7560999Y-8576761D01*
X7570523Y-8557713D01*
X7580047Y-8548190D01*
X7599095Y-8538666D01*
X7751476Y-8719618D02*
X7760999Y-8729142D01*
X7751476Y-8738666D01*
X7741952Y-8729142D01*
X7751476Y-8719618D01*
X7751476Y-8738666D01*
X7884809Y-8538666D02*
X7903857Y-8538666D01*
X7922904Y-8548190D01*
X7932428Y-8557713D01*
X7941952Y-8576761D01*
X7951476Y-8614856D01*
X7951476Y-8662475D01*
X7941952Y-8700570D01*
X7932428Y-8719618D01*
X7922904Y-8729142D01*
X7903857Y-8738666D01*
X7884809Y-8738666D01*
X7865761Y-8729142D01*
X7856238Y-8719618D01*
X7846714Y-8700570D01*
X7837190Y-8662475D01*
X7837190Y-8614856D01*
X7846714Y-8576761D01*
X7856238Y-8557713D01*
X7865761Y-8548190D01*
X7884809Y-8538666D01*
X8018142Y-8538666D02*
X8151476Y-8538666D01*
X8065761Y-8738666D01*
X8313380Y-8538666D02*
X8275285Y-8538666D01*
X8256238Y-8548190D01*
X8246714Y-8557713D01*
X8227666Y-8586285D01*
X8218142Y-8624380D01*
X8218142Y-8700570D01*
X8227666Y-8719618D01*
X8237190Y-8729142D01*
X8256238Y-8738666D01*
X8294333Y-8738666D01*
X8313380Y-8729142D01*
X8322904Y-8719618D01*
X8332428Y-8700570D01*
X8332428Y-8652951D01*
X8322904Y-8633904D01*
X8313380Y-8624380D01*
X8294333Y-8614856D01*
X8256238Y-8614856D01*
X8237190Y-8624380D01*
X8227666Y-8633904D01*
X8218142Y-8652951D01*
X8446714Y-8624380D02*
X8427666Y-8614856D01*
X8418142Y-8605332D01*
X8408619Y-8586285D01*
X8408619Y-8576761D01*
X8418142Y-8557713D01*
X8427666Y-8548190D01*
X8446714Y-8538666D01*
X8484809Y-8538666D01*
X8503857Y-8548190D01*
X8513381Y-8557713D01*
X8522904Y-8576761D01*
X8522904Y-8586285D01*
X8513381Y-8605332D01*
X8503857Y-8614856D01*
X8484809Y-8624380D01*
X8446714Y-8624380D01*
X8427666Y-8633904D01*
X8418142Y-8643428D01*
X8408619Y-8662475D01*
X8408619Y-8700570D01*
X8418142Y-8719618D01*
X8427666Y-8729142D01*
X8446714Y-8738666D01*
X8484809Y-8738666D01*
X8503857Y-8729142D01*
X8513381Y-8719618D01*
X8522904Y-8700570D01*
X8522904Y-8662475D01*
X8513381Y-8643428D01*
X8503857Y-8633904D01*
X8484809Y-8624380D01*
X8599095Y-8538666D02*
X8599095Y-8576761D01*
X8675285Y-8538666D02*
X8675285Y-8576761D01*
X8970523Y-8814856D02*
X8961000Y-8805332D01*
X8941952Y-8776761D01*
X8932428Y-8757713D01*
X8922904Y-8729142D01*
X8913381Y-8681523D01*
X8913381Y-8643428D01*
X8922904Y-8595809D01*
X8932428Y-8567237D01*
X8941952Y-8548190D01*
X8961000Y-8519618D01*
X8970523Y-8510094D01*
X9027666Y-8538666D02*
X9161000Y-8538666D01*
X9075285Y-8738666D01*
X9389571Y-8738666D02*
X9389571Y-8538666D01*
X9475285Y-8738666D02*
X9475285Y-8633904D01*
X9465761Y-8614856D01*
X9446714Y-8605332D01*
X9418142Y-8605332D01*
X9399095Y-8614856D01*
X9389571Y-8624380D01*
X9599095Y-8738666D02*
X9580047Y-8729142D01*
X9570523Y-8719618D01*
X9561000Y-8700570D01*
X9561000Y-8643428D01*
X9570523Y-8624380D01*
X9580047Y-8614856D01*
X9599095Y-8605332D01*
X9627666Y-8605332D01*
X9646714Y-8614856D01*
X9656238Y-8624380D01*
X9665761Y-8643428D01*
X9665761Y-8700570D01*
X9656238Y-8719618D01*
X9646714Y-8729142D01*
X9627666Y-8738666D01*
X9599095Y-8738666D01*
X9780047Y-8738666D02*
X9761000Y-8729142D01*
X9751476Y-8710094D01*
X9751476Y-8538666D01*
X9932428Y-8729142D02*
X9913381Y-8738666D01*
X9875285Y-8738666D01*
X9856238Y-8729142D01*
X9846714Y-8710094D01*
X9846714Y-8633904D01*
X9856238Y-8614856D01*
X9875285Y-8605332D01*
X9913381Y-8605332D01*
X9932428Y-8614856D01*
X9941952Y-8633904D01*
X9941952Y-8652951D01*
X9846714Y-8671999D01*
X10018142Y-8729142D02*
X10037190Y-8738666D01*
X10075285Y-8738666D01*
X10094333Y-8729142D01*
X10103857Y-8710094D01*
X10103857Y-8700570D01*
X10094333Y-8681523D01*
X10075285Y-8671999D01*
X10046714Y-8671999D01*
X10027666Y-8662475D01*
X10018142Y-8643428D01*
X10018142Y-8633904D01*
X10027666Y-8614856D01*
X10046714Y-8605332D01*
X10075285Y-8605332D01*
X10094333Y-8614856D01*
X10170523Y-8814856D02*
X10180047Y-8805332D01*
X10199095Y-8776761D01*
X10208619Y-8757713D01*
X10218142Y-8729142D01*
X10227666Y-8681523D01*
X10227666Y-8643428D01*
X10218142Y-8595809D01*
X10208619Y-8567237D01*
X10199095Y-8548190D01*
X10180047Y-8519618D01*
X10170523Y-8510094D01*
X10532428Y-8814856D02*
X10522904Y-8805332D01*
X10503857Y-8776761D01*
X10494333Y-8757713D01*
X10484809Y-8729142D01*
X10475285Y-8681523D01*
X10475285Y-8643428D01*
X10484809Y-8595809D01*
X10494333Y-8567237D01*
X10503857Y-8548190D01*
X10522904Y-8519618D01*
X10532428Y-8510094D01*
X10608619Y-8605332D02*
X10608619Y-8738666D01*
X10608619Y-8624380D02*
X10618142Y-8614856D01*
X10637190Y-8605332D01*
X10665761Y-8605332D01*
X10684809Y-8614856D01*
X10694333Y-8633904D01*
X10694333Y-8738666D01*
X10818142Y-8738666D02*
X10799095Y-8729142D01*
X10789571Y-8719618D01*
X10780047Y-8700570D01*
X10780047Y-8643428D01*
X10789571Y-8624380D01*
X10799095Y-8614856D01*
X10818142Y-8605332D01*
X10846714Y-8605332D01*
X10865761Y-8614856D01*
X10875285Y-8624380D01*
X10884809Y-8643428D01*
X10884809Y-8700570D01*
X10875285Y-8719618D01*
X10865761Y-8729142D01*
X10846714Y-8738666D01*
X10818142Y-8738666D01*
X10941952Y-8605332D02*
X11018142Y-8605332D01*
X10970523Y-8538666D02*
X10970523Y-8710094D01*
X10980047Y-8729142D01*
X10999095Y-8738666D01*
X11018142Y-8738666D01*
X11237190Y-8605332D02*
X11237190Y-8805332D01*
X11237190Y-8614856D02*
X11256238Y-8605332D01*
X11294333Y-8605332D01*
X11313380Y-8614856D01*
X11322904Y-8624380D01*
X11332428Y-8643428D01*
X11332428Y-8700570D01*
X11322904Y-8719618D01*
X11313380Y-8729142D01*
X11294333Y-8738666D01*
X11256238Y-8738666D01*
X11237190Y-8729142D01*
X11446714Y-8738666D02*
X11427666Y-8729142D01*
X11418142Y-8710094D01*
X11418142Y-8538666D01*
X11608618Y-8738666D02*
X11608618Y-8633904D01*
X11599095Y-8614856D01*
X11580047Y-8605332D01*
X11541952Y-8605332D01*
X11522904Y-8614856D01*
X11608618Y-8729142D02*
X11589571Y-8738666D01*
X11541952Y-8738666D01*
X11522904Y-8729142D01*
X11513380Y-8710094D01*
X11513380Y-8691047D01*
X11522904Y-8671999D01*
X11541952Y-8662475D01*
X11589571Y-8662475D01*
X11608618Y-8652951D01*
X11675285Y-8605332D02*
X11751476Y-8605332D01*
X11703857Y-8538666D02*
X11703857Y-8710094D01*
X11713380Y-8729142D01*
X11732428Y-8738666D01*
X11751476Y-8738666D01*
X11894333Y-8729142D02*
X11875285Y-8738666D01*
X11837190Y-8738666D01*
X11818142Y-8729142D01*
X11808618Y-8710094D01*
X11808618Y-8633904D01*
X11818142Y-8614856D01*
X11837190Y-8605332D01*
X11875285Y-8605332D01*
X11894333Y-8614856D01*
X11903857Y-8633904D01*
X11903857Y-8652951D01*
X11808618Y-8671999D01*
X12075285Y-8738666D02*
X12075285Y-8538666D01*
X12075285Y-8729142D02*
X12056238Y-8738666D01*
X12018142Y-8738666D01*
X11999095Y-8729142D01*
X11989571Y-8719618D01*
X11980047Y-8700570D01*
X11980047Y-8643428D01*
X11989571Y-8624380D01*
X11999095Y-8614856D01*
X12018142Y-8605332D01*
X12056238Y-8605332D01*
X12075285Y-8614856D01*
X12151476Y-8814856D02*
X12160999Y-8805332D01*
X12180047Y-8776761D01*
X12189571Y-8757713D01*
X12199095Y-8729142D01*
X12208618Y-8681523D01*
X12208618Y-8643428D01*
X12199095Y-8595809D01*
X12189571Y-8567237D01*
X12180047Y-8548190D01*
X12160999Y-8519618D01*
X12151476Y-8510094D01*
M02*
