G04 #@! TF.GenerationSoftware,KiCad,Pcbnew,7.0.8*
G04 #@! TF.CreationDate,2023-10-15T19:17:50+09:00*
G04 #@! TF.ProjectId,pangaea-top-thumb-k2-4keys,70616e67-6165-4612-9d74-6f702d746875,1*
G04 #@! TF.SameCoordinates,Original*
G04 #@! TF.FileFunction,Soldermask,Bot*
G04 #@! TF.FilePolarity,Negative*
%FSLAX46Y46*%
G04 Gerber Fmt 4.6, Leading zero omitted, Abs format (unit mm)*
G04 Created by KiCad (PCBNEW 7.0.8) date 2023-10-15 19:17:50*
%MOMM*%
%LPD*%
G01*
G04 APERTURE LIST*
G04 APERTURE END LIST*
G36*
X78027526Y-71669699D02*
G01*
X78084105Y-71669699D01*
X78133879Y-71679003D01*
X78179639Y-71683007D01*
X78235807Y-71698057D01*
X78297244Y-71709542D01*
X78338913Y-71725684D01*
X78377399Y-71735997D01*
X78435662Y-71763165D01*
X78499433Y-71787870D01*
X78532345Y-71808248D01*
X78562953Y-71822521D01*
X78620692Y-71862950D01*
X78683786Y-71902017D01*
X78707970Y-71924064D01*
X78730656Y-71939949D01*
X78784924Y-71994217D01*
X78844025Y-72048095D01*
X78860135Y-72069428D01*
X78875429Y-72084722D01*
X78923131Y-72152848D01*
X78974695Y-72221129D01*
X78983933Y-72239683D01*
X78992853Y-72252421D01*
X79030826Y-72333855D01*
X79071345Y-72415228D01*
X79075374Y-72429390D01*
X79079379Y-72437978D01*
X79104623Y-72532191D01*
X79130683Y-72623781D01*
X79131485Y-72632439D01*
X79132369Y-72635737D01*
X79142136Y-72747376D01*
X79150690Y-72839687D01*
X79142135Y-72932004D01*
X79132369Y-73043636D01*
X79131485Y-73046933D01*
X79130683Y-73055593D01*
X79104621Y-73147190D01*
X79079379Y-73241396D01*
X79075374Y-73249984D01*
X79071345Y-73264146D01*
X79030831Y-73345507D01*
X78992855Y-73426950D01*
X78983934Y-73439689D01*
X78974695Y-73458245D01*
X78923120Y-73526540D01*
X78875427Y-73594653D01*
X78860138Y-73609941D01*
X78844025Y-73631279D01*
X78784912Y-73685167D01*
X78730656Y-73739424D01*
X78707975Y-73755305D01*
X78683786Y-73777357D01*
X78620680Y-73816430D01*
X78562953Y-73856852D01*
X78532352Y-73871121D01*
X78499433Y-73891504D01*
X78435649Y-73916213D01*
X78377399Y-73943376D01*
X78338921Y-73953685D01*
X78297244Y-73969832D01*
X78235795Y-73981318D01*
X78179639Y-73996366D01*
X78133890Y-74000368D01*
X78084105Y-74009675D01*
X78027515Y-74009675D01*
X77975690Y-74014209D01*
X77923865Y-74009675D01*
X77867275Y-74009675D01*
X77817490Y-74000368D01*
X77771740Y-73996366D01*
X77715581Y-73981318D01*
X77654136Y-73969832D01*
X77612460Y-73953686D01*
X77573980Y-73943376D01*
X77515724Y-73916211D01*
X77451947Y-73891504D01*
X77419030Y-73871122D01*
X77388426Y-73856852D01*
X77330691Y-73816425D01*
X77267594Y-73777357D01*
X77243407Y-73755308D01*
X77220723Y-73739424D01*
X77166455Y-73685156D01*
X77107355Y-73631279D01*
X77091244Y-73609945D01*
X77075952Y-73594653D01*
X77028245Y-73526522D01*
X76976685Y-73458245D01*
X76967448Y-73439694D01*
X76958524Y-73426950D01*
X76920532Y-73345475D01*
X76880035Y-73264146D01*
X76876007Y-73249989D01*
X76872000Y-73241396D01*
X76846741Y-73147129D01*
X76820697Y-73055593D01*
X76819895Y-73046939D01*
X76819010Y-73043636D01*
X76809226Y-72931811D01*
X76800690Y-72839687D01*
X76809226Y-72747570D01*
X76819010Y-72635737D01*
X76819895Y-72632433D01*
X76820697Y-72623781D01*
X76846739Y-72532251D01*
X76872000Y-72437978D01*
X76876007Y-72429384D01*
X76880035Y-72415228D01*
X76920537Y-72333887D01*
X76958526Y-72252421D01*
X76967448Y-72239678D01*
X76976685Y-72221129D01*
X77028234Y-72152866D01*
X77075950Y-72084722D01*
X77091247Y-72069424D01*
X77107355Y-72048095D01*
X77166444Y-71994227D01*
X77220725Y-71939947D01*
X77243414Y-71924059D01*
X77267594Y-71902017D01*
X77330681Y-71862954D01*
X77388424Y-71822523D01*
X77419030Y-71808250D01*
X77451947Y-71787870D01*
X77515720Y-71763164D01*
X77573981Y-71735997D01*
X77612466Y-71725684D01*
X77654136Y-71709542D01*
X77715570Y-71698057D01*
X77771740Y-71683007D01*
X77817500Y-71679003D01*
X77867275Y-71669699D01*
X77923854Y-71669699D01*
X77975690Y-71665164D01*
X78027526Y-71669699D01*
G37*
G36*
X97077534Y-67304071D02*
G01*
X97134113Y-67304071D01*
X97183887Y-67313375D01*
X97229647Y-67317379D01*
X97285815Y-67332429D01*
X97347252Y-67343914D01*
X97388921Y-67360056D01*
X97427407Y-67370369D01*
X97485670Y-67397537D01*
X97549441Y-67422242D01*
X97549444Y-67422244D01*
X97582352Y-67442620D01*
X97612959Y-67456892D01*
X97670699Y-67497322D01*
X97733797Y-67536391D01*
X97757982Y-67558438D01*
X97780667Y-67574323D01*
X97834935Y-67628591D01*
X97894036Y-67682469D01*
X97910146Y-67703802D01*
X97925440Y-67719096D01*
X97973142Y-67787222D01*
X98024706Y-67855503D01*
X98033944Y-67874057D01*
X98042864Y-67886795D01*
X98080837Y-67968229D01*
X98121356Y-68049602D01*
X98125385Y-68063764D01*
X98129390Y-68072352D01*
X98154634Y-68166565D01*
X98180694Y-68258155D01*
X98181496Y-68266813D01*
X98182380Y-68270111D01*
X98192160Y-68381893D01*
X98200701Y-68474061D01*
X98192152Y-68566310D01*
X98182380Y-68678010D01*
X98181496Y-68681307D01*
X98180694Y-68689967D01*
X98154632Y-68781564D01*
X98129390Y-68875770D01*
X98125385Y-68884358D01*
X98121356Y-68898520D01*
X98080842Y-68979881D01*
X98042866Y-69061324D01*
X98033945Y-69074063D01*
X98024706Y-69092619D01*
X97973131Y-69160914D01*
X97925438Y-69229027D01*
X97910149Y-69244315D01*
X97894036Y-69265653D01*
X97834923Y-69319541D01*
X97780667Y-69373798D01*
X97757986Y-69389679D01*
X97733797Y-69411731D01*
X97670691Y-69450804D01*
X97612964Y-69491226D01*
X97582363Y-69505495D01*
X97549444Y-69525878D01*
X97485660Y-69550587D01*
X97427410Y-69577750D01*
X97388932Y-69588059D01*
X97347255Y-69604206D01*
X97285806Y-69615692D01*
X97229650Y-69630740D01*
X97183901Y-69634742D01*
X97134116Y-69644049D01*
X97077526Y-69644049D01*
X97025701Y-69648583D01*
X96973876Y-69644049D01*
X96917286Y-69644049D01*
X96867501Y-69634742D01*
X96821751Y-69630740D01*
X96765592Y-69615692D01*
X96704147Y-69604206D01*
X96662471Y-69588060D01*
X96623991Y-69577750D01*
X96565735Y-69550585D01*
X96501958Y-69525878D01*
X96469041Y-69505496D01*
X96438437Y-69491226D01*
X96380701Y-69450799D01*
X96317605Y-69411731D01*
X96317604Y-69411730D01*
X96317602Y-69411729D01*
X96293415Y-69389680D01*
X96270731Y-69373796D01*
X96216463Y-69319528D01*
X96157363Y-69265651D01*
X96141252Y-69244317D01*
X96125960Y-69229025D01*
X96078253Y-69160894D01*
X96026693Y-69092617D01*
X96017456Y-69074066D01*
X96008532Y-69061322D01*
X95970540Y-68979847D01*
X95930043Y-68898518D01*
X95926015Y-68884361D01*
X95922008Y-68875768D01*
X95896749Y-68781501D01*
X95870705Y-68689965D01*
X95869903Y-68681311D01*
X95869018Y-68678008D01*
X95859236Y-68566202D01*
X95850698Y-68474059D01*
X95859232Y-68381960D01*
X95869018Y-68270109D01*
X95869903Y-68266805D01*
X95870705Y-68258153D01*
X95896747Y-68166623D01*
X95922008Y-68072350D01*
X95926015Y-68063756D01*
X95930043Y-68049600D01*
X95970545Y-67968259D01*
X96008534Y-67886793D01*
X96017456Y-67874050D01*
X96026693Y-67855501D01*
X96078242Y-67787238D01*
X96125958Y-67719094D01*
X96141255Y-67703796D01*
X96157363Y-67682467D01*
X96216452Y-67628599D01*
X96270733Y-67574319D01*
X96293422Y-67558431D01*
X96317602Y-67536389D01*
X96380689Y-67497326D01*
X96438432Y-67456895D01*
X96469038Y-67442622D01*
X96501955Y-67422242D01*
X96565728Y-67397536D01*
X96623989Y-67370369D01*
X96662474Y-67360056D01*
X96704144Y-67343914D01*
X96765578Y-67332429D01*
X96821748Y-67317379D01*
X96867508Y-67313375D01*
X96917283Y-67304071D01*
X96973862Y-67304071D01*
X97025698Y-67299536D01*
X97077534Y-67304071D01*
G37*
G36*
X116127533Y-67304069D02*
G01*
X116184112Y-67304069D01*
X116233886Y-67313373D01*
X116279646Y-67317377D01*
X116335814Y-67332427D01*
X116397251Y-67343912D01*
X116438920Y-67360054D01*
X116477406Y-67370367D01*
X116535669Y-67397535D01*
X116599440Y-67422240D01*
X116632352Y-67442618D01*
X116662958Y-67456890D01*
X116720698Y-67497320D01*
X116783796Y-67536389D01*
X116807981Y-67558436D01*
X116830666Y-67574321D01*
X116884934Y-67628589D01*
X116944035Y-67682467D01*
X116960145Y-67703800D01*
X116975439Y-67719094D01*
X117023141Y-67787220D01*
X117074705Y-67855501D01*
X117083943Y-67874055D01*
X117092863Y-67886793D01*
X117130836Y-67968227D01*
X117171355Y-68049600D01*
X117175384Y-68063762D01*
X117179389Y-68072350D01*
X117204633Y-68166563D01*
X117230693Y-68258153D01*
X117231495Y-68266811D01*
X117232379Y-68270109D01*
X117242157Y-68381873D01*
X117250700Y-68474059D01*
X117242153Y-68566289D01*
X117232379Y-68678008D01*
X117231495Y-68681305D01*
X117230693Y-68689965D01*
X117204631Y-68781562D01*
X117179389Y-68875768D01*
X117175384Y-68884356D01*
X117171355Y-68898518D01*
X117130841Y-68979879D01*
X117092865Y-69061322D01*
X117083944Y-69074061D01*
X117074705Y-69092617D01*
X117023130Y-69160912D01*
X116975437Y-69229025D01*
X116960148Y-69244313D01*
X116944035Y-69265651D01*
X116884922Y-69319539D01*
X116830666Y-69373796D01*
X116807985Y-69389677D01*
X116783796Y-69411729D01*
X116720690Y-69450802D01*
X116662963Y-69491224D01*
X116632362Y-69505493D01*
X116599443Y-69525876D01*
X116535659Y-69550585D01*
X116477409Y-69577748D01*
X116438931Y-69588057D01*
X116397254Y-69604204D01*
X116335805Y-69615690D01*
X116279649Y-69630738D01*
X116233900Y-69634740D01*
X116184115Y-69644047D01*
X116127525Y-69644047D01*
X116075700Y-69648581D01*
X116023875Y-69644047D01*
X115967285Y-69644047D01*
X115917500Y-69634740D01*
X115871750Y-69630738D01*
X115815591Y-69615690D01*
X115754146Y-69604204D01*
X115712470Y-69588058D01*
X115673990Y-69577748D01*
X115615734Y-69550583D01*
X115551957Y-69525876D01*
X115519040Y-69505494D01*
X115488436Y-69491224D01*
X115430700Y-69450797D01*
X115367604Y-69411729D01*
X115367603Y-69411728D01*
X115367601Y-69411727D01*
X115343414Y-69389678D01*
X115320730Y-69373794D01*
X115266462Y-69319526D01*
X115207362Y-69265649D01*
X115191251Y-69244315D01*
X115175959Y-69229023D01*
X115128252Y-69160892D01*
X115076692Y-69092615D01*
X115067455Y-69074064D01*
X115058531Y-69061320D01*
X115020539Y-68979845D01*
X114980042Y-68898516D01*
X114976014Y-68884359D01*
X114972007Y-68875766D01*
X114946748Y-68781499D01*
X114920704Y-68689963D01*
X114919902Y-68681309D01*
X114919017Y-68678006D01*
X114909233Y-68566181D01*
X114900697Y-68474057D01*
X114909233Y-68381940D01*
X114919017Y-68270107D01*
X114919902Y-68266803D01*
X114920704Y-68258151D01*
X114946746Y-68166621D01*
X114972007Y-68072348D01*
X114976014Y-68063754D01*
X114980042Y-68049598D01*
X115020544Y-67968257D01*
X115058533Y-67886791D01*
X115067455Y-67874048D01*
X115076692Y-67855499D01*
X115128241Y-67787236D01*
X115175957Y-67719092D01*
X115191254Y-67703794D01*
X115207362Y-67682465D01*
X115266451Y-67628597D01*
X115320732Y-67574317D01*
X115343421Y-67558429D01*
X115367601Y-67536387D01*
X115430688Y-67497324D01*
X115488431Y-67456893D01*
X115519037Y-67442620D01*
X115551954Y-67422240D01*
X115615727Y-67397534D01*
X115673988Y-67370367D01*
X115712473Y-67360054D01*
X115754143Y-67343912D01*
X115815577Y-67332427D01*
X115871747Y-67317377D01*
X115917507Y-67313373D01*
X115967282Y-67304069D01*
X116023861Y-67304069D01*
X116075697Y-67299534D01*
X116127533Y-67304069D01*
G37*
G36*
X135177483Y-52619932D02*
G01*
X135234062Y-52619932D01*
X135283836Y-52629236D01*
X135329596Y-52633240D01*
X135385764Y-52648290D01*
X135447201Y-52659775D01*
X135488870Y-52675917D01*
X135527356Y-52686230D01*
X135585619Y-52713398D01*
X135649390Y-52738103D01*
X135682302Y-52758481D01*
X135712910Y-52772754D01*
X135770649Y-52813183D01*
X135833743Y-52852250D01*
X135857927Y-52874297D01*
X135880613Y-52890182D01*
X135934881Y-52944450D01*
X135993982Y-52998328D01*
X136010092Y-53019661D01*
X136025386Y-53034955D01*
X136073088Y-53103081D01*
X136124652Y-53171362D01*
X136133890Y-53189916D01*
X136142810Y-53202654D01*
X136180783Y-53284088D01*
X136221302Y-53365461D01*
X136225331Y-53379623D01*
X136229336Y-53388211D01*
X136254580Y-53482424D01*
X136280640Y-53574014D01*
X136281442Y-53582672D01*
X136282326Y-53585970D01*
X136292093Y-53697609D01*
X136300647Y-53789920D01*
X136292092Y-53882237D01*
X136282326Y-53993869D01*
X136281442Y-53997166D01*
X136280640Y-54005826D01*
X136254578Y-54097423D01*
X136229336Y-54191629D01*
X136225331Y-54200217D01*
X136221302Y-54214379D01*
X136180788Y-54295740D01*
X136142812Y-54377183D01*
X136133891Y-54389922D01*
X136124652Y-54408478D01*
X136073077Y-54476773D01*
X136025384Y-54544886D01*
X136010095Y-54560174D01*
X135993982Y-54581512D01*
X135934869Y-54635400D01*
X135880613Y-54689657D01*
X135857932Y-54705538D01*
X135833743Y-54727590D01*
X135770637Y-54766663D01*
X135712910Y-54807085D01*
X135682309Y-54821354D01*
X135649390Y-54841737D01*
X135585606Y-54866446D01*
X135527356Y-54893609D01*
X135488878Y-54903918D01*
X135447201Y-54920065D01*
X135385752Y-54931551D01*
X135329596Y-54946599D01*
X135283847Y-54950601D01*
X135234062Y-54959908D01*
X135177472Y-54959908D01*
X135125647Y-54964442D01*
X135073822Y-54959908D01*
X135017232Y-54959908D01*
X134967447Y-54950601D01*
X134921697Y-54946599D01*
X134865538Y-54931551D01*
X134804093Y-54920065D01*
X134762417Y-54903919D01*
X134723937Y-54893609D01*
X134665681Y-54866444D01*
X134601904Y-54841737D01*
X134568987Y-54821355D01*
X134538383Y-54807085D01*
X134480648Y-54766658D01*
X134417551Y-54727590D01*
X134393364Y-54705541D01*
X134370680Y-54689657D01*
X134316412Y-54635389D01*
X134257312Y-54581512D01*
X134241201Y-54560178D01*
X134225909Y-54544886D01*
X134178202Y-54476755D01*
X134126642Y-54408478D01*
X134117405Y-54389927D01*
X134108481Y-54377183D01*
X134070489Y-54295708D01*
X134029992Y-54214379D01*
X134025964Y-54200222D01*
X134021957Y-54191629D01*
X133996698Y-54097362D01*
X133970654Y-54005826D01*
X133969852Y-53997172D01*
X133968967Y-53993869D01*
X133959183Y-53882044D01*
X133950647Y-53789920D01*
X133959183Y-53697803D01*
X133968967Y-53585970D01*
X133969852Y-53582666D01*
X133970654Y-53574014D01*
X133996696Y-53482484D01*
X134021957Y-53388211D01*
X134025964Y-53379617D01*
X134029992Y-53365461D01*
X134070494Y-53284120D01*
X134108483Y-53202654D01*
X134117405Y-53189911D01*
X134126642Y-53171362D01*
X134178191Y-53103099D01*
X134225907Y-53034955D01*
X134241204Y-53019657D01*
X134257312Y-52998328D01*
X134316401Y-52944460D01*
X134370682Y-52890180D01*
X134393371Y-52874292D01*
X134417551Y-52852250D01*
X134480638Y-52813187D01*
X134538381Y-52772756D01*
X134568987Y-52758483D01*
X134601904Y-52738103D01*
X134665677Y-52713397D01*
X134723938Y-52686230D01*
X134762423Y-52675917D01*
X134804093Y-52659775D01*
X134865527Y-52648290D01*
X134921697Y-52633240D01*
X134967457Y-52629236D01*
X135017232Y-52619932D01*
X135073811Y-52619932D01*
X135125647Y-52615397D01*
X135177483Y-52619932D01*
G37*
G36*
X78027531Y-52619699D02*
G01*
X78084110Y-52619699D01*
X78133884Y-52629003D01*
X78179644Y-52633007D01*
X78235812Y-52648057D01*
X78297249Y-52659542D01*
X78338918Y-52675684D01*
X78377404Y-52685997D01*
X78435667Y-52713165D01*
X78499438Y-52737870D01*
X78532350Y-52758248D01*
X78562958Y-52772521D01*
X78620697Y-52812950D01*
X78683791Y-52852017D01*
X78707975Y-52874064D01*
X78730661Y-52889949D01*
X78784929Y-52944217D01*
X78844030Y-52998095D01*
X78860140Y-53019428D01*
X78875434Y-53034722D01*
X78923136Y-53102848D01*
X78974700Y-53171129D01*
X78983938Y-53189683D01*
X78992858Y-53202421D01*
X79030831Y-53283855D01*
X79071350Y-53365228D01*
X79075379Y-53379390D01*
X79079384Y-53387978D01*
X79104628Y-53482191D01*
X79130688Y-53573781D01*
X79131490Y-53582439D01*
X79132374Y-53585737D01*
X79142141Y-53697376D01*
X79150695Y-53789687D01*
X79142140Y-53882004D01*
X79132374Y-53993636D01*
X79131490Y-53996933D01*
X79130688Y-54005593D01*
X79104626Y-54097190D01*
X79079384Y-54191396D01*
X79075379Y-54199984D01*
X79071350Y-54214146D01*
X79030836Y-54295507D01*
X78992860Y-54376950D01*
X78983939Y-54389689D01*
X78974700Y-54408245D01*
X78923125Y-54476540D01*
X78875432Y-54544653D01*
X78860143Y-54559941D01*
X78844030Y-54581279D01*
X78784917Y-54635167D01*
X78730661Y-54689424D01*
X78707980Y-54705305D01*
X78683791Y-54727357D01*
X78620685Y-54766430D01*
X78562958Y-54806852D01*
X78532357Y-54821121D01*
X78499438Y-54841504D01*
X78435654Y-54866213D01*
X78377404Y-54893376D01*
X78338926Y-54903685D01*
X78297249Y-54919832D01*
X78235800Y-54931318D01*
X78179644Y-54946366D01*
X78133895Y-54950368D01*
X78084110Y-54959675D01*
X78027520Y-54959675D01*
X77975695Y-54964209D01*
X77923870Y-54959675D01*
X77867280Y-54959675D01*
X77817495Y-54950368D01*
X77771745Y-54946366D01*
X77715586Y-54931318D01*
X77654141Y-54919832D01*
X77612465Y-54903686D01*
X77573985Y-54893376D01*
X77515729Y-54866211D01*
X77451952Y-54841504D01*
X77419035Y-54821122D01*
X77388431Y-54806852D01*
X77330696Y-54766425D01*
X77267599Y-54727357D01*
X77243412Y-54705308D01*
X77220728Y-54689424D01*
X77166460Y-54635156D01*
X77107360Y-54581279D01*
X77091249Y-54559945D01*
X77075957Y-54544653D01*
X77028250Y-54476522D01*
X76976690Y-54408245D01*
X76967453Y-54389694D01*
X76958529Y-54376950D01*
X76920537Y-54295475D01*
X76880040Y-54214146D01*
X76876012Y-54199989D01*
X76872005Y-54191396D01*
X76846746Y-54097129D01*
X76820702Y-54005593D01*
X76819900Y-53996939D01*
X76819015Y-53993636D01*
X76809231Y-53881811D01*
X76800695Y-53789687D01*
X76809231Y-53697570D01*
X76819015Y-53585737D01*
X76819900Y-53582433D01*
X76820702Y-53573781D01*
X76846744Y-53482251D01*
X76872005Y-53387978D01*
X76876012Y-53379384D01*
X76880040Y-53365228D01*
X76920542Y-53283887D01*
X76958531Y-53202421D01*
X76967453Y-53189678D01*
X76976690Y-53171129D01*
X77028239Y-53102866D01*
X77075955Y-53034722D01*
X77091252Y-53019424D01*
X77107360Y-52998095D01*
X77166449Y-52944227D01*
X77220730Y-52889947D01*
X77243419Y-52874059D01*
X77267599Y-52852017D01*
X77330686Y-52812954D01*
X77388429Y-52772523D01*
X77419035Y-52758250D01*
X77451952Y-52737870D01*
X77515725Y-52713164D01*
X77573986Y-52685997D01*
X77612471Y-52675684D01*
X77654141Y-52659542D01*
X77715575Y-52648057D01*
X77771745Y-52633007D01*
X77817505Y-52629003D01*
X77867280Y-52619699D01*
X77923859Y-52619699D01*
X77975695Y-52615164D01*
X78027531Y-52619699D01*
G37*
M02*
