G04 #@! TF.GenerationSoftware,KiCad,Pcbnew,7.0.8*
G04 #@! TF.CreationDate,2023-10-15T19:17:50+09:00*
G04 #@! TF.ProjectId,pangaea-top-thumb-k2-4keys,70616e67-6165-4612-9d74-6f702d746875,1*
G04 #@! TF.SameCoordinates,Original*
G04 #@! TF.FileFunction,Legend,Bot*
G04 #@! TF.FilePolarity,Positive*
%FSLAX46Y46*%
G04 Gerber Fmt 4.6, Leading zero omitted, Abs format (unit mm)*
G04 Created by KiCad (PCBNEW 7.0.8) date 2023-10-15 19:17:50*
%MOMM*%
%LPD*%
G01*
G04 APERTURE LIST*
%ADD10C,0.250000*%
%ADD11C,0.300000*%
%ADD12C,2.350000*%
G04 APERTURE END LIST*
D10*
X123090254Y-70206963D02*
X123239210Y-70184875D01*
X123239210Y-70184875D02*
X123294374Y-70146248D01*
X123294374Y-70146248D02*
X123357808Y-70060726D01*
X123357808Y-70060726D02*
X123382615Y-69920039D01*
X123382615Y-69920039D02*
X123352257Y-69817979D01*
X123352257Y-69817979D02*
X123313630Y-69762814D01*
X123313630Y-69762814D02*
X123228108Y-69699381D01*
X123228108Y-69699381D02*
X122852943Y-69633229D01*
X122852943Y-69633229D02*
X122679295Y-70618037D01*
X122679295Y-70618037D02*
X123007564Y-70675919D01*
X123007564Y-70675919D02*
X123109624Y-70645562D01*
X123109624Y-70645562D02*
X123164789Y-70606935D01*
X123164789Y-70606935D02*
X123228223Y-70521413D01*
X123228223Y-70521413D02*
X123244760Y-70427622D01*
X123244760Y-70427622D02*
X123214403Y-70325561D01*
X123214403Y-70325561D02*
X123175776Y-70270397D01*
X123175776Y-70270397D02*
X123090254Y-70206963D01*
X123090254Y-70206963D02*
X122761985Y-70149081D01*
X123978438Y-69831684D02*
X123876378Y-69862042D01*
X123876378Y-69862042D02*
X123821213Y-69900668D01*
X123821213Y-69900668D02*
X123757779Y-69986191D01*
X123757779Y-69986191D02*
X123708166Y-70267564D01*
X123708166Y-70267564D02*
X123738523Y-70369624D01*
X123738523Y-70369624D02*
X123777150Y-70424789D01*
X123777150Y-70424789D02*
X123862672Y-70488223D01*
X123862672Y-70488223D02*
X124003359Y-70513029D01*
X124003359Y-70513029D02*
X124105419Y-70482672D01*
X124105419Y-70482672D02*
X124160584Y-70444045D01*
X124160584Y-70444045D02*
X124224017Y-70358523D01*
X124224017Y-70358523D02*
X124273631Y-70077149D01*
X124273631Y-70077149D02*
X124243273Y-69975089D01*
X124243273Y-69975089D02*
X124204647Y-69919924D01*
X124204647Y-69919924D02*
X124119125Y-69856491D01*
X124119125Y-69856491D02*
X123978438Y-69831684D01*
X124472315Y-70595719D02*
X124847480Y-70661871D01*
X124555119Y-70948795D02*
X124703961Y-70104674D01*
X124703961Y-70104674D02*
X124767394Y-70019152D01*
X124767394Y-70019152D02*
X124869454Y-69988794D01*
X124869454Y-69988794D02*
X124963246Y-70005332D01*
X125035063Y-70694947D02*
X125410228Y-70761098D01*
X125117867Y-71048023D02*
X125266708Y-70203902D01*
X125266708Y-70203902D02*
X125330142Y-70118380D01*
X125330142Y-70118380D02*
X125432202Y-70088022D01*
X125432202Y-70088022D02*
X125525993Y-70104560D01*
X125994950Y-70187249D02*
X125892890Y-70217607D01*
X125892890Y-70217607D02*
X125837725Y-70256234D01*
X125837725Y-70256234D02*
X125774292Y-70341756D01*
X125774292Y-70341756D02*
X125724678Y-70623130D01*
X125724678Y-70623130D02*
X125755035Y-70725190D01*
X125755035Y-70725190D02*
X125793662Y-70780354D01*
X125793662Y-70780354D02*
X125879184Y-70843788D01*
X125879184Y-70843788D02*
X126019871Y-70868595D01*
X126019871Y-70868595D02*
X126121931Y-70838237D01*
X126121931Y-70838237D02*
X126177096Y-70799611D01*
X126177096Y-70799611D02*
X126240529Y-70714088D01*
X126240529Y-70714088D02*
X126290143Y-70432715D01*
X126290143Y-70432715D02*
X126259786Y-70330654D01*
X126259786Y-70330654D02*
X126221159Y-70275490D01*
X126221159Y-70275490D02*
X126135637Y-70212056D01*
X126135637Y-70212056D02*
X125994950Y-70187249D01*
X126745280Y-70319553D02*
X126629514Y-70976091D01*
X126646052Y-70882300D02*
X126684679Y-70937465D01*
X126684679Y-70937465D02*
X126770201Y-71000898D01*
X126770201Y-71000898D02*
X126910888Y-71025705D01*
X126910888Y-71025705D02*
X127012948Y-70995347D01*
X127012948Y-70995347D02*
X127076381Y-70909825D01*
X127076381Y-70909825D02*
X127167340Y-70393974D01*
X127076381Y-70909825D02*
X127106739Y-71011885D01*
X127106739Y-71011885D02*
X127192261Y-71075319D01*
X127192261Y-71075319D02*
X127332948Y-71100126D01*
X127332948Y-71100126D02*
X127435008Y-71069768D01*
X127435008Y-71069768D02*
X127498442Y-70984246D01*
X127498442Y-70984246D02*
X127589401Y-70468394D01*
X115610809Y-57165901D02*
X115610809Y-56832568D01*
X116134619Y-56832568D02*
X115134619Y-56832568D01*
X115134619Y-56832568D02*
X115134619Y-57308758D01*
X116087000Y-58070663D02*
X116134619Y-57975425D01*
X116134619Y-57975425D02*
X116134619Y-57784949D01*
X116134619Y-57784949D02*
X116087000Y-57689711D01*
X116087000Y-57689711D02*
X115991761Y-57642092D01*
X115991761Y-57642092D02*
X115610809Y-57642092D01*
X115610809Y-57642092D02*
X115515571Y-57689711D01*
X115515571Y-57689711D02*
X115467952Y-57784949D01*
X115467952Y-57784949D02*
X115467952Y-57975425D01*
X115467952Y-57975425D02*
X115515571Y-58070663D01*
X115515571Y-58070663D02*
X115610809Y-58118282D01*
X115610809Y-58118282D02*
X115706047Y-58118282D01*
X115706047Y-58118282D02*
X115801285Y-57642092D01*
X116134619Y-58546854D02*
X115134619Y-58546854D01*
X115515571Y-58546854D02*
X115467952Y-58642092D01*
X115467952Y-58642092D02*
X115467952Y-58832568D01*
X115467952Y-58832568D02*
X115515571Y-58927806D01*
X115515571Y-58927806D02*
X115563190Y-58975425D01*
X115563190Y-58975425D02*
X115658428Y-59023044D01*
X115658428Y-59023044D02*
X115944142Y-59023044D01*
X115944142Y-59023044D02*
X116039380Y-58975425D01*
X116039380Y-58975425D02*
X116087000Y-58927806D01*
X116087000Y-58927806D02*
X116134619Y-58832568D01*
X116134619Y-58832568D02*
X116134619Y-58642092D01*
X116134619Y-58642092D02*
X116087000Y-58546854D01*
X115134619Y-60689711D02*
X115134619Y-60213521D01*
X115134619Y-60213521D02*
X115610809Y-60165902D01*
X115610809Y-60165902D02*
X115563190Y-60213521D01*
X115563190Y-60213521D02*
X115515571Y-60308759D01*
X115515571Y-60308759D02*
X115515571Y-60546854D01*
X115515571Y-60546854D02*
X115563190Y-60642092D01*
X115563190Y-60642092D02*
X115610809Y-60689711D01*
X115610809Y-60689711D02*
X115706047Y-60737330D01*
X115706047Y-60737330D02*
X115944142Y-60737330D01*
X115944142Y-60737330D02*
X116039380Y-60689711D01*
X116039380Y-60689711D02*
X116087000Y-60642092D01*
X116087000Y-60642092D02*
X116134619Y-60546854D01*
X116134619Y-60546854D02*
X116134619Y-60308759D01*
X116134619Y-60308759D02*
X116087000Y-60213521D01*
X116087000Y-60213521D02*
X116039380Y-60165902D01*
X116087000Y-61213521D02*
X116134619Y-61213521D01*
X116134619Y-61213521D02*
X116229857Y-61165902D01*
X116229857Y-61165902D02*
X116277476Y-61118283D01*
X115229857Y-62356378D02*
X115182238Y-62403997D01*
X115182238Y-62403997D02*
X115134619Y-62499235D01*
X115134619Y-62499235D02*
X115134619Y-62737330D01*
X115134619Y-62737330D02*
X115182238Y-62832568D01*
X115182238Y-62832568D02*
X115229857Y-62880187D01*
X115229857Y-62880187D02*
X115325095Y-62927806D01*
X115325095Y-62927806D02*
X115420333Y-62927806D01*
X115420333Y-62927806D02*
X115563190Y-62880187D01*
X115563190Y-62880187D02*
X116134619Y-62308759D01*
X116134619Y-62308759D02*
X116134619Y-62927806D01*
X115134619Y-63546854D02*
X115134619Y-63642092D01*
X115134619Y-63642092D02*
X115182238Y-63737330D01*
X115182238Y-63737330D02*
X115229857Y-63784949D01*
X115229857Y-63784949D02*
X115325095Y-63832568D01*
X115325095Y-63832568D02*
X115515571Y-63880187D01*
X115515571Y-63880187D02*
X115753666Y-63880187D01*
X115753666Y-63880187D02*
X115944142Y-63832568D01*
X115944142Y-63832568D02*
X116039380Y-63784949D01*
X116039380Y-63784949D02*
X116087000Y-63737330D01*
X116087000Y-63737330D02*
X116134619Y-63642092D01*
X116134619Y-63642092D02*
X116134619Y-63546854D01*
X116134619Y-63546854D02*
X116087000Y-63451616D01*
X116087000Y-63451616D02*
X116039380Y-63403997D01*
X116039380Y-63403997D02*
X115944142Y-63356378D01*
X115944142Y-63356378D02*
X115753666Y-63308759D01*
X115753666Y-63308759D02*
X115515571Y-63308759D01*
X115515571Y-63308759D02*
X115325095Y-63356378D01*
X115325095Y-63356378D02*
X115229857Y-63403997D01*
X115229857Y-63403997D02*
X115182238Y-63451616D01*
X115182238Y-63451616D02*
X115134619Y-63546854D01*
X115229857Y-64261140D02*
X115182238Y-64308759D01*
X115182238Y-64308759D02*
X115134619Y-64403997D01*
X115134619Y-64403997D02*
X115134619Y-64642092D01*
X115134619Y-64642092D02*
X115182238Y-64737330D01*
X115182238Y-64737330D02*
X115229857Y-64784949D01*
X115229857Y-64784949D02*
X115325095Y-64832568D01*
X115325095Y-64832568D02*
X115420333Y-64832568D01*
X115420333Y-64832568D02*
X115563190Y-64784949D01*
X115563190Y-64784949D02*
X116134619Y-64213521D01*
X116134619Y-64213521D02*
X116134619Y-64832568D01*
X115134619Y-65165902D02*
X115134619Y-65784949D01*
X115134619Y-65784949D02*
X115515571Y-65451616D01*
X115515571Y-65451616D02*
X115515571Y-65594473D01*
X115515571Y-65594473D02*
X115563190Y-65689711D01*
X115563190Y-65689711D02*
X115610809Y-65737330D01*
X115610809Y-65737330D02*
X115706047Y-65784949D01*
X115706047Y-65784949D02*
X115944142Y-65784949D01*
X115944142Y-65784949D02*
X116039380Y-65737330D01*
X116039380Y-65737330D02*
X116087000Y-65689711D01*
X116087000Y-65689711D02*
X116134619Y-65594473D01*
X116134619Y-65594473D02*
X116134619Y-65308759D01*
X116134619Y-65308759D02*
X116087000Y-65213521D01*
X116087000Y-65213521D02*
X116039380Y-65165902D01*
X117268428Y-57451615D02*
X117220809Y-57403996D01*
X117220809Y-57403996D02*
X117173190Y-57308758D01*
X117173190Y-57308758D02*
X117173190Y-57213520D01*
X117173190Y-57213520D02*
X117220809Y-57118282D01*
X117220809Y-57118282D02*
X117268428Y-57070663D01*
X117268428Y-57070663D02*
X117363666Y-57023044D01*
X117363666Y-57023044D02*
X117458904Y-57023044D01*
X117458904Y-57023044D02*
X117554142Y-57070663D01*
X117554142Y-57070663D02*
X117601761Y-57118282D01*
X117601761Y-57118282D02*
X117649380Y-57213520D01*
X117649380Y-57213520D02*
X117649380Y-57308758D01*
X117649380Y-57308758D02*
X117601761Y-57403996D01*
X117601761Y-57403996D02*
X117554142Y-57451615D01*
X117173190Y-57451615D02*
X117554142Y-57451615D01*
X117554142Y-57451615D02*
X117601761Y-57499234D01*
X117601761Y-57499234D02*
X117601761Y-57546853D01*
X117601761Y-57546853D02*
X117554142Y-57642092D01*
X117554142Y-57642092D02*
X117458904Y-57689711D01*
X117458904Y-57689711D02*
X117220809Y-57689711D01*
X117220809Y-57689711D02*
X117077952Y-57594473D01*
X117077952Y-57594473D02*
X116982714Y-57451615D01*
X116982714Y-57451615D02*
X116935095Y-57261139D01*
X116935095Y-57261139D02*
X116982714Y-57070663D01*
X116982714Y-57070663D02*
X117077952Y-56927806D01*
X117077952Y-56927806D02*
X117220809Y-56832568D01*
X117220809Y-56832568D02*
X117411285Y-56784949D01*
X117411285Y-56784949D02*
X117601761Y-56832568D01*
X117601761Y-56832568D02*
X117744619Y-56927806D01*
X117744619Y-56927806D02*
X117839857Y-57070663D01*
X117839857Y-57070663D02*
X117887476Y-57261139D01*
X117887476Y-57261139D02*
X117839857Y-57451615D01*
X117839857Y-57451615D02*
X117744619Y-57594473D01*
X117744619Y-58118282D02*
X116744619Y-58118282D01*
X117363666Y-58213520D02*
X117744619Y-58499234D01*
X117077952Y-58499234D02*
X117458904Y-58118282D01*
X116839857Y-58880187D02*
X116792238Y-58927806D01*
X116792238Y-58927806D02*
X116744619Y-59023044D01*
X116744619Y-59023044D02*
X116744619Y-59261139D01*
X116744619Y-59261139D02*
X116792238Y-59356377D01*
X116792238Y-59356377D02*
X116839857Y-59403996D01*
X116839857Y-59403996D02*
X116935095Y-59451615D01*
X116935095Y-59451615D02*
X117030333Y-59451615D01*
X117030333Y-59451615D02*
X117173190Y-59403996D01*
X117173190Y-59403996D02*
X117744619Y-58832568D01*
X117744619Y-58832568D02*
X117744619Y-59451615D01*
D11*
G36*
X119152782Y-54501828D02*
G01*
X119060100Y-54501828D01*
X119012481Y-54287542D01*
X119105163Y-54287542D01*
X119152782Y-54501828D01*
G37*
G36*
X119889775Y-55483971D02*
G01*
X114961203Y-55483971D01*
X114961203Y-54937542D01*
X115132632Y-54937542D01*
X115152728Y-55012542D01*
X115207632Y-55067446D01*
X115282632Y-55087542D01*
X116025489Y-55087542D01*
X116044564Y-55082431D01*
X116064312Y-55082431D01*
X116081414Y-55072557D01*
X116100489Y-55067446D01*
X116114453Y-55053481D01*
X116131555Y-55043608D01*
X116141428Y-55026506D01*
X116155393Y-55012542D01*
X116160504Y-54993467D01*
X116170378Y-54976365D01*
X116170378Y-54956616D01*
X116175489Y-54937542D01*
X116170378Y-54918467D01*
X116170378Y-54898719D01*
X116160504Y-54881616D01*
X116155393Y-54862542D01*
X116141428Y-54848577D01*
X116131555Y-54831476D01*
X116009050Y-54708971D01*
X116275489Y-54708971D01*
X116284412Y-54742272D01*
X116291325Y-54776053D01*
X116348468Y-54890339D01*
X116364490Y-54908407D01*
X116376566Y-54929323D01*
X116433709Y-54986466D01*
X116454623Y-54998540D01*
X116472693Y-55014564D01*
X116586978Y-55071706D01*
X116620758Y-55078618D01*
X116654060Y-55087542D01*
X116939775Y-55087542D01*
X116973078Y-55078618D01*
X117006857Y-55071706D01*
X117121141Y-55014564D01*
X117139208Y-54998542D01*
X117160126Y-54986466D01*
X117209050Y-54937542D01*
X117418346Y-54937542D01*
X117438442Y-55012542D01*
X117493346Y-55067446D01*
X117568346Y-55087542D01*
X117911203Y-55087542D01*
X118254060Y-55087542D01*
X118329060Y-55067446D01*
X118383964Y-55012542D01*
X118404060Y-54937542D01*
X118383964Y-54862542D01*
X118329060Y-54807638D01*
X118254060Y-54787542D01*
X118061203Y-54787542D01*
X118061203Y-54147233D01*
X118072692Y-54157421D01*
X118186978Y-54214564D01*
X118263048Y-54230131D01*
X118336709Y-54205577D01*
X118388224Y-54147482D01*
X118390258Y-54137542D01*
X118446917Y-54137542D01*
X118467013Y-54212542D01*
X118521917Y-54267446D01*
X118596917Y-54287542D01*
X118705163Y-54287542D01*
X118752782Y-54501828D01*
X118711203Y-54501828D01*
X118636203Y-54521924D01*
X118581299Y-54576828D01*
X118561203Y-54651828D01*
X118581299Y-54726828D01*
X118636203Y-54781732D01*
X118711203Y-54801828D01*
X118819449Y-54801828D01*
X118907632Y-55198653D01*
X118943519Y-55267508D01*
X119009026Y-55309194D01*
X119086600Y-55312542D01*
X119155454Y-55276655D01*
X119197140Y-55211148D01*
X119200488Y-55133574D01*
X119126767Y-54801828D01*
X119219449Y-54801828D01*
X119307632Y-55198653D01*
X119343519Y-55267508D01*
X119409026Y-55309194D01*
X119486600Y-55312542D01*
X119555454Y-55276655D01*
X119597140Y-55211148D01*
X119600488Y-55133574D01*
X119526767Y-54801828D01*
X119568346Y-54801828D01*
X119643346Y-54781732D01*
X119698250Y-54726828D01*
X119718346Y-54651828D01*
X119698250Y-54576828D01*
X119643346Y-54521924D01*
X119568346Y-54501828D01*
X119460100Y-54501828D01*
X119412481Y-54287542D01*
X119454060Y-54287542D01*
X119529060Y-54267446D01*
X119583964Y-54212542D01*
X119604060Y-54137542D01*
X119583964Y-54062542D01*
X119529060Y-54007638D01*
X119454060Y-53987542D01*
X119345814Y-53987542D01*
X119257631Y-53590717D01*
X119221744Y-53521863D01*
X119156237Y-53480177D01*
X119078663Y-53476829D01*
X119009809Y-53512716D01*
X118968123Y-53578223D01*
X118964775Y-53655797D01*
X119038496Y-53987542D01*
X118945814Y-53987542D01*
X118857631Y-53590717D01*
X118821744Y-53521863D01*
X118756237Y-53480177D01*
X118678663Y-53476829D01*
X118609809Y-53512716D01*
X118568123Y-53578223D01*
X118564775Y-53655797D01*
X118638496Y-53987542D01*
X118596917Y-53987542D01*
X118521917Y-54007638D01*
X118467013Y-54062542D01*
X118446917Y-54137542D01*
X118390258Y-54137542D01*
X118403791Y-54071413D01*
X118379237Y-53997752D01*
X118321142Y-53946236D01*
X118228628Y-53899979D01*
X118142059Y-53813409D01*
X118036011Y-53654337D01*
X118010352Y-53631787D01*
X117986203Y-53607638D01*
X117981413Y-53606354D01*
X117977687Y-53603080D01*
X117944191Y-53596381D01*
X117911203Y-53587542D01*
X117906412Y-53588825D01*
X117901549Y-53587853D01*
X117869193Y-53598798D01*
X117836203Y-53607638D01*
X117832696Y-53611144D01*
X117827998Y-53612734D01*
X117805448Y-53638392D01*
X117781299Y-53662542D01*
X117780015Y-53667331D01*
X117776741Y-53671058D01*
X117770042Y-53704553D01*
X117761203Y-53737542D01*
X117761203Y-54787542D01*
X117568346Y-54787542D01*
X117493346Y-54807638D01*
X117438442Y-54862542D01*
X117418346Y-54937542D01*
X117209050Y-54937542D01*
X117217269Y-54929323D01*
X117256092Y-54862080D01*
X117256092Y-54784434D01*
X117217269Y-54717191D01*
X117150026Y-54678368D01*
X117072380Y-54678368D01*
X117005137Y-54717191D01*
X116965206Y-54757121D01*
X116904365Y-54787542D01*
X116689469Y-54787542D01*
X116628629Y-54757122D01*
X116605910Y-54734403D01*
X116575489Y-54673561D01*
X116575489Y-54458667D01*
X116605910Y-54397825D01*
X116628628Y-54375106D01*
X116689471Y-54344685D01*
X116904364Y-54344685D01*
X116965206Y-54375106D01*
X117005137Y-54415037D01*
X117028562Y-54428561D01*
X117049501Y-54445693D01*
X117061686Y-54447686D01*
X117072380Y-54453860D01*
X117099431Y-54453860D01*
X117126129Y-54458227D01*
X117137679Y-54453860D01*
X117150026Y-54453860D01*
X117173453Y-54440333D01*
X117198757Y-54430767D01*
X117206575Y-54421210D01*
X117217269Y-54415037D01*
X117230794Y-54391609D01*
X117247925Y-54370673D01*
X117249918Y-54358487D01*
X117256092Y-54347794D01*
X117256092Y-54320743D01*
X117260459Y-54294045D01*
X117203316Y-53722616D01*
X117192140Y-53693056D01*
X117183964Y-53662542D01*
X117178560Y-53657138D01*
X117175857Y-53649988D01*
X117151399Y-53629977D01*
X117129060Y-53607638D01*
X117121677Y-53605659D01*
X117115762Y-53600820D01*
X117084578Y-53595719D01*
X117054060Y-53587542D01*
X116482632Y-53587542D01*
X116407632Y-53607638D01*
X116352728Y-53662542D01*
X116332632Y-53737542D01*
X116352728Y-53812542D01*
X116407632Y-53867446D01*
X116482632Y-53887542D01*
X116918311Y-53887542D01*
X116934026Y-54044685D01*
X116654060Y-54044685D01*
X116620758Y-54053608D01*
X116586978Y-54060521D01*
X116472692Y-54117664D01*
X116454622Y-54133687D01*
X116433709Y-54145762D01*
X116376566Y-54202905D01*
X116364490Y-54223820D01*
X116348468Y-54241889D01*
X116291325Y-54356175D01*
X116284412Y-54389955D01*
X116275489Y-54423257D01*
X116275489Y-54708971D01*
X116009050Y-54708971D01*
X115470878Y-54170799D01*
X115432632Y-54056059D01*
X115432632Y-54001524D01*
X115463053Y-53940682D01*
X115485771Y-53917963D01*
X115546614Y-53887542D01*
X115761507Y-53887542D01*
X115822349Y-53917963D01*
X115862280Y-53957894D01*
X115929523Y-53996717D01*
X116007169Y-53996717D01*
X116074412Y-53957894D01*
X116113235Y-53890651D01*
X116113235Y-53813005D01*
X116074412Y-53745762D01*
X116017269Y-53688619D01*
X115996355Y-53676544D01*
X115978286Y-53660521D01*
X115864001Y-53603378D01*
X115830218Y-53596464D01*
X115796918Y-53587542D01*
X115511203Y-53587542D01*
X115477901Y-53596465D01*
X115444121Y-53603378D01*
X115329835Y-53660521D01*
X115311765Y-53676544D01*
X115290852Y-53688619D01*
X115233709Y-53745762D01*
X115221633Y-53766677D01*
X115205611Y-53784746D01*
X115148468Y-53899032D01*
X115141555Y-53932812D01*
X115132632Y-53966114D01*
X115132632Y-54080400D01*
X115138882Y-54103728D01*
X115140330Y-54127834D01*
X115197473Y-54299262D01*
X115216469Y-54328034D01*
X115233709Y-54357894D01*
X115663357Y-54787542D01*
X115282632Y-54787542D01*
X115207632Y-54807638D01*
X115152728Y-54862542D01*
X115132632Y-54937542D01*
X114961203Y-54937542D01*
X114961203Y-53305400D01*
X119889775Y-53305400D01*
X119889775Y-55483971D01*
G37*
D10*
X94348923Y-53567360D02*
X95005461Y-53451595D01*
X93932413Y-53399034D02*
X94594502Y-53040522D01*
X94594502Y-53040522D02*
X94701999Y-53650164D01*
X94721255Y-54033598D02*
X94853558Y-54783928D01*
X95311413Y-55186732D02*
X94326605Y-55360380D01*
X94952786Y-55346675D02*
X95377564Y-55561897D01*
X94721026Y-55677663D02*
X95030039Y-55236346D01*
X95471241Y-56367392D02*
X95501599Y-56265331D01*
X95501599Y-56265331D02*
X95468523Y-56077749D01*
X95468523Y-56077749D02*
X95405089Y-55992227D01*
X95405089Y-55992227D02*
X95303029Y-55961869D01*
X95303029Y-55961869D02*
X94927864Y-56028021D01*
X94927864Y-56028021D02*
X94842342Y-56091454D01*
X94842342Y-56091454D02*
X94811984Y-56193514D01*
X94811984Y-56193514D02*
X94845060Y-56381097D01*
X94845060Y-56381097D02*
X94908494Y-56466619D01*
X94908494Y-56466619D02*
X95010554Y-56496977D01*
X95010554Y-56496977D02*
X95104345Y-56480439D01*
X95104345Y-56480439D02*
X95115447Y-55994945D01*
X94927750Y-56850053D02*
X95625633Y-56968766D01*
X95010440Y-57319009D02*
X95625633Y-56968766D01*
X95625633Y-56968766D02*
X95843573Y-56833630D01*
X95843573Y-56833630D02*
X95882200Y-56778465D01*
X95882200Y-56778465D02*
X95912558Y-56676405D01*
X96615808Y-53312708D02*
X96088969Y-53067128D01*
X96516581Y-52749960D02*
X95531773Y-52923609D01*
X95531773Y-52923609D02*
X95597924Y-53298774D01*
X95597924Y-53298774D02*
X95661358Y-53384296D01*
X95661358Y-53384296D02*
X95716523Y-53422922D01*
X95716523Y-53422922D02*
X95818583Y-53453280D01*
X95818583Y-53453280D02*
X95959270Y-53428473D01*
X95959270Y-53428473D02*
X96044792Y-53365040D01*
X96044792Y-53365040D02*
X96083418Y-53309875D01*
X96083418Y-53309875D02*
X96113776Y-53207815D01*
X96113776Y-53207815D02*
X96047624Y-52832650D01*
X96690229Y-53734768D02*
X96033690Y-53850534D01*
X95705421Y-53908416D02*
X95744048Y-53853252D01*
X95744048Y-53853252D02*
X95799212Y-53891878D01*
X95799212Y-53891878D02*
X95760586Y-53947043D01*
X95760586Y-53947043D02*
X95705421Y-53908416D01*
X95705421Y-53908416D02*
X95799212Y-53891878D01*
X96190800Y-54741550D02*
X96988026Y-54600977D01*
X96988026Y-54600977D02*
X97073548Y-54537544D01*
X97073548Y-54537544D02*
X97112175Y-54482379D01*
X97112175Y-54482379D02*
X97142532Y-54380319D01*
X97142532Y-54380319D02*
X97117725Y-54239632D01*
X97117725Y-54239632D02*
X97054292Y-54154110D01*
X96800443Y-54634053D02*
X96830801Y-54531993D01*
X96830801Y-54531993D02*
X96797725Y-54344411D01*
X96797725Y-54344411D02*
X96734292Y-54258888D01*
X96734292Y-54258888D02*
X96679127Y-54220262D01*
X96679127Y-54220262D02*
X96577067Y-54189904D01*
X96577067Y-54189904D02*
X96295693Y-54239518D01*
X96295693Y-54239518D02*
X96210171Y-54302951D01*
X96210171Y-54302951D02*
X96171544Y-54358116D01*
X96171544Y-54358116D02*
X96141187Y-54460176D01*
X96141187Y-54460176D02*
X96174262Y-54647759D01*
X96174262Y-54647759D02*
X96237696Y-54733281D01*
X96930029Y-55094740D02*
X95945221Y-55268389D01*
X97004449Y-55516801D02*
X96488597Y-55607760D01*
X96488597Y-55607760D02*
X96386537Y-55577402D01*
X96386537Y-55577402D02*
X96323104Y-55491880D01*
X96323104Y-55491880D02*
X96298297Y-55351193D01*
X96298297Y-55351193D02*
X96328655Y-55249133D01*
X96328655Y-55249133D02*
X96367281Y-55193968D01*
X96405793Y-55960836D02*
X96471945Y-56336001D01*
X96102331Y-56159405D02*
X96946452Y-56010564D01*
X96946452Y-56010564D02*
X97048512Y-56040922D01*
X97048512Y-56040922D02*
X97111946Y-56126444D01*
X97111946Y-56126444D02*
X97128484Y-56220235D01*
X97186366Y-56548505D02*
X96529828Y-56664270D01*
X96623619Y-56647732D02*
X96584992Y-56702897D01*
X96584992Y-56702897D02*
X96554635Y-56804957D01*
X96554635Y-56804957D02*
X96579442Y-56945644D01*
X96579442Y-56945644D02*
X96642875Y-57031166D01*
X96642875Y-57031166D02*
X96744935Y-57061524D01*
X96744935Y-57061524D02*
X97260787Y-56970565D01*
X96744935Y-57061524D02*
X96659413Y-57124957D01*
X96659413Y-57124957D02*
X96629055Y-57227018D01*
X96629055Y-57227018D02*
X96653862Y-57367704D01*
X96653862Y-57367704D02*
X96717296Y-57453227D01*
X96717296Y-57453227D02*
X96819356Y-57483584D01*
X96819356Y-57483584D02*
X97335208Y-57392626D01*
X97442704Y-58002268D02*
X97379271Y-57916746D01*
X97379271Y-57916746D02*
X97324106Y-57878119D01*
X97324106Y-57878119D02*
X97222046Y-57847762D01*
X97222046Y-57847762D02*
X96940672Y-57897375D01*
X96940672Y-57897375D02*
X96855150Y-57960809D01*
X96855150Y-57960809D02*
X96816523Y-58015974D01*
X96816523Y-58015974D02*
X96786166Y-58118034D01*
X96786166Y-58118034D02*
X96810972Y-58258721D01*
X96810972Y-58258721D02*
X96874406Y-58344243D01*
X96874406Y-58344243D02*
X96929571Y-58382869D01*
X96929571Y-58382869D02*
X97031631Y-58413227D01*
X97031631Y-58413227D02*
X97313004Y-58363613D01*
X97313004Y-58363613D02*
X97398527Y-58300180D01*
X97398527Y-58300180D02*
X97437153Y-58245015D01*
X97437153Y-58245015D02*
X97467511Y-58142955D01*
X97467511Y-58142955D02*
X97442704Y-58002268D01*
X97519843Y-58713971D02*
X97583276Y-58799494D01*
X97583276Y-58799494D02*
X97616352Y-58987076D01*
X97616352Y-58987076D02*
X97585995Y-59089136D01*
X97585995Y-59089136D02*
X97500472Y-59152570D01*
X97500472Y-59152570D02*
X97453577Y-59160839D01*
X97453577Y-59160839D02*
X97351517Y-59130481D01*
X97351517Y-59130481D02*
X97288083Y-59044959D01*
X97288083Y-59044959D02*
X97263276Y-58904272D01*
X97263276Y-58904272D02*
X97199843Y-58818750D01*
X97199843Y-58818750D02*
X97097782Y-58788392D01*
X97097782Y-58788392D02*
X97050887Y-58796661D01*
X97050887Y-58796661D02*
X96965365Y-58860095D01*
X96965365Y-58860095D02*
X96935007Y-58962155D01*
X96935007Y-58962155D02*
X96959814Y-59102842D01*
X96959814Y-59102842D02*
X97023247Y-59188364D01*
X97034234Y-59524902D02*
X97100386Y-59900067D01*
X96730772Y-59723472D02*
X97574893Y-59574631D01*
X97574893Y-59574631D02*
X97676953Y-59604988D01*
X97676953Y-59604988D02*
X97740387Y-59690510D01*
X97740387Y-59690510D02*
X97756925Y-59784302D01*
X97947111Y-60862901D02*
X96962303Y-61036549D01*
X97588484Y-61022844D02*
X98013263Y-61238066D01*
X97356724Y-61353832D02*
X97665737Y-60912515D01*
X98106939Y-62043561D02*
X98137297Y-61941500D01*
X98137297Y-61941500D02*
X98104221Y-61753918D01*
X98104221Y-61753918D02*
X98040788Y-61668396D01*
X98040788Y-61668396D02*
X97938727Y-61638038D01*
X97938727Y-61638038D02*
X97563563Y-61704190D01*
X97563563Y-61704190D02*
X97478040Y-61767623D01*
X97478040Y-61767623D02*
X97447683Y-61869683D01*
X97447683Y-61869683D02*
X97480759Y-62057266D01*
X97480759Y-62057266D02*
X97544192Y-62142788D01*
X97544192Y-62142788D02*
X97646252Y-62173146D01*
X97646252Y-62173146D02*
X97740043Y-62156608D01*
X97740043Y-62156608D02*
X97751145Y-61671114D01*
X97563448Y-62526222D02*
X98261331Y-62644935D01*
X97646138Y-62995178D02*
X98261331Y-62644935D01*
X98261331Y-62644935D02*
X98479272Y-62509799D01*
X98479272Y-62509799D02*
X98517898Y-62454634D01*
X98517898Y-62454634D02*
X98548256Y-62352574D01*
X98501131Y-64004908D02*
X97844593Y-64120673D01*
X98032175Y-64087597D02*
X97946653Y-64151031D01*
X97946653Y-64151031D02*
X97908026Y-64206195D01*
X97908026Y-64206195D02*
X97877669Y-64308256D01*
X97877669Y-64308256D02*
X97894207Y-64402047D01*
X98627884Y-64997985D02*
X98658242Y-64895925D01*
X98658242Y-64895925D02*
X98625166Y-64708342D01*
X98625166Y-64708342D02*
X98561732Y-64622820D01*
X98561732Y-64622820D02*
X98459672Y-64592462D01*
X98459672Y-64592462D02*
X98084507Y-64658614D01*
X98084507Y-64658614D02*
X97998985Y-64722048D01*
X97998985Y-64722048D02*
X97968627Y-64824108D01*
X97968627Y-64824108D02*
X98001703Y-65011690D01*
X98001703Y-65011690D02*
X98065137Y-65097212D01*
X98065137Y-65097212D02*
X98167197Y-65127570D01*
X98167197Y-65127570D02*
X98260988Y-65111032D01*
X98260988Y-65111032D02*
X98272090Y-64625538D01*
X98757469Y-65458672D02*
X98100931Y-65574438D01*
X98194722Y-65557900D02*
X98156095Y-65613064D01*
X98156095Y-65613064D02*
X98125738Y-65715124D01*
X98125738Y-65715124D02*
X98150545Y-65855811D01*
X98150545Y-65855811D02*
X98213978Y-65941333D01*
X98213978Y-65941333D02*
X98316038Y-65971691D01*
X98316038Y-65971691D02*
X98831890Y-65880733D01*
X98316038Y-65971691D02*
X98230516Y-66035125D01*
X98230516Y-66035125D02*
X98200158Y-66137185D01*
X98200158Y-66137185D02*
X98224965Y-66277872D01*
X98224965Y-66277872D02*
X98288399Y-66363394D01*
X98288399Y-66363394D02*
X98390459Y-66393752D01*
X98390459Y-66393752D02*
X98906311Y-66302793D01*
X99013807Y-66912436D02*
X98950373Y-66826913D01*
X98950373Y-66826913D02*
X98895209Y-66788287D01*
X98895209Y-66788287D02*
X98793149Y-66757929D01*
X98793149Y-66757929D02*
X98511775Y-66807543D01*
X98511775Y-66807543D02*
X98426253Y-66870976D01*
X98426253Y-66870976D02*
X98387626Y-66926141D01*
X98387626Y-66926141D02*
X98357269Y-67028201D01*
X98357269Y-67028201D02*
X98382075Y-67168888D01*
X98382075Y-67168888D02*
X98445509Y-67254410D01*
X98445509Y-67254410D02*
X98500673Y-67293037D01*
X98500673Y-67293037D02*
X98602734Y-67323394D01*
X98602734Y-67323394D02*
X98884107Y-67273781D01*
X98884107Y-67273781D02*
X98969630Y-67210347D01*
X98969630Y-67210347D02*
X99008256Y-67155183D01*
X99008256Y-67155183D02*
X99038614Y-67053122D01*
X99038614Y-67053122D02*
X99013807Y-66912436D01*
X98473034Y-67684740D02*
X99170917Y-67803452D01*
X99170917Y-67803452D02*
X98555724Y-68153696D01*
X99297670Y-68796529D02*
X99328028Y-68694469D01*
X99328028Y-68694469D02*
X99294952Y-68506887D01*
X99294952Y-68506887D02*
X99231518Y-68421364D01*
X99231518Y-68421364D02*
X99129458Y-68391007D01*
X99129458Y-68391007D02*
X98754293Y-68457158D01*
X98754293Y-68457158D02*
X98668771Y-68520592D01*
X98668771Y-68520592D02*
X98638413Y-68622652D01*
X98638413Y-68622652D02*
X98671489Y-68810234D01*
X98671489Y-68810234D02*
X98734923Y-68895757D01*
X98734923Y-68895757D02*
X98836983Y-68926114D01*
X98836983Y-68926114D02*
X98930774Y-68909576D01*
X98930774Y-68909576D02*
X98941876Y-68424082D01*
X99501676Y-69679277D02*
X98516868Y-69852925D01*
X99454780Y-69687546D02*
X99485138Y-69585486D01*
X99485138Y-69585486D02*
X99452062Y-69397903D01*
X99452062Y-69397903D02*
X99388628Y-69312381D01*
X99388628Y-69312381D02*
X99333464Y-69273754D01*
X99333464Y-69273754D02*
X99231404Y-69243397D01*
X99231404Y-69243397D02*
X98950030Y-69293010D01*
X98950030Y-69293010D02*
X98864508Y-69356444D01*
X98864508Y-69356444D02*
X98825881Y-69411609D01*
X98825881Y-69411609D02*
X98795524Y-69513669D01*
X98795524Y-69513669D02*
X98828599Y-69701251D01*
X98828599Y-69701251D02*
X98892033Y-69786773D01*
%LPC*%
D12*
X97025698Y-68474059D03*
X135125647Y-53789920D03*
X77975695Y-53789687D03*
X77975690Y-72839687D03*
X116075697Y-68474057D03*
X97025701Y-68474061D03*
X116075700Y-68474059D03*
%LPD*%
M02*
