G04 #@! TF.GenerationSoftware,KiCad,Pcbnew,7.0.8*
G04 #@! TF.CreationDate,2023-10-15T17:45:36+09:00*
G04 #@! TF.ProjectId,pangaea-bottom-thumb-k2-4keys,70616e67-6165-4612-9d62-6f74746f6d2d,1*
G04 #@! TF.SameCoordinates,Original*
G04 #@! TF.FileFunction,Soldermask,Top*
G04 #@! TF.FilePolarity,Negative*
%FSLAX46Y46*%
G04 Gerber Fmt 4.6, Leading zero omitted, Abs format (unit mm)*
G04 Created by KiCad (PCBNEW 7.0.8) date 2023-10-15 17:45:36*
%MOMM*%
%LPD*%
G01*
G04 APERTURE LIST*
G04 APERTURE END LIST*
G36*
X57661684Y-65893363D02*
G01*
X57712574Y-65893363D01*
X57756517Y-65902703D01*
X57795317Y-65906525D01*
X57844065Y-65921312D01*
X57899681Y-65933134D01*
X57935264Y-65948977D01*
X57966856Y-65958560D01*
X58017061Y-65985395D01*
X58074430Y-66010938D01*
X58101104Y-66030318D01*
X58124939Y-66043058D01*
X58173549Y-66082951D01*
X58229185Y-66123373D01*
X58247251Y-66143437D01*
X58263504Y-66156776D01*
X58307181Y-66209997D01*
X58357181Y-66265527D01*
X58367684Y-66283719D01*
X58377222Y-66295341D01*
X58412516Y-66361372D01*
X58452824Y-66431187D01*
X58457459Y-66445452D01*
X58461720Y-66453424D01*
X58485208Y-66530854D01*
X58511935Y-66613112D01*
X58512876Y-66622065D01*
X58513755Y-66624963D01*
X58522312Y-66711843D01*
X58531930Y-66803351D01*
X58522311Y-66894866D01*
X58513755Y-66981738D01*
X58512876Y-66984635D01*
X58511935Y-66993590D01*
X58485203Y-67075861D01*
X58461720Y-67153277D01*
X58457460Y-67161246D01*
X58452824Y-67175515D01*
X58412509Y-67245341D01*
X58377222Y-67311360D01*
X58367686Y-67322979D01*
X58357181Y-67341175D01*
X58307172Y-67396715D01*
X58263504Y-67449925D01*
X58247254Y-67463260D01*
X58229185Y-67483329D01*
X58173538Y-67523757D01*
X58124939Y-67563643D01*
X58101110Y-67576379D01*
X58074430Y-67595764D01*
X58017050Y-67621311D01*
X57966856Y-67648141D01*
X57935271Y-67657721D01*
X57899681Y-67673568D01*
X57844054Y-67685391D01*
X57795317Y-67700176D01*
X57756526Y-67703996D01*
X57712574Y-67713339D01*
X57661674Y-67713339D01*
X57616930Y-67717746D01*
X57572186Y-67713339D01*
X57521286Y-67713339D01*
X57477334Y-67703996D01*
X57438542Y-67700176D01*
X57389801Y-67685391D01*
X57334179Y-67673568D01*
X57298590Y-67657722D01*
X57267003Y-67648141D01*
X57216803Y-67621308D01*
X57159430Y-67595764D01*
X57132752Y-67576381D01*
X57108920Y-67563643D01*
X57060312Y-67523751D01*
X57004675Y-67483329D01*
X56986608Y-67463263D01*
X56970355Y-67449925D01*
X56926676Y-67396702D01*
X56876679Y-67341175D01*
X56866176Y-67322983D01*
X56856637Y-67311360D01*
X56821336Y-67245318D01*
X56781036Y-67175515D01*
X56776401Y-67161251D01*
X56772139Y-67153277D01*
X56748641Y-67075814D01*
X56721925Y-66993590D01*
X56720984Y-66984640D01*
X56720104Y-66981738D01*
X56711532Y-66894715D01*
X56701930Y-66803351D01*
X56711531Y-66711994D01*
X56720104Y-66624963D01*
X56720984Y-66622060D01*
X56721925Y-66613112D01*
X56748636Y-66530901D01*
X56772139Y-66453424D01*
X56776402Y-66445447D01*
X56781036Y-66431187D01*
X56821329Y-66361395D01*
X56856637Y-66295341D01*
X56866178Y-66283715D01*
X56876679Y-66265527D01*
X56926666Y-66210009D01*
X56970355Y-66156776D01*
X56986611Y-66143434D01*
X57004675Y-66123373D01*
X57060301Y-66082958D01*
X57108920Y-66043058D01*
X57132757Y-66030316D01*
X57159430Y-66010938D01*
X57216792Y-65985398D01*
X57267003Y-65958560D01*
X57298597Y-65948976D01*
X57334179Y-65933134D01*
X57389790Y-65921313D01*
X57438542Y-65906525D01*
X57477343Y-65902703D01*
X57521286Y-65893363D01*
X57572176Y-65893363D01*
X57616930Y-65888955D01*
X57661684Y-65893363D01*
G37*
G36*
X73850732Y-61248930D02*
G01*
X73907311Y-61248930D01*
X73957085Y-61258234D01*
X74002845Y-61262238D01*
X74059013Y-61277288D01*
X74120450Y-61288773D01*
X74162119Y-61304915D01*
X74200605Y-61315228D01*
X74258868Y-61342396D01*
X74322639Y-61367101D01*
X74355551Y-61387479D01*
X74386159Y-61401752D01*
X74443898Y-61442181D01*
X74506992Y-61481248D01*
X74531176Y-61503295D01*
X74553862Y-61519180D01*
X74608130Y-61573448D01*
X74667231Y-61627326D01*
X74683341Y-61648659D01*
X74698635Y-61663953D01*
X74746337Y-61732079D01*
X74797901Y-61800360D01*
X74807139Y-61818914D01*
X74816059Y-61831652D01*
X74854032Y-61913086D01*
X74894551Y-61994459D01*
X74898580Y-62008621D01*
X74902585Y-62017209D01*
X74927829Y-62111422D01*
X74953889Y-62203012D01*
X74954691Y-62211670D01*
X74955575Y-62214968D01*
X74965342Y-62326607D01*
X74973896Y-62418918D01*
X74965341Y-62511235D01*
X74955575Y-62622867D01*
X74954691Y-62626164D01*
X74953889Y-62634824D01*
X74927827Y-62726421D01*
X74902585Y-62820627D01*
X74898580Y-62829215D01*
X74894551Y-62843377D01*
X74854037Y-62924738D01*
X74816061Y-63006181D01*
X74807140Y-63018920D01*
X74797901Y-63037476D01*
X74746326Y-63105771D01*
X74698633Y-63173884D01*
X74683344Y-63189172D01*
X74667231Y-63210510D01*
X74608118Y-63264398D01*
X74553862Y-63318655D01*
X74531181Y-63334536D01*
X74506992Y-63356588D01*
X74443886Y-63395661D01*
X74386159Y-63436083D01*
X74355558Y-63450352D01*
X74322639Y-63470735D01*
X74258855Y-63495444D01*
X74200605Y-63522607D01*
X74162127Y-63532916D01*
X74120450Y-63549063D01*
X74059001Y-63560549D01*
X74002845Y-63575597D01*
X73957096Y-63579599D01*
X73907311Y-63588906D01*
X73850721Y-63588906D01*
X73798896Y-63593440D01*
X73747071Y-63588906D01*
X73690481Y-63588906D01*
X73640696Y-63579599D01*
X73594946Y-63575597D01*
X73538787Y-63560549D01*
X73477342Y-63549063D01*
X73435666Y-63532917D01*
X73397186Y-63522607D01*
X73338930Y-63495442D01*
X73275153Y-63470735D01*
X73242236Y-63450353D01*
X73211632Y-63436083D01*
X73153897Y-63395656D01*
X73090800Y-63356588D01*
X73066613Y-63334539D01*
X73043929Y-63318655D01*
X72989661Y-63264387D01*
X72930561Y-63210510D01*
X72914450Y-63189176D01*
X72899158Y-63173884D01*
X72851451Y-63105753D01*
X72799891Y-63037476D01*
X72790654Y-63018925D01*
X72781730Y-63006181D01*
X72743738Y-62924706D01*
X72703241Y-62843377D01*
X72699213Y-62829220D01*
X72695206Y-62820627D01*
X72669947Y-62726360D01*
X72643903Y-62634824D01*
X72643101Y-62626170D01*
X72642216Y-62622867D01*
X72632432Y-62511042D01*
X72623896Y-62418918D01*
X72632432Y-62326801D01*
X72642216Y-62214968D01*
X72643101Y-62211664D01*
X72643903Y-62203012D01*
X72669945Y-62111482D01*
X72695206Y-62017209D01*
X72699213Y-62008615D01*
X72703241Y-61994459D01*
X72743743Y-61913118D01*
X72781732Y-61831652D01*
X72790654Y-61818909D01*
X72799891Y-61800360D01*
X72851440Y-61732097D01*
X72899156Y-61663953D01*
X72914453Y-61648655D01*
X72930561Y-61627326D01*
X72989650Y-61573458D01*
X73043931Y-61519178D01*
X73066620Y-61503290D01*
X73090800Y-61481248D01*
X73153887Y-61442185D01*
X73211630Y-61401754D01*
X73242236Y-61387481D01*
X73275153Y-61367101D01*
X73338926Y-61342395D01*
X73397187Y-61315228D01*
X73435672Y-61304915D01*
X73477342Y-61288773D01*
X73538776Y-61277288D01*
X73594946Y-61262238D01*
X73640706Y-61258234D01*
X73690481Y-61248930D01*
X73747060Y-61248930D01*
X73798896Y-61244395D01*
X73850732Y-61248930D01*
G37*
G36*
X128714754Y-59890012D02*
G01*
X128765644Y-59890012D01*
X128809587Y-59899352D01*
X128848387Y-59903174D01*
X128897135Y-59917961D01*
X128952751Y-59929783D01*
X128988334Y-59945626D01*
X129019926Y-59955209D01*
X129070131Y-59982044D01*
X129127500Y-60007587D01*
X129154174Y-60026967D01*
X129178009Y-60039707D01*
X129226619Y-60079600D01*
X129282255Y-60120022D01*
X129300321Y-60140086D01*
X129316574Y-60153425D01*
X129360251Y-60206646D01*
X129410251Y-60262176D01*
X129420754Y-60280368D01*
X129430292Y-60291990D01*
X129465586Y-60358021D01*
X129505894Y-60427836D01*
X129510529Y-60442101D01*
X129514790Y-60450073D01*
X129538278Y-60527503D01*
X129565005Y-60609761D01*
X129565946Y-60618714D01*
X129566825Y-60621612D01*
X129575382Y-60708492D01*
X129585000Y-60800000D01*
X129575381Y-60891515D01*
X129566825Y-60978387D01*
X129565946Y-60981284D01*
X129565005Y-60990239D01*
X129538273Y-61072510D01*
X129514790Y-61149926D01*
X129510530Y-61157895D01*
X129505894Y-61172164D01*
X129465579Y-61241990D01*
X129430292Y-61308009D01*
X129420756Y-61319628D01*
X129410251Y-61337824D01*
X129360242Y-61393364D01*
X129316574Y-61446574D01*
X129300324Y-61459909D01*
X129282255Y-61479978D01*
X129226608Y-61520406D01*
X129178009Y-61560292D01*
X129154180Y-61573028D01*
X129127500Y-61592413D01*
X129070120Y-61617960D01*
X129019926Y-61644790D01*
X128988341Y-61654370D01*
X128952751Y-61670217D01*
X128897124Y-61682040D01*
X128848387Y-61696825D01*
X128809596Y-61700645D01*
X128765644Y-61709988D01*
X128714744Y-61709988D01*
X128670000Y-61714395D01*
X128625256Y-61709988D01*
X128574356Y-61709988D01*
X128530404Y-61700645D01*
X128491612Y-61696825D01*
X128442871Y-61682040D01*
X128387249Y-61670217D01*
X128351660Y-61654371D01*
X128320073Y-61644790D01*
X128269873Y-61617957D01*
X128212500Y-61592413D01*
X128185822Y-61573030D01*
X128161990Y-61560292D01*
X128113382Y-61520400D01*
X128057745Y-61479978D01*
X128039678Y-61459912D01*
X128023425Y-61446574D01*
X127979746Y-61393351D01*
X127929749Y-61337824D01*
X127919246Y-61319632D01*
X127909707Y-61308009D01*
X127874406Y-61241967D01*
X127834106Y-61172164D01*
X127829471Y-61157900D01*
X127825209Y-61149926D01*
X127801711Y-61072463D01*
X127774995Y-60990239D01*
X127774054Y-60981289D01*
X127773174Y-60978387D01*
X127764602Y-60891364D01*
X127755000Y-60800000D01*
X127764601Y-60708643D01*
X127773174Y-60621612D01*
X127774054Y-60618709D01*
X127774995Y-60609761D01*
X127801706Y-60527550D01*
X127825209Y-60450073D01*
X127829472Y-60442096D01*
X127834106Y-60427836D01*
X127874399Y-60358044D01*
X127909707Y-60291990D01*
X127919248Y-60280364D01*
X127929749Y-60262176D01*
X127979736Y-60206658D01*
X128023425Y-60153425D01*
X128039681Y-60140083D01*
X128057745Y-60120022D01*
X128113371Y-60079607D01*
X128161990Y-60039707D01*
X128185827Y-60026965D01*
X128212500Y-60007587D01*
X128269862Y-59982047D01*
X128320073Y-59955209D01*
X128351667Y-59945625D01*
X128387249Y-59929783D01*
X128442860Y-59917962D01*
X128491612Y-59903174D01*
X128530413Y-59899352D01*
X128574356Y-59890012D01*
X128625246Y-59890012D01*
X128670000Y-59885604D01*
X128714754Y-59890012D01*
G37*
G36*
X80794754Y-59490012D02*
G01*
X80845644Y-59490012D01*
X80889587Y-59499352D01*
X80928387Y-59503174D01*
X80977135Y-59517961D01*
X81032751Y-59529783D01*
X81068334Y-59545626D01*
X81099926Y-59555209D01*
X81150131Y-59582044D01*
X81207500Y-59607587D01*
X81234174Y-59626967D01*
X81258009Y-59639707D01*
X81306619Y-59679600D01*
X81362255Y-59720022D01*
X81380321Y-59740086D01*
X81396574Y-59753425D01*
X81440251Y-59806646D01*
X81490251Y-59862176D01*
X81500754Y-59880368D01*
X81510292Y-59891990D01*
X81545586Y-59958021D01*
X81585894Y-60027836D01*
X81590529Y-60042101D01*
X81594790Y-60050073D01*
X81618278Y-60127503D01*
X81645005Y-60209761D01*
X81645946Y-60218714D01*
X81646825Y-60221612D01*
X81655382Y-60308492D01*
X81665000Y-60400000D01*
X81655381Y-60491515D01*
X81646825Y-60578387D01*
X81645946Y-60581284D01*
X81645005Y-60590239D01*
X81618273Y-60672510D01*
X81594790Y-60749926D01*
X81590530Y-60757895D01*
X81585894Y-60772164D01*
X81545579Y-60841990D01*
X81510292Y-60908009D01*
X81500756Y-60919628D01*
X81490251Y-60937824D01*
X81440242Y-60993364D01*
X81396574Y-61046574D01*
X81380324Y-61059909D01*
X81362255Y-61079978D01*
X81306608Y-61120406D01*
X81258009Y-61160292D01*
X81234180Y-61173028D01*
X81207500Y-61192413D01*
X81150120Y-61217960D01*
X81099926Y-61244790D01*
X81068341Y-61254370D01*
X81032751Y-61270217D01*
X80977124Y-61282040D01*
X80928387Y-61296825D01*
X80889596Y-61300645D01*
X80845644Y-61309988D01*
X80794744Y-61309988D01*
X80750000Y-61314395D01*
X80705256Y-61309988D01*
X80654356Y-61309988D01*
X80610404Y-61300645D01*
X80571612Y-61296825D01*
X80522871Y-61282040D01*
X80467249Y-61270217D01*
X80431660Y-61254371D01*
X80400073Y-61244790D01*
X80349873Y-61217957D01*
X80292500Y-61192413D01*
X80265822Y-61173030D01*
X80241990Y-61160292D01*
X80193382Y-61120400D01*
X80137745Y-61079978D01*
X80119678Y-61059912D01*
X80103425Y-61046574D01*
X80059746Y-60993351D01*
X80009749Y-60937824D01*
X79999246Y-60919632D01*
X79989707Y-60908009D01*
X79954406Y-60841967D01*
X79914106Y-60772164D01*
X79909471Y-60757900D01*
X79905209Y-60749926D01*
X79881711Y-60672463D01*
X79854995Y-60590239D01*
X79854054Y-60581289D01*
X79853174Y-60578387D01*
X79844602Y-60491364D01*
X79835000Y-60400000D01*
X79844601Y-60308643D01*
X79853174Y-60221612D01*
X79854054Y-60218709D01*
X79854995Y-60209761D01*
X79881706Y-60127550D01*
X79905209Y-60050073D01*
X79909472Y-60042096D01*
X79914106Y-60027836D01*
X79954399Y-59958044D01*
X79989707Y-59891990D01*
X79999248Y-59880364D01*
X80009749Y-59862176D01*
X80059736Y-59806658D01*
X80103425Y-59753425D01*
X80119681Y-59740083D01*
X80137745Y-59720022D01*
X80193371Y-59679607D01*
X80241990Y-59639707D01*
X80265827Y-59626965D01*
X80292500Y-59607587D01*
X80349862Y-59582047D01*
X80400073Y-59555209D01*
X80431667Y-59545625D01*
X80467249Y-59529783D01*
X80522860Y-59517962D01*
X80571612Y-59503174D01*
X80610413Y-59499352D01*
X80654356Y-59490012D01*
X80705246Y-59490012D01*
X80750000Y-59485604D01*
X80794754Y-59490012D01*
G37*
G36*
X87794754Y-58340012D02*
G01*
X87845644Y-58340012D01*
X87889587Y-58349352D01*
X87928387Y-58353174D01*
X87977135Y-58367961D01*
X88032751Y-58379783D01*
X88068334Y-58395626D01*
X88099926Y-58405209D01*
X88150131Y-58432044D01*
X88207500Y-58457587D01*
X88234174Y-58476967D01*
X88258009Y-58489707D01*
X88306619Y-58529600D01*
X88362255Y-58570022D01*
X88380321Y-58590086D01*
X88396574Y-58603425D01*
X88440251Y-58656646D01*
X88490251Y-58712176D01*
X88500754Y-58730368D01*
X88510292Y-58741990D01*
X88545586Y-58808021D01*
X88585894Y-58877836D01*
X88590529Y-58892101D01*
X88594790Y-58900073D01*
X88618278Y-58977503D01*
X88645005Y-59059761D01*
X88645946Y-59068714D01*
X88646825Y-59071612D01*
X88655382Y-59158492D01*
X88665000Y-59250000D01*
X88655381Y-59341515D01*
X88646825Y-59428387D01*
X88645946Y-59431284D01*
X88645005Y-59440239D01*
X88618273Y-59522510D01*
X88594790Y-59599926D01*
X88590530Y-59607895D01*
X88585894Y-59622164D01*
X88545579Y-59691990D01*
X88510292Y-59758009D01*
X88500756Y-59769628D01*
X88490251Y-59787824D01*
X88440242Y-59843364D01*
X88396574Y-59896574D01*
X88380324Y-59909909D01*
X88362255Y-59929978D01*
X88306608Y-59970406D01*
X88258009Y-60010292D01*
X88234180Y-60023028D01*
X88207500Y-60042413D01*
X88150120Y-60067960D01*
X88099926Y-60094790D01*
X88068341Y-60104370D01*
X88032751Y-60120217D01*
X87977124Y-60132040D01*
X87928387Y-60146825D01*
X87889596Y-60150645D01*
X87845644Y-60159988D01*
X87794744Y-60159988D01*
X87750000Y-60164395D01*
X87705256Y-60159988D01*
X87654356Y-60159988D01*
X87610404Y-60150645D01*
X87571612Y-60146825D01*
X87522871Y-60132040D01*
X87467249Y-60120217D01*
X87431660Y-60104371D01*
X87400073Y-60094790D01*
X87349873Y-60067957D01*
X87292500Y-60042413D01*
X87265822Y-60023030D01*
X87241990Y-60010292D01*
X87193382Y-59970400D01*
X87137745Y-59929978D01*
X87119678Y-59909912D01*
X87103425Y-59896574D01*
X87059746Y-59843351D01*
X87009749Y-59787824D01*
X86999246Y-59769632D01*
X86989707Y-59758009D01*
X86954406Y-59691967D01*
X86914106Y-59622164D01*
X86909471Y-59607900D01*
X86905209Y-59599926D01*
X86881711Y-59522463D01*
X86854995Y-59440239D01*
X86854054Y-59431289D01*
X86853174Y-59428387D01*
X86844602Y-59341364D01*
X86835000Y-59250000D01*
X86844601Y-59158643D01*
X86853174Y-59071612D01*
X86854054Y-59068709D01*
X86854995Y-59059761D01*
X86881706Y-58977550D01*
X86905209Y-58900073D01*
X86909472Y-58892096D01*
X86914106Y-58877836D01*
X86954399Y-58808044D01*
X86989707Y-58741990D01*
X86999248Y-58730364D01*
X87009749Y-58712176D01*
X87059736Y-58656658D01*
X87103425Y-58603425D01*
X87119681Y-58590083D01*
X87137745Y-58570022D01*
X87193371Y-58529607D01*
X87241990Y-58489707D01*
X87265827Y-58476965D01*
X87292500Y-58457587D01*
X87349862Y-58432047D01*
X87400073Y-58405209D01*
X87431667Y-58395625D01*
X87467249Y-58379783D01*
X87522860Y-58367962D01*
X87571612Y-58353174D01*
X87610413Y-58349352D01*
X87654356Y-58340012D01*
X87705246Y-58340012D01*
X87750000Y-58335604D01*
X87794754Y-58340012D01*
G37*
G36*
X92900740Y-56883302D02*
G01*
X92957319Y-56883302D01*
X93007093Y-56892606D01*
X93052853Y-56896610D01*
X93109021Y-56911660D01*
X93170458Y-56923145D01*
X93212127Y-56939287D01*
X93250613Y-56949600D01*
X93308876Y-56976768D01*
X93372647Y-57001473D01*
X93405559Y-57021851D01*
X93436167Y-57036124D01*
X93493906Y-57076553D01*
X93557000Y-57115620D01*
X93581184Y-57137667D01*
X93603870Y-57153552D01*
X93658138Y-57207820D01*
X93717239Y-57261698D01*
X93733349Y-57283031D01*
X93748643Y-57298325D01*
X93796345Y-57366451D01*
X93847909Y-57434732D01*
X93857147Y-57453286D01*
X93866067Y-57466024D01*
X93904040Y-57547458D01*
X93944559Y-57628831D01*
X93948588Y-57642993D01*
X93952593Y-57651581D01*
X93977837Y-57745794D01*
X94003897Y-57837384D01*
X94004699Y-57846042D01*
X94005583Y-57849340D01*
X94015361Y-57961104D01*
X94023904Y-58053290D01*
X94015357Y-58145520D01*
X94005583Y-58257239D01*
X94004699Y-58260536D01*
X94003897Y-58269196D01*
X93977835Y-58360793D01*
X93952593Y-58454999D01*
X93948588Y-58463587D01*
X93944559Y-58477749D01*
X93904045Y-58559110D01*
X93866069Y-58640553D01*
X93857148Y-58653292D01*
X93847909Y-58671848D01*
X93796334Y-58740143D01*
X93748641Y-58808256D01*
X93733352Y-58823544D01*
X93717239Y-58844882D01*
X93658126Y-58898770D01*
X93603870Y-58953027D01*
X93581189Y-58968908D01*
X93557000Y-58990960D01*
X93493894Y-59030033D01*
X93436167Y-59070455D01*
X93405566Y-59084724D01*
X93372647Y-59105107D01*
X93308863Y-59129816D01*
X93250613Y-59156979D01*
X93212135Y-59167288D01*
X93170458Y-59183435D01*
X93109009Y-59194921D01*
X93052853Y-59209969D01*
X93007104Y-59213971D01*
X92957319Y-59223278D01*
X92900729Y-59223278D01*
X92848904Y-59227812D01*
X92797079Y-59223278D01*
X92740489Y-59223278D01*
X92690704Y-59213971D01*
X92644954Y-59209969D01*
X92588795Y-59194921D01*
X92527350Y-59183435D01*
X92485674Y-59167289D01*
X92447194Y-59156979D01*
X92388938Y-59129814D01*
X92325161Y-59105107D01*
X92292244Y-59084725D01*
X92261640Y-59070455D01*
X92203905Y-59030028D01*
X92140808Y-58990960D01*
X92116621Y-58968911D01*
X92093937Y-58953027D01*
X92039669Y-58898759D01*
X91980569Y-58844882D01*
X91964458Y-58823548D01*
X91949166Y-58808256D01*
X91901459Y-58740125D01*
X91849899Y-58671848D01*
X91840662Y-58653297D01*
X91831738Y-58640553D01*
X91793746Y-58559078D01*
X91753249Y-58477749D01*
X91749221Y-58463592D01*
X91745214Y-58454999D01*
X91719955Y-58360732D01*
X91693911Y-58269196D01*
X91693109Y-58260542D01*
X91692224Y-58257239D01*
X91682442Y-58145433D01*
X91673904Y-58053290D01*
X91682438Y-57961191D01*
X91692224Y-57849340D01*
X91693109Y-57846036D01*
X91693911Y-57837384D01*
X91719953Y-57745854D01*
X91745214Y-57651581D01*
X91749221Y-57642987D01*
X91753249Y-57628831D01*
X91793751Y-57547490D01*
X91831740Y-57466024D01*
X91840662Y-57453281D01*
X91849899Y-57434732D01*
X91901448Y-57366469D01*
X91949164Y-57298325D01*
X91964461Y-57283027D01*
X91980569Y-57261698D01*
X92039658Y-57207830D01*
X92093939Y-57153550D01*
X92116628Y-57137662D01*
X92140808Y-57115620D01*
X92203895Y-57076557D01*
X92261638Y-57036126D01*
X92292244Y-57021853D01*
X92325161Y-57001473D01*
X92388934Y-56976767D01*
X92447195Y-56949600D01*
X92485680Y-56939287D01*
X92527350Y-56923145D01*
X92588784Y-56911660D01*
X92644954Y-56896610D01*
X92690714Y-56892606D01*
X92740489Y-56883302D01*
X92797068Y-56883302D01*
X92848904Y-56878767D01*
X92900740Y-56883302D01*
G37*
G36*
X111950739Y-56883300D02*
G01*
X112007318Y-56883300D01*
X112057092Y-56892604D01*
X112102852Y-56896608D01*
X112159020Y-56911658D01*
X112220457Y-56923143D01*
X112262126Y-56939285D01*
X112300612Y-56949598D01*
X112358875Y-56976766D01*
X112422646Y-57001471D01*
X112455558Y-57021849D01*
X112486166Y-57036122D01*
X112543905Y-57076551D01*
X112606999Y-57115618D01*
X112631183Y-57137665D01*
X112653869Y-57153550D01*
X112708137Y-57207818D01*
X112767238Y-57261696D01*
X112783348Y-57283029D01*
X112798642Y-57298323D01*
X112846344Y-57366449D01*
X112897908Y-57434730D01*
X112907146Y-57453284D01*
X112916066Y-57466022D01*
X112954039Y-57547456D01*
X112994558Y-57628829D01*
X112998587Y-57642991D01*
X113002592Y-57651579D01*
X113027836Y-57745792D01*
X113053896Y-57837382D01*
X113054698Y-57846040D01*
X113055582Y-57849338D01*
X113065349Y-57960977D01*
X113073903Y-58053288D01*
X113065348Y-58145605D01*
X113055582Y-58257237D01*
X113054698Y-58260534D01*
X113053896Y-58269194D01*
X113027834Y-58360791D01*
X113002592Y-58454997D01*
X112998587Y-58463585D01*
X112994558Y-58477747D01*
X112954044Y-58559108D01*
X112916068Y-58640551D01*
X112907147Y-58653290D01*
X112897908Y-58671846D01*
X112846333Y-58740141D01*
X112798640Y-58808254D01*
X112783351Y-58823542D01*
X112767238Y-58844880D01*
X112708125Y-58898768D01*
X112653869Y-58953025D01*
X112631188Y-58968906D01*
X112606999Y-58990958D01*
X112543893Y-59030031D01*
X112486166Y-59070453D01*
X112455565Y-59084722D01*
X112422646Y-59105105D01*
X112358862Y-59129814D01*
X112300612Y-59156977D01*
X112262134Y-59167286D01*
X112220457Y-59183433D01*
X112159008Y-59194919D01*
X112102852Y-59209967D01*
X112057103Y-59213969D01*
X112007318Y-59223276D01*
X111950728Y-59223276D01*
X111898903Y-59227810D01*
X111847078Y-59223276D01*
X111790488Y-59223276D01*
X111740703Y-59213969D01*
X111694953Y-59209967D01*
X111638794Y-59194919D01*
X111577349Y-59183433D01*
X111535673Y-59167287D01*
X111497193Y-59156977D01*
X111438937Y-59129812D01*
X111375160Y-59105105D01*
X111342243Y-59084723D01*
X111311639Y-59070453D01*
X111253904Y-59030026D01*
X111190807Y-58990958D01*
X111166620Y-58968909D01*
X111143936Y-58953025D01*
X111089668Y-58898757D01*
X111030568Y-58844880D01*
X111014457Y-58823546D01*
X110999165Y-58808254D01*
X110951458Y-58740123D01*
X110899898Y-58671846D01*
X110890661Y-58653295D01*
X110881737Y-58640551D01*
X110843745Y-58559076D01*
X110803248Y-58477747D01*
X110799220Y-58463590D01*
X110795213Y-58454997D01*
X110769954Y-58360730D01*
X110743910Y-58269194D01*
X110743108Y-58260540D01*
X110742223Y-58257237D01*
X110732439Y-58145412D01*
X110723903Y-58053288D01*
X110732439Y-57961171D01*
X110742223Y-57849338D01*
X110743108Y-57846034D01*
X110743910Y-57837382D01*
X110769952Y-57745852D01*
X110795213Y-57651579D01*
X110799220Y-57642985D01*
X110803248Y-57628829D01*
X110843750Y-57547488D01*
X110881739Y-57466022D01*
X110890661Y-57453279D01*
X110899898Y-57434730D01*
X110951447Y-57366467D01*
X110999163Y-57298323D01*
X111014460Y-57283025D01*
X111030568Y-57261696D01*
X111089657Y-57207828D01*
X111143938Y-57153548D01*
X111166627Y-57137660D01*
X111190807Y-57115618D01*
X111253894Y-57076555D01*
X111311637Y-57036124D01*
X111342243Y-57021851D01*
X111375160Y-57001471D01*
X111438933Y-56976765D01*
X111497194Y-56949598D01*
X111535679Y-56939285D01*
X111577349Y-56923143D01*
X111638783Y-56911658D01*
X111694953Y-56896608D01*
X111740713Y-56892604D01*
X111790488Y-56883300D01*
X111847067Y-56883300D01*
X111898903Y-56878765D01*
X111950739Y-56883300D01*
G37*
G36*
X106619754Y-57215012D02*
G01*
X106670644Y-57215012D01*
X106714587Y-57224352D01*
X106753387Y-57228174D01*
X106802135Y-57242961D01*
X106857751Y-57254783D01*
X106893334Y-57270626D01*
X106924926Y-57280209D01*
X106975131Y-57307044D01*
X107032500Y-57332587D01*
X107059174Y-57351967D01*
X107083009Y-57364707D01*
X107131619Y-57404600D01*
X107187255Y-57445022D01*
X107205321Y-57465086D01*
X107221574Y-57478425D01*
X107265251Y-57531646D01*
X107315251Y-57587176D01*
X107325754Y-57605368D01*
X107335292Y-57616990D01*
X107370586Y-57683021D01*
X107410894Y-57752836D01*
X107415529Y-57767101D01*
X107419790Y-57775073D01*
X107443278Y-57852503D01*
X107470005Y-57934761D01*
X107470946Y-57943714D01*
X107471825Y-57946612D01*
X107480382Y-58033492D01*
X107490000Y-58125000D01*
X107480381Y-58216515D01*
X107471825Y-58303387D01*
X107470946Y-58306284D01*
X107470005Y-58315239D01*
X107443273Y-58397510D01*
X107419790Y-58474926D01*
X107415530Y-58482895D01*
X107410894Y-58497164D01*
X107370579Y-58566990D01*
X107335292Y-58633009D01*
X107325756Y-58644628D01*
X107315251Y-58662824D01*
X107265242Y-58718364D01*
X107221574Y-58771574D01*
X107205324Y-58784909D01*
X107187255Y-58804978D01*
X107131608Y-58845406D01*
X107083009Y-58885292D01*
X107059180Y-58898028D01*
X107032500Y-58917413D01*
X106975120Y-58942960D01*
X106924926Y-58969790D01*
X106893341Y-58979370D01*
X106857751Y-58995217D01*
X106802124Y-59007040D01*
X106753387Y-59021825D01*
X106714596Y-59025645D01*
X106670644Y-59034988D01*
X106619744Y-59034988D01*
X106575000Y-59039395D01*
X106530256Y-59034988D01*
X106479356Y-59034988D01*
X106435404Y-59025645D01*
X106396612Y-59021825D01*
X106347871Y-59007040D01*
X106292249Y-58995217D01*
X106256660Y-58979371D01*
X106225073Y-58969790D01*
X106174873Y-58942957D01*
X106117500Y-58917413D01*
X106090822Y-58898030D01*
X106066990Y-58885292D01*
X106018382Y-58845400D01*
X105962745Y-58804978D01*
X105944678Y-58784912D01*
X105928425Y-58771574D01*
X105884746Y-58718351D01*
X105834749Y-58662824D01*
X105824246Y-58644632D01*
X105814707Y-58633009D01*
X105779406Y-58566967D01*
X105739106Y-58497164D01*
X105734471Y-58482900D01*
X105730209Y-58474926D01*
X105706711Y-58397463D01*
X105679995Y-58315239D01*
X105679054Y-58306289D01*
X105678174Y-58303387D01*
X105669602Y-58216364D01*
X105660000Y-58125000D01*
X105669601Y-58033643D01*
X105678174Y-57946612D01*
X105679054Y-57943709D01*
X105679995Y-57934761D01*
X105706706Y-57852550D01*
X105730209Y-57775073D01*
X105734472Y-57767096D01*
X105739106Y-57752836D01*
X105779399Y-57683044D01*
X105814707Y-57616990D01*
X105824248Y-57605364D01*
X105834749Y-57587176D01*
X105884736Y-57531658D01*
X105928425Y-57478425D01*
X105944681Y-57465083D01*
X105962745Y-57445022D01*
X106018371Y-57404607D01*
X106066990Y-57364707D01*
X106090827Y-57351965D01*
X106117500Y-57332587D01*
X106174862Y-57307047D01*
X106225073Y-57280209D01*
X106256667Y-57270625D01*
X106292249Y-57254783D01*
X106347860Y-57242962D01*
X106396612Y-57228174D01*
X106435413Y-57224352D01*
X106479356Y-57215012D01*
X106530246Y-57215012D01*
X106575000Y-57210604D01*
X106619754Y-57215012D01*
G37*
G36*
X99644754Y-57090012D02*
G01*
X99695644Y-57090012D01*
X99739587Y-57099352D01*
X99778387Y-57103174D01*
X99827135Y-57117961D01*
X99882751Y-57129783D01*
X99918334Y-57145626D01*
X99949926Y-57155209D01*
X100000131Y-57182044D01*
X100057500Y-57207587D01*
X100084174Y-57226967D01*
X100108009Y-57239707D01*
X100156619Y-57279600D01*
X100212255Y-57320022D01*
X100230321Y-57340086D01*
X100246574Y-57353425D01*
X100290251Y-57406646D01*
X100340251Y-57462176D01*
X100350754Y-57480368D01*
X100360292Y-57491990D01*
X100395586Y-57558021D01*
X100435894Y-57627836D01*
X100440529Y-57642101D01*
X100444790Y-57650073D01*
X100468278Y-57727503D01*
X100495005Y-57809761D01*
X100495946Y-57818714D01*
X100496825Y-57821612D01*
X100505382Y-57908492D01*
X100515000Y-58000000D01*
X100505381Y-58091515D01*
X100496825Y-58178387D01*
X100495946Y-58181284D01*
X100495005Y-58190239D01*
X100468273Y-58272510D01*
X100444790Y-58349926D01*
X100440530Y-58357895D01*
X100435894Y-58372164D01*
X100395579Y-58441990D01*
X100360292Y-58508009D01*
X100350756Y-58519628D01*
X100340251Y-58537824D01*
X100290242Y-58593364D01*
X100246574Y-58646574D01*
X100230324Y-58659909D01*
X100212255Y-58679978D01*
X100156608Y-58720406D01*
X100108009Y-58760292D01*
X100084180Y-58773028D01*
X100057500Y-58792413D01*
X100000120Y-58817960D01*
X99949926Y-58844790D01*
X99918341Y-58854370D01*
X99882751Y-58870217D01*
X99827124Y-58882040D01*
X99778387Y-58896825D01*
X99739596Y-58900645D01*
X99695644Y-58909988D01*
X99644744Y-58909988D01*
X99600000Y-58914395D01*
X99555256Y-58909988D01*
X99504356Y-58909988D01*
X99460404Y-58900645D01*
X99421612Y-58896825D01*
X99372871Y-58882040D01*
X99317249Y-58870217D01*
X99281660Y-58854371D01*
X99250073Y-58844790D01*
X99199873Y-58817957D01*
X99142500Y-58792413D01*
X99115822Y-58773030D01*
X99091990Y-58760292D01*
X99043382Y-58720400D01*
X98987745Y-58679978D01*
X98969678Y-58659912D01*
X98953425Y-58646574D01*
X98909746Y-58593351D01*
X98859749Y-58537824D01*
X98849246Y-58519632D01*
X98839707Y-58508009D01*
X98804406Y-58441967D01*
X98764106Y-58372164D01*
X98759471Y-58357900D01*
X98755209Y-58349926D01*
X98731711Y-58272463D01*
X98704995Y-58190239D01*
X98704054Y-58181289D01*
X98703174Y-58178387D01*
X98694602Y-58091364D01*
X98685000Y-58000000D01*
X98694601Y-57908643D01*
X98703174Y-57821612D01*
X98704054Y-57818709D01*
X98704995Y-57809761D01*
X98731706Y-57727550D01*
X98755209Y-57650073D01*
X98759472Y-57642096D01*
X98764106Y-57627836D01*
X98804399Y-57558044D01*
X98839707Y-57491990D01*
X98849248Y-57480364D01*
X98859749Y-57462176D01*
X98909736Y-57406658D01*
X98953425Y-57353425D01*
X98969681Y-57340083D01*
X98987745Y-57320022D01*
X99043371Y-57279607D01*
X99091990Y-57239707D01*
X99115827Y-57226965D01*
X99142500Y-57207587D01*
X99199862Y-57182047D01*
X99250073Y-57155209D01*
X99281667Y-57145625D01*
X99317249Y-57129783D01*
X99372860Y-57117962D01*
X99421612Y-57103174D01*
X99460413Y-57099352D01*
X99504356Y-57090012D01*
X99555246Y-57090012D01*
X99600000Y-57085604D01*
X99644754Y-57090012D01*
G37*
G36*
X52784238Y-52465335D02*
G01*
X52835128Y-52465335D01*
X52879071Y-52474675D01*
X52917871Y-52478497D01*
X52966619Y-52493284D01*
X53022235Y-52505106D01*
X53057818Y-52520949D01*
X53089410Y-52530532D01*
X53139615Y-52557367D01*
X53196984Y-52582910D01*
X53223658Y-52602290D01*
X53247493Y-52615030D01*
X53296103Y-52654923D01*
X53351739Y-52695345D01*
X53369805Y-52715409D01*
X53386058Y-52728748D01*
X53429735Y-52781969D01*
X53479735Y-52837499D01*
X53490238Y-52855691D01*
X53499776Y-52867313D01*
X53535070Y-52933344D01*
X53575378Y-53003159D01*
X53580013Y-53017424D01*
X53584274Y-53025396D01*
X53607762Y-53102826D01*
X53634489Y-53185084D01*
X53635430Y-53194037D01*
X53636309Y-53196935D01*
X53644866Y-53283815D01*
X53654484Y-53375323D01*
X53644865Y-53466838D01*
X53636309Y-53553710D01*
X53635430Y-53556607D01*
X53634489Y-53565562D01*
X53607757Y-53647833D01*
X53584274Y-53725249D01*
X53580014Y-53733218D01*
X53575378Y-53747487D01*
X53535063Y-53817313D01*
X53499776Y-53883332D01*
X53490240Y-53894951D01*
X53479735Y-53913147D01*
X53429726Y-53968687D01*
X53386058Y-54021897D01*
X53369808Y-54035232D01*
X53351739Y-54055301D01*
X53296092Y-54095729D01*
X53247493Y-54135615D01*
X53223664Y-54148351D01*
X53196984Y-54167736D01*
X53139604Y-54193283D01*
X53089410Y-54220113D01*
X53057825Y-54229693D01*
X53022235Y-54245540D01*
X52966608Y-54257363D01*
X52917871Y-54272148D01*
X52879080Y-54275968D01*
X52835128Y-54285311D01*
X52784228Y-54285311D01*
X52739484Y-54289718D01*
X52694740Y-54285311D01*
X52643840Y-54285311D01*
X52599888Y-54275968D01*
X52561096Y-54272148D01*
X52512355Y-54257363D01*
X52456733Y-54245540D01*
X52421144Y-54229694D01*
X52389557Y-54220113D01*
X52339357Y-54193280D01*
X52281984Y-54167736D01*
X52255306Y-54148353D01*
X52231474Y-54135615D01*
X52182866Y-54095723D01*
X52127229Y-54055301D01*
X52109162Y-54035235D01*
X52092909Y-54021897D01*
X52049230Y-53968674D01*
X51999233Y-53913147D01*
X51988730Y-53894955D01*
X51979191Y-53883332D01*
X51943890Y-53817290D01*
X51903590Y-53747487D01*
X51898955Y-53733223D01*
X51894693Y-53725249D01*
X51871195Y-53647786D01*
X51844479Y-53565562D01*
X51843538Y-53556612D01*
X51842658Y-53553710D01*
X51834086Y-53466687D01*
X51824484Y-53375323D01*
X51834085Y-53283966D01*
X51842658Y-53196935D01*
X51843538Y-53194032D01*
X51844479Y-53185084D01*
X51871190Y-53102873D01*
X51894693Y-53025396D01*
X51898956Y-53017419D01*
X51903590Y-53003159D01*
X51943883Y-52933367D01*
X51979191Y-52867313D01*
X51988732Y-52855687D01*
X51999233Y-52837499D01*
X52049220Y-52781981D01*
X52092909Y-52728748D01*
X52109165Y-52715406D01*
X52127229Y-52695345D01*
X52182855Y-52654930D01*
X52231474Y-52615030D01*
X52255311Y-52602288D01*
X52281984Y-52582910D01*
X52339346Y-52557370D01*
X52389557Y-52530532D01*
X52421151Y-52520948D01*
X52456733Y-52505106D01*
X52512344Y-52493285D01*
X52561096Y-52478497D01*
X52599897Y-52474675D01*
X52643840Y-52465335D01*
X52694730Y-52465335D01*
X52739484Y-52460927D01*
X52784238Y-52465335D01*
G37*
G36*
X66200433Y-47582464D02*
G01*
X66251323Y-47582464D01*
X66295266Y-47591804D01*
X66334066Y-47595626D01*
X66382814Y-47610413D01*
X66438430Y-47622235D01*
X66474013Y-47638078D01*
X66505605Y-47647661D01*
X66555810Y-47674496D01*
X66613179Y-47700039D01*
X66639853Y-47719419D01*
X66663688Y-47732159D01*
X66712298Y-47772052D01*
X66767934Y-47812474D01*
X66786000Y-47832538D01*
X66802253Y-47845877D01*
X66845930Y-47899098D01*
X66895930Y-47954628D01*
X66906433Y-47972820D01*
X66915971Y-47984442D01*
X66951265Y-48050473D01*
X66991573Y-48120288D01*
X66996208Y-48134553D01*
X67000469Y-48142525D01*
X67023957Y-48219955D01*
X67050684Y-48302213D01*
X67051625Y-48311166D01*
X67052504Y-48314064D01*
X67061061Y-48400944D01*
X67070679Y-48492452D01*
X67061060Y-48583967D01*
X67052504Y-48670839D01*
X67051625Y-48673736D01*
X67050684Y-48682691D01*
X67023952Y-48764962D01*
X67000469Y-48842378D01*
X66996209Y-48850347D01*
X66991573Y-48864616D01*
X66951258Y-48934442D01*
X66915971Y-49000461D01*
X66906435Y-49012080D01*
X66895930Y-49030276D01*
X66845921Y-49085816D01*
X66802253Y-49139026D01*
X66786003Y-49152361D01*
X66767934Y-49172430D01*
X66712287Y-49212858D01*
X66663688Y-49252744D01*
X66639859Y-49265480D01*
X66613179Y-49284865D01*
X66555799Y-49310412D01*
X66505605Y-49337242D01*
X66474020Y-49346822D01*
X66438430Y-49362669D01*
X66382803Y-49374492D01*
X66334066Y-49389277D01*
X66295275Y-49393097D01*
X66251323Y-49402440D01*
X66200423Y-49402440D01*
X66155679Y-49406847D01*
X66110935Y-49402440D01*
X66060035Y-49402440D01*
X66016083Y-49393097D01*
X65977291Y-49389277D01*
X65928550Y-49374492D01*
X65872928Y-49362669D01*
X65837339Y-49346823D01*
X65805752Y-49337242D01*
X65755552Y-49310409D01*
X65698179Y-49284865D01*
X65671501Y-49265482D01*
X65647669Y-49252744D01*
X65599061Y-49212852D01*
X65543424Y-49172430D01*
X65525357Y-49152364D01*
X65509104Y-49139026D01*
X65465425Y-49085803D01*
X65415428Y-49030276D01*
X65404925Y-49012084D01*
X65395386Y-49000461D01*
X65360085Y-48934419D01*
X65319785Y-48864616D01*
X65315150Y-48850352D01*
X65310888Y-48842378D01*
X65287390Y-48764915D01*
X65260674Y-48682691D01*
X65259733Y-48673741D01*
X65258853Y-48670839D01*
X65250281Y-48583816D01*
X65240679Y-48492452D01*
X65250280Y-48401095D01*
X65258853Y-48314064D01*
X65259733Y-48311161D01*
X65260674Y-48302213D01*
X65287385Y-48220002D01*
X65310888Y-48142525D01*
X65315151Y-48134548D01*
X65319785Y-48120288D01*
X65360078Y-48050496D01*
X65395386Y-47984442D01*
X65404927Y-47972816D01*
X65415428Y-47954628D01*
X65465415Y-47899110D01*
X65509104Y-47845877D01*
X65525360Y-47832535D01*
X65543424Y-47812474D01*
X65599050Y-47772059D01*
X65647669Y-47732159D01*
X65671506Y-47719417D01*
X65698179Y-47700039D01*
X65755541Y-47674499D01*
X65805752Y-47647661D01*
X65837346Y-47638077D01*
X65872928Y-47622235D01*
X65928539Y-47610414D01*
X65977291Y-47595626D01*
X66016092Y-47591804D01*
X66060035Y-47582464D01*
X66110925Y-47582464D01*
X66155679Y-47578056D01*
X66200433Y-47582464D01*
G37*
G36*
X131044754Y-45750012D02*
G01*
X131095644Y-45750012D01*
X131139587Y-45759352D01*
X131178387Y-45763174D01*
X131227135Y-45777961D01*
X131282751Y-45789783D01*
X131318334Y-45805626D01*
X131349926Y-45815209D01*
X131400131Y-45842044D01*
X131457500Y-45867587D01*
X131484174Y-45886967D01*
X131508009Y-45899707D01*
X131556619Y-45939600D01*
X131612255Y-45980022D01*
X131630321Y-46000086D01*
X131646574Y-46013425D01*
X131690251Y-46066646D01*
X131740251Y-46122176D01*
X131750754Y-46140368D01*
X131760292Y-46151990D01*
X131795586Y-46218021D01*
X131835894Y-46287836D01*
X131840529Y-46302101D01*
X131844790Y-46310073D01*
X131868278Y-46387503D01*
X131895005Y-46469761D01*
X131895946Y-46478714D01*
X131896825Y-46481612D01*
X131905382Y-46568492D01*
X131915000Y-46660000D01*
X131905381Y-46751515D01*
X131896825Y-46838387D01*
X131895946Y-46841284D01*
X131895005Y-46850239D01*
X131868273Y-46932510D01*
X131844790Y-47009926D01*
X131840530Y-47017895D01*
X131835894Y-47032164D01*
X131795579Y-47101990D01*
X131760292Y-47168009D01*
X131750756Y-47179628D01*
X131740251Y-47197824D01*
X131690242Y-47253364D01*
X131646574Y-47306574D01*
X131630324Y-47319909D01*
X131612255Y-47339978D01*
X131556608Y-47380406D01*
X131508009Y-47420292D01*
X131484180Y-47433028D01*
X131457500Y-47452413D01*
X131400120Y-47477960D01*
X131349926Y-47504790D01*
X131318341Y-47514370D01*
X131282751Y-47530217D01*
X131227124Y-47542040D01*
X131178387Y-47556825D01*
X131139596Y-47560645D01*
X131095644Y-47569988D01*
X131044744Y-47569988D01*
X131000000Y-47574395D01*
X130955256Y-47569988D01*
X130904356Y-47569988D01*
X130860404Y-47560645D01*
X130821612Y-47556825D01*
X130772871Y-47542040D01*
X130717249Y-47530217D01*
X130681660Y-47514371D01*
X130650073Y-47504790D01*
X130599873Y-47477957D01*
X130542500Y-47452413D01*
X130515822Y-47433030D01*
X130491990Y-47420292D01*
X130443382Y-47380400D01*
X130387745Y-47339978D01*
X130369678Y-47319912D01*
X130353425Y-47306574D01*
X130309746Y-47253351D01*
X130259749Y-47197824D01*
X130249246Y-47179632D01*
X130239707Y-47168009D01*
X130204406Y-47101967D01*
X130164106Y-47032164D01*
X130159471Y-47017900D01*
X130155209Y-47009926D01*
X130131711Y-46932463D01*
X130104995Y-46850239D01*
X130104054Y-46841289D01*
X130103174Y-46838387D01*
X130094602Y-46751364D01*
X130085000Y-46660000D01*
X130094601Y-46568643D01*
X130103174Y-46481612D01*
X130104054Y-46478709D01*
X130104995Y-46469761D01*
X130131706Y-46387550D01*
X130155209Y-46310073D01*
X130159472Y-46302096D01*
X130164106Y-46287836D01*
X130204399Y-46218044D01*
X130239707Y-46151990D01*
X130249248Y-46140364D01*
X130259749Y-46122176D01*
X130309736Y-46066658D01*
X130353425Y-46013425D01*
X130369681Y-46000083D01*
X130387745Y-45980022D01*
X130443371Y-45939607D01*
X130491990Y-45899707D01*
X130515827Y-45886965D01*
X130542500Y-45867587D01*
X130599862Y-45842047D01*
X130650073Y-45815209D01*
X130681667Y-45805625D01*
X130717249Y-45789783D01*
X130772860Y-45777962D01*
X130821612Y-45763174D01*
X130860413Y-45759352D01*
X130904356Y-45750012D01*
X130955246Y-45750012D01*
X131000000Y-45745604D01*
X131044754Y-45750012D01*
G37*
G36*
X117744754Y-43090012D02*
G01*
X117795644Y-43090012D01*
X117839587Y-43099352D01*
X117878387Y-43103174D01*
X117927135Y-43117961D01*
X117982751Y-43129783D01*
X118018334Y-43145626D01*
X118049926Y-43155209D01*
X118100131Y-43182044D01*
X118157500Y-43207587D01*
X118184174Y-43226967D01*
X118208009Y-43239707D01*
X118256619Y-43279600D01*
X118312255Y-43320022D01*
X118330321Y-43340086D01*
X118346574Y-43353425D01*
X118390251Y-43406646D01*
X118440251Y-43462176D01*
X118450754Y-43480368D01*
X118460292Y-43491990D01*
X118495586Y-43558021D01*
X118535894Y-43627836D01*
X118540529Y-43642101D01*
X118544790Y-43650073D01*
X118568278Y-43727503D01*
X118595005Y-43809761D01*
X118595946Y-43818714D01*
X118596825Y-43821612D01*
X118605382Y-43908492D01*
X118615000Y-44000000D01*
X118605381Y-44091515D01*
X118596825Y-44178387D01*
X118595946Y-44181284D01*
X118595005Y-44190239D01*
X118568273Y-44272510D01*
X118544790Y-44349926D01*
X118540530Y-44357895D01*
X118535894Y-44372164D01*
X118495579Y-44441990D01*
X118460292Y-44508009D01*
X118450756Y-44519628D01*
X118440251Y-44537824D01*
X118390242Y-44593364D01*
X118346574Y-44646574D01*
X118330324Y-44659909D01*
X118312255Y-44679978D01*
X118256608Y-44720406D01*
X118208009Y-44760292D01*
X118184180Y-44773028D01*
X118157500Y-44792413D01*
X118100120Y-44817960D01*
X118049926Y-44844790D01*
X118018341Y-44854370D01*
X117982751Y-44870217D01*
X117927124Y-44882040D01*
X117878387Y-44896825D01*
X117839596Y-44900645D01*
X117795644Y-44909988D01*
X117744744Y-44909988D01*
X117700000Y-44914395D01*
X117655256Y-44909988D01*
X117604356Y-44909988D01*
X117560404Y-44900645D01*
X117521612Y-44896825D01*
X117472871Y-44882040D01*
X117417249Y-44870217D01*
X117381660Y-44854371D01*
X117350073Y-44844790D01*
X117299873Y-44817957D01*
X117242500Y-44792413D01*
X117215822Y-44773030D01*
X117191990Y-44760292D01*
X117143382Y-44720400D01*
X117087745Y-44679978D01*
X117069678Y-44659912D01*
X117053425Y-44646574D01*
X117009746Y-44593351D01*
X116959749Y-44537824D01*
X116949246Y-44519632D01*
X116939707Y-44508009D01*
X116904406Y-44441967D01*
X116864106Y-44372164D01*
X116859471Y-44357900D01*
X116855209Y-44349926D01*
X116831711Y-44272463D01*
X116804995Y-44190239D01*
X116804054Y-44181289D01*
X116803174Y-44178387D01*
X116794602Y-44091364D01*
X116785000Y-44000000D01*
X116794601Y-43908643D01*
X116803174Y-43821612D01*
X116804054Y-43818709D01*
X116804995Y-43809761D01*
X116831706Y-43727550D01*
X116855209Y-43650073D01*
X116859472Y-43642096D01*
X116864106Y-43627836D01*
X116904399Y-43558044D01*
X116939707Y-43491990D01*
X116949248Y-43480364D01*
X116959749Y-43462176D01*
X117009736Y-43406658D01*
X117053425Y-43353425D01*
X117069681Y-43340083D01*
X117087745Y-43320022D01*
X117143371Y-43279607D01*
X117191990Y-43239707D01*
X117215827Y-43226965D01*
X117242500Y-43207587D01*
X117299862Y-43182047D01*
X117350073Y-43155209D01*
X117381667Y-43145625D01*
X117417249Y-43129783D01*
X117472860Y-43117962D01*
X117521612Y-43103174D01*
X117560413Y-43099352D01*
X117604356Y-43090012D01*
X117655246Y-43090012D01*
X117700000Y-43085604D01*
X117744754Y-43090012D01*
G37*
G36*
X73850737Y-42198930D02*
G01*
X73907316Y-42198930D01*
X73957090Y-42208234D01*
X74002850Y-42212238D01*
X74059018Y-42227288D01*
X74120455Y-42238773D01*
X74162124Y-42254915D01*
X74200610Y-42265228D01*
X74258873Y-42292396D01*
X74322644Y-42317101D01*
X74355556Y-42337479D01*
X74386164Y-42351752D01*
X74443903Y-42392181D01*
X74506997Y-42431248D01*
X74531181Y-42453295D01*
X74553867Y-42469180D01*
X74608135Y-42523448D01*
X74667236Y-42577326D01*
X74683346Y-42598659D01*
X74698640Y-42613953D01*
X74746342Y-42682079D01*
X74797906Y-42750360D01*
X74807144Y-42768914D01*
X74816064Y-42781652D01*
X74854037Y-42863086D01*
X74894556Y-42944459D01*
X74898585Y-42958621D01*
X74902590Y-42967209D01*
X74927834Y-43061422D01*
X74953894Y-43153012D01*
X74954696Y-43161670D01*
X74955580Y-43164968D01*
X74965347Y-43276607D01*
X74973901Y-43368918D01*
X74965346Y-43461235D01*
X74955580Y-43572867D01*
X74954696Y-43576164D01*
X74953894Y-43584824D01*
X74927832Y-43676421D01*
X74902590Y-43770627D01*
X74898585Y-43779215D01*
X74894556Y-43793377D01*
X74854042Y-43874738D01*
X74816066Y-43956181D01*
X74807145Y-43968920D01*
X74797906Y-43987476D01*
X74746331Y-44055771D01*
X74698638Y-44123884D01*
X74683349Y-44139172D01*
X74667236Y-44160510D01*
X74608123Y-44214398D01*
X74553867Y-44268655D01*
X74531186Y-44284536D01*
X74506997Y-44306588D01*
X74443891Y-44345661D01*
X74386164Y-44386083D01*
X74355563Y-44400352D01*
X74322644Y-44420735D01*
X74258860Y-44445444D01*
X74200610Y-44472607D01*
X74162132Y-44482916D01*
X74120455Y-44499063D01*
X74059006Y-44510549D01*
X74002850Y-44525597D01*
X73957101Y-44529599D01*
X73907316Y-44538906D01*
X73850726Y-44538906D01*
X73798901Y-44543440D01*
X73747076Y-44538906D01*
X73690486Y-44538906D01*
X73640701Y-44529599D01*
X73594951Y-44525597D01*
X73538792Y-44510549D01*
X73477347Y-44499063D01*
X73435671Y-44482917D01*
X73397191Y-44472607D01*
X73338935Y-44445442D01*
X73275158Y-44420735D01*
X73242241Y-44400353D01*
X73211637Y-44386083D01*
X73153902Y-44345656D01*
X73090805Y-44306588D01*
X73066618Y-44284539D01*
X73043934Y-44268655D01*
X72989666Y-44214387D01*
X72930566Y-44160510D01*
X72914455Y-44139176D01*
X72899163Y-44123884D01*
X72851456Y-44055753D01*
X72799896Y-43987476D01*
X72790659Y-43968925D01*
X72781735Y-43956181D01*
X72743743Y-43874706D01*
X72703246Y-43793377D01*
X72699218Y-43779220D01*
X72695211Y-43770627D01*
X72669952Y-43676360D01*
X72643908Y-43584824D01*
X72643106Y-43576170D01*
X72642221Y-43572867D01*
X72632437Y-43461042D01*
X72623901Y-43368918D01*
X72632437Y-43276801D01*
X72642221Y-43164968D01*
X72643106Y-43161664D01*
X72643908Y-43153012D01*
X72669950Y-43061482D01*
X72695211Y-42967209D01*
X72699218Y-42958615D01*
X72703246Y-42944459D01*
X72743748Y-42863118D01*
X72781737Y-42781652D01*
X72790659Y-42768909D01*
X72799896Y-42750360D01*
X72851445Y-42682097D01*
X72899161Y-42613953D01*
X72914458Y-42598655D01*
X72930566Y-42577326D01*
X72989655Y-42523458D01*
X73043936Y-42469178D01*
X73066625Y-42453290D01*
X73090805Y-42431248D01*
X73153892Y-42392185D01*
X73211635Y-42351754D01*
X73242241Y-42337481D01*
X73275158Y-42317101D01*
X73338931Y-42292395D01*
X73397192Y-42265228D01*
X73435677Y-42254915D01*
X73477347Y-42238773D01*
X73538781Y-42227288D01*
X73594951Y-42212238D01*
X73640711Y-42208234D01*
X73690486Y-42198930D01*
X73747065Y-42198930D01*
X73798901Y-42194395D01*
X73850737Y-42198930D01*
G37*
G36*
X131000734Y-42198921D02*
G01*
X131057313Y-42198921D01*
X131107087Y-42208225D01*
X131152847Y-42212229D01*
X131209015Y-42227279D01*
X131270452Y-42238764D01*
X131312121Y-42254906D01*
X131350607Y-42265219D01*
X131408870Y-42292387D01*
X131472641Y-42317092D01*
X131505553Y-42337470D01*
X131536161Y-42351743D01*
X131593900Y-42392172D01*
X131656994Y-42431239D01*
X131681178Y-42453286D01*
X131703864Y-42469171D01*
X131758132Y-42523439D01*
X131817233Y-42577317D01*
X131833343Y-42598650D01*
X131848637Y-42613944D01*
X131896339Y-42682070D01*
X131947903Y-42750351D01*
X131957141Y-42768905D01*
X131966061Y-42781643D01*
X132004034Y-42863077D01*
X132044553Y-42944450D01*
X132048582Y-42958612D01*
X132052587Y-42967200D01*
X132077831Y-43061413D01*
X132103891Y-43153003D01*
X132104693Y-43161661D01*
X132105577Y-43164959D01*
X132115344Y-43276598D01*
X132123898Y-43368909D01*
X132115343Y-43461226D01*
X132105577Y-43572858D01*
X132104693Y-43576155D01*
X132103891Y-43584815D01*
X132077829Y-43676412D01*
X132052587Y-43770618D01*
X132048582Y-43779206D01*
X132044553Y-43793368D01*
X132004039Y-43874729D01*
X131966063Y-43956172D01*
X131957142Y-43968911D01*
X131947903Y-43987467D01*
X131896328Y-44055762D01*
X131848635Y-44123875D01*
X131833346Y-44139163D01*
X131817233Y-44160501D01*
X131758120Y-44214389D01*
X131703864Y-44268646D01*
X131681183Y-44284527D01*
X131656994Y-44306579D01*
X131593888Y-44345652D01*
X131536161Y-44386074D01*
X131505560Y-44400343D01*
X131472641Y-44420726D01*
X131408857Y-44445435D01*
X131350607Y-44472598D01*
X131312129Y-44482907D01*
X131270452Y-44499054D01*
X131209003Y-44510540D01*
X131152847Y-44525588D01*
X131107098Y-44529590D01*
X131057313Y-44538897D01*
X131000723Y-44538897D01*
X130948898Y-44543431D01*
X130897073Y-44538897D01*
X130840483Y-44538897D01*
X130790698Y-44529590D01*
X130744948Y-44525588D01*
X130688789Y-44510540D01*
X130627344Y-44499054D01*
X130585668Y-44482908D01*
X130547188Y-44472598D01*
X130488932Y-44445433D01*
X130425155Y-44420726D01*
X130392238Y-44400344D01*
X130361634Y-44386074D01*
X130303899Y-44345647D01*
X130240802Y-44306579D01*
X130216615Y-44284530D01*
X130193931Y-44268646D01*
X130139663Y-44214378D01*
X130080563Y-44160501D01*
X130064452Y-44139167D01*
X130049160Y-44123875D01*
X130001453Y-44055744D01*
X129949893Y-43987467D01*
X129940656Y-43968916D01*
X129931732Y-43956172D01*
X129893740Y-43874697D01*
X129853243Y-43793368D01*
X129849215Y-43779211D01*
X129845208Y-43770618D01*
X129819949Y-43676351D01*
X129793905Y-43584815D01*
X129793103Y-43576161D01*
X129792218Y-43572858D01*
X129782434Y-43461033D01*
X129773898Y-43368909D01*
X129782434Y-43276792D01*
X129792218Y-43164959D01*
X129793103Y-43161655D01*
X129793905Y-43153003D01*
X129819947Y-43061473D01*
X129845208Y-42967200D01*
X129849215Y-42958606D01*
X129853243Y-42944450D01*
X129893745Y-42863109D01*
X129931734Y-42781643D01*
X129940656Y-42768900D01*
X129949893Y-42750351D01*
X130001442Y-42682088D01*
X130049158Y-42613944D01*
X130064455Y-42598646D01*
X130080563Y-42577317D01*
X130139652Y-42523449D01*
X130193933Y-42469169D01*
X130216622Y-42453281D01*
X130240802Y-42431239D01*
X130303889Y-42392176D01*
X130361632Y-42351745D01*
X130392238Y-42337472D01*
X130425155Y-42317092D01*
X130488928Y-42292386D01*
X130547189Y-42265219D01*
X130585674Y-42254906D01*
X130627344Y-42238764D01*
X130688778Y-42227279D01*
X130744948Y-42212229D01*
X130790708Y-42208225D01*
X130840483Y-42198921D01*
X130897062Y-42198921D01*
X130948898Y-42194386D01*
X131000734Y-42198921D01*
G37*
M02*
