G04 #@! TF.GenerationSoftware,KiCad,Pcbnew,7.0.8*
G04 #@! TF.CreationDate,2023-10-15T17:45:36+09:00*
G04 #@! TF.ProjectId,pangaea-bottom-thumb-k2-4keys,70616e67-6165-4612-9d62-6f74746f6d2d,1*
G04 #@! TF.SameCoordinates,Original*
G04 #@! TF.FileFunction,Legend,Top*
G04 #@! TF.FilePolarity,Positive*
%FSLAX46Y46*%
G04 Gerber Fmt 4.6, Leading zero omitted, Abs format (unit mm)*
G04 Created by KiCad (PCBNEW 7.0.8) date 2023-10-15 17:45:36*
%MOMM*%
%LPD*%
G01*
G04 APERTURE LIST*
%ADD10C,0.300000*%
%ADD11C,2.350000*%
%ADD12C,1.830000*%
G04 APERTURE END LIST*
D10*
X75452857Y-48903328D02*
X74952857Y-48189042D01*
X74595714Y-48903328D02*
X74595714Y-47403328D01*
X74595714Y-47403328D02*
X75167143Y-47403328D01*
X75167143Y-47403328D02*
X75310000Y-47474757D01*
X75310000Y-47474757D02*
X75381429Y-47546185D01*
X75381429Y-47546185D02*
X75452857Y-47689042D01*
X75452857Y-47689042D02*
X75452857Y-47903328D01*
X75452857Y-47903328D02*
X75381429Y-48046185D01*
X75381429Y-48046185D02*
X75310000Y-48117614D01*
X75310000Y-48117614D02*
X75167143Y-48189042D01*
X75167143Y-48189042D02*
X74595714Y-48189042D01*
X76095714Y-48903328D02*
X76095714Y-47903328D01*
X76095714Y-47403328D02*
X76024286Y-47474757D01*
X76024286Y-47474757D02*
X76095714Y-47546185D01*
X76095714Y-47546185D02*
X76167143Y-47474757D01*
X76167143Y-47474757D02*
X76095714Y-47403328D01*
X76095714Y-47403328D02*
X76095714Y-47546185D01*
X77452858Y-47903328D02*
X77452858Y-49117614D01*
X77452858Y-49117614D02*
X77381429Y-49260471D01*
X77381429Y-49260471D02*
X77310000Y-49331900D01*
X77310000Y-49331900D02*
X77167143Y-49403328D01*
X77167143Y-49403328D02*
X76952858Y-49403328D01*
X76952858Y-49403328D02*
X76810000Y-49331900D01*
X77452858Y-48831900D02*
X77310000Y-48903328D01*
X77310000Y-48903328D02*
X77024286Y-48903328D01*
X77024286Y-48903328D02*
X76881429Y-48831900D01*
X76881429Y-48831900D02*
X76810000Y-48760471D01*
X76810000Y-48760471D02*
X76738572Y-48617614D01*
X76738572Y-48617614D02*
X76738572Y-48189042D01*
X76738572Y-48189042D02*
X76810000Y-48046185D01*
X76810000Y-48046185D02*
X76881429Y-47974757D01*
X76881429Y-47974757D02*
X77024286Y-47903328D01*
X77024286Y-47903328D02*
X77310000Y-47903328D01*
X77310000Y-47903328D02*
X77452858Y-47974757D01*
X78167143Y-48903328D02*
X78167143Y-47403328D01*
X78810001Y-48903328D02*
X78810001Y-48117614D01*
X78810001Y-48117614D02*
X78738572Y-47974757D01*
X78738572Y-47974757D02*
X78595715Y-47903328D01*
X78595715Y-47903328D02*
X78381429Y-47903328D01*
X78381429Y-47903328D02*
X78238572Y-47974757D01*
X78238572Y-47974757D02*
X78167143Y-48046185D01*
X79310001Y-47903328D02*
X79881429Y-47903328D01*
X79524286Y-47403328D02*
X79524286Y-48689042D01*
X79524286Y-48689042D02*
X79595715Y-48831900D01*
X79595715Y-48831900D02*
X79738572Y-48903328D01*
X79738572Y-48903328D02*
X79881429Y-48903328D01*
X80381429Y-48903328D02*
X80381429Y-47903328D01*
X80381429Y-48046185D02*
X80452858Y-47974757D01*
X80452858Y-47974757D02*
X80595715Y-47903328D01*
X80595715Y-47903328D02*
X80810001Y-47903328D01*
X80810001Y-47903328D02*
X80952858Y-47974757D01*
X80952858Y-47974757D02*
X81024287Y-48117614D01*
X81024287Y-48117614D02*
X81024287Y-48903328D01*
X81024287Y-48117614D02*
X81095715Y-47974757D01*
X81095715Y-47974757D02*
X81238572Y-47903328D01*
X81238572Y-47903328D02*
X81452858Y-47903328D01*
X81452858Y-47903328D02*
X81595715Y-47974757D01*
X81595715Y-47974757D02*
X81667144Y-48117614D01*
X81667144Y-48117614D02*
X81667144Y-48903328D01*
X82595715Y-48903328D02*
X82452858Y-48831900D01*
X82452858Y-48831900D02*
X82381429Y-48760471D01*
X82381429Y-48760471D02*
X82310001Y-48617614D01*
X82310001Y-48617614D02*
X82310001Y-48189042D01*
X82310001Y-48189042D02*
X82381429Y-48046185D01*
X82381429Y-48046185D02*
X82452858Y-47974757D01*
X82452858Y-47974757D02*
X82595715Y-47903328D01*
X82595715Y-47903328D02*
X82810001Y-47903328D01*
X82810001Y-47903328D02*
X82952858Y-47974757D01*
X82952858Y-47974757D02*
X83024287Y-48046185D01*
X83024287Y-48046185D02*
X83095715Y-48189042D01*
X83095715Y-48189042D02*
X83095715Y-48617614D01*
X83095715Y-48617614D02*
X83024287Y-48760471D01*
X83024287Y-48760471D02*
X82952858Y-48831900D01*
X82952858Y-48831900D02*
X82810001Y-48903328D01*
X82810001Y-48903328D02*
X82595715Y-48903328D01*
X83667144Y-48831900D02*
X83810001Y-48903328D01*
X83810001Y-48903328D02*
X84095715Y-48903328D01*
X84095715Y-48903328D02*
X84238572Y-48831900D01*
X84238572Y-48831900D02*
X84310001Y-48689042D01*
X84310001Y-48689042D02*
X84310001Y-48617614D01*
X84310001Y-48617614D02*
X84238572Y-48474757D01*
X84238572Y-48474757D02*
X84095715Y-48403328D01*
X84095715Y-48403328D02*
X83881430Y-48403328D01*
X83881430Y-48403328D02*
X83738572Y-48331900D01*
X83738572Y-48331900D02*
X83667144Y-48189042D01*
X83667144Y-48189042D02*
X83667144Y-48117614D01*
X83667144Y-48117614D02*
X83738572Y-47974757D01*
X83738572Y-47974757D02*
X83881430Y-47903328D01*
X83881430Y-47903328D02*
X84095715Y-47903328D01*
X84095715Y-47903328D02*
X84238572Y-47974757D01*
X84738573Y-47903328D02*
X85310001Y-47903328D01*
X84952858Y-47403328D02*
X84952858Y-48689042D01*
X84952858Y-48689042D02*
X85024287Y-48831900D01*
X85024287Y-48831900D02*
X85167144Y-48903328D01*
X85167144Y-48903328D02*
X85310001Y-48903328D01*
X86952858Y-48903328D02*
X86952858Y-47403328D01*
X87095716Y-48331900D02*
X87524287Y-48903328D01*
X87524287Y-47903328D02*
X86952858Y-48474757D01*
X88738573Y-48831900D02*
X88595716Y-48903328D01*
X88595716Y-48903328D02*
X88310002Y-48903328D01*
X88310002Y-48903328D02*
X88167144Y-48831900D01*
X88167144Y-48831900D02*
X88095716Y-48689042D01*
X88095716Y-48689042D02*
X88095716Y-48117614D01*
X88095716Y-48117614D02*
X88167144Y-47974757D01*
X88167144Y-47974757D02*
X88310002Y-47903328D01*
X88310002Y-47903328D02*
X88595716Y-47903328D01*
X88595716Y-47903328D02*
X88738573Y-47974757D01*
X88738573Y-47974757D02*
X88810002Y-48117614D01*
X88810002Y-48117614D02*
X88810002Y-48260471D01*
X88810002Y-48260471D02*
X88095716Y-48403328D01*
X89310001Y-47903328D02*
X89667144Y-48903328D01*
X90024287Y-47903328D02*
X89667144Y-48903328D01*
X89667144Y-48903328D02*
X89524287Y-49260471D01*
X89524287Y-49260471D02*
X89452858Y-49331900D01*
X89452858Y-49331900D02*
X89310001Y-49403328D01*
X91667144Y-48831900D02*
X91810001Y-48903328D01*
X91810001Y-48903328D02*
X92095715Y-48903328D01*
X92095715Y-48903328D02*
X92238572Y-48831900D01*
X92238572Y-48831900D02*
X92310001Y-48689042D01*
X92310001Y-48689042D02*
X92310001Y-48617614D01*
X92310001Y-48617614D02*
X92238572Y-48474757D01*
X92238572Y-48474757D02*
X92095715Y-48403328D01*
X92095715Y-48403328D02*
X91881430Y-48403328D01*
X91881430Y-48403328D02*
X91738572Y-48331900D01*
X91738572Y-48331900D02*
X91667144Y-48189042D01*
X91667144Y-48189042D02*
X91667144Y-48117614D01*
X91667144Y-48117614D02*
X91738572Y-47974757D01*
X91738572Y-47974757D02*
X91881430Y-47903328D01*
X91881430Y-47903328D02*
X92095715Y-47903328D01*
X92095715Y-47903328D02*
X92238572Y-47974757D01*
X92810001Y-47903328D02*
X93095716Y-48903328D01*
X93095716Y-48903328D02*
X93381430Y-48189042D01*
X93381430Y-48189042D02*
X93667144Y-48903328D01*
X93667144Y-48903328D02*
X93952858Y-47903328D01*
X94524287Y-48903328D02*
X94524287Y-47903328D01*
X94524287Y-47403328D02*
X94452859Y-47474757D01*
X94452859Y-47474757D02*
X94524287Y-47546185D01*
X94524287Y-47546185D02*
X94595716Y-47474757D01*
X94595716Y-47474757D02*
X94524287Y-47403328D01*
X94524287Y-47403328D02*
X94524287Y-47546185D01*
X95024288Y-47903328D02*
X95595716Y-47903328D01*
X95238573Y-47403328D02*
X95238573Y-48689042D01*
X95238573Y-48689042D02*
X95310002Y-48831900D01*
X95310002Y-48831900D02*
X95452859Y-48903328D01*
X95452859Y-48903328D02*
X95595716Y-48903328D01*
X96738574Y-48831900D02*
X96595716Y-48903328D01*
X96595716Y-48903328D02*
X96310002Y-48903328D01*
X96310002Y-48903328D02*
X96167145Y-48831900D01*
X96167145Y-48831900D02*
X96095716Y-48760471D01*
X96095716Y-48760471D02*
X96024288Y-48617614D01*
X96024288Y-48617614D02*
X96024288Y-48189042D01*
X96024288Y-48189042D02*
X96095716Y-48046185D01*
X96095716Y-48046185D02*
X96167145Y-47974757D01*
X96167145Y-47974757D02*
X96310002Y-47903328D01*
X96310002Y-47903328D02*
X96595716Y-47903328D01*
X96595716Y-47903328D02*
X96738574Y-47974757D01*
X97381430Y-48903328D02*
X97381430Y-47403328D01*
X98024288Y-48903328D02*
X98024288Y-48117614D01*
X98024288Y-48117614D02*
X97952859Y-47974757D01*
X97952859Y-47974757D02*
X97810002Y-47903328D01*
X97810002Y-47903328D02*
X97595716Y-47903328D01*
X97595716Y-47903328D02*
X97452859Y-47974757D01*
X97452859Y-47974757D02*
X97381430Y-48046185D01*
X99881430Y-48903328D02*
X99881430Y-47903328D01*
X99881430Y-48189042D02*
X99952859Y-48046185D01*
X99952859Y-48046185D02*
X100024288Y-47974757D01*
X100024288Y-47974757D02*
X100167145Y-47903328D01*
X100167145Y-47903328D02*
X100310002Y-47903328D01*
X101381430Y-48831900D02*
X101238573Y-48903328D01*
X101238573Y-48903328D02*
X100952859Y-48903328D01*
X100952859Y-48903328D02*
X100810001Y-48831900D01*
X100810001Y-48831900D02*
X100738573Y-48689042D01*
X100738573Y-48689042D02*
X100738573Y-48117614D01*
X100738573Y-48117614D02*
X100810001Y-47974757D01*
X100810001Y-47974757D02*
X100952859Y-47903328D01*
X100952859Y-47903328D02*
X101238573Y-47903328D01*
X101238573Y-47903328D02*
X101381430Y-47974757D01*
X101381430Y-47974757D02*
X101452859Y-48117614D01*
X101452859Y-48117614D02*
X101452859Y-48260471D01*
X101452859Y-48260471D02*
X100738573Y-48403328D01*
X102095715Y-48903328D02*
X102095715Y-47903328D01*
X102095715Y-48046185D02*
X102167144Y-47974757D01*
X102167144Y-47974757D02*
X102310001Y-47903328D01*
X102310001Y-47903328D02*
X102524287Y-47903328D01*
X102524287Y-47903328D02*
X102667144Y-47974757D01*
X102667144Y-47974757D02*
X102738573Y-48117614D01*
X102738573Y-48117614D02*
X102738573Y-48903328D01*
X102738573Y-48117614D02*
X102810001Y-47974757D01*
X102810001Y-47974757D02*
X102952858Y-47903328D01*
X102952858Y-47903328D02*
X103167144Y-47903328D01*
X103167144Y-47903328D02*
X103310001Y-47974757D01*
X103310001Y-47974757D02*
X103381430Y-48117614D01*
X103381430Y-48117614D02*
X103381430Y-48903328D01*
X104310001Y-48903328D02*
X104167144Y-48831900D01*
X104167144Y-48831900D02*
X104095715Y-48760471D01*
X104095715Y-48760471D02*
X104024287Y-48617614D01*
X104024287Y-48617614D02*
X104024287Y-48189042D01*
X104024287Y-48189042D02*
X104095715Y-48046185D01*
X104095715Y-48046185D02*
X104167144Y-47974757D01*
X104167144Y-47974757D02*
X104310001Y-47903328D01*
X104310001Y-47903328D02*
X104524287Y-47903328D01*
X104524287Y-47903328D02*
X104667144Y-47974757D01*
X104667144Y-47974757D02*
X104738573Y-48046185D01*
X104738573Y-48046185D02*
X104810001Y-48189042D01*
X104810001Y-48189042D02*
X104810001Y-48617614D01*
X104810001Y-48617614D02*
X104738573Y-48760471D01*
X104738573Y-48760471D02*
X104667144Y-48831900D01*
X104667144Y-48831900D02*
X104524287Y-48903328D01*
X104524287Y-48903328D02*
X104310001Y-48903328D01*
X105310001Y-47903328D02*
X105667144Y-48903328D01*
X105667144Y-48903328D02*
X106024287Y-47903328D01*
X107167144Y-48831900D02*
X107024287Y-48903328D01*
X107024287Y-48903328D02*
X106738573Y-48903328D01*
X106738573Y-48903328D02*
X106595715Y-48831900D01*
X106595715Y-48831900D02*
X106524287Y-48689042D01*
X106524287Y-48689042D02*
X106524287Y-48117614D01*
X106524287Y-48117614D02*
X106595715Y-47974757D01*
X106595715Y-47974757D02*
X106738573Y-47903328D01*
X106738573Y-47903328D02*
X107024287Y-47903328D01*
X107024287Y-47903328D02*
X107167144Y-47974757D01*
X107167144Y-47974757D02*
X107238573Y-48117614D01*
X107238573Y-48117614D02*
X107238573Y-48260471D01*
X107238573Y-48260471D02*
X106524287Y-48403328D01*
X108524287Y-48903328D02*
X108524287Y-47403328D01*
X108524287Y-48831900D02*
X108381429Y-48903328D01*
X108381429Y-48903328D02*
X108095715Y-48903328D01*
X108095715Y-48903328D02*
X107952858Y-48831900D01*
X107952858Y-48831900D02*
X107881429Y-48760471D01*
X107881429Y-48760471D02*
X107810001Y-48617614D01*
X107810001Y-48617614D02*
X107810001Y-48189042D01*
X107810001Y-48189042D02*
X107881429Y-48046185D01*
X107881429Y-48046185D02*
X107952858Y-47974757D01*
X107952858Y-47974757D02*
X108095715Y-47903328D01*
X108095715Y-47903328D02*
X108381429Y-47903328D01*
X108381429Y-47903328D02*
X108524287Y-47974757D01*
X110238572Y-47903328D02*
X110595715Y-48903328D01*
X110595715Y-48903328D02*
X110952858Y-47903328D01*
X112095715Y-48831900D02*
X111952858Y-48903328D01*
X111952858Y-48903328D02*
X111667144Y-48903328D01*
X111667144Y-48903328D02*
X111524286Y-48831900D01*
X111524286Y-48831900D02*
X111452858Y-48689042D01*
X111452858Y-48689042D02*
X111452858Y-48117614D01*
X111452858Y-48117614D02*
X111524286Y-47974757D01*
X111524286Y-47974757D02*
X111667144Y-47903328D01*
X111667144Y-47903328D02*
X111952858Y-47903328D01*
X111952858Y-47903328D02*
X112095715Y-47974757D01*
X112095715Y-47974757D02*
X112167144Y-48117614D01*
X112167144Y-48117614D02*
X112167144Y-48260471D01*
X112167144Y-48260471D02*
X111452858Y-48403328D01*
X112810000Y-48903328D02*
X112810000Y-47903328D01*
X112810000Y-48189042D02*
X112881429Y-48046185D01*
X112881429Y-48046185D02*
X112952858Y-47974757D01*
X112952858Y-47974757D02*
X113095715Y-47903328D01*
X113095715Y-47903328D02*
X113238572Y-47903328D01*
X113667143Y-48831900D02*
X113810000Y-48903328D01*
X113810000Y-48903328D02*
X114095714Y-48903328D01*
X114095714Y-48903328D02*
X114238571Y-48831900D01*
X114238571Y-48831900D02*
X114310000Y-48689042D01*
X114310000Y-48689042D02*
X114310000Y-48617614D01*
X114310000Y-48617614D02*
X114238571Y-48474757D01*
X114238571Y-48474757D02*
X114095714Y-48403328D01*
X114095714Y-48403328D02*
X113881429Y-48403328D01*
X113881429Y-48403328D02*
X113738571Y-48331900D01*
X113738571Y-48331900D02*
X113667143Y-48189042D01*
X113667143Y-48189042D02*
X113667143Y-48117614D01*
X113667143Y-48117614D02*
X113738571Y-47974757D01*
X113738571Y-47974757D02*
X113881429Y-47903328D01*
X113881429Y-47903328D02*
X114095714Y-47903328D01*
X114095714Y-47903328D02*
X114238571Y-47974757D01*
X114952857Y-48903328D02*
X114952857Y-47903328D01*
X114952857Y-47403328D02*
X114881429Y-47474757D01*
X114881429Y-47474757D02*
X114952857Y-47546185D01*
X114952857Y-47546185D02*
X115024286Y-47474757D01*
X115024286Y-47474757D02*
X114952857Y-47403328D01*
X114952857Y-47403328D02*
X114952857Y-47546185D01*
X115881429Y-48903328D02*
X115738572Y-48831900D01*
X115738572Y-48831900D02*
X115667143Y-48760471D01*
X115667143Y-48760471D02*
X115595715Y-48617614D01*
X115595715Y-48617614D02*
X115595715Y-48189042D01*
X115595715Y-48189042D02*
X115667143Y-48046185D01*
X115667143Y-48046185D02*
X115738572Y-47974757D01*
X115738572Y-47974757D02*
X115881429Y-47903328D01*
X115881429Y-47903328D02*
X116095715Y-47903328D01*
X116095715Y-47903328D02*
X116238572Y-47974757D01*
X116238572Y-47974757D02*
X116310001Y-48046185D01*
X116310001Y-48046185D02*
X116381429Y-48189042D01*
X116381429Y-48189042D02*
X116381429Y-48617614D01*
X116381429Y-48617614D02*
X116310001Y-48760471D01*
X116310001Y-48760471D02*
X116238572Y-48831900D01*
X116238572Y-48831900D02*
X116095715Y-48903328D01*
X116095715Y-48903328D02*
X115881429Y-48903328D01*
X117024286Y-47903328D02*
X117024286Y-48903328D01*
X117024286Y-48046185D02*
X117095715Y-47974757D01*
X117095715Y-47974757D02*
X117238572Y-47903328D01*
X117238572Y-47903328D02*
X117452858Y-47903328D01*
X117452858Y-47903328D02*
X117595715Y-47974757D01*
X117595715Y-47974757D02*
X117667144Y-48117614D01*
X117667144Y-48117614D02*
X117667144Y-48903328D01*
X119310001Y-47903328D02*
X119881429Y-47903328D01*
X119524286Y-48903328D02*
X119524286Y-47617614D01*
X119524286Y-47617614D02*
X119595715Y-47474757D01*
X119595715Y-47474757D02*
X119738572Y-47403328D01*
X119738572Y-47403328D02*
X119881429Y-47403328D01*
X120595715Y-48903328D02*
X120452858Y-48831900D01*
X120452858Y-48831900D02*
X120381429Y-48760471D01*
X120381429Y-48760471D02*
X120310001Y-48617614D01*
X120310001Y-48617614D02*
X120310001Y-48189042D01*
X120310001Y-48189042D02*
X120381429Y-48046185D01*
X120381429Y-48046185D02*
X120452858Y-47974757D01*
X120452858Y-47974757D02*
X120595715Y-47903328D01*
X120595715Y-47903328D02*
X120810001Y-47903328D01*
X120810001Y-47903328D02*
X120952858Y-47974757D01*
X120952858Y-47974757D02*
X121024287Y-48046185D01*
X121024287Y-48046185D02*
X121095715Y-48189042D01*
X121095715Y-48189042D02*
X121095715Y-48617614D01*
X121095715Y-48617614D02*
X121024287Y-48760471D01*
X121024287Y-48760471D02*
X120952858Y-48831900D01*
X120952858Y-48831900D02*
X120810001Y-48903328D01*
X120810001Y-48903328D02*
X120595715Y-48903328D01*
X121738572Y-48903328D02*
X121738572Y-47903328D01*
X121738572Y-48189042D02*
X121810001Y-48046185D01*
X121810001Y-48046185D02*
X121881430Y-47974757D01*
X121881430Y-47974757D02*
X122024287Y-47903328D01*
X122024287Y-47903328D02*
X122167144Y-47903328D01*
X124667143Y-48903328D02*
X124167143Y-48189042D01*
X123810000Y-48903328D02*
X123810000Y-47403328D01*
X123810000Y-47403328D02*
X124381429Y-47403328D01*
X124381429Y-47403328D02*
X124524286Y-47474757D01*
X124524286Y-47474757D02*
X124595715Y-47546185D01*
X124595715Y-47546185D02*
X124667143Y-47689042D01*
X124667143Y-47689042D02*
X124667143Y-47903328D01*
X124667143Y-47903328D02*
X124595715Y-48046185D01*
X124595715Y-48046185D02*
X124524286Y-48117614D01*
X124524286Y-48117614D02*
X124381429Y-48189042D01*
X124381429Y-48189042D02*
X123810000Y-48189042D01*
X125310000Y-48903328D02*
X125310000Y-47403328D01*
X127952858Y-48903328D02*
X127095715Y-48903328D01*
X127524286Y-48903328D02*
X127524286Y-47403328D01*
X127524286Y-47403328D02*
X127381429Y-47617614D01*
X127381429Y-47617614D02*
X127238572Y-47760471D01*
X127238572Y-47760471D02*
X127095715Y-47831900D01*
X128595714Y-48760471D02*
X128667143Y-48831900D01*
X128667143Y-48831900D02*
X128595714Y-48903328D01*
X128595714Y-48903328D02*
X128524286Y-48831900D01*
X128524286Y-48831900D02*
X128595714Y-48760471D01*
X128595714Y-48760471D02*
X128595714Y-48903328D01*
X129238572Y-47546185D02*
X129310000Y-47474757D01*
X129310000Y-47474757D02*
X129452858Y-47403328D01*
X129452858Y-47403328D02*
X129810000Y-47403328D01*
X129810000Y-47403328D02*
X129952858Y-47474757D01*
X129952858Y-47474757D02*
X130024286Y-47546185D01*
X130024286Y-47546185D02*
X130095715Y-47689042D01*
X130095715Y-47689042D02*
X130095715Y-47831900D01*
X130095715Y-47831900D02*
X130024286Y-48046185D01*
X130024286Y-48046185D02*
X129167143Y-48903328D01*
X129167143Y-48903328D02*
X130095715Y-48903328D01*
X90774285Y-51318328D02*
X90774285Y-49818328D01*
X90774285Y-49818328D02*
X91345714Y-49818328D01*
X91345714Y-49818328D02*
X91488571Y-49889757D01*
X91488571Y-49889757D02*
X91560000Y-49961185D01*
X91560000Y-49961185D02*
X91631428Y-50104042D01*
X91631428Y-50104042D02*
X91631428Y-50318328D01*
X91631428Y-50318328D02*
X91560000Y-50461185D01*
X91560000Y-50461185D02*
X91488571Y-50532614D01*
X91488571Y-50532614D02*
X91345714Y-50604042D01*
X91345714Y-50604042D02*
X90774285Y-50604042D01*
X92917143Y-51318328D02*
X92917143Y-50532614D01*
X92917143Y-50532614D02*
X92845714Y-50389757D01*
X92845714Y-50389757D02*
X92702857Y-50318328D01*
X92702857Y-50318328D02*
X92417143Y-50318328D01*
X92417143Y-50318328D02*
X92274285Y-50389757D01*
X92917143Y-51246900D02*
X92774285Y-51318328D01*
X92774285Y-51318328D02*
X92417143Y-51318328D01*
X92417143Y-51318328D02*
X92274285Y-51246900D01*
X92274285Y-51246900D02*
X92202857Y-51104042D01*
X92202857Y-51104042D02*
X92202857Y-50961185D01*
X92202857Y-50961185D02*
X92274285Y-50818328D01*
X92274285Y-50818328D02*
X92417143Y-50746900D01*
X92417143Y-50746900D02*
X92774285Y-50746900D01*
X92774285Y-50746900D02*
X92917143Y-50675471D01*
X93631428Y-50318328D02*
X93631428Y-51318328D01*
X93631428Y-50461185D02*
X93702857Y-50389757D01*
X93702857Y-50389757D02*
X93845714Y-50318328D01*
X93845714Y-50318328D02*
X94060000Y-50318328D01*
X94060000Y-50318328D02*
X94202857Y-50389757D01*
X94202857Y-50389757D02*
X94274286Y-50532614D01*
X94274286Y-50532614D02*
X94274286Y-51318328D01*
X95631429Y-50318328D02*
X95631429Y-51532614D01*
X95631429Y-51532614D02*
X95560000Y-51675471D01*
X95560000Y-51675471D02*
X95488571Y-51746900D01*
X95488571Y-51746900D02*
X95345714Y-51818328D01*
X95345714Y-51818328D02*
X95131429Y-51818328D01*
X95131429Y-51818328D02*
X94988571Y-51746900D01*
X95631429Y-51246900D02*
X95488571Y-51318328D01*
X95488571Y-51318328D02*
X95202857Y-51318328D01*
X95202857Y-51318328D02*
X95060000Y-51246900D01*
X95060000Y-51246900D02*
X94988571Y-51175471D01*
X94988571Y-51175471D02*
X94917143Y-51032614D01*
X94917143Y-51032614D02*
X94917143Y-50604042D01*
X94917143Y-50604042D02*
X94988571Y-50461185D01*
X94988571Y-50461185D02*
X95060000Y-50389757D01*
X95060000Y-50389757D02*
X95202857Y-50318328D01*
X95202857Y-50318328D02*
X95488571Y-50318328D01*
X95488571Y-50318328D02*
X95631429Y-50389757D01*
X96988572Y-51318328D02*
X96988572Y-50532614D01*
X96988572Y-50532614D02*
X96917143Y-50389757D01*
X96917143Y-50389757D02*
X96774286Y-50318328D01*
X96774286Y-50318328D02*
X96488572Y-50318328D01*
X96488572Y-50318328D02*
X96345714Y-50389757D01*
X96988572Y-51246900D02*
X96845714Y-51318328D01*
X96845714Y-51318328D02*
X96488572Y-51318328D01*
X96488572Y-51318328D02*
X96345714Y-51246900D01*
X96345714Y-51246900D02*
X96274286Y-51104042D01*
X96274286Y-51104042D02*
X96274286Y-50961185D01*
X96274286Y-50961185D02*
X96345714Y-50818328D01*
X96345714Y-50818328D02*
X96488572Y-50746900D01*
X96488572Y-50746900D02*
X96845714Y-50746900D01*
X96845714Y-50746900D02*
X96988572Y-50675471D01*
X98274286Y-51246900D02*
X98131429Y-51318328D01*
X98131429Y-51318328D02*
X97845715Y-51318328D01*
X97845715Y-51318328D02*
X97702857Y-51246900D01*
X97702857Y-51246900D02*
X97631429Y-51104042D01*
X97631429Y-51104042D02*
X97631429Y-50532614D01*
X97631429Y-50532614D02*
X97702857Y-50389757D01*
X97702857Y-50389757D02*
X97845715Y-50318328D01*
X97845715Y-50318328D02*
X98131429Y-50318328D01*
X98131429Y-50318328D02*
X98274286Y-50389757D01*
X98274286Y-50389757D02*
X98345715Y-50532614D01*
X98345715Y-50532614D02*
X98345715Y-50675471D01*
X98345715Y-50675471D02*
X97631429Y-50818328D01*
X99631429Y-51318328D02*
X99631429Y-50532614D01*
X99631429Y-50532614D02*
X99560000Y-50389757D01*
X99560000Y-50389757D02*
X99417143Y-50318328D01*
X99417143Y-50318328D02*
X99131429Y-50318328D01*
X99131429Y-50318328D02*
X98988571Y-50389757D01*
X99631429Y-51246900D02*
X99488571Y-51318328D01*
X99488571Y-51318328D02*
X99131429Y-51318328D01*
X99131429Y-51318328D02*
X98988571Y-51246900D01*
X98988571Y-51246900D02*
X98917143Y-51104042D01*
X98917143Y-51104042D02*
X98917143Y-50961185D01*
X98917143Y-50961185D02*
X98988571Y-50818328D01*
X98988571Y-50818328D02*
X99131429Y-50746900D01*
X99131429Y-50746900D02*
X99488571Y-50746900D01*
X99488571Y-50746900D02*
X99631429Y-50675471D01*
X102060000Y-51246900D02*
X101917143Y-51318328D01*
X101917143Y-51318328D02*
X101631429Y-51318328D01*
X101631429Y-51318328D02*
X101488571Y-51246900D01*
X101488571Y-51246900D02*
X101417143Y-51104042D01*
X101417143Y-51104042D02*
X101417143Y-50532614D01*
X101417143Y-50532614D02*
X101488571Y-50389757D01*
X101488571Y-50389757D02*
X101631429Y-50318328D01*
X101631429Y-50318328D02*
X101917143Y-50318328D01*
X101917143Y-50318328D02*
X102060000Y-50389757D01*
X102060000Y-50389757D02*
X102131429Y-50532614D01*
X102131429Y-50532614D02*
X102131429Y-50675471D01*
X102131429Y-50675471D02*
X101417143Y-50818328D01*
X102631428Y-51318328D02*
X103417143Y-50318328D01*
X102631428Y-50318328D02*
X103417143Y-51318328D01*
X103774286Y-50318328D02*
X104345714Y-50318328D01*
X103988571Y-49818328D02*
X103988571Y-51104042D01*
X103988571Y-51104042D02*
X104060000Y-51246900D01*
X104060000Y-51246900D02*
X104202857Y-51318328D01*
X104202857Y-51318328D02*
X104345714Y-51318328D01*
X105417143Y-51246900D02*
X105274286Y-51318328D01*
X105274286Y-51318328D02*
X104988572Y-51318328D01*
X104988572Y-51318328D02*
X104845714Y-51246900D01*
X104845714Y-51246900D02*
X104774286Y-51104042D01*
X104774286Y-51104042D02*
X104774286Y-50532614D01*
X104774286Y-50532614D02*
X104845714Y-50389757D01*
X104845714Y-50389757D02*
X104988572Y-50318328D01*
X104988572Y-50318328D02*
X105274286Y-50318328D01*
X105274286Y-50318328D02*
X105417143Y-50389757D01*
X105417143Y-50389757D02*
X105488572Y-50532614D01*
X105488572Y-50532614D02*
X105488572Y-50675471D01*
X105488572Y-50675471D02*
X104774286Y-50818328D01*
X106131428Y-50318328D02*
X106131428Y-51318328D01*
X106131428Y-50461185D02*
X106202857Y-50389757D01*
X106202857Y-50389757D02*
X106345714Y-50318328D01*
X106345714Y-50318328D02*
X106560000Y-50318328D01*
X106560000Y-50318328D02*
X106702857Y-50389757D01*
X106702857Y-50389757D02*
X106774286Y-50532614D01*
X106774286Y-50532614D02*
X106774286Y-51318328D01*
X107417143Y-51246900D02*
X107560000Y-51318328D01*
X107560000Y-51318328D02*
X107845714Y-51318328D01*
X107845714Y-51318328D02*
X107988571Y-51246900D01*
X107988571Y-51246900D02*
X108060000Y-51104042D01*
X108060000Y-51104042D02*
X108060000Y-51032614D01*
X108060000Y-51032614D02*
X107988571Y-50889757D01*
X107988571Y-50889757D02*
X107845714Y-50818328D01*
X107845714Y-50818328D02*
X107631429Y-50818328D01*
X107631429Y-50818328D02*
X107488571Y-50746900D01*
X107488571Y-50746900D02*
X107417143Y-50604042D01*
X107417143Y-50604042D02*
X107417143Y-50532614D01*
X107417143Y-50532614D02*
X107488571Y-50389757D01*
X107488571Y-50389757D02*
X107631429Y-50318328D01*
X107631429Y-50318328D02*
X107845714Y-50318328D01*
X107845714Y-50318328D02*
X107988571Y-50389757D01*
X108702857Y-51318328D02*
X108702857Y-50318328D01*
X108702857Y-49818328D02*
X108631429Y-49889757D01*
X108631429Y-49889757D02*
X108702857Y-49961185D01*
X108702857Y-49961185D02*
X108774286Y-49889757D01*
X108774286Y-49889757D02*
X108702857Y-49818328D01*
X108702857Y-49818328D02*
X108702857Y-49961185D01*
X109631429Y-51318328D02*
X109488572Y-51246900D01*
X109488572Y-51246900D02*
X109417143Y-51175471D01*
X109417143Y-51175471D02*
X109345715Y-51032614D01*
X109345715Y-51032614D02*
X109345715Y-50604042D01*
X109345715Y-50604042D02*
X109417143Y-50461185D01*
X109417143Y-50461185D02*
X109488572Y-50389757D01*
X109488572Y-50389757D02*
X109631429Y-50318328D01*
X109631429Y-50318328D02*
X109845715Y-50318328D01*
X109845715Y-50318328D02*
X109988572Y-50389757D01*
X109988572Y-50389757D02*
X110060001Y-50461185D01*
X110060001Y-50461185D02*
X110131429Y-50604042D01*
X110131429Y-50604042D02*
X110131429Y-51032614D01*
X110131429Y-51032614D02*
X110060001Y-51175471D01*
X110060001Y-51175471D02*
X109988572Y-51246900D01*
X109988572Y-51246900D02*
X109845715Y-51318328D01*
X109845715Y-51318328D02*
X109631429Y-51318328D01*
X110774286Y-50318328D02*
X110774286Y-51318328D01*
X110774286Y-50461185D02*
X110845715Y-50389757D01*
X110845715Y-50389757D02*
X110988572Y-50318328D01*
X110988572Y-50318328D02*
X111202858Y-50318328D01*
X111202858Y-50318328D02*
X111345715Y-50389757D01*
X111345715Y-50389757D02*
X111417144Y-50532614D01*
X111417144Y-50532614D02*
X111417144Y-51318328D01*
X113202858Y-50889757D02*
X113917144Y-50889757D01*
X113060001Y-51318328D02*
X113560001Y-49818328D01*
X113560001Y-49818328D02*
X114060001Y-51318328D01*
X88167144Y-52947614D02*
X87667144Y-52947614D01*
X87667144Y-53733328D02*
X87667144Y-52233328D01*
X87667144Y-52233328D02*
X88381430Y-52233328D01*
X89524287Y-53661900D02*
X89381430Y-53733328D01*
X89381430Y-53733328D02*
X89095716Y-53733328D01*
X89095716Y-53733328D02*
X88952858Y-53661900D01*
X88952858Y-53661900D02*
X88881430Y-53519042D01*
X88881430Y-53519042D02*
X88881430Y-52947614D01*
X88881430Y-52947614D02*
X88952858Y-52804757D01*
X88952858Y-52804757D02*
X89095716Y-52733328D01*
X89095716Y-52733328D02*
X89381430Y-52733328D01*
X89381430Y-52733328D02*
X89524287Y-52804757D01*
X89524287Y-52804757D02*
X89595716Y-52947614D01*
X89595716Y-52947614D02*
X89595716Y-53090471D01*
X89595716Y-53090471D02*
X88881430Y-53233328D01*
X90238572Y-53733328D02*
X90238572Y-52233328D01*
X90238572Y-52804757D02*
X90381430Y-52733328D01*
X90381430Y-52733328D02*
X90667144Y-52733328D01*
X90667144Y-52733328D02*
X90810001Y-52804757D01*
X90810001Y-52804757D02*
X90881430Y-52876185D01*
X90881430Y-52876185D02*
X90952858Y-53019042D01*
X90952858Y-53019042D02*
X90952858Y-53447614D01*
X90952858Y-53447614D02*
X90881430Y-53590471D01*
X90881430Y-53590471D02*
X90810001Y-53661900D01*
X90810001Y-53661900D02*
X90667144Y-53733328D01*
X90667144Y-53733328D02*
X90381430Y-53733328D01*
X90381430Y-53733328D02*
X90238572Y-53661900D01*
X93452858Y-52233328D02*
X92738572Y-52233328D01*
X92738572Y-52233328D02*
X92667144Y-52947614D01*
X92667144Y-52947614D02*
X92738572Y-52876185D01*
X92738572Y-52876185D02*
X92881430Y-52804757D01*
X92881430Y-52804757D02*
X93238572Y-52804757D01*
X93238572Y-52804757D02*
X93381430Y-52876185D01*
X93381430Y-52876185D02*
X93452858Y-52947614D01*
X93452858Y-52947614D02*
X93524287Y-53090471D01*
X93524287Y-53090471D02*
X93524287Y-53447614D01*
X93524287Y-53447614D02*
X93452858Y-53590471D01*
X93452858Y-53590471D02*
X93381430Y-53661900D01*
X93381430Y-53661900D02*
X93238572Y-53733328D01*
X93238572Y-53733328D02*
X92881430Y-53733328D01*
X92881430Y-53733328D02*
X92738572Y-53661900D01*
X92738572Y-53661900D02*
X92667144Y-53590471D01*
X94238572Y-53661900D02*
X94238572Y-53733328D01*
X94238572Y-53733328D02*
X94167143Y-53876185D01*
X94167143Y-53876185D02*
X94095715Y-53947614D01*
X95952858Y-52376185D02*
X96024286Y-52304757D01*
X96024286Y-52304757D02*
X96167144Y-52233328D01*
X96167144Y-52233328D02*
X96524286Y-52233328D01*
X96524286Y-52233328D02*
X96667144Y-52304757D01*
X96667144Y-52304757D02*
X96738572Y-52376185D01*
X96738572Y-52376185D02*
X96810001Y-52519042D01*
X96810001Y-52519042D02*
X96810001Y-52661900D01*
X96810001Y-52661900D02*
X96738572Y-52876185D01*
X96738572Y-52876185D02*
X95881429Y-53733328D01*
X95881429Y-53733328D02*
X96810001Y-53733328D01*
X97738572Y-52233328D02*
X97881429Y-52233328D01*
X97881429Y-52233328D02*
X98024286Y-52304757D01*
X98024286Y-52304757D02*
X98095715Y-52376185D01*
X98095715Y-52376185D02*
X98167143Y-52519042D01*
X98167143Y-52519042D02*
X98238572Y-52804757D01*
X98238572Y-52804757D02*
X98238572Y-53161900D01*
X98238572Y-53161900D02*
X98167143Y-53447614D01*
X98167143Y-53447614D02*
X98095715Y-53590471D01*
X98095715Y-53590471D02*
X98024286Y-53661900D01*
X98024286Y-53661900D02*
X97881429Y-53733328D01*
X97881429Y-53733328D02*
X97738572Y-53733328D01*
X97738572Y-53733328D02*
X97595715Y-53661900D01*
X97595715Y-53661900D02*
X97524286Y-53590471D01*
X97524286Y-53590471D02*
X97452857Y-53447614D01*
X97452857Y-53447614D02*
X97381429Y-53161900D01*
X97381429Y-53161900D02*
X97381429Y-52804757D01*
X97381429Y-52804757D02*
X97452857Y-52519042D01*
X97452857Y-52519042D02*
X97524286Y-52376185D01*
X97524286Y-52376185D02*
X97595715Y-52304757D01*
X97595715Y-52304757D02*
X97738572Y-52233328D01*
X98810000Y-52376185D02*
X98881428Y-52304757D01*
X98881428Y-52304757D02*
X99024286Y-52233328D01*
X99024286Y-52233328D02*
X99381428Y-52233328D01*
X99381428Y-52233328D02*
X99524286Y-52304757D01*
X99524286Y-52304757D02*
X99595714Y-52376185D01*
X99595714Y-52376185D02*
X99667143Y-52519042D01*
X99667143Y-52519042D02*
X99667143Y-52661900D01*
X99667143Y-52661900D02*
X99595714Y-52876185D01*
X99595714Y-52876185D02*
X98738571Y-53733328D01*
X98738571Y-53733328D02*
X99667143Y-53733328D01*
X100167142Y-52233328D02*
X101095714Y-52233328D01*
X101095714Y-52233328D02*
X100595714Y-52804757D01*
X100595714Y-52804757D02*
X100809999Y-52804757D01*
X100809999Y-52804757D02*
X100952857Y-52876185D01*
X100952857Y-52876185D02*
X101024285Y-52947614D01*
X101024285Y-52947614D02*
X101095714Y-53090471D01*
X101095714Y-53090471D02*
X101095714Y-53447614D01*
X101095714Y-53447614D02*
X101024285Y-53590471D01*
X101024285Y-53590471D02*
X100952857Y-53661900D01*
X100952857Y-53661900D02*
X100809999Y-53733328D01*
X100809999Y-53733328D02*
X100381428Y-53733328D01*
X100381428Y-53733328D02*
X100238571Y-53661900D01*
X100238571Y-53661900D02*
X100167142Y-53590471D01*
X103809999Y-53019042D02*
X103738570Y-52947614D01*
X103738570Y-52947614D02*
X103595713Y-52876185D01*
X103595713Y-52876185D02*
X103452856Y-52876185D01*
X103452856Y-52876185D02*
X103309999Y-52947614D01*
X103309999Y-52947614D02*
X103238570Y-53019042D01*
X103238570Y-53019042D02*
X103167142Y-53161900D01*
X103167142Y-53161900D02*
X103167142Y-53304757D01*
X103167142Y-53304757D02*
X103238570Y-53447614D01*
X103238570Y-53447614D02*
X103309999Y-53519042D01*
X103309999Y-53519042D02*
X103452856Y-53590471D01*
X103452856Y-53590471D02*
X103595713Y-53590471D01*
X103595713Y-53590471D02*
X103738570Y-53519042D01*
X103738570Y-53519042D02*
X103809999Y-53447614D01*
X103809999Y-52876185D02*
X103809999Y-53447614D01*
X103809999Y-53447614D02*
X103881427Y-53519042D01*
X103881427Y-53519042D02*
X103952856Y-53519042D01*
X103952856Y-53519042D02*
X104095713Y-53447614D01*
X104095713Y-53447614D02*
X104167142Y-53304757D01*
X104167142Y-53304757D02*
X104167142Y-52947614D01*
X104167142Y-52947614D02*
X104024285Y-52733328D01*
X104024285Y-52733328D02*
X103809999Y-52590471D01*
X103809999Y-52590471D02*
X103524285Y-52519042D01*
X103524285Y-52519042D02*
X103238570Y-52590471D01*
X103238570Y-52590471D02*
X103024285Y-52733328D01*
X103024285Y-52733328D02*
X102881427Y-52947614D01*
X102881427Y-52947614D02*
X102809999Y-53233328D01*
X102809999Y-53233328D02*
X102881427Y-53519042D01*
X102881427Y-53519042D02*
X103024285Y-53733328D01*
X103024285Y-53733328D02*
X103238570Y-53876185D01*
X103238570Y-53876185D02*
X103524285Y-53947614D01*
X103524285Y-53947614D02*
X103809999Y-53876185D01*
X103809999Y-53876185D02*
X104024285Y-53733328D01*
X104809998Y-53733328D02*
X104809998Y-52233328D01*
X105667141Y-53733328D02*
X105024284Y-52876185D01*
X105667141Y-52233328D02*
X104809998Y-53090471D01*
X106881427Y-53661900D02*
X106738570Y-53733328D01*
X106738570Y-53733328D02*
X106452856Y-53733328D01*
X106452856Y-53733328D02*
X106309998Y-53661900D01*
X106309998Y-53661900D02*
X106238570Y-53519042D01*
X106238570Y-53519042D02*
X106238570Y-52947614D01*
X106238570Y-52947614D02*
X106309998Y-52804757D01*
X106309998Y-52804757D02*
X106452856Y-52733328D01*
X106452856Y-52733328D02*
X106738570Y-52733328D01*
X106738570Y-52733328D02*
X106881427Y-52804757D01*
X106881427Y-52804757D02*
X106952856Y-52947614D01*
X106952856Y-52947614D02*
X106952856Y-53090471D01*
X106952856Y-53090471D02*
X106238570Y-53233328D01*
X107452855Y-52733328D02*
X107809998Y-53733328D01*
X108167141Y-52733328D02*
X107809998Y-53733328D01*
X107809998Y-53733328D02*
X107667141Y-54090471D01*
X107667141Y-54090471D02*
X107595712Y-54161900D01*
X107595712Y-54161900D02*
X107452855Y-54233328D01*
X108524284Y-52733328D02*
X109095712Y-52733328D01*
X108738569Y-52233328D02*
X108738569Y-53519042D01*
X108738569Y-53519042D02*
X108809998Y-53661900D01*
X108809998Y-53661900D02*
X108952855Y-53733328D01*
X108952855Y-53733328D02*
X109095712Y-53733328D01*
X110167141Y-53661900D02*
X110024284Y-53733328D01*
X110024284Y-53733328D02*
X109738570Y-53733328D01*
X109738570Y-53733328D02*
X109595712Y-53661900D01*
X109595712Y-53661900D02*
X109524284Y-53519042D01*
X109524284Y-53519042D02*
X109524284Y-52947614D01*
X109524284Y-52947614D02*
X109595712Y-52804757D01*
X109595712Y-52804757D02*
X109738570Y-52733328D01*
X109738570Y-52733328D02*
X110024284Y-52733328D01*
X110024284Y-52733328D02*
X110167141Y-52804757D01*
X110167141Y-52804757D02*
X110238570Y-52947614D01*
X110238570Y-52947614D02*
X110238570Y-53090471D01*
X110238570Y-53090471D02*
X109524284Y-53233328D01*
X111524284Y-53661900D02*
X111381426Y-53733328D01*
X111381426Y-53733328D02*
X111095712Y-53733328D01*
X111095712Y-53733328D02*
X110952855Y-53661900D01*
X110952855Y-53661900D02*
X110881426Y-53590471D01*
X110881426Y-53590471D02*
X110809998Y-53447614D01*
X110809998Y-53447614D02*
X110809998Y-53019042D01*
X110809998Y-53019042D02*
X110881426Y-52876185D01*
X110881426Y-52876185D02*
X110952855Y-52804757D01*
X110952855Y-52804757D02*
X111095712Y-52733328D01*
X111095712Y-52733328D02*
X111381426Y-52733328D01*
X111381426Y-52733328D02*
X111524284Y-52804757D01*
X111952855Y-52733328D02*
X112524283Y-52733328D01*
X112167140Y-52233328D02*
X112167140Y-53519042D01*
X112167140Y-53519042D02*
X112238569Y-53661900D01*
X112238569Y-53661900D02*
X112381426Y-53733328D01*
X112381426Y-53733328D02*
X112524283Y-53733328D01*
X113238569Y-53733328D02*
X113095712Y-53661900D01*
X113095712Y-53661900D02*
X113024283Y-53590471D01*
X113024283Y-53590471D02*
X112952855Y-53447614D01*
X112952855Y-53447614D02*
X112952855Y-53019042D01*
X112952855Y-53019042D02*
X113024283Y-52876185D01*
X113024283Y-52876185D02*
X113095712Y-52804757D01*
X113095712Y-52804757D02*
X113238569Y-52733328D01*
X113238569Y-52733328D02*
X113452855Y-52733328D01*
X113452855Y-52733328D02*
X113595712Y-52804757D01*
X113595712Y-52804757D02*
X113667141Y-52876185D01*
X113667141Y-52876185D02*
X113738569Y-53019042D01*
X113738569Y-53019042D02*
X113738569Y-53447614D01*
X113738569Y-53447614D02*
X113667141Y-53590471D01*
X113667141Y-53590471D02*
X113595712Y-53661900D01*
X113595712Y-53661900D02*
X113452855Y-53733328D01*
X113452855Y-53733328D02*
X113238569Y-53733328D01*
X114381426Y-52733328D02*
X114381426Y-53733328D01*
X114381426Y-52876185D02*
X114452855Y-52804757D01*
X114452855Y-52804757D02*
X114595712Y-52733328D01*
X114595712Y-52733328D02*
X114809998Y-52733328D01*
X114809998Y-52733328D02*
X114952855Y-52804757D01*
X114952855Y-52804757D02*
X115024284Y-52947614D01*
X115024284Y-52947614D02*
X115024284Y-53733328D01*
X115738569Y-53733328D02*
X115738569Y-52733328D01*
X115738569Y-52233328D02*
X115667141Y-52304757D01*
X115667141Y-52304757D02*
X115738569Y-52376185D01*
X115738569Y-52376185D02*
X115809998Y-52304757D01*
X115809998Y-52304757D02*
X115738569Y-52233328D01*
X115738569Y-52233328D02*
X115738569Y-52376185D01*
X116309998Y-53733328D02*
X117095713Y-52733328D01*
X116309998Y-52733328D02*
X117095713Y-53733328D01*
%LPC*%
D11*
X73798901Y-43368918D03*
D12*
X66155679Y-48492452D03*
D11*
X73798896Y-62418918D03*
X130948898Y-43368909D03*
D12*
X52739484Y-53375323D03*
X117700000Y-44000000D03*
X57616930Y-66803351D03*
X80750000Y-60400000D03*
X87750000Y-59250000D03*
X99600000Y-58000000D03*
X106575000Y-58125000D03*
D11*
X111898903Y-58053288D03*
D12*
X128670000Y-60800000D03*
D11*
X92848904Y-58053290D03*
D12*
X131000000Y-46660000D03*
%LPD*%
M02*
