%TF.GenerationSoftware,KiCad,Pcbnew,(6.0.11-0)*%
%TF.CreationDate,2023-02-05T15:27:03+09:00*%
%TF.ProjectId,pangaea-bottom-thumb-k2-4keys,70616e67-6165-4612-9d62-6f74746f6d2d,1*%
%TF.SameCoordinates,Original*%
%TF.FileFunction,Drillmap*%
%TF.FilePolarity,Positive*%
%FSLAX45Y45*%
G04 Gerber Fmt 4.5, Leading zero omitted, Abs format (unit mm)*
G04 Created by KiCad (PCBNEW (6.0.11-0)) date 2023-02-05 15:27:03*
%MOMM*%
%LPD*%
G01*
G04 APERTURE LIST*
%ADD10C,0.150000*%
%ADD11C,0.200000*%
%ADD12C,0.195000*%
G04 APERTURE END LIST*
D10*
X7121950Y-5296012D02*
G75*
G03*
X7065822Y-5393220I20540J-76668D01*
G01*
X7130587Y-4758842D02*
G75*
G03*
X7033376Y-4702715I-76667J-20538D01*
G01*
X12810882Y-4352012D02*
G75*
G03*
X7663865Y-4351728I-2574222J-12955279D01*
G01*
X6942445Y-5052544D02*
X6861338Y-4830987D01*
X7128833Y-4470270D02*
G75*
G03*
X7184960Y-4373057I-20543J76670D01*
G01*
X7260828Y-6400641D02*
G75*
G03*
X5692225Y-6953827I2998142J-11002029D01*
G01*
X7130590Y-4758841D02*
X7171128Y-4991269D01*
X5590489Y-6906386D02*
X4993402Y-5266337D01*
X7121949Y-5296006D02*
X7137403Y-5291865D01*
X6917463Y-4733768D02*
G75*
G03*
X6861338Y-4830987I20547J-76672D01*
G01*
X12967000Y-6341001D02*
G75*
G03*
X7560201Y-6324749I-2736420J-10977959D01*
G01*
X6942450Y-5052543D02*
G75*
G03*
X7039659Y-5108671I76670J20543D01*
G01*
X12967002Y-6340996D02*
G75*
G03*
X13067080Y-6303199I31398J68256D01*
G01*
X7571911Y-4287343D02*
G75*
G03*
X7663865Y-4351728I78169J13783D01*
G01*
X5590494Y-6906385D02*
G75*
G03*
X5692224Y-6953827I74586J27145D01*
G01*
X7033376Y-4702715D02*
X6917464Y-4733773D01*
X7306848Y-5758405D02*
X7234618Y-5347992D01*
X7115001Y-5088483D02*
X7039659Y-5108671D01*
X7207370Y-5781730D02*
X7065822Y-5393220D01*
X5040843Y-5164606D02*
G75*
G03*
X4993402Y-5266337I26347J-74214D01*
G01*
X13289784Y-4373340D02*
G75*
G03*
X13345913Y-4470554I76676J-20541D01*
G01*
X7260832Y-6400636D02*
G75*
G03*
X7560201Y-6324750I119068J158726D01*
G01*
X13381000Y-4551000D02*
X13067080Y-6303199D01*
X7128833Y-4470271D02*
G75*
G03*
X5040842Y-5164601I3113547J-12849739D01*
G01*
X7571913Y-4287342D02*
G75*
G03*
X7184960Y-4373057I-191987J-49582D01*
G01*
X12810882Y-4352007D02*
G75*
G03*
X12902834Y-4287626I13778J78177D01*
G01*
X13380994Y-4550998D02*
G75*
G03*
X13345913Y-4470554I-61324J21128D01*
G01*
X7234624Y-5347990D02*
G75*
G03*
X7137403Y-5291865I-76674J-20550D01*
G01*
X7207373Y-5781730D02*
G75*
G03*
X7306848Y-5758405I48767J15800D01*
G01*
X7115000Y-5088478D02*
G75*
G03*
X7171128Y-4991269I-20540J76668D01*
G01*
X13289782Y-4373339D02*
G75*
G03*
X12902834Y-4287626I-194902J36409D01*
G01*
D11*
D12*
X7282390Y-6144392D02*
X7477390Y-6339392D01*
X7477390Y-6144392D02*
X7282390Y-6339392D01*
X7282390Y-4239392D02*
X7477390Y-4434392D01*
X7477390Y-4239392D02*
X7282390Y-4434392D01*
X9187390Y-5707829D02*
X9382390Y-5902829D01*
X9382390Y-5707829D02*
X9187390Y-5902829D01*
X11092390Y-5707829D02*
X11287390Y-5902829D01*
X11287390Y-5707829D02*
X11092390Y-5902829D01*
X12997390Y-4239391D02*
X13192390Y-4434391D01*
X13192390Y-4239391D02*
X12997390Y-4434391D01*
D11*
X5238557Y-7276588D02*
X5238557Y-7076588D01*
X5286176Y-7076588D01*
X5314747Y-7086112D01*
X5333795Y-7105160D01*
X5343319Y-7124208D01*
X5352843Y-7162303D01*
X5352843Y-7190874D01*
X5343319Y-7228969D01*
X5333795Y-7248017D01*
X5314747Y-7267065D01*
X5286176Y-7276588D01*
X5238557Y-7276588D01*
X5438557Y-7276588D02*
X5438557Y-7143255D01*
X5438557Y-7181350D02*
X5448081Y-7162303D01*
X5457604Y-7152779D01*
X5476652Y-7143255D01*
X5495700Y-7143255D01*
X5562366Y-7276588D02*
X5562366Y-7143255D01*
X5562366Y-7076588D02*
X5552843Y-7086112D01*
X5562366Y-7095636D01*
X5571890Y-7086112D01*
X5562366Y-7076588D01*
X5562366Y-7095636D01*
X5686176Y-7276588D02*
X5667128Y-7267065D01*
X5657604Y-7248017D01*
X5657604Y-7076588D01*
X5790938Y-7276588D02*
X5771890Y-7267065D01*
X5762366Y-7248017D01*
X5762366Y-7076588D01*
X6019509Y-7276588D02*
X6019509Y-7076588D01*
X6086176Y-7219446D01*
X6152842Y-7076588D01*
X6152842Y-7276588D01*
X6333795Y-7276588D02*
X6333795Y-7171827D01*
X6324271Y-7152779D01*
X6305223Y-7143255D01*
X6267128Y-7143255D01*
X6248081Y-7152779D01*
X6333795Y-7267065D02*
X6314747Y-7276588D01*
X6267128Y-7276588D01*
X6248081Y-7267065D01*
X6238557Y-7248017D01*
X6238557Y-7228969D01*
X6248081Y-7209922D01*
X6267128Y-7200398D01*
X6314747Y-7200398D01*
X6333795Y-7190874D01*
X6429033Y-7143255D02*
X6429033Y-7343255D01*
X6429033Y-7152779D02*
X6448081Y-7143255D01*
X6486176Y-7143255D01*
X6505223Y-7152779D01*
X6514747Y-7162303D01*
X6524271Y-7181350D01*
X6524271Y-7238493D01*
X6514747Y-7257541D01*
X6505223Y-7267065D01*
X6486176Y-7276588D01*
X6448081Y-7276588D01*
X6429033Y-7267065D01*
X6609985Y-7257541D02*
X6619509Y-7267065D01*
X6609985Y-7276588D01*
X6600462Y-7267065D01*
X6609985Y-7257541D01*
X6609985Y-7276588D01*
X6609985Y-7152779D02*
X6619509Y-7162303D01*
X6609985Y-7171827D01*
X6600462Y-7162303D01*
X6609985Y-7152779D01*
X6609985Y-7171827D01*
D12*
X4785938Y-7508612D02*
X4980938Y-7703612D01*
X4980938Y-7508612D02*
X4785938Y-7703612D01*
D11*
X5343319Y-7696588D02*
X5229033Y-7696588D01*
X5286176Y-7696588D02*
X5286176Y-7496588D01*
X5267128Y-7525160D01*
X5248081Y-7544208D01*
X5229033Y-7553731D01*
X5429033Y-7677541D02*
X5438557Y-7687065D01*
X5429033Y-7696588D01*
X5419509Y-7687065D01*
X5429033Y-7677541D01*
X5429033Y-7696588D01*
X5533795Y-7696588D02*
X5571890Y-7696588D01*
X5590938Y-7687065D01*
X5600462Y-7677541D01*
X5619509Y-7648969D01*
X5629033Y-7610874D01*
X5629033Y-7534684D01*
X5619509Y-7515636D01*
X5609985Y-7506112D01*
X5590938Y-7496588D01*
X5552843Y-7496588D01*
X5533795Y-7506112D01*
X5524271Y-7515636D01*
X5514747Y-7534684D01*
X5514747Y-7582303D01*
X5524271Y-7601350D01*
X5533795Y-7610874D01*
X5552843Y-7620398D01*
X5590938Y-7620398D01*
X5609985Y-7610874D01*
X5619509Y-7601350D01*
X5629033Y-7582303D01*
X5809985Y-7496588D02*
X5714747Y-7496588D01*
X5705223Y-7591827D01*
X5714747Y-7582303D01*
X5733795Y-7572779D01*
X5781414Y-7572779D01*
X5800462Y-7582303D01*
X5809985Y-7591827D01*
X5819509Y-7610874D01*
X5819509Y-7658493D01*
X5809985Y-7677541D01*
X5800462Y-7687065D01*
X5781414Y-7696588D01*
X5733795Y-7696588D01*
X5714747Y-7687065D01*
X5705223Y-7677541D01*
X5943319Y-7496588D02*
X5962366Y-7496588D01*
X5981414Y-7506112D01*
X5990938Y-7515636D01*
X6000462Y-7534684D01*
X6009985Y-7572779D01*
X6009985Y-7620398D01*
X6000462Y-7658493D01*
X5990938Y-7677541D01*
X5981414Y-7687065D01*
X5962366Y-7696588D01*
X5943319Y-7696588D01*
X5924271Y-7687065D01*
X5914747Y-7677541D01*
X5905223Y-7658493D01*
X5895700Y-7620398D01*
X5895700Y-7572779D01*
X5905223Y-7534684D01*
X5914747Y-7515636D01*
X5924271Y-7506112D01*
X5943319Y-7496588D01*
X6095700Y-7696588D02*
X6095700Y-7563255D01*
X6095700Y-7582303D02*
X6105223Y-7572779D01*
X6124271Y-7563255D01*
X6152842Y-7563255D01*
X6171890Y-7572779D01*
X6181414Y-7591827D01*
X6181414Y-7696588D01*
X6181414Y-7591827D02*
X6190938Y-7572779D01*
X6209985Y-7563255D01*
X6238557Y-7563255D01*
X6257604Y-7572779D01*
X6267128Y-7591827D01*
X6267128Y-7696588D01*
X6362366Y-7696588D02*
X6362366Y-7563255D01*
X6362366Y-7582303D02*
X6371890Y-7572779D01*
X6390938Y-7563255D01*
X6419509Y-7563255D01*
X6438557Y-7572779D01*
X6448081Y-7591827D01*
X6448081Y-7696588D01*
X6448081Y-7591827D02*
X6457604Y-7572779D01*
X6476652Y-7563255D01*
X6505223Y-7563255D01*
X6524271Y-7572779D01*
X6533795Y-7591827D01*
X6533795Y-7696588D01*
X6924271Y-7487065D02*
X6752842Y-7744208D01*
X7181414Y-7496588D02*
X7200462Y-7496588D01*
X7219509Y-7506112D01*
X7229033Y-7515636D01*
X7238557Y-7534684D01*
X7248081Y-7572779D01*
X7248081Y-7620398D01*
X7238557Y-7658493D01*
X7229033Y-7677541D01*
X7219509Y-7687065D01*
X7200462Y-7696588D01*
X7181414Y-7696588D01*
X7162366Y-7687065D01*
X7152842Y-7677541D01*
X7143319Y-7658493D01*
X7133795Y-7620398D01*
X7133795Y-7572779D01*
X7143319Y-7534684D01*
X7152842Y-7515636D01*
X7162366Y-7506112D01*
X7181414Y-7496588D01*
X7333795Y-7677541D02*
X7343319Y-7687065D01*
X7333795Y-7696588D01*
X7324271Y-7687065D01*
X7333795Y-7677541D01*
X7333795Y-7696588D01*
X7467128Y-7496588D02*
X7486176Y-7496588D01*
X7505223Y-7506112D01*
X7514747Y-7515636D01*
X7524271Y-7534684D01*
X7533795Y-7572779D01*
X7533795Y-7620398D01*
X7524271Y-7658493D01*
X7514747Y-7677541D01*
X7505223Y-7687065D01*
X7486176Y-7696588D01*
X7467128Y-7696588D01*
X7448081Y-7687065D01*
X7438557Y-7677541D01*
X7429033Y-7658493D01*
X7419509Y-7620398D01*
X7419509Y-7572779D01*
X7429033Y-7534684D01*
X7438557Y-7515636D01*
X7448081Y-7506112D01*
X7467128Y-7496588D01*
X7600462Y-7496588D02*
X7733795Y-7496588D01*
X7648081Y-7696588D01*
X7895700Y-7496588D02*
X7857604Y-7496588D01*
X7838557Y-7506112D01*
X7829033Y-7515636D01*
X7809985Y-7544208D01*
X7800462Y-7582303D01*
X7800462Y-7658493D01*
X7809985Y-7677541D01*
X7819509Y-7687065D01*
X7838557Y-7696588D01*
X7876652Y-7696588D01*
X7895700Y-7687065D01*
X7905223Y-7677541D01*
X7914747Y-7658493D01*
X7914747Y-7610874D01*
X7905223Y-7591827D01*
X7895700Y-7582303D01*
X7876652Y-7572779D01*
X7838557Y-7572779D01*
X7819509Y-7582303D01*
X7809985Y-7591827D01*
X7800462Y-7610874D01*
X8029033Y-7582303D02*
X8009985Y-7572779D01*
X8000462Y-7563255D01*
X7990938Y-7544208D01*
X7990938Y-7534684D01*
X8000462Y-7515636D01*
X8009985Y-7506112D01*
X8029033Y-7496588D01*
X8067128Y-7496588D01*
X8086176Y-7506112D01*
X8095700Y-7515636D01*
X8105223Y-7534684D01*
X8105223Y-7544208D01*
X8095700Y-7563255D01*
X8086176Y-7572779D01*
X8067128Y-7582303D01*
X8029033Y-7582303D01*
X8009985Y-7591827D01*
X8000462Y-7601350D01*
X7990938Y-7620398D01*
X7990938Y-7658493D01*
X8000462Y-7677541D01*
X8009985Y-7687065D01*
X8029033Y-7696588D01*
X8067128Y-7696588D01*
X8086176Y-7687065D01*
X8095700Y-7677541D01*
X8105223Y-7658493D01*
X8105223Y-7620398D01*
X8095700Y-7601350D01*
X8086176Y-7591827D01*
X8067128Y-7582303D01*
X8181414Y-7496588D02*
X8181414Y-7534684D01*
X8257604Y-7496588D02*
X8257604Y-7534684D01*
X8552843Y-7772779D02*
X8543319Y-7763255D01*
X8524271Y-7734684D01*
X8514747Y-7715636D01*
X8505224Y-7687065D01*
X8495700Y-7639446D01*
X8495700Y-7601350D01*
X8505224Y-7553731D01*
X8514747Y-7525160D01*
X8524271Y-7506112D01*
X8543319Y-7477541D01*
X8552843Y-7468017D01*
X8724271Y-7496588D02*
X8629033Y-7496588D01*
X8619509Y-7591827D01*
X8629033Y-7582303D01*
X8648081Y-7572779D01*
X8695700Y-7572779D01*
X8714747Y-7582303D01*
X8724271Y-7591827D01*
X8733795Y-7610874D01*
X8733795Y-7658493D01*
X8724271Y-7677541D01*
X8714747Y-7687065D01*
X8695700Y-7696588D01*
X8648081Y-7696588D01*
X8629033Y-7687065D01*
X8619509Y-7677541D01*
X8971890Y-7696588D02*
X8971890Y-7496588D01*
X9057604Y-7696588D02*
X9057604Y-7591827D01*
X9048081Y-7572779D01*
X9029033Y-7563255D01*
X9000462Y-7563255D01*
X8981414Y-7572779D01*
X8971890Y-7582303D01*
X9181414Y-7696588D02*
X9162366Y-7687065D01*
X9152843Y-7677541D01*
X9143319Y-7658493D01*
X9143319Y-7601350D01*
X9152843Y-7582303D01*
X9162366Y-7572779D01*
X9181414Y-7563255D01*
X9209985Y-7563255D01*
X9229033Y-7572779D01*
X9238557Y-7582303D01*
X9248081Y-7601350D01*
X9248081Y-7658493D01*
X9238557Y-7677541D01*
X9229033Y-7687065D01*
X9209985Y-7696588D01*
X9181414Y-7696588D01*
X9362366Y-7696588D02*
X9343319Y-7687065D01*
X9333795Y-7668017D01*
X9333795Y-7496588D01*
X9514747Y-7687065D02*
X9495700Y-7696588D01*
X9457604Y-7696588D01*
X9438557Y-7687065D01*
X9429033Y-7668017D01*
X9429033Y-7591827D01*
X9438557Y-7572779D01*
X9457604Y-7563255D01*
X9495700Y-7563255D01*
X9514747Y-7572779D01*
X9524271Y-7591827D01*
X9524271Y-7610874D01*
X9429033Y-7629922D01*
X9600462Y-7687065D02*
X9619509Y-7696588D01*
X9657604Y-7696588D01*
X9676652Y-7687065D01*
X9686176Y-7668017D01*
X9686176Y-7658493D01*
X9676652Y-7639446D01*
X9657604Y-7629922D01*
X9629033Y-7629922D01*
X9609985Y-7620398D01*
X9600462Y-7601350D01*
X9600462Y-7591827D01*
X9609985Y-7572779D01*
X9629033Y-7563255D01*
X9657604Y-7563255D01*
X9676652Y-7572779D01*
X9752843Y-7772779D02*
X9762366Y-7763255D01*
X9781414Y-7734684D01*
X9790938Y-7715636D01*
X9800462Y-7687065D01*
X9809985Y-7639446D01*
X9809985Y-7601350D01*
X9800462Y-7553731D01*
X9790938Y-7525160D01*
X9781414Y-7506112D01*
X9762366Y-7477541D01*
X9752843Y-7468017D01*
X10114747Y-7772779D02*
X10105224Y-7763255D01*
X10086176Y-7734684D01*
X10076652Y-7715636D01*
X10067128Y-7687065D01*
X10057604Y-7639446D01*
X10057604Y-7601350D01*
X10067128Y-7553731D01*
X10076652Y-7525160D01*
X10086176Y-7506112D01*
X10105224Y-7477541D01*
X10114747Y-7468017D01*
X10190938Y-7563255D02*
X10190938Y-7696588D01*
X10190938Y-7582303D02*
X10200462Y-7572779D01*
X10219509Y-7563255D01*
X10248081Y-7563255D01*
X10267128Y-7572779D01*
X10276652Y-7591827D01*
X10276652Y-7696588D01*
X10400462Y-7696588D02*
X10381414Y-7687065D01*
X10371890Y-7677541D01*
X10362366Y-7658493D01*
X10362366Y-7601350D01*
X10371890Y-7582303D01*
X10381414Y-7572779D01*
X10400462Y-7563255D01*
X10429033Y-7563255D01*
X10448081Y-7572779D01*
X10457604Y-7582303D01*
X10467128Y-7601350D01*
X10467128Y-7658493D01*
X10457604Y-7677541D01*
X10448081Y-7687065D01*
X10429033Y-7696588D01*
X10400462Y-7696588D01*
X10524271Y-7563255D02*
X10600462Y-7563255D01*
X10552843Y-7496588D02*
X10552843Y-7668017D01*
X10562366Y-7687065D01*
X10581414Y-7696588D01*
X10600462Y-7696588D01*
X10819509Y-7563255D02*
X10819509Y-7763255D01*
X10819509Y-7572779D02*
X10838557Y-7563255D01*
X10876652Y-7563255D01*
X10895700Y-7572779D01*
X10905224Y-7582303D01*
X10914747Y-7601350D01*
X10914747Y-7658493D01*
X10905224Y-7677541D01*
X10895700Y-7687065D01*
X10876652Y-7696588D01*
X10838557Y-7696588D01*
X10819509Y-7687065D01*
X11029033Y-7696588D02*
X11009985Y-7687065D01*
X11000462Y-7668017D01*
X11000462Y-7496588D01*
X11190938Y-7696588D02*
X11190938Y-7591827D01*
X11181414Y-7572779D01*
X11162366Y-7563255D01*
X11124271Y-7563255D01*
X11105224Y-7572779D01*
X11190938Y-7687065D02*
X11171890Y-7696588D01*
X11124271Y-7696588D01*
X11105224Y-7687065D01*
X11095700Y-7668017D01*
X11095700Y-7648969D01*
X11105224Y-7629922D01*
X11124271Y-7620398D01*
X11171890Y-7620398D01*
X11190938Y-7610874D01*
X11257604Y-7563255D02*
X11333795Y-7563255D01*
X11286176Y-7496588D02*
X11286176Y-7668017D01*
X11295700Y-7687065D01*
X11314747Y-7696588D01*
X11333795Y-7696588D01*
X11476652Y-7687065D02*
X11457604Y-7696588D01*
X11419509Y-7696588D01*
X11400462Y-7687065D01*
X11390938Y-7668017D01*
X11390938Y-7591827D01*
X11400462Y-7572779D01*
X11419509Y-7563255D01*
X11457604Y-7563255D01*
X11476652Y-7572779D01*
X11486176Y-7591827D01*
X11486176Y-7610874D01*
X11390938Y-7629922D01*
X11657604Y-7696588D02*
X11657604Y-7496588D01*
X11657604Y-7687065D02*
X11638557Y-7696588D01*
X11600462Y-7696588D01*
X11581414Y-7687065D01*
X11571890Y-7677541D01*
X11562366Y-7658493D01*
X11562366Y-7601350D01*
X11571890Y-7582303D01*
X11581414Y-7572779D01*
X11600462Y-7563255D01*
X11638557Y-7563255D01*
X11657604Y-7572779D01*
X11733795Y-7772779D02*
X11743319Y-7763255D01*
X11762366Y-7734684D01*
X11771890Y-7715636D01*
X11781414Y-7687065D01*
X11790938Y-7639446D01*
X11790938Y-7601350D01*
X11781414Y-7553731D01*
X11771890Y-7525160D01*
X11762366Y-7506112D01*
X11743319Y-7477541D01*
X11733795Y-7468017D01*
M02*
