G04 #@! TF.GenerationSoftware,KiCad,Pcbnew,7.0.8*
G04 #@! TF.CreationDate,2023-10-15T17:45:37+09:00*
G04 #@! TF.ProjectId,pangaea-bottom-thumb-k2-4keys,70616e67-6165-4612-9d62-6f74746f6d2d,1*
G04 #@! TF.SameCoordinates,Original*
G04 #@! TF.FileFunction,Profile,NP*
%FSLAX46Y46*%
G04 Gerber Fmt 4.6, Leading zero omitted, Abs format (unit mm)*
G04 Created by KiCad (PCBNEW 7.0.8) date 2023-10-15 17:45:37*
%MOMM*%
%LPD*%
G01*
G04 APERTURE LIST*
G04 #@! TA.AperFunction,Profile*
%ADD10C,0.150000*%
G04 #@! TD*
G04 APERTURE END LIST*
D10*
X71219504Y-52960119D02*
G75*
G03*
X70658221Y-53932202I205396J-766681D01*
G01*
X71305870Y-47588420D02*
G75*
G03*
X70333756Y-47027147I-766670J-205380D01*
G01*
X128108818Y-43520116D02*
G75*
G03*
X76638649Y-43517282I-25742218J-129552784D01*
G01*
X69424448Y-50525444D02*
X68613379Y-48309871D01*
X71288333Y-44702701D02*
G75*
G03*
X71849601Y-43730568I-205433J766701D01*
G01*
X72608280Y-64006413D02*
G75*
G03*
X56922246Y-69538267I29981420J-110020287D01*
G01*
X71305897Y-47588413D02*
X71711277Y-49912689D01*
X55904888Y-69063863D02*
X49934016Y-52663368D01*
X71219488Y-52960060D02*
X71374035Y-52918651D01*
X69174630Y-47337676D02*
G75*
G03*
X68613377Y-48309874I205470J-766724D01*
G01*
X129669999Y-63410006D02*
G75*
G03*
X75602012Y-63247495I-27364199J-109779594D01*
G01*
X69424500Y-50525430D02*
G75*
G03*
X70396588Y-51086712I766700J205430D01*
G01*
X129670020Y-63409956D02*
G75*
G03*
X130670795Y-63031994I313980J682556D01*
G01*
X75719116Y-42873426D02*
G75*
G03*
X76638649Y-43517280I781684J137826D01*
G01*
X55904936Y-69063846D02*
G75*
G03*
X56922243Y-69538265I745864J271446D01*
G01*
X70333756Y-47027147D02*
X69174644Y-47337729D01*
X73068477Y-57584055D02*
X72346177Y-53479917D01*
X71150010Y-50884833D02*
X70396589Y-51086709D01*
X72073701Y-57817304D02*
X70658221Y-53932204D01*
X50408433Y-51646058D02*
G75*
G03*
X49934017Y-52663368I263467J-742142D01*
G01*
X132897843Y-43733395D02*
G75*
G03*
X133459132Y-44705540I766757J-205405D01*
G01*
X72608323Y-64006356D02*
G75*
G03*
X75602012Y-63247497I1190677J1587256D01*
G01*
X133810000Y-45510000D02*
X130670796Y-63031994D01*
X71288335Y-44702709D02*
G75*
G03*
X50408418Y-51646011I31135465J-128497391D01*
G01*
X75719128Y-42873424D02*
G75*
G03*
X71849602Y-43730568I-1919868J-495816D01*
G01*
X128108825Y-43520073D02*
G75*
G03*
X129028340Y-42876257I137775J781773D01*
G01*
X133809944Y-45509981D02*
G75*
G03*
X133459132Y-44705541I-613244J211281D01*
G01*
X72346239Y-53479900D02*
G75*
G03*
X71374035Y-52918652I-766739J-205500D01*
G01*
X72073726Y-57817296D02*
G75*
G03*
X73068477Y-57584055I487674J157996D01*
G01*
X71149996Y-50884781D02*
G75*
G03*
X71711277Y-49912691I-205396J766681D01*
G01*
X132897824Y-43733393D02*
G75*
G03*
X129028340Y-42876257I-1949024J364093D01*
G01*
M02*
