%TF.GenerationSoftware,KiCad,Pcbnew,(6.0.11-0)*%
%TF.CreationDate,2023-02-07T20:01:19+09:00*%
%TF.ProjectId,pangaea-top-thumb-k2_leftcut4keys,70616e67-6165-4612-9d74-6f702d746875,1*%
%TF.SameCoordinates,Original*%
%TF.FileFunction,Drillmap*%
%TF.FilePolarity,Positive*%
%FSLAX45Y45*%
G04 Gerber Fmt 4.5, Leading zero omitted, Abs format (unit mm)*
G04 Created by KiCad (PCBNEW (6.0.11-0)) date 2023-02-07 20:01:19*
%MOMM*%
%LPD*%
G01*
G04 APERTURE LIST*
%ADD10C,0.150000*%
%ADD11C,0.200000*%
G04 APERTURE END LIST*
D10*
X11751764Y-3536641D02*
G75*
G03*
X9654651Y-2838844I-5189244J-12095249D01*
G01*
X9645793Y-3660369D02*
G75*
G03*
X9548580Y-3716491I-20543J-76671D01*
G01*
X9749823Y-3071214D02*
X9865734Y-3102272D01*
X3437571Y-2838559D02*
G75*
G03*
X3493698Y-2741347I-20541J76669D01*
G01*
X3716001Y-4680999D02*
G75*
G03*
X3792000Y-4711000I55649J29709D01*
G01*
X3437571Y-2838560D02*
G75*
G03*
X3411063Y-2916189I46709J-59290D01*
G01*
X9119620Y-2720301D02*
G75*
G03*
X3972603Y-2720018I-2574222J-12954653D01*
G01*
X9223324Y-4693017D02*
G75*
G03*
X9522701Y-4768907I180306J82837D01*
G01*
X9119619Y-2720303D02*
G75*
G03*
X9211572Y-2655915I13781J78173D01*
G01*
X9598522Y-2741629D02*
G75*
G03*
X9654651Y-2838844I76658J-20551D01*
G01*
X11792395Y-3631441D02*
X11190633Y-5283552D01*
X9598525Y-2741630D02*
G75*
G03*
X9211572Y-2655915I-194899J36437D01*
G01*
X9645795Y-3660365D02*
X9661249Y-3664506D01*
X9743539Y-3477174D02*
G75*
G03*
X9840753Y-3421044I20542J76674D01*
G01*
X9749822Y-3071216D02*
G75*
G03*
X9652608Y-3127341I-20542J-76674D01*
G01*
X11792402Y-3631443D02*
G75*
G03*
X11751764Y-3536641I-75182J23883D01*
G01*
X3880653Y-2655631D02*
G75*
G03*
X3493698Y-2741347I-191993J-49559D01*
G01*
X9840753Y-3421044D02*
X9921860Y-3199487D01*
X9223328Y-4693015D02*
G75*
G03*
X3792000Y-4711000I-2679168J-11030375D01*
G01*
X3880644Y-2655633D02*
G75*
G03*
X3972603Y-2720018I78176J13793D01*
G01*
X3716000Y-4681000D02*
X3411063Y-2916189D01*
X9652608Y-3127341D02*
X9612070Y-3359768D01*
X9612067Y-3359768D02*
G75*
G03*
X9668197Y-3456983I76673J-20542D01*
G01*
X9921857Y-3199486D02*
G75*
G03*
X9865734Y-3102272I-76667J20546D01*
G01*
X9476347Y-4126905D02*
G75*
G03*
X9575828Y-4150230I50713J-7515D01*
G01*
X11090670Y-5321371D02*
G75*
G03*
X11190633Y-5283552I31311J68261D01*
G01*
X9668197Y-3456983D02*
X9743539Y-3477170D01*
X9476350Y-4126905D02*
X9548580Y-3716491D01*
X9575828Y-4150230D02*
X9717376Y-3761720D01*
X11090667Y-5321376D02*
G75*
G03*
X9522701Y-4768907I-4555177J-10426814D01*
G01*
X9717377Y-3761720D02*
G75*
G03*
X9661249Y-3664506I-76677J20540D01*
G01*
D11*
X3658920Y-5646185D02*
X3658920Y-5446186D01*
X3706539Y-5446186D01*
X3735111Y-5455709D01*
X3754158Y-5474757D01*
X3763682Y-5493805D01*
X3773206Y-5531900D01*
X3773206Y-5560471D01*
X3763682Y-5598566D01*
X3754158Y-5617614D01*
X3735111Y-5636662D01*
X3706539Y-5646185D01*
X3658920Y-5646185D01*
X3858920Y-5646185D02*
X3858920Y-5512852D01*
X3858920Y-5550947D02*
X3868444Y-5531900D01*
X3877968Y-5522376D01*
X3897015Y-5512852D01*
X3916063Y-5512852D01*
X3982730Y-5646185D02*
X3982730Y-5512852D01*
X3982730Y-5446186D02*
X3973206Y-5455709D01*
X3982730Y-5465233D01*
X3992253Y-5455709D01*
X3982730Y-5446186D01*
X3982730Y-5465233D01*
X4106539Y-5646185D02*
X4087491Y-5636662D01*
X4077968Y-5617614D01*
X4077968Y-5446186D01*
X4211301Y-5646185D02*
X4192253Y-5636662D01*
X4182730Y-5617614D01*
X4182730Y-5446186D01*
X4439873Y-5646185D02*
X4439873Y-5446186D01*
X4506539Y-5589043D01*
X4573206Y-5446186D01*
X4573206Y-5646185D01*
X4754158Y-5646185D02*
X4754158Y-5541424D01*
X4744634Y-5522376D01*
X4725587Y-5512852D01*
X4687492Y-5512852D01*
X4668444Y-5522376D01*
X4754158Y-5636662D02*
X4735111Y-5646185D01*
X4687492Y-5646185D01*
X4668444Y-5636662D01*
X4658920Y-5617614D01*
X4658920Y-5598566D01*
X4668444Y-5579519D01*
X4687492Y-5569995D01*
X4735111Y-5569995D01*
X4754158Y-5560471D01*
X4849396Y-5512852D02*
X4849396Y-5712852D01*
X4849396Y-5522376D02*
X4868444Y-5512852D01*
X4906539Y-5512852D01*
X4925587Y-5522376D01*
X4935111Y-5531900D01*
X4944634Y-5550947D01*
X4944634Y-5608090D01*
X4935111Y-5627138D01*
X4925587Y-5636662D01*
X4906539Y-5646185D01*
X4868444Y-5646185D01*
X4849396Y-5636662D01*
X5030349Y-5627138D02*
X5039873Y-5636662D01*
X5030349Y-5646185D01*
X5020825Y-5636662D01*
X5030349Y-5627138D01*
X5030349Y-5646185D01*
X5030349Y-5522376D02*
X5039873Y-5531900D01*
X5030349Y-5541424D01*
X5020825Y-5531900D01*
X5030349Y-5522376D01*
X5030349Y-5541424D01*
M02*
