G04 #@! TF.GenerationSoftware,KiCad,Pcbnew,(6.0.11-0)*
G04 #@! TF.CreationDate,2023-02-07T20:01:21+09:00*
G04 #@! TF.ProjectId,pangaea-top-thumb-k2_leftcut4keys,70616e67-6165-4612-9d74-6f702d746875,1*
G04 #@! TF.SameCoordinates,Original*
G04 #@! TF.FileFunction,Copper,L1,Top*
G04 #@! TF.FilePolarity,Positive*
%FSLAX46Y46*%
G04 Gerber Fmt 4.6, Leading zero omitted, Abs format (unit mm)*
G04 Created by KiCad (PCBNEW (6.0.11-0)) date 2023-02-07 20:01:21*
%MOMM*%
%LPD*%
G01*
G04 APERTURE LIST*
G04 APERTURE END LIST*
G04 #@! TA.AperFunction,NonConductor*
G36*
X66630492Y-24980270D02*
G01*
X67613608Y-24988358D01*
X67615667Y-24988392D01*
X69282313Y-25029345D01*
X69766395Y-25041240D01*
X69768429Y-25041307D01*
X70462435Y-25069714D01*
X71918066Y-25129296D01*
X71920123Y-25129397D01*
X74068031Y-25252501D01*
X74070085Y-25252636D01*
X76215630Y-25410818D01*
X76217682Y-25410986D01*
X78360415Y-25604212D01*
X78362465Y-25604414D01*
X78858679Y-25657349D01*
X80501752Y-25832629D01*
X80503716Y-25832854D01*
X82625889Y-26094382D01*
X82639035Y-26096002D01*
X82641075Y-26096271D01*
X84771716Y-26394263D01*
X84773673Y-26394552D01*
X85486553Y-26506162D01*
X86899316Y-26727347D01*
X86901296Y-26727673D01*
X89021217Y-27095158D01*
X89023064Y-27095495D01*
X89881918Y-27258875D01*
X91101606Y-27490897D01*
X91123700Y-27497234D01*
X91127902Y-27498867D01*
X91127905Y-27498867D01*
X91136724Y-27502295D01*
X91140073Y-27502367D01*
X91143221Y-27503513D01*
X91148257Y-27503513D01*
X91224080Y-27510144D01*
X91328556Y-27519281D01*
X91328559Y-27519281D01*
X91334036Y-27519760D01*
X91524774Y-27503067D01*
X91532477Y-27501003D01*
X91597851Y-27483484D01*
X91709716Y-27453507D01*
X91714697Y-27451184D01*
X91714703Y-27451182D01*
X91878259Y-27374911D01*
X91878262Y-27374910D01*
X91883242Y-27372587D01*
X92040082Y-27262765D01*
X92175469Y-27127377D01*
X92200218Y-27092032D01*
X92756251Y-27092032D01*
X92783604Y-27318069D01*
X92850553Y-27535690D01*
X92853123Y-27540670D01*
X92853125Y-27540674D01*
X92944369Y-27717456D01*
X92954981Y-27738016D01*
X93093588Y-27918651D01*
X93097733Y-27922422D01*
X93097736Y-27922426D01*
X93243404Y-28054973D01*
X93261992Y-28071887D01*
X93266748Y-28074870D01*
X93266750Y-28074872D01*
X93450113Y-28189896D01*
X93450117Y-28189898D01*
X93454869Y-28192879D01*
X93666125Y-28277803D01*
X93889080Y-28323975D01*
X93893691Y-28324241D01*
X93893692Y-28324241D01*
X93945028Y-28327201D01*
X93945032Y-28327201D01*
X93946851Y-28327306D01*
X94094047Y-28327306D01*
X94096834Y-28327057D01*
X94096840Y-28327057D01*
X94167692Y-28320733D01*
X94263060Y-28312222D01*
X94397388Y-28275474D01*
X94477260Y-28253624D01*
X94477264Y-28253623D01*
X94482676Y-28252142D01*
X94688182Y-28154120D01*
X94873082Y-28021256D01*
X94972514Y-27918651D01*
X95027629Y-27861777D01*
X95027631Y-27861774D01*
X95031532Y-27857749D01*
X95111989Y-27738016D01*
X95155396Y-27673420D01*
X95155399Y-27673415D01*
X95158522Y-27668767D01*
X95250040Y-27460283D01*
X95298138Y-27259944D01*
X95301884Y-27244342D01*
X95301885Y-27244338D01*
X95303193Y-27238888D01*
X95309605Y-27127677D01*
X95315976Y-27017187D01*
X95315976Y-27017184D01*
X95316299Y-27011580D01*
X95288946Y-26785543D01*
X95221997Y-26567922D01*
X95219305Y-26562705D01*
X95120140Y-26370577D01*
X95120139Y-26370576D01*
X95117569Y-26365596D01*
X94978962Y-26184961D01*
X94974817Y-26181190D01*
X94974814Y-26181186D01*
X94814711Y-26035504D01*
X94810558Y-26031725D01*
X94805800Y-26028740D01*
X94622437Y-25913716D01*
X94622433Y-25913714D01*
X94617681Y-25910733D01*
X94406425Y-25825809D01*
X94183470Y-25779637D01*
X94178859Y-25779371D01*
X94178858Y-25779371D01*
X94127522Y-25776411D01*
X94127518Y-25776411D01*
X94125699Y-25776306D01*
X93978503Y-25776306D01*
X93975716Y-25776555D01*
X93975710Y-25776555D01*
X93904858Y-25782879D01*
X93809490Y-25791390D01*
X93688690Y-25824437D01*
X93595290Y-25849988D01*
X93595286Y-25849989D01*
X93589874Y-25851470D01*
X93384368Y-25949492D01*
X93199468Y-26082356D01*
X93155460Y-26127769D01*
X93083645Y-26201876D01*
X93041018Y-26245863D01*
X93037891Y-26250517D01*
X92917154Y-26430192D01*
X92917151Y-26430197D01*
X92914028Y-26434845D01*
X92822510Y-26643329D01*
X92802339Y-26727347D01*
X92785090Y-26799194D01*
X92769357Y-26864724D01*
X92769034Y-26870327D01*
X92756588Y-27086192D01*
X92756251Y-27092032D01*
X92200218Y-27092032D01*
X92285291Y-26970536D01*
X92287615Y-26965552D01*
X92287618Y-26965547D01*
X92363883Y-26802000D01*
X92363884Y-26801996D01*
X92366210Y-26797009D01*
X92407236Y-26643906D01*
X92411279Y-26634990D01*
X92411943Y-26626342D01*
X92414435Y-26617042D01*
X92416217Y-26612146D01*
X92416217Y-26608729D01*
X92417722Y-26601323D01*
X92428954Y-26567922D01*
X92454475Y-26492023D01*
X92482290Y-26409306D01*
X92489428Y-26392309D01*
X92584885Y-26204771D01*
X92592696Y-26189425D01*
X92602237Y-26173655D01*
X92733998Y-25988021D01*
X92745739Y-25973809D01*
X92860568Y-25853886D01*
X92903183Y-25809382D01*
X92916869Y-25797038D01*
X93096619Y-25657347D01*
X93111955Y-25647134D01*
X93232440Y-25579072D01*
X93310168Y-25535164D01*
X93326840Y-25527295D01*
X93539267Y-25445447D01*
X93556908Y-25440096D01*
X93778991Y-25390124D01*
X93797224Y-25387403D01*
X94024235Y-25370370D01*
X94042669Y-25370339D01*
X94146406Y-25377774D01*
X94269742Y-25386614D01*
X94287971Y-25389272D01*
X94509479Y-25438338D01*
X94510233Y-25438505D01*
X94527892Y-25443798D01*
X94740593Y-25524938D01*
X94757282Y-25532747D01*
X94955086Y-25643617D01*
X94955864Y-25644053D01*
X94971240Y-25654217D01*
X94975298Y-25657349D01*
X95151454Y-25793307D01*
X95165185Y-25805608D01*
X95264277Y-25908406D01*
X95303882Y-25949492D01*
X95323173Y-25969505D01*
X95334961Y-25983678D01*
X95467345Y-26168877D01*
X95476938Y-26184615D01*
X95567417Y-26360913D01*
X95580881Y-26387147D01*
X95588075Y-26404118D01*
X95660466Y-26617042D01*
X95661353Y-26619652D01*
X95665993Y-26637492D01*
X95706601Y-26859037D01*
X95707034Y-26861401D01*
X95709023Y-26879725D01*
X95713104Y-26996807D01*
X95716953Y-27107245D01*
X95716245Y-27125666D01*
X95693687Y-27326965D01*
X95691949Y-27334211D01*
X95690514Y-27337286D01*
X95690081Y-27342226D01*
X95688324Y-27352184D01*
X95685304Y-27360223D01*
X95685205Y-27369863D01*
X95684853Y-27371860D01*
X95684852Y-27371861D01*
X95658842Y-27519281D01*
X95657662Y-27525971D01*
X95657657Y-27584095D01*
X95657647Y-27710599D01*
X95657646Y-27717456D01*
X95658600Y-27722867D01*
X95658600Y-27722869D01*
X95686678Y-27882146D01*
X95690889Y-27906034D01*
X95692772Y-27911207D01*
X95692772Y-27911208D01*
X95752338Y-28074872D01*
X95756378Y-28085973D01*
X95852123Y-28251803D01*
X95975214Y-28398483D01*
X95979424Y-28402015D01*
X95979427Y-28402018D01*
X96064266Y-28473195D01*
X96121910Y-28521556D01*
X96287752Y-28617281D01*
X96462837Y-28680978D01*
X96467580Y-28683189D01*
X96471352Y-28683518D01*
X96474821Y-28685033D01*
X96484030Y-28685610D01*
X96484032Y-28685611D01*
X96488870Y-28685914D01*
X96511521Y-28689424D01*
X98422128Y-29166708D01*
X98423993Y-29167189D01*
X100361606Y-29682805D01*
X100363447Y-29683310D01*
X102293051Y-30228507D01*
X102294859Y-30229033D01*
X104215867Y-30803646D01*
X104217632Y-30804188D01*
X104374022Y-30853584D01*
X106129630Y-31408094D01*
X106131462Y-31408688D01*
X108033970Y-32041731D01*
X108035793Y-32042353D01*
X108293127Y-32132370D01*
X109928420Y-32704406D01*
X109930167Y-32705032D01*
X111812549Y-33395967D01*
X111814307Y-33396628D01*
X113685845Y-34116228D01*
X113687560Y-34116902D01*
X114986463Y-34639251D01*
X115547859Y-34865014D01*
X115549640Y-34865746D01*
X117355778Y-35624345D01*
X117365106Y-35629596D01*
X117365186Y-35629433D01*
X117375097Y-35634260D01*
X117384020Y-35640736D01*
X117391136Y-35642772D01*
X117397330Y-35646829D01*
X117402934Y-35648146D01*
X117411650Y-35653051D01*
X117470705Y-35691073D01*
X117493717Y-35710096D01*
X117552801Y-35772105D01*
X117570690Y-35796006D01*
X117613527Y-35870181D01*
X117625288Y-35897618D01*
X117649469Y-35979787D01*
X117654445Y-36009225D01*
X117658614Y-36094776D01*
X117656524Y-36124554D01*
X117643456Y-36192940D01*
X117639787Y-36207416D01*
X117638250Y-36212254D01*
X117633137Y-36222025D01*
X117631674Y-36232957D01*
X117629539Y-36239678D01*
X117625756Y-36255059D01*
X111815651Y-52206437D01*
X111641767Y-52683828D01*
X111637429Y-52692352D01*
X111638003Y-52692607D01*
X111633533Y-52702688D01*
X111627384Y-52711834D01*
X111624734Y-52722531D01*
X111624201Y-52723734D01*
X111616479Y-52738447D01*
X111578458Y-52800554D01*
X111557576Y-52826309D01*
X111495748Y-52884786D01*
X111468873Y-52904200D01*
X111393932Y-52944524D01*
X111362924Y-52956255D01*
X111280056Y-52975634D01*
X111247059Y-52978870D01*
X111201972Y-52977328D01*
X111162013Y-52975962D01*
X111129315Y-52970479D01*
X111061586Y-52949669D01*
X111048619Y-52943516D01*
X111048116Y-52944667D01*
X111041899Y-52941951D01*
X111033887Y-52936415D01*
X111031172Y-52935706D01*
X111028826Y-52934147D01*
X111023702Y-52932908D01*
X109323796Y-52206656D01*
X109323325Y-52206464D01*
X109323261Y-52206437D01*
X107608056Y-51506381D01*
X107608028Y-51506370D01*
X107607509Y-51506158D01*
X105880066Y-50833638D01*
X105879692Y-50833499D01*
X105879649Y-50833483D01*
X104142400Y-50189450D01*
X104142390Y-50189447D01*
X104141925Y-50189274D01*
X102393543Y-49573236D01*
X102393163Y-49573109D01*
X102393131Y-49573098D01*
X100692758Y-49004860D01*
X100635383Y-48985686D01*
X98867909Y-48426780D01*
X98867452Y-48426644D01*
X98867424Y-48426635D01*
X97494085Y-48016785D01*
X97091587Y-47896666D01*
X97091193Y-47896555D01*
X97091178Y-47896551D01*
X95317177Y-47398372D01*
X95311910Y-47396893D01*
X95307117Y-47394635D01*
X95283684Y-47392494D01*
X95266553Y-47389728D01*
X95258307Y-47387805D01*
X95254375Y-47386888D01*
X95254374Y-47386888D01*
X95243639Y-47384385D01*
X95232695Y-47385705D01*
X95227772Y-47385436D01*
X95217488Y-47385585D01*
X95212566Y-47385996D01*
X95201584Y-47384993D01*
X95190926Y-47387805D01*
X95190925Y-47387805D01*
X95187501Y-47388709D01*
X95178838Y-47390994D01*
X95161783Y-47394256D01*
X95149374Y-47395752D01*
X95149373Y-47395752D01*
X95138429Y-47397072D01*
X95128595Y-47402056D01*
X95123862Y-47403492D01*
X95114255Y-47407146D01*
X95109773Y-47409215D01*
X95099118Y-47412026D01*
X95090066Y-47418312D01*
X95090065Y-47418313D01*
X95079796Y-47425445D01*
X95064887Y-47434343D01*
X95043902Y-47444978D01*
X95036365Y-47453025D01*
X95027550Y-47459638D01*
X95027376Y-47459405D01*
X95017853Y-47467369D01*
X94860226Y-47569519D01*
X94845119Y-47577898D01*
X94651728Y-47668421D01*
X94635619Y-47674654D01*
X94431652Y-47737878D01*
X94414847Y-47741847D01*
X94327102Y-47756311D01*
X94204163Y-47776576D01*
X94186966Y-47778211D01*
X94098575Y-47780524D01*
X93973500Y-47783796D01*
X93956252Y-47783063D01*
X93850138Y-47771230D01*
X93744030Y-47759398D01*
X93727033Y-47756311D01*
X93520049Y-47703842D01*
X93503634Y-47698459D01*
X93305776Y-47618173D01*
X93290252Y-47610596D01*
X93105228Y-47503998D01*
X93090886Y-47494368D01*
X93045302Y-47458998D01*
X92922188Y-47363469D01*
X92909299Y-47351970D01*
X92760083Y-47199217D01*
X92748892Y-47186067D01*
X92621970Y-47014339D01*
X92612686Y-46999786D01*
X92593151Y-46963964D01*
X92522825Y-46835008D01*
X92518194Y-46823334D01*
X92517946Y-46823448D01*
X92513344Y-46813431D01*
X92510551Y-46802766D01*
X92498075Y-46784732D01*
X92488785Y-46768968D01*
X92483938Y-46759181D01*
X92483937Y-46759180D01*
X92479044Y-46749300D01*
X92471066Y-46741689D01*
X92469718Y-46739857D01*
X92458144Y-46726311D01*
X92456531Y-46724680D01*
X92450260Y-46715615D01*
X92432367Y-46702934D01*
X92418256Y-46691306D01*
X92410346Y-46683760D01*
X92410343Y-46683758D01*
X92402368Y-46676150D01*
X92392272Y-46671728D01*
X92390384Y-46670471D01*
X92374855Y-46661689D01*
X92372791Y-46660712D01*
X92363799Y-46654340D01*
X92342646Y-46648543D01*
X92325401Y-46642440D01*
X92315391Y-46638056D01*
X92305297Y-46633635D01*
X92304843Y-46633606D01*
X91142441Y-46362261D01*
X90322379Y-46170830D01*
X90322370Y-46170828D01*
X90321856Y-46170708D01*
X90187157Y-46141796D01*
X92756299Y-46141796D01*
X92783652Y-46367833D01*
X92850601Y-46585454D01*
X92853171Y-46590434D01*
X92853173Y-46590438D01*
X92924656Y-46728934D01*
X92955029Y-46787780D01*
X93093636Y-46968415D01*
X93097781Y-46972186D01*
X93097784Y-46972190D01*
X93228214Y-47090872D01*
X93262040Y-47121651D01*
X93266796Y-47124634D01*
X93266798Y-47124636D01*
X93450161Y-47239660D01*
X93450165Y-47239662D01*
X93454917Y-47242643D01*
X93666173Y-47327567D01*
X93889128Y-47373739D01*
X93893739Y-47374005D01*
X93893740Y-47374005D01*
X93945076Y-47376965D01*
X93945080Y-47376965D01*
X93946899Y-47377070D01*
X94094095Y-47377070D01*
X94096882Y-47376821D01*
X94096888Y-47376821D01*
X94167740Y-47370497D01*
X94263108Y-47361986D01*
X94396585Y-47325471D01*
X94477308Y-47303388D01*
X94477312Y-47303387D01*
X94482724Y-47301906D01*
X94688230Y-47203884D01*
X94873130Y-47071020D01*
X95031580Y-46907513D01*
X95091493Y-46818353D01*
X95155444Y-46723184D01*
X95155447Y-46723179D01*
X95158570Y-46718531D01*
X95250088Y-46510047D01*
X95303241Y-46288652D01*
X95311387Y-46147373D01*
X95316024Y-46066951D01*
X95316024Y-46066948D01*
X95316347Y-46061344D01*
X95288994Y-45835307D01*
X95222045Y-45617686D01*
X95194850Y-45564995D01*
X95173986Y-45524572D01*
X96679033Y-45524572D01*
X96681383Y-45535969D01*
X96686124Y-45558962D01*
X96688018Y-45571128D01*
X96691718Y-45606040D01*
X96697027Y-45616392D01*
X96698000Y-45619657D01*
X96699290Y-45622818D01*
X96701639Y-45634210D01*
X96707931Y-45643992D01*
X96720635Y-45663743D01*
X96726772Y-45674394D01*
X96742801Y-45705650D01*
X96751477Y-45713394D01*
X96753560Y-45716089D01*
X96755905Y-45718577D01*
X96762198Y-45728361D01*
X96790566Y-45749085D01*
X96800116Y-45756805D01*
X96826319Y-45780192D01*
X96832021Y-45782924D01*
X96834906Y-45783974D01*
X96837763Y-45785175D01*
X96837719Y-45785281D01*
X96843359Y-45787653D01*
X96852591Y-45794398D01*
X96889286Y-45804265D01*
X96899632Y-45807532D01*
X102969504Y-48016785D01*
X109988379Y-50571447D01*
X109999054Y-50575935D01*
X110008287Y-50582680D01*
X110019517Y-50585700D01*
X110019520Y-50585701D01*
X110044964Y-50592542D01*
X110055330Y-50595815D01*
X110063863Y-50598921D01*
X110070457Y-50600019D01*
X110082478Y-50602629D01*
X110105155Y-50608727D01*
X110105158Y-50608727D01*
X110116392Y-50611748D01*
X110127963Y-50610521D01*
X110131353Y-50610788D01*
X110134765Y-50610723D01*
X110146246Y-50612634D01*
X110157643Y-50610284D01*
X110157644Y-50610284D01*
X110180637Y-50605543D01*
X110192803Y-50603649D01*
X110216146Y-50601175D01*
X110227715Y-50599949D01*
X110238067Y-50594640D01*
X110241332Y-50593667D01*
X110244493Y-50592377D01*
X110255885Y-50590028D01*
X110285421Y-50571030D01*
X110296069Y-50564895D01*
X110327325Y-50548866D01*
X110335069Y-50540190D01*
X110337764Y-50538107D01*
X110340252Y-50535762D01*
X110350036Y-50529469D01*
X110356898Y-50520076D01*
X110356900Y-50520074D01*
X110370753Y-50501111D01*
X110378482Y-50491548D01*
X110401867Y-50465348D01*
X110404599Y-50459646D01*
X110405656Y-50456742D01*
X110406845Y-50453914D01*
X110406951Y-50453958D01*
X110409326Y-50448311D01*
X110416072Y-50439076D01*
X110425931Y-50402410D01*
X110429207Y-50392034D01*
X110519034Y-50145238D01*
X113829527Y-41049735D01*
X115193125Y-37303280D01*
X115197610Y-37292612D01*
X115204354Y-37283380D01*
X115214214Y-37246710D01*
X115217491Y-37236334D01*
X115218611Y-37233258D01*
X115218611Y-37233257D01*
X115220596Y-37227804D01*
X115221693Y-37221216D01*
X115224305Y-37209184D01*
X115230401Y-37186513D01*
X115230401Y-37186512D01*
X115233423Y-37175274D01*
X115232196Y-37163703D01*
X115232463Y-37160314D01*
X115232398Y-37156902D01*
X115234309Y-37145421D01*
X115227215Y-37111017D01*
X115225323Y-37098862D01*
X115222849Y-37075522D01*
X115221623Y-37063952D01*
X115216313Y-37053599D01*
X115215340Y-37050334D01*
X115214052Y-37047178D01*
X115211703Y-37035782D01*
X115205410Y-37025999D01*
X115205408Y-37025993D01*
X115192708Y-37006249D01*
X115186562Y-36995583D01*
X115175849Y-36974692D01*
X115175848Y-36974691D01*
X115170541Y-36964342D01*
X115161865Y-36956598D01*
X115159782Y-36953903D01*
X115157437Y-36951415D01*
X115151144Y-36941631D01*
X115141751Y-36934769D01*
X115141749Y-36934767D01*
X115122786Y-36920914D01*
X115113223Y-36913185D01*
X115087023Y-36889800D01*
X115081320Y-36887067D01*
X115078414Y-36886009D01*
X115075576Y-36884816D01*
X115075621Y-36884708D01*
X115069983Y-36882340D01*
X115060751Y-36875595D01*
X115024088Y-36865736D01*
X115013711Y-36862459D01*
X101924955Y-32098542D01*
X101914287Y-32094057D01*
X101905055Y-32087313D01*
X101868385Y-32077453D01*
X101858015Y-32074178D01*
X101849479Y-32071071D01*
X101842892Y-32069975D01*
X101830874Y-32067366D01*
X101796949Y-32058244D01*
X101785378Y-32059471D01*
X101781986Y-32059204D01*
X101778576Y-32059269D01*
X101767095Y-32057358D01*
X101732691Y-32064452D01*
X101720541Y-32066343D01*
X101685627Y-32070044D01*
X101675274Y-32075354D01*
X101672009Y-32076327D01*
X101668853Y-32077615D01*
X101657457Y-32079964D01*
X101647674Y-32086257D01*
X101647668Y-32086259D01*
X101627924Y-32098959D01*
X101617258Y-32105105D01*
X101596367Y-32115818D01*
X101596366Y-32115819D01*
X101586017Y-32121126D01*
X101578273Y-32129802D01*
X101575578Y-32131885D01*
X101573090Y-32134230D01*
X101563306Y-32140523D01*
X101542582Y-32168891D01*
X101534862Y-32178441D01*
X101511475Y-32204644D01*
X101508742Y-32210347D01*
X101507691Y-32213236D01*
X101506489Y-32216094D01*
X101506382Y-32216049D01*
X101504015Y-32221682D01*
X101497269Y-32230916D01*
X101487406Y-32267598D01*
X101484137Y-32277950D01*
X99498901Y-37732341D01*
X96720220Y-45366704D01*
X96715732Y-45377379D01*
X96708987Y-45386612D01*
X96705967Y-45397842D01*
X96705966Y-45397845D01*
X96699125Y-45423289D01*
X96695852Y-45433655D01*
X96692746Y-45442188D01*
X96691650Y-45448775D01*
X96689038Y-45460803D01*
X96682940Y-45483480D01*
X96682940Y-45483483D01*
X96679919Y-45494717D01*
X96681146Y-45506289D01*
X96680879Y-45509681D01*
X96680944Y-45513091D01*
X96679033Y-45524572D01*
X95173986Y-45524572D01*
X95120188Y-45420341D01*
X95120187Y-45420340D01*
X95117617Y-45415360D01*
X94979010Y-45234725D01*
X94974865Y-45230954D01*
X94974862Y-45230950D01*
X94814759Y-45085268D01*
X94810606Y-45081489D01*
X94805848Y-45078504D01*
X94622485Y-44963480D01*
X94622481Y-44963478D01*
X94617729Y-44960497D01*
X94406473Y-44875573D01*
X94183518Y-44829401D01*
X94178907Y-44829135D01*
X94178906Y-44829135D01*
X94127570Y-44826175D01*
X94127566Y-44826175D01*
X94125747Y-44826070D01*
X93978551Y-44826070D01*
X93975764Y-44826319D01*
X93975758Y-44826319D01*
X93904906Y-44832643D01*
X93809538Y-44841154D01*
X93687887Y-44874434D01*
X93595338Y-44899752D01*
X93595334Y-44899753D01*
X93589922Y-44901234D01*
X93384416Y-44999256D01*
X93199516Y-45132120D01*
X93041066Y-45295627D01*
X93003561Y-45351440D01*
X92917202Y-45479956D01*
X92917199Y-45479961D01*
X92914076Y-45484609D01*
X92822558Y-45693093D01*
X92769405Y-45914488D01*
X92769082Y-45920091D01*
X92760938Y-46061344D01*
X92756299Y-46141796D01*
X90187157Y-46141796D01*
X89102731Y-45909034D01*
X88331020Y-45743393D01*
X88330984Y-45743386D01*
X88330464Y-45743274D01*
X86331742Y-45351543D01*
X86331209Y-45351448D01*
X86331164Y-45351440D01*
X85095353Y-45132120D01*
X84326331Y-44995641D01*
X83287135Y-44830338D01*
X82315384Y-44675763D01*
X82315340Y-44675756D01*
X82314872Y-44675682D01*
X81317263Y-44535248D01*
X80298587Y-44391848D01*
X80298548Y-44391843D01*
X80298009Y-44391767D01*
X80297432Y-44391696D01*
X80297407Y-44391693D01*
X79000524Y-44232742D01*
X78276389Y-44143989D01*
X76250659Y-43932426D01*
X76250170Y-43932384D01*
X76250131Y-43932380D01*
X74222060Y-43757197D01*
X74222046Y-43757196D01*
X74221468Y-43757146D01*
X72189465Y-43618205D01*
X72188890Y-43618176D01*
X70155807Y-43515673D01*
X70155754Y-43515671D01*
X70155301Y-43515648D01*
X68195066Y-43451959D01*
X68120120Y-43449524D01*
X68120118Y-43449524D01*
X68119627Y-43449508D01*
X66083096Y-43419805D01*
X64594022Y-43424736D01*
X64046946Y-43426547D01*
X64046939Y-43426547D01*
X64046360Y-43426549D01*
X62383994Y-43461808D01*
X62010632Y-43469727D01*
X62010623Y-43469727D01*
X62010070Y-43469739D01*
X62009506Y-43469761D01*
X62009508Y-43469761D01*
X59975460Y-43549337D01*
X59975433Y-43549338D01*
X59974879Y-43549360D01*
X58822448Y-43615117D01*
X57941993Y-43665354D01*
X57941949Y-43665357D01*
X57941439Y-43665386D01*
X57940935Y-43665424D01*
X57940917Y-43665425D01*
X55910985Y-43817737D01*
X55910965Y-43817739D01*
X55910401Y-43817781D01*
X55909828Y-43817834D01*
X55909808Y-43817836D01*
X53882918Y-44006449D01*
X53882897Y-44006451D01*
X53882415Y-44006496D01*
X51858130Y-44231470D01*
X51857548Y-44231545D01*
X51857525Y-44231548D01*
X51062406Y-44334351D01*
X49838196Y-44492632D01*
X49837636Y-44492715D01*
X49837626Y-44492716D01*
X47823825Y-44789813D01*
X47823787Y-44789819D01*
X47823258Y-44789897D01*
X47822730Y-44789985D01*
X47822689Y-44789991D01*
X46812189Y-44957599D01*
X45813962Y-45123171D01*
X45813425Y-45123270D01*
X45813379Y-45123278D01*
X44878278Y-45295627D01*
X43810952Y-45492346D01*
X41814868Y-45897305D01*
X40580431Y-46170830D01*
X39826878Y-46337801D01*
X39826855Y-46337806D01*
X39826351Y-46337918D01*
X39195168Y-46489673D01*
X37855559Y-46811754D01*
X37855558Y-46811755D01*
X37846485Y-46813936D01*
X37846017Y-46813969D01*
X37836032Y-46818421D01*
X37834156Y-46818800D01*
X37832373Y-46819500D01*
X37821565Y-46821177D01*
X37812047Y-46826415D01*
X37795287Y-46830837D01*
X37777891Y-46834139D01*
X37749471Y-46839533D01*
X37714125Y-46841184D01*
X37657350Y-46835820D01*
X37622937Y-46827578D01*
X37619728Y-46826311D01*
X37569891Y-46806638D01*
X37539126Y-46789151D01*
X37503489Y-46761621D01*
X37493994Y-46754286D01*
X37469305Y-46728934D01*
X37467388Y-46726311D01*
X37462681Y-46719872D01*
X37440239Y-46666966D01*
X34613515Y-30307422D01*
X36485770Y-30307422D01*
X36486255Y-30313727D01*
X36486790Y-30316761D01*
X36487176Y-30319816D01*
X36487060Y-30319831D01*
X36487829Y-30325907D01*
X36486604Y-30337277D01*
X36489606Y-30348519D01*
X36496397Y-30373953D01*
X36498748Y-30384577D01*
X37487877Y-35994208D01*
X38917456Y-44101750D01*
X38918904Y-44113217D01*
X38917679Y-44124586D01*
X38927478Y-44161285D01*
X38929822Y-44171884D01*
X38931401Y-44180838D01*
X38933439Y-44186273D01*
X38933751Y-44187107D01*
X38937502Y-44198826D01*
X38946558Y-44232742D01*
X38953405Y-44242149D01*
X38954876Y-44245232D01*
X38956635Y-44248147D01*
X38960718Y-44259041D01*
X38968448Y-44267732D01*
X38968449Y-44267734D01*
X38984053Y-44285277D01*
X38991770Y-44294857D01*
X39012437Y-44323251D01*
X39022205Y-44329558D01*
X39024687Y-44331905D01*
X39027385Y-44333998D01*
X39035114Y-44342688D01*
X39045454Y-44348013D01*
X39066333Y-44358766D01*
X39076989Y-44364931D01*
X39093853Y-44375820D01*
X39106482Y-44383974D01*
X39117871Y-44386343D01*
X39121026Y-44387637D01*
X39124294Y-44388617D01*
X39134636Y-44393944D01*
X39169555Y-44397707D01*
X39181703Y-44399621D01*
X39216081Y-44406771D01*
X39222386Y-44406286D01*
X39225415Y-44405752D01*
X39228472Y-44405366D01*
X39228486Y-44405479D01*
X39234567Y-44404713D01*
X39245936Y-44405938D01*
X39257171Y-44402938D01*
X39257172Y-44402938D01*
X39282623Y-44396142D01*
X39293248Y-44393791D01*
X39296300Y-44393253D01*
X44533876Y-43469727D01*
X53010395Y-41975088D01*
X53021874Y-41973638D01*
X53033245Y-41974863D01*
X53049971Y-41970397D01*
X53069926Y-41965069D01*
X53080547Y-41962719D01*
X53083776Y-41962150D01*
X53083788Y-41962147D01*
X53089497Y-41961140D01*
X53094925Y-41959105D01*
X53094937Y-41959102D01*
X53095749Y-41958797D01*
X53107475Y-41955043D01*
X53130161Y-41948986D01*
X53130164Y-41948984D01*
X53141401Y-41945984D01*
X53150809Y-41939136D01*
X53153888Y-41937667D01*
X53156806Y-41935907D01*
X53167700Y-41931823D01*
X53193938Y-41908487D01*
X53203518Y-41900770D01*
X53231910Y-41880104D01*
X53238219Y-41870333D01*
X53240565Y-41867853D01*
X53242656Y-41865157D01*
X53251347Y-41857427D01*
X53267424Y-41826211D01*
X53273582Y-41815566D01*
X53292634Y-41786060D01*
X53294691Y-41776171D01*
X54656302Y-41776171D01*
X54683655Y-42002208D01*
X54750604Y-42219829D01*
X54753174Y-42224809D01*
X54753176Y-42224813D01*
X54852460Y-42417172D01*
X54855032Y-42422155D01*
X54993639Y-42602790D01*
X54997784Y-42606561D01*
X54997787Y-42606565D01*
X55101688Y-42701107D01*
X55162043Y-42756026D01*
X55162046Y-42756028D01*
X55164973Y-42757864D01*
X55164976Y-42757866D01*
X55350167Y-42874037D01*
X55350171Y-42874039D01*
X55354923Y-42877020D01*
X55566179Y-42961944D01*
X55789134Y-43008116D01*
X55793745Y-43008382D01*
X55793746Y-43008382D01*
X55845082Y-43011342D01*
X55845086Y-43011342D01*
X55846905Y-43011447D01*
X55994101Y-43011447D01*
X55996888Y-43011198D01*
X55996894Y-43011198D01*
X56067746Y-43004874D01*
X56163114Y-42996363D01*
X56296598Y-42959846D01*
X56377314Y-42937765D01*
X56377318Y-42937764D01*
X56382730Y-42936283D01*
X56588236Y-42838261D01*
X56773136Y-42705397D01*
X56872570Y-42602790D01*
X56927683Y-42545918D01*
X56927685Y-42545915D01*
X56931586Y-42541890D01*
X57009054Y-42426605D01*
X57055450Y-42357561D01*
X57055453Y-42357556D01*
X57058576Y-42352908D01*
X57150094Y-42144424D01*
X57191149Y-41973420D01*
X57201938Y-41928483D01*
X57201939Y-41928479D01*
X57203247Y-41923029D01*
X57211393Y-41781746D01*
X57211715Y-41776169D01*
X73706301Y-41776169D01*
X73733654Y-42002206D01*
X73800603Y-42219827D01*
X73803173Y-42224807D01*
X73803175Y-42224811D01*
X73902460Y-42417172D01*
X73905031Y-42422153D01*
X74043638Y-42602788D01*
X74047783Y-42606559D01*
X74047786Y-42606563D01*
X74151687Y-42701105D01*
X74212042Y-42756024D01*
X74212045Y-42756026D01*
X74214975Y-42757864D01*
X74400166Y-42874035D01*
X74400170Y-42874037D01*
X74404922Y-42877018D01*
X74616178Y-42961942D01*
X74839133Y-43008114D01*
X74843744Y-43008380D01*
X74843745Y-43008380D01*
X74895081Y-43011340D01*
X74895085Y-43011340D01*
X74896904Y-43011445D01*
X75044100Y-43011445D01*
X75046887Y-43011196D01*
X75046893Y-43011196D01*
X75117745Y-43004872D01*
X75213113Y-42996361D01*
X75346590Y-42959846D01*
X75427313Y-42937763D01*
X75427317Y-42937762D01*
X75432729Y-42936281D01*
X75638235Y-42838259D01*
X75823135Y-42705395D01*
X75981585Y-42541888D01*
X76065389Y-42417174D01*
X76105449Y-42357559D01*
X76105452Y-42357554D01*
X76108575Y-42352906D01*
X76200093Y-42144422D01*
X76235737Y-41995957D01*
X76251937Y-41928481D01*
X76251938Y-41928477D01*
X76253246Y-41923027D01*
X76257625Y-41847086D01*
X76265995Y-41701911D01*
X77605556Y-41701911D01*
X77608774Y-41713096D01*
X77609101Y-41716495D01*
X77609755Y-41719829D01*
X77609867Y-41731466D01*
X77622829Y-41764121D01*
X77626797Y-41775742D01*
X77636507Y-41809493D01*
X77643531Y-41818764D01*
X77645066Y-41821830D01*
X77646878Y-41824707D01*
X77651168Y-41835514D01*
X77659060Y-41844052D01*
X77659061Y-41844053D01*
X77675009Y-41861305D01*
X77682912Y-41870741D01*
X77704111Y-41898720D01*
X77714004Y-41904842D01*
X77716532Y-41907142D01*
X77719262Y-41909177D01*
X77727157Y-41917718D01*
X77737596Y-41922843D01*
X77737602Y-41922848D01*
X77758683Y-41933198D01*
X77769453Y-41939155D01*
X77799304Y-41957627D01*
X77805394Y-41959328D01*
X77808419Y-41959861D01*
X77811442Y-41960548D01*
X77811417Y-41960660D01*
X77817378Y-41962015D01*
X77827643Y-41967055D01*
X77865471Y-41970398D01*
X77876240Y-41971821D01*
X88995127Y-43932380D01*
X91593402Y-44390526D01*
X91604686Y-44393090D01*
X91614952Y-44398130D01*
X91652783Y-44401473D01*
X91663559Y-44402896D01*
X91665974Y-44403322D01*
X91666794Y-44403467D01*
X91666796Y-44403467D01*
X91672506Y-44404474D01*
X91679186Y-44404410D01*
X91691483Y-44404893D01*
X91714873Y-44406960D01*
X91714874Y-44406960D01*
X91726463Y-44407984D01*
X91737648Y-44404766D01*
X91741047Y-44404439D01*
X91744381Y-44403785D01*
X91756018Y-44403673D01*
X91788673Y-44390711D01*
X91800294Y-44386743D01*
X91834045Y-44377033D01*
X91843316Y-44370009D01*
X91846382Y-44368474D01*
X91849259Y-44366662D01*
X91860066Y-44362372D01*
X91885858Y-44338530D01*
X91895294Y-44330627D01*
X91913999Y-44316455D01*
X91923272Y-44309429D01*
X91929394Y-44299536D01*
X91931694Y-44297008D01*
X91933729Y-44294278D01*
X91942270Y-44286383D01*
X91947395Y-44275944D01*
X91947400Y-44275938D01*
X91957750Y-44254857D01*
X91963707Y-44244087D01*
X91977502Y-44221794D01*
X91982179Y-44214236D01*
X91983880Y-44208146D01*
X91984413Y-44205121D01*
X91985100Y-44202098D01*
X91985212Y-44202123D01*
X91986567Y-44196162D01*
X91991607Y-44185897D01*
X91994950Y-44148069D01*
X91996374Y-44137289D01*
X91996633Y-44135825D01*
X92479451Y-41397629D01*
X94454704Y-41397629D01*
X94470701Y-41489907D01*
X94481854Y-41554242D01*
X94484328Y-41568516D01*
X94549329Y-41729309D01*
X94553093Y-41734850D01*
X94553095Y-41734854D01*
X94636356Y-41857427D01*
X94646782Y-41872776D01*
X94772303Y-41992460D01*
X94778016Y-41995956D01*
X94778018Y-41995957D01*
X94796999Y-42007570D01*
X94920244Y-42082977D01*
X94926569Y-42085190D01*
X94926571Y-42085191D01*
X95040174Y-42124938D01*
X95083948Y-42140254D01*
X95090590Y-42141082D01*
X95090593Y-42141083D01*
X95209101Y-42155860D01*
X95256051Y-42161715D01*
X95262726Y-42161123D01*
X95305515Y-42157328D01*
X95428808Y-42146392D01*
X95435204Y-42144407D01*
X95435207Y-42144406D01*
X95588049Y-42096962D01*
X95594447Y-42094976D01*
X95745515Y-42009781D01*
X95750520Y-42005338D01*
X95750524Y-42005335D01*
X95870206Y-41899086D01*
X95870207Y-41899085D01*
X95875215Y-41894639D01*
X95977711Y-41754731D01*
X96018233Y-41663932D01*
X96019932Y-41660850D01*
X96019718Y-41660747D01*
X96021120Y-41657823D01*
X96022452Y-41655046D01*
X96023466Y-41652264D01*
X96024321Y-41650292D01*
X96027918Y-41642232D01*
X96047467Y-41598427D01*
X96048543Y-41596400D01*
X96050070Y-41585482D01*
X96051507Y-41581050D01*
X96056042Y-41562852D01*
X96364630Y-40715864D01*
X97449760Y-37737481D01*
X97453947Y-37727378D01*
X97463846Y-37706146D01*
X97468505Y-37696153D01*
X97468951Y-37691049D01*
X97501308Y-37507481D01*
X97501299Y-37316017D01*
X97493563Y-37272148D01*
X97473839Y-37160314D01*
X97468046Y-37127464D01*
X97402558Y-36947548D01*
X97395179Y-36934767D01*
X97309573Y-36786495D01*
X97309571Y-36786492D01*
X97306825Y-36781736D01*
X97183756Y-36635066D01*
X97130194Y-36590120D01*
X97041305Y-36515530D01*
X97041299Y-36515526D01*
X97037089Y-36511993D01*
X96871280Y-36416255D01*
X96750971Y-36372460D01*
X96747845Y-36371046D01*
X96747460Y-36370758D01*
X96745979Y-36370201D01*
X96745974Y-36370199D01*
X96744434Y-36369620D01*
X96744425Y-36369617D01*
X96741541Y-36368533D01*
X96738557Y-36367733D01*
X96736039Y-36366925D01*
X96731458Y-36365356D01*
X96706711Y-36356348D01*
X96696203Y-36352523D01*
X96691484Y-36350322D01*
X96675857Y-36348954D01*
X96654237Y-36345141D01*
X96571765Y-36323044D01*
X96551123Y-36315531D01*
X96546908Y-36313565D01*
X96546903Y-36313564D01*
X96536919Y-36308908D01*
X96531215Y-36308409D01*
X96520830Y-36306578D01*
X96520827Y-36306577D01*
X96353659Y-36277101D01*
X96353658Y-36277101D01*
X96348237Y-36276145D01*
X96252515Y-36276145D01*
X96162281Y-36276144D01*
X96156775Y-36276144D01*
X96151354Y-36277100D01*
X96151352Y-36277100D01*
X96108794Y-36284604D01*
X95968222Y-36309388D01*
X95788306Y-36374868D01*
X95622492Y-36470594D01*
X95618283Y-36474125D01*
X95618278Y-36474129D01*
X95514568Y-36561147D01*
X95475820Y-36593658D01*
X95352745Y-36740321D01*
X95257005Y-36906127D01*
X95255129Y-36911281D01*
X95255126Y-36911287D01*
X95208767Y-37038635D01*
X95205783Y-37046084D01*
X95205430Y-37046890D01*
X95200752Y-37054455D01*
X95199054Y-37060546D01*
X95198522Y-37063571D01*
X95198519Y-37063583D01*
X95198484Y-37063781D01*
X95196727Y-37071709D01*
X95193275Y-37081191D01*
X95191070Y-37085920D01*
X95188186Y-37118868D01*
X95188065Y-37120246D01*
X95186639Y-37131087D01*
X95080823Y-37732341D01*
X94473013Y-41185939D01*
X94468458Y-41203933D01*
X94461664Y-41224320D01*
X94461714Y-41226161D01*
X94461150Y-41239945D01*
X94461150Y-41239946D01*
X94456388Y-41356432D01*
X94454704Y-41397629D01*
X92479451Y-41397629D01*
X93835446Y-33707393D01*
X95793125Y-33707393D01*
X95793130Y-33898865D01*
X95826384Y-34087427D01*
X95891875Y-34267350D01*
X95987615Y-34433167D01*
X95991152Y-34437381D01*
X95991154Y-34437385D01*
X96107162Y-34575631D01*
X96110694Y-34579840D01*
X96257373Y-34702912D01*
X96423194Y-34798645D01*
X96428357Y-34800524D01*
X96428359Y-34800525D01*
X96543495Y-34842428D01*
X96546621Y-34843841D01*
X96547002Y-34844126D01*
X96552921Y-34846351D01*
X96555892Y-34847147D01*
X96558454Y-34847970D01*
X96563017Y-34849533D01*
X96598273Y-34862364D01*
X96603002Y-34864569D01*
X96618609Y-34865934D01*
X96640238Y-34869747D01*
X96907596Y-34941385D01*
X97321566Y-35052307D01*
X97342195Y-35059814D01*
X97346437Y-35061792D01*
X97346441Y-35061793D01*
X97356429Y-35066450D01*
X97361262Y-35066873D01*
X97372368Y-35068831D01*
X97539688Y-35098327D01*
X97539693Y-35098327D01*
X97545102Y-35099281D01*
X97550601Y-35099281D01*
X97640828Y-35099278D01*
X97736571Y-35099275D01*
X97741984Y-35098320D01*
X97741988Y-35098320D01*
X97919711Y-35066977D01*
X97925132Y-35066021D01*
X97930301Y-35064140D01*
X97930303Y-35064139D01*
X98099888Y-35002410D01*
X98099887Y-35002410D01*
X98105053Y-35000530D01*
X98270868Y-34904791D01*
X98417541Y-34781714D01*
X98540613Y-34635037D01*
X98636346Y-34469218D01*
X98688198Y-34326753D01*
X98696244Y-34304647D01*
X98696244Y-34304645D01*
X98700067Y-34294142D01*
X98702272Y-34289413D01*
X98703233Y-34278428D01*
X98703382Y-34277871D01*
X98706769Y-34267164D01*
X98769420Y-34096024D01*
X99459321Y-32211444D01*
X99494505Y-32115333D01*
X99498633Y-32105394D01*
X99508681Y-32083849D01*
X99508682Y-32083845D01*
X99513340Y-32073857D01*
X99513831Y-32068245D01*
X99518398Y-32042353D01*
X99545164Y-31890587D01*
X99545164Y-31890585D01*
X99546119Y-31885171D01*
X99546125Y-31693703D01*
X99528227Y-31592176D01*
X99513838Y-31510560D01*
X99512883Y-31505143D01*
X99509746Y-31496523D01*
X99449287Y-31330399D01*
X99449285Y-31330394D01*
X99447402Y-31325221D01*
X99442923Y-31317463D01*
X99354425Y-31164170D01*
X99354423Y-31164167D01*
X99351672Y-31159402D01*
X99228602Y-31012727D01*
X99206553Y-30994225D01*
X99086150Y-30893191D01*
X99086148Y-30893190D01*
X99081931Y-30889651D01*
X98916117Y-30793915D01*
X98906290Y-30790338D01*
X98795807Y-30750125D01*
X98792694Y-30748717D01*
X98792307Y-30748428D01*
X98790816Y-30747868D01*
X98790812Y-30747866D01*
X98790168Y-30747624D01*
X98786388Y-30746204D01*
X98783441Y-30745414D01*
X98780859Y-30744585D01*
X98776295Y-30743023D01*
X98741047Y-30730194D01*
X98736315Y-30727987D01*
X98725335Y-30727026D01*
X98725333Y-30727026D01*
X98721971Y-30726732D01*
X98720698Y-30726621D01*
X98699070Y-30722808D01*
X98032614Y-30544231D01*
X97612037Y-30431538D01*
X97591408Y-30424030D01*
X97577190Y-30417401D01*
X97571721Y-30416923D01*
X97521875Y-30408135D01*
X97393937Y-30385579D01*
X97393932Y-30385579D01*
X97388512Y-30384623D01*
X97383005Y-30384623D01*
X97292764Y-30384625D01*
X97197050Y-30384626D01*
X97008497Y-30417874D01*
X97003327Y-30419756D01*
X97003326Y-30419756D01*
X96970956Y-30431538D01*
X96828582Y-30483358D01*
X96823815Y-30486110D01*
X96823813Y-30486111D01*
X96695603Y-30560130D01*
X96662769Y-30579086D01*
X96658554Y-30582623D01*
X96520315Y-30698613D01*
X96520311Y-30698617D01*
X96516098Y-30702152D01*
X96512561Y-30706367D01*
X96512559Y-30706369D01*
X96495225Y-30727026D01*
X96393024Y-30848816D01*
X96297285Y-31014623D01*
X96295405Y-31019788D01*
X96249022Y-31147200D01*
X96246114Y-31154476D01*
X96245531Y-31155813D01*
X96240863Y-31163388D01*
X96239174Y-31169482D01*
X96238577Y-31172903D01*
X96236904Y-31180489D01*
X96233555Y-31189687D01*
X96231350Y-31194416D01*
X96230389Y-31205397D01*
X96228316Y-31229071D01*
X96226922Y-31239729D01*
X95850796Y-33396280D01*
X95833198Y-33497177D01*
X95830777Y-33508144D01*
X95830620Y-33508730D01*
X95825962Y-33518720D01*
X95825542Y-33523517D01*
X95793125Y-33707393D01*
X93835446Y-33707393D01*
X94308110Y-31026781D01*
X94415078Y-30420138D01*
X94417642Y-30408854D01*
X94422682Y-30398588D01*
X94426025Y-30360757D01*
X94427448Y-30349981D01*
X94429026Y-30341034D01*
X94428962Y-30334354D01*
X94429445Y-30322057D01*
X94431512Y-30298667D01*
X94431512Y-30298666D01*
X94432536Y-30287077D01*
X94429318Y-30275892D01*
X94428991Y-30272493D01*
X94428337Y-30269159D01*
X94428225Y-30257522D01*
X94415272Y-30224889D01*
X94411294Y-30213240D01*
X94404802Y-30190672D01*
X94404801Y-30190670D01*
X94401586Y-30179495D01*
X94394562Y-30170224D01*
X94393039Y-30167182D01*
X94391218Y-30164290D01*
X94386924Y-30153474D01*
X94363091Y-30127692D01*
X94355185Y-30118253D01*
X94341007Y-30099540D01*
X94333982Y-30090268D01*
X94324090Y-30084147D01*
X94321571Y-30081855D01*
X94318833Y-30079814D01*
X94310935Y-30071270D01*
X94279407Y-30055790D01*
X94268655Y-30049842D01*
X94238789Y-30031361D01*
X94232698Y-30029660D01*
X94229678Y-30029128D01*
X94226659Y-30028442D01*
X94226684Y-30028330D01*
X94220714Y-30026973D01*
X94210449Y-30021933D01*
X94172621Y-30018590D01*
X94161852Y-30017167D01*
X81536741Y-27791020D01*
X80444690Y-27598462D01*
X80433403Y-27595897D01*
X80423140Y-27590858D01*
X80411558Y-27589834D01*
X80411556Y-27589834D01*
X80385312Y-27587515D01*
X80374527Y-27586090D01*
X80371308Y-27585522D01*
X80371301Y-27585521D01*
X80365587Y-27584514D01*
X80358906Y-27584578D01*
X80346609Y-27584095D01*
X80311629Y-27581004D01*
X80300448Y-27584220D01*
X80297054Y-27584547D01*
X80293710Y-27585203D01*
X80282074Y-27585315D01*
X80268110Y-27590858D01*
X80249442Y-27598268D01*
X80237792Y-27602246D01*
X80215224Y-27608738D01*
X80215222Y-27608739D01*
X80204047Y-27611954D01*
X80194776Y-27618978D01*
X80191734Y-27620501D01*
X80188842Y-27622322D01*
X80178026Y-27626616D01*
X80169482Y-27634514D01*
X80152244Y-27650449D01*
X80142805Y-27658355D01*
X80114820Y-27679558D01*
X80108699Y-27689450D01*
X80106407Y-27691969D01*
X80104366Y-27694707D01*
X80095822Y-27702605D01*
X80080996Y-27732802D01*
X80080344Y-27734129D01*
X80074394Y-27744885D01*
X80055913Y-27774751D01*
X80054212Y-27780842D01*
X80053680Y-27783862D01*
X80052994Y-27786881D01*
X80052882Y-27786856D01*
X80051525Y-27792826D01*
X80046485Y-27803091D01*
X80045461Y-27814681D01*
X80043143Y-27840910D01*
X80041719Y-27851688D01*
X78333719Y-37538243D01*
X77623014Y-41568850D01*
X77620449Y-41580137D01*
X77615410Y-41590400D01*
X77614386Y-41601982D01*
X77614386Y-41601984D01*
X77612067Y-41628228D01*
X77610642Y-41639013D01*
X77610074Y-41642232D01*
X77610073Y-41642239D01*
X77609066Y-41647953D01*
X77609122Y-41653760D01*
X77609130Y-41654633D01*
X77608647Y-41666931D01*
X77607036Y-41685167D01*
X77605556Y-41701911D01*
X76265995Y-41701911D01*
X76266029Y-41701326D01*
X76266029Y-41701323D01*
X76266352Y-41695719D01*
X76238999Y-41469682D01*
X76172050Y-41252061D01*
X76165587Y-41239538D01*
X76070193Y-41054716D01*
X76070192Y-41054715D01*
X76067622Y-41049735D01*
X75929015Y-40869100D01*
X75924869Y-40865327D01*
X75924867Y-40865325D01*
X75764764Y-40719643D01*
X75760611Y-40715864D01*
X75755853Y-40712879D01*
X75568374Y-40595273D01*
X75568371Y-40595272D01*
X75567734Y-40594872D01*
X75567735Y-40594872D01*
X75567731Y-40594870D01*
X75565361Y-40593917D01*
X75565356Y-40593915D01*
X75361689Y-40512042D01*
X75356475Y-40509946D01*
X75133520Y-40463774D01*
X75128909Y-40463508D01*
X75128908Y-40463508D01*
X75077572Y-40460548D01*
X75077568Y-40460548D01*
X75075749Y-40460443D01*
X74928553Y-40460443D01*
X74925766Y-40460692D01*
X74925760Y-40460692D01*
X74854908Y-40467016D01*
X74759540Y-40475527D01*
X74637889Y-40508807D01*
X74545340Y-40534125D01*
X74545336Y-40534126D01*
X74539924Y-40535607D01*
X74334418Y-40633629D01*
X74149518Y-40766493D01*
X74145611Y-40770525D01*
X74050083Y-40869102D01*
X73991068Y-40930000D01*
X73947117Y-40995407D01*
X73867204Y-41114329D01*
X73867203Y-41114331D01*
X73864078Y-41118982D01*
X73772560Y-41327466D01*
X73750107Y-41420989D01*
X73724175Y-41529003D01*
X73719407Y-41548861D01*
X73717709Y-41578310D01*
X73707226Y-41760132D01*
X73706301Y-41776169D01*
X57211715Y-41776169D01*
X57216030Y-41701328D01*
X57216030Y-41701325D01*
X57216353Y-41695721D01*
X57189000Y-41469684D01*
X57122051Y-41252063D01*
X57115587Y-41239538D01*
X57077367Y-41165488D01*
X58157084Y-41165488D01*
X58158088Y-41177079D01*
X58160360Y-41203314D01*
X58160830Y-41214186D01*
X58160830Y-41223268D01*
X58161892Y-41228969D01*
X58161892Y-41228971D01*
X58162054Y-41229841D01*
X58163714Y-41242040D01*
X58163733Y-41242253D01*
X58166743Y-41277016D01*
X58171850Y-41287465D01*
X58172762Y-41290753D01*
X58173991Y-41293937D01*
X58176121Y-41305373D01*
X58189741Y-41327468D01*
X58194551Y-41335272D01*
X58200490Y-41346054D01*
X58215905Y-41377589D01*
X58224431Y-41385498D01*
X58226464Y-41388236D01*
X58228758Y-41390766D01*
X58234862Y-41400668D01*
X58244118Y-41407707D01*
X58244123Y-41407712D01*
X58262817Y-41421927D01*
X58272238Y-41429846D01*
X58297976Y-41453721D01*
X58308777Y-41458030D01*
X58311654Y-41459849D01*
X58314711Y-41461386D01*
X58323971Y-41468428D01*
X58344678Y-41474424D01*
X58357697Y-41478194D01*
X58369338Y-41482191D01*
X58401952Y-41495203D01*
X58408245Y-41495820D01*
X58411327Y-41495820D01*
X58414397Y-41495970D01*
X58414391Y-41496086D01*
X58420513Y-41496385D01*
X58431498Y-41499566D01*
X58469324Y-41496290D01*
X58480196Y-41495820D01*
X72408956Y-41495820D01*
X72420513Y-41496385D01*
X72431498Y-41499566D01*
X72469324Y-41496290D01*
X72480196Y-41495820D01*
X72489278Y-41495820D01*
X72494979Y-41494758D01*
X72494981Y-41494758D01*
X72495851Y-41494596D01*
X72508050Y-41492936D01*
X72531435Y-41490911D01*
X72531436Y-41490911D01*
X72543026Y-41489907D01*
X72553475Y-41484800D01*
X72556763Y-41483888D01*
X72559947Y-41482659D01*
X72571383Y-41480529D01*
X72601282Y-41462099D01*
X72612064Y-41456160D01*
X72633149Y-41445853D01*
X72643599Y-41440745D01*
X72651508Y-41432219D01*
X72654246Y-41430186D01*
X72656776Y-41427892D01*
X72666678Y-41421788D01*
X72673717Y-41412532D01*
X72673722Y-41412527D01*
X72687937Y-41393833D01*
X72695856Y-41384412D01*
X72711820Y-41367202D01*
X72719731Y-41358674D01*
X72724040Y-41347873D01*
X72725859Y-41344996D01*
X72727396Y-41341939D01*
X72734438Y-41332679D01*
X72744204Y-41298952D01*
X72748203Y-41287306D01*
X72761213Y-41254698D01*
X72761830Y-41248405D01*
X72761830Y-41245323D01*
X72761980Y-41242253D01*
X72762096Y-41242259D01*
X72762395Y-41236137D01*
X72765576Y-41225152D01*
X72762300Y-41187326D01*
X72761830Y-41176454D01*
X72761830Y-27247694D01*
X72762395Y-27236137D01*
X72765576Y-27225152D01*
X72762300Y-27187326D01*
X72761830Y-27176454D01*
X72761830Y-27167372D01*
X72760606Y-27160799D01*
X72758946Y-27148600D01*
X72756921Y-27125215D01*
X72756921Y-27125214D01*
X72755917Y-27113624D01*
X72750810Y-27103175D01*
X72749898Y-27099887D01*
X72748669Y-27096703D01*
X72746539Y-27085267D01*
X72728109Y-27055368D01*
X72722170Y-27044586D01*
X72711863Y-27023501D01*
X72706755Y-27013051D01*
X72698229Y-27005142D01*
X72696196Y-27002404D01*
X72693902Y-26999874D01*
X72687798Y-26989972D01*
X72678542Y-26982933D01*
X72678537Y-26982928D01*
X72659843Y-26968713D01*
X72650422Y-26960794D01*
X72633212Y-26944830D01*
X72633213Y-26944830D01*
X72624684Y-26936919D01*
X72613883Y-26932610D01*
X72611006Y-26930791D01*
X72607949Y-26929254D01*
X72598689Y-26922212D01*
X72564962Y-26912446D01*
X72553322Y-26908449D01*
X72520708Y-26895437D01*
X72514415Y-26894820D01*
X72511333Y-26894820D01*
X72508263Y-26894670D01*
X72508269Y-26894554D01*
X72502147Y-26894255D01*
X72491162Y-26891074D01*
X72453336Y-26894350D01*
X72442464Y-26894820D01*
X58513704Y-26894820D01*
X58502147Y-26894255D01*
X58491162Y-26891074D01*
X58453336Y-26894350D01*
X58442464Y-26894820D01*
X58433382Y-26894820D01*
X58427681Y-26895882D01*
X58427679Y-26895882D01*
X58426809Y-26896044D01*
X58414610Y-26897704D01*
X58391225Y-26899729D01*
X58391224Y-26899729D01*
X58379634Y-26900733D01*
X58369185Y-26905840D01*
X58365897Y-26906752D01*
X58362713Y-26907981D01*
X58351277Y-26910111D01*
X58331646Y-26922212D01*
X58321378Y-26928541D01*
X58310595Y-26934480D01*
X58279061Y-26949895D01*
X58271152Y-26958421D01*
X58268414Y-26960454D01*
X58265884Y-26962748D01*
X58255982Y-26968852D01*
X58248943Y-26978108D01*
X58248938Y-26978113D01*
X58234723Y-26996807D01*
X58226804Y-27006228D01*
X58220475Y-27013051D01*
X58202929Y-27031966D01*
X58198620Y-27042767D01*
X58196801Y-27045644D01*
X58195264Y-27048701D01*
X58188222Y-27057961D01*
X58184986Y-27069137D01*
X58178456Y-27091687D01*
X58174459Y-27103328D01*
X58161447Y-27135942D01*
X58160830Y-27142235D01*
X58160830Y-27145317D01*
X58160680Y-27148387D01*
X58160564Y-27148381D01*
X58160265Y-27154503D01*
X58157084Y-27165488D01*
X58158475Y-27181551D01*
X58160360Y-27203314D01*
X58160830Y-27214186D01*
X58160830Y-41142946D01*
X58160265Y-41154503D01*
X58157084Y-41165488D01*
X57077367Y-41165488D01*
X57020194Y-41054718D01*
X57020193Y-41054716D01*
X57017623Y-41049737D01*
X56879016Y-40869102D01*
X56874871Y-40865331D01*
X56874868Y-40865327D01*
X56714765Y-40719645D01*
X56710612Y-40715866D01*
X56705854Y-40712881D01*
X56518375Y-40595275D01*
X56518371Y-40595273D01*
X56517735Y-40594874D01*
X56517736Y-40594874D01*
X56517732Y-40594872D01*
X56515362Y-40593919D01*
X56515357Y-40593917D01*
X56311690Y-40512044D01*
X56306476Y-40509948D01*
X56083521Y-40463776D01*
X56078910Y-40463510D01*
X56078909Y-40463510D01*
X56027573Y-40460550D01*
X56027569Y-40460550D01*
X56025750Y-40460445D01*
X55878554Y-40460445D01*
X55875767Y-40460694D01*
X55875761Y-40460694D01*
X55804909Y-40467018D01*
X55709541Y-40475529D01*
X55587897Y-40508807D01*
X55495341Y-40534127D01*
X55495337Y-40534128D01*
X55489925Y-40535609D01*
X55284419Y-40633631D01*
X55099519Y-40766495D01*
X54941069Y-40930002D01*
X54937942Y-40934656D01*
X54817205Y-41114331D01*
X54817202Y-41114336D01*
X54814079Y-41118984D01*
X54722561Y-41327468D01*
X54699883Y-41421927D01*
X54670718Y-41543407D01*
X54669408Y-41548863D01*
X54669085Y-41554464D01*
X54669085Y-41554466D01*
X54657227Y-41760132D01*
X54656302Y-41776171D01*
X53294691Y-41776171D01*
X53295003Y-41774671D01*
X53296293Y-41771526D01*
X53297277Y-41768247D01*
X53302603Y-41757905D01*
X53306365Y-41722993D01*
X53308280Y-41710836D01*
X53313619Y-41685167D01*
X53315430Y-41676460D01*
X53314945Y-41670156D01*
X53314411Y-41667128D01*
X53314025Y-41664071D01*
X53314139Y-41664057D01*
X53313372Y-41657975D01*
X53314597Y-41646605D01*
X53304800Y-41609913D01*
X53302451Y-41599297D01*
X53298751Y-41578310D01*
X51979421Y-34096024D01*
X50883747Y-27882146D01*
X50882297Y-27870667D01*
X50883522Y-27859296D01*
X50873728Y-27822615D01*
X50871378Y-27811994D01*
X50870809Y-27808765D01*
X50870806Y-27808753D01*
X50869799Y-27803044D01*
X50867452Y-27796784D01*
X50863703Y-27785074D01*
X50854643Y-27751140D01*
X50847793Y-27741730D01*
X50846321Y-27738644D01*
X50844566Y-27735735D01*
X50840483Y-27724842D01*
X50817147Y-27698605D01*
X50809433Y-27689029D01*
X50788763Y-27660631D01*
X50778994Y-27654323D01*
X50776525Y-27651988D01*
X50773818Y-27649888D01*
X50766086Y-27641195D01*
X50734883Y-27625124D01*
X50724230Y-27618961D01*
X50704494Y-27606218D01*
X50704491Y-27606217D01*
X50694719Y-27599907D01*
X50683335Y-27597539D01*
X50680197Y-27596252D01*
X50676908Y-27595265D01*
X50666564Y-27589938D01*
X50654998Y-27588692D01*
X50654995Y-27588691D01*
X50631660Y-27586177D01*
X50619501Y-27584262D01*
X50593827Y-27578922D01*
X50593825Y-27578922D01*
X50585119Y-27577111D01*
X50578815Y-27577596D01*
X50575772Y-27578133D01*
X50572731Y-27578517D01*
X50572716Y-27578400D01*
X50566633Y-27579170D01*
X50555264Y-27577945D01*
X50544025Y-27580946D01*
X50544022Y-27580946D01*
X50518580Y-27587739D01*
X50507960Y-27590089D01*
X41563786Y-29167189D01*
X36790791Y-30008797D01*
X36779324Y-30010245D01*
X36767955Y-30009020D01*
X36731256Y-30018819D01*
X36720657Y-30021163D01*
X36711703Y-30022742D01*
X36706276Y-30024776D01*
X36706270Y-30024778D01*
X36705439Y-30025090D01*
X36693718Y-30028842D01*
X36690655Y-30029660D01*
X36671037Y-30034898D01*
X36671036Y-30034899D01*
X36659799Y-30037899D01*
X36650395Y-30044744D01*
X36647318Y-30046212D01*
X36644398Y-30047973D01*
X36633501Y-30052058D01*
X36624808Y-30059790D01*
X36624806Y-30059791D01*
X36607268Y-30075390D01*
X36597682Y-30083112D01*
X36569290Y-30103778D01*
X36562981Y-30113549D01*
X36560644Y-30116021D01*
X36558548Y-30118723D01*
X36549854Y-30126455D01*
X36533777Y-30157671D01*
X36527614Y-30168323D01*
X36508567Y-30197823D01*
X36506198Y-30209211D01*
X36504901Y-30212374D01*
X36503922Y-30215639D01*
X36498597Y-30225977D01*
X36497351Y-30237541D01*
X36494835Y-30260887D01*
X36492920Y-30273043D01*
X36487581Y-30298712D01*
X36487581Y-30298717D01*
X36485770Y-30307422D01*
X34613515Y-30307422D01*
X34410384Y-29131808D01*
X34408860Y-29119280D01*
X34407402Y-29098742D01*
X34407401Y-29098740D01*
X34406621Y-29087749D01*
X34402128Y-29077687D01*
X34400796Y-29072370D01*
X34398092Y-29058155D01*
X34390460Y-29000019D01*
X34390008Y-28971132D01*
X34397449Y-28896420D01*
X34403589Y-28868190D01*
X34427851Y-28797139D01*
X34440260Y-28771049D01*
X34444090Y-28764924D01*
X34480070Y-28707388D01*
X34498097Y-28684810D01*
X34499398Y-28683518D01*
X34505802Y-28677155D01*
X34511426Y-28671568D01*
X34557138Y-28642553D01*
X34629308Y-28616287D01*
X34629313Y-28616285D01*
X34634478Y-28614405D01*
X34639235Y-28611659D01*
X34795530Y-28521428D01*
X34795533Y-28521426D01*
X34800298Y-28518675D01*
X34804512Y-28515139D01*
X34804518Y-28515135D01*
X34942756Y-28399143D01*
X34946974Y-28395604D01*
X34950512Y-28391388D01*
X35066510Y-28253151D01*
X35066511Y-28253149D01*
X35070050Y-28248932D01*
X35165787Y-28083117D01*
X35169875Y-28071887D01*
X35229396Y-27908358D01*
X35229397Y-27908356D01*
X35231275Y-27903195D01*
X35264524Y-27714636D01*
X35264524Y-27523167D01*
X35237084Y-27367550D01*
X35236998Y-27357825D01*
X35233916Y-27349584D01*
X35233880Y-27349379D01*
X35233880Y-27349377D01*
X35232727Y-27342840D01*
X35232727Y-27342839D01*
X35232171Y-27339688D01*
X35231716Y-27334488D01*
X35230314Y-27331481D01*
X35228667Y-27324572D01*
X35206407Y-27123428D01*
X35205724Y-27105024D01*
X35206201Y-27091799D01*
X35606299Y-27091799D01*
X35633652Y-27317836D01*
X35700601Y-27535457D01*
X35703171Y-27540437D01*
X35703173Y-27540441D01*
X35781592Y-27692375D01*
X35805029Y-27737783D01*
X35943636Y-27918418D01*
X35947781Y-27922189D01*
X35947784Y-27922193D01*
X36093708Y-28054973D01*
X36112040Y-28071654D01*
X36116796Y-28074637D01*
X36116798Y-28074639D01*
X36300161Y-28189663D01*
X36300165Y-28189665D01*
X36304917Y-28192646D01*
X36516173Y-28277570D01*
X36739128Y-28323742D01*
X36743739Y-28324008D01*
X36743740Y-28324008D01*
X36795076Y-28326968D01*
X36795080Y-28326968D01*
X36796899Y-28327073D01*
X36944095Y-28327073D01*
X36946882Y-28326824D01*
X36946888Y-28326824D01*
X37017740Y-28320500D01*
X37113108Y-28311989D01*
X37246585Y-28275474D01*
X37327308Y-28253391D01*
X37327312Y-28253390D01*
X37332724Y-28251909D01*
X37538230Y-28153887D01*
X37723130Y-28021023D01*
X37829549Y-27911208D01*
X37877677Y-27861544D01*
X37877679Y-27861541D01*
X37881580Y-27857516D01*
X37933103Y-27780842D01*
X38005444Y-27673187D01*
X38005447Y-27673182D01*
X38008570Y-27668534D01*
X38100088Y-27460050D01*
X38153241Y-27238655D01*
X38155568Y-27198288D01*
X38166024Y-27016954D01*
X38166024Y-27016951D01*
X38166347Y-27011347D01*
X38138994Y-26785310D01*
X38072045Y-26567689D01*
X38047336Y-26519815D01*
X37970188Y-26370344D01*
X37970187Y-26370343D01*
X37967617Y-26365363D01*
X37829010Y-26184728D01*
X37824865Y-26180957D01*
X37824862Y-26180953D01*
X37664759Y-26035271D01*
X37660606Y-26031492D01*
X37591308Y-25988021D01*
X37472485Y-25913483D01*
X37472481Y-25913481D01*
X37467729Y-25910500D01*
X37256473Y-25825576D01*
X37033518Y-25779404D01*
X37028907Y-25779138D01*
X37028906Y-25779138D01*
X36977570Y-25776178D01*
X36977566Y-25776178D01*
X36975747Y-25776073D01*
X36828551Y-25776073D01*
X36825764Y-25776322D01*
X36825758Y-25776322D01*
X36754906Y-25782646D01*
X36659538Y-25791157D01*
X36537887Y-25824437D01*
X36445338Y-25849755D01*
X36445334Y-25849756D01*
X36439922Y-25851237D01*
X36234416Y-25949259D01*
X36049516Y-26082123D01*
X36035947Y-26096125D01*
X35947260Y-26187643D01*
X35891066Y-26245630D01*
X35887939Y-26250284D01*
X35767202Y-26429959D01*
X35767199Y-26429964D01*
X35764076Y-26434612D01*
X35672558Y-26643096D01*
X35643745Y-26763109D01*
X35622485Y-26851664D01*
X35619405Y-26864491D01*
X35617213Y-26902509D01*
X35606676Y-27085267D01*
X35606299Y-27091799D01*
X35206201Y-27091799D01*
X35213929Y-26877720D01*
X35215937Y-26859411D01*
X35257190Y-26635741D01*
X35261845Y-26617922D01*
X35335267Y-26402645D01*
X35342471Y-26385694D01*
X35352927Y-26365363D01*
X35445820Y-26184728D01*
X35446488Y-26183429D01*
X35456085Y-26167710D01*
X35588482Y-25982762D01*
X35600268Y-25968610D01*
X35615560Y-25952764D01*
X35758214Y-25804938D01*
X35771928Y-25792665D01*
X35952046Y-25653768D01*
X35967413Y-25643617D01*
X36165850Y-25532464D01*
X36182533Y-25524662D01*
X36258051Y-25495866D01*
X36395057Y-25443624D01*
X36412692Y-25438339D01*
X36634770Y-25389146D01*
X36652982Y-25386490D01*
X36879854Y-25370198D01*
X36898263Y-25370225D01*
X37125081Y-25387180D01*
X37143290Y-25389889D01*
X37271926Y-25418779D01*
X37365219Y-25439731D01*
X37382845Y-25445069D01*
X37442126Y-25467872D01*
X37595135Y-25526729D01*
X37611782Y-25534574D01*
X37809906Y-25646314D01*
X37825240Y-25656508D01*
X38004945Y-25795928D01*
X38018632Y-25808250D01*
X38176096Y-25972379D01*
X38187842Y-25986566D01*
X38319694Y-26171896D01*
X38329245Y-26187643D01*
X38432671Y-26390213D01*
X38439825Y-26407185D01*
X38504549Y-26598790D01*
X38506007Y-26605910D01*
X38506008Y-26609340D01*
X38507545Y-26613562D01*
X38508307Y-26616404D01*
X38509309Y-26620142D01*
X38510394Y-26624192D01*
X38511051Y-26632585D01*
X38514927Y-26641100D01*
X38515466Y-26643111D01*
X38515466Y-26643112D01*
X38538136Y-26727682D01*
X38555969Y-26794209D01*
X38558294Y-26799193D01*
X38558294Y-26799194D01*
X38626221Y-26944830D01*
X38636902Y-26967731D01*
X38746734Y-27124564D01*
X38882129Y-27259944D01*
X39038974Y-27369759D01*
X39212504Y-27450672D01*
X39247504Y-27460050D01*
X39392139Y-27498804D01*
X39392142Y-27498804D01*
X39397447Y-27500226D01*
X39402914Y-27500704D01*
X39402918Y-27500705D01*
X39582711Y-27516435D01*
X39588186Y-27516914D01*
X39593662Y-27516435D01*
X39762696Y-27501650D01*
X39762697Y-27501650D01*
X39773782Y-27500680D01*
X39779004Y-27500680D01*
X39782135Y-27499541D01*
X39785464Y-27499469D01*
X39794273Y-27496047D01*
X39794276Y-27496046D01*
X39798490Y-27494409D01*
X39820587Y-27488073D01*
X41899121Y-27092910D01*
X41901147Y-27092542D01*
X43653963Y-26788893D01*
X44020972Y-26725314D01*
X44022983Y-26724983D01*
X46148595Y-26392433D01*
X46150631Y-26392132D01*
X48281252Y-26094382D01*
X48283294Y-26094113D01*
X50418602Y-25831205D01*
X50420647Y-25830970D01*
X50904532Y-25779404D01*
X52560003Y-25602986D01*
X52561992Y-25602791D01*
X54704766Y-25409799D01*
X54706741Y-25409637D01*
X56852405Y-25251685D01*
X56854446Y-25251551D01*
X59002373Y-25128683D01*
X59004311Y-25128588D01*
X60126482Y-25082779D01*
X61154005Y-25040834D01*
X61156063Y-25040767D01*
X63306783Y-24988155D01*
X63308841Y-24988121D01*
X63785009Y-24984256D01*
X65460247Y-24970660D01*
X65462206Y-24970660D01*
X66630492Y-24980270D01*
G37*
G04 #@! TD.AperFunction*
M02*
