G04 #@! TF.GenerationSoftware,KiCad,Pcbnew,(6.0.11-0)*
G04 #@! TF.CreationDate,2023-02-07T20:01:24+09:00*
G04 #@! TF.ProjectId,pangaea-top-thumb-k2_leftcut4keys,70616e67-6165-4612-9d74-6f702d746875,1*
G04 #@! TF.SameCoordinates,Original*
G04 #@! TF.FileFunction,Profile,NP*
%FSLAX46Y46*%
G04 Gerber Fmt 4.6, Leading zero omitted, Abs format (unit mm)*
G04 Created by KiCad (PCBNEW (6.0.11-0)) date 2023-02-07 20:01:24*
%MOMM*%
%LPD*%
G01*
G04 APERTURE LIST*
G04 #@! TA.AperFunction,Profile*
%ADD10C,0.150000*%
G04 #@! TD*
G04 APERTURE END LIST*
D10*
X117517640Y-35366408D02*
G75*
G03*
X96546509Y-28388438I-51892440J-120952492D01*
G01*
X96457934Y-36603690D02*
G75*
G03*
X95485804Y-37164913I-205434J-766710D01*
G01*
X97498225Y-30712143D02*
X98657337Y-31022725D01*
X34375707Y-28385586D02*
G75*
G03*
X34936978Y-27413465I-205407J766686D01*
G01*
X37160014Y-46809992D02*
G75*
G03*
X37920000Y-47110000I556486J297092D01*
G01*
X34375708Y-28385599D02*
G75*
G03*
X34110628Y-29161886I467092J-592901D01*
G01*
X91196195Y-27203011D02*
G75*
G03*
X39726026Y-27200178I-25742215J-129546529D01*
G01*
X92233243Y-46930168D02*
G75*
G03*
X95227009Y-47689068I1803057J828368D01*
G01*
X91196192Y-27203026D02*
G75*
G03*
X92115718Y-26559154I137808J781726D01*
G01*
X95985220Y-27416292D02*
G75*
G03*
X96546509Y-28388438I766580J-205508D01*
G01*
X117923952Y-36314407D02*
X111906326Y-52835524D01*
X95985247Y-27416299D02*
G75*
G03*
X92115717Y-26559154I-1948987J364369D01*
G01*
X96457946Y-36603647D02*
X96612493Y-36645056D01*
X97435385Y-34771740D02*
G75*
G03*
X98407533Y-34210440I205415J766740D01*
G01*
X97498219Y-30712164D02*
G75*
G03*
X96526084Y-31273409I-205419J-766736D01*
G01*
X117924022Y-36314429D02*
G75*
G03*
X117517642Y-35366413I-751822J238829D01*
G01*
X38806534Y-26556313D02*
G75*
G03*
X34936978Y-27413465I-1919934J-495587D01*
G01*
X98407533Y-34210440D02*
X99218602Y-31994867D01*
X92233278Y-46930148D02*
G75*
G03*
X37920000Y-47110000I-26791678J-110303752D01*
G01*
X38806441Y-26556332D02*
G75*
G03*
X39726026Y-27200178I781759J137932D01*
G01*
X37160000Y-46810000D02*
X34110628Y-29161886D01*
X96526084Y-31273409D02*
X96120704Y-33597685D01*
X96120669Y-33597678D02*
G75*
G03*
X96681971Y-34569829I766731J-205422D01*
G01*
X99218569Y-31994860D02*
G75*
G03*
X98657337Y-31022725I-766669J205460D01*
G01*
X94763472Y-41269046D02*
G75*
G03*
X95758279Y-41502300I507128J-75154D01*
G01*
X110906695Y-53213711D02*
G75*
G03*
X111906326Y-52835524I313105J682611D01*
G01*
X96681971Y-34569829D02*
X97435392Y-34771705D01*
X94763504Y-41269051D02*
X95485804Y-37164913D01*
X95758280Y-41502300D02*
X97173760Y-37617200D01*
X110906671Y-53213760D02*
G75*
G03*
X95227009Y-47689068I-45551771J-104268140D01*
G01*
X97173769Y-37617200D02*
G75*
G03*
X96612493Y-36645056I-766769J205400D01*
G01*
X72461330Y-27195320D02*
X58461330Y-27195320D01*
X72461330Y-41195320D02*
X58461330Y-41195320D01*
X72461330Y-27195320D02*
X72461330Y-41195320D01*
X58461330Y-27195320D02*
X58461330Y-41195320D01*
X94128238Y-30316377D02*
X91697163Y-44103686D01*
X94128238Y-30316377D02*
X80340929Y-27885302D01*
X80340929Y-27885302D02*
X77909854Y-41672611D01*
X91697163Y-44103686D02*
X77909854Y-41672611D01*
X110140378Y-50306985D02*
X96984682Y-45518703D01*
X114928660Y-37151289D02*
X101772964Y-32363007D01*
X101772964Y-32363007D02*
X96984682Y-45518703D01*
X114928660Y-37151289D02*
X110140378Y-50306985D01*
X53009792Y-41670058D02*
X39222483Y-44101133D01*
X50578717Y-27882749D02*
X53009792Y-41670058D01*
X36791408Y-30313824D02*
X39222483Y-44101133D01*
X50578717Y-27882749D02*
X36791408Y-30313824D01*
M02*
