M48
; DRILL file {KiCad (6.0.11-0)} date Tuesday, 07 February 2023 at 20:00:42
; FORMAT={-:-/ absolute / inch / decimal}
; #@! TF.CreationDate,2023-02-07T20:00:42+09:00
; #@! TF.GenerationSoftware,Kicad,Pcbnew,(6.0.11-0)
; #@! TF.FileFunction,NonPlated,1,2,NPTH
FMAT,2
INCH
; #@! TA.AperFunction,NonPlated,NPTH,ComponentDrill
T1C0.0197
; #@! TA.AperFunction,NonPlated,NPTH,ComponentDrill
T2C0.0661
; #@! TA.AperFunction,NonPlated,NPTH,ComponentDrill
T3C0.0669
; #@! TA.AperFunction,NonPlated,NPTH,ComponentDrill
T4C0.1654
; #@! TA.AperFunction,NonPlated,NPTH,ComponentDrill
T5C0.1929
%
G90
G05
T2
X1.6254Y-4.9727
X2.0519Y-4.8974
X2.4316Y-4.8643
X2.8647Y-4.8643
X3.2443Y-4.8975
X3.6708Y-4.9728
X4.039Y-5.0713
X4.4459Y-5.2195
T3
X1.6417Y-4.9698
X2.0356Y-4.9003
X2.4482Y-4.8643
X2.8482Y-4.8643
X3.2606Y-4.9004
X3.6545Y-4.9699
X4.0545Y-5.077
X4.4304Y-5.2138
T5
X1.8387Y-4.935
X2.6482Y-4.8643
X3.4575Y-4.9351
X4.2425Y-5.1454
T1
G00X2.0088Y-4.6872
M15
G01X1.9817Y-4.692
M16
G05
G00X2.8588Y-4.6497
M15
G01X2.8312Y-4.6497
M16
G05
G00X3.7022Y-4.7604
M15
G01X3.6751Y-4.7556
M16
G05
G00X4.5138Y-5.0158
M15
G01X4.4879Y-5.0064
M16
G05
T4
G00X1.522Y-4.6157
M15
G01X1.522Y-4.5449
M16
G05
G00X1.5232Y-5.3685
M15
G01X1.5232Y-5.2976
M16
G05
G00X2.2732Y-5.1966
M15
G01X2.2732Y-5.1258
M16
G05
G00X3.0232Y-5.1966
M15
G01X3.0232Y-5.1258
M16
G05
G00X3.7732Y-4.6185
M15
G01X3.7732Y-4.5476
M16
G05
G00X3.7732Y-5.3685
M15
G01X3.7732Y-5.2976
M16
G05
T0
M30
