G04 #@! TF.GenerationSoftware,KiCad,Pcbnew,(6.0.11-0)*
G04 #@! TF.CreationDate,2023-02-07T20:00:52+09:00*
G04 #@! TF.ProjectId,pangaea-pcb-thumb-k2_leftcut4keys,70616e67-6165-4612-9d70-63622d746875,1*
G04 #@! TF.SameCoordinates,Original*
G04 #@! TF.FileFunction,Profile,NP*
%FSLAX46Y46*%
G04 Gerber Fmt 4.6, Leading zero omitted, Abs format (unit mm)*
G04 Created by KiCad (PCBNEW (6.0.11-0)) date 2023-02-07 20:00:52*
%MOMM*%
%LPD*%
G01*
G04 APERTURE LIST*
G04 #@! TA.AperFunction,Profile*
%ADD10C,0.150000*%
G04 #@! TD*
G04 #@! TA.AperFunction,Profile*
%ADD11C,0.050000*%
G04 #@! TD*
G04 APERTURE END LIST*
D10*
X99300059Y-120070436D02*
G75*
G03*
X98327918Y-120631710I-205459J-766664D01*
G01*
X99237257Y-124129973D02*
G75*
G03*
X100209375Y-123568736I205443J766673D01*
G01*
X98054283Y-129472122D02*
X98975596Y-126975501D01*
X38889618Y-135952081D02*
G75*
G03*
X39906931Y-136426500I745882J271481D01*
G01*
X96837216Y-129146004D02*
X97287640Y-126523216D01*
X98975651Y-126975514D02*
G75*
G03*
X98414334Y-126003354I-766751J205414D01*
G01*
X113708165Y-142193826D02*
X119725791Y-125672713D01*
X97922477Y-122955983D02*
G75*
G03*
X98483816Y-123928131I766723J-205417D01*
G01*
X36260008Y-117770019D02*
G75*
G03*
X35850000Y-118700000I295792J-685781D01*
G01*
X99300057Y-120070443D02*
X100459178Y-120381027D01*
X98483816Y-123928131D02*
X99237230Y-124130004D01*
X119725836Y-125672727D02*
G75*
G03*
X119319482Y-124724719I-751836J238827D01*
G01*
X100209375Y-123568736D02*
X101020438Y-121353164D01*
X119319481Y-124724725D02*
G75*
G03*
X36260000Y-117770000I-51983631J-121372255D01*
G01*
X96837323Y-129146033D02*
G75*
G03*
X98054292Y-129472114I608477J-163067D01*
G01*
X98259776Y-125961946D02*
X98414334Y-126003354D01*
X98327918Y-120631710D02*
X97922543Y-122955986D01*
X112708514Y-142572064D02*
G75*
G03*
X39906931Y-136426500I-45440504J-104013456D01*
G01*
X98259756Y-125962032D02*
G75*
G03*
X97287640Y-126523216I-205456J-766668D01*
G01*
X112708516Y-142572060D02*
G75*
G03*
X113708165Y-142193826I313084J682660D01*
G01*
X101020379Y-121353156D02*
G75*
G03*
X100459178Y-120381027I-766679J205456D01*
G01*
X38889574Y-135952097D02*
X35850000Y-118700000D01*
D11*
X85216666Y-154600000D02*
G75*
G03*
X85216666Y-154600000I-1666666J0D01*
G01*
X81050000Y-154600000D02*
X86050000Y-154600000D01*
X83550000Y-152100000D02*
X83550000Y-157100000D01*
M02*
