G04 #@! TF.GenerationSoftware,KiCad,Pcbnew,(6.0.11-0)*
G04 #@! TF.CreationDate,2023-02-07T20:00:49+09:00*
G04 #@! TF.ProjectId,pangaea-pcb-thumb-k2_leftcut4keys,70616e67-6165-4612-9d70-63622d746875,1*
G04 #@! TF.SameCoordinates,Original*
G04 #@! TF.FileFunction,Copper,L2,Bot*
G04 #@! TF.FilePolarity,Positive*
%FSLAX46Y46*%
G04 Gerber Fmt 4.6, Leading zero omitted, Abs format (unit mm)*
G04 Created by KiCad (PCBNEW (6.0.11-0)) date 2023-02-07 20:00:49*
%MOMM*%
%LPD*%
G01*
G04 APERTURE LIST*
G04 Aperture macros list*
%AMRoundRect*
0 Rectangle with rounded corners*
0 $1 Rounding radius*
0 $2 $3 $4 $5 $6 $7 $8 $9 X,Y pos of 4 corners*
0 Add a 4 corners polygon primitive as box body*
4,1,4,$2,$3,$4,$5,$6,$7,$8,$9,$2,$3,0*
0 Add four circle primitives for the rounded corners*
1,1,$1+$1,$2,$3*
1,1,$1+$1,$4,$5*
1,1,$1+$1,$6,$7*
1,1,$1+$1,$8,$9*
0 Add four rect primitives between the rounded corners*
20,1,$1+$1,$2,$3,$4,$5,0*
20,1,$1+$1,$4,$5,$6,$7,0*
20,1,$1+$1,$6,$7,$8,$9,0*
20,1,$1+$1,$8,$9,$2,$3,0*%
%AMRotRect*
0 Rectangle, with rotation*
0 The origin of the aperture is its center*
0 $1 length*
0 $2 width*
0 $3 Rotation angle, in degrees counterclockwise*
0 Add horizontal line*
21,1,$1,$2,0,0,$3*%
G04 Aperture macros list end*
G04 #@! TA.AperFunction,SMDPad,CuDef*
%ADD10RotRect,2.200000X2.000000X350.000000*%
G04 #@! TD*
G04 #@! TA.AperFunction,ComponentPad*
%ADD11C,3.800000*%
G04 #@! TD*
G04 #@! TA.AperFunction,ComponentPad*
%ADD12C,1.430000*%
G04 #@! TD*
G04 #@! TA.AperFunction,SMDPad,CuDef*
%ADD13RotRect,1.200000X1.200000X10.000000*%
G04 #@! TD*
G04 #@! TA.AperFunction,ComponentPad*
%ADD14RotRect,1.200000X1.200000X10.000000*%
G04 #@! TD*
G04 #@! TA.AperFunction,ComponentPad*
%ADD15C,1.200000*%
G04 #@! TD*
G04 #@! TA.AperFunction,SMDPad,CuDef*
%ADD16R,1.200000X1.200000*%
G04 #@! TD*
G04 #@! TA.AperFunction,ComponentPad*
%ADD17R,1.200000X1.200000*%
G04 #@! TD*
G04 #@! TA.AperFunction,SMDPad,CuDef*
%ADD18RotRect,2.200000X2.000000X340.000000*%
G04 #@! TD*
G04 #@! TA.AperFunction,SMDPad,CuDef*
%ADD19RotRect,2.200000X2.000000X10.000000*%
G04 #@! TD*
G04 #@! TA.AperFunction,SMDPad,CuDef*
%ADD20RotRect,1.200000X1.200000X350.000000*%
G04 #@! TD*
G04 #@! TA.AperFunction,ComponentPad*
%ADD21RotRect,1.200000X1.200000X350.000000*%
G04 #@! TD*
G04 #@! TA.AperFunction,ComponentPad*
%ADD22RotRect,1.200000X1.200000X340.000000*%
G04 #@! TD*
G04 #@! TA.AperFunction,SMDPad,CuDef*
%ADD23RotRect,1.200000X1.200000X340.000000*%
G04 #@! TD*
G04 #@! TA.AperFunction,SMDPad,CuDef*
%ADD24R,2.200000X2.000000*%
G04 #@! TD*
G04 #@! TA.AperFunction,SMDPad,CuDef*
%ADD25RoundRect,0.150000X0.092778X0.660600X-0.206080X0.634453X-0.092778X-0.660600X0.206080X-0.634453X0*%
G04 #@! TD*
G04 #@! TA.AperFunction,ComponentPad*
%ADD26RoundRect,0.249600X0.274949X0.877703X-0.423184X0.816625X-0.274949X-0.877703X0.423184X-0.816625X0*%
G04 #@! TD*
G04 #@! TA.AperFunction,SMDPad,CuDef*
%ADD27RoundRect,0.150000X0.206080X0.634453X-0.092778X0.660600X-0.206080X-0.634453X0.092778X-0.660600X0*%
G04 #@! TD*
G04 #@! TA.AperFunction,ComponentPad*
%ADD28RoundRect,0.249600X0.423184X0.816625X-0.274949X0.877703X-0.423184X-0.816625X0.274949X-0.877703X0*%
G04 #@! TD*
G04 #@! TA.AperFunction,ViaPad*
%ADD29C,0.800000*%
G04 #@! TD*
G04 #@! TA.AperFunction,Conductor*
%ADD30C,0.200000*%
G04 #@! TD*
G04 #@! TA.AperFunction,Conductor*
%ADD31C,0.250000*%
G04 #@! TD*
G04 APERTURE END LIST*
D10*
X81368296Y-121635842D03*
D11*
X84509833Y-122189780D03*
X82254347Y-128128339D03*
D10*
X79102962Y-127572665D03*
X94316421Y-121339762D03*
D11*
X86796360Y-131163157D03*
X91204428Y-120791034D03*
D10*
X89949481Y-131708983D03*
D12*
X116915481Y-126420537D03*
D13*
X43556398Y-117442031D03*
D14*
X42128426Y-117693821D03*
D13*
X46953984Y-116842945D03*
D15*
X48381956Y-116591155D03*
D16*
X65538170Y-115219246D03*
D17*
X64088170Y-115219246D03*
D16*
X68988170Y-115219246D03*
D15*
X70438170Y-115219246D03*
D12*
X112029756Y-139847195D03*
D18*
X98787557Y-131365596D03*
D11*
X101794573Y-132460060D03*
X105047013Y-127003382D03*
D18*
X102049394Y-125912338D03*
X114852221Y-127869174D03*
D11*
X105740592Y-136237484D03*
D18*
X108751029Y-137322552D03*
D11*
X111882793Y-126788391D03*
D19*
X39367715Y-124064373D03*
D11*
X42509252Y-123510435D03*
D19*
X39269511Y-130417951D03*
D11*
X42420895Y-129862277D03*
X48321715Y-119906357D03*
D19*
X51433707Y-119357629D03*
X50876609Y-130595090D03*
D11*
X47726960Y-131160613D03*
D20*
X87569341Y-116845495D03*
D21*
X86141369Y-116593705D03*
D15*
X92394899Y-117696371D03*
D20*
X90966927Y-117444581D03*
D22*
X107625509Y-121775635D03*
D23*
X108988063Y-122271564D03*
D15*
X113592557Y-123947463D03*
D23*
X112230003Y-123451534D03*
D24*
X60263171Y-121013619D03*
X59063171Y-127253619D03*
D11*
X62263171Y-127253619D03*
X63453171Y-121013619D03*
D24*
X70463171Y-129443619D03*
D11*
X69803171Y-118473619D03*
D24*
X72963171Y-118473619D03*
D11*
X67263171Y-129453619D03*
D12*
X103488832Y-121531455D03*
D25*
X58198713Y-120453537D03*
X57202519Y-120540693D03*
X56206324Y-120627848D03*
X55210129Y-120715004D03*
D26*
X59206153Y-117052792D03*
X53627462Y-117540864D03*
D27*
X79316202Y-120715003D03*
X78320007Y-120627847D03*
X77323812Y-120540692D03*
X76327618Y-120453536D03*
D28*
X80898869Y-117540863D03*
X75320178Y-117052791D03*
D29*
X76534015Y-127215565D03*
X53759488Y-119665808D03*
X77185212Y-122124942D03*
X57439431Y-123231966D03*
X78363713Y-115393580D03*
D30*
X113592557Y-123947463D02*
X113592557Y-125078627D01*
X113592557Y-125078627D02*
X111882793Y-126788391D01*
X113592557Y-123947463D02*
X113592557Y-126609510D01*
X113592557Y-126609510D02*
X114852221Y-127869174D01*
D31*
X81368299Y-121635848D02*
X79842274Y-119456465D01*
X84509835Y-122189786D02*
X83632912Y-127163066D01*
X70438162Y-129418619D02*
X70463165Y-129443618D01*
X78947537Y-119362842D02*
X79669572Y-119426013D01*
X86141370Y-116593709D02*
X87569339Y-116845495D01*
X55140407Y-119918049D02*
X55555381Y-119423497D01*
X49002201Y-120108762D02*
X51269063Y-119709056D01*
X70463171Y-129443619D02*
X67273169Y-129443617D01*
X54651250Y-122074741D02*
X55816207Y-121972822D01*
X78363713Y-115393580D02*
X76644067Y-116836533D01*
X107593228Y-121820470D02*
X108955784Y-122316407D01*
X70438163Y-115219247D02*
X68988167Y-115219250D01*
X111882792Y-126788392D02*
X108824675Y-125675331D01*
X56276047Y-121424805D02*
X56206328Y-120627848D01*
X55816207Y-121972822D02*
X56276047Y-121424805D01*
X92394903Y-117696370D02*
X90614614Y-127792879D01*
X78389735Y-119830900D02*
X78947537Y-119362842D01*
X63453164Y-126063621D02*
X62263172Y-127253618D01*
X50302396Y-127482509D02*
X50197649Y-126888463D01*
X84509835Y-122189786D02*
X81368295Y-121635850D01*
X43386178Y-128483712D02*
X42420898Y-129862275D01*
X79316205Y-120715009D02*
X78922846Y-125211101D01*
X92394900Y-117696374D02*
X90966925Y-117444586D01*
X112244987Y-127679112D02*
X111850528Y-126833186D01*
X107354031Y-122521513D02*
X107625511Y-121775637D01*
X48381955Y-116591152D02*
X50197649Y-126888463D01*
X67273169Y-129443617D02*
X67263170Y-129453619D01*
X59463789Y-120342855D02*
X60263171Y-121013621D01*
X50876608Y-130595089D02*
X47735073Y-131149026D01*
X59063174Y-127253619D02*
X62263172Y-127253618D01*
X112197725Y-123496370D02*
X113560279Y-123992296D01*
X89929204Y-131680027D02*
X89949482Y-131708987D01*
X90474462Y-128587723D02*
X90614614Y-127792879D01*
X108824675Y-125675331D02*
X107354031Y-122521513D01*
X105708327Y-136282277D02*
X108705948Y-137373318D01*
X53916294Y-121458037D02*
X54651250Y-122074741D01*
X78320012Y-120627855D02*
X78389735Y-119830900D01*
X70438165Y-115219251D02*
X70438165Y-124820533D01*
X78922846Y-125211101D02*
X76534015Y-127215565D01*
X89949480Y-131708984D02*
X86807944Y-131155046D01*
X110208388Y-133274628D02*
X112244987Y-127679112D01*
X53759488Y-119665808D02*
X53916294Y-121458037D01*
X64054536Y-115219247D02*
X64088168Y-115219248D01*
X70438166Y-118791123D02*
X72739992Y-118791121D01*
X57437858Y-123230646D02*
X57202519Y-120540696D01*
X101762312Y-132504852D02*
X103287543Y-131793624D01*
X91808019Y-121242477D02*
X94074872Y-121642189D01*
X98755292Y-131410385D02*
X101762312Y-132504852D01*
X64088166Y-115219250D02*
X65538165Y-115219247D01*
X39269515Y-130417951D02*
X42420898Y-129862275D01*
X42128424Y-117693815D02*
X43556396Y-117442027D01*
X76644067Y-116836533D02*
X76327622Y-120453537D01*
X50847651Y-130574809D02*
X50876611Y-130595086D01*
X86796361Y-131163158D02*
X90474462Y-128587723D01*
X70438164Y-126278626D02*
X70438165Y-124820533D01*
X55210131Y-120715008D02*
X55140407Y-119918049D01*
X47735073Y-131149026D02*
X47726960Y-131160611D01*
X47726959Y-131160613D02*
X50302396Y-127482509D01*
X83632912Y-127163066D02*
X82254347Y-128128342D01*
X79842274Y-119456465D02*
X79669572Y-119426013D01*
X39367722Y-124064368D02*
X42509256Y-123510434D01*
X108705948Y-137373318D02*
X108718763Y-137367347D01*
X57439431Y-123231966D02*
X57437858Y-123230646D01*
X109822846Y-134333898D02*
X110208388Y-133274628D01*
X78922846Y-125211101D02*
X78445627Y-125611534D01*
X111972762Y-127095319D02*
X114135767Y-127882592D01*
X58198715Y-120453537D02*
X59463789Y-120342855D01*
X102017128Y-125957132D02*
X105014743Y-127048175D01*
X60262070Y-119011717D02*
X64054536Y-115219247D01*
X42509256Y-123510434D02*
X43386178Y-128483712D01*
X46953983Y-116842941D02*
X48381955Y-116591151D01*
X67263171Y-129453617D02*
X70438164Y-126278626D01*
X86807944Y-131155046D02*
X86796359Y-131163158D01*
X55555381Y-119423497D02*
X60262070Y-119011717D01*
X103287543Y-131793624D02*
X105014743Y-127048175D01*
X63453169Y-121013619D02*
X63453164Y-126063621D01*
X77185212Y-122124942D02*
X77323814Y-120540692D01*
X60263168Y-121013618D02*
X63453169Y-121013619D01*
X82254347Y-128128342D02*
X79102959Y-127572669D01*
X105740592Y-136237485D02*
X109822846Y-134333898D01*
M02*
