%TF.GenerationSoftware,KiCad,Pcbnew,(6.0.11-0)*%
%TF.CreationDate,2023-02-07T20:00:46+09:00*%
%TF.ProjectId,pangaea-pcb-thumb-k2_leftcut4keys,70616e67-6165-4612-9d70-63622d746875,1*%
%TF.SameCoordinates,Original*%
%TF.FileFunction,Drillmap*%
%TF.FilePolarity,Positive*%
%FSLAX45Y45*%
G04 Gerber Fmt 4.5, Leading zero omitted, Abs format (unit mm)*
G04 Created by KiCad (PCBNEW (6.0.11-0)) date 2023-02-07 20:00:46*
%MOMM*%
%LPD*%
G01*
G04 APERTURE LIST*
%ADD10C,0.150000*%
%ADD11C,0.200000*%
%ADD12C,0.050000*%
%ADD13C,0.168000*%
%ADD14C,0.170000*%
%ADD15C,0.420000*%
%ADD16C,0.490000*%
G04 APERTURE END LIST*
D10*
X9930006Y-12007044D02*
G75*
G03*
X9832792Y-12063171I-20546J-76666D01*
G01*
X9923726Y-12412997D02*
G75*
G03*
X10020938Y-12356874I20544J76667D01*
G01*
X9805428Y-12947212D02*
X9897560Y-12697550D01*
X3888962Y-13595208D02*
G75*
G03*
X3990693Y-13642650I74588J27148D01*
G01*
X9683722Y-12914600D02*
X9728764Y-12652322D01*
X9897565Y-12697551D02*
G75*
G03*
X9841433Y-12600335I-76675J20541D01*
G01*
X11370816Y-14219383D02*
X11972579Y-12567271D01*
X9792248Y-12295598D02*
G75*
G03*
X9848382Y-12392813I76672J-20542D01*
G01*
X3626001Y-11777002D02*
G75*
G03*
X3585000Y-11870000I29579J-68578D01*
G01*
X9930006Y-12007044D02*
X10045918Y-12038103D01*
X9848382Y-12392813D02*
X9923723Y-12413000D01*
X11972584Y-12567273D02*
G75*
G03*
X11931948Y-12472472I-75184J23883D01*
G01*
X10020938Y-12356874D02*
X10102044Y-12135316D01*
X11931948Y-12472472D02*
G75*
G03*
X3626000Y-11777000I-5198363J-12137225D01*
G01*
X9683732Y-12914603D02*
G75*
G03*
X9805429Y-12947211I60848J-16307D01*
G01*
X9825978Y-12596195D02*
X9841433Y-12600335D01*
X9832792Y-12063171D02*
X9792254Y-12295599D01*
X11270851Y-14257206D02*
G75*
G03*
X3990693Y-13642650I-4544050J-10401346D01*
G01*
X9825976Y-12596203D02*
G75*
G03*
X9728764Y-12652322I-20546J-76667D01*
G01*
X11270852Y-14257206D02*
G75*
G03*
X11370816Y-14219383I31308J68266D01*
G01*
X10102038Y-12135316D02*
G75*
G03*
X10045918Y-12038103I-76668J20546D01*
G01*
X3888957Y-13595210D02*
X3585000Y-11870000D01*
D11*
D12*
X5043009Y-11886480D02*
X5093009Y-11936480D01*
X5093009Y-11886480D02*
X5043009Y-11936480D01*
D11*
X5098136Y-11880782D02*
X5029200Y-11892938D01*
X5106819Y-11930023D02*
X5037882Y-11942178D01*
X5029200Y-11892938D02*
G75*
G03*
X5037882Y-11942178I4341J-24620D01*
G01*
X5106819Y-11930023D02*
G75*
G03*
X5098136Y-11880782I-4341J24620D01*
G01*
D12*
X7201317Y-11785362D02*
X7251317Y-11835362D01*
X7251317Y-11785362D02*
X7201317Y-11835362D01*
D11*
X7261317Y-11785362D02*
X7191317Y-11785362D01*
X7261317Y-11835362D02*
X7191317Y-11835362D01*
X7191317Y-11785362D02*
G75*
G03*
X7191317Y-11835362I0J-25000D01*
G01*
X7261317Y-11835362D02*
G75*
G03*
X7261317Y-11785362I0J25000D01*
G01*
D12*
X9344131Y-12060383D02*
X9394131Y-12110383D01*
X9394131Y-12060383D02*
X9344131Y-12110383D01*
D11*
X9407940Y-12066840D02*
X9339003Y-12054685D01*
X9399258Y-12116081D02*
X9330321Y-12103925D01*
X9339003Y-12054685D02*
G75*
G03*
X9330321Y-12103925I-4341J-24620D01*
G01*
X9399258Y-12116081D02*
G75*
G03*
X9407940Y-12066840I4341J24620D01*
G01*
D12*
X11407098Y-12703207D02*
X11457098Y-12753207D01*
X11457098Y-12703207D02*
X11407098Y-12753207D01*
D11*
X11473538Y-12716686D02*
X11407760Y-12692744D01*
X11456437Y-12763670D02*
X11390659Y-12739729D01*
X11407760Y-12692744D02*
G75*
G03*
X11390659Y-12739729I-8551J-23492D01*
G01*
X11456437Y-12763670D02*
G75*
G03*
X11473538Y-12716686I8551J23492D01*
G01*
D13*
X4212599Y-12630531D02*
G75*
G03*
X4212599Y-12630531I-84000J0D01*
G01*
X5295888Y-12439518D02*
G75*
G03*
X5295888Y-12439518I-84000J0D01*
G01*
X6260317Y-12355362D02*
G75*
G03*
X6260317Y-12355362I-84000J0D01*
G01*
X7360317Y-12355362D02*
G75*
G03*
X7360317Y-12355362I-84000J0D01*
G01*
X8324444Y-12439773D02*
G75*
G03*
X8324444Y-12439773I-84000J0D01*
G01*
X9407733Y-12630786D02*
G75*
G03*
X9407733Y-12630786I-84000J0D01*
G01*
X10343020Y-12881219D02*
G75*
G03*
X10343020Y-12881219I-84000J0D01*
G01*
X11376682Y-13257441D02*
G75*
G03*
X11376682Y-13257441I-84000J0D01*
G01*
D14*
X4169961Y-12538238D02*
X4169961Y-12708238D01*
X4084961Y-12623238D02*
X4254961Y-12623238D01*
X5170526Y-12361811D02*
X5170526Y-12531811D01*
X5085526Y-12446811D02*
X5255526Y-12446811D01*
X6218317Y-12270362D02*
X6218317Y-12440362D01*
X6133317Y-12355362D02*
X6303317Y-12355362D01*
X7234317Y-12270362D02*
X7234317Y-12440362D01*
X7149317Y-12355362D02*
X7319317Y-12355362D01*
X8281806Y-12362066D02*
X8281806Y-12532066D01*
X8196806Y-12447066D02*
X8366806Y-12447066D01*
X9282371Y-12538492D02*
X9282371Y-12708492D01*
X9197371Y-12623492D02*
X9367371Y-12623492D01*
X10298487Y-12810584D02*
X10298487Y-12980584D01*
X10213487Y-12895584D02*
X10383487Y-12895584D01*
X11253215Y-13158076D02*
X11253215Y-13328076D01*
X11168215Y-13243076D02*
X11338215Y-13243076D01*
D15*
X4014494Y-11782494D02*
X4014494Y-11485506D01*
X3717506Y-11485506D01*
X3717506Y-11782494D01*
X4014494Y-11782494D01*
D11*
X4076000Y-11724000D02*
X4076000Y-11544000D01*
X3656000Y-11724000D02*
X3656000Y-11544000D01*
X4076000Y-11544000D02*
G75*
G03*
X3656000Y-11544000I-210000J0D01*
G01*
X3656000Y-11724000D02*
G75*
G03*
X4076000Y-11724000I210000J0D01*
G01*
D15*
X4017310Y-13694481D02*
X4017310Y-13397494D01*
X3720323Y-13397494D01*
X3720323Y-13694481D01*
X4017310Y-13694481D01*
D11*
X4078817Y-13635988D02*
X4078817Y-13455988D01*
X3658817Y-13635988D02*
X3658817Y-13455988D01*
X4078817Y-13455988D02*
G75*
G03*
X3658817Y-13455988I-210000J0D01*
G01*
X3658817Y-13635988D02*
G75*
G03*
X4078817Y-13635988I210000J0D01*
G01*
D15*
X5922311Y-13257918D02*
X5922311Y-12960931D01*
X5625324Y-12960931D01*
X5625324Y-13257918D01*
X5922311Y-13257918D01*
D11*
X5983817Y-13199425D02*
X5983817Y-13019425D01*
X5563817Y-13199425D02*
X5563817Y-13019425D01*
X5983817Y-13019425D02*
G75*
G03*
X5563817Y-13019425I-210000J0D01*
G01*
X5563817Y-13199425D02*
G75*
G03*
X5983817Y-13199425I210000J0D01*
G01*
D15*
X7827311Y-13257919D02*
X7827311Y-12960931D01*
X7530323Y-12960931D01*
X7530323Y-13257919D01*
X7827311Y-13257919D01*
D11*
X7888817Y-13199425D02*
X7888817Y-13019425D01*
X7468817Y-13199425D02*
X7468817Y-13019425D01*
X7888817Y-13019425D02*
G75*
G03*
X7468817Y-13019425I-210000J0D01*
G01*
X7468817Y-13199425D02*
G75*
G03*
X7888817Y-13199425I210000J0D01*
G01*
D15*
X9732311Y-11789480D02*
X9732311Y-11492493D01*
X9435323Y-11492493D01*
X9435323Y-11789480D01*
X9732311Y-11789480D01*
D11*
X9793817Y-11730987D02*
X9793817Y-11550987D01*
X9373817Y-11730987D02*
X9373817Y-11550987D01*
X9793817Y-11550987D02*
G75*
G03*
X9373817Y-11550987I-210000J0D01*
G01*
X9373817Y-11730987D02*
G75*
G03*
X9793817Y-11730987I210000J0D01*
G01*
D15*
X9732311Y-13694481D02*
X9732311Y-13397493D01*
X9435324Y-13397493D01*
X9435324Y-13694481D01*
X9732311Y-13694481D01*
D11*
X9793817Y-13635987D02*
X9793817Y-13455987D01*
X9373817Y-13635987D02*
X9373817Y-13455987D01*
X9793817Y-13455987D02*
G75*
G03*
X9373817Y-13455987I-210000J0D01*
G01*
X9373817Y-13635987D02*
G75*
G03*
X9793817Y-13635987I210000J0D01*
G01*
D16*
X4670244Y-12780025D02*
X4915244Y-12535025D01*
X4670244Y-12290025D01*
X4425244Y-12535025D01*
X4670244Y-12780025D01*
X6726317Y-12600362D02*
X6971317Y-12355362D01*
X6726317Y-12110362D01*
X6481317Y-12355362D01*
X6726317Y-12600362D01*
X8782088Y-12780279D02*
X9027088Y-12535279D01*
X8782088Y-12290279D01*
X8537088Y-12535279D01*
X8782088Y-12780279D01*
X10775851Y-13314330D02*
X11020851Y-13069330D01*
X10775851Y-12824330D01*
X10530851Y-13069330D01*
X10775851Y-13314330D01*
D11*
X3831014Y-14582019D02*
X3831014Y-14382019D01*
X3878633Y-14382019D01*
X3907204Y-14391543D01*
X3926252Y-14410591D01*
X3935776Y-14429638D01*
X3945299Y-14467733D01*
X3945299Y-14496305D01*
X3935776Y-14534400D01*
X3926252Y-14553448D01*
X3907204Y-14572495D01*
X3878633Y-14582019D01*
X3831014Y-14582019D01*
X4031014Y-14582019D02*
X4031014Y-14448686D01*
X4031014Y-14486781D02*
X4040538Y-14467733D01*
X4050061Y-14458210D01*
X4069109Y-14448686D01*
X4088157Y-14448686D01*
X4154823Y-14582019D02*
X4154823Y-14448686D01*
X4154823Y-14382019D02*
X4145299Y-14391543D01*
X4154823Y-14401067D01*
X4164347Y-14391543D01*
X4154823Y-14382019D01*
X4154823Y-14401067D01*
X4278633Y-14582019D02*
X4259585Y-14572495D01*
X4250061Y-14553448D01*
X4250061Y-14382019D01*
X4383395Y-14582019D02*
X4364347Y-14572495D01*
X4354823Y-14553448D01*
X4354823Y-14382019D01*
X4611966Y-14582019D02*
X4611966Y-14382019D01*
X4678633Y-14524876D01*
X4745300Y-14382019D01*
X4745300Y-14582019D01*
X4926252Y-14582019D02*
X4926252Y-14477257D01*
X4916728Y-14458210D01*
X4897681Y-14448686D01*
X4859585Y-14448686D01*
X4840538Y-14458210D01*
X4926252Y-14572495D02*
X4907204Y-14582019D01*
X4859585Y-14582019D01*
X4840538Y-14572495D01*
X4831014Y-14553448D01*
X4831014Y-14534400D01*
X4840538Y-14515352D01*
X4859585Y-14505829D01*
X4907204Y-14505829D01*
X4926252Y-14496305D01*
X5021490Y-14448686D02*
X5021490Y-14648686D01*
X5021490Y-14458210D02*
X5040538Y-14448686D01*
X5078633Y-14448686D01*
X5097681Y-14458210D01*
X5107204Y-14467733D01*
X5116728Y-14486781D01*
X5116728Y-14543924D01*
X5107204Y-14562971D01*
X5097681Y-14572495D01*
X5078633Y-14582019D01*
X5040538Y-14582019D01*
X5021490Y-14572495D01*
X5202442Y-14562971D02*
X5211966Y-14572495D01*
X5202442Y-14582019D01*
X5192919Y-14572495D01*
X5202442Y-14562971D01*
X5202442Y-14582019D01*
X5202442Y-14458210D02*
X5211966Y-14467733D01*
X5202442Y-14477257D01*
X5192919Y-14467733D01*
X5202442Y-14458210D01*
X5202442Y-14477257D01*
D12*
X3523395Y-14886543D02*
X3573395Y-14936543D01*
X3573395Y-14886543D02*
X3523395Y-14936543D01*
D11*
X3869109Y-14802019D02*
X3888157Y-14802019D01*
X3907204Y-14811543D01*
X3916728Y-14821067D01*
X3926252Y-14840114D01*
X3935776Y-14878210D01*
X3935776Y-14925829D01*
X3926252Y-14963924D01*
X3916728Y-14982971D01*
X3907204Y-14992495D01*
X3888157Y-15002019D01*
X3869109Y-15002019D01*
X3850061Y-14992495D01*
X3840538Y-14982971D01*
X3831014Y-14963924D01*
X3821490Y-14925829D01*
X3821490Y-14878210D01*
X3831014Y-14840114D01*
X3840538Y-14821067D01*
X3850061Y-14811543D01*
X3869109Y-14802019D01*
X4021490Y-14982971D02*
X4031014Y-14992495D01*
X4021490Y-15002019D01*
X4011966Y-14992495D01*
X4021490Y-14982971D01*
X4021490Y-15002019D01*
X4211966Y-14802019D02*
X4116728Y-14802019D01*
X4107204Y-14897257D01*
X4116728Y-14887733D01*
X4135776Y-14878210D01*
X4183395Y-14878210D01*
X4202442Y-14887733D01*
X4211966Y-14897257D01*
X4221490Y-14916305D01*
X4221490Y-14963924D01*
X4211966Y-14982971D01*
X4202442Y-14992495D01*
X4183395Y-15002019D01*
X4135776Y-15002019D01*
X4116728Y-14992495D01*
X4107204Y-14982971D01*
X4345300Y-14802019D02*
X4364347Y-14802019D01*
X4383395Y-14811543D01*
X4392919Y-14821067D01*
X4402442Y-14840114D01*
X4411966Y-14878210D01*
X4411966Y-14925829D01*
X4402442Y-14963924D01*
X4392919Y-14982971D01*
X4383395Y-14992495D01*
X4364347Y-15002019D01*
X4345300Y-15002019D01*
X4326252Y-14992495D01*
X4316728Y-14982971D01*
X4307204Y-14963924D01*
X4297681Y-14925829D01*
X4297681Y-14878210D01*
X4307204Y-14840114D01*
X4316728Y-14821067D01*
X4326252Y-14811543D01*
X4345300Y-14802019D01*
X4535776Y-14802019D02*
X4554823Y-14802019D01*
X4573871Y-14811543D01*
X4583395Y-14821067D01*
X4592919Y-14840114D01*
X4602442Y-14878210D01*
X4602442Y-14925829D01*
X4592919Y-14963924D01*
X4583395Y-14982971D01*
X4573871Y-14992495D01*
X4554823Y-15002019D01*
X4535776Y-15002019D01*
X4516728Y-14992495D01*
X4507204Y-14982971D01*
X4497681Y-14963924D01*
X4488157Y-14925829D01*
X4488157Y-14878210D01*
X4497681Y-14840114D01*
X4507204Y-14821067D01*
X4516728Y-14811543D01*
X4535776Y-14802019D01*
X4688157Y-15002019D02*
X4688157Y-14868686D01*
X4688157Y-14887733D02*
X4697681Y-14878210D01*
X4716728Y-14868686D01*
X4745300Y-14868686D01*
X4764347Y-14878210D01*
X4773871Y-14897257D01*
X4773871Y-15002019D01*
X4773871Y-14897257D02*
X4783395Y-14878210D01*
X4802442Y-14868686D01*
X4831014Y-14868686D01*
X4850061Y-14878210D01*
X4859585Y-14897257D01*
X4859585Y-15002019D01*
X4954823Y-15002019D02*
X4954823Y-14868686D01*
X4954823Y-14887733D02*
X4964347Y-14878210D01*
X4983395Y-14868686D01*
X5011966Y-14868686D01*
X5031014Y-14878210D01*
X5040538Y-14897257D01*
X5040538Y-15002019D01*
X5040538Y-14897257D02*
X5050061Y-14878210D01*
X5069109Y-14868686D01*
X5097681Y-14868686D01*
X5116728Y-14878210D01*
X5126252Y-14897257D01*
X5126252Y-15002019D01*
X5516728Y-14792495D02*
X5345300Y-15049638D01*
X5773871Y-14802019D02*
X5792919Y-14802019D01*
X5811966Y-14811543D01*
X5821490Y-14821067D01*
X5831014Y-14840114D01*
X5840538Y-14878210D01*
X5840538Y-14925829D01*
X5831014Y-14963924D01*
X5821490Y-14982971D01*
X5811966Y-14992495D01*
X5792919Y-15002019D01*
X5773871Y-15002019D01*
X5754823Y-14992495D01*
X5745299Y-14982971D01*
X5735776Y-14963924D01*
X5726252Y-14925829D01*
X5726252Y-14878210D01*
X5735776Y-14840114D01*
X5745299Y-14821067D01*
X5754823Y-14811543D01*
X5773871Y-14802019D01*
X5926252Y-14982971D02*
X5935776Y-14992495D01*
X5926252Y-15002019D01*
X5916728Y-14992495D01*
X5926252Y-14982971D01*
X5926252Y-15002019D01*
X6059585Y-14802019D02*
X6078633Y-14802019D01*
X6097680Y-14811543D01*
X6107204Y-14821067D01*
X6116728Y-14840114D01*
X6126252Y-14878210D01*
X6126252Y-14925829D01*
X6116728Y-14963924D01*
X6107204Y-14982971D01*
X6097680Y-14992495D01*
X6078633Y-15002019D01*
X6059585Y-15002019D01*
X6040538Y-14992495D01*
X6031014Y-14982971D01*
X6021490Y-14963924D01*
X6011966Y-14925829D01*
X6011966Y-14878210D01*
X6021490Y-14840114D01*
X6031014Y-14821067D01*
X6040538Y-14811543D01*
X6059585Y-14802019D01*
X6316728Y-15002019D02*
X6202442Y-15002019D01*
X6259585Y-15002019D02*
X6259585Y-14802019D01*
X6240538Y-14830591D01*
X6221490Y-14849638D01*
X6202442Y-14859162D01*
X6411966Y-15002019D02*
X6450061Y-15002019D01*
X6469109Y-14992495D01*
X6478633Y-14982971D01*
X6497680Y-14954400D01*
X6507204Y-14916305D01*
X6507204Y-14840114D01*
X6497680Y-14821067D01*
X6488157Y-14811543D01*
X6469109Y-14802019D01*
X6431014Y-14802019D01*
X6411966Y-14811543D01*
X6402442Y-14821067D01*
X6392919Y-14840114D01*
X6392919Y-14887733D01*
X6402442Y-14906781D01*
X6411966Y-14916305D01*
X6431014Y-14925829D01*
X6469109Y-14925829D01*
X6488157Y-14916305D01*
X6497680Y-14906781D01*
X6507204Y-14887733D01*
X6573871Y-14802019D02*
X6707204Y-14802019D01*
X6621490Y-15002019D01*
X6773871Y-14802019D02*
X6773871Y-14840114D01*
X6850061Y-14802019D02*
X6850061Y-14840114D01*
X7145299Y-15078210D02*
X7135776Y-15068686D01*
X7116728Y-15040114D01*
X7107204Y-15021067D01*
X7097680Y-14992495D01*
X7088157Y-14944876D01*
X7088157Y-14906781D01*
X7097680Y-14859162D01*
X7107204Y-14830591D01*
X7116728Y-14811543D01*
X7135776Y-14782971D01*
X7145299Y-14773448D01*
X7259585Y-14802019D02*
X7278633Y-14802019D01*
X7297680Y-14811543D01*
X7307204Y-14821067D01*
X7316728Y-14840114D01*
X7326252Y-14878210D01*
X7326252Y-14925829D01*
X7316728Y-14963924D01*
X7307204Y-14982971D01*
X7297680Y-14992495D01*
X7278633Y-15002019D01*
X7259585Y-15002019D01*
X7240538Y-14992495D01*
X7231014Y-14982971D01*
X7221490Y-14963924D01*
X7211966Y-14925829D01*
X7211966Y-14878210D01*
X7221490Y-14840114D01*
X7231014Y-14821067D01*
X7240538Y-14811543D01*
X7259585Y-14802019D01*
X7564347Y-15002019D02*
X7564347Y-14802019D01*
X7650061Y-15002019D02*
X7650061Y-14897257D01*
X7640538Y-14878210D01*
X7621490Y-14868686D01*
X7592919Y-14868686D01*
X7573871Y-14878210D01*
X7564347Y-14887733D01*
X7773871Y-15002019D02*
X7754823Y-14992495D01*
X7745299Y-14982971D01*
X7735776Y-14963924D01*
X7735776Y-14906781D01*
X7745299Y-14887733D01*
X7754823Y-14878210D01*
X7773871Y-14868686D01*
X7802442Y-14868686D01*
X7821490Y-14878210D01*
X7831014Y-14887733D01*
X7840538Y-14906781D01*
X7840538Y-14963924D01*
X7831014Y-14982971D01*
X7821490Y-14992495D01*
X7802442Y-15002019D01*
X7773871Y-15002019D01*
X7954823Y-15002019D02*
X7935776Y-14992495D01*
X7926252Y-14973448D01*
X7926252Y-14802019D01*
X8107204Y-14992495D02*
X8088157Y-15002019D01*
X8050061Y-15002019D01*
X8031014Y-14992495D01*
X8021490Y-14973448D01*
X8021490Y-14897257D01*
X8031014Y-14878210D01*
X8050061Y-14868686D01*
X8088157Y-14868686D01*
X8107204Y-14878210D01*
X8116728Y-14897257D01*
X8116728Y-14916305D01*
X8021490Y-14935352D01*
X8192919Y-14992495D02*
X8211966Y-15002019D01*
X8250061Y-15002019D01*
X8269109Y-14992495D01*
X8278633Y-14973448D01*
X8278633Y-14963924D01*
X8269109Y-14944876D01*
X8250061Y-14935352D01*
X8221490Y-14935352D01*
X8202442Y-14925829D01*
X8192919Y-14906781D01*
X8192919Y-14897257D01*
X8202442Y-14878210D01*
X8221490Y-14868686D01*
X8250061Y-14868686D01*
X8269109Y-14878210D01*
X8516728Y-14925829D02*
X8669109Y-14925829D01*
X8592919Y-15002019D02*
X8592919Y-14849638D01*
X9002442Y-14868686D02*
X9002442Y-15002019D01*
X8954823Y-14792495D02*
X8907204Y-14935352D01*
X9031014Y-14935352D01*
X9250061Y-14992495D02*
X9269109Y-15002019D01*
X9307204Y-15002019D01*
X9326252Y-14992495D01*
X9335776Y-14973448D01*
X9335776Y-14963924D01*
X9326252Y-14944876D01*
X9307204Y-14935352D01*
X9278633Y-14935352D01*
X9259585Y-14925829D01*
X9250061Y-14906781D01*
X9250061Y-14897257D01*
X9259585Y-14878210D01*
X9278633Y-14868686D01*
X9307204Y-14868686D01*
X9326252Y-14878210D01*
X9450061Y-15002019D02*
X9431014Y-14992495D01*
X9421490Y-14973448D01*
X9421490Y-14802019D01*
X9554823Y-15002019D02*
X9535776Y-14992495D01*
X9526252Y-14982971D01*
X9516728Y-14963924D01*
X9516728Y-14906781D01*
X9526252Y-14887733D01*
X9535776Y-14878210D01*
X9554823Y-14868686D01*
X9583395Y-14868686D01*
X9602442Y-14878210D01*
X9611966Y-14887733D01*
X9621490Y-14906781D01*
X9621490Y-14963924D01*
X9611966Y-14982971D01*
X9602442Y-14992495D01*
X9583395Y-15002019D01*
X9554823Y-15002019D01*
X9678633Y-14868686D02*
X9754823Y-14868686D01*
X9707204Y-14802019D02*
X9707204Y-14973448D01*
X9716728Y-14992495D01*
X9735776Y-15002019D01*
X9754823Y-15002019D01*
X9811966Y-14992495D02*
X9831014Y-15002019D01*
X9869109Y-15002019D01*
X9888157Y-14992495D01*
X9897681Y-14973448D01*
X9897681Y-14963924D01*
X9888157Y-14944876D01*
X9869109Y-14935352D01*
X9840538Y-14935352D01*
X9821490Y-14925829D01*
X9811966Y-14906781D01*
X9811966Y-14897257D01*
X9821490Y-14878210D01*
X9840538Y-14868686D01*
X9869109Y-14868686D01*
X9888157Y-14878210D01*
X9964347Y-15078210D02*
X9973871Y-15068686D01*
X9992919Y-15040114D01*
X10002442Y-15021067D01*
X10011966Y-14992495D01*
X10021490Y-14944876D01*
X10021490Y-14906781D01*
X10011966Y-14859162D01*
X10002442Y-14830591D01*
X9992919Y-14811543D01*
X9973871Y-14782971D01*
X9964347Y-14773448D01*
X10326252Y-15078210D02*
X10316728Y-15068686D01*
X10297681Y-15040114D01*
X10288157Y-15021067D01*
X10278633Y-14992495D01*
X10269109Y-14944876D01*
X10269109Y-14906781D01*
X10278633Y-14859162D01*
X10288157Y-14830591D01*
X10297681Y-14811543D01*
X10316728Y-14782971D01*
X10326252Y-14773448D01*
X10402442Y-14868686D02*
X10402442Y-15002019D01*
X10402442Y-14887733D02*
X10411966Y-14878210D01*
X10431014Y-14868686D01*
X10459585Y-14868686D01*
X10478633Y-14878210D01*
X10488157Y-14897257D01*
X10488157Y-15002019D01*
X10611966Y-15002019D02*
X10592919Y-14992495D01*
X10583395Y-14982971D01*
X10573871Y-14963924D01*
X10573871Y-14906781D01*
X10583395Y-14887733D01*
X10592919Y-14878210D01*
X10611966Y-14868686D01*
X10640538Y-14868686D01*
X10659585Y-14878210D01*
X10669109Y-14887733D01*
X10678633Y-14906781D01*
X10678633Y-14963924D01*
X10669109Y-14982971D01*
X10659585Y-14992495D01*
X10640538Y-15002019D01*
X10611966Y-15002019D01*
X10735776Y-14868686D02*
X10811966Y-14868686D01*
X10764347Y-14802019D02*
X10764347Y-14973448D01*
X10773871Y-14992495D01*
X10792919Y-15002019D01*
X10811966Y-15002019D01*
X11031014Y-14868686D02*
X11031014Y-15068686D01*
X11031014Y-14878210D02*
X11050061Y-14868686D01*
X11088157Y-14868686D01*
X11107204Y-14878210D01*
X11116728Y-14887733D01*
X11126252Y-14906781D01*
X11126252Y-14963924D01*
X11116728Y-14982971D01*
X11107204Y-14992495D01*
X11088157Y-15002019D01*
X11050061Y-15002019D01*
X11031014Y-14992495D01*
X11240538Y-15002019D02*
X11221490Y-14992495D01*
X11211966Y-14973448D01*
X11211966Y-14802019D01*
X11402442Y-15002019D02*
X11402442Y-14897257D01*
X11392919Y-14878210D01*
X11373871Y-14868686D01*
X11335776Y-14868686D01*
X11316728Y-14878210D01*
X11402442Y-14992495D02*
X11383395Y-15002019D01*
X11335776Y-15002019D01*
X11316728Y-14992495D01*
X11307204Y-14973448D01*
X11307204Y-14954400D01*
X11316728Y-14935352D01*
X11335776Y-14925829D01*
X11383395Y-14925829D01*
X11402442Y-14916305D01*
X11469109Y-14868686D02*
X11545299Y-14868686D01*
X11497680Y-14802019D02*
X11497680Y-14973448D01*
X11507204Y-14992495D01*
X11526252Y-15002019D01*
X11545299Y-15002019D01*
X11688157Y-14992495D02*
X11669109Y-15002019D01*
X11631014Y-15002019D01*
X11611966Y-14992495D01*
X11602442Y-14973448D01*
X11602442Y-14897257D01*
X11611966Y-14878210D01*
X11631014Y-14868686D01*
X11669109Y-14868686D01*
X11688157Y-14878210D01*
X11697680Y-14897257D01*
X11697680Y-14916305D01*
X11602442Y-14935352D01*
X11869109Y-15002019D02*
X11869109Y-14802019D01*
X11869109Y-14992495D02*
X11850061Y-15002019D01*
X11811966Y-15002019D01*
X11792919Y-14992495D01*
X11783395Y-14982971D01*
X11773871Y-14963924D01*
X11773871Y-14906781D01*
X11783395Y-14887733D01*
X11792919Y-14878210D01*
X11811966Y-14868686D01*
X11850061Y-14868686D01*
X11869109Y-14878210D01*
X11945299Y-15078210D02*
X11954823Y-15068686D01*
X11973871Y-15040114D01*
X11983395Y-15021067D01*
X11992919Y-14992495D01*
X12002442Y-14944876D01*
X12002442Y-14906781D01*
X11992919Y-14859162D01*
X11983395Y-14830591D01*
X11973871Y-14811543D01*
X11954823Y-14782971D01*
X11945299Y-14773448D01*
D13*
X3573395Y-15175543D02*
G75*
G03*
X3573395Y-15175543I-84000J0D01*
G01*
D11*
X3935776Y-15266019D02*
X3821490Y-15266019D01*
X3878633Y-15266019D02*
X3878633Y-15066019D01*
X3859585Y-15094591D01*
X3840538Y-15113638D01*
X3821490Y-15123162D01*
X4021490Y-15246971D02*
X4031014Y-15256495D01*
X4021490Y-15266019D01*
X4011966Y-15256495D01*
X4021490Y-15246971D01*
X4021490Y-15266019D01*
X4202442Y-15066019D02*
X4164347Y-15066019D01*
X4145299Y-15075543D01*
X4135776Y-15085067D01*
X4116728Y-15113638D01*
X4107204Y-15151733D01*
X4107204Y-15227924D01*
X4116728Y-15246971D01*
X4126252Y-15256495D01*
X4145299Y-15266019D01*
X4183395Y-15266019D01*
X4202442Y-15256495D01*
X4211966Y-15246971D01*
X4221490Y-15227924D01*
X4221490Y-15180305D01*
X4211966Y-15161257D01*
X4202442Y-15151733D01*
X4183395Y-15142210D01*
X4145299Y-15142210D01*
X4126252Y-15151733D01*
X4116728Y-15161257D01*
X4107204Y-15180305D01*
X4335776Y-15151733D02*
X4316728Y-15142210D01*
X4307204Y-15132686D01*
X4297681Y-15113638D01*
X4297681Y-15104114D01*
X4307204Y-15085067D01*
X4316728Y-15075543D01*
X4335776Y-15066019D01*
X4373871Y-15066019D01*
X4392919Y-15075543D01*
X4402442Y-15085067D01*
X4411966Y-15104114D01*
X4411966Y-15113638D01*
X4402442Y-15132686D01*
X4392919Y-15142210D01*
X4373871Y-15151733D01*
X4335776Y-15151733D01*
X4316728Y-15161257D01*
X4307204Y-15170781D01*
X4297681Y-15189829D01*
X4297681Y-15227924D01*
X4307204Y-15246971D01*
X4316728Y-15256495D01*
X4335776Y-15266019D01*
X4373871Y-15266019D01*
X4392919Y-15256495D01*
X4402442Y-15246971D01*
X4411966Y-15227924D01*
X4411966Y-15189829D01*
X4402442Y-15170781D01*
X4392919Y-15161257D01*
X4373871Y-15151733D01*
X4535776Y-15066019D02*
X4554823Y-15066019D01*
X4573871Y-15075543D01*
X4583395Y-15085067D01*
X4592919Y-15104114D01*
X4602442Y-15142210D01*
X4602442Y-15189829D01*
X4592919Y-15227924D01*
X4583395Y-15246971D01*
X4573871Y-15256495D01*
X4554823Y-15266019D01*
X4535776Y-15266019D01*
X4516728Y-15256495D01*
X4507204Y-15246971D01*
X4497681Y-15227924D01*
X4488157Y-15189829D01*
X4488157Y-15142210D01*
X4497681Y-15104114D01*
X4507204Y-15085067D01*
X4516728Y-15075543D01*
X4535776Y-15066019D01*
X4688157Y-15266019D02*
X4688157Y-15132686D01*
X4688157Y-15151733D02*
X4697681Y-15142210D01*
X4716728Y-15132686D01*
X4745300Y-15132686D01*
X4764347Y-15142210D01*
X4773871Y-15161257D01*
X4773871Y-15266019D01*
X4773871Y-15161257D02*
X4783395Y-15142210D01*
X4802442Y-15132686D01*
X4831014Y-15132686D01*
X4850061Y-15142210D01*
X4859585Y-15161257D01*
X4859585Y-15266019D01*
X4954823Y-15266019D02*
X4954823Y-15132686D01*
X4954823Y-15151733D02*
X4964347Y-15142210D01*
X4983395Y-15132686D01*
X5011966Y-15132686D01*
X5031014Y-15142210D01*
X5040538Y-15161257D01*
X5040538Y-15266019D01*
X5040538Y-15161257D02*
X5050061Y-15142210D01*
X5069109Y-15132686D01*
X5097681Y-15132686D01*
X5116728Y-15142210D01*
X5126252Y-15161257D01*
X5126252Y-15266019D01*
X5516728Y-15056495D02*
X5345300Y-15313638D01*
X5773871Y-15066019D02*
X5792919Y-15066019D01*
X5811966Y-15075543D01*
X5821490Y-15085067D01*
X5831014Y-15104114D01*
X5840538Y-15142210D01*
X5840538Y-15189829D01*
X5831014Y-15227924D01*
X5821490Y-15246971D01*
X5811966Y-15256495D01*
X5792919Y-15266019D01*
X5773871Y-15266019D01*
X5754823Y-15256495D01*
X5745299Y-15246971D01*
X5735776Y-15227924D01*
X5726252Y-15189829D01*
X5726252Y-15142210D01*
X5735776Y-15104114D01*
X5745299Y-15085067D01*
X5754823Y-15075543D01*
X5773871Y-15066019D01*
X5926252Y-15246971D02*
X5935776Y-15256495D01*
X5926252Y-15266019D01*
X5916728Y-15256495D01*
X5926252Y-15246971D01*
X5926252Y-15266019D01*
X6059585Y-15066019D02*
X6078633Y-15066019D01*
X6097680Y-15075543D01*
X6107204Y-15085067D01*
X6116728Y-15104114D01*
X6126252Y-15142210D01*
X6126252Y-15189829D01*
X6116728Y-15227924D01*
X6107204Y-15246971D01*
X6097680Y-15256495D01*
X6078633Y-15266019D01*
X6059585Y-15266019D01*
X6040538Y-15256495D01*
X6031014Y-15246971D01*
X6021490Y-15227924D01*
X6011966Y-15189829D01*
X6011966Y-15142210D01*
X6021490Y-15104114D01*
X6031014Y-15085067D01*
X6040538Y-15075543D01*
X6059585Y-15066019D01*
X6297680Y-15066019D02*
X6259585Y-15066019D01*
X6240538Y-15075543D01*
X6231014Y-15085067D01*
X6211966Y-15113638D01*
X6202442Y-15151733D01*
X6202442Y-15227924D01*
X6211966Y-15246971D01*
X6221490Y-15256495D01*
X6240538Y-15266019D01*
X6278633Y-15266019D01*
X6297680Y-15256495D01*
X6307204Y-15246971D01*
X6316728Y-15227924D01*
X6316728Y-15180305D01*
X6307204Y-15161257D01*
X6297680Y-15151733D01*
X6278633Y-15142210D01*
X6240538Y-15142210D01*
X6221490Y-15151733D01*
X6211966Y-15161257D01*
X6202442Y-15180305D01*
X6488157Y-15066019D02*
X6450061Y-15066019D01*
X6431014Y-15075543D01*
X6421490Y-15085067D01*
X6402442Y-15113638D01*
X6392919Y-15151733D01*
X6392919Y-15227924D01*
X6402442Y-15246971D01*
X6411966Y-15256495D01*
X6431014Y-15266019D01*
X6469109Y-15266019D01*
X6488157Y-15256495D01*
X6497680Y-15246971D01*
X6507204Y-15227924D01*
X6507204Y-15180305D01*
X6497680Y-15161257D01*
X6488157Y-15151733D01*
X6469109Y-15142210D01*
X6431014Y-15142210D01*
X6411966Y-15151733D01*
X6402442Y-15161257D01*
X6392919Y-15180305D01*
X6697680Y-15266019D02*
X6583395Y-15266019D01*
X6640538Y-15266019D02*
X6640538Y-15066019D01*
X6621490Y-15094591D01*
X6602442Y-15113638D01*
X6583395Y-15123162D01*
X6773871Y-15066019D02*
X6773871Y-15104114D01*
X6850061Y-15066019D02*
X6850061Y-15104114D01*
X7145299Y-15342210D02*
X7135776Y-15332686D01*
X7116728Y-15304114D01*
X7107204Y-15285067D01*
X7097680Y-15256495D01*
X7088157Y-15208876D01*
X7088157Y-15170781D01*
X7097680Y-15123162D01*
X7107204Y-15094591D01*
X7116728Y-15075543D01*
X7135776Y-15046971D01*
X7145299Y-15037448D01*
X7250061Y-15151733D02*
X7231014Y-15142210D01*
X7221490Y-15132686D01*
X7211966Y-15113638D01*
X7211966Y-15104114D01*
X7221490Y-15085067D01*
X7231014Y-15075543D01*
X7250061Y-15066019D01*
X7288157Y-15066019D01*
X7307204Y-15075543D01*
X7316728Y-15085067D01*
X7326252Y-15104114D01*
X7326252Y-15113638D01*
X7316728Y-15132686D01*
X7307204Y-15142210D01*
X7288157Y-15151733D01*
X7250061Y-15151733D01*
X7231014Y-15161257D01*
X7221490Y-15170781D01*
X7211966Y-15189829D01*
X7211966Y-15227924D01*
X7221490Y-15246971D01*
X7231014Y-15256495D01*
X7250061Y-15266019D01*
X7288157Y-15266019D01*
X7307204Y-15256495D01*
X7316728Y-15246971D01*
X7326252Y-15227924D01*
X7326252Y-15189829D01*
X7316728Y-15170781D01*
X7307204Y-15161257D01*
X7288157Y-15151733D01*
X7564347Y-15266019D02*
X7564347Y-15066019D01*
X7650061Y-15266019D02*
X7650061Y-15161257D01*
X7640538Y-15142210D01*
X7621490Y-15132686D01*
X7592919Y-15132686D01*
X7573871Y-15142210D01*
X7564347Y-15151733D01*
X7773871Y-15266019D02*
X7754823Y-15256495D01*
X7745299Y-15246971D01*
X7735776Y-15227924D01*
X7735776Y-15170781D01*
X7745299Y-15151733D01*
X7754823Y-15142210D01*
X7773871Y-15132686D01*
X7802442Y-15132686D01*
X7821490Y-15142210D01*
X7831014Y-15151733D01*
X7840538Y-15170781D01*
X7840538Y-15227924D01*
X7831014Y-15246971D01*
X7821490Y-15256495D01*
X7802442Y-15266019D01*
X7773871Y-15266019D01*
X7954823Y-15266019D02*
X7935776Y-15256495D01*
X7926252Y-15237448D01*
X7926252Y-15066019D01*
X8107204Y-15256495D02*
X8088157Y-15266019D01*
X8050061Y-15266019D01*
X8031014Y-15256495D01*
X8021490Y-15237448D01*
X8021490Y-15161257D01*
X8031014Y-15142210D01*
X8050061Y-15132686D01*
X8088157Y-15132686D01*
X8107204Y-15142210D01*
X8116728Y-15161257D01*
X8116728Y-15180305D01*
X8021490Y-15199352D01*
X8192919Y-15256495D02*
X8211966Y-15266019D01*
X8250061Y-15266019D01*
X8269109Y-15256495D01*
X8278633Y-15237448D01*
X8278633Y-15227924D01*
X8269109Y-15208876D01*
X8250061Y-15199352D01*
X8221490Y-15199352D01*
X8202442Y-15189829D01*
X8192919Y-15170781D01*
X8192919Y-15161257D01*
X8202442Y-15142210D01*
X8221490Y-15132686D01*
X8250061Y-15132686D01*
X8269109Y-15142210D01*
X8345299Y-15342210D02*
X8354823Y-15332686D01*
X8373871Y-15304114D01*
X8383395Y-15285067D01*
X8392919Y-15256495D01*
X8402442Y-15208876D01*
X8402442Y-15170781D01*
X8392919Y-15123162D01*
X8383395Y-15094591D01*
X8373871Y-15075543D01*
X8354823Y-15046971D01*
X8345299Y-15037448D01*
X8707204Y-15342210D02*
X8697681Y-15332686D01*
X8678633Y-15304114D01*
X8669109Y-15285067D01*
X8659585Y-15256495D01*
X8650061Y-15208876D01*
X8650061Y-15170781D01*
X8659585Y-15123162D01*
X8669109Y-15094591D01*
X8678633Y-15075543D01*
X8697681Y-15046971D01*
X8707204Y-15037448D01*
X8783395Y-15132686D02*
X8783395Y-15266019D01*
X8783395Y-15151733D02*
X8792919Y-15142210D01*
X8811966Y-15132686D01*
X8840538Y-15132686D01*
X8859585Y-15142210D01*
X8869109Y-15161257D01*
X8869109Y-15266019D01*
X8992919Y-15266019D02*
X8973871Y-15256495D01*
X8964347Y-15246971D01*
X8954823Y-15227924D01*
X8954823Y-15170781D01*
X8964347Y-15151733D01*
X8973871Y-15142210D01*
X8992919Y-15132686D01*
X9021490Y-15132686D01*
X9040538Y-15142210D01*
X9050061Y-15151733D01*
X9059585Y-15170781D01*
X9059585Y-15227924D01*
X9050061Y-15246971D01*
X9040538Y-15256495D01*
X9021490Y-15266019D01*
X8992919Y-15266019D01*
X9116728Y-15132686D02*
X9192919Y-15132686D01*
X9145300Y-15066019D02*
X9145300Y-15237448D01*
X9154823Y-15256495D01*
X9173871Y-15266019D01*
X9192919Y-15266019D01*
X9411966Y-15132686D02*
X9411966Y-15332686D01*
X9411966Y-15142210D02*
X9431014Y-15132686D01*
X9469109Y-15132686D01*
X9488157Y-15142210D01*
X9497681Y-15151733D01*
X9507204Y-15170781D01*
X9507204Y-15227924D01*
X9497681Y-15246971D01*
X9488157Y-15256495D01*
X9469109Y-15266019D01*
X9431014Y-15266019D01*
X9411966Y-15256495D01*
X9621490Y-15266019D02*
X9602442Y-15256495D01*
X9592919Y-15237448D01*
X9592919Y-15066019D01*
X9783395Y-15266019D02*
X9783395Y-15161257D01*
X9773871Y-15142210D01*
X9754823Y-15132686D01*
X9716728Y-15132686D01*
X9697681Y-15142210D01*
X9783395Y-15256495D02*
X9764347Y-15266019D01*
X9716728Y-15266019D01*
X9697681Y-15256495D01*
X9688157Y-15237448D01*
X9688157Y-15218400D01*
X9697681Y-15199352D01*
X9716728Y-15189829D01*
X9764347Y-15189829D01*
X9783395Y-15180305D01*
X9850061Y-15132686D02*
X9926252Y-15132686D01*
X9878633Y-15066019D02*
X9878633Y-15237448D01*
X9888157Y-15256495D01*
X9907204Y-15266019D01*
X9926252Y-15266019D01*
X10069109Y-15256495D02*
X10050061Y-15266019D01*
X10011966Y-15266019D01*
X9992919Y-15256495D01*
X9983395Y-15237448D01*
X9983395Y-15161257D01*
X9992919Y-15142210D01*
X10011966Y-15132686D01*
X10050061Y-15132686D01*
X10069109Y-15142210D01*
X10078633Y-15161257D01*
X10078633Y-15180305D01*
X9983395Y-15199352D01*
X10250061Y-15266019D02*
X10250061Y-15066019D01*
X10250061Y-15256495D02*
X10231014Y-15266019D01*
X10192919Y-15266019D01*
X10173871Y-15256495D01*
X10164347Y-15246971D01*
X10154823Y-15227924D01*
X10154823Y-15170781D01*
X10164347Y-15151733D01*
X10173871Y-15142210D01*
X10192919Y-15132686D01*
X10231014Y-15132686D01*
X10250061Y-15142210D01*
X10326252Y-15342210D02*
X10335776Y-15332686D01*
X10354823Y-15304114D01*
X10364347Y-15285067D01*
X10373871Y-15256495D01*
X10383395Y-15208876D01*
X10383395Y-15170781D01*
X10373871Y-15123162D01*
X10364347Y-15094591D01*
X10354823Y-15075543D01*
X10335776Y-15046971D01*
X10326252Y-15037448D01*
D14*
X3488395Y-15378543D02*
X3488395Y-15548543D01*
X3403395Y-15463543D02*
X3573395Y-15463543D01*
D11*
X3935776Y-15554019D02*
X3821490Y-15554019D01*
X3878633Y-15554019D02*
X3878633Y-15354019D01*
X3859585Y-15382591D01*
X3840538Y-15401638D01*
X3821490Y-15411162D01*
X4021490Y-15534971D02*
X4031014Y-15544495D01*
X4021490Y-15554019D01*
X4011966Y-15544495D01*
X4021490Y-15534971D01*
X4021490Y-15554019D01*
X4097680Y-15354019D02*
X4231014Y-15354019D01*
X4145299Y-15554019D01*
X4345300Y-15354019D02*
X4364347Y-15354019D01*
X4383395Y-15363543D01*
X4392919Y-15373067D01*
X4402442Y-15392114D01*
X4411966Y-15430210D01*
X4411966Y-15477829D01*
X4402442Y-15515924D01*
X4392919Y-15534971D01*
X4383395Y-15544495D01*
X4364347Y-15554019D01*
X4345300Y-15554019D01*
X4326252Y-15544495D01*
X4316728Y-15534971D01*
X4307204Y-15515924D01*
X4297681Y-15477829D01*
X4297681Y-15430210D01*
X4307204Y-15392114D01*
X4316728Y-15373067D01*
X4326252Y-15363543D01*
X4345300Y-15354019D01*
X4535776Y-15354019D02*
X4554823Y-15354019D01*
X4573871Y-15363543D01*
X4583395Y-15373067D01*
X4592919Y-15392114D01*
X4602442Y-15430210D01*
X4602442Y-15477829D01*
X4592919Y-15515924D01*
X4583395Y-15534971D01*
X4573871Y-15544495D01*
X4554823Y-15554019D01*
X4535776Y-15554019D01*
X4516728Y-15544495D01*
X4507204Y-15534971D01*
X4497681Y-15515924D01*
X4488157Y-15477829D01*
X4488157Y-15430210D01*
X4497681Y-15392114D01*
X4507204Y-15373067D01*
X4516728Y-15363543D01*
X4535776Y-15354019D01*
X4688157Y-15554019D02*
X4688157Y-15420686D01*
X4688157Y-15439733D02*
X4697681Y-15430210D01*
X4716728Y-15420686D01*
X4745300Y-15420686D01*
X4764347Y-15430210D01*
X4773871Y-15449257D01*
X4773871Y-15554019D01*
X4773871Y-15449257D02*
X4783395Y-15430210D01*
X4802442Y-15420686D01*
X4831014Y-15420686D01*
X4850061Y-15430210D01*
X4859585Y-15449257D01*
X4859585Y-15554019D01*
X4954823Y-15554019D02*
X4954823Y-15420686D01*
X4954823Y-15439733D02*
X4964347Y-15430210D01*
X4983395Y-15420686D01*
X5011966Y-15420686D01*
X5031014Y-15430210D01*
X5040538Y-15449257D01*
X5040538Y-15554019D01*
X5040538Y-15449257D02*
X5050061Y-15430210D01*
X5069109Y-15420686D01*
X5097681Y-15420686D01*
X5116728Y-15430210D01*
X5126252Y-15449257D01*
X5126252Y-15554019D01*
X5516728Y-15344495D02*
X5345300Y-15601638D01*
X5773871Y-15354019D02*
X5792919Y-15354019D01*
X5811966Y-15363543D01*
X5821490Y-15373067D01*
X5831014Y-15392114D01*
X5840538Y-15430210D01*
X5840538Y-15477829D01*
X5831014Y-15515924D01*
X5821490Y-15534971D01*
X5811966Y-15544495D01*
X5792919Y-15554019D01*
X5773871Y-15554019D01*
X5754823Y-15544495D01*
X5745299Y-15534971D01*
X5735776Y-15515924D01*
X5726252Y-15477829D01*
X5726252Y-15430210D01*
X5735776Y-15392114D01*
X5745299Y-15373067D01*
X5754823Y-15363543D01*
X5773871Y-15354019D01*
X5926252Y-15534971D02*
X5935776Y-15544495D01*
X5926252Y-15554019D01*
X5916728Y-15544495D01*
X5926252Y-15534971D01*
X5926252Y-15554019D01*
X6059585Y-15354019D02*
X6078633Y-15354019D01*
X6097680Y-15363543D01*
X6107204Y-15373067D01*
X6116728Y-15392114D01*
X6126252Y-15430210D01*
X6126252Y-15477829D01*
X6116728Y-15515924D01*
X6107204Y-15534971D01*
X6097680Y-15544495D01*
X6078633Y-15554019D01*
X6059585Y-15554019D01*
X6040538Y-15544495D01*
X6031014Y-15534971D01*
X6021490Y-15515924D01*
X6011966Y-15477829D01*
X6011966Y-15430210D01*
X6021490Y-15392114D01*
X6031014Y-15373067D01*
X6040538Y-15363543D01*
X6059585Y-15354019D01*
X6297680Y-15354019D02*
X6259585Y-15354019D01*
X6240538Y-15363543D01*
X6231014Y-15373067D01*
X6211966Y-15401638D01*
X6202442Y-15439733D01*
X6202442Y-15515924D01*
X6211966Y-15534971D01*
X6221490Y-15544495D01*
X6240538Y-15554019D01*
X6278633Y-15554019D01*
X6297680Y-15544495D01*
X6307204Y-15534971D01*
X6316728Y-15515924D01*
X6316728Y-15468305D01*
X6307204Y-15449257D01*
X6297680Y-15439733D01*
X6278633Y-15430210D01*
X6240538Y-15430210D01*
X6221490Y-15439733D01*
X6211966Y-15449257D01*
X6202442Y-15468305D01*
X6488157Y-15354019D02*
X6450061Y-15354019D01*
X6431014Y-15363543D01*
X6421490Y-15373067D01*
X6402442Y-15401638D01*
X6392919Y-15439733D01*
X6392919Y-15515924D01*
X6402442Y-15534971D01*
X6411966Y-15544495D01*
X6431014Y-15554019D01*
X6469109Y-15554019D01*
X6488157Y-15544495D01*
X6497680Y-15534971D01*
X6507204Y-15515924D01*
X6507204Y-15468305D01*
X6497680Y-15449257D01*
X6488157Y-15439733D01*
X6469109Y-15430210D01*
X6431014Y-15430210D01*
X6411966Y-15439733D01*
X6402442Y-15449257D01*
X6392919Y-15468305D01*
X6602442Y-15554019D02*
X6640538Y-15554019D01*
X6659585Y-15544495D01*
X6669109Y-15534971D01*
X6688157Y-15506400D01*
X6697680Y-15468305D01*
X6697680Y-15392114D01*
X6688157Y-15373067D01*
X6678633Y-15363543D01*
X6659585Y-15354019D01*
X6621490Y-15354019D01*
X6602442Y-15363543D01*
X6592919Y-15373067D01*
X6583395Y-15392114D01*
X6583395Y-15439733D01*
X6592919Y-15458781D01*
X6602442Y-15468305D01*
X6621490Y-15477829D01*
X6659585Y-15477829D01*
X6678633Y-15468305D01*
X6688157Y-15458781D01*
X6697680Y-15439733D01*
X6773871Y-15354019D02*
X6773871Y-15392114D01*
X6850061Y-15354019D02*
X6850061Y-15392114D01*
X7145299Y-15630210D02*
X7135776Y-15620686D01*
X7116728Y-15592114D01*
X7107204Y-15573067D01*
X7097680Y-15544495D01*
X7088157Y-15496876D01*
X7088157Y-15458781D01*
X7097680Y-15411162D01*
X7107204Y-15382591D01*
X7116728Y-15363543D01*
X7135776Y-15334971D01*
X7145299Y-15325448D01*
X7250061Y-15439733D02*
X7231014Y-15430210D01*
X7221490Y-15420686D01*
X7211966Y-15401638D01*
X7211966Y-15392114D01*
X7221490Y-15373067D01*
X7231014Y-15363543D01*
X7250061Y-15354019D01*
X7288157Y-15354019D01*
X7307204Y-15363543D01*
X7316728Y-15373067D01*
X7326252Y-15392114D01*
X7326252Y-15401638D01*
X7316728Y-15420686D01*
X7307204Y-15430210D01*
X7288157Y-15439733D01*
X7250061Y-15439733D01*
X7231014Y-15449257D01*
X7221490Y-15458781D01*
X7211966Y-15477829D01*
X7211966Y-15515924D01*
X7221490Y-15534971D01*
X7231014Y-15544495D01*
X7250061Y-15554019D01*
X7288157Y-15554019D01*
X7307204Y-15544495D01*
X7316728Y-15534971D01*
X7326252Y-15515924D01*
X7326252Y-15477829D01*
X7316728Y-15458781D01*
X7307204Y-15449257D01*
X7288157Y-15439733D01*
X7564347Y-15554019D02*
X7564347Y-15354019D01*
X7650061Y-15554019D02*
X7650061Y-15449257D01*
X7640538Y-15430210D01*
X7621490Y-15420686D01*
X7592919Y-15420686D01*
X7573871Y-15430210D01*
X7564347Y-15439733D01*
X7773871Y-15554019D02*
X7754823Y-15544495D01*
X7745299Y-15534971D01*
X7735776Y-15515924D01*
X7735776Y-15458781D01*
X7745299Y-15439733D01*
X7754823Y-15430210D01*
X7773871Y-15420686D01*
X7802442Y-15420686D01*
X7821490Y-15430210D01*
X7831014Y-15439733D01*
X7840538Y-15458781D01*
X7840538Y-15515924D01*
X7831014Y-15534971D01*
X7821490Y-15544495D01*
X7802442Y-15554019D01*
X7773871Y-15554019D01*
X7954823Y-15554019D02*
X7935776Y-15544495D01*
X7926252Y-15525448D01*
X7926252Y-15354019D01*
X8107204Y-15544495D02*
X8088157Y-15554019D01*
X8050061Y-15554019D01*
X8031014Y-15544495D01*
X8021490Y-15525448D01*
X8021490Y-15449257D01*
X8031014Y-15430210D01*
X8050061Y-15420686D01*
X8088157Y-15420686D01*
X8107204Y-15430210D01*
X8116728Y-15449257D01*
X8116728Y-15468305D01*
X8021490Y-15487352D01*
X8192919Y-15544495D02*
X8211966Y-15554019D01*
X8250061Y-15554019D01*
X8269109Y-15544495D01*
X8278633Y-15525448D01*
X8278633Y-15515924D01*
X8269109Y-15496876D01*
X8250061Y-15487352D01*
X8221490Y-15487352D01*
X8202442Y-15477829D01*
X8192919Y-15458781D01*
X8192919Y-15449257D01*
X8202442Y-15430210D01*
X8221490Y-15420686D01*
X8250061Y-15420686D01*
X8269109Y-15430210D01*
X8345299Y-15630210D02*
X8354823Y-15620686D01*
X8373871Y-15592114D01*
X8383395Y-15573067D01*
X8392919Y-15544495D01*
X8402442Y-15496876D01*
X8402442Y-15458781D01*
X8392919Y-15411162D01*
X8383395Y-15382591D01*
X8373871Y-15363543D01*
X8354823Y-15334971D01*
X8345299Y-15325448D01*
X8707204Y-15630210D02*
X8697681Y-15620686D01*
X8678633Y-15592114D01*
X8669109Y-15573067D01*
X8659585Y-15544495D01*
X8650061Y-15496876D01*
X8650061Y-15458781D01*
X8659585Y-15411162D01*
X8669109Y-15382591D01*
X8678633Y-15363543D01*
X8697681Y-15334971D01*
X8707204Y-15325448D01*
X8783395Y-15420686D02*
X8783395Y-15554019D01*
X8783395Y-15439733D02*
X8792919Y-15430210D01*
X8811966Y-15420686D01*
X8840538Y-15420686D01*
X8859585Y-15430210D01*
X8869109Y-15449257D01*
X8869109Y-15554019D01*
X8992919Y-15554019D02*
X8973871Y-15544495D01*
X8964347Y-15534971D01*
X8954823Y-15515924D01*
X8954823Y-15458781D01*
X8964347Y-15439733D01*
X8973871Y-15430210D01*
X8992919Y-15420686D01*
X9021490Y-15420686D01*
X9040538Y-15430210D01*
X9050061Y-15439733D01*
X9059585Y-15458781D01*
X9059585Y-15515924D01*
X9050061Y-15534971D01*
X9040538Y-15544495D01*
X9021490Y-15554019D01*
X8992919Y-15554019D01*
X9116728Y-15420686D02*
X9192919Y-15420686D01*
X9145300Y-15354019D02*
X9145300Y-15525448D01*
X9154823Y-15544495D01*
X9173871Y-15554019D01*
X9192919Y-15554019D01*
X9411966Y-15420686D02*
X9411966Y-15620686D01*
X9411966Y-15430210D02*
X9431014Y-15420686D01*
X9469109Y-15420686D01*
X9488157Y-15430210D01*
X9497681Y-15439733D01*
X9507204Y-15458781D01*
X9507204Y-15515924D01*
X9497681Y-15534971D01*
X9488157Y-15544495D01*
X9469109Y-15554019D01*
X9431014Y-15554019D01*
X9411966Y-15544495D01*
X9621490Y-15554019D02*
X9602442Y-15544495D01*
X9592919Y-15525448D01*
X9592919Y-15354019D01*
X9783395Y-15554019D02*
X9783395Y-15449257D01*
X9773871Y-15430210D01*
X9754823Y-15420686D01*
X9716728Y-15420686D01*
X9697681Y-15430210D01*
X9783395Y-15544495D02*
X9764347Y-15554019D01*
X9716728Y-15554019D01*
X9697681Y-15544495D01*
X9688157Y-15525448D01*
X9688157Y-15506400D01*
X9697681Y-15487352D01*
X9716728Y-15477829D01*
X9764347Y-15477829D01*
X9783395Y-15468305D01*
X9850061Y-15420686D02*
X9926252Y-15420686D01*
X9878633Y-15354019D02*
X9878633Y-15525448D01*
X9888157Y-15544495D01*
X9907204Y-15554019D01*
X9926252Y-15554019D01*
X10069109Y-15544495D02*
X10050061Y-15554019D01*
X10011966Y-15554019D01*
X9992919Y-15544495D01*
X9983395Y-15525448D01*
X9983395Y-15449257D01*
X9992919Y-15430210D01*
X10011966Y-15420686D01*
X10050061Y-15420686D01*
X10069109Y-15430210D01*
X10078633Y-15449257D01*
X10078633Y-15468305D01*
X9983395Y-15487352D01*
X10250061Y-15554019D02*
X10250061Y-15354019D01*
X10250061Y-15544495D02*
X10231014Y-15554019D01*
X10192919Y-15554019D01*
X10173871Y-15544495D01*
X10164347Y-15534971D01*
X10154823Y-15515924D01*
X10154823Y-15458781D01*
X10164347Y-15439733D01*
X10173871Y-15430210D01*
X10192919Y-15420686D01*
X10231014Y-15420686D01*
X10250061Y-15430210D01*
X10326252Y-15630210D02*
X10335776Y-15620686D01*
X10354823Y-15592114D01*
X10364347Y-15573067D01*
X10373871Y-15544495D01*
X10383395Y-15496876D01*
X10383395Y-15458781D01*
X10373871Y-15411162D01*
X10364347Y-15382591D01*
X10354823Y-15363543D01*
X10335776Y-15334971D01*
X10326252Y-15325448D01*
X3544106Y-15824254D02*
X3544106Y-15682832D01*
X3402683Y-15682832D01*
X3402683Y-15824254D01*
X3544106Y-15824254D01*
X3916728Y-15710686D02*
X3916728Y-15844019D01*
X3869109Y-15634495D02*
X3821490Y-15777352D01*
X3945299Y-15777352D01*
X4021490Y-15824971D02*
X4031014Y-15834495D01*
X4021490Y-15844019D01*
X4011966Y-15834495D01*
X4021490Y-15824971D01*
X4021490Y-15844019D01*
X4107204Y-15663067D02*
X4116728Y-15653543D01*
X4135776Y-15644019D01*
X4183395Y-15644019D01*
X4202442Y-15653543D01*
X4211966Y-15663067D01*
X4221490Y-15682114D01*
X4221490Y-15701162D01*
X4211966Y-15729733D01*
X4097680Y-15844019D01*
X4221490Y-15844019D01*
X4345300Y-15644019D02*
X4364347Y-15644019D01*
X4383395Y-15653543D01*
X4392919Y-15663067D01*
X4402442Y-15682114D01*
X4411966Y-15720210D01*
X4411966Y-15767829D01*
X4402442Y-15805924D01*
X4392919Y-15824971D01*
X4383395Y-15834495D01*
X4364347Y-15844019D01*
X4345300Y-15844019D01*
X4326252Y-15834495D01*
X4316728Y-15824971D01*
X4307204Y-15805924D01*
X4297681Y-15767829D01*
X4297681Y-15720210D01*
X4307204Y-15682114D01*
X4316728Y-15663067D01*
X4326252Y-15653543D01*
X4345300Y-15644019D01*
X4535776Y-15644019D02*
X4554823Y-15644019D01*
X4573871Y-15653543D01*
X4583395Y-15663067D01*
X4592919Y-15682114D01*
X4602442Y-15720210D01*
X4602442Y-15767829D01*
X4592919Y-15805924D01*
X4583395Y-15824971D01*
X4573871Y-15834495D01*
X4554823Y-15844019D01*
X4535776Y-15844019D01*
X4516728Y-15834495D01*
X4507204Y-15824971D01*
X4497681Y-15805924D01*
X4488157Y-15767829D01*
X4488157Y-15720210D01*
X4497681Y-15682114D01*
X4507204Y-15663067D01*
X4516728Y-15653543D01*
X4535776Y-15644019D01*
X4688157Y-15844019D02*
X4688157Y-15710686D01*
X4688157Y-15729733D02*
X4697681Y-15720210D01*
X4716728Y-15710686D01*
X4745300Y-15710686D01*
X4764347Y-15720210D01*
X4773871Y-15739257D01*
X4773871Y-15844019D01*
X4773871Y-15739257D02*
X4783395Y-15720210D01*
X4802442Y-15710686D01*
X4831014Y-15710686D01*
X4850061Y-15720210D01*
X4859585Y-15739257D01*
X4859585Y-15844019D01*
X4954823Y-15844019D02*
X4954823Y-15710686D01*
X4954823Y-15729733D02*
X4964347Y-15720210D01*
X4983395Y-15710686D01*
X5011966Y-15710686D01*
X5031014Y-15720210D01*
X5040538Y-15739257D01*
X5040538Y-15844019D01*
X5040538Y-15739257D02*
X5050061Y-15720210D01*
X5069109Y-15710686D01*
X5097681Y-15710686D01*
X5116728Y-15720210D01*
X5126252Y-15739257D01*
X5126252Y-15844019D01*
X5516728Y-15634495D02*
X5345300Y-15891638D01*
X5773871Y-15644019D02*
X5792919Y-15644019D01*
X5811966Y-15653543D01*
X5821490Y-15663067D01*
X5831014Y-15682114D01*
X5840538Y-15720210D01*
X5840538Y-15767829D01*
X5831014Y-15805924D01*
X5821490Y-15824971D01*
X5811966Y-15834495D01*
X5792919Y-15844019D01*
X5773871Y-15844019D01*
X5754823Y-15834495D01*
X5745299Y-15824971D01*
X5735776Y-15805924D01*
X5726252Y-15767829D01*
X5726252Y-15720210D01*
X5735776Y-15682114D01*
X5745299Y-15663067D01*
X5754823Y-15653543D01*
X5773871Y-15644019D01*
X5926252Y-15824971D02*
X5935776Y-15834495D01*
X5926252Y-15844019D01*
X5916728Y-15834495D01*
X5926252Y-15824971D01*
X5926252Y-15844019D01*
X6126252Y-15844019D02*
X6011966Y-15844019D01*
X6069109Y-15844019D02*
X6069109Y-15644019D01*
X6050061Y-15672591D01*
X6031014Y-15691638D01*
X6011966Y-15701162D01*
X6297680Y-15644019D02*
X6259585Y-15644019D01*
X6240538Y-15653543D01*
X6231014Y-15663067D01*
X6211966Y-15691638D01*
X6202442Y-15729733D01*
X6202442Y-15805924D01*
X6211966Y-15824971D01*
X6221490Y-15834495D01*
X6240538Y-15844019D01*
X6278633Y-15844019D01*
X6297680Y-15834495D01*
X6307204Y-15824971D01*
X6316728Y-15805924D01*
X6316728Y-15758305D01*
X6307204Y-15739257D01*
X6297680Y-15729733D01*
X6278633Y-15720210D01*
X6240538Y-15720210D01*
X6221490Y-15729733D01*
X6211966Y-15739257D01*
X6202442Y-15758305D01*
X6497680Y-15644019D02*
X6402442Y-15644019D01*
X6392919Y-15739257D01*
X6402442Y-15729733D01*
X6421490Y-15720210D01*
X6469109Y-15720210D01*
X6488157Y-15729733D01*
X6497680Y-15739257D01*
X6507204Y-15758305D01*
X6507204Y-15805924D01*
X6497680Y-15824971D01*
X6488157Y-15834495D01*
X6469109Y-15844019D01*
X6421490Y-15844019D01*
X6402442Y-15834495D01*
X6392919Y-15824971D01*
X6678633Y-15710686D02*
X6678633Y-15844019D01*
X6631014Y-15634495D02*
X6583395Y-15777352D01*
X6707204Y-15777352D01*
X6773871Y-15644019D02*
X6773871Y-15682114D01*
X6850061Y-15644019D02*
X6850061Y-15682114D01*
X7145299Y-15920210D02*
X7135776Y-15910686D01*
X7116728Y-15882114D01*
X7107204Y-15863067D01*
X7097680Y-15834495D01*
X7088157Y-15786876D01*
X7088157Y-15748781D01*
X7097680Y-15701162D01*
X7107204Y-15672591D01*
X7116728Y-15653543D01*
X7135776Y-15624971D01*
X7145299Y-15615448D01*
X7259585Y-15644019D02*
X7278633Y-15644019D01*
X7297680Y-15653543D01*
X7307204Y-15663067D01*
X7316728Y-15682114D01*
X7326252Y-15720210D01*
X7326252Y-15767829D01*
X7316728Y-15805924D01*
X7307204Y-15824971D01*
X7297680Y-15834495D01*
X7278633Y-15844019D01*
X7259585Y-15844019D01*
X7240538Y-15834495D01*
X7231014Y-15824971D01*
X7221490Y-15805924D01*
X7211966Y-15767829D01*
X7211966Y-15720210D01*
X7221490Y-15682114D01*
X7231014Y-15663067D01*
X7240538Y-15653543D01*
X7259585Y-15644019D01*
X7564347Y-15844019D02*
X7564347Y-15644019D01*
X7650061Y-15844019D02*
X7650061Y-15739257D01*
X7640538Y-15720210D01*
X7621490Y-15710686D01*
X7592919Y-15710686D01*
X7573871Y-15720210D01*
X7564347Y-15729733D01*
X7773871Y-15844019D02*
X7754823Y-15834495D01*
X7745299Y-15824971D01*
X7735776Y-15805924D01*
X7735776Y-15748781D01*
X7745299Y-15729733D01*
X7754823Y-15720210D01*
X7773871Y-15710686D01*
X7802442Y-15710686D01*
X7821490Y-15720210D01*
X7831014Y-15729733D01*
X7840538Y-15748781D01*
X7840538Y-15805924D01*
X7831014Y-15824971D01*
X7821490Y-15834495D01*
X7802442Y-15844019D01*
X7773871Y-15844019D01*
X7954823Y-15844019D02*
X7935776Y-15834495D01*
X7926252Y-15815448D01*
X7926252Y-15644019D01*
X8107204Y-15834495D02*
X8088157Y-15844019D01*
X8050061Y-15844019D01*
X8031014Y-15834495D01*
X8021490Y-15815448D01*
X8021490Y-15739257D01*
X8031014Y-15720210D01*
X8050061Y-15710686D01*
X8088157Y-15710686D01*
X8107204Y-15720210D01*
X8116728Y-15739257D01*
X8116728Y-15758305D01*
X8021490Y-15777352D01*
X8192919Y-15834495D02*
X8211966Y-15844019D01*
X8250061Y-15844019D01*
X8269109Y-15834495D01*
X8278633Y-15815448D01*
X8278633Y-15805924D01*
X8269109Y-15786876D01*
X8250061Y-15777352D01*
X8221490Y-15777352D01*
X8202442Y-15767829D01*
X8192919Y-15748781D01*
X8192919Y-15739257D01*
X8202442Y-15720210D01*
X8221490Y-15710686D01*
X8250061Y-15710686D01*
X8269109Y-15720210D01*
X8516728Y-15767829D02*
X8669109Y-15767829D01*
X8592919Y-15844019D02*
X8592919Y-15691638D01*
X9002442Y-15644019D02*
X8964347Y-15644019D01*
X8945300Y-15653543D01*
X8935776Y-15663067D01*
X8916728Y-15691638D01*
X8907204Y-15729733D01*
X8907204Y-15805924D01*
X8916728Y-15824971D01*
X8926252Y-15834495D01*
X8945300Y-15844019D01*
X8983395Y-15844019D01*
X9002442Y-15834495D01*
X9011966Y-15824971D01*
X9021490Y-15805924D01*
X9021490Y-15758305D01*
X9011966Y-15739257D01*
X9002442Y-15729733D01*
X8983395Y-15720210D01*
X8945300Y-15720210D01*
X8926252Y-15729733D01*
X8916728Y-15739257D01*
X8907204Y-15758305D01*
X9250061Y-15834495D02*
X9269109Y-15844019D01*
X9307204Y-15844019D01*
X9326252Y-15834495D01*
X9335776Y-15815448D01*
X9335776Y-15805924D01*
X9326252Y-15786876D01*
X9307204Y-15777352D01*
X9278633Y-15777352D01*
X9259585Y-15767829D01*
X9250061Y-15748781D01*
X9250061Y-15739257D01*
X9259585Y-15720210D01*
X9278633Y-15710686D01*
X9307204Y-15710686D01*
X9326252Y-15720210D01*
X9450061Y-15844019D02*
X9431014Y-15834495D01*
X9421490Y-15815448D01*
X9421490Y-15644019D01*
X9554823Y-15844019D02*
X9535776Y-15834495D01*
X9526252Y-15824971D01*
X9516728Y-15805924D01*
X9516728Y-15748781D01*
X9526252Y-15729733D01*
X9535776Y-15720210D01*
X9554823Y-15710686D01*
X9583395Y-15710686D01*
X9602442Y-15720210D01*
X9611966Y-15729733D01*
X9621490Y-15748781D01*
X9621490Y-15805924D01*
X9611966Y-15824971D01*
X9602442Y-15834495D01*
X9583395Y-15844019D01*
X9554823Y-15844019D01*
X9678633Y-15710686D02*
X9754823Y-15710686D01*
X9707204Y-15644019D02*
X9707204Y-15815448D01*
X9716728Y-15834495D01*
X9735776Y-15844019D01*
X9754823Y-15844019D01*
X9811966Y-15834495D02*
X9831014Y-15844019D01*
X9869109Y-15844019D01*
X9888157Y-15834495D01*
X9897681Y-15815448D01*
X9897681Y-15805924D01*
X9888157Y-15786876D01*
X9869109Y-15777352D01*
X9840538Y-15777352D01*
X9821490Y-15767829D01*
X9811966Y-15748781D01*
X9811966Y-15739257D01*
X9821490Y-15720210D01*
X9840538Y-15710686D01*
X9869109Y-15710686D01*
X9888157Y-15720210D01*
X9964347Y-15920210D02*
X9973871Y-15910686D01*
X9992919Y-15882114D01*
X10002442Y-15863067D01*
X10011966Y-15834495D01*
X10021490Y-15786876D01*
X10021490Y-15748781D01*
X10011966Y-15701162D01*
X10002442Y-15672591D01*
X9992919Y-15653543D01*
X9973871Y-15624971D01*
X9964347Y-15615448D01*
X10326252Y-15920210D02*
X10316728Y-15910686D01*
X10297681Y-15882114D01*
X10288157Y-15863067D01*
X10278633Y-15834495D01*
X10269109Y-15786876D01*
X10269109Y-15748781D01*
X10278633Y-15701162D01*
X10288157Y-15672591D01*
X10297681Y-15653543D01*
X10316728Y-15624971D01*
X10326252Y-15615448D01*
X10402442Y-15710686D02*
X10402442Y-15844019D01*
X10402442Y-15729733D02*
X10411966Y-15720210D01*
X10431014Y-15710686D01*
X10459585Y-15710686D01*
X10478633Y-15720210D01*
X10488157Y-15739257D01*
X10488157Y-15844019D01*
X10611966Y-15844019D02*
X10592919Y-15834495D01*
X10583395Y-15824971D01*
X10573871Y-15805924D01*
X10573871Y-15748781D01*
X10583395Y-15729733D01*
X10592919Y-15720210D01*
X10611966Y-15710686D01*
X10640538Y-15710686D01*
X10659585Y-15720210D01*
X10669109Y-15729733D01*
X10678633Y-15748781D01*
X10678633Y-15805924D01*
X10669109Y-15824971D01*
X10659585Y-15834495D01*
X10640538Y-15844019D01*
X10611966Y-15844019D01*
X10735776Y-15710686D02*
X10811966Y-15710686D01*
X10764347Y-15644019D02*
X10764347Y-15815448D01*
X10773871Y-15834495D01*
X10792919Y-15844019D01*
X10811966Y-15844019D01*
X11031014Y-15710686D02*
X11031014Y-15910686D01*
X11031014Y-15720210D02*
X11050061Y-15710686D01*
X11088157Y-15710686D01*
X11107204Y-15720210D01*
X11116728Y-15729733D01*
X11126252Y-15748781D01*
X11126252Y-15805924D01*
X11116728Y-15824971D01*
X11107204Y-15834495D01*
X11088157Y-15844019D01*
X11050061Y-15844019D01*
X11031014Y-15834495D01*
X11240538Y-15844019D02*
X11221490Y-15834495D01*
X11211966Y-15815448D01*
X11211966Y-15644019D01*
X11402442Y-15844019D02*
X11402442Y-15739257D01*
X11392919Y-15720210D01*
X11373871Y-15710686D01*
X11335776Y-15710686D01*
X11316728Y-15720210D01*
X11402442Y-15834495D02*
X11383395Y-15844019D01*
X11335776Y-15844019D01*
X11316728Y-15834495D01*
X11307204Y-15815448D01*
X11307204Y-15796400D01*
X11316728Y-15777352D01*
X11335776Y-15767829D01*
X11383395Y-15767829D01*
X11402442Y-15758305D01*
X11469109Y-15710686D02*
X11545299Y-15710686D01*
X11497680Y-15644019D02*
X11497680Y-15815448D01*
X11507204Y-15834495D01*
X11526252Y-15844019D01*
X11545299Y-15844019D01*
X11688157Y-15834495D02*
X11669109Y-15844019D01*
X11631014Y-15844019D01*
X11611966Y-15834495D01*
X11602442Y-15815448D01*
X11602442Y-15739257D01*
X11611966Y-15720210D01*
X11631014Y-15710686D01*
X11669109Y-15710686D01*
X11688157Y-15720210D01*
X11697680Y-15739257D01*
X11697680Y-15758305D01*
X11602442Y-15777352D01*
X11869109Y-15844019D02*
X11869109Y-15644019D01*
X11869109Y-15834495D02*
X11850061Y-15844019D01*
X11811966Y-15844019D01*
X11792919Y-15834495D01*
X11783395Y-15824971D01*
X11773871Y-15805924D01*
X11773871Y-15748781D01*
X11783395Y-15729733D01*
X11792919Y-15720210D01*
X11811966Y-15710686D01*
X11850061Y-15710686D01*
X11869109Y-15720210D01*
X11945299Y-15920210D02*
X11954823Y-15910686D01*
X11973871Y-15882114D01*
X11983395Y-15863067D01*
X11992919Y-15834495D01*
X12002442Y-15786876D01*
X12002442Y-15748781D01*
X11992919Y-15701162D01*
X11983395Y-15672591D01*
X11973871Y-15653543D01*
X11954823Y-15624971D01*
X11945299Y-15615448D01*
X3473395Y-16173543D02*
X3573395Y-16073543D01*
X3473395Y-15973543D01*
X3373395Y-16073543D01*
X3473395Y-16173543D01*
X3916728Y-16030686D02*
X3916728Y-16164019D01*
X3869109Y-15954495D02*
X3821490Y-16097352D01*
X3945299Y-16097352D01*
X4021490Y-16144971D02*
X4031014Y-16154495D01*
X4021490Y-16164019D01*
X4011966Y-16154495D01*
X4021490Y-16144971D01*
X4021490Y-16164019D01*
X4126252Y-16164019D02*
X4164347Y-16164019D01*
X4183395Y-16154495D01*
X4192919Y-16144971D01*
X4211966Y-16116400D01*
X4221490Y-16078305D01*
X4221490Y-16002114D01*
X4211966Y-15983067D01*
X4202442Y-15973543D01*
X4183395Y-15964019D01*
X4145299Y-15964019D01*
X4126252Y-15973543D01*
X4116728Y-15983067D01*
X4107204Y-16002114D01*
X4107204Y-16049733D01*
X4116728Y-16068781D01*
X4126252Y-16078305D01*
X4145299Y-16087829D01*
X4183395Y-16087829D01*
X4202442Y-16078305D01*
X4211966Y-16068781D01*
X4221490Y-16049733D01*
X4345300Y-15964019D02*
X4364347Y-15964019D01*
X4383395Y-15973543D01*
X4392919Y-15983067D01*
X4402442Y-16002114D01*
X4411966Y-16040210D01*
X4411966Y-16087829D01*
X4402442Y-16125924D01*
X4392919Y-16144971D01*
X4383395Y-16154495D01*
X4364347Y-16164019D01*
X4345300Y-16164019D01*
X4326252Y-16154495D01*
X4316728Y-16144971D01*
X4307204Y-16125924D01*
X4297681Y-16087829D01*
X4297681Y-16040210D01*
X4307204Y-16002114D01*
X4316728Y-15983067D01*
X4326252Y-15973543D01*
X4345300Y-15964019D01*
X4535776Y-15964019D02*
X4554823Y-15964019D01*
X4573871Y-15973543D01*
X4583395Y-15983067D01*
X4592919Y-16002114D01*
X4602442Y-16040210D01*
X4602442Y-16087829D01*
X4592919Y-16125924D01*
X4583395Y-16144971D01*
X4573871Y-16154495D01*
X4554823Y-16164019D01*
X4535776Y-16164019D01*
X4516728Y-16154495D01*
X4507204Y-16144971D01*
X4497681Y-16125924D01*
X4488157Y-16087829D01*
X4488157Y-16040210D01*
X4497681Y-16002114D01*
X4507204Y-15983067D01*
X4516728Y-15973543D01*
X4535776Y-15964019D01*
X4688157Y-16164019D02*
X4688157Y-16030686D01*
X4688157Y-16049733D02*
X4697681Y-16040210D01*
X4716728Y-16030686D01*
X4745300Y-16030686D01*
X4764347Y-16040210D01*
X4773871Y-16059257D01*
X4773871Y-16164019D01*
X4773871Y-16059257D02*
X4783395Y-16040210D01*
X4802442Y-16030686D01*
X4831014Y-16030686D01*
X4850061Y-16040210D01*
X4859585Y-16059257D01*
X4859585Y-16164019D01*
X4954823Y-16164019D02*
X4954823Y-16030686D01*
X4954823Y-16049733D02*
X4964347Y-16040210D01*
X4983395Y-16030686D01*
X5011966Y-16030686D01*
X5031014Y-16040210D01*
X5040538Y-16059257D01*
X5040538Y-16164019D01*
X5040538Y-16059257D02*
X5050061Y-16040210D01*
X5069109Y-16030686D01*
X5097681Y-16030686D01*
X5116728Y-16040210D01*
X5126252Y-16059257D01*
X5126252Y-16164019D01*
X5516728Y-15954495D02*
X5345300Y-16211638D01*
X5773871Y-15964019D02*
X5792919Y-15964019D01*
X5811966Y-15973543D01*
X5821490Y-15983067D01*
X5831014Y-16002114D01*
X5840538Y-16040210D01*
X5840538Y-16087829D01*
X5831014Y-16125924D01*
X5821490Y-16144971D01*
X5811966Y-16154495D01*
X5792919Y-16164019D01*
X5773871Y-16164019D01*
X5754823Y-16154495D01*
X5745299Y-16144971D01*
X5735776Y-16125924D01*
X5726252Y-16087829D01*
X5726252Y-16040210D01*
X5735776Y-16002114D01*
X5745299Y-15983067D01*
X5754823Y-15973543D01*
X5773871Y-15964019D01*
X5926252Y-16144971D02*
X5935776Y-16154495D01*
X5926252Y-16164019D01*
X5916728Y-16154495D01*
X5926252Y-16144971D01*
X5926252Y-16164019D01*
X6126252Y-16164019D02*
X6011966Y-16164019D01*
X6069109Y-16164019D02*
X6069109Y-15964019D01*
X6050061Y-15992591D01*
X6031014Y-16011638D01*
X6011966Y-16021162D01*
X6221490Y-16164019D02*
X6259585Y-16164019D01*
X6278633Y-16154495D01*
X6288157Y-16144971D01*
X6307204Y-16116400D01*
X6316728Y-16078305D01*
X6316728Y-16002114D01*
X6307204Y-15983067D01*
X6297680Y-15973543D01*
X6278633Y-15964019D01*
X6240538Y-15964019D01*
X6221490Y-15973543D01*
X6211966Y-15983067D01*
X6202442Y-16002114D01*
X6202442Y-16049733D01*
X6211966Y-16068781D01*
X6221490Y-16078305D01*
X6240538Y-16087829D01*
X6278633Y-16087829D01*
X6297680Y-16078305D01*
X6307204Y-16068781D01*
X6316728Y-16049733D01*
X6392919Y-15983067D02*
X6402442Y-15973543D01*
X6421490Y-15964019D01*
X6469109Y-15964019D01*
X6488157Y-15973543D01*
X6497680Y-15983067D01*
X6507204Y-16002114D01*
X6507204Y-16021162D01*
X6497680Y-16049733D01*
X6383395Y-16164019D01*
X6507204Y-16164019D01*
X6602442Y-16164019D02*
X6640538Y-16164019D01*
X6659585Y-16154495D01*
X6669109Y-16144971D01*
X6688157Y-16116400D01*
X6697680Y-16078305D01*
X6697680Y-16002114D01*
X6688157Y-15983067D01*
X6678633Y-15973543D01*
X6659585Y-15964019D01*
X6621490Y-15964019D01*
X6602442Y-15973543D01*
X6592919Y-15983067D01*
X6583395Y-16002114D01*
X6583395Y-16049733D01*
X6592919Y-16068781D01*
X6602442Y-16078305D01*
X6621490Y-16087829D01*
X6659585Y-16087829D01*
X6678633Y-16078305D01*
X6688157Y-16068781D01*
X6697680Y-16049733D01*
X6773871Y-15964019D02*
X6773871Y-16002114D01*
X6850061Y-15964019D02*
X6850061Y-16002114D01*
X7145299Y-16240210D02*
X7135776Y-16230686D01*
X7116728Y-16202114D01*
X7107204Y-16183067D01*
X7097680Y-16154495D01*
X7088157Y-16106876D01*
X7088157Y-16068781D01*
X7097680Y-16021162D01*
X7107204Y-15992591D01*
X7116728Y-15973543D01*
X7135776Y-15944971D01*
X7145299Y-15935448D01*
X7307204Y-16030686D02*
X7307204Y-16164019D01*
X7259585Y-15954495D02*
X7211966Y-16097352D01*
X7335776Y-16097352D01*
X7564347Y-16164019D02*
X7564347Y-15964019D01*
X7650061Y-16164019D02*
X7650061Y-16059257D01*
X7640538Y-16040210D01*
X7621490Y-16030686D01*
X7592919Y-16030686D01*
X7573871Y-16040210D01*
X7564347Y-16049733D01*
X7773871Y-16164019D02*
X7754823Y-16154495D01*
X7745299Y-16144971D01*
X7735776Y-16125924D01*
X7735776Y-16068781D01*
X7745299Y-16049733D01*
X7754823Y-16040210D01*
X7773871Y-16030686D01*
X7802442Y-16030686D01*
X7821490Y-16040210D01*
X7831014Y-16049733D01*
X7840538Y-16068781D01*
X7840538Y-16125924D01*
X7831014Y-16144971D01*
X7821490Y-16154495D01*
X7802442Y-16164019D01*
X7773871Y-16164019D01*
X7954823Y-16164019D02*
X7935776Y-16154495D01*
X7926252Y-16135448D01*
X7926252Y-15964019D01*
X8107204Y-16154495D02*
X8088157Y-16164019D01*
X8050061Y-16164019D01*
X8031014Y-16154495D01*
X8021490Y-16135448D01*
X8021490Y-16059257D01*
X8031014Y-16040210D01*
X8050061Y-16030686D01*
X8088157Y-16030686D01*
X8107204Y-16040210D01*
X8116728Y-16059257D01*
X8116728Y-16078305D01*
X8021490Y-16097352D01*
X8192919Y-16154495D02*
X8211966Y-16164019D01*
X8250061Y-16164019D01*
X8269109Y-16154495D01*
X8278633Y-16135448D01*
X8278633Y-16125924D01*
X8269109Y-16106876D01*
X8250061Y-16097352D01*
X8221490Y-16097352D01*
X8202442Y-16087829D01*
X8192919Y-16068781D01*
X8192919Y-16059257D01*
X8202442Y-16040210D01*
X8221490Y-16030686D01*
X8250061Y-16030686D01*
X8269109Y-16040210D01*
X8345299Y-16240210D02*
X8354823Y-16230686D01*
X8373871Y-16202114D01*
X8383395Y-16183067D01*
X8392919Y-16154495D01*
X8402442Y-16106876D01*
X8402442Y-16068781D01*
X8392919Y-16021162D01*
X8383395Y-15992591D01*
X8373871Y-15973543D01*
X8354823Y-15944971D01*
X8345299Y-15935448D01*
X8707204Y-16240210D02*
X8697681Y-16230686D01*
X8678633Y-16202114D01*
X8669109Y-16183067D01*
X8659585Y-16154495D01*
X8650061Y-16106876D01*
X8650061Y-16068781D01*
X8659585Y-16021162D01*
X8669109Y-15992591D01*
X8678633Y-15973543D01*
X8697681Y-15944971D01*
X8707204Y-15935448D01*
X8783395Y-16030686D02*
X8783395Y-16164019D01*
X8783395Y-16049733D02*
X8792919Y-16040210D01*
X8811966Y-16030686D01*
X8840538Y-16030686D01*
X8859585Y-16040210D01*
X8869109Y-16059257D01*
X8869109Y-16164019D01*
X8992919Y-16164019D02*
X8973871Y-16154495D01*
X8964347Y-16144971D01*
X8954823Y-16125924D01*
X8954823Y-16068781D01*
X8964347Y-16049733D01*
X8973871Y-16040210D01*
X8992919Y-16030686D01*
X9021490Y-16030686D01*
X9040538Y-16040210D01*
X9050061Y-16049733D01*
X9059585Y-16068781D01*
X9059585Y-16125924D01*
X9050061Y-16144971D01*
X9040538Y-16154495D01*
X9021490Y-16164019D01*
X8992919Y-16164019D01*
X9116728Y-16030686D02*
X9192919Y-16030686D01*
X9145300Y-15964019D02*
X9145300Y-16135448D01*
X9154823Y-16154495D01*
X9173871Y-16164019D01*
X9192919Y-16164019D01*
X9411966Y-16030686D02*
X9411966Y-16230686D01*
X9411966Y-16040210D02*
X9431014Y-16030686D01*
X9469109Y-16030686D01*
X9488157Y-16040210D01*
X9497681Y-16049733D01*
X9507204Y-16068781D01*
X9507204Y-16125924D01*
X9497681Y-16144971D01*
X9488157Y-16154495D01*
X9469109Y-16164019D01*
X9431014Y-16164019D01*
X9411966Y-16154495D01*
X9621490Y-16164019D02*
X9602442Y-16154495D01*
X9592919Y-16135448D01*
X9592919Y-15964019D01*
X9783395Y-16164019D02*
X9783395Y-16059257D01*
X9773871Y-16040210D01*
X9754823Y-16030686D01*
X9716728Y-16030686D01*
X9697681Y-16040210D01*
X9783395Y-16154495D02*
X9764347Y-16164019D01*
X9716728Y-16164019D01*
X9697681Y-16154495D01*
X9688157Y-16135448D01*
X9688157Y-16116400D01*
X9697681Y-16097352D01*
X9716728Y-16087829D01*
X9764347Y-16087829D01*
X9783395Y-16078305D01*
X9850061Y-16030686D02*
X9926252Y-16030686D01*
X9878633Y-15964019D02*
X9878633Y-16135448D01*
X9888157Y-16154495D01*
X9907204Y-16164019D01*
X9926252Y-16164019D01*
X10069109Y-16154495D02*
X10050061Y-16164019D01*
X10011966Y-16164019D01*
X9992919Y-16154495D01*
X9983395Y-16135448D01*
X9983395Y-16059257D01*
X9992919Y-16040210D01*
X10011966Y-16030686D01*
X10050061Y-16030686D01*
X10069109Y-16040210D01*
X10078633Y-16059257D01*
X10078633Y-16078305D01*
X9983395Y-16097352D01*
X10250061Y-16164019D02*
X10250061Y-15964019D01*
X10250061Y-16154495D02*
X10231014Y-16164019D01*
X10192919Y-16164019D01*
X10173871Y-16154495D01*
X10164347Y-16144971D01*
X10154823Y-16125924D01*
X10154823Y-16068781D01*
X10164347Y-16049733D01*
X10173871Y-16040210D01*
X10192919Y-16030686D01*
X10231014Y-16030686D01*
X10250061Y-16040210D01*
X10326252Y-16240210D02*
X10335776Y-16230686D01*
X10354823Y-16202114D01*
X10364347Y-16183067D01*
X10373871Y-16154495D01*
X10383395Y-16106876D01*
X10383395Y-16068781D01*
X10373871Y-16021162D01*
X10364347Y-15992591D01*
X10354823Y-15973543D01*
X10335776Y-15944971D01*
X10326252Y-15935448D01*
M02*
