%TF.GenerationSoftware,KiCad,Pcbnew,(6.0.11-0)*%
%TF.CreationDate,2023-02-07T20:00:46+09:00*%
%TF.ProjectId,pangaea-pcb-thumb-k2_leftcut4keys,70616e67-6165-4612-9d70-63622d746875,1*%
%TF.SameCoordinates,Original*%
%TF.FileFunction,Drillmap*%
%TF.FilePolarity,Positive*%
%FSLAX45Y45*%
G04 Gerber Fmt 4.5, Leading zero omitted, Abs format (unit mm)*
G04 Created by KiCad (PCBNEW (6.0.11-0)) date 2023-02-07 20:00:46*
%MOMM*%
%LPD*%
G01*
G04 APERTURE LIST*
%ADD10C,0.150000*%
%ADD11C,0.200000*%
%ADD12C,0.040000*%
%ADD13C,0.075000*%
%ADD14C,0.100000*%
%ADD15C,0.128000*%
%ADD16C,0.300000*%
G04 APERTURE END LIST*
D10*
X9930006Y-12007044D02*
G75*
G03*
X9832792Y-12063171I-20546J-76666D01*
G01*
X9923726Y-12412997D02*
G75*
G03*
X10020938Y-12356874I20544J76667D01*
G01*
X9805428Y-12947212D02*
X9897560Y-12697550D01*
X3888962Y-13595208D02*
G75*
G03*
X3990693Y-13642650I74588J27148D01*
G01*
X9683722Y-12914600D02*
X9728764Y-12652322D01*
X9897565Y-12697551D02*
G75*
G03*
X9841433Y-12600335I-76675J20541D01*
G01*
X11370816Y-14219383D02*
X11972579Y-12567271D01*
X9792248Y-12295598D02*
G75*
G03*
X9848382Y-12392813I76672J-20542D01*
G01*
X3626001Y-11777002D02*
G75*
G03*
X3585000Y-11870000I29579J-68578D01*
G01*
X9930006Y-12007044D02*
X10045918Y-12038103D01*
X9848382Y-12392813D02*
X9923723Y-12413000D01*
X11972584Y-12567273D02*
G75*
G03*
X11931948Y-12472472I-75184J23883D01*
G01*
X10020938Y-12356874D02*
X10102044Y-12135316D01*
X11931948Y-12472472D02*
G75*
G03*
X3626000Y-11777000I-5198363J-12137225D01*
G01*
X9683732Y-12914603D02*
G75*
G03*
X9805429Y-12947211I60848J-16307D01*
G01*
X9825978Y-12596195D02*
X9841433Y-12600335D01*
X9832792Y-12063171D02*
X9792254Y-12295599D01*
X11270851Y-14257206D02*
G75*
G03*
X3990693Y-13642650I-4544050J-10401346D01*
G01*
X9825976Y-12596203D02*
G75*
G03*
X9728764Y-12652322I-20546J-76667D01*
G01*
X11270852Y-14257206D02*
G75*
G03*
X11370816Y-14219383I31308J68266D01*
G01*
X10102038Y-12135316D02*
G75*
G03*
X10045918Y-12038103I-76668J20546D01*
G01*
X3888957Y-13595210D02*
X3585000Y-11870000D01*
D11*
D12*
X5355949Y-11946581D02*
X5395949Y-11986581D01*
X5395949Y-11946581D02*
X5355949Y-11986581D01*
X5723943Y-12303197D02*
X5763943Y-12343197D01*
X5763943Y-12303197D02*
X5723943Y-12343197D01*
X7633401Y-12701556D02*
X7673401Y-12741556D01*
X7673401Y-12701556D02*
X7633401Y-12741556D01*
X7698521Y-12192494D02*
X7738521Y-12232494D01*
X7738521Y-12192494D02*
X7698521Y-12232494D01*
X7816371Y-11519358D02*
X7856371Y-11559358D01*
X7856371Y-11519358D02*
X7816371Y-11559358D01*
D13*
X4250343Y-11769382D02*
G75*
G03*
X4250343Y-11769382I-37500J0D01*
G01*
X4875696Y-11659115D02*
G75*
G03*
X4875696Y-11659115I-37500J0D01*
G01*
X6446317Y-11521925D02*
G75*
G03*
X6446317Y-11521925I-37500J0D01*
G01*
X7081317Y-11521925D02*
G75*
G03*
X7081317Y-11521925I-37500J0D01*
G01*
X8651637Y-11659370D02*
G75*
G03*
X8651637Y-11659370I-37500J0D01*
G01*
X9276990Y-11769637D02*
G75*
G03*
X9276990Y-11769637I-37500J0D01*
G01*
X10800051Y-12177563D02*
G75*
G03*
X10800051Y-12177563I-37500J0D01*
G01*
X11396756Y-12394746D02*
G75*
G03*
X11396756Y-12394746I-37500J0D01*
G01*
D14*
X5362746Y-11704086D02*
X5362746Y-11804086D01*
X5312746Y-11754086D02*
X5412746Y-11754086D01*
X5920615Y-11655279D02*
X5920615Y-11755279D01*
X5870615Y-11705279D02*
X5970615Y-11705279D01*
X7532018Y-11655279D02*
X7532018Y-11755279D01*
X7482018Y-11705279D02*
X7582018Y-11705279D01*
X8089887Y-11704086D02*
X8089887Y-11804086D01*
X8039887Y-11754086D02*
X8139887Y-11754086D01*
D15*
X10394139Y-12198401D02*
X10394139Y-12107890D01*
X10303628Y-12107890D01*
X10303628Y-12198401D01*
X10394139Y-12198401D01*
X11248231Y-14029975D02*
X11248231Y-13939464D01*
X11157720Y-13939464D01*
X11157720Y-14029975D01*
X11248231Y-14029975D01*
X11736803Y-12687309D02*
X11736803Y-12596798D01*
X11646293Y-12596798D01*
X11646293Y-12687309D01*
X11736803Y-12687309D01*
D16*
X4242090Y-13136228D02*
X4392090Y-12986228D01*
X4242090Y-12836228D01*
X4092089Y-12986228D01*
X4242090Y-13136228D01*
X4250925Y-12501043D02*
X4400925Y-12351043D01*
X4250925Y-12201043D01*
X4100925Y-12351043D01*
X4250925Y-12501043D01*
X4772696Y-13266061D02*
X4922696Y-13116061D01*
X4772696Y-12966061D01*
X4622696Y-13116061D01*
X4772696Y-13266061D01*
X4832172Y-12140636D02*
X4982172Y-11990636D01*
X4832172Y-11840636D01*
X4682172Y-11990636D01*
X4832172Y-12140636D01*
X6226317Y-12875362D02*
X6376317Y-12725362D01*
X6226317Y-12575362D01*
X6076317Y-12725362D01*
X6226317Y-12875362D01*
X6345317Y-12251362D02*
X6495317Y-12101362D01*
X6345317Y-11951362D01*
X6195317Y-12101362D01*
X6345317Y-12251362D01*
X6726317Y-13095362D02*
X6876317Y-12945362D01*
X6726317Y-12795362D01*
X6576317Y-12945362D01*
X6726317Y-13095362D01*
X6980317Y-11997362D02*
X7130317Y-11847362D01*
X6980317Y-11697362D01*
X6830317Y-11847362D01*
X6980317Y-11997362D01*
X8225435Y-12962834D02*
X8375435Y-12812834D01*
X8225435Y-12662834D01*
X8075435Y-12812834D01*
X8225435Y-12962834D01*
X8450983Y-12368978D02*
X8600983Y-12218978D01*
X8450983Y-12068978D01*
X8300983Y-12218978D01*
X8450983Y-12368978D01*
X8679636Y-13266316D02*
X8829636Y-13116316D01*
X8679636Y-12966316D01*
X8529636Y-13116316D01*
X8679636Y-13266316D01*
X9120443Y-12229103D02*
X9270443Y-12079103D01*
X9120443Y-11929103D01*
X8970443Y-12079103D01*
X9120443Y-12229103D01*
X10179457Y-13396006D02*
X10329457Y-13246006D01*
X10179457Y-13096006D01*
X10029457Y-13246006D01*
X10179457Y-13396006D01*
X10504701Y-12850338D02*
X10654701Y-12700338D01*
X10504701Y-12550338D01*
X10354701Y-12700338D01*
X10504701Y-12850338D01*
X10574059Y-13773748D02*
X10724059Y-13623748D01*
X10574059Y-13473748D01*
X10424059Y-13623748D01*
X10574059Y-13773748D01*
X11188279Y-12828839D02*
X11338279Y-12678839D01*
X11188279Y-12528839D01*
X11038279Y-12678839D01*
X11188279Y-12828839D01*
D11*
X3831014Y-14582019D02*
X3831014Y-14382019D01*
X3878633Y-14382019D01*
X3907204Y-14391543D01*
X3926252Y-14410591D01*
X3935776Y-14429638D01*
X3945299Y-14467733D01*
X3945299Y-14496305D01*
X3935776Y-14534400D01*
X3926252Y-14553448D01*
X3907204Y-14572495D01*
X3878633Y-14582019D01*
X3831014Y-14582019D01*
X4031014Y-14582019D02*
X4031014Y-14448686D01*
X4031014Y-14486781D02*
X4040538Y-14467733D01*
X4050061Y-14458210D01*
X4069109Y-14448686D01*
X4088157Y-14448686D01*
X4154823Y-14582019D02*
X4154823Y-14448686D01*
X4154823Y-14382019D02*
X4145299Y-14391543D01*
X4154823Y-14401067D01*
X4164347Y-14391543D01*
X4154823Y-14382019D01*
X4154823Y-14401067D01*
X4278633Y-14582019D02*
X4259585Y-14572495D01*
X4250061Y-14553448D01*
X4250061Y-14382019D01*
X4383395Y-14582019D02*
X4364347Y-14572495D01*
X4354823Y-14553448D01*
X4354823Y-14382019D01*
X4611966Y-14582019D02*
X4611966Y-14382019D01*
X4678633Y-14524876D01*
X4745300Y-14382019D01*
X4745300Y-14582019D01*
X4926252Y-14582019D02*
X4926252Y-14477257D01*
X4916728Y-14458210D01*
X4897681Y-14448686D01*
X4859585Y-14448686D01*
X4840538Y-14458210D01*
X4926252Y-14572495D02*
X4907204Y-14582019D01*
X4859585Y-14582019D01*
X4840538Y-14572495D01*
X4831014Y-14553448D01*
X4831014Y-14534400D01*
X4840538Y-14515352D01*
X4859585Y-14505829D01*
X4907204Y-14505829D01*
X4926252Y-14496305D01*
X5021490Y-14448686D02*
X5021490Y-14648686D01*
X5021490Y-14458210D02*
X5040538Y-14448686D01*
X5078633Y-14448686D01*
X5097681Y-14458210D01*
X5107204Y-14467733D01*
X5116728Y-14486781D01*
X5116728Y-14543924D01*
X5107204Y-14562971D01*
X5097681Y-14572495D01*
X5078633Y-14582019D01*
X5040538Y-14582019D01*
X5021490Y-14572495D01*
X5202442Y-14562971D02*
X5211966Y-14572495D01*
X5202442Y-14582019D01*
X5192919Y-14572495D01*
X5202442Y-14562971D01*
X5202442Y-14582019D01*
X5202442Y-14458210D02*
X5211966Y-14467733D01*
X5202442Y-14477257D01*
X5192919Y-14467733D01*
X5202442Y-14458210D01*
X5202442Y-14477257D01*
D12*
X3533395Y-14891543D02*
X3573395Y-14931543D01*
X3573395Y-14891543D02*
X3533395Y-14931543D01*
D11*
X3869109Y-14802019D02*
X3888157Y-14802019D01*
X3907204Y-14811543D01*
X3916728Y-14821067D01*
X3926252Y-14840114D01*
X3935776Y-14878210D01*
X3935776Y-14925829D01*
X3926252Y-14963924D01*
X3916728Y-14982971D01*
X3907204Y-14992495D01*
X3888157Y-15002019D01*
X3869109Y-15002019D01*
X3850061Y-14992495D01*
X3840538Y-14982971D01*
X3831014Y-14963924D01*
X3821490Y-14925829D01*
X3821490Y-14878210D01*
X3831014Y-14840114D01*
X3840538Y-14821067D01*
X3850061Y-14811543D01*
X3869109Y-14802019D01*
X4021490Y-14982971D02*
X4031014Y-14992495D01*
X4021490Y-15002019D01*
X4011966Y-14992495D01*
X4021490Y-14982971D01*
X4021490Y-15002019D01*
X4202442Y-14868686D02*
X4202442Y-15002019D01*
X4154823Y-14792495D02*
X4107204Y-14935352D01*
X4231014Y-14935352D01*
X4345300Y-14802019D02*
X4364347Y-14802019D01*
X4383395Y-14811543D01*
X4392919Y-14821067D01*
X4402442Y-14840114D01*
X4411966Y-14878210D01*
X4411966Y-14925829D01*
X4402442Y-14963924D01*
X4392919Y-14982971D01*
X4383395Y-14992495D01*
X4364347Y-15002019D01*
X4345300Y-15002019D01*
X4326252Y-14992495D01*
X4316728Y-14982971D01*
X4307204Y-14963924D01*
X4297681Y-14925829D01*
X4297681Y-14878210D01*
X4307204Y-14840114D01*
X4316728Y-14821067D01*
X4326252Y-14811543D01*
X4345300Y-14802019D01*
X4535776Y-14802019D02*
X4554823Y-14802019D01*
X4573871Y-14811543D01*
X4583395Y-14821067D01*
X4592919Y-14840114D01*
X4602442Y-14878210D01*
X4602442Y-14925829D01*
X4592919Y-14963924D01*
X4583395Y-14982971D01*
X4573871Y-14992495D01*
X4554823Y-15002019D01*
X4535776Y-15002019D01*
X4516728Y-14992495D01*
X4507204Y-14982971D01*
X4497681Y-14963924D01*
X4488157Y-14925829D01*
X4488157Y-14878210D01*
X4497681Y-14840114D01*
X4507204Y-14821067D01*
X4516728Y-14811543D01*
X4535776Y-14802019D01*
X4688157Y-15002019D02*
X4688157Y-14868686D01*
X4688157Y-14887733D02*
X4697681Y-14878210D01*
X4716728Y-14868686D01*
X4745300Y-14868686D01*
X4764347Y-14878210D01*
X4773871Y-14897257D01*
X4773871Y-15002019D01*
X4773871Y-14897257D02*
X4783395Y-14878210D01*
X4802442Y-14868686D01*
X4831014Y-14868686D01*
X4850061Y-14878210D01*
X4859585Y-14897257D01*
X4859585Y-15002019D01*
X4954823Y-15002019D02*
X4954823Y-14868686D01*
X4954823Y-14887733D02*
X4964347Y-14878210D01*
X4983395Y-14868686D01*
X5011966Y-14868686D01*
X5031014Y-14878210D01*
X5040538Y-14897257D01*
X5040538Y-15002019D01*
X5040538Y-14897257D02*
X5050061Y-14878210D01*
X5069109Y-14868686D01*
X5097681Y-14868686D01*
X5116728Y-14878210D01*
X5126252Y-14897257D01*
X5126252Y-15002019D01*
X5516728Y-14792495D02*
X5345300Y-15049638D01*
X5773871Y-14802019D02*
X5792919Y-14802019D01*
X5811966Y-14811543D01*
X5821490Y-14821067D01*
X5831014Y-14840114D01*
X5840538Y-14878210D01*
X5840538Y-14925829D01*
X5831014Y-14963924D01*
X5821490Y-14982971D01*
X5811966Y-14992495D01*
X5792919Y-15002019D01*
X5773871Y-15002019D01*
X5754823Y-14992495D01*
X5745299Y-14982971D01*
X5735776Y-14963924D01*
X5726252Y-14925829D01*
X5726252Y-14878210D01*
X5735776Y-14840114D01*
X5745299Y-14821067D01*
X5754823Y-14811543D01*
X5773871Y-14802019D01*
X5926252Y-14982971D02*
X5935776Y-14992495D01*
X5926252Y-15002019D01*
X5916728Y-14992495D01*
X5926252Y-14982971D01*
X5926252Y-15002019D01*
X6059585Y-14802019D02*
X6078633Y-14802019D01*
X6097680Y-14811543D01*
X6107204Y-14821067D01*
X6116728Y-14840114D01*
X6126252Y-14878210D01*
X6126252Y-14925829D01*
X6116728Y-14963924D01*
X6107204Y-14982971D01*
X6097680Y-14992495D01*
X6078633Y-15002019D01*
X6059585Y-15002019D01*
X6040538Y-14992495D01*
X6031014Y-14982971D01*
X6021490Y-14963924D01*
X6011966Y-14925829D01*
X6011966Y-14878210D01*
X6021490Y-14840114D01*
X6031014Y-14821067D01*
X6040538Y-14811543D01*
X6059585Y-14802019D01*
X6316728Y-15002019D02*
X6202442Y-15002019D01*
X6259585Y-15002019D02*
X6259585Y-14802019D01*
X6240538Y-14830591D01*
X6221490Y-14849638D01*
X6202442Y-14859162D01*
X6497680Y-14802019D02*
X6402442Y-14802019D01*
X6392919Y-14897257D01*
X6402442Y-14887733D01*
X6421490Y-14878210D01*
X6469109Y-14878210D01*
X6488157Y-14887733D01*
X6497680Y-14897257D01*
X6507204Y-14916305D01*
X6507204Y-14963924D01*
X6497680Y-14982971D01*
X6488157Y-14992495D01*
X6469109Y-15002019D01*
X6421490Y-15002019D01*
X6402442Y-14992495D01*
X6392919Y-14982971D01*
X6573871Y-14802019D02*
X6707204Y-14802019D01*
X6621490Y-15002019D01*
X6773871Y-14802019D02*
X6773871Y-14840114D01*
X6850061Y-14802019D02*
X6850061Y-14840114D01*
X7145299Y-15078210D02*
X7135776Y-15068686D01*
X7116728Y-15040114D01*
X7107204Y-15021067D01*
X7097680Y-14992495D01*
X7088157Y-14944876D01*
X7088157Y-14906781D01*
X7097680Y-14859162D01*
X7107204Y-14830591D01*
X7116728Y-14811543D01*
X7135776Y-14782971D01*
X7145299Y-14773448D01*
X7316728Y-14802019D02*
X7221490Y-14802019D01*
X7211966Y-14897257D01*
X7221490Y-14887733D01*
X7240538Y-14878210D01*
X7288157Y-14878210D01*
X7307204Y-14887733D01*
X7316728Y-14897257D01*
X7326252Y-14916305D01*
X7326252Y-14963924D01*
X7316728Y-14982971D01*
X7307204Y-14992495D01*
X7288157Y-15002019D01*
X7240538Y-15002019D01*
X7221490Y-14992495D01*
X7211966Y-14982971D01*
X7564347Y-15002019D02*
X7564347Y-14802019D01*
X7650061Y-15002019D02*
X7650061Y-14897257D01*
X7640538Y-14878210D01*
X7621490Y-14868686D01*
X7592919Y-14868686D01*
X7573871Y-14878210D01*
X7564347Y-14887733D01*
X7773871Y-15002019D02*
X7754823Y-14992495D01*
X7745299Y-14982971D01*
X7735776Y-14963924D01*
X7735776Y-14906781D01*
X7745299Y-14887733D01*
X7754823Y-14878210D01*
X7773871Y-14868686D01*
X7802442Y-14868686D01*
X7821490Y-14878210D01*
X7831014Y-14887733D01*
X7840538Y-14906781D01*
X7840538Y-14963924D01*
X7831014Y-14982971D01*
X7821490Y-14992495D01*
X7802442Y-15002019D01*
X7773871Y-15002019D01*
X7954823Y-15002019D02*
X7935776Y-14992495D01*
X7926252Y-14973448D01*
X7926252Y-14802019D01*
X8107204Y-14992495D02*
X8088157Y-15002019D01*
X8050061Y-15002019D01*
X8031014Y-14992495D01*
X8021490Y-14973448D01*
X8021490Y-14897257D01*
X8031014Y-14878210D01*
X8050061Y-14868686D01*
X8088157Y-14868686D01*
X8107204Y-14878210D01*
X8116728Y-14897257D01*
X8116728Y-14916305D01*
X8021490Y-14935352D01*
X8192919Y-14992495D02*
X8211966Y-15002019D01*
X8250061Y-15002019D01*
X8269109Y-14992495D01*
X8278633Y-14973448D01*
X8278633Y-14963924D01*
X8269109Y-14944876D01*
X8250061Y-14935352D01*
X8221490Y-14935352D01*
X8202442Y-14925829D01*
X8192919Y-14906781D01*
X8192919Y-14897257D01*
X8202442Y-14878210D01*
X8221490Y-14868686D01*
X8250061Y-14868686D01*
X8269109Y-14878210D01*
X8345299Y-15078210D02*
X8354823Y-15068686D01*
X8373871Y-15040114D01*
X8383395Y-15021067D01*
X8392919Y-14992495D01*
X8402442Y-14944876D01*
X8402442Y-14906781D01*
X8392919Y-14859162D01*
X8383395Y-14830591D01*
X8373871Y-14811543D01*
X8354823Y-14782971D01*
X8345299Y-14773448D01*
D13*
X3573395Y-15175543D02*
G75*
G03*
X3573395Y-15175543I-37500J0D01*
G01*
D11*
X3869109Y-15066019D02*
X3888157Y-15066019D01*
X3907204Y-15075543D01*
X3916728Y-15085067D01*
X3926252Y-15104114D01*
X3935776Y-15142210D01*
X3935776Y-15189829D01*
X3926252Y-15227924D01*
X3916728Y-15246971D01*
X3907204Y-15256495D01*
X3888157Y-15266019D01*
X3869109Y-15266019D01*
X3850061Y-15256495D01*
X3840538Y-15246971D01*
X3831014Y-15227924D01*
X3821490Y-15189829D01*
X3821490Y-15142210D01*
X3831014Y-15104114D01*
X3840538Y-15085067D01*
X3850061Y-15075543D01*
X3869109Y-15066019D01*
X4021490Y-15246971D02*
X4031014Y-15256495D01*
X4021490Y-15266019D01*
X4011966Y-15256495D01*
X4021490Y-15246971D01*
X4021490Y-15266019D01*
X4097680Y-15066019D02*
X4231014Y-15066019D01*
X4145299Y-15266019D01*
X4402442Y-15066019D02*
X4307204Y-15066019D01*
X4297681Y-15161257D01*
X4307204Y-15151733D01*
X4326252Y-15142210D01*
X4373871Y-15142210D01*
X4392919Y-15151733D01*
X4402442Y-15161257D01*
X4411966Y-15180305D01*
X4411966Y-15227924D01*
X4402442Y-15246971D01*
X4392919Y-15256495D01*
X4373871Y-15266019D01*
X4326252Y-15266019D01*
X4307204Y-15256495D01*
X4297681Y-15246971D01*
X4535776Y-15066019D02*
X4554823Y-15066019D01*
X4573871Y-15075543D01*
X4583395Y-15085067D01*
X4592919Y-15104114D01*
X4602442Y-15142210D01*
X4602442Y-15189829D01*
X4592919Y-15227924D01*
X4583395Y-15246971D01*
X4573871Y-15256495D01*
X4554823Y-15266019D01*
X4535776Y-15266019D01*
X4516728Y-15256495D01*
X4507204Y-15246971D01*
X4497681Y-15227924D01*
X4488157Y-15189829D01*
X4488157Y-15142210D01*
X4497681Y-15104114D01*
X4507204Y-15085067D01*
X4516728Y-15075543D01*
X4535776Y-15066019D01*
X4688157Y-15266019D02*
X4688157Y-15132686D01*
X4688157Y-15151733D02*
X4697681Y-15142210D01*
X4716728Y-15132686D01*
X4745300Y-15132686D01*
X4764347Y-15142210D01*
X4773871Y-15161257D01*
X4773871Y-15266019D01*
X4773871Y-15161257D02*
X4783395Y-15142210D01*
X4802442Y-15132686D01*
X4831014Y-15132686D01*
X4850061Y-15142210D01*
X4859585Y-15161257D01*
X4859585Y-15266019D01*
X4954823Y-15266019D02*
X4954823Y-15132686D01*
X4954823Y-15151733D02*
X4964347Y-15142210D01*
X4983395Y-15132686D01*
X5011966Y-15132686D01*
X5031014Y-15142210D01*
X5040538Y-15161257D01*
X5040538Y-15266019D01*
X5040538Y-15161257D02*
X5050061Y-15142210D01*
X5069109Y-15132686D01*
X5097681Y-15132686D01*
X5116728Y-15142210D01*
X5126252Y-15161257D01*
X5126252Y-15266019D01*
X5516728Y-15056495D02*
X5345300Y-15313638D01*
X5773871Y-15066019D02*
X5792919Y-15066019D01*
X5811966Y-15075543D01*
X5821490Y-15085067D01*
X5831014Y-15104114D01*
X5840538Y-15142210D01*
X5840538Y-15189829D01*
X5831014Y-15227924D01*
X5821490Y-15246971D01*
X5811966Y-15256495D01*
X5792919Y-15266019D01*
X5773871Y-15266019D01*
X5754823Y-15256495D01*
X5745299Y-15246971D01*
X5735776Y-15227924D01*
X5726252Y-15189829D01*
X5726252Y-15142210D01*
X5735776Y-15104114D01*
X5745299Y-15085067D01*
X5754823Y-15075543D01*
X5773871Y-15066019D01*
X5926252Y-15246971D02*
X5935776Y-15256495D01*
X5926252Y-15266019D01*
X5916728Y-15256495D01*
X5926252Y-15246971D01*
X5926252Y-15266019D01*
X6059585Y-15066019D02*
X6078633Y-15066019D01*
X6097680Y-15075543D01*
X6107204Y-15085067D01*
X6116728Y-15104114D01*
X6126252Y-15142210D01*
X6126252Y-15189829D01*
X6116728Y-15227924D01*
X6107204Y-15246971D01*
X6097680Y-15256495D01*
X6078633Y-15266019D01*
X6059585Y-15266019D01*
X6040538Y-15256495D01*
X6031014Y-15246971D01*
X6021490Y-15227924D01*
X6011966Y-15189829D01*
X6011966Y-15142210D01*
X6021490Y-15104114D01*
X6031014Y-15085067D01*
X6040538Y-15075543D01*
X6059585Y-15066019D01*
X6202442Y-15085067D02*
X6211966Y-15075543D01*
X6231014Y-15066019D01*
X6278633Y-15066019D01*
X6297680Y-15075543D01*
X6307204Y-15085067D01*
X6316728Y-15104114D01*
X6316728Y-15123162D01*
X6307204Y-15151733D01*
X6192919Y-15266019D01*
X6316728Y-15266019D01*
X6411966Y-15266019D02*
X6450061Y-15266019D01*
X6469109Y-15256495D01*
X6478633Y-15246971D01*
X6497680Y-15218400D01*
X6507204Y-15180305D01*
X6507204Y-15104114D01*
X6497680Y-15085067D01*
X6488157Y-15075543D01*
X6469109Y-15066019D01*
X6431014Y-15066019D01*
X6411966Y-15075543D01*
X6402442Y-15085067D01*
X6392919Y-15104114D01*
X6392919Y-15151733D01*
X6402442Y-15170781D01*
X6411966Y-15180305D01*
X6431014Y-15189829D01*
X6469109Y-15189829D01*
X6488157Y-15180305D01*
X6497680Y-15170781D01*
X6507204Y-15151733D01*
X6688157Y-15066019D02*
X6592919Y-15066019D01*
X6583395Y-15161257D01*
X6592919Y-15151733D01*
X6611966Y-15142210D01*
X6659585Y-15142210D01*
X6678633Y-15151733D01*
X6688157Y-15161257D01*
X6697680Y-15180305D01*
X6697680Y-15227924D01*
X6688157Y-15246971D01*
X6678633Y-15256495D01*
X6659585Y-15266019D01*
X6611966Y-15266019D01*
X6592919Y-15256495D01*
X6583395Y-15246971D01*
X6773871Y-15066019D02*
X6773871Y-15104114D01*
X6850061Y-15066019D02*
X6850061Y-15104114D01*
X7145299Y-15342210D02*
X7135776Y-15332686D01*
X7116728Y-15304114D01*
X7107204Y-15285067D01*
X7097680Y-15256495D01*
X7088157Y-15208876D01*
X7088157Y-15170781D01*
X7097680Y-15123162D01*
X7107204Y-15094591D01*
X7116728Y-15075543D01*
X7135776Y-15046971D01*
X7145299Y-15037448D01*
X7250061Y-15151733D02*
X7231014Y-15142210D01*
X7221490Y-15132686D01*
X7211966Y-15113638D01*
X7211966Y-15104114D01*
X7221490Y-15085067D01*
X7231014Y-15075543D01*
X7250061Y-15066019D01*
X7288157Y-15066019D01*
X7307204Y-15075543D01*
X7316728Y-15085067D01*
X7326252Y-15104114D01*
X7326252Y-15113638D01*
X7316728Y-15132686D01*
X7307204Y-15142210D01*
X7288157Y-15151733D01*
X7250061Y-15151733D01*
X7231014Y-15161257D01*
X7221490Y-15170781D01*
X7211966Y-15189829D01*
X7211966Y-15227924D01*
X7221490Y-15246971D01*
X7231014Y-15256495D01*
X7250061Y-15266019D01*
X7288157Y-15266019D01*
X7307204Y-15256495D01*
X7316728Y-15246971D01*
X7326252Y-15227924D01*
X7326252Y-15189829D01*
X7316728Y-15170781D01*
X7307204Y-15161257D01*
X7288157Y-15151733D01*
X7564347Y-15266019D02*
X7564347Y-15066019D01*
X7650061Y-15266019D02*
X7650061Y-15161257D01*
X7640538Y-15142210D01*
X7621490Y-15132686D01*
X7592919Y-15132686D01*
X7573871Y-15142210D01*
X7564347Y-15151733D01*
X7773871Y-15266019D02*
X7754823Y-15256495D01*
X7745299Y-15246971D01*
X7735776Y-15227924D01*
X7735776Y-15170781D01*
X7745299Y-15151733D01*
X7754823Y-15142210D01*
X7773871Y-15132686D01*
X7802442Y-15132686D01*
X7821490Y-15142210D01*
X7831014Y-15151733D01*
X7840538Y-15170781D01*
X7840538Y-15227924D01*
X7831014Y-15246971D01*
X7821490Y-15256495D01*
X7802442Y-15266019D01*
X7773871Y-15266019D01*
X7954823Y-15266019D02*
X7935776Y-15256495D01*
X7926252Y-15237448D01*
X7926252Y-15066019D01*
X8107204Y-15256495D02*
X8088157Y-15266019D01*
X8050061Y-15266019D01*
X8031014Y-15256495D01*
X8021490Y-15237448D01*
X8021490Y-15161257D01*
X8031014Y-15142210D01*
X8050061Y-15132686D01*
X8088157Y-15132686D01*
X8107204Y-15142210D01*
X8116728Y-15161257D01*
X8116728Y-15180305D01*
X8021490Y-15199352D01*
X8192919Y-15256495D02*
X8211966Y-15266019D01*
X8250061Y-15266019D01*
X8269109Y-15256495D01*
X8278633Y-15237448D01*
X8278633Y-15227924D01*
X8269109Y-15208876D01*
X8250061Y-15199352D01*
X8221490Y-15199352D01*
X8202442Y-15189829D01*
X8192919Y-15170781D01*
X8192919Y-15161257D01*
X8202442Y-15142210D01*
X8221490Y-15132686D01*
X8250061Y-15132686D01*
X8269109Y-15142210D01*
X8345299Y-15342210D02*
X8354823Y-15332686D01*
X8373871Y-15304114D01*
X8383395Y-15285067D01*
X8392919Y-15256495D01*
X8402442Y-15208876D01*
X8402442Y-15170781D01*
X8392919Y-15123162D01*
X8383395Y-15094591D01*
X8373871Y-15075543D01*
X8354823Y-15046971D01*
X8345299Y-15037448D01*
D14*
X3523395Y-15389543D02*
X3523395Y-15489543D01*
X3473395Y-15439543D02*
X3573395Y-15439543D01*
D11*
X3935776Y-15530019D02*
X3821490Y-15530019D01*
X3878633Y-15530019D02*
X3878633Y-15330019D01*
X3859585Y-15358591D01*
X3840538Y-15377638D01*
X3821490Y-15387162D01*
X4021490Y-15510971D02*
X4031014Y-15520495D01*
X4021490Y-15530019D01*
X4011966Y-15520495D01*
X4021490Y-15510971D01*
X4021490Y-15530019D01*
X4154823Y-15330019D02*
X4173871Y-15330019D01*
X4192919Y-15339543D01*
X4202442Y-15349067D01*
X4211966Y-15368114D01*
X4221490Y-15406210D01*
X4221490Y-15453829D01*
X4211966Y-15491924D01*
X4202442Y-15510971D01*
X4192919Y-15520495D01*
X4173871Y-15530019D01*
X4154823Y-15530019D01*
X4135776Y-15520495D01*
X4126252Y-15510971D01*
X4116728Y-15491924D01*
X4107204Y-15453829D01*
X4107204Y-15406210D01*
X4116728Y-15368114D01*
X4126252Y-15349067D01*
X4135776Y-15339543D01*
X4154823Y-15330019D01*
X4345300Y-15330019D02*
X4364347Y-15330019D01*
X4383395Y-15339543D01*
X4392919Y-15349067D01*
X4402442Y-15368114D01*
X4411966Y-15406210D01*
X4411966Y-15453829D01*
X4402442Y-15491924D01*
X4392919Y-15510971D01*
X4383395Y-15520495D01*
X4364347Y-15530019D01*
X4345300Y-15530019D01*
X4326252Y-15520495D01*
X4316728Y-15510971D01*
X4307204Y-15491924D01*
X4297681Y-15453829D01*
X4297681Y-15406210D01*
X4307204Y-15368114D01*
X4316728Y-15349067D01*
X4326252Y-15339543D01*
X4345300Y-15330019D01*
X4535776Y-15330019D02*
X4554823Y-15330019D01*
X4573871Y-15339543D01*
X4583395Y-15349067D01*
X4592919Y-15368114D01*
X4602442Y-15406210D01*
X4602442Y-15453829D01*
X4592919Y-15491924D01*
X4583395Y-15510971D01*
X4573871Y-15520495D01*
X4554823Y-15530019D01*
X4535776Y-15530019D01*
X4516728Y-15520495D01*
X4507204Y-15510971D01*
X4497681Y-15491924D01*
X4488157Y-15453829D01*
X4488157Y-15406210D01*
X4497681Y-15368114D01*
X4507204Y-15349067D01*
X4516728Y-15339543D01*
X4535776Y-15330019D01*
X4688157Y-15530019D02*
X4688157Y-15396686D01*
X4688157Y-15415733D02*
X4697681Y-15406210D01*
X4716728Y-15396686D01*
X4745300Y-15396686D01*
X4764347Y-15406210D01*
X4773871Y-15425257D01*
X4773871Y-15530019D01*
X4773871Y-15425257D02*
X4783395Y-15406210D01*
X4802442Y-15396686D01*
X4831014Y-15396686D01*
X4850061Y-15406210D01*
X4859585Y-15425257D01*
X4859585Y-15530019D01*
X4954823Y-15530019D02*
X4954823Y-15396686D01*
X4954823Y-15415733D02*
X4964347Y-15406210D01*
X4983395Y-15396686D01*
X5011966Y-15396686D01*
X5031014Y-15406210D01*
X5040538Y-15425257D01*
X5040538Y-15530019D01*
X5040538Y-15425257D02*
X5050061Y-15406210D01*
X5069109Y-15396686D01*
X5097681Y-15396686D01*
X5116728Y-15406210D01*
X5126252Y-15425257D01*
X5126252Y-15530019D01*
X5516728Y-15320495D02*
X5345300Y-15577638D01*
X5773871Y-15330019D02*
X5792919Y-15330019D01*
X5811966Y-15339543D01*
X5821490Y-15349067D01*
X5831014Y-15368114D01*
X5840538Y-15406210D01*
X5840538Y-15453829D01*
X5831014Y-15491924D01*
X5821490Y-15510971D01*
X5811966Y-15520495D01*
X5792919Y-15530019D01*
X5773871Y-15530019D01*
X5754823Y-15520495D01*
X5745299Y-15510971D01*
X5735776Y-15491924D01*
X5726252Y-15453829D01*
X5726252Y-15406210D01*
X5735776Y-15368114D01*
X5745299Y-15349067D01*
X5754823Y-15339543D01*
X5773871Y-15330019D01*
X5926252Y-15510971D02*
X5935776Y-15520495D01*
X5926252Y-15530019D01*
X5916728Y-15520495D01*
X5926252Y-15510971D01*
X5926252Y-15530019D01*
X6059585Y-15330019D02*
X6078633Y-15330019D01*
X6097680Y-15339543D01*
X6107204Y-15349067D01*
X6116728Y-15368114D01*
X6126252Y-15406210D01*
X6126252Y-15453829D01*
X6116728Y-15491924D01*
X6107204Y-15510971D01*
X6097680Y-15520495D01*
X6078633Y-15530019D01*
X6059585Y-15530019D01*
X6040538Y-15520495D01*
X6031014Y-15510971D01*
X6021490Y-15491924D01*
X6011966Y-15453829D01*
X6011966Y-15406210D01*
X6021490Y-15368114D01*
X6031014Y-15349067D01*
X6040538Y-15339543D01*
X6059585Y-15330019D01*
X6192919Y-15330019D02*
X6316728Y-15330019D01*
X6250061Y-15406210D01*
X6278633Y-15406210D01*
X6297680Y-15415733D01*
X6307204Y-15425257D01*
X6316728Y-15444305D01*
X6316728Y-15491924D01*
X6307204Y-15510971D01*
X6297680Y-15520495D01*
X6278633Y-15530019D01*
X6221490Y-15530019D01*
X6202442Y-15520495D01*
X6192919Y-15510971D01*
X6411966Y-15530019D02*
X6450061Y-15530019D01*
X6469109Y-15520495D01*
X6478633Y-15510971D01*
X6497680Y-15482400D01*
X6507204Y-15444305D01*
X6507204Y-15368114D01*
X6497680Y-15349067D01*
X6488157Y-15339543D01*
X6469109Y-15330019D01*
X6431014Y-15330019D01*
X6411966Y-15339543D01*
X6402442Y-15349067D01*
X6392919Y-15368114D01*
X6392919Y-15415733D01*
X6402442Y-15434781D01*
X6411966Y-15444305D01*
X6431014Y-15453829D01*
X6469109Y-15453829D01*
X6488157Y-15444305D01*
X6497680Y-15434781D01*
X6507204Y-15415733D01*
X6678633Y-15396686D02*
X6678633Y-15530019D01*
X6631014Y-15320495D02*
X6583395Y-15463352D01*
X6707204Y-15463352D01*
X6773871Y-15330019D02*
X6773871Y-15368114D01*
X6850061Y-15330019D02*
X6850061Y-15368114D01*
X7145299Y-15606210D02*
X7135776Y-15596686D01*
X7116728Y-15568114D01*
X7107204Y-15549067D01*
X7097680Y-15520495D01*
X7088157Y-15472876D01*
X7088157Y-15434781D01*
X7097680Y-15387162D01*
X7107204Y-15358591D01*
X7116728Y-15339543D01*
X7135776Y-15310971D01*
X7145299Y-15301448D01*
X7307204Y-15396686D02*
X7307204Y-15530019D01*
X7259585Y-15320495D02*
X7211966Y-15463352D01*
X7335776Y-15463352D01*
X7564347Y-15530019D02*
X7564347Y-15330019D01*
X7650061Y-15530019D02*
X7650061Y-15425257D01*
X7640538Y-15406210D01*
X7621490Y-15396686D01*
X7592919Y-15396686D01*
X7573871Y-15406210D01*
X7564347Y-15415733D01*
X7773871Y-15530019D02*
X7754823Y-15520495D01*
X7745299Y-15510971D01*
X7735776Y-15491924D01*
X7735776Y-15434781D01*
X7745299Y-15415733D01*
X7754823Y-15406210D01*
X7773871Y-15396686D01*
X7802442Y-15396686D01*
X7821490Y-15406210D01*
X7831014Y-15415733D01*
X7840538Y-15434781D01*
X7840538Y-15491924D01*
X7831014Y-15510971D01*
X7821490Y-15520495D01*
X7802442Y-15530019D01*
X7773871Y-15530019D01*
X7954823Y-15530019D02*
X7935776Y-15520495D01*
X7926252Y-15501448D01*
X7926252Y-15330019D01*
X8107204Y-15520495D02*
X8088157Y-15530019D01*
X8050061Y-15530019D01*
X8031014Y-15520495D01*
X8021490Y-15501448D01*
X8021490Y-15425257D01*
X8031014Y-15406210D01*
X8050061Y-15396686D01*
X8088157Y-15396686D01*
X8107204Y-15406210D01*
X8116728Y-15425257D01*
X8116728Y-15444305D01*
X8021490Y-15463352D01*
X8192919Y-15520495D02*
X8211966Y-15530019D01*
X8250061Y-15530019D01*
X8269109Y-15520495D01*
X8278633Y-15501448D01*
X8278633Y-15491924D01*
X8269109Y-15472876D01*
X8250061Y-15463352D01*
X8221490Y-15463352D01*
X8202442Y-15453829D01*
X8192919Y-15434781D01*
X8192919Y-15425257D01*
X8202442Y-15406210D01*
X8221490Y-15396686D01*
X8250061Y-15396686D01*
X8269109Y-15406210D01*
X8345299Y-15606210D02*
X8354823Y-15596686D01*
X8373871Y-15568114D01*
X8383395Y-15549067D01*
X8392919Y-15520495D01*
X8402442Y-15472876D01*
X8402442Y-15434781D01*
X8392919Y-15387162D01*
X8383395Y-15358591D01*
X8373871Y-15339543D01*
X8354823Y-15310971D01*
X8345299Y-15301448D01*
D15*
X3554650Y-15748798D02*
X3554650Y-15658288D01*
X3464139Y-15658288D01*
X3464139Y-15748798D01*
X3554650Y-15748798D01*
D11*
X3935776Y-15794019D02*
X3821490Y-15794019D01*
X3878633Y-15794019D02*
X3878633Y-15594019D01*
X3859585Y-15622591D01*
X3840538Y-15641638D01*
X3821490Y-15651162D01*
X4021490Y-15774971D02*
X4031014Y-15784495D01*
X4021490Y-15794019D01*
X4011966Y-15784495D01*
X4021490Y-15774971D01*
X4021490Y-15794019D01*
X4107204Y-15613067D02*
X4116728Y-15603543D01*
X4135776Y-15594019D01*
X4183395Y-15594019D01*
X4202442Y-15603543D01*
X4211966Y-15613067D01*
X4221490Y-15632114D01*
X4221490Y-15651162D01*
X4211966Y-15679733D01*
X4097680Y-15794019D01*
X4221490Y-15794019D01*
X4335776Y-15679733D02*
X4316728Y-15670210D01*
X4307204Y-15660686D01*
X4297681Y-15641638D01*
X4297681Y-15632114D01*
X4307204Y-15613067D01*
X4316728Y-15603543D01*
X4335776Y-15594019D01*
X4373871Y-15594019D01*
X4392919Y-15603543D01*
X4402442Y-15613067D01*
X4411966Y-15632114D01*
X4411966Y-15641638D01*
X4402442Y-15660686D01*
X4392919Y-15670210D01*
X4373871Y-15679733D01*
X4335776Y-15679733D01*
X4316728Y-15689257D01*
X4307204Y-15698781D01*
X4297681Y-15717829D01*
X4297681Y-15755924D01*
X4307204Y-15774971D01*
X4316728Y-15784495D01*
X4335776Y-15794019D01*
X4373871Y-15794019D01*
X4392919Y-15784495D01*
X4402442Y-15774971D01*
X4411966Y-15755924D01*
X4411966Y-15717829D01*
X4402442Y-15698781D01*
X4392919Y-15689257D01*
X4373871Y-15679733D01*
X4535776Y-15594019D02*
X4554823Y-15594019D01*
X4573871Y-15603543D01*
X4583395Y-15613067D01*
X4592919Y-15632114D01*
X4602442Y-15670210D01*
X4602442Y-15717829D01*
X4592919Y-15755924D01*
X4583395Y-15774971D01*
X4573871Y-15784495D01*
X4554823Y-15794019D01*
X4535776Y-15794019D01*
X4516728Y-15784495D01*
X4507204Y-15774971D01*
X4497681Y-15755924D01*
X4488157Y-15717829D01*
X4488157Y-15670210D01*
X4497681Y-15632114D01*
X4507204Y-15613067D01*
X4516728Y-15603543D01*
X4535776Y-15594019D01*
X4688157Y-15794019D02*
X4688157Y-15660686D01*
X4688157Y-15679733D02*
X4697681Y-15670210D01*
X4716728Y-15660686D01*
X4745300Y-15660686D01*
X4764347Y-15670210D01*
X4773871Y-15689257D01*
X4773871Y-15794019D01*
X4773871Y-15689257D02*
X4783395Y-15670210D01*
X4802442Y-15660686D01*
X4831014Y-15660686D01*
X4850061Y-15670210D01*
X4859585Y-15689257D01*
X4859585Y-15794019D01*
X4954823Y-15794019D02*
X4954823Y-15660686D01*
X4954823Y-15679733D02*
X4964347Y-15670210D01*
X4983395Y-15660686D01*
X5011966Y-15660686D01*
X5031014Y-15670210D01*
X5040538Y-15689257D01*
X5040538Y-15794019D01*
X5040538Y-15689257D02*
X5050061Y-15670210D01*
X5069109Y-15660686D01*
X5097681Y-15660686D01*
X5116728Y-15670210D01*
X5126252Y-15689257D01*
X5126252Y-15794019D01*
X5516728Y-15584495D02*
X5345300Y-15841638D01*
X5773871Y-15594019D02*
X5792919Y-15594019D01*
X5811966Y-15603543D01*
X5821490Y-15613067D01*
X5831014Y-15632114D01*
X5840538Y-15670210D01*
X5840538Y-15717829D01*
X5831014Y-15755924D01*
X5821490Y-15774971D01*
X5811966Y-15784495D01*
X5792919Y-15794019D01*
X5773871Y-15794019D01*
X5754823Y-15784495D01*
X5745299Y-15774971D01*
X5735776Y-15755924D01*
X5726252Y-15717829D01*
X5726252Y-15670210D01*
X5735776Y-15632114D01*
X5745299Y-15613067D01*
X5754823Y-15603543D01*
X5773871Y-15594019D01*
X5926252Y-15774971D02*
X5935776Y-15784495D01*
X5926252Y-15794019D01*
X5916728Y-15784495D01*
X5926252Y-15774971D01*
X5926252Y-15794019D01*
X6059585Y-15594019D02*
X6078633Y-15594019D01*
X6097680Y-15603543D01*
X6107204Y-15613067D01*
X6116728Y-15632114D01*
X6126252Y-15670210D01*
X6126252Y-15717829D01*
X6116728Y-15755924D01*
X6107204Y-15774971D01*
X6097680Y-15784495D01*
X6078633Y-15794019D01*
X6059585Y-15794019D01*
X6040538Y-15784495D01*
X6031014Y-15774971D01*
X6021490Y-15755924D01*
X6011966Y-15717829D01*
X6011966Y-15670210D01*
X6021490Y-15632114D01*
X6031014Y-15613067D01*
X6040538Y-15603543D01*
X6059585Y-15594019D01*
X6307204Y-15594019D02*
X6211966Y-15594019D01*
X6202442Y-15689257D01*
X6211966Y-15679733D01*
X6231014Y-15670210D01*
X6278633Y-15670210D01*
X6297680Y-15679733D01*
X6307204Y-15689257D01*
X6316728Y-15708305D01*
X6316728Y-15755924D01*
X6307204Y-15774971D01*
X6297680Y-15784495D01*
X6278633Y-15794019D01*
X6231014Y-15794019D01*
X6211966Y-15784495D01*
X6202442Y-15774971D01*
X6440538Y-15594019D02*
X6459585Y-15594019D01*
X6478633Y-15603543D01*
X6488157Y-15613067D01*
X6497680Y-15632114D01*
X6507204Y-15670210D01*
X6507204Y-15717829D01*
X6497680Y-15755924D01*
X6488157Y-15774971D01*
X6478633Y-15784495D01*
X6459585Y-15794019D01*
X6440538Y-15794019D01*
X6421490Y-15784495D01*
X6411966Y-15774971D01*
X6402442Y-15755924D01*
X6392919Y-15717829D01*
X6392919Y-15670210D01*
X6402442Y-15632114D01*
X6411966Y-15613067D01*
X6421490Y-15603543D01*
X6440538Y-15594019D01*
X6678633Y-15660686D02*
X6678633Y-15794019D01*
X6631014Y-15584495D02*
X6583395Y-15727352D01*
X6707204Y-15727352D01*
X6773871Y-15594019D02*
X6773871Y-15632114D01*
X6850061Y-15594019D02*
X6850061Y-15632114D01*
X7145299Y-15870210D02*
X7135776Y-15860686D01*
X7116728Y-15832114D01*
X7107204Y-15813067D01*
X7097680Y-15784495D01*
X7088157Y-15736876D01*
X7088157Y-15698781D01*
X7097680Y-15651162D01*
X7107204Y-15622591D01*
X7116728Y-15603543D01*
X7135776Y-15574971D01*
X7145299Y-15565448D01*
X7202442Y-15594019D02*
X7326252Y-15594019D01*
X7259585Y-15670210D01*
X7288157Y-15670210D01*
X7307204Y-15679733D01*
X7316728Y-15689257D01*
X7326252Y-15708305D01*
X7326252Y-15755924D01*
X7316728Y-15774971D01*
X7307204Y-15784495D01*
X7288157Y-15794019D01*
X7231014Y-15794019D01*
X7211966Y-15784495D01*
X7202442Y-15774971D01*
X7564347Y-15794019D02*
X7564347Y-15594019D01*
X7650061Y-15794019D02*
X7650061Y-15689257D01*
X7640538Y-15670210D01*
X7621490Y-15660686D01*
X7592919Y-15660686D01*
X7573871Y-15670210D01*
X7564347Y-15679733D01*
X7773871Y-15794019D02*
X7754823Y-15784495D01*
X7745299Y-15774971D01*
X7735776Y-15755924D01*
X7735776Y-15698781D01*
X7745299Y-15679733D01*
X7754823Y-15670210D01*
X7773871Y-15660686D01*
X7802442Y-15660686D01*
X7821490Y-15670210D01*
X7831014Y-15679733D01*
X7840538Y-15698781D01*
X7840538Y-15755924D01*
X7831014Y-15774971D01*
X7821490Y-15784495D01*
X7802442Y-15794019D01*
X7773871Y-15794019D01*
X7954823Y-15794019D02*
X7935776Y-15784495D01*
X7926252Y-15765448D01*
X7926252Y-15594019D01*
X8107204Y-15784495D02*
X8088157Y-15794019D01*
X8050061Y-15794019D01*
X8031014Y-15784495D01*
X8021490Y-15765448D01*
X8021490Y-15689257D01*
X8031014Y-15670210D01*
X8050061Y-15660686D01*
X8088157Y-15660686D01*
X8107204Y-15670210D01*
X8116728Y-15689257D01*
X8116728Y-15708305D01*
X8021490Y-15727352D01*
X8192919Y-15784495D02*
X8211966Y-15794019D01*
X8250061Y-15794019D01*
X8269109Y-15784495D01*
X8278633Y-15765448D01*
X8278633Y-15755924D01*
X8269109Y-15736876D01*
X8250061Y-15727352D01*
X8221490Y-15727352D01*
X8202442Y-15717829D01*
X8192919Y-15698781D01*
X8192919Y-15689257D01*
X8202442Y-15670210D01*
X8221490Y-15660686D01*
X8250061Y-15660686D01*
X8269109Y-15670210D01*
X8345299Y-15870210D02*
X8354823Y-15860686D01*
X8373871Y-15832114D01*
X8383395Y-15813067D01*
X8392919Y-15784495D01*
X8402442Y-15736876D01*
X8402442Y-15698781D01*
X8392919Y-15651162D01*
X8383395Y-15622591D01*
X8373871Y-15603543D01*
X8354823Y-15574971D01*
X8345299Y-15565448D01*
X3473395Y-16067543D02*
X3573395Y-15967543D01*
X3473395Y-15867543D01*
X3373395Y-15967543D01*
X3473395Y-16067543D01*
X3811966Y-15858019D02*
X3935776Y-15858019D01*
X3869109Y-15934210D01*
X3897680Y-15934210D01*
X3916728Y-15943733D01*
X3926252Y-15953257D01*
X3935776Y-15972305D01*
X3935776Y-16019924D01*
X3926252Y-16038971D01*
X3916728Y-16048495D01*
X3897680Y-16058019D01*
X3840538Y-16058019D01*
X3821490Y-16048495D01*
X3811966Y-16038971D01*
X4021490Y-16038971D02*
X4031014Y-16048495D01*
X4021490Y-16058019D01*
X4011966Y-16048495D01*
X4021490Y-16038971D01*
X4021490Y-16058019D01*
X4154823Y-15858019D02*
X4173871Y-15858019D01*
X4192919Y-15867543D01*
X4202442Y-15877067D01*
X4211966Y-15896114D01*
X4221490Y-15934210D01*
X4221490Y-15981829D01*
X4211966Y-16019924D01*
X4202442Y-16038971D01*
X4192919Y-16048495D01*
X4173871Y-16058019D01*
X4154823Y-16058019D01*
X4135776Y-16048495D01*
X4126252Y-16038971D01*
X4116728Y-16019924D01*
X4107204Y-15981829D01*
X4107204Y-15934210D01*
X4116728Y-15896114D01*
X4126252Y-15877067D01*
X4135776Y-15867543D01*
X4154823Y-15858019D01*
X4345300Y-15858019D02*
X4364347Y-15858019D01*
X4383395Y-15867543D01*
X4392919Y-15877067D01*
X4402442Y-15896114D01*
X4411966Y-15934210D01*
X4411966Y-15981829D01*
X4402442Y-16019924D01*
X4392919Y-16038971D01*
X4383395Y-16048495D01*
X4364347Y-16058019D01*
X4345300Y-16058019D01*
X4326252Y-16048495D01*
X4316728Y-16038971D01*
X4307204Y-16019924D01*
X4297681Y-15981829D01*
X4297681Y-15934210D01*
X4307204Y-15896114D01*
X4316728Y-15877067D01*
X4326252Y-15867543D01*
X4345300Y-15858019D01*
X4535776Y-15858019D02*
X4554823Y-15858019D01*
X4573871Y-15867543D01*
X4583395Y-15877067D01*
X4592919Y-15896114D01*
X4602442Y-15934210D01*
X4602442Y-15981829D01*
X4592919Y-16019924D01*
X4583395Y-16038971D01*
X4573871Y-16048495D01*
X4554823Y-16058019D01*
X4535776Y-16058019D01*
X4516728Y-16048495D01*
X4507204Y-16038971D01*
X4497681Y-16019924D01*
X4488157Y-15981829D01*
X4488157Y-15934210D01*
X4497681Y-15896114D01*
X4507204Y-15877067D01*
X4516728Y-15867543D01*
X4535776Y-15858019D01*
X4688157Y-16058019D02*
X4688157Y-15924686D01*
X4688157Y-15943733D02*
X4697681Y-15934210D01*
X4716728Y-15924686D01*
X4745300Y-15924686D01*
X4764347Y-15934210D01*
X4773871Y-15953257D01*
X4773871Y-16058019D01*
X4773871Y-15953257D02*
X4783395Y-15934210D01*
X4802442Y-15924686D01*
X4831014Y-15924686D01*
X4850061Y-15934210D01*
X4859585Y-15953257D01*
X4859585Y-16058019D01*
X4954823Y-16058019D02*
X4954823Y-15924686D01*
X4954823Y-15943733D02*
X4964347Y-15934210D01*
X4983395Y-15924686D01*
X5011966Y-15924686D01*
X5031014Y-15934210D01*
X5040538Y-15953257D01*
X5040538Y-16058019D01*
X5040538Y-15953257D02*
X5050061Y-15934210D01*
X5069109Y-15924686D01*
X5097681Y-15924686D01*
X5116728Y-15934210D01*
X5126252Y-15953257D01*
X5126252Y-16058019D01*
X5516728Y-15848495D02*
X5345300Y-16105638D01*
X5773871Y-15858019D02*
X5792919Y-15858019D01*
X5811966Y-15867543D01*
X5821490Y-15877067D01*
X5831014Y-15896114D01*
X5840538Y-15934210D01*
X5840538Y-15981829D01*
X5831014Y-16019924D01*
X5821490Y-16038971D01*
X5811966Y-16048495D01*
X5792919Y-16058019D01*
X5773871Y-16058019D01*
X5754823Y-16048495D01*
X5745299Y-16038971D01*
X5735776Y-16019924D01*
X5726252Y-15981829D01*
X5726252Y-15934210D01*
X5735776Y-15896114D01*
X5745299Y-15877067D01*
X5754823Y-15867543D01*
X5773871Y-15858019D01*
X5926252Y-16038971D02*
X5935776Y-16048495D01*
X5926252Y-16058019D01*
X5916728Y-16048495D01*
X5926252Y-16038971D01*
X5926252Y-16058019D01*
X6126252Y-16058019D02*
X6011966Y-16058019D01*
X6069109Y-16058019D02*
X6069109Y-15858019D01*
X6050061Y-15886591D01*
X6031014Y-15905638D01*
X6011966Y-15915162D01*
X6316728Y-16058019D02*
X6202442Y-16058019D01*
X6259585Y-16058019D02*
X6259585Y-15858019D01*
X6240538Y-15886591D01*
X6221490Y-15905638D01*
X6202442Y-15915162D01*
X6431014Y-15943733D02*
X6411966Y-15934210D01*
X6402442Y-15924686D01*
X6392919Y-15905638D01*
X6392919Y-15896114D01*
X6402442Y-15877067D01*
X6411966Y-15867543D01*
X6431014Y-15858019D01*
X6469109Y-15858019D01*
X6488157Y-15867543D01*
X6497680Y-15877067D01*
X6507204Y-15896114D01*
X6507204Y-15905638D01*
X6497680Y-15924686D01*
X6488157Y-15934210D01*
X6469109Y-15943733D01*
X6431014Y-15943733D01*
X6411966Y-15953257D01*
X6402442Y-15962781D01*
X6392919Y-15981829D01*
X6392919Y-16019924D01*
X6402442Y-16038971D01*
X6411966Y-16048495D01*
X6431014Y-16058019D01*
X6469109Y-16058019D01*
X6488157Y-16048495D01*
X6497680Y-16038971D01*
X6507204Y-16019924D01*
X6507204Y-15981829D01*
X6497680Y-15962781D01*
X6488157Y-15953257D01*
X6469109Y-15943733D01*
X6697680Y-16058019D02*
X6583395Y-16058019D01*
X6640538Y-16058019D02*
X6640538Y-15858019D01*
X6621490Y-15886591D01*
X6602442Y-15905638D01*
X6583395Y-15915162D01*
X6773871Y-15858019D02*
X6773871Y-15896114D01*
X6850061Y-15858019D02*
X6850061Y-15896114D01*
X7145299Y-16134210D02*
X7135776Y-16124686D01*
X7116728Y-16096114D01*
X7107204Y-16077067D01*
X7097680Y-16048495D01*
X7088157Y-16000876D01*
X7088157Y-15962781D01*
X7097680Y-15915162D01*
X7107204Y-15886591D01*
X7116728Y-15867543D01*
X7135776Y-15838971D01*
X7145299Y-15829448D01*
X7326252Y-16058019D02*
X7211966Y-16058019D01*
X7269109Y-16058019D02*
X7269109Y-15858019D01*
X7250061Y-15886591D01*
X7231014Y-15905638D01*
X7211966Y-15915162D01*
X7497680Y-15858019D02*
X7459585Y-15858019D01*
X7440538Y-15867543D01*
X7431014Y-15877067D01*
X7411966Y-15905638D01*
X7402442Y-15943733D01*
X7402442Y-16019924D01*
X7411966Y-16038971D01*
X7421490Y-16048495D01*
X7440538Y-16058019D01*
X7478633Y-16058019D01*
X7497680Y-16048495D01*
X7507204Y-16038971D01*
X7516728Y-16019924D01*
X7516728Y-15972305D01*
X7507204Y-15953257D01*
X7497680Y-15943733D01*
X7478633Y-15934210D01*
X7440538Y-15934210D01*
X7421490Y-15943733D01*
X7411966Y-15953257D01*
X7402442Y-15972305D01*
X7754823Y-16058019D02*
X7754823Y-15858019D01*
X7840538Y-16058019D02*
X7840538Y-15953257D01*
X7831014Y-15934210D01*
X7811966Y-15924686D01*
X7783395Y-15924686D01*
X7764347Y-15934210D01*
X7754823Y-15943733D01*
X7964347Y-16058019D02*
X7945299Y-16048495D01*
X7935776Y-16038971D01*
X7926252Y-16019924D01*
X7926252Y-15962781D01*
X7935776Y-15943733D01*
X7945299Y-15934210D01*
X7964347Y-15924686D01*
X7992919Y-15924686D01*
X8011966Y-15934210D01*
X8021490Y-15943733D01*
X8031014Y-15962781D01*
X8031014Y-16019924D01*
X8021490Y-16038971D01*
X8011966Y-16048495D01*
X7992919Y-16058019D01*
X7964347Y-16058019D01*
X8145299Y-16058019D02*
X8126252Y-16048495D01*
X8116728Y-16029448D01*
X8116728Y-15858019D01*
X8297680Y-16048495D02*
X8278633Y-16058019D01*
X8240538Y-16058019D01*
X8221490Y-16048495D01*
X8211966Y-16029448D01*
X8211966Y-15953257D01*
X8221490Y-15934210D01*
X8240538Y-15924686D01*
X8278633Y-15924686D01*
X8297680Y-15934210D01*
X8307204Y-15953257D01*
X8307204Y-15972305D01*
X8211966Y-15991352D01*
X8383395Y-16048495D02*
X8402442Y-16058019D01*
X8440538Y-16058019D01*
X8459585Y-16048495D01*
X8469109Y-16029448D01*
X8469109Y-16019924D01*
X8459585Y-16000876D01*
X8440538Y-15991352D01*
X8411966Y-15991352D01*
X8392919Y-15981829D01*
X8383395Y-15962781D01*
X8383395Y-15953257D01*
X8392919Y-15934210D01*
X8411966Y-15924686D01*
X8440538Y-15924686D01*
X8459585Y-15934210D01*
X8535776Y-16134210D02*
X8545300Y-16124686D01*
X8564347Y-16096114D01*
X8573871Y-16077067D01*
X8583395Y-16048495D01*
X8592919Y-16000876D01*
X8592919Y-15962781D01*
X8583395Y-15915162D01*
X8573871Y-15886591D01*
X8564347Y-15867543D01*
X8545300Y-15838971D01*
X8535776Y-15829448D01*
M02*
