G04 #@! TF.GenerationSoftware,KiCad,Pcbnew,(6.0.11-0)*
G04 #@! TF.CreationDate,2023-02-07T20:00:49+09:00*
G04 #@! TF.ProjectId,pangaea-pcb-thumb-k2_leftcut4keys,70616e67-6165-4612-9d70-63622d746875,1*
G04 #@! TF.SameCoordinates,Original*
G04 #@! TF.FileFunction,Legend,Top*
G04 #@! TF.FilePolarity,Positive*
%FSLAX46Y46*%
G04 Gerber Fmt 4.6, Leading zero omitted, Abs format (unit mm)*
G04 Created by KiCad (PCBNEW (6.0.11-0)) date 2023-02-07 20:00:49*
%MOMM*%
%LPD*%
G01*
G04 APERTURE LIST*
G04 Aperture macros list*
%AMRoundRect*
0 Rectangle with rounded corners*
0 $1 Rounding radius*
0 $2 $3 $4 $5 $6 $7 $8 $9 X,Y pos of 4 corners*
0 Add a 4 corners polygon primitive as box body*
4,1,4,$2,$3,$4,$5,$6,$7,$8,$9,$2,$3,0*
0 Add four circle primitives for the rounded corners*
1,1,$1+$1,$2,$3*
1,1,$1+$1,$4,$5*
1,1,$1+$1,$6,$7*
1,1,$1+$1,$8,$9*
0 Add four rect primitives between the rounded corners*
20,1,$1+$1,$2,$3,$4,$5,0*
20,1,$1+$1,$4,$5,$6,$7,0*
20,1,$1+$1,$6,$7,$8,$9,0*
20,1,$1+$1,$8,$9,$2,$3,0*%
%AMHorizOval*
0 Thick line with rounded ends*
0 $1 width*
0 $2 $3 position (X,Y) of the first rounded end (center of the circle)*
0 $4 $5 position (X,Y) of the second rounded end (center of the circle)*
0 Add line between two ends*
20,1,$1,$2,$3,$4,$5,0*
0 Add two circle primitives to create the rounded ends*
1,1,$1,$2,$3*
1,1,$1,$4,$5*%
G04 Aperture macros list end*
%ADD10C,0.150000*%
%ADD11O,4.600000X6.400000*%
%ADD12C,2.080000*%
%ADD13C,5.300000*%
%ADD14C,2.100000*%
%ADD15HorizOval,0.900000X-0.344683X0.060777X0.344683X-0.060777X0*%
%ADD16C,1.830000*%
%ADD17HorizOval,0.900000X-0.328892X0.119707X0.328892X-0.119707X0*%
%ADD18HorizOval,0.900000X-0.344683X-0.060777X0.344683X0.060777X0*%
%ADD19O,1.600000X0.900000*%
%ADD20RoundRect,0.449600X0.274949X0.877703X-0.423184X0.816625X-0.274949X-0.877703X0.423184X-0.816625X0*%
%ADD21RoundRect,0.449600X0.423184X0.816625X-0.274949X0.877703X-0.423184X-0.816625X0.274949X-0.877703X0*%
G04 APERTURE END LIST*
D10*
X118482477Y-120304004D02*
X119668488Y-122847408D01*
X118109541Y-120168265D02*
X119532743Y-123220344D01*
X117736598Y-120032525D02*
X119397011Y-123593286D01*
X32957194Y-116182704D02*
X31972386Y-116356352D01*
X32441342Y-116273663D02*
X32342115Y-115710915D01*
X32857967Y-115619957D02*
X31873159Y-115793605D01*
X32187723Y-115109541D02*
X32157365Y-115211602D01*
X32118739Y-115266766D01*
X32033216Y-115330200D01*
X31986321Y-115338469D01*
X31884260Y-115308111D01*
X31829096Y-115269484D01*
X31765662Y-115183962D01*
X31732587Y-114996380D01*
X31762944Y-114894319D01*
X31801571Y-114839155D01*
X31887093Y-114775721D01*
X31933989Y-114767452D01*
X32036049Y-114797810D01*
X32091213Y-114836437D01*
X32154647Y-114921959D01*
X32187723Y-115109541D01*
X32251156Y-115195064D01*
X32306321Y-115233690D01*
X32408381Y-115264048D01*
X32595964Y-115230972D01*
X32681486Y-115167539D01*
X32720112Y-115112374D01*
X32750470Y-115010314D01*
X32717394Y-114822731D01*
X32653961Y-114737209D01*
X32598796Y-114698583D01*
X32496736Y-114668225D01*
X32309154Y-114701301D01*
X32223631Y-114764734D01*
X32185005Y-114819899D01*
X32154647Y-114921959D01*
X93165434Y-108012105D02*
X92165434Y-108012105D01*
X92641625Y-108012105D02*
X92641625Y-107440677D01*
X93165434Y-107440677D02*
X92165434Y-107440677D01*
X92165434Y-106488296D02*
X92165434Y-106964486D01*
X92641625Y-107012105D01*
X92594006Y-106964486D01*
X92546387Y-106869248D01*
X92546387Y-106631153D01*
X92594006Y-106535915D01*
X92641625Y-106488296D01*
X92736863Y-106440677D01*
X92974958Y-106440677D01*
X93070196Y-106488296D01*
X93117815Y-106535915D01*
X93165434Y-106631153D01*
X93165434Y-106869248D01*
X93117815Y-106964486D01*
X93070196Y-107012105D01*
X81568309Y-131101250D02*
X80004927Y-130825583D01*
X93293676Y-133168748D02*
X91730294Y-132893082D01*
X95636841Y-119879999D02*
X95361175Y-121443381D01*
X82072425Y-119100216D02*
X82348092Y-117536834D01*
X82348092Y-117536834D02*
X83911474Y-117812500D01*
X93569343Y-131605366D02*
X93293676Y-133168748D01*
X80004927Y-130825583D02*
X80280593Y-129262201D01*
X94073459Y-119604332D02*
X95636841Y-119879999D01*
X112333889Y-137849092D02*
X111790932Y-139340854D01*
X114914305Y-126117920D02*
X116406067Y-126660877D01*
X99110955Y-134725719D02*
X99653912Y-133233957D01*
X100602717Y-135268676D02*
X99110955Y-134725719D01*
X111790932Y-139340854D02*
X110299170Y-138797897D01*
X103726090Y-122045742D02*
X105217852Y-122588699D01*
X103183133Y-123537504D02*
X103726090Y-122045742D01*
X116406067Y-126660877D02*
X115863110Y-128152639D01*
X41229644Y-133166204D02*
X40953977Y-131602822D01*
X39162145Y-121440837D02*
X38886479Y-119877455D01*
X42793026Y-132890538D02*
X41229644Y-133166204D01*
X54242727Y-129259657D02*
X54518393Y-130823039D01*
X50611846Y-117809956D02*
X52175228Y-117534290D01*
X54518393Y-130823039D02*
X52955011Y-131098706D01*
X38886479Y-119877455D02*
X40449861Y-119601788D01*
X52175228Y-117534290D02*
X52450895Y-119097672D01*
X60516296Y-116806744D02*
X62103796Y-116806744D01*
X74010046Y-130300494D02*
X72422546Y-130300494D01*
X74010046Y-116806744D02*
X74010046Y-118394244D01*
X60516296Y-118394244D02*
X60516296Y-116806744D01*
X62103796Y-130300494D02*
X60516296Y-130300494D01*
X74010046Y-128712994D02*
X74010046Y-130300494D01*
X72422546Y-116806744D02*
X74010046Y-116806744D01*
X60516296Y-130300494D02*
X60516296Y-128712994D01*
%LPC*%
D11*
X38688167Y-135459876D03*
D12*
X93237327Y-126307856D03*
X82404441Y-124397726D03*
D13*
X87820884Y-125352791D03*
D14*
X92823707Y-126234924D03*
X82818061Y-124470658D03*
D15*
X93691305Y-120853830D03*
D16*
X116915481Y-126420537D03*
D11*
X76788168Y-131094250D03*
X38660000Y-116340000D03*
X95838173Y-135459873D03*
D16*
X112029756Y-139847195D03*
D17*
X114320984Y-127282074D03*
D12*
X112926820Y-132574409D03*
D13*
X107758511Y-130693298D03*
D14*
X112532150Y-132430760D03*
X102984872Y-128955836D03*
D12*
X102590202Y-128812187D03*
D11*
X95838170Y-116409867D03*
D14*
X51705259Y-124468114D03*
X41699613Y-126232380D03*
D12*
X52118879Y-124395182D03*
X41285993Y-126305312D03*
D13*
X46702436Y-125350247D03*
D18*
X50680092Y-119114804D03*
D11*
X57738174Y-131094247D03*
D14*
X62183171Y-123553619D03*
D19*
X72263171Y-118103619D03*
D13*
X67263171Y-123553619D03*
D12*
X72763171Y-123553619D03*
D14*
X72343171Y-123553619D03*
D12*
X61763171Y-123553619D03*
D16*
X103488832Y-121531455D03*
D20*
X59206153Y-117052792D03*
X53627462Y-117540864D03*
D21*
X80898869Y-117540863D03*
X75320178Y-117052791D03*
M02*
