G04 #@! TF.GenerationSoftware,KiCad,Pcbnew,(6.0.11-0)*
G04 #@! TF.CreationDate,2023-02-07T20:00:50+09:00*
G04 #@! TF.ProjectId,pangaea-pcb-thumb-k2_leftcut4keys,70616e67-6165-4612-9d70-63622d746875,1*
G04 #@! TF.SameCoordinates,Original*
G04 #@! TF.FileFunction,Legend,Bot*
G04 #@! TF.FilePolarity,Positive*
%FSLAX46Y46*%
G04 Gerber Fmt 4.6, Leading zero omitted, Abs format (unit mm)*
G04 Created by KiCad (PCBNEW (6.0.11-0)) date 2023-02-07 20:00:50*
%MOMM*%
%LPD*%
G01*
G04 APERTURE LIST*
G04 Aperture macros list*
%AMRoundRect*
0 Rectangle with rounded corners*
0 $1 Rounding radius*
0 $2 $3 $4 $5 $6 $7 $8 $9 X,Y pos of 4 corners*
0 Add a 4 corners polygon primitive as box body*
4,1,4,$2,$3,$4,$5,$6,$7,$8,$9,$2,$3,0*
0 Add four circle primitives for the rounded corners*
1,1,$1+$1,$2,$3*
1,1,$1+$1,$4,$5*
1,1,$1+$1,$6,$7*
1,1,$1+$1,$8,$9*
0 Add four rect primitives between the rounded corners*
20,1,$1+$1,$2,$3,$4,$5,0*
20,1,$1+$1,$4,$5,$6,$7,0*
20,1,$1+$1,$6,$7,$8,$9,0*
20,1,$1+$1,$8,$9,$2,$3,0*%
%AMHorizOval*
0 Thick line with rounded ends*
0 $1 width*
0 $2 $3 position (X,Y) of the first rounded end (center of the circle)*
0 $4 $5 position (X,Y) of the second rounded end (center of the circle)*
0 Add line between two ends*
20,1,$1,$2,$3,$4,$5,0*
0 Add two circle primitives to create the rounded ends*
1,1,$1,$2,$3*
1,1,$1,$4,$5*%
G04 Aperture macros list end*
%ADD10C,0.150000*%
%ADD11C,0.200000*%
%ADD12C,0.120000*%
%ADD13O,4.600000X6.400000*%
%ADD14C,2.080000*%
%ADD15C,5.300000*%
%ADD16C,2.100000*%
%ADD17HorizOval,0.900000X-0.344683X0.060777X0.344683X-0.060777X0*%
%ADD18RoundRect,0.200000X-1.256937X-0.793795X0.909640X-1.175821X1.256937X0.793795X-0.909640X1.175821X0*%
%ADD19C,4.200000*%
%ADD20C,1.830000*%
%ADD21RoundRect,0.200000X-0.486696X-0.695074X0.695074X-0.486696X0.486696X0.695074X-0.695074X0.486696X0*%
%ADD22C,1.600000*%
%ADD23RoundRect,0.200000X-0.600000X-0.600000X0.600000X-0.600000X0.600000X0.600000X-0.600000X0.600000X0*%
%ADD24HorizOval,0.900000X-0.328892X0.119707X0.328892X-0.119707X0*%
%ADD25RoundRect,0.200000X-1.375682X-0.563470X0.691642X-1.315915X1.375682X0.563470X-0.691642X1.315915X0*%
%ADD26HorizOval,0.900000X-0.344683X-0.060777X0.344683X0.060777X0*%
%ADD27RoundRect,0.200000X-0.909640X-1.175821X1.256937X-0.793795X0.909640X1.175821X-1.256937X0.793795X0*%
%ADD28RoundRect,0.200000X-0.695074X-0.486696X0.486696X-0.695074X0.695074X0.486696X-0.486696X0.695074X0*%
%ADD29RoundRect,0.200000X-0.769028X-0.358603X0.358603X-0.769028X0.769028X0.358603X-0.358603X0.769028X0*%
%ADD30O,1.600000X0.900000*%
%ADD31RoundRect,0.200000X-1.100000X-1.000000X1.100000X-1.000000X1.100000X1.000000X-1.100000X1.000000X0*%
%ADD32RoundRect,0.350000X0.092778X0.660600X-0.206080X0.634453X-0.092778X-0.660600X0.206080X-0.634453X0*%
%ADD33RoundRect,0.449600X0.274949X0.877703X-0.423184X0.816625X-0.274949X-0.877703X0.423184X-0.816625X0*%
%ADD34RoundRect,0.350000X0.206080X0.634453X-0.092778X0.660600X-0.206080X-0.634453X0.092778X-0.660600X0*%
%ADD35RoundRect,0.449600X0.423184X0.816625X-0.274949X0.877703X-0.423184X-0.816625X0.274949X-0.877703X0*%
G04 APERTURE END LIST*
D10*
X118482477Y-120304004D02*
X119668488Y-122847408D01*
X95656629Y-135761518D02*
X98688875Y-118573349D01*
X98688924Y-118573358D02*
G75*
G03*
X98045026Y-117653819I-774524J142858D01*
G01*
X117736598Y-120032525D02*
X119397011Y-123593286D01*
X119695688Y-125746794D02*
X113723144Y-142156222D01*
X58521519Y-121840220D02*
X58123041Y-121875082D01*
X58383289Y-122554988D02*
X58322280Y-121857651D01*
X57951604Y-122592755D02*
X57890595Y-121895419D01*
X57652746Y-122618902D02*
X57620789Y-122253630D01*
X57648185Y-122184312D01*
X57711693Y-122145295D01*
X57811312Y-122136580D01*
X57880630Y-122163976D01*
X57916742Y-122194277D01*
X56981150Y-122209210D02*
X57021823Y-122674100D01*
X57280008Y-122183063D02*
X57311965Y-122548334D01*
X57284569Y-122617652D01*
X57221061Y-122656669D01*
X57121442Y-122665385D01*
X57052124Y-122637989D01*
X57016012Y-122607687D01*
X56689758Y-122703152D02*
X56649085Y-122238261D01*
X56654895Y-122304674D02*
X56618784Y-122274373D01*
X56549466Y-122246977D01*
X56449846Y-122255693D01*
X56386338Y-122294709D01*
X56358942Y-122364028D01*
X56390899Y-122729299D01*
X56358942Y-122364028D02*
X56319925Y-122300520D01*
X56250607Y-122273124D01*
X56150988Y-122281839D01*
X56087480Y-122320856D01*
X56060084Y-122390174D01*
X56092041Y-122755446D01*
X55759976Y-122784498D02*
X55698967Y-122087161D01*
X55722208Y-122352813D02*
X55652890Y-122325417D01*
X55520064Y-122337038D01*
X55456557Y-122376055D01*
X55426255Y-122412166D01*
X55398859Y-122481485D01*
X55416290Y-122680724D01*
X55455307Y-122744231D01*
X55491419Y-122774533D01*
X55560737Y-122801929D01*
X55693563Y-122790308D01*
X55757071Y-122751291D01*
X79225840Y-122122022D02*
X78827362Y-122087159D01*
X78965592Y-122801927D02*
X79026601Y-122104591D01*
X78533908Y-122764159D02*
X78594917Y-122066823D01*
X78235049Y-122738013D02*
X78267006Y-122372741D01*
X78306023Y-122309233D01*
X78375341Y-122281837D01*
X78474961Y-122290553D01*
X78538469Y-122329570D01*
X78568770Y-122365681D01*
X77644799Y-122217923D02*
X77604126Y-122682814D01*
X77943657Y-122244070D02*
X77911700Y-122609341D01*
X77872683Y-122672849D01*
X77803365Y-122700245D01*
X77703745Y-122691530D01*
X77640238Y-122652513D01*
X77609936Y-122616401D01*
X77272061Y-122653762D02*
X77312734Y-122188871D01*
X77306923Y-122255284D02*
X77276622Y-122219172D01*
X77213114Y-122180156D01*
X77113495Y-122171440D01*
X77044177Y-122198836D01*
X77005160Y-122262344D01*
X76973203Y-122627615D01*
X77005160Y-122262344D02*
X76977764Y-122193026D01*
X76914256Y-122154009D01*
X76814636Y-122145293D01*
X76745318Y-122172689D01*
X76706301Y-122236197D01*
X76674344Y-122601469D01*
X76342279Y-122572417D02*
X76403288Y-121875080D01*
X76380047Y-122140732D02*
X76316539Y-122101715D01*
X76183713Y-122090095D01*
X76114395Y-122117491D01*
X76078283Y-122147792D01*
X76039266Y-122211300D01*
X76021835Y-122410539D01*
X76049231Y-122479857D01*
X76079533Y-122515969D01*
X76143040Y-122554986D01*
X76275866Y-122566606D01*
X76345184Y-122539210D01*
X85046238Y-126259758D02*
X80393021Y-125439270D01*
X87775700Y-133671322D02*
X85018238Y-133185107D01*
X89440529Y-129268528D02*
X86929270Y-128825725D01*
X88818310Y-132941278D02*
X87775700Y-133671322D01*
X82655750Y-119517220D02*
X81970708Y-123402286D01*
X83327827Y-130678489D02*
X79610177Y-130022967D01*
X89460808Y-129297490D02*
X88818310Y-132941278D01*
X81969145Y-123411149D02*
X85524301Y-124038019D01*
X84307891Y-132145970D02*
X85018238Y-133185107D01*
X93729463Y-119485670D02*
X85235497Y-117987955D01*
X93034176Y-123428841D02*
X93729463Y-119485670D01*
X93034176Y-123428841D02*
X87716214Y-122491140D01*
X80388680Y-125463890D02*
X79589898Y-129994006D01*
X87716214Y-122491140D02*
G75*
G03*
X85524301Y-124038019I-378187J-1790512D01*
G01*
X84307891Y-132145970D02*
G75*
G03*
X83327827Y-130678489I-1256271J222004D01*
G01*
X85235497Y-117987955D02*
G75*
G03*
X82655750Y-119517220I-479593J-2131511D01*
G01*
X85046239Y-126259758D02*
G75*
G03*
X86929270Y-128825725I2257153J-317505D01*
G01*
D11*
X46036892Y-117004653D02*
X46232315Y-116970195D01*
X44967728Y-117797673D02*
X44760977Y-116625134D01*
X45933517Y-116418383D02*
X44370131Y-116694050D01*
X44278082Y-117314779D02*
X44473506Y-117280320D01*
X46140267Y-117590923D02*
X45933517Y-116418383D01*
X44576881Y-117866590D02*
X46140267Y-117590923D01*
X44370131Y-116694050D02*
X44576881Y-117866590D01*
X68056930Y-115219246D02*
X68255368Y-115219246D01*
X68056930Y-115814560D02*
X68056930Y-114623932D01*
X66866302Y-115814560D02*
X66866302Y-114623932D01*
X66469426Y-114623932D02*
X66469426Y-115814560D01*
X66270988Y-115219246D02*
X66469426Y-115219246D01*
X68056930Y-114623932D02*
X66469426Y-114623932D01*
X66469426Y-115814560D02*
X68056930Y-115814560D01*
D10*
X107423057Y-138339700D02*
X106269515Y-138877606D01*
X108688532Y-134862838D02*
X107423057Y-138339700D01*
X106269515Y-138877606D02*
X103638376Y-137919949D01*
X103119265Y-136773248D02*
X103638376Y-137919949D01*
X104868525Y-131104673D02*
X100428477Y-129488628D01*
X114596141Y-125941326D02*
X106491292Y-122991402D01*
X108673590Y-134830795D02*
X106277374Y-133958644D01*
X102332836Y-127765011D02*
X105725126Y-128999703D01*
X113226692Y-129703855D02*
X114596141Y-125941326D01*
X113226692Y-129703855D02*
X108152352Y-127856947D01*
X103685184Y-124049466D02*
X102335914Y-127756553D01*
X100419927Y-129512121D02*
X98846634Y-133834707D01*
X102408915Y-135157876D02*
X98861576Y-133866749D01*
X108152353Y-127856946D02*
G75*
G03*
X105725126Y-128999703I-683362J-1697638D01*
G01*
X103119264Y-136773248D02*
G75*
G03*
X102408915Y-135157876I-1198637J436779D01*
G01*
X106491292Y-122991402D02*
G75*
G03*
X103685184Y-124049466I-842438J-2015851D01*
G01*
X104868524Y-131104673D02*
G75*
G03*
X106277374Y-133958644I2167727J-704633D01*
G01*
X39852915Y-121633183D02*
X40537957Y-125518250D01*
X44405322Y-127151502D02*
X39752106Y-127971989D01*
X50248011Y-117816104D02*
X41754044Y-119313819D01*
X49592627Y-128496164D02*
X50235126Y-132139953D01*
X45724706Y-132935261D02*
X46747620Y-133668778D01*
X49563666Y-128475885D02*
X47052406Y-128918688D01*
X50943298Y-121759274D02*
X50248011Y-117816104D01*
X40539520Y-125527113D02*
X44094676Y-124900243D01*
X39756447Y-127996610D02*
X40555228Y-132526725D01*
X50235126Y-132139953D02*
X49505082Y-133182563D01*
X44301839Y-131891482D02*
X40584190Y-132547004D01*
X49505082Y-133182563D02*
X46747620Y-133668778D01*
X50943298Y-121759274D02*
X45625336Y-122696974D01*
X41754044Y-119313819D02*
G75*
G03*
X39852915Y-121633183I278353J-2166997D01*
G01*
X45625336Y-122696974D02*
G75*
G03*
X44094676Y-124900243I257011J-1811878D01*
G01*
X44405323Y-127151502D02*
G75*
G03*
X47052406Y-128918688I2229623J473635D01*
G01*
X45724707Y-132935261D02*
G75*
G03*
X44301839Y-131891482I-1256439J-221055D01*
G01*
D11*
X88773920Y-117662392D02*
X88980671Y-116489853D01*
X90153210Y-116696603D02*
X88589824Y-116420936D01*
X88383074Y-117593476D02*
X89946460Y-117869143D01*
X90049835Y-117282873D02*
X90245258Y-117317331D01*
X88589824Y-116420936D02*
X88383074Y-117593476D01*
X89946460Y-117869143D02*
X90153210Y-116696603D01*
X88291025Y-116972747D02*
X88486449Y-117007206D01*
X110066767Y-122030660D02*
X109659548Y-123149485D01*
X109676687Y-122522203D02*
X109863158Y-122590073D01*
X109659548Y-123149485D02*
X111151314Y-123692443D01*
X111151314Y-123692443D02*
X111558533Y-122573619D01*
X110032490Y-123285224D02*
X110439708Y-122166400D01*
X111354923Y-123133031D02*
X111541394Y-123200901D01*
X111558533Y-122573619D02*
X110066767Y-122030660D01*
D10*
X72063171Y-116749619D02*
X63438171Y-116749619D01*
X63763171Y-129578619D02*
X59988171Y-129578619D01*
X68663171Y-131753619D02*
X65863171Y-131753619D01*
X61163171Y-118703619D02*
X61163171Y-122648619D01*
X69563171Y-130853619D02*
X68663171Y-131753619D01*
X61163171Y-122657619D02*
X64773171Y-122657619D01*
X59963171Y-124953619D02*
X59963171Y-129553619D01*
X72063171Y-120753619D02*
X72063171Y-116749619D01*
X72063171Y-120753619D02*
X66663171Y-120753619D01*
X69563171Y-127153619D02*
X69563171Y-130853619D01*
X69538171Y-127128619D02*
X66988171Y-127128619D01*
X64983171Y-130853619D02*
X65863171Y-131753619D01*
X64688171Y-124928619D02*
X59963171Y-124928619D01*
X66663171Y-120753619D02*
G75*
G03*
X64773171Y-122657619I-61523J-1828981D01*
G01*
X63438171Y-116749619D02*
G75*
G03*
X61163171Y-118703619I-102171J-2182411D01*
G01*
X64688172Y-124928619D02*
G75*
G03*
X66988171Y-127128619I2277996J79269D01*
G01*
X64983171Y-130853619D02*
G75*
G03*
X63763171Y-129578619I-1275736J482D01*
G01*
D12*
X58244838Y-115932312D02*
X54379603Y-116270476D01*
X59642220Y-118480218D02*
X59742449Y-119625842D01*
X53546118Y-120167950D02*
X59410386Y-115830340D01*
X53546118Y-120167950D02*
X54592123Y-120076437D01*
X53445889Y-119022327D02*
X53546118Y-120167950D01*
X59742449Y-119625842D02*
X53214055Y-116372449D01*
X58696445Y-119717355D02*
X58782729Y-120703588D01*
X59742449Y-119625842D02*
X58696445Y-119717355D01*
X74783882Y-119625841D02*
X75829886Y-119717354D01*
X80146728Y-116270475D02*
X76281493Y-115932311D01*
X79934208Y-120076436D02*
X79847924Y-121062669D01*
X81080442Y-119022326D02*
X80980213Y-120167949D01*
X74884111Y-118480217D02*
X74783882Y-119625841D01*
X80980213Y-120167949D02*
X79934208Y-120076436D01*
%LPC*%
D13*
X38688167Y-135459876D03*
D14*
X93237327Y-126307856D03*
X82404441Y-124397726D03*
D15*
X87820884Y-125352791D03*
D16*
X92823707Y-126234924D03*
X82818061Y-124470658D03*
D17*
X93691305Y-120853830D03*
D18*
X81368296Y-121635842D03*
D19*
X84509833Y-122189780D03*
X82254347Y-128128339D03*
D18*
X79102962Y-127572665D03*
X94316421Y-121339762D03*
D19*
X86796360Y-131163157D03*
X91204428Y-120791034D03*
D18*
X89949481Y-131708983D03*
D20*
X116915481Y-126420537D03*
D13*
X76788168Y-131094250D03*
D21*
X43556398Y-117442031D03*
X42128426Y-117693821D03*
X46953984Y-116842945D03*
D22*
X48381956Y-116591155D03*
D13*
X38660000Y-116340000D03*
D23*
X65538170Y-115219246D03*
X64088170Y-115219246D03*
X68988170Y-115219246D03*
D22*
X70438170Y-115219246D03*
D13*
X95838173Y-135459873D03*
D20*
X112029756Y-139847195D03*
D24*
X114320984Y-127282074D03*
D14*
X112926820Y-132574409D03*
D15*
X107758511Y-130693298D03*
D16*
X112532150Y-132430760D03*
X102984872Y-128955836D03*
D14*
X102590202Y-128812187D03*
D25*
X98787557Y-131365596D03*
D19*
X101794573Y-132460060D03*
X105047013Y-127003382D03*
D25*
X102049394Y-125912338D03*
X114852221Y-127869174D03*
D19*
X105740592Y-136237484D03*
D25*
X108751029Y-137322552D03*
D19*
X111882793Y-126788391D03*
D13*
X95838170Y-116409867D03*
D16*
X51705259Y-124468114D03*
X41699613Y-126232380D03*
D14*
X52118879Y-124395182D03*
X41285993Y-126305312D03*
D15*
X46702436Y-125350247D03*
D26*
X50680092Y-119114804D03*
D27*
X39367715Y-124064373D03*
D19*
X42509252Y-123510435D03*
D27*
X39269511Y-130417951D03*
D19*
X42420895Y-129862277D03*
X48321715Y-119906357D03*
D27*
X51433707Y-119357629D03*
X50876609Y-130595090D03*
D19*
X47726960Y-131160613D03*
D28*
X87569341Y-116845495D03*
X86141369Y-116593705D03*
D22*
X92394899Y-117696371D03*
D28*
X90966927Y-117444581D03*
D29*
X107625509Y-121775635D03*
X108988063Y-122271564D03*
D22*
X113592557Y-123947463D03*
D29*
X112230003Y-123451534D03*
D13*
X57738174Y-131094247D03*
D16*
X62183171Y-123553619D03*
D30*
X72263171Y-118103619D03*
D15*
X67263171Y-123553619D03*
D14*
X72763171Y-123553619D03*
D16*
X72343171Y-123553619D03*
D14*
X61763171Y-123553619D03*
D31*
X60263171Y-121013619D03*
X59063171Y-127253619D03*
D19*
X62263171Y-127253619D03*
X63453171Y-121013619D03*
D31*
X70463171Y-129443619D03*
D19*
X69803171Y-118473619D03*
D31*
X72963171Y-118473619D03*
D19*
X67263171Y-129453619D03*
D20*
X103488832Y-121531455D03*
D32*
X58198713Y-120453537D03*
X57202519Y-120540693D03*
X56206324Y-120627848D03*
X55210129Y-120715004D03*
D33*
X59206153Y-117052792D03*
X53627462Y-117540864D03*
D34*
X79316202Y-120715003D03*
X78320007Y-120627847D03*
X77323812Y-120540692D03*
X76327618Y-120453536D03*
D35*
X80898869Y-117540863D03*
X75320178Y-117052791D03*
M02*
