M48
; DRILL file {KiCad (6.0.11-0)} date Tuesday, 07 February 2023 at 20:00:42
; FORMAT={-:-/ absolute / inch / decimal}
; #@! TF.CreationDate,2023-02-07T20:00:42+09:00
; #@! TF.GenerationSoftware,Kicad,Pcbnew,(6.0.11-0)
; #@! TF.FileFunction,Plated,1,2,PTH
FMAT,2
INCH
; #@! TA.AperFunction,Plated,PTH,ViaDrill
T1C0.0157
; #@! TA.AperFunction,Plated,PTH,ComponentDrill
T2C0.0295
; #@! TA.AperFunction,Plated,PTH,ComponentDrill
T3C0.0394
; #@! TA.AperFunction,Plated,PTH,ComponentDrill
T4C0.0504
; #@! TA.AperFunction,Plated,PTH,ComponentDrill
T5C0.1181
%
G90
G05
T1
X2.1165Y-4.7113
X2.2614Y-4.8517
X3.0132Y-5.0085
X3.0388Y-4.8081
X3.0852Y-4.5431
T2
X1.6586Y-4.6336
X1.9048Y-4.5902
X2.5232Y-4.5362
X2.7732Y-4.5362
X3.3914Y-4.5903
X3.6376Y-4.6337
X4.2372Y-4.7943
X4.4721Y-4.8798
T3
X2.1113Y-4.6276
X2.331Y-4.6084
X2.9654Y-4.6084
X3.185Y-4.6276
T4
X4.0744Y-4.7847
X4.4106Y-5.5058
X4.603Y-4.9772
T5
X1.6701Y-5.1127
X1.6736Y-4.8626
X1.879Y-5.1638
X1.9024Y-4.7207
X2.4513Y-5.01
X2.4982Y-4.7643
X2.6482Y-5.0966
X2.7482Y-4.6643
X3.2384Y-5.0444
X3.3272Y-4.8106
X3.4172Y-5.1639
X3.5907Y-4.7556
X4.0077Y-5.215
X4.1357Y-5.0001
X4.163Y-5.3637
X4.4048Y-4.9917
T0
M30
